<svg width="343" height="100" viewBox="0 0 343 100" fill="none" xmlns="http://www.w3.org/2000/svg">
<mask id="mask0_27_726" style="mask-type:luminance" maskUnits="userSpaceOnUse" x="0" y="0" width="343" height="100">
<path d="M339 0H4C1.79086 0 0 1.79086 0 4V96C0 98.2091 1.79087 100 4.00001 100H339C341.209 100 343 98.2091 343 96V4C343 1.79086 341.209 0 339 0Z" fill="white"/>
</mask>
<g mask="url(#mask0_27_726)">
<path d="M339 0H4C1.79086 0 0 1.79086 0 4V96C0 98.2091 1.79087 100 4.00001 100H339C341.209 100 343 98.2091 343 96V4C343 1.79086 341.209 0 339 0Z" fill="#5398D8"/>
</g>
<mask id="mask1_27_726" style="mask-type:luminance" maskUnits="userSpaceOnUse" x="0" y="0" width="343" height="100">
<path d="M339 0H4C1.79086 0 0 1.79086 0 4V96C0 98.2091 1.79087 100 4.00001 100H339C341.209 100 343 98.2091 343 96V4C343 1.79086 341.209 0 339 0Z" fill="white"/>
</mask>
<g mask="url(#mask1_27_726)">
<path d="M278.343 18.3279L233.323 36.7313C231.279 37.5672 230.447 39.8337 231.466 41.7936L258.905 94.5552C259.924 96.5151 262.408 97.4263 264.453 96.5904L309.473 78.187C311.517 77.3511 312.349 75.0846 311.33 73.1247L283.891 20.3631C282.872 18.4032 280.388 17.492 278.343 18.3279Z" fill="white"/>
<path d="M262.055 101.704C260.141 102.486 257.946 101.681 256.992 99.8468L226.023 40.294C224.937 38.2061 225.879 35.6366 228.058 34.746L280.742 13.2067C282.656 12.4242 284.851 13.2292 285.805 15.0635L316.779 74.6198C317.865 76.7079 316.922 79.2776 314.743 80.1681L262.055 101.704ZM239.302 38.4195C237.123 39.31 236.181 41.8797 237.267 43.9678L261.145 89.8784C262.099 91.7126 264.293 92.5176 266.207 91.7353L303.5 76.4908C305.678 75.6002 306.621 73.0305 305.535 70.9425L281.657 25.0319C280.703 23.1977 278.508 22.3927 276.595 23.175L239.302 38.4195Z" fill="#26386C"/>
<path d="M246.426 50.4497C246.154 50.4497 245.887 50.3535 245.691 50.1796L241.847 46.7899C241.438 46.431 241.438 45.8426 241.843 45.48C242.252 45.1173 242.911 45.1173 243.32 45.4763C244.559 46.5677 246.51 46.044 247.036 44.4788L248.425 40.3437C248.588 39.8552 249.172 39.574 249.723 39.722C250.274 39.8663 250.591 40.3844 250.424 40.8729L247.432 49.7873C247.327 50.0982 247.043 50.3387 246.689 50.4201C246.597 50.4423 246.513 50.4497 246.426 50.4497Z" fill="#E6294C"/>
<path d="M251.396 60.005C251.125 60.005 250.858 59.9088 250.661 59.7349L246.817 56.3452C246.408 55.9863 246.408 55.3979 246.813 55.0353C247.218 54.6726 247.882 54.6726 248.291 55.0316C249.53 56.123 251.481 55.5993 252.006 54.0341L253.395 49.899C253.558 49.4105 254.142 49.1293 254.693 49.2773C255.244 49.4216 255.561 49.9397 255.394 50.4282L252.402 59.3426C252.298 59.6535 252.014 59.894 251.659 59.9754C251.567 59.9976 251.479 60.005 251.396 60.005Z" fill="#E6294C"/>
<path d="M256.367 69.5633C256.096 69.5633 255.829 69.467 255.633 69.2931L251.789 65.9035C251.38 65.5445 251.38 64.9561 251.784 64.5935C252.193 64.2308 252.853 64.2308 253.262 64.5898C254.501 65.6812 256.452 65.1575 256.978 63.5923L258.367 59.4572C258.529 58.9687 259.109 58.6875 259.665 58.8355C260.216 58.9798 260.533 59.4979 260.366 59.9864L257.373 68.9009C257.269 69.2117 256.985 69.4522 256.63 69.5337C256.538 69.5522 256.451 69.5633 256.367 69.5633Z" fill="#E6294C"/>
<path d="M261.335 79.1173C261.063 79.1173 260.796 79.0211 260.6 78.8472L256.756 75.4576C256.347 75.0986 256.347 74.5102 256.752 74.1476C257.157 73.7849 257.82 73.7849 258.229 74.1439C259.468 75.2353 261.419 74.7116 261.945 73.1464L263.334 69.0113C263.497 68.5228 264.081 68.2416 264.632 68.3896C265.183 68.5339 265.5 69.052 265.333 69.5405L262.34 78.4549C262.236 78.7658 261.952 79.0063 261.597 79.0877C261.51 79.1099 261.422 79.1173 261.335 79.1173Z" fill="#E6294C"/>
<path d="M266.305 88.6763C266.034 88.6763 265.767 88.5801 265.571 88.4062L261.727 85.0165C261.318 84.6576 261.318 84.0692 261.723 83.7065C262.132 83.3439 262.791 83.3439 263.2 83.7028C264.439 84.7943 266.39 84.2705 266.916 82.7053L268.305 78.5702C268.467 78.0818 269.052 77.8005 269.603 77.9486C270.154 78.0929 270.471 78.6109 270.304 79.0994L267.311 88.0139C267.207 88.3247 266.923 88.5653 266.568 88.6467C266.477 88.6652 266.393 88.6763 266.305 88.6763Z" fill="#E6294C"/>
<path d="M277.982 26.9057L253.621 36.8645C253.164 37.051 252.979 37.5566 253.206 37.9939C253.434 38.4312 253.988 38.6345 254.444 38.448L278.806 28.4893C279.262 28.3028 279.448 27.7971 279.22 27.3598C278.993 26.9225 278.439 26.7192 277.982 26.9057Z" fill="#C7C6C6"/>
<path d="M279.355 29.5477L254.994 39.5064C254.537 39.6929 254.352 40.1986 254.579 40.6359C254.807 41.0732 255.361 41.2765 255.817 41.09L280.179 31.1313C280.635 30.9447 280.821 30.4391 280.593 30.0018C280.366 29.5645 279.811 29.3612 279.355 29.5477Z" fill="#C7C6C6"/>
<path d="M275.531 43.4907L260.302 49.716C259.846 49.9025 259.66 50.4082 259.888 50.8455C260.115 51.2828 260.669 51.4861 261.125 51.2996L276.354 45.0743C276.81 44.8878 276.996 44.3821 276.768 43.9448C276.541 43.5075 275.987 43.3042 275.531 43.4907Z" fill="#C7C6C6"/>
<path d="M279.104 50.3582L263.875 56.5834C263.419 56.77 263.233 57.2756 263.461 57.7129C263.688 58.1502 264.243 58.3535 264.699 58.167L279.927 51.9417C280.384 51.7552 280.569 51.2495 280.342 50.8123C280.114 50.375 279.56 50.1717 279.104 50.3582Z" fill="#C7C6C6"/>
<path d="M280.843 53.7041L265.614 59.9294C265.158 60.1159 264.973 60.6216 265.2 61.0589C265.428 61.4962 265.982 61.6995 266.438 61.513L281.667 55.2877C282.123 55.1012 282.308 54.5955 282.081 54.1582C281.854 53.7209 281.299 53.5176 280.843 53.7041Z" fill="#C7C6C6"/>
<path d="M285.054 61.8025L269.825 68.0278C269.369 68.2143 269.183 68.72 269.411 69.1573C269.638 69.5945 270.193 69.7978 270.649 69.6113L285.877 63.3861C286.334 63.1996 286.519 62.6939 286.292 62.2566C286.064 61.8193 285.51 61.616 285.054 61.8025Z" fill="#C7C6C6"/>
<path d="M286.519 64.6181L271.291 70.8433C270.834 71.0298 270.649 71.5355 270.876 71.9728C271.104 72.4101 271.658 72.6134 272.114 72.4269L287.343 66.2016C287.799 66.0151 287.985 65.5094 287.757 65.0721C287.53 64.6349 286.976 64.4316 286.519 64.6181Z" fill="#C7C6C6"/>
<path d="M283.384 37.2942L259.022 47.2529C258.566 47.4394 258.38 47.9451 258.608 48.3824C258.835 48.8196 259.389 49.0229 259.846 48.8364L284.207 38.8777C284.664 38.6912 284.849 38.1855 284.622 37.7482C284.394 37.311 283.84 37.1077 283.384 37.2942Z" fill="#C7C6C6"/>
<path d="M295.652 60.885L271.29 70.8437C270.834 71.0302 270.648 71.5359 270.876 71.9732C271.103 72.4105 271.657 72.6138 272.114 72.4273L296.475 62.4685C296.931 62.282 297.117 61.7763 296.89 61.3391C296.662 60.9018 296.108 60.6985 295.652 60.885Z" fill="#C7C6C6"/>
<path d="M300.138 69.5134L275.776 79.4721C275.32 79.6586 275.134 80.1643 275.362 80.6016C275.589 81.0389 276.143 81.2422 276.599 81.0557L300.961 71.0969C301.417 70.9104 301.603 70.4048 301.375 69.9675C301.148 69.5302 300.594 69.3269 300.138 69.5134Z" fill="#C7C6C6"/>
<path d="M251.666 19.5163C247.387 21.2667 244.887 25.2745 244.576 29.96C244.412 32.4221 247.043 33.7889 249.327 32.8551L263.78 26.9464C266.326 25.9055 267.051 22.6447 264.718 21.1863C260.604 18.6138 255.775 17.8358 251.666 19.5163Z" fill="#EF8D43"/>
<path d="M313.679 50.7073C313.193 50.1499 312.681 49.623 312.144 49.1279C311.593 48.6194 311.202 47.9548 310.721 47.3797C310.703 47.3592 310.686 47.3388 310.668 47.3186L300.874 36.049C299.625 34.6097 297.297 34.3448 295.674 35.4519C294.05 36.5591 293.751 38.6232 295 40.0626L298.048 43.5705C298.061 43.5857 298.051 43.6095 298.031 43.6095C298.024 43.6095 298.017 43.6065 298.013 43.6014L293.332 38.2159C292.083 36.7766 289.755 36.5117 288.132 37.6189C286.508 38.726 286.21 40.7901 287.458 42.2295L290.167 45.349C290.178 45.3616 290.174 45.3812 290.159 45.3874C290.149 45.3913 290.139 45.3878 290.132 45.38L286.009 40.632C284.76 39.1926 282.432 38.9277 280.809 40.0349C279.185 41.1421 278.886 43.2062 280.135 44.6455L284.662 49.8534C284.67 49.8625 284.671 49.8743 284.664 49.8839C284.654 49.8963 284.635 49.8979 284.625 49.8861L275.648 39.5564C274.4 38.1171 272.071 37.8522 270.448 38.9593C268.825 40.0665 268.526 42.1306 269.774 43.57L279.569 54.8395C279.769 55.0713 279.836 55.3994 279.681 55.6638L277.713 59.0349L277.709 59.0428C277.464 59.458 277.517 59.9641 277.838 60.3358L284.055 67.489C284.182 67.6355 284.32 67.7697 284.468 67.8914C285.016 68.3417 285.611 68.7507 286.07 69.2902C286.119 69.3477 286.169 69.4051 286.218 69.4622C289.709 73.4797 294.619 75.8778 299.593 76.4329C300.712 76.5578 301.776 77.0364 302.515 77.8862L302.802 78.2175C304.134 79.75 306.402 80.0422 308.078 78.8972L319.027 71.4189C321.002 70.0695 321.36 67.2992 319.791 65.4929L319.089 64.6846C318.358 63.8431 318.039 62.7343 318.028 61.6198C317.992 57.8924 316.561 54.0252 313.679 50.7073Z" fill="#FACD91"/>
<path d="M271.127 39.6907C269.86 40.5527 269.525 42.0909 270.27 43.297C270.4 43.5065 270.707 43.5579 270.921 43.4156L275.239 40.4657C275.448 40.3194 275.471 40.0426 275.279 39.8766C274.15 38.9355 272.389 38.8287 271.127 39.6907Z" fill="#F9DFC2"/>
<path d="M287.749 53.7958C287.615 53.7958 287.481 53.7444 287.396 53.6416L279.48 44.5311C279.328 44.3571 279.364 44.108 279.56 43.9775C279.756 43.847 280.037 43.8747 280.185 44.0486L288.101 53.1592C288.253 53.3331 288.217 53.5823 288.021 53.7128C287.94 53.7681 287.842 53.7958 287.749 53.7958Z" fill="#CDA872"/>
<path d="M293.818 49.94C293.685 49.94 293.551 49.8886 293.466 49.7858L287.231 42.6128C287.079 42.4388 287.115 42.1897 287.311 42.0592C287.508 41.9248 287.789 41.9564 287.936 42.1304L294.171 49.3034C294.322 49.4773 294.287 49.7265 294.091 49.8569C294.01 49.9123 293.917 49.94 293.818 49.94Z" fill="#CDA872"/>
<path d="M301.201 47.5911C301.067 47.5911 300.933 47.5397 300.848 47.4369L294.613 40.264C294.462 40.09 294.497 39.8409 294.693 39.7104C294.89 39.5799 295.171 39.6076 295.318 39.7816L301.553 46.9545C301.705 47.1285 301.669 47.3776 301.473 47.5081C301.392 47.5635 301.299 47.5911 301.201 47.5911Z" fill="#CDA872"/>
<path d="M289.738 65.7923C286.598 65.7923 280.845 57.3065 279.672 55.5271C279.547 55.3373 279.618 55.0961 279.832 54.9854C280.047 54.8747 280.319 54.9379 280.443 55.1277C283.356 59.5486 288.222 65.5313 289.903 64.9777C290.135 64.9026 290.389 65.0054 290.478 65.211C290.563 65.4166 290.447 65.642 290.215 65.7171C290.064 65.7685 289.903 65.7923 289.738 65.7923Z" fill="#CDA872"/>
<path d="M320.743 64.889L301.864 77.7836C300.04 79.0296 299.736 81.3915 301.185 83.0591L314.161 97.9925C315.61 99.6601 318.263 100.002 320.088 98.7559L338.966 85.8613C340.791 84.6152 341.095 82.2533 339.646 80.5857L326.67 65.6523C325.221 63.9847 322.567 63.6429 320.743 64.889Z" fill="white"/>
<path d="M351.671 94.4208L325.287 113.816C322.672 115.736 318.922 115.272 316.91 112.777L302.622 95.081C300.609 92.5861 301.095 89.0075 303.71 87.0872L330.094 67.6922C332.708 65.7719 336.459 66.2356 338.471 68.7305L352.759 86.4269C354.771 88.9168 354.285 92.5004 351.671 94.4208Z" fill="#7ECEF2"/>
</g>
<path d="M20.2762 55.5356C21.4292 55.2908 22.2659 54.716 22.7862 53.8113C23.3066 52.9066 23.5719 51.7465 23.5719 50.3203V50.2245C23.5719 49.8626 23.6331 49.5539 23.7658 49.2879C23.8882 49.0218 24.0617 48.8089 24.2861 48.6493C24.5106 48.4896 24.7453 48.3619 25.0208 48.2767C25.2963 48.1916 25.582 48.1597 25.8881 48.1597C26.4697 48.1703 26.9798 48.3512 27.3982 48.6918C27.8267 49.0324 28.041 49.5433 28.041 50.2245V50.3203C28.041 50.6821 28.0308 51.0227 28.0002 51.3633C27.9696 51.7039 27.9287 52.0232 27.8879 52.3319C28.6634 52.3957 29.3776 52.5767 30.0102 52.8853C30.6428 53.194 31.1836 53.6197 31.6326 54.1838C32.0815 54.7479 32.4182 55.4291 32.6427 56.2487C32.8672 57.0576 32.9488 58.0048 32.8876 59.0798H28.5818C28.6838 58.1006 28.5716 57.3237 28.245 56.7489C27.9185 56.1742 27.4084 55.8549 26.7145 55.7697C26.0717 56.8873 25.2657 57.7388 24.3065 58.3348C23.3372 58.9415 22.3169 59.2608 21.2455 59.3033C20.6639 59.3353 20.1844 59.2075 19.7966 58.9308C19.4089 58.6541 19.164 58.2922 19.062 57.8345C18.9396 57.2917 19.0008 56.7915 19.2253 56.3551C19.4497 55.9187 19.7966 55.6526 20.2762 55.5356ZM23.5719 69.9894C23.0617 69.9894 22.6128 69.9042 22.2148 69.7339C21.8169 69.5636 21.4904 69.3295 21.2149 69.0314C20.9496 68.7334 20.7354 68.3928 20.6027 68.0097C20.4599 67.6265 20.3884 67.2221 20.3884 66.807V66.5196C20.3884 65.6788 20.6639 65.0082 21.2047 64.508C21.7557 64.0077 22.5414 63.7629 23.5719 63.7629H34.867V63.1563C34.867 63.0179 34.8466 62.9221 34.7956 62.8582C34.7548 62.805 34.6528 62.7731 34.4997 62.7731H21.8679C21.4292 62.7731 21.1231 62.6347 20.9292 62.3474C20.7354 62.0706 20.6333 61.7513 20.6333 61.3895C20.6333 61.0595 20.7354 60.7508 20.9292 60.4635C21.1231 60.1761 21.4394 60.0271 21.8679 60.0271H36.6832C37.6832 60.0271 38.3974 60.208 38.8056 60.5699C39.2137 60.9318 39.4178 61.5704 39.4178 62.4857V66.2322H25.6228C25.4595 66.2322 25.3371 66.2748 25.2555 66.3599C25.1636 66.4557 25.1228 66.5622 25.1228 66.6899V66.7644C25.1228 66.8921 25.1636 66.9985 25.2452 67.0837C25.3269 67.1688 25.4493 67.2114 25.6126 67.2114H38.7239C39.1729 67.2114 39.4994 67.3604 39.7035 67.6584C39.9075 67.9565 40.0096 68.2864 40.0096 68.6376C40.0096 68.9676 39.9075 69.2762 39.7137 69.5636C39.5198 69.851 39.1933 70 38.7239 70H23.5719V69.9894ZM34.9589 54.2477H33.0712C32.5203 54.2477 32.0917 54.0561 31.7754 53.6836C31.4693 53.3111 31.3163 52.8747 31.3163 52.3745C31.3163 51.8742 31.4591 51.4378 31.7448 51.0653C32.0305 50.6928 32.4692 50.5012 33.0712 50.5012H34.9589V50.2671C34.9589 49.522 35.1833 48.9473 35.6323 48.5641C36.0812 48.1916 36.5914 48 37.1832 48C37.4689 48 37.7444 48.0532 38.0097 48.149C38.275 48.2448 38.5199 48.3938 38.7239 48.5854C38.9382 48.777 39.1014 49.0111 39.2341 49.2879C39.3565 49.5646 39.428 49.8945 39.428 50.2671V59.2821H34.9589V54.2477Z" fill="white"/>
<path d="M49.9069 61.9534H43.2135C42.8972 61.9534 42.6319 61.9002 42.4074 61.7938C42.1829 61.6874 41.9993 61.549 41.8666 61.3681C41.734 61.1978 41.632 61.0062 41.5605 60.7827C41.4891 60.5592 41.4585 60.3463 41.4585 60.1228C41.4585 59.8993 41.4891 59.6864 41.5503 59.4629C41.6115 59.2394 41.7136 59.0478 41.8564 58.8668C41.9993 58.6859 42.1829 58.5475 42.4074 58.4305C42.6319 58.324 42.8972 58.2708 43.2135 58.2708H60.7225C61.0388 58.2708 61.3041 58.324 61.5286 58.4305C61.753 58.5369 61.9367 58.6859 62.0795 58.8668C62.2224 59.0478 62.3244 59.25 62.3856 59.4629C62.4469 59.6864 62.4775 59.8993 62.4775 60.1228C62.4775 60.3463 62.4469 60.5592 62.3754 60.7827C62.304 61.0062 62.2122 61.1978 62.0693 61.3681C61.9367 61.5383 61.753 61.6767 61.5286 61.7938C61.3041 61.9002 61.0388 61.9534 60.7225 61.9534H54.4168V65.1145H49.9069V61.9534ZM45.6011 57.1532C44.9276 57.1532 44.3767 57.0894 43.9583 56.9723C43.54 56.8552 43.2135 56.6637 42.9788 56.3976C42.7441 56.1315 42.5911 55.7696 42.5094 55.3226C42.4278 54.8649 42.387 54.3008 42.387 53.609V51.8422C42.387 51.1716 42.4278 50.6075 42.5094 50.1605C42.5911 49.7028 42.7441 49.341 42.9788 49.0642C43.2135 48.7875 43.54 48.5959 43.9583 48.4895C44.3767 48.3831 44.9276 48.3298 45.6011 48.3298H58.3757C59.0491 48.3298 59.6001 48.3831 60.0185 48.4895C60.4368 48.5959 60.7633 48.7875 60.998 49.0642C61.2327 49.341 61.3857 49.7028 61.4673 50.1499C61.549 50.5969 61.5898 51.161 61.5898 51.8315V57.1532H45.6011ZM45.7949 69.9892C45.1623 69.9892 44.642 69.936 44.2236 69.8083C43.8053 69.6912 43.4788 69.4996 43.2339 69.2336C42.9992 68.9675 42.8257 68.6162 42.7237 68.1905C42.6217 67.7648 42.5809 67.2219 42.5809 66.5833V65.0826C42.5809 64.2844 42.8155 63.7096 43.2747 63.3477C43.7339 62.9859 44.2848 62.8049 44.9174 62.8049C45.5501 62.8049 46.0806 62.9859 46.5194 63.3477C46.9581 63.7096 47.1826 64.2844 47.1826 65.0826V65.8809C47.1826 66.147 47.2234 66.2853 47.2948 66.3173C47.3663 66.3385 47.5295 66.3492 47.7846 66.3492H59.8858C60.5694 66.3492 61.0592 66.5301 61.3449 66.9026C61.6306 67.2752 61.7734 67.6903 61.7734 68.1586C61.7734 68.6375 61.6306 69.0633 61.3347 69.4358C61.0388 69.7977 60.5592 69.9892 59.8858 69.9892H45.7949ZM46.8765 53.13C46.8765 53.3642 46.9071 53.5345 46.9785 53.6303C47.05 53.7367 47.1928 53.7793 47.4173 53.7793H57.1105V52.3318C57.1105 52.1083 57.0697 51.9486 56.9983 51.8528C56.9268 51.757 56.7738 51.7038 56.5493 51.7038H47.4173C47.1928 51.7038 47.05 51.757 46.9785 51.8528C46.9071 51.9592 46.8765 52.1189 46.8765 52.3318V53.13Z" fill="white"/>
<path d="M72.0589 65.7215V62.8903C72.0589 62.5178 72.1201 62.1878 72.2527 61.9005C72.3854 61.6131 72.5486 61.3683 72.7731 61.1767C72.9874 60.9851 73.2322 60.8361 73.5179 60.7403C73.7934 60.6445 74.0893 60.602 74.4056 60.602C74.7015 60.602 74.9974 60.6552 75.2831 60.751C75.5688 60.8574 75.8137 60.9958 76.0382 61.1874C76.2525 61.3789 76.4259 61.6131 76.5586 61.9005C76.681 62.1878 76.7524 62.5178 76.7524 62.8903V65.7215H83.0581C83.405 65.7215 83.6907 65.7747 83.9356 65.8811C84.1703 65.9875 84.3743 66.1366 84.5172 66.3175C84.6702 66.4984 84.7723 66.7007 84.8437 66.9242C84.9151 67.1477 84.9457 67.3818 84.9457 67.616C84.9457 68.0949 84.8029 68.542 84.507 68.9251C84.2111 69.3189 83.7315 69.5105 83.0581 69.5105H65.8144C65.141 69.5105 64.6614 69.3189 64.3655 68.9251C64.0696 68.5313 63.9268 68.0949 63.9268 67.616C63.9268 67.3818 63.9574 67.1477 64.0288 66.9242C64.1002 66.7007 64.2023 66.4984 64.3553 66.3175C64.5084 66.1366 64.7022 65.9982 64.9369 65.8811C65.1716 65.7747 65.4675 65.7215 65.8144 65.7215H72.0589ZM76.8238 52.6407C76.8136 52.9174 76.783 53.1941 76.732 53.4709C76.681 53.7476 76.63 54.0137 76.5483 54.2798H76.681C77.6197 54.2798 78.5482 54.4394 79.4461 54.7481C80.344 55.0567 81.1501 55.525 81.8745 56.153C82.5888 56.781 83.1805 57.5579 83.6397 58.5052C84.0989 59.4525 84.3641 60.5487 84.4356 61.8153H80.0175C79.8032 60.5487 79.2522 59.5589 78.3441 58.8564C77.436 58.1433 76.3239 57.7921 75.0076 57.7921C74.9464 57.7921 74.875 57.7921 74.7934 57.8027C74.7117 57.8134 74.6301 57.824 74.5587 57.8347C74.0383 58.4094 73.4567 58.9309 72.8343 59.3886C72.2119 59.8463 71.5487 60.2507 70.8753 60.5913C70.1916 60.9319 69.4978 61.2086 68.7938 61.4109C68.0897 61.6131 67.4163 61.7408 66.7735 61.7834C66.1613 61.8472 65.6205 61.7195 65.1716 61.4002C64.7226 61.0809 64.4471 60.6445 64.3757 60.1017C64.3043 59.5908 64.3961 59.1225 64.6512 58.6968C64.9165 58.271 65.3246 58.0156 65.8756 57.9198C66.6409 57.7921 67.3755 57.5792 68.0999 57.2812C68.8244 56.9832 69.4672 56.5894 70.0488 56.1317C70.6304 55.674 71.1099 55.1419 71.4977 54.5458C71.8752 53.9498 72.1099 53.3112 72.1813 52.63H66.6511C66.3041 52.63 66.0185 52.5768 65.7838 52.4704C65.5491 52.3639 65.3552 52.2149 65.2022 52.0233C65.0491 51.8318 64.9369 51.6295 64.8655 51.3954C64.794 51.1612 64.7634 50.9271 64.7634 50.6929C64.7634 50.4588 64.794 50.2246 64.8655 49.9904C64.9369 49.7563 65.0389 49.5434 65.192 49.3625C65.345 49.1709 65.5389 49.0219 65.7736 48.9048C66.0082 48.7877 66.3041 48.7239 66.6511 48.7239H82.1806C82.5275 48.7239 82.8132 48.7771 83.0581 48.9048C83.2928 49.0219 83.4866 49.1709 83.6397 49.3625C83.7928 49.5541 83.8948 49.7563 83.9662 49.9904C84.0376 50.2246 84.0682 50.4588 84.0682 50.6929C84.0682 50.9271 84.0376 51.1612 83.9662 51.3954C83.8948 51.6295 83.7825 51.8424 83.6295 52.0233C83.4764 52.2149 83.2826 52.3639 83.0377 52.4704C82.803 52.5768 82.5173 52.63 82.1806 52.63H76.8238V52.6407Z" fill="white"/>
<path d="M86.4551 65.285C87.2816 64.7102 87.955 64.029 88.4958 63.2627C89.0366 62.4857 89.4651 61.5917 89.8018 60.5806C90.1385 59.5694 90.363 58.4199 90.4956 57.1427C90.6283 55.8655 90.6997 54.418 90.6997 52.8108V50.9695C90.6997 50.2245 90.9242 49.6497 91.3731 49.2772C91.8221 48.9047 92.3425 48.7025 92.924 48.7025C93.2097 48.7025 93.4852 48.7557 93.7505 48.8515C94.0158 48.9473 94.2607 49.0963 94.4546 49.2985C94.6586 49.4901 94.8219 49.7349 94.9443 50.0116C95.0668 50.2883 95.1382 50.6076 95.1382 50.9695V52.7683C95.1382 53.4707 95.1178 54.1413 95.0974 54.7905C95.0668 55.4504 95.0157 56.0784 94.9545 56.6851C95.8932 57.0789 96.7197 57.5897 97.4237 58.2177C98.1278 58.8457 98.6992 59.6439 99.1379 60.6018C99.5767 61.5597 99.8828 62.6986 100.056 64.0184C100.23 65.3382 100.25 66.8815 100.138 68.6376H95.781C96.0361 66.7537 96.0259 65.1785 95.7504 63.9439C95.4749 62.6986 94.9545 61.7513 94.1893 61.0701C93.22 64.6038 91.5568 67.0305 89.21 68.3503C88.9243 68.5099 88.6386 68.6164 88.3325 68.6909C88.0366 68.7654 87.7407 68.7866 87.455 68.7654C87.1693 68.7441 86.9143 68.6696 86.6796 68.5525C86.4449 68.4354 86.2612 68.2758 86.1082 68.0735C85.9551 67.882 85.8429 67.6691 85.7613 67.4349C85.6796 67.1901 85.649 66.9453 85.6592 66.6899C85.6694 66.4344 85.7409 66.179 85.8735 65.9342C86.0062 65.6894 86.2 65.4659 86.4551 65.285ZM101.668 50.2671C101.668 49.522 101.893 48.9473 102.342 48.5641C102.791 48.1809 103.311 48 103.893 48C104.178 48 104.454 48.0532 104.719 48.149C104.984 48.2554 105.219 48.3938 105.423 48.5854C105.627 48.777 105.791 49.0111 105.913 49.2879C106.035 49.5646 106.107 49.8945 106.107 50.2671V56.1955H106.852C107.199 56.1955 107.484 56.2593 107.709 56.387C107.933 56.5148 108.117 56.6744 108.25 56.866C108.382 57.0576 108.484 57.2811 108.545 57.5259C108.607 57.7707 108.637 58.0048 108.637 58.239C108.637 58.4731 108.607 58.7073 108.545 58.9521C108.484 59.1969 108.392 59.4098 108.25 59.612C108.117 59.8036 107.933 59.9632 107.699 60.091C107.464 60.2187 107.188 60.2825 106.852 60.2825H106.107V70H101.658V50.2671H101.668Z" fill="white"/>
<path d="M115.678 54.716C115.678 53.6836 115.831 52.7789 116.147 51.9913C116.464 51.2037 116.902 50.5438 117.463 50.001C118.025 49.4582 118.698 49.0537 119.474 48.7876C120.249 48.5109 121.116 48.3832 122.055 48.3832C122.994 48.3832 123.861 48.5215 124.636 48.7876C125.412 49.0643 126.085 49.4582 126.657 49.9903C127.228 50.5225 127.667 51.1824 127.983 51.9806C128.299 52.7789 128.452 53.6942 128.452 54.716V63.1882C128.452 64.2206 128.299 65.1359 127.983 65.9236C127.667 66.7112 127.228 67.3817 126.667 67.9139C126.106 68.4461 125.432 68.8505 124.647 69.1166C123.861 69.3933 123.004 69.521 122.075 69.521C121.137 69.521 120.269 69.3827 119.494 69.1166C118.718 68.8399 118.045 68.4461 117.474 67.9139C116.902 67.3817 116.464 66.7218 116.147 65.9236C115.831 65.1253 115.678 64.21 115.678 63.1882V54.716ZM120.127 63.2946C120.127 64.0929 120.31 64.6889 120.678 65.0827C121.045 65.4765 121.504 65.6788 122.055 65.6788C122.606 65.6788 123.075 65.4765 123.443 65.0827C123.82 64.6889 124.004 64.0822 124.004 63.2946V54.6309C124.004 53.8326 123.82 53.2366 123.443 52.8321C123.065 52.4277 122.606 52.2361 122.055 52.2467C121.504 52.2574 121.035 52.4596 120.667 52.8641C120.3 53.2685 120.116 53.8539 120.116 54.6309V63.2946H120.127ZM131.014 69.9894V50.3203C131.014 49.5539 131.238 48.9792 131.687 48.5854C132.136 48.1916 132.656 48 133.258 48C133.86 48 134.381 48.1916 134.83 48.5854C135.279 48.9792 135.503 49.5539 135.503 50.3203V69.9894H131.014Z" fill="white"/>
<path d="M141.023 61.0914C140.421 61.0914 139.931 61.0382 139.554 60.9211C139.176 60.8041 138.87 60.6125 138.646 60.357C138.421 60.1016 138.268 59.7716 138.176 59.3566C138.085 58.9521 138.044 58.4519 138.044 57.8558V50.8099C138.044 50.0648 138.227 49.522 138.585 49.1814C138.942 48.8408 139.411 48.6812 140.003 48.6812C140.584 48.6812 141.054 48.8515 141.391 49.1814C141.727 49.5114 141.911 50.0648 141.911 50.8099V51.4165H144.339V50.8099C144.339 50.0648 144.513 49.522 144.839 49.1814C145.176 48.8408 145.635 48.6812 146.217 48.6812C146.819 48.6812 147.278 48.8515 147.594 49.1814C147.91 49.5114 148.074 50.0648 148.074 50.8099V52.9598H149.665V49.9903C149.665 49.3304 149.849 48.8408 150.227 48.5002C150.604 48.1597 151.053 48 151.574 48C152.084 48 152.522 48.1703 152.9 48.5002C153.277 48.8408 153.461 49.3304 153.461 49.9903V64.0822H149.665V56.568H148.074V61.0914H141.023ZM142.37 69.9894C141.737 69.9894 141.217 69.9255 140.809 69.7978C140.401 69.6701 140.074 69.4785 139.829 69.2124C139.595 68.9463 139.421 68.5951 139.319 68.1587C139.217 67.7223 139.176 67.1901 139.176 66.5622V64.4335C139.176 63.6352 139.401 63.0605 139.86 62.6986C140.319 62.3367 140.86 62.1558 141.493 62.1558C142.125 62.1558 142.656 62.3367 143.084 62.6986C143.513 63.0605 143.737 63.6352 143.737 64.4335V65.7958C143.737 66.0619 143.778 66.2216 143.85 66.2854C143.921 66.3493 144.084 66.3812 144.339 66.3812H156.818C157.502 66.3812 157.991 66.5622 158.277 66.9347C158.563 67.2966 158.706 67.7223 158.706 68.1906C158.706 68.6802 158.563 69.0953 158.267 69.4572C157.971 69.8191 157.491 70 156.818 70H142.37V69.9894ZM144.319 57.8345V54.5989H141.891V57.2704C141.891 57.5259 141.921 57.6749 141.993 57.7388C142.064 57.8026 142.217 57.8345 142.452 57.8345H144.319ZM154.441 49.9903C154.441 49.3304 154.624 48.8408 155.002 48.5002C155.379 48.1703 155.828 48 156.349 48C156.859 48 157.308 48.1703 157.706 48.5002C158.104 48.8302 158.298 49.3304 158.298 49.9903V64.0822H154.441V49.9903Z" fill="white"/>
<path d="M179.072 65.5829C179.418 65.5829 179.714 65.6361 179.959 65.7639C180.204 65.8809 180.408 66.0299 180.561 66.2215C180.714 66.4131 180.827 66.6153 180.898 66.8495C180.969 67.0836 181 67.3178 181 67.552C181 67.8074 180.959 68.0416 180.888 68.2757C180.816 68.5099 180.694 68.7227 180.541 68.9037C180.388 69.0953 180.184 69.2443 179.949 69.3507C179.714 69.4571 179.418 69.5103 179.072 69.5103H161.92C161.573 69.5103 161.287 69.4571 161.042 69.3507C160.797 69.2443 160.603 69.0953 160.45 68.9037C160.297 68.7121 160.175 68.5099 160.103 68.2757C160.032 68.0416 159.991 67.7968 159.991 67.552C159.991 67.3178 160.022 67.0836 160.093 66.8495C160.165 66.6153 160.277 66.4025 160.43 66.2215C160.583 66.0406 160.787 65.8809 161.032 65.7639C161.277 65.6468 161.573 65.5829 161.92 65.5829H179.072ZM178.174 48.7024C178.49 48.7024 178.755 48.7556 178.97 48.8621C179.184 48.9685 179.367 49.1069 179.51 49.2878C179.653 49.4581 179.755 49.6497 179.816 49.8732C179.878 50.0967 179.908 50.3096 179.908 50.5331C179.908 50.9908 179.776 51.3952 179.5 51.7784C179.235 52.1509 178.786 52.3425 178.174 52.3425H166.236C165.787 52.3425 165.562 52.5447 165.562 52.9492V53.8538H178.041C178.674 53.8538 179.112 54.0454 179.378 54.4179C179.643 54.7905 179.765 55.1949 179.765 55.61C179.765 56.0464 179.633 56.4508 179.357 56.8127C179.092 57.1746 178.643 57.3662 178.031 57.3662H165.552V58.2602C165.552 58.4944 165.603 58.654 165.726 58.7498C165.838 58.8456 166.001 58.8882 166.236 58.8882H178.541C178.857 58.8882 179.123 58.9414 179.337 59.0478C179.551 59.1543 179.735 59.2926 179.878 59.4736C180.02 59.6439 180.123 59.8355 180.184 60.0483C180.245 60.2612 180.276 60.4741 180.276 60.6976C180.276 61.1446 180.143 61.5597 179.867 61.9429C179.602 62.3154 179.153 62.507 178.541 62.507H164.583C163.277 62.507 162.358 62.2196 161.818 61.6236C161.277 61.0382 161.012 60.1122 161.012 58.8456V52.3531C161.012 51.0865 161.277 50.1606 161.818 49.5752C162.358 48.9898 163.277 48.6918 164.583 48.6918H178.174V48.7024Z" fill="white"/>
<path d="M25.9152 32.1128C25.834 32.5116 25.7366 32.9207 25.6663 33.3194C25.9422 33.3194 26.5699 33.3557 26.7376 33.5473C26.8783 33.7182 26.9162 34.2982 26.4617 34.3655C26.4021 34.3862 25.9963 34.4121 25.4011 34.4121L25.044 36.3593C25.2334 36.3593 25.5093 36.3386 25.8773 36.3593C26.2128 36.3697 26.3534 36.5872 26.3426 36.8927C26.3426 37.5193 25.2713 37.4416 24.7248 37.4416C24.6761 37.4416 24.4975 38.4774 24.465 38.5706C24.346 39.0729 24.3081 39.6167 23.6696 39.7203C23.1718 39.7876 22.766 39.3681 22.8363 38.9124C22.858 38.6845 22.9337 38.467 22.9933 38.2495C23.0528 37.9854 23.1231 37.7006 23.1718 37.4416H21.7487C21.6514 37.8197 21.5702 38.2029 21.4728 38.5913C21.3916 38.9227 21.2834 39.3111 20.975 39.5027C20.6882 39.6944 20.2986 39.7876 20.0118 39.5131C19.6331 39.1506 19.9523 38.4981 20.0605 38.089C20.1092 37.8715 20.1688 37.6436 20.2175 37.4416C19.7954 37.4468 19 37.4934 19 36.9341C19 36.6493 19.119 36.3645 19.4653 36.3541C19.7738 36.3541 20.1796 36.3645 20.488 36.3645L20.9642 34.4173H20.2986C19.9523 34.4173 19.5249 34.3396 19.5357 33.9409C19.5357 33.4385 20.0822 33.3246 20.488 33.3246H21.2401C21.37 32.7342 21.4998 31.8073 22.0247 31.3878C22.6415 30.8958 23.2259 31.2738 23.0474 32.0248C22.9391 32.4442 22.8309 32.9 22.7389 33.3246H24.1296C24.1187 33.3246 24.3189 32.5064 24.3298 32.4494C24.4272 32.1076 24.6382 31.5587 24.9737 31.3567C25.2929 31.1755 25.7853 31.2894 25.9152 31.6985C25.9639 31.7969 25.9639 31.9315 25.9152 32.1128ZM21.9976 36.3645H23.437L23.8915 34.4173H22.463L21.9976 36.3645Z" fill="white"/>
<path d="M31.905 37.3899V35.6343C31.4667 35.6447 31.0609 35.6343 30.7633 35.624C30.2655 35.6136 30.3845 35.624 29.8921 35.624C29.4538 35.624 28.929 35.567 28.6909 35.2925C28.4907 35.0647 28.4745 34.7436 28.653 34.4847C28.8911 34.1222 29.3889 34.1066 29.9138 34.1066H31.8996V33.5266C31.8996 33.2884 31.8996 33.1745 31.8779 32.9207C31.8671 32.843 31.8563 32.6721 31.7697 32.6359C31.6886 32.5893 31.5803 32.6152 31.4829 32.5996C31.3747 32.5893 31.2665 32.61 29.5567 32.5996C29.4376 32.61 29.3294 32.5996 29.2104 32.5996C29.0318 32.5996 28.8316 32.5996 28.6747 32.4961C28.4474 32.3459 28.3879 32.0973 28.3879 31.8591C28.3771 31.7089 28.4095 31.5639 28.4853 31.4241C28.5232 31.3464 28.5665 31.2739 28.6422 31.2325C28.7234 31.1548 28.9019 31.0978 29.0101 31.0719C29.3456 30.9942 29.7244 31.0046 30.0707 31.0046H32.3812C32.5814 31.0253 32.8357 31.0512 33.0251 31.1185C33.1441 31.1651 33.2848 31.2428 33.3605 31.3464C33.5012 31.5639 33.5012 31.7659 33.5283 32.0196C33.5661 32.4391 33.5499 32.8637 33.5499 33.2832V37.1258C33.5499 37.162 33.5716 38.1046 33.5499 38.5862C33.5283 38.8917 33.4525 39.2698 33.0359 39.4199C32.8952 39.4769 32.7491 39.4976 32.6301 39.4976C32.4299 39.4976 32.1918 39.4199 32.1052 39.249C31.9862 39.0212 31.9158 38.7364 31.9158 38.4412V37.9388C31.905 37.7524 31.905 37.5712 31.905 37.3899ZM34.7349 35.567C34.1884 35.5308 33.7014 35.1475 33.8637 34.5623C33.9016 34.4484 34.0207 34.2879 34.1126 34.2102C34.21 34.1429 34.3128 34.0859 34.4481 34.06C34.697 34.0238 35.1137 34.06 35.3788 34.0393H35.4167V33.9927C35.4275 33.6147 35.4275 33.8322 35.4167 33.4438C35.4167 33.0554 35.4059 32.6566 35.4167 32.2837V32.1284C35.4167 31.7296 35.4167 31.1393 35.7035 30.8648C35.8117 30.7716 35.9307 30.7146 36.0822 30.7146H36.1039C36.8776 30.7509 36.9588 31.6364 36.9588 32.118V38.9539C36.9588 38.9746 36.9804 39.5598 36.7099 39.798C36.6017 39.9016 36.3528 39.9689 36.185 39.9689C36.0065 39.9689 35.8387 39.9016 35.7305 39.7876C35.5303 39.5805 35.5033 39.3423 35.4816 39.0937C35.4816 39.0471 35.4708 39.0005 35.4708 38.9435C35.4491 38.7053 35.4491 38.4205 35.4329 38.146C35.4221 37.9751 35.4221 37.8145 35.4221 37.654V37.3899C35.4221 37.0688 35.4113 36.1936 35.4113 35.8725C35.4113 35.7949 35.4221 35.6913 35.3896 35.624C35.1786 35.5877 34.9513 35.5877 34.7349 35.567Z" fill="white"/>
<path d="M44.1661 32.5117C43.8794 32.6411 43.5114 32.5375 43.203 32.6049C43.2409 32.812 43.2409 33.0036 43.2409 33.1279V37.97C43.2409 37.9492 43.9172 38.0476 43.9768 38.0632C44.3555 38.1201 44.5611 38.1875 44.5124 38.6432C44.4529 39.3941 43.9768 39.2698 43.3707 39.2802C42.9757 39.2905 42.5753 39.2802 42.1912 39.2802C41.5851 39.2802 40.9899 39.2802 40.3947 39.2905C39.9889 39.2905 39.5831 39.2905 39.1665 39.2802C38.7715 39.2802 38.0356 39.1662 37.976 38.6639C37.8949 37.9596 38.858 38.0373 39.3071 37.9907C39.2963 37.7059 39.3071 37.4314 39.3071 37.1569V33.2885C39.3071 33.2418 39.2693 32.9467 39.2855 32.6049C38.8202 32.5842 38.2737 32.6515 38.0356 32.1699C37.8462 31.8177 38.0734 31.45 38.4143 31.3361C38.7715 31.2118 39.2368 31.2014 39.6156 31.2014C40.8763 31.2014 42.1262 31.2118 43.3924 31.2118C43.7008 31.2118 44.1283 31.2584 44.3555 31.4966C44.572 31.7349 44.5828 32.2268 44.3068 32.4288C44.2744 32.4702 44.2257 32.4909 44.1661 32.5117ZM40.6869 33.6665V37.6437C40.6869 37.6903 40.7086 37.8509 40.7681 37.9751H41.8286V33.6302C41.8286 33.6199 41.8286 32.9363 41.7907 32.7292C41.7907 32.6825 41.7799 32.6359 41.7529 32.6049H40.741C40.7032 32.6411 40.6923 32.6722 40.6815 32.7292C40.6436 32.8431 40.6599 33.1849 40.6707 33.4024C40.6869 33.5163 40.6869 33.594 40.6869 33.6665ZM46.6552 39.4873C46.6335 39.5443 46.6065 39.5909 46.5848 39.6479C46.5361 39.7411 46.4658 39.8291 46.3684 39.8964C46.1898 40 45.9626 40.0207 45.7624 39.9741C45.6433 39.9534 45.5351 39.9068 45.4539 39.8395C45.1672 39.5909 45.178 38.9953 45.178 38.9746V32.0559C45.1672 31.7038 45.178 31.1341 45.4052 30.927C45.573 30.7664 45.7732 30.7457 45.9896 30.7457C46.2656 30.7457 46.5145 30.9063 46.6065 31.1548C46.7471 31.4759 46.7363 31.8281 46.7471 32.1802V32.2372C46.785 33.3972 46.7471 34.6867 46.7471 35.7794V38.5344C46.7471 38.6691 46.758 38.8089 46.7471 38.9436C46.7255 39.1352 46.7147 39.3061 46.6552 39.4873Z" fill="white"/>
<path d="M48.4733 32.4443C48.2135 32.351 48.0566 32.1387 48.0566 31.7503C48.0566 31.3982 48.3921 31.2273 48.6735 31.1444C49.0198 31.0408 49.3282 31.0512 49.6853 31.0512C49.9126 31.0512 50.1398 31.0512 50.3508 31.0512C50.5997 31.0512 52.6126 31.0615 52.8615 31.0615C52.9589 31.0615 53.0509 31.0512 53.1591 31.0512C53.2782 31.0615 53.3864 31.0512 53.5054 31.0512C53.6461 31.0512 53.803 31.0719 53.9437 31.0719H54.382C54.4523 31.0823 54.5389 31.0823 54.5984 31.0926C54.6471 31.1133 54.6796 31.1289 54.7283 31.1496C54.8852 31.2169 55.0151 31.3205 55.0962 31.4551C55.2531 31.683 55.2748 31.9782 55.2748 32.2423C55.2748 32.9621 55.3127 33.5421 55.2856 34.2464C55.264 34.6452 55.2477 35.5463 55.0962 36.0331C55.87 36.0693 56.2758 36.2143 56.2758 36.6959C56.2758 37.4468 55.0367 37.3899 54.5118 37.4002C54.3712 37.4002 54.2142 37.4106 54.0573 37.4106C53.592 37.4106 53.1429 37.4106 52.6775 37.4002C52.6884 37.8663 52.7262 38.7311 52.6667 39.1299C52.618 39.4147 52.526 39.6996 52.2609 39.8705C52.0228 40.0206 51.6657 40.0206 51.4168 39.8808C51.2166 39.7669 51.1192 39.5028 51.0705 39.2904C51.0489 39.1299 51.0705 38.9124 51.0597 38.7415V37.3951C50.037 37.3847 49.4851 37.4158 48.522 37.4054C48.154 37.4054 47.7969 37.3381 47.6075 37.0429C47.4289 36.7943 47.4289 36.4733 47.6562 36.2454C47.8943 36.0072 48.4895 36.0279 48.5111 36.0279L53.6515 36.0175C53.5703 35.6291 53.5541 35.2097 53.5703 34.7747H48.8087C48.7979 34.7747 48.4895 34.6245 48.3704 34.4121C48.3109 34.3189 48.2893 34.1843 48.2893 34.0496C48.2893 33.915 48.3272 33.7752 48.3704 33.6975C48.4895 33.5266 48.6085 33.5162 48.7384 33.4903C48.7763 33.4903 48.7979 33.4903 48.8196 33.48C48.9494 33.4593 49.0955 33.4437 49.2362 33.4334C49.7015 33.3971 52.0553 33.3868 52.5801 33.3868C52.8886 33.3868 53.2457 33.3971 53.6028 33.3971L53.5812 32.5996C53.0347 32.5893 50.5456 32.5893 50.0803 32.5634C49.5446 32.5582 48.9602 32.6151 48.4733 32.4443Z" fill="white"/>
<path d="M58.4131 32.2993H58.0452C57.9153 32.2993 57.8071 32.2786 57.6664 32.2786C57.569 32.2424 57.4771 32.2216 57.358 32.1543C57.2606 32.1077 57.1903 32.0041 57.1199 31.8902C57.0117 31.7193 57.0117 31.5588 57.1199 31.3879C57.2173 31.2532 57.3472 31.1497 57.5258 31.0823C57.7043 31.0254 57.9208 30.9788 58.1318 30.9788H59.9282C60.3935 30.9788 60.8589 30.9891 61.308 30.9891H63.889C64.0459 30.9891 64.2245 30.9891 64.4139 31.0254C64.5924 31.0461 64.7602 31.1289 64.8792 31.2532C64.9874 31.3568 65.0469 31.5277 65.0469 31.6986C65.0469 31.8902 64.9766 32.03 64.8305 32.1543C64.7926 32.175 64.7331 32.2113 64.7006 32.2216C64.56 32.2786 64.3652 32.2993 64.2028 32.2786C64.0351 32.2786 63.8457 32.2786 63.7158 32.2993V32.4702C63.7158 32.5738 63.7158 32.6618 63.7267 32.7913V33.2574H64.1054C64.1758 33.2936 64.284 33.2936 64.3543 33.3143H64.4842C64.7006 33.3506 64.8305 33.392 64.9495 33.4645C65.0469 33.5008 65.0578 33.6561 65.0469 33.8995C65.0469 34.0704 64.9874 34.2051 64.9171 34.2879C64.8684 34.3811 64.7602 34.4485 64.6682 34.4795C64.5708 34.5365 64.4409 34.5365 64.311 34.5365H61.703C61.7409 34.6142 61.7409 34.7436 61.7409 34.8783V35.2874H62.4551C62.704 35.2667 62.98 35.2667 63.2289 35.2667H63.9647C64.1812 35.2667 64.3706 35.2874 64.5599 35.2874C64.7006 35.2874 64.8089 35.3081 64.9766 35.3547C65.0956 35.391 65.2147 35.4324 65.3445 35.5049C65.4419 35.5826 65.5123 35.7224 65.5123 35.8571C65.5123 35.9503 65.4906 36.028 65.4744 36.0953C65.4365 36.1885 65.3932 36.2299 65.3445 36.2869C65.2958 36.3646 65.1876 36.3801 65.0956 36.4371C64.9874 36.4578 64.9171 36.4733 64.8089 36.4733C64.7115 36.4733 64.6411 36.5096 64.5708 36.5096H58.0939C57.9153 36.5303 57.7368 36.5303 57.5474 36.5096C57.3472 36.5096 57.1795 36.4422 57.0496 36.3387C56.8602 36.2247 56.7628 36.0746 56.7628 35.8933C56.7628 35.8156 56.8007 35.6862 56.871 35.5878C56.9414 35.4946 57.0496 35.4272 57.1795 35.3703C57.3472 35.3133 57.5258 35.2926 57.6664 35.2926H58.24C58.4186 35.2926 58.5863 35.2719 58.727 35.2719H59.1328C59.2627 35.2719 59.3925 35.2719 59.5494 35.2926H60.0364V34.609V34.5313H58.1751C58.0939 34.5313 57.9478 34.4951 57.8396 34.4951C57.6989 34.4744 57.5907 34.4381 57.4933 34.4019C57.3959 34.3552 57.2769 34.2776 57.1849 34.1947C57.1145 34.1274 57.0658 34.0238 57.0658 33.8995C57.0442 33.7183 57.0658 33.594 57.174 33.5215C57.2552 33.4179 57.4013 33.3868 57.542 33.3143C57.661 33.304 57.8396 33.2781 58.0073 33.304C58.1751 33.304 58.3266 33.304 58.4348 33.2833C58.4348 33.1486 58.4348 32.9622 58.4131 32.7809V32.2993ZM64.6411 38.4516C64.6628 38.4516 64.7006 38.4516 64.7385 38.4723C64.798 38.4723 64.8359 38.5189 64.8792 38.5396C64.9766 38.5603 65.0199 38.6328 65.0578 38.7001C65.1173 38.7364 65.1281 38.7934 65.166 38.8607C65.2147 39.1559 65.166 39.3941 65.0253 39.5339C64.9549 39.6686 64.8359 39.7411 64.7385 39.7514C64.6411 39.7877 64.5708 39.7877 64.5708 39.7877H58.0452C57.7692 39.7877 57.5203 39.7411 57.3418 39.653C57.174 39.5391 57.1037 39.4044 57.1037 39.2335V38.2185C57.0658 38.058 57.0658 37.8871 57.1037 37.7162C57.1037 37.5453 57.174 37.421 57.2606 37.3174C57.4013 37.2035 57.5203 37.1673 57.6664 37.1673H57.8558C57.9153 37.1776 57.9749 37.1776 58.0127 37.2035C58.1101 37.2398 58.1805 37.2708 58.2616 37.3382C58.3103 37.4055 58.3428 37.4728 58.3807 37.5453C58.4186 37.6489 58.4402 37.7162 58.4402 37.8198C58.4618 37.8871 58.4618 37.9907 58.4618 38.0684C58.4618 38.1253 58.4835 38.1926 58.4835 38.2289C58.4835 38.3066 58.5051 38.3894 58.5051 38.436C58.5268 38.436 58.6025 38.4567 58.7216 38.4567C58.8514 38.4775 59.0787 38.4775 59.3384 38.4775C59.5657 38.4775 59.7929 38.4775 59.9931 38.4567H64.6411V38.4516ZM62.2387 32.2993H59.939C59.9282 32.3356 59.9011 32.3666 59.8687 32.434V33.2522H62.2765L62.2387 32.2993Z" fill="white"/>
<path d="M82.4165 32.1128C82.3354 32.5116 82.238 32.9207 82.1676 33.3195C82.4436 33.3195 83.0713 33.3557 83.239 33.5473C83.3797 33.7182 83.4176 34.2982 82.963 34.3656C82.9035 34.3863 82.4977 34.4122 81.9025 34.4122L81.5454 36.3593C81.7348 36.3593 82.0107 36.3386 82.3787 36.3593C82.7141 36.3697 82.8548 36.5872 82.844 36.8928C82.844 37.5194 81.7726 37.4417 81.2261 37.4417C81.1774 37.4417 80.9989 38.4774 80.9664 38.5706C80.8474 39.073 80.8095 39.6167 80.171 39.7203C79.6732 39.7876 79.2674 39.3682 79.3377 38.9124C79.3594 38.6846 79.4351 38.4671 79.4946 38.2496C79.5542 37.9855 79.6245 37.7006 79.6732 37.4417H78.2555C78.1582 37.8197 78.077 38.203 77.9796 38.5914C77.8984 38.9228 77.7902 39.3112 77.4818 39.5028C77.195 39.6944 76.8054 39.7876 76.5186 39.5132C76.1399 39.1507 76.4591 38.4981 76.5673 38.089C76.616 37.8715 76.6756 37.6437 76.7243 37.4417C76.3076 37.4417 75.5122 37.4883 75.5122 36.929C75.5122 36.6442 75.6312 36.3593 75.9775 36.349C76.286 36.349 76.6918 36.3593 77.0002 36.3593L77.4764 34.4122H76.8108C76.4645 34.4122 76.0371 34.3345 76.0479 33.9357C76.0479 33.4334 76.5944 33.3195 77.0002 33.3195H77.7523C77.8822 32.7291 78.0121 31.8021 78.5369 31.3827C79.1538 30.8907 79.7381 31.2687 79.5596 32.0196C79.4514 32.4391 79.3431 32.8948 79.2512 33.3195H80.6418C80.6309 33.3195 80.8311 32.5012 80.842 32.4443C80.9394 32.1025 81.1504 31.5535 81.4859 31.3516C81.8051 31.1703 82.2975 31.2843 82.4274 31.6934C82.4652 31.7969 82.4652 31.9316 82.4165 32.1128ZM78.499 36.3645H79.9383L80.3929 34.4174H78.9644L78.499 36.3645Z" fill="white"/>
<path d="M87.4163 31.2739C87.6544 31.217 88.0926 31.217 88.2279 31.4811C88.3578 31.7866 88.2983 32.3252 88.2983 32.6566V38.4775C88.2983 38.7985 88.3794 39.2284 88.0494 39.4562C87.8221 39.6271 87.3838 39.6168 87.1187 39.5235C86.8319 39.4303 86.8211 39.1248 86.8211 38.8762C86.7129 36.8824 86.7507 34.9922 86.7507 32.9622C86.702 33.0968 85.8796 33.2263 85.7497 33.2263C85.3331 33.2729 84.9381 33.1797 84.8948 32.7136C84.8353 32.2372 85.1707 31.9731 85.6307 31.8384C86.1285 31.6779 86.6209 31.4863 87.1187 31.3464C87.2269 31.3154 87.3189 31.2843 87.4163 31.2739Z" fill="white"/>
<path d="M92.3185 39.394C91.8911 39.2335 91.4961 38.9383 91.1768 38.5861C90.4139 37.7679 90.0081 36.582 90.0081 35.4323C90.0081 34.6555 90.1758 33.858 90.4842 33.1433C90.7115 32.6307 91.2472 31.9367 91.745 31.7192C91.9235 31.6415 92.1237 31.5587 92.3185 31.4913C92.8326 31.3412 93.5197 31.3774 94.0446 31.4913C95.4947 31.8228 96.1278 33.3246 96.3064 34.7746C96.3659 35.2511 96.3442 35.743 96.2847 36.2195C96.1657 37.1102 95.9763 37.9854 95.3108 38.6224C94.7156 39.1817 93.9905 39.5131 93.1897 39.5338C92.9029 39.5338 92.6053 39.4976 92.3185 39.394ZM92.5458 33.0398C92.3293 33.1744 92.1508 33.3816 92.0209 33.5991C91.6854 34.148 91.5826 34.7953 91.5826 35.422C91.5826 36.0693 91.7125 36.8254 92.1075 37.395C92.2969 37.6695 92.562 37.887 92.9029 37.975C93.2221 38.0527 93.5576 38.032 93.8444 37.8611C94.7588 37.3277 94.8833 35.9139 94.8075 34.9921C94.7372 34.0807 94.353 32.8637 93.1789 32.8948C92.9624 32.8896 92.7352 32.9258 92.5458 33.0398Z" fill="white"/>
<path d="M105.37 37.8819C105.629 37.9026 105.867 37.9596 106.084 38.146C106.192 38.2496 106.252 38.3842 106.252 38.5447C106.252 38.7053 106.192 38.9331 106.095 39.0367C105.846 39.2749 105.261 39.2542 105.24 39.2542H98.5681C98.4978 39.2542 98.4112 39.2646 98.33 39.2646C97.9946 39.2749 97.5671 39.3008 97.3074 39.0833C97.1505 38.9487 97.0585 38.7778 97.0585 38.5913C97.0585 38.3635 97.2154 38.0787 97.4535 37.9854C97.7727 37.8715 98.119 37.8922 98.4653 37.8819H98.5248C99.2878 37.8715 100.11 37.8715 100.895 37.8819L100.884 36.4474C100.884 36.4474 100.884 36.059 101.203 35.8415C101.609 35.5567 102.415 35.7483 102.415 36.3076L102.426 37.8819C103.151 37.8715 103.687 37.8715 104.412 37.8819C104.699 37.8922 104.969 37.8612 105.224 37.8819C105.272 37.8922 105.321 37.8819 105.37 37.8819ZM100.841 31.2376V30.8389C100.841 30.8389 100.841 30.3366 101.16 30.1191C101.566 29.8342 102.421 30.0724 102.421 30.6317L102.432 31.2376H103.373C103.481 31.2584 103.79 31.2376 103.898 31.2376C104.471 31.2376 105.229 31.1134 105.305 31.8746C105.402 32.7084 104.52 32.6048 103.984 32.6048L102.534 32.5945L102.545 32.9155C102.545 33.0398 102.545 33.1071 102.567 33.2366C102.615 33.4075 102.735 33.5007 102.843 33.625C103.308 34.1377 104.114 34.64 104.618 35.1165C104.915 35.4117 105.251 35.7327 105.115 36.1988C104.926 36.8151 104.152 36.494 103.757 36.2558C102.994 35.7897 102.367 35.2511 101.723 34.6711C101.685 34.6504 100.613 35.4479 100.116 35.8311C99.6016 36.2092 98.4978 36.8358 98.0703 36.2868C97.6645 35.6809 98.2002 35.3754 98.7034 34.9974C99.2282 34.6193 100.034 34.1066 100.57 33.5939C100.787 33.3868 100.77 33.2418 100.77 32.957L100.781 32.5686H99.4014C99.4014 32.5686 97.9837 32.6929 97.9242 31.9989C97.8863 31.6571 98.0433 31.2687 98.4383 31.2376C98.5465 31.2273 98.6655 31.2273 98.8062 31.2273C98.8874 31.2273 99.5908 31.2376 99.7098 31.2376H100.841Z" fill="white"/>
<path d="M123.156 32.113C123.075 32.5117 122.977 32.9208 122.907 33.3196C123.183 33.3196 123.811 33.3558 123.978 33.5475C124.119 33.7184 124.157 34.2984 123.702 34.3657C123.643 34.3864 123.237 34.4123 122.642 34.4123L122.285 36.3595C122.474 36.3595 122.75 36.3388 123.118 36.3595C123.454 36.3698 123.594 36.5873 123.583 36.8929C123.583 37.5195 122.512 37.4418 121.966 37.4418C121.917 37.4418 121.738 38.4775 121.706 38.5708C121.587 39.0731 121.549 39.6169 120.91 39.7204C120.413 39.7877 120.007 39.3683 120.077 38.9126C120.099 38.6847 120.175 38.4672 120.234 38.2497C120.294 37.9856 120.364 37.7007 120.413 37.4418H118.995C118.898 37.8199 118.816 38.2031 118.719 38.5915C118.638 38.9229 118.53 39.3113 118.221 39.5029C117.934 39.6945 117.545 39.7877 117.258 39.5133C116.879 39.1508 117.198 38.4983 117.307 38.0891C117.355 37.8716 117.415 37.6438 117.464 37.4418C117.047 37.4418 116.252 37.4884 116.252 36.9291C116.252 36.6443 116.371 36.3595 116.717 36.3491C117.025 36.3491 117.431 36.3595 117.74 36.3595L118.216 34.4123H117.55C117.204 34.4123 116.776 34.3346 116.787 33.9359C116.787 33.4335 117.334 33.3196 117.74 33.3196H118.492C118.622 32.7292 118.751 31.8022 119.276 31.3828C119.893 30.8908 120.478 31.2688 120.299 32.0198C120.191 32.4392 120.083 32.8949 119.991 33.3196H121.381C121.37 33.3196 121.571 32.5014 121.581 32.4444C121.679 32.1026 121.89 31.5537 122.225 31.3517C122.544 31.1704 123.037 31.2844 123.167 31.6935C123.205 31.7971 123.205 31.9317 123.156 32.113ZM119.238 36.3647H120.678L121.132 34.4175H119.704L119.238 36.3647Z" fill="white"/>
<path d="M130.169 38.2651C130.277 38.3325 130.309 38.436 130.309 38.5603C130.347 38.6639 130.309 38.7985 130.271 38.8659C130.201 38.9798 130.131 39.0471 130.055 39.1041C129.957 39.1403 129.855 39.2077 129.709 39.2077C129.6 39.2439 129.46 39.275 129.351 39.275H127.604C127.463 39.275 127.295 39.2387 127.117 39.2387C126.976 39.2387 126.781 39.2025 126.651 39.1714C126.511 39.1352 126.365 39.0782 126.224 38.9798C126.116 38.9021 126.024 38.7985 125.948 38.6276C125.878 38.5603 125.84 38.4568 125.84 38.3635C125.802 38.2289 125.802 38.1253 125.769 38.0217V32.5272C125.732 32.434 125.732 32.2993 125.732 32.1647C125.769 32.0611 125.769 31.9161 125.802 31.7866C125.802 31.652 125.84 31.5484 125.91 31.4448C125.98 31.3775 126.051 31.3102 126.148 31.2739C126.256 31.2066 126.365 31.1704 126.467 31.1704C126.576 31.1497 126.646 31.1497 126.743 31.1134H128.956C129.065 31.1497 129.216 31.1497 129.324 31.1704C129.454 31.1704 129.6 31.2066 129.703 31.2739C129.844 31.3413 129.92 31.4448 129.952 31.5484C129.99 31.652 130.012 31.7556 129.99 31.8798C129.99 32.03 129.99 32.0974 129.952 32.1647C129.882 32.2682 129.774 32.3356 129.633 32.4029C129.525 32.4029 129.287 32.4391 128.956 32.4391H127.744C127.636 32.4391 127.528 32.4599 127.458 32.4961C127.42 32.4961 127.398 32.5324 127.36 32.5997C127.322 32.667 127.29 32.7343 127.29 32.8068V33.2418L127.328 37.4366C127.328 37.6437 127.328 37.7783 127.398 37.8353C127.458 37.9026 127.566 37.9389 127.707 37.9389H128.145C128.323 37.9389 128.502 37.9751 128.702 37.9751H129.287C129.384 37.9751 129.487 37.9751 129.595 38.0114C129.703 38.0114 129.811 38.0476 129.914 38.115C130.022 38.1305 130.093 38.1978 130.169 38.2651ZM134.335 31.797V38.5551C134.335 38.7727 134.335 39.0005 134.297 39.2025C134.259 39.5339 133.989 39.7721 133.621 39.7359C133.025 39.6686 133.025 39.0316 133.025 38.55V35.7483H132.181V38.5189C132.219 38.7364 132.181 38.8969 132.181 39.0678C132.144 39.275 132.073 39.4096 132.014 39.5028C131.873 39.6737 131.586 39.7773 131.37 39.71C130.872 39.5391 130.834 39.0057 130.834 38.5914C130.834 38.4568 130.796 38.3532 130.796 38.2859V32.0145C130.796 31.9006 130.834 31.7659 130.834 31.6727C130.834 31.5381 130.872 31.3982 130.904 31.2947C130.942 31.1911 131.013 31.103 131.083 30.9995C131.153 30.8959 131.262 30.8648 131.391 30.8286C131.462 30.7923 131.581 30.7923 131.651 30.8286C131.721 30.8648 131.83 30.8959 131.868 30.9632C131.976 31.0305 132.068 31.1238 132.106 31.2947C132.144 31.4293 132.176 31.6002 132.176 31.797V34.3708H133.02V31.74C133.02 31.6054 133.02 31.4656 133.058 31.3309C133.096 31.1963 133.128 31.103 133.199 30.9995C133.307 30.8959 133.399 30.8286 133.577 30.8286C133.756 30.7923 133.945 30.8648 134.054 30.9632C134.151 31.0668 134.221 31.1548 134.254 31.3257C134.335 31.4656 134.297 31.6365 134.335 31.797Z" fill="white"/>
<path d="M139.546 35.9451C139.14 36.0021 138.902 35.9451 138.512 35.9451C137.641 35.9451 136.775 35.9244 135.915 35.8985C135.401 35.8778 135.282 35.1683 135.282 34.7799C135.282 34.1533 135.233 33.1279 135.271 32.491C135.293 32.1026 135.222 31.5433 135.428 31.2015C135.655 30.8131 136.31 30.6991 136.57 31.0979C136.829 31.507 136.77 32.087 136.759 32.579H138.296C138.296 32.579 138.523 32.5686 138.869 32.579C138.891 32.2476 138.869 32.0093 138.869 31.7245C138.869 31.4604 138.94 31.0772 139.178 30.927C139.356 30.8131 139.713 30.7924 139.892 30.9166C140.227 31.1445 140.211 31.9886 140.211 31.9886V35.2926C140.217 35.6033 139.832 35.9089 139.546 35.9451ZM143.203 37.4469V38.0943C143.203 38.1875 143.203 38.6639 143.214 38.7416C143.214 38.9021 143.214 39.073 143.203 39.2439C143.182 39.565 142.917 39.7773 142.56 39.7773C142.478 39.7773 142.224 39.767 142.143 39.7411C141.715 39.6168 141.688 39.2388 141.667 38.897C141.667 38.7623 141.656 38.2341 141.618 38.1202C141.569 38.1098 141.418 38.0839 140.823 38.0839C140.325 38.0839 140.265 38.0943 140.249 38.0943H135.953C135.931 38.0943 135.466 37.9803 135.417 37.6748C135.368 37.3796 135.417 37.1518 135.558 36.9912C135.747 36.7737 136.034 36.7737 136.045 36.7634H142.235C142.895 36.7737 143.203 37.0948 143.203 37.4469ZM138.869 34.3812C138.891 34.1637 138.891 34.0394 138.869 33.8219V33.6303H137.668C137.668 33.6303 137.035 33.5733 136.737 33.6303C136.699 33.8788 136.748 34.1429 136.759 34.3915C136.759 34.5521 136.748 34.609 136.916 34.6194C137.094 34.6297 137.273 34.6194 137.452 34.6194H138.869C138.869 34.6194 138.858 34.5055 138.869 34.3812ZM143.193 32.9467C143.322 32.957 143.966 32.9674 144.107 33.0036C144.415 33.0606 144.524 33.1849 144.562 33.3454C144.61 33.506 144.621 33.7649 144.524 33.9151C144.334 34.2103 143.928 34.1999 143.463 34.2103H143.187V35.1114C143.176 35.2719 143.149 35.4532 143.057 35.624C143.009 35.7173 142.938 35.7949 142.857 35.8519C142.738 35.9296 142.597 35.9658 142.462 35.9658C142.343 35.9658 142.224 35.9451 142.127 35.8882C141.807 35.7069 141.759 35.2823 141.759 35.2719V31.6468C141.748 31.5899 141.77 31.2377 141.867 31.0565C141.937 30.9063 142.116 30.8079 142.343 30.782C142.619 30.7457 142.868 30.8182 142.998 30.9529C143.095 31.0668 143.117 31.1808 143.155 31.305C143.203 31.4552 143.203 31.6365 143.193 31.797C143.193 31.7711 143.176 32.7292 143.193 32.9467Z" fill="white"/>
</svg>

