<svg width="343" height="100" viewBox="0 0 343 100" fill="none" xmlns="http://www.w3.org/2000/svg">
<rect width="343" height="100" rx="4" fill="#F1CE9A"/>
<path d="M31.3555 25.6211V35.6582H29.2285V31.4043H27.9453V35.1309H25.8535V25.9199H27.9453V29.5762H29.2285V25.6211H31.3555ZM17.5215 29.0137V27.2734H20.3516V25.7617H22.584V27.2734H25.3789V29.0137H17.5215ZM18.0137 32.3359C18.0049 30.6572 19.4727 29.541 21.4766 29.541C23.5068 29.541 24.9658 30.6572 24.9746 32.3359C24.9658 33.9971 23.5068 35.1045 21.4766 35.1133C19.4727 35.1045 18.0049 33.9971 18.0137 32.3359ZM20.0176 32.3359C20.0088 33.0742 20.5977 33.5225 21.4766 33.5137C22.3467 33.5225 22.9443 33.0742 22.9531 32.3359C22.9443 31.5889 22.3467 31.1494 21.4766 31.1582C20.6064 31.1494 20.0088 31.5889 20.0176 32.3359ZM20.3516 38.7168C20.3428 36.8623 22.4434 35.8076 25.8887 35.7988C29.3428 35.8076 31.4258 36.8623 31.4434 38.7168C31.4258 40.5625 29.3428 41.626 25.8887 41.6172C22.4434 41.626 20.3428 40.5625 20.3516 38.7168ZM22.6016 38.7168C22.584 39.5254 23.7178 39.9297 25.8887 39.9297C28.0684 39.9297 29.1758 39.5254 29.1758 38.7168C29.1758 37.873 28.0684 37.4775 25.8887 37.4863C23.7178 37.4775 22.584 37.873 22.6016 38.7168ZM47.791 33.4082V35.2012H41.7266V37.9785H39.459V35.2012H33.1484V33.4082H47.791ZM34.6602 29.2422C34.6602 27.2119 36.9805 25.9375 40.4609 25.9199C43.9238 25.9375 46.2354 27.2119 46.2441 29.2422C46.2354 31.2812 43.9238 32.5469 40.4609 32.5469C36.9805 32.5469 34.6602 31.2812 34.6602 29.2422ZM34.8887 41.3359V36.5547H37.1562V39.5254H46.1738V41.3359H34.8887ZM37.0859 29.2422C37.0771 30.2178 38.3955 30.7451 40.4609 30.7539C42.5264 30.7451 43.8359 30.2178 43.8359 29.2422C43.8359 28.2227 42.5264 27.6953 40.4609 27.6953C38.3955 27.6953 37.0771 28.2227 37.0859 29.2422ZM53.9082 26.6934C56.4482 26.6846 58.3291 28.3193 58.3379 30.6133C58.3291 32.916 56.4482 34.542 53.9082 34.5508C51.3857 34.542 49.4521 32.916 49.4609 30.6133C49.4521 28.3193 51.3857 26.6846 53.9082 26.6934ZM48.793 36.5547C51.6494 36.5635 55.6045 36.5283 59.0234 36.0449L59.1992 37.6621C55.6484 38.3564 51.8516 38.3828 49.0566 38.3828L48.793 36.5547ZM51.6934 30.6133C51.6846 31.8789 52.6426 32.6084 53.9082 32.5996C55.1826 32.6084 56.1494 31.8789 56.1582 30.6133C56.1494 29.3652 55.1826 28.627 53.9082 28.627C52.6426 28.627 51.6846 29.3652 51.6934 30.6133ZM59.9375 41.6523V25.6211H62.1699V41.6523H59.9375ZM83.0176 34.4453V36.2383H76.7949V41.6172H74.5801V36.2383H68.4277V34.4453H83.0176ZM69.1484 31.7559C72.3828 31.3604 74.1758 29.7959 74.4131 28.2227H69.7461V26.4648H81.7168V28.2227H77.0498C77.2783 29.7959 79.0449 31.3604 82.332 31.7559L81.5234 33.5137C78.7109 33.1357 76.6982 31.9404 75.7314 30.2969C74.7559 31.9404 72.7607 33.1357 69.9746 33.5137L69.1484 31.7559ZM97.3789 25.6387V37.1348H95.1289V25.6387H97.3789ZM84.2305 30.6836C84.2305 28.3369 86.1465 26.6494 88.6074 26.6582C91.0596 26.6494 92.9756 28.3369 92.9844 30.6836C92.9756 33.0654 91.0596 34.7441 88.6074 34.7441C86.1465 34.7441 84.2305 33.0654 84.2305 30.6836ZM86.4277 30.6836C86.4102 32.0195 87.3506 32.793 88.6074 32.793C89.8203 32.793 90.7607 32.0195 90.7695 30.6836C90.7607 29.3828 89.8203 28.6006 88.6074 28.6094C87.3506 28.6006 86.4102 29.3828 86.4277 30.6836ZM86.6562 41.3359V35.9746H88.9238V39.543H97.8008V41.3359H86.6562ZM106.748 35.5879C110.246 35.5879 112.443 36.6953 112.461 38.6113C112.443 40.501 110.246 41.626 106.748 41.6172C103.276 41.626 101.044 40.501 101.053 38.6113C101.044 36.6953 103.276 35.5879 106.748 35.5879ZM99.5762 34.5684V32.7578H105.025V29.9629H107.24V32.7578H114.096V34.5684H99.5762ZM101.211 28.0996V26.3418H112.373V27.6426C112.382 28.917 112.382 30.2881 111.916 31.9316L109.719 31.7207C110.079 30.2705 110.123 29.1895 110.141 28.0996H101.211ZM103.285 38.6113C103.276 39.4727 104.542 39.9121 106.748 39.9121C108.954 39.9121 110.229 39.4727 110.229 38.6113C110.229 37.7236 108.954 37.249 106.748 37.2578C104.542 37.249 103.276 37.7236 103.285 38.6113ZM129.688 33.7949V35.5879H115.098V33.7949H129.688ZM116.557 29.3828C116.557 27.3438 118.868 26.0957 122.393 26.1133C125.891 26.0957 128.202 27.3438 128.211 29.3828C128.202 31.4307 125.891 32.6875 122.393 32.6875C118.868 32.6875 116.557 31.4307 116.557 29.3828ZM116.855 41.3359V36.6602H119.105V39.543H128.035V41.3359H116.855ZM118.895 29.3828C118.877 30.376 120.169 30.877 122.393 30.877C124.599 30.877 125.891 30.376 125.891 29.3828C125.891 28.416 124.599 27.8887 122.393 27.8711C120.169 27.8887 118.877 28.416 118.895 29.3828ZM133.449 35.9922C133.458 33.8037 134.047 33.1357 135.102 32.4766C135.857 31.9844 136.446 31.4395 136.438 30.6309C136.446 29.752 135.761 29.1807 134.908 29.1719C134.091 29.1807 133.326 29.7256 133.291 30.7539H130.795C130.839 28.2842 132.676 27.0977 134.926 27.0977C137.378 27.0977 139.109 28.3721 139.109 30.543C139.109 31.9932 138.362 32.9072 137.211 33.6016C136.218 34.1904 135.778 34.7617 135.77 35.9922V36.1855H133.449V35.9922ZM133.186 38.6816C133.168 37.873 133.836 37.2139 134.662 37.2227C135.444 37.2139 136.121 37.873 136.121 38.6816C136.121 39.499 135.444 40.1582 134.662 40.1582C133.836 40.1582 133.168 39.499 133.186 38.6816Z" fill="white"/>
<path d="M24.7236 58.2734V71H22.0693V60.7871H21.999L19.0811 62.6152V60.2773L22.2275 58.2734H24.7236ZM32.6162 71.1758C29.4258 71.1758 27.501 68.8027 27.501 64.6367C27.501 60.4795 29.4434 58.0977 32.6162 58.0977C35.7891 58.0977 37.7314 60.4795 37.7314 64.6367C37.7314 68.8203 35.7979 71.1758 32.6162 71.1758ZM30.208 64.6367C30.1904 67.5723 31.1396 68.9961 32.6162 68.9961C34.0928 68.9961 35.0332 67.5723 35.0244 64.6367C35.0332 61.7275 34.084 60.2686 32.6162 60.2598C31.1484 60.2686 30.208 61.7275 30.208 64.6367ZM44.499 71.1758C41.3086 71.1758 39.3838 68.8027 39.3838 64.6367C39.3838 60.4795 41.3262 58.0977 44.499 58.0977C47.6719 58.0977 49.6143 60.4795 49.6143 64.6367C49.6143 68.8203 47.6807 71.1758 44.499 71.1758ZM42.0908 64.6367C42.0732 67.5723 43.0225 68.9961 44.499 68.9961C45.9756 68.9961 46.916 67.5723 46.9072 64.6367C46.916 61.7275 45.9668 60.2686 44.499 60.2598C43.0312 60.2686 42.0908 61.7275 42.0908 64.6367ZM54.7822 64.6367C52.875 64.6367 51.8467 63.248 51.8467 61.2441C51.8467 59.2314 52.9277 57.834 54.7822 57.834C56.6895 57.834 57.709 59.2314 57.7178 61.2441C57.709 63.2656 56.6631 64.6367 54.7822 64.6367ZM53.6396 61.2441C53.6484 62.3428 54.0439 63.0635 54.7822 63.0723C55.5381 63.0635 55.916 62.3428 55.9248 61.2441C55.916 60.1455 55.5732 59.3984 54.7822 59.3984C54.0352 59.4072 53.6484 60.1631 53.6396 61.2441ZM53.6748 71L62.4287 58.2734H64.3975L55.6436 71H53.6748ZM60.4424 68.0293C60.4424 66.0166 61.5234 64.6279 63.3604 64.6191C65.2852 64.6279 66.3047 66.0166 66.3135 68.0293C66.3047 70.0508 65.2588 71.4219 63.3604 71.4219C61.4707 71.4219 60.4424 70.0332 60.4424 68.0293ZM62.2354 68.0293C62.2441 69.1279 62.6396 69.8574 63.3604 69.8574C64.1338 69.8574 64.5117 69.1279 64.5205 68.0293C64.5117 66.9307 64.1602 66.1836 63.3604 66.2012C62.6221 66.1924 62.2441 66.9482 62.2354 68.0293ZM85.0693 56.6211V60.418H87.1963V62.2461H85.0693V65.8848H82.7842V56.6211H85.0693ZM72.9053 65.0234V57.6934H80.0947V59.4863H75.1377V63.2129C78.1084 63.1953 79.7344 63.0986 81.5186 62.7207L81.7119 64.5137C79.7344 64.9443 77.8535 65.0146 74.2412 65.0234H72.9053ZM74.3115 69.3652C74.3027 67.3525 76.4473 66.166 79.7959 66.166C83.083 66.166 85.1836 67.3525 85.1924 69.3652C85.1836 71.4219 83.083 72.626 79.7959 72.6172C76.4473 72.626 74.3027 71.4219 74.3115 69.3652ZM76.5264 69.3652C76.5176 70.332 77.6953 70.8418 79.7959 70.8418C81.8262 70.8418 83.0039 70.332 83.0127 69.3652C83.0039 68.4248 81.8262 67.9326 79.7959 67.9414C77.6953 67.9326 76.5176 68.4248 76.5264 69.3652ZM93.7881 60.0312C93.7969 61.6924 94.9922 63.3271 97.5674 64.0039L96.5654 65.7441C94.7109 65.2607 93.4277 64.25 92.6982 62.9492C91.9951 64.3643 90.7207 65.4893 88.8311 66.0254L87.7764 64.2852C90.3691 63.582 91.5557 61.8242 91.5557 60.0312V59.9785H88.3389V58.2207H91.5557V56.5508H93.8232V58.2207H97.0225V59.9785H93.7881V60.0312ZM90.624 72.4414V66.6758H101.382V72.4414H90.624ZM92.874 70.6484H99.1846V68.4688H92.874V70.6484ZM96.6182 62.6328V60.8223H99.1494V56.6211H101.382V65.9902H99.1494V62.6328H96.6182ZM110.927 56.8848V58.291H112.315V56.8848H114.407V62.4219H115.409V56.8848H117.501V58.291H118.89V56.8848H120.981V62.8965H116.007V64.1094H122.194V65.8672H107.604V64.1094H113.757V62.8965H108.782V56.8848H110.927ZM109.31 72.4414V66.6934H111.524V67.8008H118.187V66.6934H120.437V72.4414H109.31ZM110.927 61.1387H112.315V59.9609H110.927V61.1387ZM111.524 70.6836H118.187V69.5234H111.524V70.6836ZM117.501 61.1387H118.89V59.9609H117.501V61.1387ZM136.608 56.6211V72.6172H134.341V56.6211H136.608ZM123.214 68.082C127.345 66.1309 129.164 63.5996 129.524 60.0488H124.075V58.291H131.81C131.801 63.1426 130.104 67.1768 124.392 69.875L123.214 68.082ZM142.356 58.2734L142.128 67.1855H139.878L139.649 58.2734H142.356ZM139.544 69.6816C139.526 68.873 140.194 68.2139 141.021 68.2227C141.803 68.2139 142.479 68.873 142.479 69.6816C142.479 70.499 141.803 71.1582 141.021 71.1582C140.194 71.1582 139.526 70.499 139.544 69.6816Z" fill="white"/>
</svg>
