<svg width="42" height="46" viewBox="0 0 42 46" fill="none" xmlns="http://www.w3.org/2000/svg">
<mask id="path-1-inside-1_826_208" fill="white">
<path fill-rule="evenodd" clip-rule="evenodd" d="M19.2133 0.60433C19.9984 -0.201443 21.2933 -0.201444 22.0784 0.604329L27.6458 6.31879V4.13399C27.6458 3.02942 28.5413 2.13399 29.6458 2.13399H31.6458C32.7504 2.13399 33.6458 3.02942 33.6458 4.13399V12.4772L40.7202 19.7383C41.9549 21.0056 41.057 23.134 39.2877 23.134H36.6458V40.134C36.6458 42.8954 34.4073 45.134 31.6458 45.134H26.6458V33.134C26.6458 30.3726 24.4073 28.134 21.6458 28.134H19.6458C16.8844 28.134 14.6458 30.3726 14.6458 33.134V45.134H9.64584C6.88441 45.134 4.64584 42.8954 4.64584 40.134V23.134H2.00399C0.23472 23.134 -0.663183 21.0056 0.571479 19.7383L19.2133 0.60433Z"/>
</mask>
<path d="M22.0784 0.604329L22.7946 -0.0935061V-0.0935063L22.0784 0.604329ZM19.2133 0.60433L19.9296 1.30217V1.30216L19.2133 0.60433ZM27.6458 6.31879L26.9296 7.01663L28.6458 8.7782V6.31879H27.6458ZM33.6458 12.4772H32.6458V12.8838L32.9296 13.175L33.6458 12.4772ZM40.7202 19.7383L41.4365 19.0405V19.0405L40.7202 19.7383ZM36.6458 23.134V22.134H35.6458V23.134H36.6458ZM26.6458 45.134H25.6458V46.134H26.6458V45.134ZM14.6458 45.134V46.134H15.6458V45.134H14.6458ZM4.64584 23.134H5.64584V22.134H4.64584V23.134ZM0.571479 19.7383L-0.14478 19.0405H-0.14478L0.571479 19.7383ZM22.7946 -0.0935063C21.617 -1.30217 19.6746 -1.30216 18.4971 -0.0935043L19.9296 1.30216C20.3221 0.899279 20.9696 0.899278 21.3621 1.30216L22.7946 -0.0935063ZM28.3621 5.62096L22.7946 -0.0935061L21.3621 1.30216L26.9296 7.01663L28.3621 5.62096ZM26.6458 4.13399V6.31879H28.6458V4.13399H26.6458ZM29.6458 1.13399C27.989 1.13399 26.6458 2.47714 26.6458 4.13399H28.6458C28.6458 3.58171 29.0936 3.13399 29.6458 3.13399V1.13399ZM31.6458 1.13399H29.6458V3.13399H31.6458V1.13399ZM34.6458 4.13399C34.6458 2.47714 33.3027 1.13399 31.6458 1.13399V3.13399C32.1981 3.13399 32.6458 3.58171 32.6458 4.13399H34.6458ZM34.6458 12.4772V4.13399H32.6458V12.4772H34.6458ZM41.4365 19.0405L34.3621 11.7794L32.9296 13.175L40.0039 20.4362L41.4365 19.0405ZM39.2877 24.134C41.9416 24.134 43.2884 20.9414 41.4365 19.0405L40.0039 20.4362C40.6213 21.0698 40.1723 22.134 39.2877 22.134V24.134ZM36.6458 24.134H39.2877V22.134H36.6458V24.134ZM37.6458 40.134V23.134H35.6458V40.134H37.6458ZM31.6458 46.134C34.9595 46.134 37.6458 43.4477 37.6458 40.134H35.6458C35.6458 42.3431 33.855 44.134 31.6458 44.134V46.134ZM26.6458 46.134H31.6458V44.134H26.6458V46.134ZM25.6458 33.134V45.134H27.6458V33.134H25.6458ZM21.6458 29.134C23.855 29.134 25.6458 30.9249 25.6458 33.134H27.6458C27.6458 29.8203 24.9595 27.134 21.6458 27.134V29.134ZM19.6458 29.134H21.6458V27.134H19.6458V29.134ZM15.6458 33.134C15.6458 30.9249 17.4367 29.134 19.6458 29.134V27.134C16.3321 27.134 13.6458 29.8203 13.6458 33.134H15.6458ZM15.6458 45.134V33.134H13.6458V45.134H15.6458ZM9.64584 46.134H14.6458V44.134H9.64584V46.134ZM3.64584 40.134C3.64584 43.4477 6.33213 46.134 9.64584 46.134V44.134C7.4367 44.134 5.64584 42.3431 5.64584 40.134H3.64584ZM3.64584 23.134V40.134H5.64584V23.134H3.64584ZM2.00399 24.134H4.64584V22.134H2.00399V24.134ZM-0.14478 19.0405C-1.99677 20.9414 -0.649919 24.134 2.00399 24.134V22.134C1.11936 22.134 0.670405 21.0698 1.28774 20.4362L-0.14478 19.0405ZM18.4971 -0.093505L-0.14478 19.0405L1.28774 20.4362L19.9296 1.30217L18.4971 -0.093505Z" fill="#12003D" mask="url(#path-1-inside-1_826_208)"/>
</svg>