<svg width="68" height="14" viewBox="0 0 68 14" fill="none" xmlns="http://www.w3.org/2000/svg">
<path d="M3.654 9.13V13.12H4.83V9.13H3.654ZM8.008 9.13V13.12H9.17V9.13H8.008ZM1.288 1.836V2.774H11.466V1.836H1.288ZM0.7 8.528V9.48H12.166V8.528H0.7ZM6.412 3.488C3.822 3.488 2.296 4.244 2.296 5.574C2.296 6.918 3.822 7.674 6.412 7.674C8.988 7.674 10.514 6.918 10.514 5.574C10.514 4.244 8.988 3.488 6.412 3.488ZM6.412 4.37C8.26 4.37 9.324 4.804 9.324 5.574C9.324 6.358 8.26 6.792 6.412 6.792C4.564 6.792 3.5 6.358 3.5 5.574C3.5 4.804 4.564 4.37 6.412 4.37ZM5.824 0.366V2.508H6.986V0.366H5.824ZM23.1969 0.436V13.092H24.3169V0.436H23.1969ZM21.0549 5.504V6.47H23.4909V5.504H21.0549ZM20.3269 0.715999V12.448H21.4189V0.715999H20.3269ZM14.0269 9.004V9.97H14.8529C16.7569 9.97 18.0309 9.914 19.5429 9.592L19.4309 8.626C17.9609 8.934 16.7009 9.004 14.8529 9.004H14.0269ZM14.0269 1.976V9.438H15.1749V2.928H18.7309V1.976H14.0269ZM27.5078 1.01V1.948H36.8038V1.01H27.5078ZM27.5638 4.818V5.756H36.7478V4.818H27.5638ZM29.4258 1.444V5.238H30.5878V1.444H29.4258ZM33.7378 1.444V5.238H34.8858V1.444H33.7378ZM26.4438 7.282V8.234H37.8818V7.282H26.4438ZM31.5958 5.448V7.87H32.7438V5.448H31.5958ZM27.9278 11.86V12.812H36.6218V11.86H27.9278ZM27.9278 9.326V12.168H29.0898V9.326H27.9278ZM52.1714 0.449999V9.69H53.3474V0.449999H52.1714ZM45.2134 11.86V12.812H53.7254V11.86H45.2134ZM45.2134 8.738V12.182H46.3614V8.738H45.2134ZM46.5574 1.318C44.6674 1.318 43.2534 2.606 43.2534 4.44C43.2534 6.26 44.6674 7.562 46.5574 7.562C48.4474 7.562 49.8474 6.26 49.8474 4.44C49.8474 2.606 48.4474 1.318 46.5574 1.318ZM46.5574 2.326C47.7894 2.326 48.7274 3.194 48.7274 4.44C48.7274 5.672 47.7894 6.54 46.5574 6.54C45.3254 6.54 44.3874 5.672 44.3874 4.44C44.3874 3.194 45.3254 2.326 46.5574 2.326ZM55.8383 6.456V7.394H67.2763V6.456H55.8383ZM61.5503 8.486C58.8483 8.486 57.2103 9.326 57.2103 10.782C57.2103 12.238 58.8483 13.064 61.5503 13.064C64.2523 13.064 65.8903 12.238 65.8903 10.782C65.8903 9.326 64.2523 8.486 61.5503 8.486ZM61.5503 9.41C63.5383 9.41 64.7143 9.9 64.7143 10.782C64.7143 11.65 63.5383 12.154 61.5503 12.154C59.5763 12.154 58.3863 11.65 58.3863 10.782C58.3863 9.9 59.5763 9.41 61.5503 9.41ZM60.8083 1.584V1.962C60.8083 3.39 58.7503 4.524 56.4823 4.776L56.9023 5.686C59.5203 5.378 61.8443 3.992 61.8443 1.962V1.584H60.8083ZM61.2983 1.584V1.962C61.2983 3.992 63.6083 5.378 66.2263 5.686L66.6463 4.776C64.3783 4.524 62.3203 3.39 62.3203 1.962V1.584H61.2983ZM56.8883 1.08V2.018H66.2543V1.08H56.8883Z" fill="black"/>
</svg>
