<svg width="194" height="19" viewBox="0 0 194 19" fill="none" xmlns="http://www.w3.org/2000/svg">
<path d="M0.82 14.46V16.64H17.58V14.46H0.82ZM2.1 1.86V3.98H16.2V1.86H2.1ZM2.18 9.52V11.66H16.14V9.52H2.18ZM4.62 3.82V9.72H7.28V3.82H4.62ZM11.04 3.82V9.72H13.68V3.82H11.04ZM19.2184 14.58V16.74H35.9784V14.58H19.2184ZM26.2384 11.08V15.46H28.8984V11.08H26.2384ZM21.0984 1.46V3.56H31.4584V5.54H21.1384V10.74H23.7784V7.62H34.0984V1.46H21.0984ZM21.1384 9.68V11.82H34.5184V9.68H21.1384ZM50.3569 0.26V9.74H53.0369V0.26H50.3569ZM40.4969 10.48V12.52H50.3969V13.58H40.5369V17.72H43.1569V15.48H53.0369V10.48H40.4969ZM40.5369 16.6V18.66H53.5369V16.6H40.5369ZM38.3969 1.38V3.42H48.3769V1.38H38.3969ZM38.1769 9.42C41.3769 9.4 45.5369 9.32 49.1969 8.72L49.0569 6.82C45.4769 7.26 41.1569 7.32 37.9169 7.32L38.1769 9.42ZM39.8569 2.3V8.36H42.3969V2.3H39.8569ZM44.3369 2.3V8.36H46.9169V2.3H44.3369ZM64.3753 0.519999C60.1353 0.519999 57.6753 1.64 57.6753 3.68C57.6753 5.72 60.1353 6.84 64.3753 6.84C68.5953 6.84 71.0753 5.72 71.0753 3.68C71.0753 1.64 68.5953 0.519999 64.3753 0.519999ZM64.3753 2.46C67.0553 2.46 68.3153 2.86 68.3153 3.68C68.3153 4.54 67.0553 4.9 64.3753 4.9C61.6953 4.9 60.4353 4.54 60.4353 3.68C60.4353 2.86 61.6953 2.46 64.3753 2.46ZM55.9953 7.7V9.8H72.7353V7.7H55.9953ZM57.9153 10.84V12.82H68.0953V13.76H57.9353V17.24H60.5553V15.6H70.7153V10.84H57.9153ZM57.9353 16.66V18.66H71.1953V16.66H57.9353ZM89.0491 2.96V5.08H93.6091V2.96H89.0491ZM92.4291 0.26V9.66H95.0891V0.26H92.4291ZM82.8491 10.44V12.48H92.4491V13.5H82.8891V17.74H85.5091V15.42H95.0891V10.44H82.8491ZM82.8891 16.52V18.58H95.6091V16.52H82.8891ZM83.8291 0.859999V2.18C83.8291 4.54 82.5291 6.8 79.4491 7.72L80.8091 9.82C84.3491 8.7 85.9891 5.68 85.9891 2.18V0.859999H83.8291ZM84.3491 0.859999V2.18C84.3491 5.5 85.9291 8.36 89.3091 9.46L90.6691 7.4C87.7491 6.52 86.5091 4.38 86.5091 2.18V0.859999H84.3491ZM108.028 4.74V6.9H111.548V4.74H108.028ZM110.828 0.26V11.26H113.488V0.26H110.828ZM107.208 11.66C103.288 11.66 100.868 13 100.868 15.24C100.868 17.5 103.288 18.8 107.208 18.8C111.128 18.8 113.548 17.5 113.548 15.24C113.548 13 111.128 11.66 107.208 11.66ZM107.208 13.68C109.628 13.68 110.908 14.18 110.908 15.24C110.908 16.28 109.628 16.78 107.208 16.78C104.808 16.78 103.528 16.28 103.528 15.24C103.528 14.18 104.808 13.68 107.208 13.68ZM102.268 2.12V3.28C102.268 5.66 100.948 8.12 97.8875 9.16L99.2475 11.26C102.788 10.06 104.428 6.82 104.428 3.28V2.12H102.268ZM102.828 2.12V3.28C102.828 6.58 104.408 9.66 107.848 10.8L109.148 8.7C106.228 7.72 104.968 5.46 104.968 3.28V2.12H102.828ZM98.6075 1.38V3.5H108.568V1.38H98.6075ZM116.366 3.04V5.16H125.226V3.04H116.366ZM120.826 5.98C118.486 5.98 116.766 7.8 116.766 10.4C116.766 12.98 118.486 14.8 120.826 14.8C123.186 14.8 124.886 12.98 124.886 10.4C124.886 7.8 123.186 5.98 120.826 5.98ZM120.826 8.2C121.826 8.2 122.546 9 122.546 10.4C122.546 11.8 121.826 12.58 120.826 12.58C119.826 12.58 119.126 11.8 119.126 10.4C119.126 9 119.826 8.2 120.826 8.2ZM129.766 0.26V18.78H132.306V0.26H129.766ZM127.546 7.78V9.92H130.606V7.78H127.546ZM125.886 0.599999V18H128.366V0.599999H125.886ZM119.526 0.759999V4.38H122.146V0.759999H119.526ZM141.644 2.32V2.86C141.644 4.76 139.684 6.84 135.604 7.34L136.584 9.42C141.284 8.78 143.944 6.12 143.944 2.86V2.32H141.644ZM142.404 2.32V2.86C142.404 6.12 145.064 8.78 149.784 9.42L150.744 7.34C146.664 6.84 144.704 4.76 144.704 2.86V2.32H142.404ZM141.784 12V18.8H144.424V12H141.784ZM134.804 10.48V12.6H151.544V10.48H134.804ZM136.284 1.2V3.3H150.024V1.2H136.284ZM160.483 6.48V8.64H163.543V6.48H160.483ZM156.523 1.86V4.98C156.523 8.12 155.563 11.42 152.843 13.1L154.443 15.1C157.403 13.28 158.563 9.18 158.563 4.98V1.86H156.523ZM157.103 1.86V4.86C157.103 8.86 158.023 12.86 160.963 14.68L162.403 12.6C159.883 10.96 159.103 7.88 159.103 4.86V1.86H157.103ZM166.563 0.26V18.78H169.103V0.26H166.563ZM162.803 0.54V17.94H165.283V0.54H162.803ZM175.281 9.66V14.86H177.921V9.66H175.281ZM182.001 9.66V14.86H184.661V9.66H182.001ZM171.601 14.48V16.64H188.361V14.48H171.601ZM179.961 1.16C175.961 1.16 173.041 3.12 173.041 6.14C173.041 9.16 175.961 11.1 179.961 11.1C183.941 11.1 186.881 9.16 186.881 6.14C186.881 3.12 183.941 1.16 179.961 1.16ZM179.961 3.24C182.541 3.24 184.261 4.3 184.261 6.14C184.261 7.96 182.541 9.04 179.961 9.04C177.381 9.04 175.661 7.96 175.661 6.14C175.661 4.3 177.381 3.24 179.961 3.24ZM193.24 12.26H190.86L190.36 2.72H193.74L193.24 12.26ZM190.32 15.6C190.32 14.9867 190.486 14.56 190.82 14.32C191.153 14.0667 191.56 13.94 192.04 13.94C192.506 13.94 192.906 14.0667 193.24 14.32C193.573 14.56 193.74 14.9867 193.74 15.6C193.74 16.1867 193.573 16.6133 193.24 16.88C192.906 17.1333 192.506 17.26 192.04 17.26C191.56 17.26 191.153 17.1333 190.82 16.88C190.486 16.6133 190.32 16.1867 190.32 15.6Z" fill="black"/>
</svg>
