<svg width="210" height="16" viewBox="0 0 210 16" fill="none" xmlns="http://www.w3.org/2000/svg">
<path d="M2.528 1.36V7.136H12.16V1.36H10.832V3.168H3.84V1.36H2.528ZM3.84 4.224H10.832V6.064H3.84V4.224ZM0.784 8.672V9.76H13.856V8.672H0.784ZM6.672 6.512V9.152H7.984V6.512H6.672ZM2.48 13.84V14.928H12.416V13.84H2.48ZM2.48 10.928V14.208H3.808V10.928H2.48ZM26.0308 0.799999V11.36H27.3748V0.799999H26.0308ZM18.0788 13.84V14.928H27.8068V13.84H18.0788ZM18.0788 10.272V14.208H19.3908V10.272H18.0788ZM19.6148 1.792C17.4548 1.792 15.8388 3.264 15.8388 5.36C15.8388 7.44 17.4548 8.928 19.6148 8.928C21.7748 8.928 23.3748 7.44 23.3748 5.36C23.3748 3.264 21.7748 1.792 19.6148 1.792ZM19.6148 2.944C21.0228 2.944 22.0948 3.936 22.0948 5.36C22.0948 6.768 21.0228 7.76 19.6148 7.76C18.2068 7.76 17.1348 6.768 17.1348 5.36C17.1348 3.936 18.2068 2.944 19.6148 2.944ZM38.1698 7.568V9.424H39.4978V7.568H38.1698ZM44.2658 0.799999V10.496H45.5938V0.799999H44.2658ZM45.0338 5.168V6.272H47.7058V5.168H45.0338ZM34.4738 10.08C37.0018 10.064 40.4258 10.048 43.5138 9.504L43.4018 8.56C40.4098 8.992 36.8898 8.992 34.2978 8.992L34.4738 10.08ZM36.0898 11.216V12.272H44.2658V15.248H45.5938V11.216H36.0898ZM34.6658 2.096V3.088H42.9698V2.096H34.6658ZM38.8258 3.648C36.7778 3.648 35.4498 4.464 35.4498 5.792C35.4498 7.12 36.7778 7.936 38.8258 7.936C40.8578 7.936 42.1858 7.12 42.1858 5.792C42.1858 4.464 40.8578 3.648 38.8258 3.648ZM38.8258 4.56C40.1058 4.56 40.9378 5.024 40.9378 5.792C40.9378 6.528 40.1058 7.008 38.8258 7.008C37.5298 7.008 36.6978 6.528 36.6978 5.792C36.6978 5.024 37.5298 4.56 38.8258 4.56ZM38.1698 0.671999V2.576H39.4978V0.671999H38.1698ZM59.6245 0.799999V11.36H60.9685V0.799999H59.6245ZM51.6725 13.84V14.928H61.4005V13.84H51.6725ZM51.6725 10.272V14.208H52.9845V10.272H51.6725ZM53.2085 1.792C51.0485 1.792 49.4325 3.264 49.4325 5.36C49.4325 7.44 51.0485 8.928 53.2085 8.928C55.3685 8.928 56.9685 7.44 56.9685 5.36C56.9685 3.264 55.3685 1.792 53.2085 1.792ZM53.2085 2.944C54.6165 2.944 55.6885 3.936 55.6885 5.36C55.6885 6.768 54.6165 7.76 53.2085 7.76C51.8005 7.76 50.7285 6.768 50.7285 5.36C50.7285 3.936 51.8005 2.944 53.2085 2.944ZM70.3593 1.024C67.1593 1.024 65.2713 1.92 65.2713 3.536C65.2713 5.152 67.1593 6.048 70.3593 6.048C73.5433 6.048 75.4473 5.152 75.4473 3.536C75.4473 1.92 73.5433 1.024 70.3593 1.024ZM70.3593 2.032C72.7113 2.032 74.0713 2.576 74.0713 3.536C74.0713 4.496 72.7113 5.04 70.3593 5.04C67.9913 5.04 66.6313 4.496 66.6313 3.536C66.6313 2.576 67.9913 2.032 70.3593 2.032ZM63.8153 7.008V8.08H76.8873V7.008H63.8153ZM65.3993 9.312V10.336H73.9113V11.616H65.4313V14.336H66.7433V12.576H75.2233V9.312H65.3993ZM65.4313 14.048V15.088H75.6553V14.048H65.4313ZM87.4263 1.456C85.2823 1.456 83.7463 2.656 83.7463 4.432C83.7463 6.192 85.2823 7.424 87.4263 7.424C89.5863 7.424 91.1223 6.192 91.1223 4.432C91.1223 2.656 89.5863 1.456 87.4263 1.456ZM87.4263 2.56C88.8343 2.56 89.8423 3.328 89.8423 4.432C89.8423 5.552 88.8343 6.304 87.4263 6.304C86.0182 6.304 85.0103 5.552 85.0103 4.432C85.0103 3.328 86.0182 2.56 87.4263 2.56ZM86.8343 9.024V14.8H88.1623V9.024H86.8343ZM93.2343 0.783999V15.264H94.5463V0.783999H93.2343ZM82.8503 9.744C85.4903 9.744 89.0423 9.696 92.3063 9.104L92.2103 8.112C89.0263 8.592 85.3623 8.624 82.6743 8.624L82.8503 9.744ZM107.313 0.799999V11.648H108.641V0.799999H107.313ZM108.225 5.536V6.656H110.785V5.536H108.225ZM97.457 2.544V3.616H106.001V2.544H97.457ZM101.729 4.416C99.665 4.416 98.257 5.488 98.257 7.12C98.257 8.736 99.665 9.808 101.729 9.808C103.777 9.808 105.185 8.736 105.185 7.12C105.185 5.488 103.777 4.416 101.729 4.416ZM101.729 5.456C103.025 5.456 103.921 6.112 103.921 7.12C103.921 8.112 103.025 8.768 101.729 8.768C100.417 8.768 99.521 8.112 99.521 7.12C99.521 6.112 100.417 5.456 101.729 5.456ZM101.057 0.783999V3.104H102.385V0.783999H101.057ZM99.633 13.84V14.928H109.297V13.84H99.633ZM99.633 10.784V14.304H100.961V10.784H99.633ZM127.116 2.976V4.096H129.628V2.976H127.116ZM127.116 6.08V7.184H129.628V6.08H127.116ZM126.188 0.783999V9.376H127.516V0.783999H126.188ZM118.124 10.064V11.136H126.188V15.248H127.516V10.064H118.124ZM120.332 1.632C118.156 1.632 116.556 3.04 116.556 5.072C116.556 7.088 118.156 8.48 120.332 8.48C122.508 8.48 124.108 7.088 124.108 5.072C124.108 3.04 122.508 1.632 120.332 1.632ZM120.332 2.768C121.772 2.768 122.812 3.696 122.812 5.072C122.812 6.432 121.772 7.376 120.332 7.376C118.892 7.376 117.852 6.432 117.852 5.072C117.852 3.696 118.892 2.768 120.332 2.768ZM131.787 1.904V2.992H138.187V1.904H131.787ZM133.963 5.136V8.752H135.275V5.136H133.963ZM137.659 1.904V2.672C137.659 3.6 137.659 4.912 137.291 6.816L138.587 6.96C138.971 5.056 138.971 3.616 138.971 2.672V1.904H137.659ZM140.939 0.783999V11.68H142.267V0.783999H140.939ZM141.659 5.488V6.592H144.331V5.488H141.659ZM133.131 13.84V14.928H142.731V13.84H133.131ZM133.131 10.672V14.176H134.443V10.672H133.131ZM131.051 9.376C133.595 9.376 137.051 9.312 140.059 8.784L139.963 7.824C137.035 8.224 133.483 8.288 130.907 8.288L131.051 9.376ZM149.894 12.304V13.408H162.998V12.304H149.894ZM155.75 8.56V12.608H157.078V8.56H155.75ZM151.414 1.984V8.8H161.398V1.984H151.414ZM160.118 3.056V7.728H152.71V3.056H160.118ZM166.405 6.16V7.248H176.069V6.16H166.405ZM164.597 9.12V10.224H177.717V9.12H164.597ZM170.453 9.728V15.2H171.765V9.728H170.453ZM166.405 1.632V6.688H167.749V2.72H175.877V1.632H166.405ZM183.488 7.904V8.992H196.56V7.904H183.488ZM189.36 5.584V8.352H190.672V5.584H189.36ZM185.136 5.168V6.256H195.04V5.168H185.136ZM185.136 1.44V5.808H186.448V2.512H194.928V1.44H185.136ZM190 10.032C186.911 10.032 185.039 10.976 185.039 12.624C185.039 14.304 186.911 15.232 190 15.232C193.088 15.232 194.96 14.304 194.96 12.624C194.96 10.976 193.088 10.032 190 10.032ZM190 11.056C192.272 11.056 193.616 11.632 193.616 12.624C193.616 13.632 192.272 14.192 190 14.192C187.744 14.192 186.384 13.632 186.384 12.624C186.384 11.632 187.744 11.056 190 11.056ZM202.894 1.824C200.638 1.824 199.006 3.216 199.006 5.232C199.006 7.264 200.638 8.656 202.894 8.656C205.15 8.656 206.766 7.264 206.766 5.232C206.766 3.216 205.15 1.824 202.894 1.824ZM202.894 2.976C204.382 2.976 205.47 3.888 205.47 5.232C205.47 6.576 204.382 7.504 202.894 7.504C201.39 7.504 200.302 6.576 200.302 5.232C200.302 3.888 201.39 2.976 202.894 2.976ZM208.654 0.768V15.264H209.982V0.768H208.654ZM198.462 12.096C201.038 12.096 204.574 12.08 207.822 11.456L207.71 10.48C204.558 10.976 200.91 10.992 198.27 10.992L198.462 12.096Z" fill="black"/>
</svg>
