<svg width="343" height="230" viewBox="0 0 343 230" fill="none" xmlns="http://www.w3.org/2000/svg">
<g clip-path="url(#clip0_821_1900)">
<rect width="343" height="230" rx="4" fill="#E9E9E9"/>
<g filter="url(#filter0_d_821_1900)">
<rect x="33" y="33" width="278" height="177" rx="4" fill="#FEFEFE"/>
</g>
<path d="M64.4375 56.4688V57.5781H58.7969V58.75H62.8438V61.9062H54.6875V63.0625H63.2344V64.1875H53.2344V60.875H61.375V59.8281H53.2188V58.75H57.3281V57.5781H51.7031V56.4688H64.4375ZM52.3281 54.7969C55.0078 54.6484 56.8984 53.8281 57.2031 52.6406H52.9688V51.5H57.3281V50.2656H58.7969V51.5H63.1719V52.6406H58.9141C59.2109 53.8281 61.1016 54.6484 63.8125 54.7969L63.3594 55.9219C60.9219 55.7422 58.9375 55.0312 58.0625 53.8047C57.1875 55.0312 55.2031 55.7422 52.75 55.9219L52.3281 54.7969ZM67.5156 50.9219V52.8281H71.1875V50.9219H72.6562V57.0312H66.0625V50.9219H67.5156ZM67.4688 59.3125V58.1406H76.5156V61.6719H68.9531V63H77V64.1875H67.5V60.5781H75.0469V59.3125H67.4688ZM67.5156 55.8438H71.1875V53.9688H67.5156V55.8438ZM75.0312 57.5312V50.3281H76.5156V53.2656H78.5469V54.4688H76.5156V57.5312H75.0312Z" fill="#4E4E4E"/>
<path d="M62.5243 95.9655L67 101L71.4757 95.9655C74.9085 92.1041 72.167 86 67 86C61.833 86 59.0915 92.1041 62.5243 95.9655Z" fill="#D1D1D1"/>
<path d="M67.5 95C68.8807 95 70 93.8807 70 92.5C70 91.1193 68.8807 90 67.5 90C66.1193 90 65 91.1193 65 92.5C65 93.8807 66.1193 95 67.5 95Z" fill="white"/>
<path d="M91.0498 86.4531V91.4023H93.0186V92.3047H91.0498V98.6074H89.9834V86.4531H91.0498ZM81.7256 95.4492C84.8633 93.8906 86.5723 91.5459 86.8184 88.668H82.2861V87.7656H87.9053C87.8984 91.2041 86.2852 94.3418 82.3271 96.2969L81.7256 95.4492ZM97.8311 88.75C97.8242 90.4248 99.0889 91.9697 100.88 92.5918L100.333 93.4531C98.9521 92.9473 97.8789 91.9219 97.3389 90.6367C96.8262 92.0859 95.7256 93.2002 94.29 93.7539L93.7021 92.8926C95.5547 92.2432 96.7715 90.5957 96.7783 88.709V87.2051H97.8311V88.75ZM95.6572 98.3477V94.5742H96.751V97.4453H103.806V98.3477H95.6572ZM102.179 95.4355V86.4531H103.245V90.1855H105.077V91.1016H103.245V95.4355H102.179ZM115.864 86.4531V98.6348H114.784V86.4531H115.864ZM106.636 95.6133V87.6152H112.419V88.5176H107.716V94.6836C110.081 94.6836 111.633 94.6152 113.458 94.2871L113.567 95.1895C111.681 95.5244 110.081 95.6064 107.62 95.6133H106.636ZM122.29 90.1855C122.297 92.25 123.794 94.3486 125.585 95.1211L124.983 95.9688C123.562 95.3262 122.338 93.9248 121.771 92.2432C121.203 94.0273 119.973 95.5723 118.585 96.2695L117.942 95.4219C119.686 94.5879 121.203 92.291 121.21 90.1855V88.5996H118.339V87.7109H125.188V88.5996H122.29V90.1855ZM126.884 98.6074V86.4531H127.964V98.6074H126.884ZM136.181 87.2051V88.0938H131.737V89.3926H135.853V90.2266H131.737V91.6758C133.979 91.6689 135.265 91.6211 136.837 91.3613L136.933 92.2363C135.285 92.5098 133.938 92.5371 131.56 92.5371H130.671V87.2051H136.181ZM132.229 94.4375V93.5762H140.104V96.3926H133.323V97.6094H140.569V98.4707H132.257V95.5723H139.038V94.4375H132.229ZM136.7 90.1309V89.2559H139.038V86.4531H140.104V93.0293H139.038V90.1309H136.7ZM151.644 86.4531V90.0762H153.489V90.9785H151.644V95.2578H150.577V86.4531H151.644ZM142.716 93.0977V87.5059H148.13V88.4082H143.782V92.1953C146.223 92.2021 147.61 92.127 149.237 91.7988L149.374 92.6875C147.665 93.0156 146.216 93.0977 143.659 93.0977H142.716ZM144.042 98.3477V94.3691H145.095V97.4453H152.204V98.3477H144.042ZM158.589 90.1855C158.596 92.25 160.093 94.3486 161.884 95.1211L161.282 95.9688C159.86 95.3262 158.637 93.9248 158.069 92.2432C157.502 94.0273 156.271 95.5723 154.884 96.2695L154.241 95.4219C155.984 94.5879 157.502 92.291 157.509 90.1855V88.5996H154.638V87.7109H161.487V88.5996H158.589V90.1855ZM163.183 98.6074V86.4531H164.263V98.6074H163.183Z" fill="#585858"/>
<rect x="51.5" y="75.5" width="236" height="35" rx="3.5" stroke="#DADADA"/>
<path d="M63.0312 141.781V142.969H58.7969V146.391H64.5V147.609H51.6875V146.391H57.3281V142.969H53.2812V136.406H62.9062V137.609H54.7656V141.781H63.0312ZM70.4219 138.359C70.4219 140.008 71.6875 141.57 73.8281 142.172L73.125 143.359C71.5234 142.875 70.3281 141.852 69.7109 140.555C69.0938 141.977 67.875 143.086 66.2344 143.609L65.5 142.453C67.6406 141.805 68.9531 140.148 68.9531 138.359V138.156H65.9062V136.969H68.9531V135.281H70.4375V136.969H73.4688V138.156H70.4219V138.359ZM67.2656 145.766V144.562H76.5156V149.344H75.0312V145.766H67.2656ZM75.0312 143.891V135.328H76.5156V138.969H78.5469V140.234H76.5156V143.891H75.0312Z" fill="#4E4E4E"/>
<rect x="51.5" y="157.815" width="234.854" height="34.6618" rx="3.5" fill="white"/>
<path d="M62.5243 178.111L67 183.146L71.4757 178.111C74.9085 174.25 72.167 168.146 67 168.146C61.833 168.146 59.0915 174.25 62.5243 178.111Z" fill="#D1D1D1"/>
<path d="M67 176.396C68.2426 176.396 69.25 175.389 69.25 174.146C69.25 172.903 68.2426 171.896 67 171.896C65.7574 171.896 64.75 172.903 64.75 174.146C64.75 175.389 65.7574 176.396 67 176.396Z" fill="white"/>
<path d="M91.6592 174.3V175.175H87.8994V178.32H92.9717V179.222H81.8428V178.32H86.8467V175.175H83.2646V169.597H91.5361V170.472H84.3447V174.3H91.6592ZM98.085 171.251C98.0918 172.762 99.3086 174.143 101.106 174.683L100.587 175.531C99.1924 175.093 98.1123 174.163 97.5791 172.967C97.0459 174.28 95.9316 175.285 94.5029 175.763L93.9561 174.915C95.7676 174.355 97.0254 172.899 97.0322 171.251V170.978H94.2842V170.117H97.0322V168.558H98.1123V170.117H100.833V170.978H98.085V171.251ZM95.4873 177.54V176.652H103.444V180.781H102.378V177.54H95.4873ZM102.378 176.023V168.599H103.444V171.853H105.276V172.769H103.444V176.023H102.378ZM116.118 176.433V180.753H115.038V177.294H107.942V176.433H116.118ZM106.233 172.195C106.227 170.499 107.573 169.289 109.392 169.296C110.444 169.289 111.34 169.706 111.9 170.39H115.038V168.599H116.118V175.763H115.038V174.013H111.907C111.347 174.703 110.451 175.114 109.392 175.107C107.573 175.12 106.227 173.924 106.233 172.195ZM107.259 172.195C107.259 173.377 108.147 174.204 109.392 174.204C110.588 174.204 111.497 173.377 111.497 172.195C111.497 171.053 110.588 170.212 109.392 170.212C108.147 170.212 107.259 171.053 107.259 172.195ZM112.393 173.124H115.038V171.279H112.386C112.481 171.566 112.536 171.867 112.536 172.195C112.536 172.523 112.481 172.837 112.393 173.124Z" fill="#585858"/>
<rect x="51.5" y="157.815" width="234.854" height="34.6618" rx="3.5" stroke="#DADADA"/>
<path d="M47.9561 6.9668V15.8535H46.8896V6.9668H47.9561ZM38.208 10.7949C38.2012 9.04492 39.5752 7.82129 41.3936 7.81445C43.2119 7.82129 44.5723 9.04492 44.5791 10.7949C44.5723 12.5654 43.2119 13.7959 41.3936 13.7891C39.5752 13.7959 38.2012 12.5654 38.208 10.7949ZM39.2607 10.7949C39.2471 12.0049 40.1631 12.8457 41.3936 12.8457C42.6035 12.8457 43.5264 12.0049 43.5264 10.7949C43.5264 9.60547 42.6035 8.75781 41.3936 8.75781C40.1631 8.75781 39.2471 9.60547 39.2607 10.7949ZM40.1084 18.8477V14.9512H41.1748V17.9453H48.3389V18.8477H40.1084ZM60.0967 6.9668V15.9492H59.0166V12.668H55.8721C55.3115 13.3857 54.4092 13.8164 53.3701 13.8164C51.5518 13.8164 50.2051 12.5586 50.2119 10.7812C50.2051 8.99707 51.5518 7.73926 53.3701 7.73242C54.4023 7.73926 55.291 8.16309 55.8584 8.86719H59.0166V6.9668H60.0967ZM51.2373 10.7812C51.2373 11.998 52.126 12.8662 53.3701 12.8594C54.5664 12.8662 55.4756 11.998 55.4756 10.7812C55.4756 9.57129 54.5664 8.69629 53.3701 8.68945C52.126 8.69629 51.2373 9.57129 51.2373 10.7812ZM52.29 18.8477V15.0059H53.3701V17.9453H60.4385V18.8477H52.29ZM56.3438 9.75586C56.4531 10.0703 56.5146 10.4121 56.5146 10.7812C56.5146 11.1367 56.4531 11.4717 56.3506 11.7793H59.0166V9.75586H56.3438ZM67.6572 7.17188C70.3574 7.17188 71.9434 7.91699 71.9502 9.26367C71.9434 10.6445 70.3574 11.3896 67.6572 11.3965C64.9434 11.3896 63.3506 10.6445 63.3506 9.26367C63.3506 7.91699 64.9434 7.17188 67.6572 7.17188ZM62.1201 13.0918V12.2168H73.1943V13.0918H62.1201ZM63.46 14.9648V14.1445H71.7725V16.8652H64.5537V18.123H72.1416V18.9707H63.4873V16.0723H70.7197V14.9648H63.46ZM64.4717 9.26367C64.458 10.1113 65.6406 10.5762 67.6572 10.5762C69.6738 10.5762 70.8496 10.1113 70.8564 9.26367C70.8496 8.46387 69.6738 7.98535 67.6572 7.97852C65.6406 7.98535 64.458 8.46387 64.4717 9.26367ZM81.876 9.49609C81.8828 10.9521 83.0996 12.2852 84.8975 12.8184L84.3916 13.6387C82.9902 13.2148 81.9033 12.3125 81.3633 11.1572C80.8369 12.4287 79.709 13.4131 78.2666 13.8848L77.7334 13.0371C79.5449 12.4902 80.8164 11.0957 80.8232 9.49609V9.26367H78.0752V8.375H80.8232V6.89844H81.9033V8.375H84.624V9.26367H81.876V9.49609ZM78.9639 18.2324C80.9189 17.918 82.6963 16.8516 82.874 15.5527H79.4424V14.6777H87.4541V15.5527H84.0088C84.1797 16.8242 85.9707 17.918 87.9189 18.2324L87.5225 19.0664C85.7451 18.7725 84.1318 17.8906 83.4346 16.6738C82.7441 17.8838 81.1377 18.752 79.374 19.0527L78.9639 18.2324ZM86.1689 14.0215V6.95312H87.2354V9.96094H89.0674V10.8633H87.2354V14.0215H86.1689ZM99.8818 6.95312V19.1074H98.8018V6.95312H99.8818ZM89.9834 15.9492C93.2715 14.3906 94.9531 12.0596 95.1924 9.1543H90.5439V8.2793H96.2861C96.2725 11.7725 94.6455 14.8691 90.5713 16.8242L89.9834 15.9492ZM115.522 6.9668V15.8809H114.442V11.2188H111.94V10.3301H114.442V6.9668H115.522ZM105.501 13.4473C107.292 12.8184 108.591 11.2119 108.591 9.46875V8.83984H105.843V7.95117H112.392V8.83984H109.671V9.46875C109.671 11.041 110.888 12.5654 112.665 13.1738L112.104 14.0352C110.737 13.5361 109.678 12.5176 109.151 11.2598C108.625 12.668 107.504 13.7822 106.062 14.3223L105.501 13.4473ZM107.716 18.8477V15.0742H108.796V17.9453H115.864V18.8477H107.716ZM132.134 12.3672V13.2012H127.116V14.3359H130.712V16.9609H123.493V18.1504H131.081V18.9707H122.427V16.1953H129.659V15.1426H122.399V14.3359H126.063V13.2012H121.073V12.3672H132.134ZM121.661 10.9863C123.89 10.8428 125.79 10.084 125.988 8.86719H122.208V8.01953H126.063V6.88477H127.116V8.01953H131.013V8.86719H127.198C127.39 10.084 129.29 10.8428 131.532 10.9863L131.204 11.8066C129.174 11.6357 127.342 11.0068 126.597 9.85156C125.845 11.0068 124.013 11.6357 121.976 11.8066L121.661 10.9863ZM134.731 7.47266V9.22266H138.272V7.47266H139.339V12.7637H133.679V7.47266H134.731ZM134.731 11.8887H138.272V10.0566H134.731V11.8887ZM134.909 14.6777V13.8164H142.661V16.7559H135.989V18.0957H143.112V18.9707H134.937V15.9355H141.595V14.6777H134.909ZM141.595 13.2422V6.95312H142.661V9.5918H144.493V10.4941H142.661V13.2422H141.595ZM155.335 14.7871V19.1074H154.255V15.6484H147.159V14.7871H155.335ZM145.45 10.5488C145.443 8.85352 146.79 7.64355 148.608 7.65039C149.661 7.64355 150.557 8.06055 151.117 8.74414H154.255V6.95312H155.335V14.1172H154.255V12.3672H151.124C150.563 13.0576 149.668 13.4678 148.608 13.4609C146.79 13.4746 145.443 12.2783 145.45 10.5488ZM146.476 10.5488C146.476 11.7314 147.364 12.5586 148.608 12.5586C149.805 12.5586 150.714 11.7314 150.714 10.5488C150.714 9.40723 149.805 8.56641 148.608 8.56641C147.364 8.56641 146.476 9.40723 146.476 10.5488ZM151.609 11.4785H154.255V9.63281H151.603C151.698 9.91992 151.753 10.2207 151.753 10.5488C151.753 10.877 151.698 11.1914 151.609 11.4785ZM164.099 8.30664V8.93555C164.092 9.89941 164.092 11.5059 163.743 13.7617L162.663 13.666C162.998 11.6289 163.025 10.1523 163.019 9.18164H157.919V8.30664H164.099ZM157.235 15.5391C158.035 15.5322 158.924 15.5254 159.86 15.5049V11.7793H160.913V15.4707C162.26 15.4229 163.641 15.334 164.905 15.1836L164.96 15.9902C162.403 16.3867 159.546 16.4414 157.372 16.4277L157.235 15.5391ZM165.671 19.1074V6.95312H166.737V12.0391H168.706V12.9688H166.737V19.1074H165.671ZM182.788 12.6543V13.5293H179.028V16.6738H184.101V17.5762H172.972V16.6738H177.976V13.5293H174.394V7.95117H182.665V8.82617H175.474V12.6543H182.788ZM189.214 9.60547C189.221 11.1162 190.438 12.4971 192.235 13.0371L191.716 13.8848C190.321 13.4473 189.241 12.5176 188.708 11.3213C188.175 12.6338 187.061 13.6387 185.632 14.1172L185.085 13.2695C186.896 12.709 188.154 11.2529 188.161 9.60547V9.33203H185.413V8.4707H188.161V6.91211H189.241V8.4707H191.962V9.33203H189.214V9.60547ZM186.616 15.8945V15.0059H194.573V19.1348H193.507V15.8945H186.616ZM193.507 14.377V6.95312H194.573V10.207H196.405V11.123H194.573V14.377H193.507ZM207.247 14.7871V19.1074H206.167V15.6484H199.071V14.7871H207.247ZM197.362 10.5488C197.355 8.85352 198.702 7.64355 200.521 7.65039C201.573 7.64355 202.469 8.06055 203.029 8.74414H206.167V6.95312H207.247V14.1172H206.167V12.3672H203.036C202.476 13.0576 201.58 13.4678 200.521 13.4609C198.702 13.4746 197.355 12.2783 197.362 10.5488ZM198.388 10.5488C198.388 11.7314 199.276 12.5586 200.521 12.5586C201.717 12.5586 202.626 11.7314 202.626 10.5488C202.626 9.40723 201.717 8.56641 200.521 8.56641C199.276 8.56641 198.388 9.40723 198.388 10.5488ZM203.521 11.4785H206.167V9.63281H203.515C203.61 9.91992 203.665 10.2207 203.665 10.5488C203.665 10.877 203.61 11.1914 203.521 11.4785ZM214.808 7.17188C217.508 7.17188 219.094 7.91699 219.101 9.26367C219.094 10.6445 217.508 11.3896 214.808 11.3965C212.094 11.3896 210.501 10.6445 210.501 9.26367C210.501 7.91699 212.094 7.17188 214.808 7.17188ZM209.271 13.0918V12.2168H220.345V13.0918H209.271ZM210.61 14.9648V14.1445H218.923V16.8652H211.704V18.123H219.292V18.9707H210.638V16.0723H217.87V14.9648H210.61ZM211.622 9.26367C211.608 10.1113 212.791 10.5762 214.808 10.5762C216.824 10.5762 218 10.1113 218.007 9.26367C218 8.46387 216.824 7.98535 214.808 7.97852C212.791 7.98535 211.608 8.46387 211.622 9.26367ZM229.231 10.6855C229.238 12.75 230.735 14.8486 232.526 15.6211L231.925 16.4688C230.503 15.8262 229.279 14.4248 228.712 12.7432C228.145 14.5273 226.914 16.0723 225.526 16.7695L224.884 15.9219C226.627 15.0879 228.145 12.791 228.151 10.6855V9.09961H225.28V8.21094H232.13V9.09961H229.231V10.6855ZM233.825 19.1074V6.95312H234.905V19.1074H233.825ZM247.06 6.95312V14.1992H245.979V11.0137H243.532V10.125H245.979V6.95312H247.06ZM237.038 13.2285C238.843 12.5791 240.128 10.9316 240.128 9.19531V8.74414H237.38V7.8418H243.929V8.74414H241.208V9.18164C241.208 10.7676 242.425 12.2783 244.202 12.8867L243.642 13.748C242.281 13.2559 241.222 12.2305 240.695 10.9795C240.176 12.4014 239.048 13.5361 237.599 14.0898L237.038 13.2285ZM238.952 16.8379C238.945 15.4092 240.497 14.5752 243.026 14.582C245.549 14.5752 247.101 15.4092 247.101 16.8379C247.101 18.2734 245.549 19.0938 243.026 19.1074C240.497 19.0938 238.945 18.2734 238.952 16.8379ZM240.019 16.8379C240.012 17.7197 241.16 18.2529 243.026 18.2461C244.886 18.2529 246.034 17.7197 246.034 16.8379C246.034 15.9492 244.886 15.416 243.026 15.416C241.16 15.416 240.012 15.9492 240.019 16.8379ZM258.667 9.05859V9.93359H252.569V9.05859H255.099V7.32227H256.165V9.05859H258.667ZM253.007 13.5156C253.007 11.9023 254.107 10.7607 255.618 10.7539C257.149 10.7607 258.243 11.9023 258.257 13.5156C258.243 15.1494 257.149 16.2979 255.618 16.3047C254.107 16.2979 253.007 15.1494 253.007 13.5156ZM253.964 13.5156C253.964 14.5957 254.654 15.3682 255.618 15.3613C256.589 15.3682 257.3 14.5957 257.3 13.5156C257.3 12.4492 256.589 11.6699 255.618 11.6562C254.654 11.6699 253.964 12.4492 253.964 13.5156ZM259.296 18.5059V7.25391H260.308V12.0801H261.921V6.95312H262.946V19.1074H261.921V12.9688H260.308V18.5059H259.296ZM274.349 8.67578C274.342 10.3027 276.509 11.6836 278.628 11.998L278.231 12.8457C276.338 12.5244 274.485 11.5127 273.747 10.0498C273.009 11.5127 271.156 12.5244 269.29 12.8457L268.866 11.998C270.979 11.6836 273.139 10.3027 273.146 8.67578V8.59375H269.249V7.71875H278.231V8.59375H274.349V8.67578ZM268.21 14.7734V13.8848H279.284V14.7734H274.253V19.1074H273.2V14.7734H268.21ZM283.919 10.4121C283.919 12.3467 284.862 14.4316 286.476 15.3887L285.86 16.2227C284.685 15.5117 283.844 14.2129 283.42 12.7295C282.976 14.3496 282.073 15.7441 280.856 16.4824L280.173 15.6758C281.854 14.6914 282.88 12.5381 282.88 10.4531V8.10156H283.919V10.4121ZM285.136 12.2305V11.3145H287.2V7.21289H288.212V18.4922H287.2V12.2305H285.136ZM289.688 19.1074V6.95312H290.728V19.1074H289.688ZM303.538 16.6465V17.5488H292.409V16.6465H295.171V13.3721C294.132 12.832 293.503 11.957 293.503 10.8496C293.503 8.96973 295.349 7.73242 297.946 7.71875C300.544 7.73242 302.39 8.96973 302.39 10.8496C302.39 11.9365 301.781 12.7979 300.776 13.3379V16.6465H303.538ZM294.542 10.8496C294.535 12.21 295.95 13.1191 297.946 13.1191C299.922 13.1191 301.351 12.21 301.351 10.8496C301.351 9.48926 299.922 8.59375 297.946 8.60742C295.95 8.59375 294.535 9.48926 294.542 10.8496ZM296.224 16.6465H299.696V13.7549C299.17 13.8916 298.582 13.9668 297.946 13.9668C297.324 13.9668 296.743 13.8984 296.224 13.7617V16.6465ZM305.794 18.082C305.315 18.0752 304.905 17.6787 304.919 17.1934C304.905 16.7148 305.315 16.3184 305.794 16.3184C306.279 16.3184 306.676 16.7148 306.669 17.1934C306.676 17.6787 306.279 18.0752 305.794 18.082Z" fill="#ABABAB"/>
<circle cx="45" cy="53" r="2.5" fill="white" stroke="#424242"/>
<circle cx="45" cy="141" r="3" fill="#FA3A45"/>
<line x1="45.5" y1="60" x2="45.5" y2="134" stroke="#C1C1C1" stroke-dasharray="1 1"/>
<path fill-rule="evenodd" clip-rule="evenodd" d="M4 0C1.79086 0 0 1.79087 0 4V226C0 228.209 1.79087 230 4.00001 230H339C341.209 230 343 228.209 343 226V4C343 1.79086 341.209 0 339 0H4ZM37 32C34.7909 32 33 33.7909 33 36V206C33 208.209 34.7909 210 37 210H307C309.209 210 311 208.209 311 206V36C311 33.7909 309.209 32 307 32H37Z" fill="black" fill-opacity="0.4"/>
</g>
<defs>
<filter id="filter0_d_821_1900" x="22" y="26" width="300" height="199" filterUnits="userSpaceOnUse" color-interpolation-filters="sRGB">
<feFlood flood-opacity="0" result="BackgroundImageFix"/>
<feColorMatrix in="SourceAlpha" type="matrix" values="0 0 0 0 0 0 0 0 0 0 0 0 0 0 0 0 0 0 127 0" result="hardAlpha"/>
<feMorphology radius="4" operator="dilate" in="SourceAlpha" result="effect1_dropShadow_821_1900"/>
<feOffset dy="4"/>
<feGaussianBlur stdDeviation="3.5"/>
<feComposite in2="hardAlpha" operator="out"/>
<feColorMatrix type="matrix" values="0 0 0 0 0.275 0 0 0 0 0.275 0 0 0 0 0.275 0 0 0 0.25 0"/>
<feBlend mode="normal" in2="BackgroundImageFix" result="effect1_dropShadow_821_1900"/>
<feBlend mode="normal" in="SourceGraphic" in2="effect1_dropShadow_821_1900" result="shape"/>
</filter>
<clipPath id="clip0_821_1900">
<rect width="343" height="230" rx="4" fill="white"/>
</clipPath>
</defs>
</svg>
