<svg width="20" height="20" viewBox="0 0 20 20" fill="none" xmlns="http://www.w3.org/2000/svg">
<circle cx="10" cy="10" r="10" fill="#FA3A45"/>
<path d="M13.2988 13.1094V14H7.71484V13.2207L10.5098 10.1094C10.8535 9.72656 11.1191 9.40234 11.3066 9.13672C11.498 8.86719 11.6309 8.62695 11.7051 8.41602C11.7832 8.20117 11.8223 7.98242 11.8223 7.75977C11.8223 7.47852 11.7637 7.22461 11.6465 6.99805C11.5332 6.76758 11.3652 6.58398 11.1426 6.44727C10.9199 6.31055 10.6504 6.24219 10.334 6.24219C9.95508 6.24219 9.63867 6.31641 9.38477 6.46484C9.13477 6.60938 8.94727 6.8125 8.82227 7.07422C8.69727 7.33594 8.63477 7.63672 8.63477 7.97656H7.55078C7.55078 7.49609 7.65625 7.05664 7.86719 6.6582C8.07812 6.25977 8.39062 5.94336 8.80469 5.70898C9.21875 5.4707 9.72852 5.35156 10.334 5.35156C10.873 5.35156 11.334 5.44727 11.7168 5.63867C12.0996 5.82617 12.3926 6.0918 12.5957 6.43555C12.8027 6.77539 12.9062 7.17383 12.9062 7.63086C12.9062 7.88086 12.8633 8.13477 12.7773 8.39258C12.6953 8.64648 12.5801 8.90039 12.4316 9.1543C12.2871 9.4082 12.1172 9.6582 11.9219 9.9043C11.7305 10.1504 11.5254 10.3926 11.3066 10.6309L9.02148 13.1094H13.2988Z" fill="white"/>
</svg>
