<svg width="343" height="230" viewBox="0 0 343 230" fill="none" xmlns="http://www.w3.org/2000/svg">
<g clip-path="url(#clip0_821_1930)">
<rect width="343" height="230" rx="4" fill="#E9E9E9"/>
<g filter="url(#filter0_d_821_1930)">
<rect x="33" y="-22" width="278" height="177" rx="4" fill="#FEFEFE"/>
</g>
<path d="M64.6997 1.41333V2.52271H59.0591V3.69458H63.106V6.85083H54.9497V8.00708H63.4966V9.13208H53.4966V5.81958H61.6372V4.77271H53.481V3.69458H57.5903V2.52271H51.9653V1.41333H64.6997ZM52.5903 -0.258545C55.27 -0.406982 57.1606 -1.22729 57.4653 -2.41479H53.231V-3.55542H57.5903V-4.78979H59.0591V-3.55542H63.4341V-2.41479H59.1763C59.4731 -1.22729 61.3638 -0.406982 64.0747 -0.258545L63.6216 0.866455C61.1841 0.686768 59.1997 -0.0241699 58.3247 -1.25073C57.4497 -0.0241699 55.4653 0.686768 53.0122 0.866455L52.5903 -0.258545ZM67.7778 -4.13354V-2.22729H71.4497V-4.13354H72.9185V1.97583H66.3247V-4.13354H67.7778ZM67.731 4.25708V3.08521H76.7778V6.61646H69.2153V7.94458H77.2622V9.13208H67.7622V5.52271H75.3091V4.25708H67.731ZM67.7778 0.78833H71.4497V-1.08667H67.7778V0.78833ZM75.2935 2.47583V-4.72729H76.7778V-1.78979H78.8091V-0.58667H76.7778V2.47583H75.2935Z" fill="#4E4E4E"/>
<path d="M64.7865 41.2979L69.2622 46.3324L73.7379 41.2979C77.1707 37.4365 74.4292 31.3324 69.2622 31.3324C64.0952 31.3324 61.3537 37.4365 64.7865 41.2979Z" fill="#D1D1D1"/>
<path d="M69.2622 39.5824C70.5049 39.5824 71.5122 38.575 71.5122 37.3324C71.5122 36.0898 70.5049 35.0824 69.2622 35.0824C68.0196 35.0824 67.0122 36.0898 67.0122 37.3324C67.0122 38.575 68.0196 39.5824 69.2622 39.5824Z" fill="white"/>
<path d="M93.312 31.7855V36.7347H95.2808V37.6371H93.312V43.9398H92.2456V31.7855H93.312ZM83.9878 40.7816C87.1255 39.223 88.8345 36.8783 89.0806 34.0004H84.5483V33.098H90.1675C90.1606 36.5365 88.5474 39.6742 84.5894 41.6293L83.9878 40.7816ZM100.093 34.0824C100.086 35.7572 101.351 37.3021 103.142 37.9242L102.595 38.7855C101.214 38.2797 100.141 37.2543 99.6011 35.9691C99.0884 37.4183 97.9878 38.5326 96.5522 39.0863L95.9644 38.225C97.8169 37.5756 99.0337 35.9281 99.0405 34.0414V32.5375H100.093V34.0824ZM97.9194 43.6801V39.9066H99.0132V42.7777H106.068V43.6801H97.9194ZM104.441 40.7679V31.7855H105.507V35.5179H107.339V36.434H105.507V40.7679H104.441ZM118.126 31.7855V43.9672H117.046V31.7855H118.126ZM108.898 40.9457V32.9476H114.681V33.85H109.978V40.016C112.343 40.016 113.895 39.9476 115.72 39.6195L115.83 40.5219C113.943 40.8568 112.343 40.9388 109.882 40.9457H108.898ZM124.552 35.5179C124.559 37.5824 126.056 39.681 127.847 40.4535L127.246 41.3011C125.824 40.6586 124.6 39.2572 124.033 37.5756C123.465 39.3597 122.235 40.9047 120.847 41.6019L120.205 40.7543C121.948 39.9203 123.465 37.6234 123.472 35.5179V33.932H120.601V33.0433H127.451V33.932H124.552V35.5179ZM129.146 43.9398V31.7855H130.226V43.9398H129.146ZM138.443 32.5375V33.4261H134V34.725H138.115V35.559H134V37.0082C136.242 37.0013 137.527 36.9535 139.099 36.6937L139.195 37.5687C137.547 37.8422 136.201 37.8695 133.822 37.8695H132.933V32.5375H138.443ZM134.492 39.7699V38.9086H142.367V41.725H135.585V42.9418H142.832V43.8031H134.519V40.9047H141.3V39.7699H134.492ZM138.962 35.4633V34.5883H141.3V31.7855H142.367V38.3617H141.3V35.4633H138.962ZM153.906 31.7855V35.4086H155.751V36.3109H153.906V40.5902H152.839V31.7855H153.906ZM144.978 38.4301V32.8383H150.392V33.7406H146.044V37.5277C148.485 37.5345 149.873 37.4594 151.5 37.1312L151.636 38.0199C149.927 38.348 148.478 38.4301 145.921 38.4301H144.978ZM146.304 43.6801V39.7015H147.357V42.7777H154.466V43.6801H146.304ZM160.851 35.5179C160.858 37.5824 162.355 39.681 164.146 40.4535L163.544 41.3011C162.123 40.6586 160.899 39.2572 160.332 37.5756C159.764 39.3597 158.534 40.9047 157.146 41.6019L156.503 40.7543C158.247 39.9203 159.764 37.6234 159.771 35.5179V33.932H156.9V33.0433H163.75V33.932H160.851V35.5179ZM165.445 43.9398V31.7855H166.525V43.9398H165.445Z" fill="#585858"/>
<rect x="53.7622" y="21.0015" width="236.475" height="34.6618" rx="3.5" stroke="#DADADA"/>
<path d="M65.7251 89.2593V90.4468H61.4907V93.8687H67.1938V95.0874H54.3813V93.8687H60.022V90.4468H55.9751V83.8843H65.6001V85.0874H57.4595V89.2593H65.7251ZM73.1157 85.8374C73.1157 87.4858 74.3813 89.0483 76.522 89.6499L75.8188 90.8374C74.2173 90.353 73.022 89.3296 72.4048 88.0327C71.7876 89.4546 70.5688 90.564 68.9282 91.0874L68.1938 89.9312C70.3345 89.2827 71.647 87.6265 71.647 85.8374V85.6343H68.6001V84.4468H71.647V82.7593H73.1313V84.4468H76.1626V85.6343H73.1157V85.8374ZM69.9595 93.2437V92.0405H79.2095V96.8218H77.7251V93.2437H69.9595ZM77.7251 91.3687V82.8062H79.2095V86.4468H81.2407V87.7124H79.2095V91.3687H77.7251Z" fill="#4E4E4E"/>
<rect x="55.3833" y="105.293" width="234.854" height="34.6618" rx="3.5" fill="white"/>
<path d="M66.4076 125.589L70.8833 130.624L75.359 125.589C78.7918 121.728 76.0503 115.624 70.8833 115.624C65.7163 115.624 62.9748 121.728 66.4076 125.589Z" fill="#D1D1D1"/>
<path d="M70.8833 123.874C72.1259 123.874 73.1333 122.866 73.1333 121.624C73.1333 120.381 72.1259 119.374 70.8833 119.374C69.6407 119.374 68.6333 120.381 68.6333 121.624C68.6333 122.866 69.6407 123.874 70.8833 123.874Z" fill="white"/>
<path d="M90.0054 119.344C89.9985 121.546 91.4136 123.76 93.1772 124.567L92.5347 125.442C91.1538 124.731 90.0122 123.282 89.4722 121.552C88.9321 123.371 87.7905 124.929 86.4097 125.661L85.7124 124.8C87.4966 123.925 88.9048 121.587 88.9116 119.344V117.13H90.0054V119.344ZM91.8511 121.108V120.233H94.7358V116.077H95.8022V128.259H94.7358V121.108H91.8511ZM103.363 116.227C106.063 116.227 107.649 116.979 107.656 118.333C107.649 119.7 106.063 120.445 103.363 120.452C100.649 120.445 99.0562 119.7 99.0562 118.333C99.0562 116.979 100.649 116.227 103.363 116.227ZM97.8257 122.12V121.259H108.9V122.12H103.882V123.268H107.478V125.989H100.259V127.247H107.847V128.094H99.1929V125.196H106.425V124.089H99.1655V123.268H102.816V122.12H97.8257ZM100.177 118.333C100.164 119.167 101.346 119.618 103.363 119.632C105.379 119.618 106.555 119.167 106.562 118.333C106.555 117.533 105.379 117.061 103.363 117.048C101.346 117.061 100.164 117.533 100.177 118.333ZM120.001 123.911V128.231H118.921V124.772H111.826V123.911H120.001ZM110.117 119.673C110.11 117.977 111.457 116.767 113.275 116.774C114.328 116.767 115.223 117.184 115.784 117.868H118.921V116.077H120.001V123.241H118.921V121.491H115.791C115.23 122.181 114.334 122.592 113.275 122.585C111.457 122.598 110.11 121.402 110.117 119.673ZM111.142 119.673C111.142 120.855 112.031 121.682 113.275 121.682C114.471 121.682 115.38 120.855 115.38 119.673C115.38 118.531 114.471 117.69 113.275 117.69C112.031 117.69 111.142 118.531 111.142 119.673ZM116.276 120.602H118.921V118.757H116.269C116.365 119.044 116.419 119.344 116.419 119.673C116.419 120.001 116.365 120.315 116.276 120.602Z" fill="#585858"/>
<rect x="55.3833" y="105.293" width="234.854" height="34.6618" rx="3.5" stroke="#DADADA"/>
<rect x="1" y="165" width="343" height="40" rx="4" fill="#FA3A45"/>
<path d="M171.328 177.766V191.891H169.656V184.656H168.156V191.203H166.516V178.016H168.156V183.219H169.656V177.766H171.328ZM159.578 188.25V179.297H165.125V188.25H159.578ZM161.203 186.875H163.5V180.672H161.203V186.875ZM181.344 179.344V180.719H178.328C178.336 182.289 179.57 183.82 181.828 184.422L181.016 185.766C179.367 185.336 178.172 184.367 177.508 183.125C176.875 184.508 175.672 185.602 173.984 186.094L173.141 184.75C175.383 184.094 176.586 182.422 176.594 180.719H173.578V179.344H176.594V177.781H178.344V179.344H181.344ZM175.125 189.234C175.125 187.562 176.961 186.586 179.953 186.594C182.93 186.586 184.766 187.562 184.766 189.234C184.766 190.906 182.93 191.875 179.953 191.875C176.961 191.875 175.125 190.906 175.125 189.234ZM176.875 189.234C176.875 190.078 177.961 190.531 179.953 190.531C181.938 190.531 183.055 190.078 183.062 189.234C183.055 188.398 181.938 187.938 179.953 187.938C177.961 187.938 176.875 188.398 176.875 189.234ZM182.984 186.344V177.781H184.734V186.344H182.984Z" fill="white"/>
<path d="M47.5 -0.5C47.5 1.23194 46.3112 2.5 45 2.5C43.6888 2.5 42.5 1.23194 42.5 -0.5C42.5 -2.23194 43.6888 -3.5 45 -3.5C46.3112 -3.5 47.5 -2.23194 47.5 -0.5Z" fill="white" stroke="#424242"/>
<circle cx="45" cy="87" r="3" fill="#FA3A45"/>
<line x1="45.5" y1="6" x2="45.5" y2="80" stroke="#C1C1C1" stroke-dasharray="1 1"/>
<path fill-rule="evenodd" clip-rule="evenodd" d="M4 0C1.79086 0 0 1.79087 0 4V169C0 166.791 1.79086 165 4 165H339C341.209 165 343 166.791 343 169V4C343 1.79086 341.209 0 339 0H4ZM343 201C343 203.209 341.209 205 339 205H4.00001C1.79087 205 0 203.209 0 201V226C0 228.209 1.79087 230 4.00001 230H339C341.209 230 343 228.209 343 226V201Z" fill="black" fill-opacity="0.4"/>
</g>
<defs>
<filter id="filter0_d_821_1930" x="22" y="-29" width="300" height="199" filterUnits="userSpaceOnUse" color-interpolation-filters="sRGB">
<feFlood flood-opacity="0" result="BackgroundImageFix"/>
<feColorMatrix in="SourceAlpha" type="matrix" values="0 0 0 0 0 0 0 0 0 0 0 0 0 0 0 0 0 0 127 0" result="hardAlpha"/>
<feMorphology radius="4" operator="dilate" in="SourceAlpha" result="effect1_dropShadow_821_1930"/>
<feOffset dy="4"/>
<feGaussianBlur stdDeviation="3.5"/>
<feComposite in2="hardAlpha" operator="out"/>
<feColorMatrix type="matrix" values="0 0 0 0 0.275 0 0 0 0 0.275 0 0 0 0 0.275 0 0 0 0.25 0"/>
<feBlend mode="normal" in2="BackgroundImageFix" result="effect1_dropShadow_821_1930"/>
<feBlend mode="normal" in="SourceGraphic" in2="effect1_dropShadow_821_1930" result="shape"/>
</filter>
<clipPath id="clip0_821_1930">
<rect width="343" height="230" rx="4" fill="white"/>
</clipPath>
</defs>
</svg>
