<svg width="20" height="20" viewBox="0 0 20 20" fill="none" xmlns="http://www.w3.org/2000/svg">
<circle cx="10" cy="10" r="10" fill="#FA3A45"/>
<path d="M9.29102 9.20117H10.0645C10.4434 9.20117 10.7559 9.13867 11.002 9.01367C11.252 8.88477 11.4375 8.71094 11.5586 8.49219C11.6836 8.26953 11.7461 8.01953 11.7461 7.74219C11.7461 7.41406 11.6914 7.13867 11.582 6.91602C11.4727 6.69336 11.3086 6.52539 11.0898 6.41211C10.8711 6.29883 10.5938 6.24219 10.2578 6.24219C9.95312 6.24219 9.68359 6.30273 9.44922 6.42383C9.21875 6.54102 9.03711 6.70898 8.9043 6.92773C8.77539 7.14648 8.71094 7.4043 8.71094 7.70117H7.62695C7.62695 7.26758 7.73633 6.87305 7.95508 6.51758C8.17383 6.16211 8.48047 5.87891 8.875 5.66797C9.27344 5.45703 9.73438 5.35156 10.2578 5.35156C10.7734 5.35156 11.2246 5.44336 11.6113 5.62695C11.998 5.80664 12.2988 6.07617 12.5137 6.43555C12.7285 6.79102 12.8359 7.23438 12.8359 7.76562C12.8359 7.98047 12.7852 8.21094 12.6836 8.45703C12.5859 8.69922 12.4316 8.92578 12.2207 9.13672C12.0137 9.34766 11.7441 9.52148 11.4121 9.6582C11.0801 9.79102 10.6816 9.85742 10.2168 9.85742H9.29102V9.20117ZM9.29102 10.0918V9.44141H10.2168C10.7598 9.44141 11.209 9.50586 11.5645 9.63477C11.9199 9.76367 12.1992 9.93555 12.4023 10.1504C12.6094 10.3652 12.7539 10.6016 12.8359 10.8594C12.9219 11.1133 12.9648 11.3672 12.9648 11.6211C12.9648 12.0195 12.8965 12.373 12.7598 12.6816C12.627 12.9902 12.4375 13.252 12.1914 13.4668C11.9492 13.6816 11.6641 13.8438 11.3359 13.9531C11.0078 14.0625 10.6504 14.1172 10.2637 14.1172C9.89258 14.1172 9.54297 14.0645 9.21484 13.959C8.89062 13.8535 8.60352 13.7012 8.35352 13.502C8.10352 13.2988 7.9082 13.0508 7.76758 12.7578C7.62695 12.4609 7.55664 12.123 7.55664 11.7441H8.64062C8.64062 12.041 8.70508 12.3008 8.83398 12.5234C8.9668 12.7461 9.1543 12.9199 9.39648 13.0449C9.64258 13.166 9.93164 13.2266 10.2637 13.2266C10.5957 13.2266 10.8809 13.1699 11.1191 13.0566C11.3613 12.9395 11.5469 12.7637 11.6758 12.5293C11.8086 12.2949 11.875 12 11.875 11.6445C11.875 11.2891 11.8008 10.998 11.6523 10.7715C11.5039 10.541 11.293 10.3711 11.0195 10.2617C10.75 10.1484 10.4316 10.0918 10.0645 10.0918H9.29102Z" fill="white"/>
</svg>
