<svg width="16" height="16" viewBox="0 0 16 16" fill="none" xmlns="http://www.w3.org/2000/svg">
<circle cx="8" cy="8" r="8" fill="#00A84D"/>
<path d="M10.4365 10.2578V11H5.7832V10.3506L8.1123 7.75781C8.39876 7.4388 8.62012 7.16862 8.77637 6.94727C8.93587 6.72266 9.04655 6.52246 9.1084 6.34668C9.1735 6.16764 9.20605 5.98535 9.20605 5.7998C9.20605 5.56543 9.15723 5.35384 9.05957 5.16504C8.96517 4.97298 8.8252 4.81999 8.63965 4.70605C8.4541 4.59212 8.22949 4.53516 7.96582 4.53516C7.65007 4.53516 7.38639 4.59701 7.1748 4.7207C6.96647 4.84115 6.81022 5.01042 6.70605 5.22852C6.60189 5.44661 6.5498 5.69727 6.5498 5.98047H5.64648C5.64648 5.58008 5.73438 5.21387 5.91016 4.88184C6.08594 4.5498 6.34635 4.28613 6.69141 4.09082C7.03646 3.89225 7.46126 3.79297 7.96582 3.79297C8.41504 3.79297 8.79915 3.87272 9.11816 4.03223C9.43717 4.18848 9.68132 4.40983 9.85059 4.69629C10.0231 4.97949 10.1094 5.31152 10.1094 5.69238C10.1094 5.90072 10.0736 6.1123 10.002 6.32715C9.93359 6.53874 9.83757 6.75033 9.71387 6.96191C9.59342 7.1735 9.45182 7.38184 9.28906 7.58691C9.12956 7.79199 8.95866 7.99382 8.77637 8.19238L6.87207 10.2578H10.4365Z" fill="white"/>
</svg>
