<svg width="16" height="16" viewBox="0 0 16 16" fill="none" xmlns="http://www.w3.org/2000/svg">
<circle cx="8" cy="8" r="8" fill="#EF7C1C"/>
<path d="M7.09668 7.00098H7.74121C8.05697 7.00098 8.31738 6.94889 8.52246 6.84473C8.73079 6.7373 8.88542 6.59245 8.98633 6.41016C9.09049 6.22461 9.14258 6.01628 9.14258 5.78516C9.14258 5.51172 9.09701 5.28223 9.00586 5.09668C8.91471 4.91113 8.77799 4.77116 8.5957 4.67676C8.41341 4.58236 8.18229 4.53516 7.90234 4.53516C7.64844 4.53516 7.42383 4.58561 7.22852 4.68652C7.03646 4.78418 6.88509 4.92415 6.77441 5.10645C6.66699 5.28874 6.61328 5.50358 6.61328 5.75098H5.70996C5.70996 5.38965 5.80111 5.06087 5.9834 4.76465C6.16569 4.46842 6.42122 4.23242 6.75 4.05664C7.08203 3.88086 7.46615 3.79297 7.90234 3.79297C8.33203 3.79297 8.70801 3.86947 9.03027 4.02246C9.35254 4.1722 9.60319 4.39681 9.78223 4.69629C9.96126 4.99251 10.0508 5.36198 10.0508 5.80469C10.0508 5.98372 10.0085 6.17578 9.92383 6.38086C9.84245 6.58268 9.71387 6.77148 9.53809 6.94727C9.36556 7.12305 9.14095 7.2679 8.86426 7.38184C8.58757 7.49251 8.25553 7.54785 7.86816 7.54785H7.09668V7.00098ZM7.09668 7.74316V7.20117H7.86816C8.32064 7.20117 8.69499 7.25488 8.99121 7.3623C9.28743 7.46973 9.52018 7.61296 9.68945 7.79199C9.86198 7.97103 9.98242 8.16797 10.0508 8.38281C10.1224 8.5944 10.1582 8.80599 10.1582 9.01758C10.1582 9.34961 10.1012 9.64421 9.9873 9.90137C9.87663 10.1585 9.71875 10.3766 9.51367 10.5557C9.31185 10.7347 9.07422 10.8698 8.80078 10.9609C8.52734 11.0521 8.22949 11.0977 7.90723 11.0977C7.59798 11.0977 7.30664 11.0537 7.0332 10.9658C6.76302 10.8779 6.52376 10.751 6.31543 10.585C6.1071 10.4157 5.94434 10.209 5.82715 9.96484C5.70996 9.71745 5.65137 9.43587 5.65137 9.12012H6.55469C6.55469 9.36751 6.6084 9.58398 6.71582 9.76953C6.8265 9.95508 6.98275 10.0999 7.18457 10.2041C7.38965 10.305 7.63053 10.3555 7.90723 10.3555C8.18392 10.3555 8.42155 10.3083 8.62012 10.2139C8.82194 10.1162 8.97656 9.96973 9.08398 9.77441C9.19466 9.5791 9.25 9.33333 9.25 9.03711C9.25 8.74089 9.18815 8.49837 9.06445 8.30957C8.94076 8.11751 8.76497 7.97591 8.53711 7.88477C8.3125 7.79036 8.0472 7.74316 7.74121 7.74316H7.09668Z" fill="white"/>
</svg>
