<svg width="16" height="16" viewBox="0 0 16 16" fill="none" xmlns="http://www.w3.org/2000/svg">
<circle cx="8" cy="8" r="8" fill="#996CAC"/>
<path d="M6.9209 7.61621L6.19824 7.43066L6.55469 3.89062H10.2021V4.72559H7.32129L7.10645 6.65918C7.23665 6.58431 7.40104 6.51432 7.59961 6.44922C7.80143 6.38411 8.03255 6.35156 8.29297 6.35156C8.62174 6.35156 8.91634 6.40853 9.17676 6.52246C9.43717 6.63314 9.65853 6.79264 9.84082 7.00098C10.0264 7.20931 10.168 7.45996 10.2656 7.75293C10.3633 8.0459 10.4121 8.37305 10.4121 8.73438C10.4121 9.07617 10.3649 9.3903 10.2705 9.67676C10.1794 9.96322 10.041 10.2139 9.85547 10.4287C9.66992 10.6403 9.43555 10.8047 9.15234 10.9219C8.8724 11.0391 8.54199 11.0977 8.16113 11.0977C7.87467 11.0977 7.60286 11.0586 7.3457 10.9805C7.0918 10.8991 6.86393 10.777 6.66211 10.6143C6.46354 10.4482 6.30078 10.2432 6.17383 9.99902C6.05013 9.75163 5.97201 9.46191 5.93945 9.12988H6.79883C6.83789 9.39681 6.91602 9.62142 7.0332 9.80371C7.15039 9.986 7.30339 10.1243 7.49219 10.2188C7.68424 10.3099 7.90723 10.3555 8.16113 10.3555C8.37598 10.3555 8.56641 10.318 8.73242 10.2432C8.89844 10.1683 9.03841 10.0609 9.15234 9.9209C9.26628 9.78092 9.35254 9.61165 9.41113 9.41309C9.47298 9.21452 9.50391 8.99154 9.50391 8.74414C9.50391 8.51953 9.47298 8.3112 9.41113 8.11914C9.34928 7.92708 9.25651 7.75944 9.13281 7.61621C9.01237 7.47298 8.86426 7.3623 8.68848 7.28418C8.5127 7.2028 8.31087 7.16211 8.08301 7.16211C7.78027 7.16211 7.55078 7.2028 7.39453 7.28418C7.24154 7.36556 7.08366 7.47624 6.9209 7.61621Z" fill="white"/>
</svg>
