<svg width="16" height="16" viewBox="0 0 16 16" fill="none" xmlns="http://www.w3.org/2000/svg">
<circle cx="8" cy="8" r="8" fill="#CD7C2F"/>
<path d="M9.24512 3.88086H9.32324V4.64746H9.24512C8.7666 4.64746 8.36621 4.72559 8.04395 4.88184C7.72168 5.03483 7.46615 5.24154 7.27734 5.50195C7.08854 5.75911 6.95182 6.04883 6.86719 6.37109C6.78581 6.69336 6.74512 7.02051 6.74512 7.35254V8.39746C6.74512 8.71322 6.78255 8.99316 6.85742 9.2373C6.93229 9.47819 7.03483 9.68164 7.16504 9.84766C7.29525 10.0137 7.44173 10.139 7.60449 10.2236C7.77051 10.3083 7.94303 10.3506 8.12207 10.3506C8.3304 10.3506 8.51595 10.3115 8.67871 10.2334C8.84147 10.152 8.97819 10.0397 9.08887 9.89648C9.2028 9.75 9.28906 9.57747 9.34766 9.37891C9.40625 9.18034 9.43555 8.96224 9.43555 8.72461C9.43555 8.51302 9.40951 8.30957 9.35742 8.11426C9.30534 7.91569 9.22559 7.73991 9.11816 7.58691C9.01074 7.43066 8.87565 7.30859 8.71289 7.2207C8.55339 7.12956 8.36296 7.08398 8.1416 7.08398C7.89095 7.08398 7.65658 7.14583 7.43848 7.26953C7.22363 7.38997 7.04622 7.54948 6.90625 7.74805C6.76953 7.94336 6.69141 8.15658 6.67188 8.3877L6.19336 8.38281C6.23893 8.01823 6.32357 7.70736 6.44727 7.4502C6.57422 7.18978 6.73047 6.97819 6.91602 6.81543C7.10482 6.64941 7.31478 6.52897 7.5459 6.4541C7.78027 6.37598 8.02767 6.33691 8.28809 6.33691C8.6429 6.33691 8.94889 6.40365 9.20605 6.53711C9.46322 6.67057 9.6748 6.84961 9.84082 7.07422C10.0068 7.29557 10.1289 7.54622 10.207 7.82617C10.2884 8.10286 10.3291 8.3877 10.3291 8.68066C10.3291 9.01595 10.2819 9.33008 10.1875 9.62305C10.0931 9.91602 9.9515 10.1732 9.7627 10.3945C9.57715 10.6159 9.34766 10.7884 9.07422 10.9121C8.80078 11.0358 8.4834 11.0977 8.12207 11.0977C7.73796 11.0977 7.40267 11.0195 7.11621 10.8633C6.82975 10.7038 6.59212 10.4922 6.40332 10.2285C6.21452 9.96484 6.07292 9.67188 5.97852 9.34961C5.88411 9.02734 5.83691 8.7002 5.83691 8.36816V7.94336C5.83691 7.44206 5.88737 6.95052 5.98828 6.46875C6.08919 5.98698 6.26335 5.55078 6.51074 5.16016C6.76139 4.76953 7.10807 4.45866 7.55078 4.22754C7.99349 3.99642 8.55827 3.88086 9.24512 3.88086Z" fill="white"/>
</svg>
