<svg width="16" height="16" viewBox="0 0 16 16" fill="none" xmlns="http://www.w3.org/2000/svg">
<circle cx="8" cy="8" r="8" fill="#E6186C"/>
<path d="M10.2607 9.07617C10.2607 9.50911 10.1598 9.87695 9.95801 10.1797C9.75944 10.4792 9.48926 10.707 9.14746 10.8633C8.80892 11.0195 8.42643 11.0977 8 11.0977C7.57357 11.0977 7.18945 11.0195 6.84766 10.8633C6.50586 10.707 6.23568 10.4792 6.03711 10.1797C5.83854 9.87695 5.73926 9.50911 5.73926 9.07617C5.73926 8.79297 5.79297 8.53418 5.90039 8.2998C6.01107 8.06217 6.16569 7.85547 6.36426 7.67969C6.56608 7.50391 6.80371 7.36882 7.07715 7.27441C7.35384 7.17676 7.6582 7.12793 7.99023 7.12793C8.42643 7.12793 8.81543 7.21257 9.15723 7.38184C9.49902 7.54785 9.76758 7.77734 9.96289 8.07031C10.1615 8.36328 10.2607 8.69857 10.2607 9.07617ZM9.35254 9.05664C9.35254 8.79297 9.29557 8.56022 9.18164 8.3584C9.06771 8.15332 8.9082 7.99382 8.70312 7.87988C8.49805 7.76595 8.26042 7.70898 7.99023 7.70898C7.71354 7.70898 7.47428 7.76595 7.27246 7.87988C7.07389 7.99382 6.91927 8.15332 6.80859 8.3584C6.69792 8.56022 6.64258 8.79297 6.64258 9.05664C6.64258 9.33008 6.69629 9.56445 6.80371 9.75977C6.91439 9.95182 7.07064 10.0999 7.27246 10.2041C7.47754 10.305 7.72005 10.3555 8 10.3555C8.27995 10.3555 8.52083 10.305 8.72266 10.2041C8.92448 10.0999 9.0791 9.95182 9.18652 9.75977C9.2972 9.56445 9.35254 9.33008 9.35254 9.05664ZM10.0947 5.74121C10.0947 6.08626 10.0036 6.39714 9.82129 6.67383C9.639 6.95052 9.38997 7.16862 9.07422 7.32812C8.75846 7.48763 8.40039 7.56738 8 7.56738C7.5931 7.56738 7.23014 7.48763 6.91113 7.32812C6.59538 7.16862 6.34798 6.95052 6.16895 6.67383C5.98991 6.39714 5.90039 6.08626 5.90039 5.74121C5.90039 5.3278 5.98991 4.97624 6.16895 4.68652C6.35124 4.39681 6.60026 4.17546 6.91602 4.02246C7.23177 3.86947 7.59147 3.79297 7.99512 3.79297C8.40202 3.79297 8.76335 3.86947 9.0791 4.02246C9.39486 4.17546 9.64225 4.39681 9.82129 4.68652C10.0036 4.97624 10.0947 5.3278 10.0947 5.74121ZM9.19141 5.75586C9.19141 5.51823 9.14095 5.30827 9.04004 5.12598C8.93913 4.94368 8.79915 4.80046 8.62012 4.69629C8.44108 4.58887 8.23275 4.53516 7.99512 4.53516C7.75749 4.53516 7.54915 4.58561 7.37012 4.68652C7.19434 4.78418 7.05599 4.92415 6.95508 5.10645C6.85742 5.28874 6.80859 5.50521 6.80859 5.75586C6.80859 6 6.85742 6.21322 6.95508 6.39551C7.05599 6.5778 7.19596 6.7194 7.375 6.82031C7.55404 6.92122 7.76237 6.97168 8 6.97168C8.23763 6.97168 8.44434 6.92122 8.62012 6.82031C8.79915 6.7194 8.93913 6.5778 9.04004 6.39551C9.14095 6.21322 9.19141 6 9.19141 5.75586Z" fill="white"/>
</svg>
