<svg width="16" height="16" viewBox="0 0 16 16" fill="none" xmlns="http://www.w3.org/2000/svg">
<circle cx="8" cy="8" r="8" fill="#BDB092"/>
<path d="M6.67676 10.2432H6.76953C7.29036 10.2432 7.71354 10.1699 8.03906 10.0234C8.36458 9.87695 8.61523 9.68001 8.79102 9.43262C8.9668 9.18522 9.08724 8.9069 9.15234 8.59766C9.21745 8.28516 9.25 7.96452 9.25 7.63574V6.54688C9.25 6.22461 9.21257 5.93815 9.1377 5.6875C9.06608 5.43685 8.96517 5.22689 8.83496 5.05762C8.70801 4.88835 8.56315 4.75977 8.40039 4.67188C8.23763 4.58398 8.0651 4.54004 7.88281 4.54004C7.67448 4.54004 7.4873 4.58236 7.32129 4.66699C7.15853 4.74837 7.02018 4.86393 6.90625 5.01367C6.79557 5.16341 6.71094 5.33919 6.65234 5.54102C6.59375 5.74284 6.56445 5.96257 6.56445 6.2002C6.56445 6.41178 6.59049 6.61686 6.64258 6.81543C6.69466 7.014 6.77441 7.19303 6.88184 7.35254C6.98926 7.51204 7.12272 7.639 7.28223 7.7334C7.44499 7.82454 7.63542 7.87012 7.85352 7.87012C8.05534 7.87012 8.24414 7.83105 8.41992 7.75293C8.59896 7.67155 8.75684 7.5625 8.89355 7.42578C9.03353 7.28581 9.14421 7.12793 9.22559 6.95215C9.31022 6.77637 9.35905 6.59245 9.37207 6.40039H9.80176C9.80176 6.67057 9.74805 6.9375 9.64062 7.20117C9.53646 7.46159 9.38997 7.69922 9.20117 7.91406C9.01237 8.12891 8.79102 8.30143 8.53711 8.43164C8.2832 8.55859 8.00651 8.62207 7.70703 8.62207C7.35547 8.62207 7.05111 8.55371 6.79395 8.41699C6.53678 8.28027 6.3252 8.09798 6.15918 7.87012C5.99642 7.64225 5.87435 7.38835 5.79297 7.1084C5.71484 6.8252 5.67578 6.53874 5.67578 6.24902C5.67578 5.91048 5.72298 5.5931 5.81738 5.29688C5.91178 5.00065 6.05176 4.74023 6.2373 4.51562C6.42285 4.28776 6.65234 4.11035 6.92578 3.9834C7.20247 3.85645 7.52148 3.79297 7.88281 3.79297C8.28971 3.79297 8.63639 3.87435 8.92285 4.03711C9.20931 4.19987 9.44206 4.41797 9.62109 4.69141C9.80339 4.96484 9.93685 5.27246 10.0215 5.61426C10.1061 5.95605 10.1484 6.30762 10.1484 6.66895V6.99609C10.1484 7.36393 10.124 7.73828 10.0752 8.11914C10.0296 8.49674 9.9401 8.85807 9.80664 9.20312C9.67643 9.54818 9.486 9.85742 9.23535 10.1309C8.9847 10.401 8.65755 10.6159 8.25391 10.7754C7.85352 10.9316 7.35872 11.0098 6.76953 11.0098H6.67676V10.2432Z" fill="white"/>
</svg>
