<svg width="30" height="30" viewBox="0 0 30 30" fill="none" xmlns="http://www.w3.org/2000/svg">
<path d="M13.7175 19.3267C14.9591 19.3267 16.1041 18.929 17.0409 18.2662L20.5651 21.757C20.7286 21.919 20.9442 22 21.1747 22C21.658 22 22 21.6318 22 21.1604C22 20.9395 21.9257 20.7259 21.7621 20.5713L18.2602 17.0952C18.9963 16.1378 19.4349 14.9521 19.4349 13.6633C19.4349 10.5481 16.8625 8 13.7175 8C10.5799 8 8 10.5408 8 13.6633C8 16.7785 10.5725 19.3267 13.7175 19.3267ZM13.7175 18.1042C11.2639 18.1042 9.2342 16.0936 9.2342 13.6633C9.2342 11.233 11.2639 9.22251 13.7175 9.22251C16.171 9.22251 18.2007 11.233 18.2007 13.6633C18.2007 16.0936 16.171 18.1042 13.7175 18.1042Z" fill="#3C3C43" fill-opacity="0.6"/>
</svg>
