<svg width="40" height="16" viewBox="0 0 40 16" fill="none" xmlns="http://www.w3.org/2000/svg">
<rect width="40" height="16" rx="8" fill="#003DA5"/>
<path d="M19.1797 4.67188V8.8125H18.4375V7.96094H16.6719V7.35156H18.4375V6.5H16.7461C16.293 7.625 15.2422 8.41797 13.7266 8.85156L13.4297 8.27344C15.0859 7.80078 16.0547 6.91016 16.1875 5.78125H13.7891V5.17188H16.9922C16.9922 5.42969 16.9648 5.67969 16.918 5.91406H18.4375V4.67188H19.1797ZM14.5156 10.2578C14.5156 9.41016 15.4375 8.89453 16.875 8.89062C18.293 8.89453 19.2227 9.41016 19.2266 10.2578C19.2227 11.1094 18.293 11.6328 16.875 11.6328C15.4375 11.6328 14.5156 11.1094 14.5156 10.2578ZM15.25 10.2578C15.25 10.75 15.875 11.0352 16.875 11.0391C17.8555 11.0352 18.4805 10.75 18.4844 10.2578C18.4805 9.75781 17.8555 9.47266 16.875 9.47656C15.875 9.47266 15.25 9.75781 15.25 10.2578ZM25.7578 4.66406V6.42969H26.7734V7.03125H25.7578V8.82031H25.0156V4.66406H25.7578ZM20.25 8.27344C21.8906 7.8125 22.8945 6.89844 23.0312 5.76562H20.5625V5.16406H23.8359C23.8359 6.97266 22.6055 8.28125 20.5547 8.875L20.25 8.27344ZM21.2031 10.2734C21.1953 9.42188 22.1172 8.89453 23.5234 8.89844C24.9336 8.89453 25.8359 9.42188 25.8359 10.2734C25.8359 11.1328 24.9336 11.6523 23.5234 11.6562C22.1172 11.6523 21.1953 11.1328 21.2031 10.2734ZM21.9375 10.2734C21.9336 10.7656 22.543 11.0664 23.5234 11.0703C24.4961 11.0664 25.1094 10.7656 25.1094 10.2734C25.1094 9.78125 24.4961 9.48047 23.5234 9.48438C22.543 9.48047 21.9336 9.78125 21.9375 10.2734Z" fill="white"/>
</svg>
