<svg width="40" height="16" viewBox="0 0 40 16" fill="none" xmlns="http://www.w3.org/2000/svg">
<rect width="40" height="16" rx="8" fill="#0C8E72"/>
<path d="M19.1797 4.67188V8.8125H18.4375V7.96094H16.6719V7.35156H18.4375V6.5H16.7461C16.293 7.625 15.2422 8.41797 13.7266 8.85156L13.4297 8.27344C15.0859 7.80078 16.0547 6.91016 16.1875 5.78125H13.7891V5.17188H16.9922C16.9922 5.42969 16.9648 5.67969 16.918 5.91406H18.4375V4.67188H19.1797ZM14.5156 10.2578C14.5156 9.41016 15.4375 8.89453 16.875 8.89062C18.293 8.89453 19.2227 9.41016 19.2266 10.2578C19.2227 11.1094 18.293 11.6328 16.875 11.6328C15.4375 11.6328 14.5156 11.1094 14.5156 10.2578ZM15.25 10.2578C15.25 10.75 15.875 11.0352 16.875 11.0391C17.8555 11.0352 18.4805 10.75 18.4844 10.2578C18.4805 9.75781 17.8555 9.47266 16.875 9.47656C15.875 9.47266 15.25 9.75781 15.25 10.2578ZM23.8125 4.66406V5.39844H26V5.97656H23.8555C23.9336 6.70703 24.8945 7.25391 26.2812 7.38281L26.0391 7.95312C24.8438 7.83203 23.875 7.40234 23.4453 6.71484C23.0117 7.40234 22.0469 7.83203 20.8516 7.95312L20.6094 7.38281C21.9922 7.25391 22.9492 6.70703 23.0312 5.97656H20.8984V5.39844H23.0781V4.66406H23.8125ZM20.25 8.92969V8.33594H26.6562V8.92969H23.875V10.2422H23.1406V8.92969H20.25ZM21.0469 11.5156V9.57812H21.7891V10.9141H25.9453V11.5156H21.0469Z" fill="white"/>
</svg>
