<svg width="40" height="16" viewBox="0 0 40 16" fill="none" xmlns="http://www.w3.org/2000/svg">
<rect width="40" height="16" rx="8" fill="#77C4A3"/>
<path d="M11.2109 4.67188V8.8125H10.4688V7.96094H8.70312V7.35156H10.4688V6.5H8.77734C8.32422 7.625 7.27344 8.41797 5.75781 8.85156L5.46094 8.27344C7.11719 7.80078 8.08594 6.91016 8.21875 5.78125H5.82031V5.17188H9.02344C9.02344 5.42969 8.99609 5.67969 8.94922 5.91406H10.4688V4.67188H11.2109ZM6.54688 10.2578C6.54688 9.41016 7.46875 8.89453 8.90625 8.89062C10.3242 8.89453 11.2539 9.41016 11.2578 10.2578C11.2539 11.1094 10.3242 11.6328 8.90625 11.6328C7.46875 11.6328 6.54688 11.1094 6.54688 10.2578ZM7.28125 10.2578C7.28125 10.75 7.90625 11.0352 8.90625 11.0391C9.88672 11.0352 10.5117 10.75 10.5156 10.2578C10.5117 9.75781 9.88672 9.47266 8.90625 9.47656C7.90625 9.47266 7.28125 9.75781 7.28125 10.2578ZM14.5703 5.16406C15.6758 5.16016 16.4727 5.84375 16.4766 6.82812C16.4727 7.8125 15.6758 8.49609 14.5703 8.5C13.4688 8.49609 12.6602 7.8125 12.6641 6.82812C12.6602 5.84375 13.4688 5.16016 14.5703 5.16406ZM12.3281 9.55469C13.6016 9.55469 15.3672 9.54297 16.8984 9.32031L16.9531 9.85938C15.3711 10.1641 13.6719 10.1719 12.4219 10.1719L12.3281 9.55469ZM13.3984 6.82812C13.3906 7.44922 13.8906 7.85156 14.5703 7.85156C15.25 7.85156 15.75 7.44922 15.75 6.82812C15.75 6.21484 15.25 5.80469 14.5703 5.80469C13.8906 5.80469 13.3906 6.21484 13.3984 6.82812ZM17.3359 11.6797V4.66406H18.0781V11.6797H17.3359ZM20 9.07812C19.6953 9.07422 19.4414 8.82812 19.4453 8.52344C19.4414 8.21875 19.6953 7.96875 20 7.96875C20.3008 7.96875 20.5508 8.21875 20.5547 8.52344C20.5508 8.82812 20.3008 9.07422 20 9.07812ZM27.6953 7.90625V8.50781H24.8672V9.17969C26.1484 9.25 26.9102 9.67969 26.9141 10.4141C26.9102 11.207 26.0039 11.6523 24.5 11.6484C22.9766 11.6523 22.0703 11.207 22.0703 10.4141C22.0703 9.67969 22.832 9.24609 24.1328 9.17969V8.50781H21.3125V7.90625H27.6953ZM21.6484 6.95312C22.9062 6.82422 23.8984 6.25391 24 5.57812H21.8984V4.98438H27.125V5.57812H25C25.1016 6.25781 26.0859 6.82422 27.3672 6.95312L27.1016 7.53906C25.8867 7.39844 24.8828 6.88672 24.5039 6.14453C24.1172 6.88672 23.1211 7.39844 21.9062 7.53906L21.6484 6.95312ZM22.8203 10.4141C22.8164 10.8398 23.4297 11.0859 24.5 11.0781C25.5547 11.0859 26.1719 10.8398 26.1719 10.4141C26.1719 9.98047 25.5547 9.74609 24.5 9.74219C23.4297 9.74609 22.8164 9.98047 22.8203 10.4141ZM30.1953 5.07031C31.2695 5.07031 32.0547 5.75 32.0625 6.73438C32.0547 7.71094 31.2695 8.39453 30.1953 8.39844C29.125 8.39453 28.3281 7.71094 28.3359 6.73438C28.3281 5.75 29.125 5.07031 30.1953 5.07031ZM29.0625 6.73438C29.0547 7.35547 29.5391 7.76562 30.1953 7.77344C30.8516 7.76562 31.332 7.35547 31.3359 6.73438C31.332 6.11719 30.8516 5.69141 30.1953 5.69531C29.5391 5.69141 29.0547 6.11719 29.0625 6.73438ZM29.1172 10.3203C29.1172 9.48047 30.0234 8.98828 31.4688 8.98438C32.8984 8.98828 33.7891 9.48047 33.7891 10.3203C33.7891 11.1562 32.8984 11.6523 31.4688 11.6484C30.0234 11.6523 29.1172 11.1562 29.1172 10.3203ZM29.8594 10.3203C29.8555 10.7969 30.457 11.0586 31.4688 11.0547C32.4727 11.0586 33.0664 10.7969 33.0625 10.3203C33.0664 9.85156 32.4727 9.58203 31.4688 9.58594C30.457 9.58203 29.8555 9.85156 29.8594 10.3203ZM32.9844 8.79688V4.66406H33.7266V6.36719H34.7422V6.97656H33.7266V8.79688H32.9844Z" fill="white"/>
</svg>
