<svg width="40" height="16" viewBox="0 0 40 16" fill="none" xmlns="http://www.w3.org/2000/svg">
<rect width="40" height="16" rx="8" fill="#0090D2"/>
<path d="M9.58594 9.0625C11.1016 9.0625 12.0586 9.54297 12.0625 10.3594C12.0586 11.1719 11.1016 11.6523 9.58594 11.6484C8.08594 11.6523 7.125 11.1719 7.125 10.3594C7.125 9.54297 8.08594 9.0625 9.58594 9.0625ZM6.4375 8.48438V7.88281H8.99219V6.57031H9.71875V7.88281H12.8047V8.48438H6.4375ZM7.17969 5.60156V5.00781H12.0078V5.59375C12.0117 6.15234 12.0117 6.73047 11.8125 7.45312L11.0859 7.375C11.2734 6.66016 11.2734 6.14453 11.2734 5.60156H7.17969ZM7.86719 10.3594C7.85938 10.8125 8.52734 11.0742 9.58594 11.0781C10.6562 11.0742 11.3203 10.8125 11.3281 10.3594C11.3203 9.89844 10.6562 9.62891 9.58594 9.625C8.52734 9.62891 7.85938 9.89844 7.86719 10.3594ZM18.8438 4.66406V6.5625H19.8594V7.1875H18.8438V9.15625H18.1016V4.66406H18.8438ZM13.3516 6V5.41406H15.0703V4.60938H15.8125V5.41406H17.5234V6H13.3516ZM13.7344 7.57031C13.7305 6.81641 14.418 6.32422 15.4375 6.32031C16.4453 6.32422 17.1328 6.81641 17.1328 7.57031C17.1328 8.32031 16.4453 8.80859 15.4375 8.80469C14.418 8.80859 13.7305 8.32031 13.7344 7.57031ZM14.2891 10.4375C14.2812 9.66406 15.1641 9.21094 16.6094 9.21094C18.0352 9.21094 18.9219 9.66406 18.9219 10.4375C18.9219 11.1992 18.0352 11.6523 16.6094 11.6484C15.1641 11.6523 14.2812 11.1992 14.2891 10.4375ZM14.4531 7.57031C14.4453 7.98438 14.8438 8.24219 15.4375 8.24219C16.0312 8.24219 16.4297 7.98438 16.4375 7.57031C16.4297 7.14453 16.0312 6.875 15.4375 6.875C14.8438 6.875 14.4453 7.14453 14.4531 7.57031ZM15.0234 10.4375C15.0195 10.8477 15.6016 11.0859 16.6094 11.0859C17.6016 11.0859 18.1836 10.8477 18.1875 10.4375C18.1836 10.0117 17.6016 9.78516 16.6094 9.78125C15.6016 9.78516 15.0195 10.0117 15.0234 10.4375ZM22.7109 6.03906C22.7109 6.76562 23.4141 7.42188 24.4844 7.65625L24.1484 8.22656C23.3164 8.03125 22.6797 7.58594 22.3594 6.99609C22.043 7.64453 21.4062 8.13672 20.5469 8.35938L20.2188 7.78125C21.2891 7.51172 21.9766 6.82031 21.9766 6.03906V5.92188H20.4531V5.32812H21.9766V4.63281H22.7188V5.32812H24.2344V5.92188H22.7109V6.03906ZM21.5078 9.21094V8.63281H26.0859V10.3594H22.2656V11.0156H26.3359V11.5938H21.5234V9.8125H25.3516V9.21094H21.5078ZM24.0312 6.96875V6.375H25.3516V4.66406H26.0859V8.32812H25.3516V6.96875H24.0312ZM32.8438 7.89062V8.48438H30.7266V10.1953H33.5781V10.8047H27.1719V10.1953H29.9922V8.48438H27.9688V5.20312H32.7812V5.80469H28.7109V7.89062H32.8438Z" fill="white"/>
</svg>
