<svg width="40" height="16" viewBox="0 0 40 16" fill="none" xmlns="http://www.w3.org/2000/svg">
<rect width="40" height="16" rx="8" fill="#A17800"/>
<path d="M10.1328 5.10156C10.1289 6.89453 8.86328 8.15625 6.78906 8.70312L6.49219 8.11719C8.17578 7.67969 9.19922 6.80078 9.33594 5.69531H6.88281V5.10156H10.1328ZM7.64844 11.5703V8.92188H12.2344V11.5703H7.64844ZM8.38281 10.9766H11.5078V9.51562H8.38281V10.9766ZM11.4922 8.60938V4.67188H12.2344V8.60938H11.4922ZM19.75 10.1953V10.8281H13.3438V10.1953H16.1562V8.70312H13.9062V8.11719H14.9531V5.91406H13.8906V5.3125H19.1641V5.91406H18.0938V8.11719H19.1406V8.70312H16.8906V10.1953H19.75ZM15.6875 8.11719H17.3672V5.91406H15.6875V8.11719ZM25.8438 4.94531V5.38281C25.8359 5.82422 25.8359 6.36719 25.7109 7.04688L24.9766 6.98438C25.0859 6.38281 25.1016 5.9375 25.1016 5.53906H21.0078V4.94531H25.8438ZM20.2656 7.99219V7.40625H22.8203V6.25H23.5469V7.40625H26.6328V7.99219H20.2656ZM21.0078 9.17188V8.57031H25.8594V10.3047H21.7578V11H26.0391V11.5938H21.0156V9.78906H25.125V9.17188H21.0078ZM32.8438 7.98438V8.59375H27.9688V5.28906H32.7812V5.89844H28.7031V7.98438H32.8438ZM27.1719 10.7422V10.125H33.5781V10.7422H27.1719Z" fill="white"/>
</svg>
