<svg width="40" height="16" viewBox="0 0 40 16" fill="none" xmlns="http://www.w3.org/2000/svg">
<rect width="40" height="16" rx="8" fill="#81A914"/>
<path d="M15.8672 6.44531C15.8672 7.72656 16.5859 9.00391 17.6562 9.48438L17.2031 10.0781C16.4102 9.67969 15.8086 8.89062 15.5 7.93359C15.1914 8.94141 14.582 9.79297 13.7734 10.2109L13.3047 9.60938C14.3906 9.08984 15.1133 7.74219 15.1172 6.44531V5.25H15.8672V6.44531ZM16.8828 7.59375V6.99219H18.4453V4.66406H19.1797V11.6797H18.4453V7.59375H16.8828ZM23.7188 5.82031V6.42188H20.2422V5.82031H21.6172V4.86719H22.3516V5.82031H23.7188ZM20.4688 8.45312C20.4648 7.51172 21.1055 6.84375 21.9844 6.84375C22.8711 6.84375 23.5039 7.51172 23.5078 8.45312C23.5039 9.41016 22.8711 10.082 21.9844 10.0781C21.1055 10.082 20.4648 9.41016 20.4688 8.45312ZM21.125 8.45312C21.1211 9.04688 21.4805 9.44531 21.9844 9.44531C22.4883 9.44531 22.8516 9.04688 22.8516 8.45312C22.8516 7.87109 22.4883 7.46484 21.9844 7.46094C21.4805 7.46484 21.1211 7.87109 21.125 8.45312ZM24.0391 11.3359V4.82031H24.7422V7.57812H25.5469V4.66406H26.25V11.6641H25.5469V8.1875H24.7422V11.3359H24.0391Z" fill="white"/>
</svg>
