<svg width="40" height="16" viewBox="0 0 40 16" fill="none" xmlns="http://www.w3.org/2000/svg">
<rect width="40" height="16" rx="8" fill="#F5A200"/>
<path d="M8.96094 5.28125C8.95703 6.21094 10.0938 7.08203 11.4688 7.26562L11.1797 7.875C10.0352 7.69141 9.03125 7.09766 8.57422 6.27344C8.11719 7.09766 7.11328 7.69141 5.97656 7.875L5.67969 7.26562C7.05078 7.08203 8.18359 6.22266 8.1875 5.28125V4.89844H8.96094V5.28125ZM5.375 9.17188V8.5625H11.7578V9.17188H8.91406V11.6641H8.1875V9.17188H5.375ZM18.0938 4.67188V9.75781H17.3516V4.67188H18.0938ZM12.4297 6.875C12.4336 5.86328 13.2383 5.14453 14.2969 5.14062C15.3516 5.14453 16.1562 5.86328 16.1562 6.875C16.1562 7.90234 15.3516 8.61719 14.2969 8.61719C13.2383 8.61719 12.4336 7.90234 12.4297 6.875ZM13.1562 6.875C13.1523 7.53516 13.6445 7.96875 14.2969 7.96875C14.9375 7.96875 15.4297 7.53516 15.4297 6.875C15.4297 6.23047 14.9375 5.78906 14.2969 5.78906C13.6445 5.78906 13.1523 6.23047 13.1562 6.875ZM13.5156 11.5156V9.24219H14.2656V10.9141H18.3047V11.5156H13.5156ZM20 9.07812C19.6953 9.07422 19.4414 8.82812 19.4453 8.52344C19.4414 8.21875 19.6953 7.96875 20 7.96875C20.3008 7.96875 20.5508 8.21875 20.5547 8.52344C20.5508 8.82812 20.3008 9.07422 20 9.07812ZM27.7109 8.32812V8.92188H24.9297V10.2109H24.1953V8.92188H21.3047V8.32812H27.7109ZM22.1016 11.5156V9.60156H22.8359V10.9141H27V11.5156H22.1016ZM22.1484 7.71094V4.88281H22.8828V5.73438H26.125V4.88281H26.8672V7.71094H22.1484ZM22.8828 7.11719H26.125V6.28906H22.8828V7.11719ZM33.7344 4.66406V6.4375H34.7422V7.04688H33.7344V8.79688H32.9844V4.66406H33.7344ZM28.5234 8.28906V5.17969H31.6484V5.78125H29.2578V7.6875C30.6367 7.67969 31.4141 7.64062 32.2969 7.46094L32.3672 8.0625C31.4297 8.25391 30.5938 8.28906 29.0781 8.28906H28.5234ZM29.1172 10.2891C29.1172 9.43359 30.0234 8.93359 31.4688 8.92969C32.8984 8.93359 33.7891 9.43359 33.7891 10.2891C33.7891 11.1523 32.8984 11.6523 31.4688 11.6484C30.0234 11.6523 29.1172 11.1523 29.1172 10.2891ZM29.8516 10.2891C29.8477 10.7734 30.457 11.0586 31.4688 11.0547C32.4609 11.0586 33.0742 10.7734 33.0781 10.2891C33.0742 9.80469 32.4609 9.52734 31.4688 9.53125C30.457 9.52734 29.8477 9.80469 29.8516 10.2891Z" fill="white"/>
</svg>
