<svg width="40" height="16" viewBox="0 0 40 16" fill="none" xmlns="http://www.w3.org/2000/svg">
<rect width="40" height="16" rx="8" fill="#D4003B"/>
<path d="M15.6914 4.67188V9.79688H14.9492V4.67188H15.6914ZM9.92578 8.21875C11.0234 7.8125 11.6719 6.80469 11.6758 5.75V5.05469H12.4336V5.75C12.4297 6.77344 13.0781 7.71094 14.1602 8.08594L13.7773 8.67969C12.9688 8.37891 12.3711 7.78516 12.0586 7.02734C11.75 7.83984 11.1445 8.48828 10.3242 8.80469L9.92578 8.21875ZM11.1133 11.5156V9.3125H11.8633V10.9141H15.9023V11.5156H11.1133ZM23.1992 8.32812V8.92188H20.418V10.2109H19.6836V8.92188H16.793V8.32812H23.1992ZM17.5898 11.5156V9.60156H18.3242V10.9141H22.4883V11.5156H17.5898ZM17.6367 7.71094V4.88281H18.3711V5.73438H21.6133V4.88281H22.3555V7.71094H17.6367ZM18.3711 7.11719H21.6133V6.28906H18.3711V7.11719ZM29.2227 4.66406V6.4375H30.2305V7.04688H29.2227V8.79688H28.4727V4.66406H29.2227ZM24.0117 8.28906V5.17969H27.1367V5.78125H24.7461V7.6875C26.125 7.67969 26.9023 7.64062 27.7852 7.46094L27.8555 8.0625C26.918 8.25391 26.082 8.28906 24.5664 8.28906H24.0117ZM24.6055 10.2891C24.6055 9.43359 25.5117 8.93359 26.957 8.92969C28.3867 8.93359 29.2773 9.43359 29.2773 10.2891C29.2773 11.1523 28.3867 11.6523 26.957 11.6484C25.5117 11.6523 24.6055 11.1523 24.6055 10.2891ZM25.3398 10.2891C25.3359 10.7734 25.9453 11.0586 26.957 11.0547C27.9492 11.0586 28.5625 10.7734 28.5664 10.2891C28.5625 9.80469 27.9492 9.52734 26.957 9.53125C25.9453 9.52734 25.3359 9.80469 25.3398 10.2891Z" fill="white"/>
</svg>
