<svg width="40" height="16" viewBox="0 0 40 16" fill="none" xmlns="http://www.w3.org/2000/svg">
<rect width="40" height="16" rx="8" fill="#6789CA"/>
<path d="M19.1484 4.67188V9.79688H18.4062V4.67188H19.1484ZM13.3828 8.21875C14.4805 7.8125 15.1289 6.80469 15.1328 5.75V5.05469H15.8906V5.75C15.8867 6.77344 16.5352 7.71094 17.6172 8.08594L17.2344 8.67969C16.4258 8.37891 15.8281 7.78516 15.5156 7.02734C15.207 7.83984 14.6016 8.48828 13.7812 8.80469L13.3828 8.21875ZM14.5703 11.5156V9.3125H15.3203V10.9141H19.3594V11.5156H14.5703ZM26.0625 4.67188V8.82031H25.3203V4.67188H26.0625ZM20.6094 5.67969V5.08594H23.8281V7.05469H21.3516V7.89844C22.5781 7.89844 23.4727 7.86328 24.5391 7.6875L24.6328 8.29688C23.4883 8.47266 22.5352 8.51172 21.2109 8.50781H20.625V6.47656H23.0938V5.67969H20.6094ZM21.4609 11.5781V9.17188H26.0625V11.5781H21.4609ZM22.1953 10.9766H25.3359V9.76562H22.1953V10.9766Z" fill="white"/>
</svg>
