<svg width="46" height="16" viewBox="0 0 46 16" fill="none" xmlns="http://www.w3.org/2000/svg">
<rect width="46" height="16" rx="8" fill="#509F22"/>
<path d="M16.3965 4.45605V10.5811H15.7744V4.45605H16.3965ZM11.1943 7.10156C11.1943 5.77539 11.7139 4.94482 12.5137 4.94824C13.2588 4.94482 13.7612 5.65234 13.8364 6.80078H14.5303V4.57227H15.1523V10.2803H14.5303V7.32715H13.8398C13.7817 8.52344 13.2725 9.26514 12.5137 9.26172C11.7139 9.26514 11.1943 8.43115 11.1943 7.10156ZM11.7959 7.10156C11.7959 8.07568 12.0728 8.6499 12.5137 8.64648C12.9648 8.6499 13.2451 8.07568 13.2451 7.10156C13.2451 6.12402 12.9648 5.55322 12.5137 5.55664C12.0728 5.55322 11.7959 6.12402 11.7959 7.10156ZM22.2822 4.45605V10.5947H21.6396V7.22461H20.2861V9.07715H17.415V4.92773H18.0713V6.49316H19.6504V4.92773H20.2861V6.69141H21.6396V4.45605H22.2822ZM18.0713 8.54395H19.6504V7.00586H18.0713V8.54395ZM27.9971 4.45605V6.84863H28.9814V7.39551H27.9971V10.5947H27.3545V4.45605H27.9971ZM23.4648 5.53613V5.00977H26.2676V7.25879H24.1211V8.58496C25.1704 8.58154 25.9531 8.54395 26.8486 8.37988L26.9102 8.90625C25.9531 9.08398 25.126 9.125 23.9775 9.13184H23.4785V6.73242H25.625V5.53613H23.4648ZM34.3545 4.46289V8.91309H33.7051V4.46289H34.3545ZM29.3984 6.39062C29.4019 5.50537 30.106 4.87646 31.0322 4.87305C31.9551 4.87646 32.6592 5.50537 32.6592 6.39062C32.6592 7.28955 31.9551 7.91504 31.0322 7.91504C30.106 7.91504 29.4019 7.28955 29.3984 6.39062ZM30.0342 6.39062C30.0308 6.96826 30.4614 7.34766 31.0322 7.34766C31.5928 7.34766 32.0234 6.96826 32.0234 6.39062C32.0234 5.82666 31.5928 5.44043 31.0322 5.44043C30.4614 5.44043 30.0308 5.82666 30.0342 6.39062ZM30.3486 10.4512V8.46191H31.0049V9.9248H34.5391V10.4512H30.3486Z" fill="white"/>
</svg>
