<svg width="40" height="16" viewBox="0 0 40 16" fill="none" xmlns="http://www.w3.org/2000/svg">
<rect width="40" height="16" rx="8" fill="#B0CE18"/>
<path d="M12.8281 8.64062V9.25781H9.96875V11.6641H9.24219V9.25781H6.42188V8.64062H12.8281ZM7.11719 6.48438C7.12109 5.53125 8.12891 4.92969 9.60938 4.92969C11.0898 4.92969 12.1055 5.53125 12.1016 6.48438C12.1055 7.42578 11.0898 8.02344 9.60938 8.02344C8.12891 8.02344 7.12109 7.42578 7.11719 6.48438ZM7.88281 6.48438C7.87891 7.06641 8.57031 7.42969 9.60938 7.42969C10.6523 7.42969 11.3398 7.06641 11.3438 6.48438C11.3398 5.89453 10.6523 5.52734 9.60938 5.52344C8.57031 5.52734 7.87891 5.89453 7.88281 6.48438ZM19.1406 4.66406V11.6797H18.3984V4.66406H19.1406ZM13.5859 7.64062C13.5859 6.14453 14.3398 5.19141 15.3984 5.1875C16.4375 5.19141 17.2031 6.14453 17.2031 7.64062C17.2031 9.15234 16.4375 10.1055 15.3984 10.1016C14.3398 10.1055 13.5859 9.15234 13.5859 7.64062ZM14.3047 7.64062C14.3008 8.75391 14.7461 9.4375 15.3984 9.4375C16.0391 9.4375 16.4844 8.75391 16.4844 7.64062C16.4844 6.54297 16.0391 5.85547 15.3984 5.85156C14.7461 5.85547 14.3008 6.54297 14.3047 7.64062ZM26.0625 4.67188V9.79688H25.3203V4.67188H26.0625ZM20.2969 8.21875C21.3945 7.8125 22.043 6.80469 22.0469 5.75V5.05469H22.8047V5.75C22.8008 6.77344 23.4492 7.71094 24.5312 8.08594L24.1484 8.67969C23.3398 8.37891 22.7422 7.78516 22.4297 7.02734C22.1211 7.83984 21.5156 8.48828 20.6953 8.80469L20.2969 8.21875ZM21.4844 11.5156V9.3125H22.2344V10.9141H26.2734V11.5156H21.4844ZM33.0078 4.66406V8.26562H32.2656V6.46875H30.7891V5.86719H32.2656V4.66406H33.0078ZM27.1484 7.70312C28.2422 7.35547 28.8945 6.48438 28.8984 5.5V4.89062H29.6328V5.5C29.6328 6.39062 30.2734 7.21875 31.3281 7.55469L30.9375 8.13281C30.168 7.86719 29.5859 7.33984 29.2773 6.67188C28.9727 7.42578 28.375 8.01172 27.5469 8.29688L27.1484 7.70312ZM28.4297 9.17969V8.59375H33.0078V10.3359H29.1719V10.9844H33.25V11.5781H28.4453V9.77344H32.2734V9.17969H28.4297Z" fill="white"/>
</svg>
