<svg width="46" height="16" viewBox="0 0 46 16" fill="none" xmlns="http://www.w3.org/2000/svg">
<rect width="46" height="16" rx="8" fill="#FDA600"/>
<path d="M6.21777 4.89355C7.18506 4.89014 7.88232 5.48828 7.88574 6.34961C7.88232 7.21094 7.18506 7.80908 6.21777 7.8125C5.25391 7.80908 4.54639 7.21094 4.5498 6.34961C4.54639 5.48828 5.25391 4.89014 6.21777 4.89355ZM4.25586 8.73535C5.37012 8.73535 6.91504 8.7251 8.25488 8.53027L8.30273 9.00195C6.91846 9.26855 5.43164 9.27539 4.33789 9.27539L4.25586 8.73535ZM5.19238 6.34961C5.18555 6.89307 5.62305 7.24512 6.21777 7.24512C6.8125 7.24512 7.25 6.89307 7.25 6.34961C7.25 5.81299 6.8125 5.4541 6.21777 5.4541C5.62305 5.4541 5.18555 5.81299 5.19238 6.34961ZM8.6377 10.5947V4.45605H9.28711V10.5947H8.6377ZM15.3779 4.45605V8.09961H14.7285V6.54785H13.5869V6.01465H14.7285V4.45605H15.3779ZM10.2715 7.5459C11.2217 7.21436 11.8062 6.38721 11.8027 5.54297V5.40625H10.4766V4.87988H13.7783V5.40625H12.4658V5.53613C12.4624 6.31201 13.0161 7.06738 13.9424 7.38184L13.6074 7.89453C12.9204 7.65869 12.4146 7.1665 12.1479 6.56152C11.8813 7.24512 11.3447 7.79541 10.6133 8.06543L10.2715 7.5459ZM11.2559 9.42578C11.2524 8.69775 12.0386 8.27393 13.3271 8.27051C14.6089 8.27393 15.395 8.69775 15.3984 9.42578C15.395 10.1538 14.6089 10.5776 13.3271 10.5811C12.0386 10.5776 11.2524 10.1538 11.2559 9.42578ZM11.8984 9.42578C11.895 9.83936 12.4282 10.0752 13.3271 10.0684C14.2192 10.0752 14.7524 9.83936 14.7559 9.42578C14.7524 9.00879 14.2192 8.77295 13.3271 8.77637C12.4282 8.77295 11.895 9.00879 11.8984 9.42578ZM21.9199 8.05859V8.57129H19.418V10.5811H18.7822V8.57129H16.3145V8.05859H21.9199ZM17.0117 7.36133V4.70215H17.6543V5.50195H20.5664V4.70215H21.2158V7.36133H17.0117ZM17.6543 6.8418H20.5664V6.02148H17.6543V6.8418ZM29.1865 4.46289V8.08594H28.5371V7.34082H26.9922V6.80762H28.5371V6.0625H27.0571C26.6606 7.04688 25.7412 7.74072 24.415 8.12012L24.1553 7.61426C25.6045 7.20068 26.4521 6.42139 26.5684 5.43359H24.4697V4.90039H27.2725C27.2725 5.12598 27.2485 5.34473 27.2075 5.5498H28.5371V4.46289H29.1865ZM25.1055 9.35059C25.1055 8.60889 25.9121 8.15771 27.1699 8.1543C28.4106 8.15771 29.2241 8.60889 29.2275 9.35059C29.2241 10.0957 28.4106 10.5537 27.1699 10.5537C25.9121 10.5537 25.1055 10.0957 25.1055 9.35059ZM25.748 9.35059C25.748 9.78125 26.2949 10.0308 27.1699 10.0342C28.0278 10.0308 28.5747 9.78125 28.5781 9.35059C28.5747 8.91309 28.0278 8.66357 27.1699 8.66699C26.2949 8.66357 25.748 8.91309 25.748 9.35059ZM35.2363 4.46289V8.94727H34.5869V6.64355H33.418V6.11719H34.5869V4.46289H35.2363ZM30.1367 7.66895C31.0767 7.35107 31.6646 6.54443 31.6611 5.7002V5.46094H30.335V4.92773H33.6367V5.46094H32.3242V5.7002C32.3208 6.4624 32.8745 7.23145 33.8008 7.53906L33.4658 8.05859C32.7788 7.81934 32.2695 7.32715 32.0029 6.71875C31.7363 7.39551 31.1997 7.93555 30.4717 8.19531L30.1367 7.66895ZM31.2578 10.4512V8.54395H31.9072V9.9248H35.4004V10.4512H31.2578ZM38.3262 5.65918C38.3262 6.29492 38.9414 6.86914 39.8779 7.07422L39.584 7.57324C38.856 7.40234 38.2988 7.0127 38.0186 6.49658C37.7417 7.06396 37.1846 7.49463 36.4326 7.68945L36.1455 7.18359C37.082 6.94775 37.6836 6.34277 37.6836 5.65918V5.55664H36.3506V5.03711H37.6836V4.42871H38.333V5.03711H39.6592V5.55664H38.3262V5.65918ZM37.2734 8.43457V7.92871H41.2793V9.43945H37.9365V10.0137H41.498V10.5195H37.2871V8.96094H40.6367V8.43457H37.2734ZM39.4814 6.47266V5.95312H40.6367V4.45605H41.2793V7.66211H40.6367V6.47266H39.4814Z" fill="white"/>
</svg>
