<svg width="40" height="16" viewBox="0 0 40 16" fill="none" xmlns="http://www.w3.org/2000/svg">
<rect width="40" height="16" rx="8" fill="#ED8B00"/>
<path d="M12.3359 4.67188V9.75781H11.5938V4.67188H12.3359ZM6.67188 6.875C6.67578 5.86328 7.48047 5.14453 8.53906 5.14062C9.59375 5.14453 10.3984 5.86328 10.3984 6.875C10.3984 7.90234 9.59375 8.61719 8.53906 8.61719C7.48047 8.61719 6.67578 7.90234 6.67188 6.875ZM7.39844 6.875C7.39453 7.53516 7.88672 7.96875 8.53906 7.96875C9.17969 7.96875 9.67188 7.53516 9.67188 6.875C9.67188 6.23047 9.17969 5.78906 8.53906 5.78906C7.88672 5.78906 7.39453 6.23047 7.39844 6.875ZM7.75781 11.5156V9.24219H8.50781V10.9141H12.5469V11.5156H7.75781ZM15.8984 6.32812C15.8984 7.21094 16.5586 8.02344 17.6328 8.35938L17.2734 8.94531C16.4688 8.69141 15.8633 8.16016 15.543 7.47656C15.2383 8.20703 14.6328 8.78125 13.8047 9.05469L13.4453 8.47656C14.5156 8.13281 15.1641 7.26953 15.1641 6.32812V6.16406H13.6406V5.5625H15.1641V4.71094H15.9062V5.5625H17.4219V6.16406H15.8984V6.32812ZM14.7344 11.5156V9.42188H15.4766V10.9141H19.4688V11.5156H14.7344ZM17.1797 7.39062V6.78906H18.5391V4.67188H19.2812V9.88281H18.5391V7.39062H17.1797ZM22.5547 11V10.375L24.5156 8.39844C25.1367 7.75391 25.4453 7.39453 25.4453 6.89844C25.4453 6.33984 24.9922 5.98438 24.3984 5.98438C23.7695 5.98438 23.3711 6.38281 23.3672 6.98438H22.5547C22.5469 5.94922 23.3359 5.26562 24.4141 5.26562C25.5039 5.26562 26.2578 5.95703 26.2656 6.875C26.2578 7.50781 25.9609 8.01172 24.8984 9.05469L23.75 10.2188V10.2656H26.3594V11H22.5547ZM33.1328 5.64844V6.25H27.375V5.64844H29.8906V4.76562H30.625V5.64844H33.1328ZM27.0703 10.875V10.2734H29.8906V9.34766C28.6641 9.26953 27.918 8.78516 27.9219 8.00781C27.918 7.16406 28.8125 6.66797 30.2578 6.67188C31.6836 6.66797 32.5898 7.16406 32.5859 8.00781C32.5898 8.78516 31.8359 9.26953 30.625 9.34766V10.2734H33.4766V10.875H27.0703ZM28.6797 8.00781C28.6719 8.49609 29.2578 8.76172 30.2578 8.76562C31.2422 8.76172 31.832 8.49609 31.8281 8.00781C31.832 7.52344 31.2422 7.25781 30.2578 7.25781C29.2578 7.25781 28.6719 7.52344 28.6797 8.00781Z" fill="white"/>
</svg>
