<svg width="40" height="16" viewBox="0 0 40 16" fill="none" xmlns="http://www.w3.org/2000/svg">
<rect width="40" height="16" rx="8" fill="#7CA8D5"/>
<path d="M12.9219 4.67188V9.75781H12.1797V4.67188H12.9219ZM7.25781 6.875C7.26172 5.86328 8.06641 5.14453 9.125 5.14062C10.1797 5.14453 10.9844 5.86328 10.9844 6.875C10.9844 7.90234 10.1797 8.61719 9.125 8.61719C8.06641 8.61719 7.26172 7.90234 7.25781 6.875ZM7.98438 6.875C7.98047 7.53516 8.47266 7.96875 9.125 7.96875C9.76562 7.96875 10.2578 7.53516 10.2578 6.875C10.2578 6.23047 9.76562 5.78906 9.125 5.78906C8.47266 5.78906 7.98047 6.23047 7.98438 6.875ZM8.34375 11.5156V9.24219H9.09375V10.9141H13.1328V11.5156H8.34375ZM16.4844 6.32812C16.4844 7.21094 17.1445 8.02344 18.2188 8.35938L17.8594 8.94531C17.0547 8.69141 16.4492 8.16016 16.1289 7.47656C15.8242 8.20703 15.2188 8.78125 14.3906 9.05469L14.0312 8.47656C15.1016 8.13281 15.75 7.26953 15.75 6.32812V6.16406H14.2266V5.5625H15.75V4.71094H16.4922V5.5625H18.0078V6.16406H16.4844V6.32812ZM15.3203 11.5156V9.42188H16.0625V10.9141H20.0547V11.5156H15.3203ZM17.7656 7.39062V6.78906H19.125V4.67188H19.8672V9.88281H19.125V7.39062H17.7656ZM25.2891 5.34375V11H24.4219V6.20312H24.3906L23.0391 7.08594V6.26562L24.4453 5.34375H25.2891ZM32.5469 5.64844V6.25H26.7891V5.64844H29.3047V4.76562H30.0391V5.64844H32.5469ZM26.4844 10.875V10.2734H29.3047V9.34766C28.0781 9.26953 27.332 8.78516 27.3359 8.00781C27.332 7.16406 28.2266 6.66797 29.6719 6.67188C31.0977 6.66797 32.0039 7.16406 32 8.00781C32.0039 8.78516 31.25 9.26953 30.0391 9.34766V10.2734H32.8906V10.875H26.4844ZM28.0938 8.00781C28.0859 8.49609 28.6719 8.76172 29.6719 8.76562C30.6562 8.76172 31.2461 8.49609 31.2422 8.00781C31.2461 7.52344 30.6562 7.25781 29.6719 7.25781C28.6719 7.25781 28.0859 7.52344 28.0938 8.00781Z" fill="white"/>
</svg>
