<svg width="40" height="16" viewBox="0 0 40 16" fill="none" xmlns="http://www.w3.org/2000/svg">
<rect width="40" height="16" rx="8" fill="#FFCD12"/>
<path d="M8.86719 6.72656C8.86328 7.83203 9.59375 9.06641 10.6562 9.57031L10.2344 10.1484C9.44922 9.77344 8.82422 8.98438 8.50781 8.07031C8.1875 9.06641 7.53125 9.92969 6.73438 10.3281L6.29688 9.74219C7.35938 9.23047 8.12891 7.91016 8.13281 6.72656V5.98438H6.55469V5.36719H10.3906V5.98438H8.86719V6.72656ZM11.1406 11.6641V4.66406H11.8828V7.4375H13.0078V8.0625H11.8828V11.6641H11.1406ZM19.1641 4.66406V11.6641H18.4141V4.66406H19.1641ZM13.4141 9.78906C15.2734 8.90234 16.1836 7.64062 16.3281 6.00781H13.75V5.41406H17.0781C17.0781 7.46484 16.207 9.23828 13.8047 10.3906L13.4141 9.78906ZM26.6562 8.78125V9.36719H23.7969V11.6641H23.0703V9.36719H20.25V8.78125H26.6562ZM21.0469 7.98438V4.94531H21.7812V5.85938H25.1094V4.94531H25.8516V7.98438H21.0469ZM21.7812 7.39062H25.1094V6.45312H21.7812V7.39062ZM29.5859 5.78125C29.582 6.69922 30.2305 7.55469 31.2734 7.89844L30.875 8.48438C30.1094 8.21484 29.5352 7.66797 29.2305 6.97656C28.9258 7.76172 28.332 8.37891 27.5156 8.67969L27.1172 8.08594C28.2109 7.69922 28.8438 6.76562 28.8516 5.71875V5.03125H29.5859V5.78125ZM28.0625 10.3516C28.0625 9.53125 28.957 9.05078 30.4141 9.05469C31.8516 9.05078 32.7344 9.53125 32.7344 10.3516C32.7344 11.1797 31.8516 11.6523 30.4141 11.6484C28.957 11.6523 28.0625 11.1797 28.0625 10.3516ZM28.8047 10.3516C28.8008 10.8125 29.4023 11.0625 30.4141 11.0703C31.418 11.0625 32.0117 10.8125 32.0078 10.3516C32.0117 9.90625 31.418 9.64062 30.4141 9.64062C29.4023 9.64062 28.8008 9.90625 28.8047 10.3516ZM31.9297 8.89062V4.66406H32.6719V6.42188H33.6875V7.04688H32.6719V8.89062H31.9297Z" fill="white"/>
</svg>
