<svg width="61" height="95" viewBox="0 0 61 95" fill="none" xmlns="http://www.w3.org/2000/svg">
<path opacity="0.3" d="M23.312 83V84.104H27.68V83H23.312ZM23.312 87.576V88.68H27.68V87.576H23.312ZM20.656 80.888C18.544 80.888 17.056 82.856 17.056 85.928C17.056 89.016 18.544 90.984 20.656 90.984C22.752 90.984 24.256 89.016 24.256 85.928C24.256 82.856 22.752 80.888 20.656 80.888ZM20.656 82.088C22.048 82.088 23.008 83.592 23.008 85.928C23.008 88.28 22.048 89.816 20.656 89.816C19.264 89.816 18.304 88.28 18.304 85.928C18.304 83.592 19.264 82.088 20.656 82.088ZM27.392 79.768V94.264H28.704V79.768H27.392ZM35.1508 80.6V82.088C35.1508 84.296 33.7108 86.232 31.5028 87.016L32.1908 88.104C34.6708 87.176 36.2548 84.888 36.2548 82.088V80.6H35.1508ZM35.3908 80.6V82.04C35.3908 84.664 36.9428 86.792 39.2788 87.672L39.9988 86.632C37.8868 85.896 36.4788 84.088 36.4788 82.04V80.6H35.3908ZM42.0788 79.784V88.344H43.4068V79.784H42.0788ZM38.6548 88.76C35.6628 88.76 33.8228 89.768 33.8228 91.496C33.8228 93.224 35.6628 94.216 38.6548 94.216C41.6308 94.216 43.4708 93.224 43.4708 91.496C43.4708 89.768 41.6308 88.76 38.6548 88.76ZM38.6548 89.816C40.8308 89.816 42.1588 90.44 42.1588 91.496C42.1588 92.552 40.8308 93.176 38.6548 93.176C36.4788 93.176 35.1508 92.552 35.1508 91.496C35.1508 90.44 36.4788 89.816 38.6548 89.816ZM38.9427 82.84V83.944H42.3668V82.84H38.9427Z" fill="black"/>
<circle cx="30" cy="16" r="14" stroke="#D9D9D9" stroke-width="4"/>
<rect x="2" y="38" width="57" height="32" rx="16" stroke="#D9D9D9" stroke-width="4"/>
<path d="M16 16C15.5862 19.4246 12.6069 25.9937 4 24.8729" stroke="#D9D9D9" stroke-width="4" stroke-linecap="round"/>
<path d="M44 16C44.4483 19.4246 47.6759 25.9937 57 24.8729" stroke="#D9D9D9" stroke-width="4" stroke-linecap="round"/>
</svg>
