<svg width="61" height="95" viewBox="0 0 61 95" fill="none" xmlns="http://www.w3.org/2000/svg">
<path opacity="0.3" d="M22.312 83V84.104H26.68V83H22.312ZM22.312 87.576V88.68H26.68V87.576H22.312ZM19.656 80.888C17.544 80.888 16.056 82.856 16.056 85.928C16.056 89.016 17.544 90.984 19.656 90.984C21.752 90.984 23.256 89.016 23.256 85.928C23.256 82.856 21.752 80.888 19.656 80.888ZM19.656 82.088C21.048 82.088 22.008 83.592 22.008 85.928C22.008 88.28 21.048 89.816 19.656 89.816C18.264 89.816 17.304 88.28 17.304 85.928C17.304 83.592 18.264 82.088 19.656 82.088ZM26.392 79.768V94.264H27.704V79.768H26.392ZM34.1508 80.6V82.088C34.1508 84.296 32.7108 86.232 30.5028 87.016L31.1908 88.104C33.6708 87.176 35.2548 84.888 35.2548 82.088V80.6H34.1508ZM34.3908 80.6V82.04C34.3908 84.664 35.9428 86.792 38.2788 87.672L38.9988 86.632C36.8868 85.896 35.4788 84.088 35.4788 82.04V80.6H34.3908ZM41.0788 79.784V88.344H42.4068V79.784H41.0788ZM37.6548 88.76C34.6628 88.76 32.8228 89.768 32.8228 91.496C32.8228 93.224 34.6628 94.216 37.6548 94.216C40.6308 94.216 42.4708 93.224 42.4708 91.496C42.4708 89.768 40.6308 88.76 37.6548 88.76ZM37.6548 89.816C39.8308 89.816 41.1588 90.44 41.1588 91.496C41.1588 92.552 39.8308 93.176 37.6548 93.176C35.4788 93.176 34.1508 92.552 34.1508 91.496C34.1508 90.44 35.4788 89.816 37.6548 89.816ZM37.9427 82.84V83.944H41.3668V82.84H37.9427Z" fill="#25D7FF"/>
<circle cx="30" cy="16" r="14" stroke="#C3F4FF" stroke-width="4"/>
<rect x="2" y="38" width="57" height="32" rx="16" stroke="#C3F4FF" stroke-width="4"/>
<path d="M16 16C15.5862 19.4246 12.6069 25.9937 4 24.8729" stroke="#C3F4FF" stroke-width="4" stroke-linecap="round"/>
<path d="M44 16C44.4483 19.4246 47.6759 25.9937 57 24.8729" stroke="#C3F4FF" stroke-width="4" stroke-linecap="round"/>
</svg>
