<svg width="61" height="95" viewBox="0 0 61 95" fill="none" xmlns="http://www.w3.org/2000/svg">
<path opacity="0.3" d="M23.312 83V84.104H27.68V83H23.312ZM23.312 87.576V88.68H27.68V87.576H23.312ZM20.656 80.888C18.544 80.888 17.056 82.856 17.056 85.928C17.056 89.016 18.544 90.984 20.656 90.984C22.752 90.984 24.256 89.016 24.256 85.928C24.256 82.856 22.752 80.888 20.656 80.888ZM20.656 82.088C22.048 82.088 23.008 83.592 23.008 85.928C23.008 88.28 22.048 89.816 20.656 89.816C19.264 89.816 18.304 88.28 18.304 85.928C18.304 83.592 19.264 82.088 20.656 82.088ZM27.392 79.768V94.264H28.704V79.768H27.392ZM35.0868 81.848V84.2C35.0868 86.648 33.3428 89.4 31.2788 90.408L32.0468 91.464C34.3028 90.312 36.1428 87.208 36.1428 84.2V81.848H35.0868ZM35.3268 81.848V84.2C35.3268 87.064 37.0708 89.976 39.3588 91.112L40.1108 90.056C38.0148 89.064 36.3828 86.488 36.3828 84.2V81.848H35.3268ZM31.7908 81.256V82.376H39.5828V81.256H31.7908ZM41.2948 79.784V94.248H42.6388V79.784H41.2948ZM42.3188 85.624V86.744H45.0068V85.624H42.3188Z" fill="black"/>
<circle cx="30" cy="16" r="14" stroke="#D9D9D9" stroke-width="4"/>
<rect x="2" y="38" width="57" height="32" rx="16" stroke="#D9D9D9" stroke-width="4"/>
<path d="M16 16C15.5862 19.4246 12.6069 25.9937 4 24.8729" stroke="#D9D9D9" stroke-width="4" stroke-linecap="round"/>
<path d="M44 16C44.4483 19.4246 47.6759 25.9937 57 24.8729" stroke="#D9D9D9" stroke-width="4" stroke-linecap="round"/>
</svg>

