<svg width="61" height="95" viewBox="0 0 61 95" fill="none" xmlns="http://www.w3.org/2000/svg">
<path opacity="0.3" d="M25.688 79.784V87.96H27.016V79.784H25.688ZM26.664 83.096V84.2H29.16V83.096H26.664ZM17.896 88.744V94.056H27.016V88.744H17.896ZM25.72 89.816V92.968H19.208V89.816H25.72ZM16.488 80.504V86.296H17.816V80.504H16.488ZM16.488 85.752V86.872H17.624C19.784 86.872 21.944 86.728 24.392 86.216L24.232 85.128C21.864 85.608 19.704 85.752 17.624 85.752H16.488ZM34.0868 81.848V84.2C34.0868 86.648 32.3428 89.4 30.2788 90.408L31.0468 91.464C33.3028 90.312 35.1428 87.208 35.1428 84.2V81.848H34.0868ZM34.3268 81.848V84.2C34.3268 87.064 36.0708 89.976 38.3588 91.112L39.1108 90.056C37.0148 89.064 35.3828 86.488 35.3828 84.2V81.848H34.3268ZM30.7908 81.256V82.376H38.5828V81.256H30.7908ZM40.2948 79.784V94.248H41.6388V79.784H40.2948ZM41.3188 85.624V86.744H44.0068V85.624H41.3188Z" fill="black"/>
<path d="M44 16C44 23.7923 37.8965 30 30.5 30C23.1035 30 17 23.7923 17 16C17 8.20769 23.1035 2 30.5 2C37.8965 2 44 8.20769 44 16Z" stroke="#D9D9D9" stroke-width="4"/>
<rect x="2" y="38" width="57" height="32" rx="16" stroke="#D9D9D9" stroke-width="4"/>
</svg>
