<svg width="61" height="95" viewBox="0 0 61 95" fill="none" xmlns="http://www.w3.org/2000/svg">
<path opacity="0.3" d="M25.688 79.784V87.96H27.016V79.784H25.688ZM26.664 83.096V84.2H29.16V83.096H26.664ZM17.896 88.744V94.056H27.016V88.744H17.896ZM25.72 89.816V92.968H19.208V89.816H25.72ZM16.488 80.504V86.296H17.816V80.504H16.488ZM16.488 85.752V86.872H17.624C19.784 86.872 21.944 86.728 24.392 86.216L24.232 85.128C21.864 85.608 19.704 85.752 17.624 85.752H16.488ZM34.1508 80.6V82.088C34.1508 84.296 32.7108 86.232 30.5028 87.016L31.1908 88.104C33.6708 87.176 35.2548 84.888 35.2548 82.088V80.6H34.1508ZM34.3908 80.6V82.04C34.3908 84.664 35.9428 86.792 38.2788 87.672L38.9988 86.632C36.8868 85.896 35.4788 84.088 35.4788 82.04V80.6H34.3908ZM41.0788 79.784V88.344H42.4068V79.784H41.0788ZM37.6548 88.76C34.6628 88.76 32.8228 89.768 32.8228 91.496C32.8228 93.224 34.6628 94.216 37.6548 94.216C40.6308 94.216 42.4708 93.224 42.4708 91.496C42.4708 89.768 40.6308 88.76 37.6548 88.76ZM37.6548 89.816C39.8308 89.816 41.1588 90.44 41.1588 91.496C41.1588 92.552 39.8308 93.176 37.6548 93.176C35.4788 93.176 34.1508 92.552 34.1508 91.496C34.1508 90.44 35.4788 89.816 37.6548 89.816ZM37.9427 82.84V83.944H41.3668V82.84H37.9427Z" fill="black"/>
<path d="M44 16C44 23.7923 37.8965 30 30.5 30C23.1035 30 17 23.7923 17 16C17 8.20769 23.1035 2 30.5 2C37.8965 2 44 8.20769 44 16Z" stroke="#D9D9D9" stroke-width="4"/>
<rect x="2" y="38" width="57" height="32" rx="16" stroke="#D9D9D9" stroke-width="4"/>
</svg>
