<svg width="321" height="393" viewBox="0 0 321 393" fill="none" xmlns="http://www.w3.org/2000/svg">
<g filter="url(#filter0_d_0_1)">
<path fill-rule="evenodd" clip-rule="evenodd" d="M76.6136 0.867499C75.8189 -0.289168 74.1113 -0.289166 73.3166 0.867501L57.103 24.468H30C13.4315 24.468 0 37.8995 0 54.468V348.468C0 365.037 13.4315 378.468 30 378.468H277C293.569 378.468 307 365.037 307 348.468V54.468C307 37.8995 293.569 24.468 277 24.468H92.8272L76.6136 0.867499Z" fill="#DCF9FF"/>
</g>
<rect x="16" y="79.7075" width="36.4528" height="19.5283" rx="9.76415" fill="#F9ACCA" fill-opacity="0.7"/>
<rect x="39.4341" y="64.7358" width="34.5" height="34.5" rx="10" fill="#79DEE2" fill-opacity="0.7"/>
<path fill-rule="evenodd" clip-rule="evenodd" d="M109.736 99.2358C109.736 89.8886 102.158 82.3113 92.8112 82.3113C83.4641 82.3113 75.8867 89.8886 75.8867 99.2358H109.736Z" fill="#B7ADF6" fill-opacity="0.7"/>
<ellipse cx="111.689" cy="82.9623" rx="13.0189" ry="16.2736" fill="#FDAA02" fill-opacity="0.7"/>
<path d="M127.451 71.7592C129.33 68.217 134.406 68.217 136.285 71.7592L147.139 92.218C148.906 95.5482 146.492 99.5613 142.722 99.5613H121.014C117.244 99.5613 114.83 95.5482 116.597 92.218L127.451 71.7592Z" fill="#6BF200" fill-opacity="0.7"/>
<rect x="68.0754" y="40" width="14.3208" height="59.2358" rx="7.16038" fill="#FB5002" fill-opacity="0.7"/>
<circle cx="21.5331" cy="85.8915" r="0.976415" fill="black"/>
<circle cx="24.1368" cy="85.8915" r="0.976415" fill="black"/>
<circle cx="61.2406" cy="69.6179" r="0.976415" fill="black"/>
<circle cx="63.8443" cy="69.6179" r="0.976415" fill="black"/>
<circle cx="134.146" cy="81.3349" r="0.976415" fill="black"/>
<circle cx="136.75" cy="81.3349" r="0.976415" fill="black"/>
<ellipse cx="91.5093" cy="86.8679" rx="0.650943" ry="1.30189" fill="black"/>
<ellipse cx="95.4151" cy="86.8679" rx="0.650943" ry="1.30189" fill="black"/>
<path fill-rule="evenodd" clip-rule="evenodd" d="M70.6792 45.2075C70.6792 45.9265 71.2621 46.5094 71.9811 46.5094C72.7001 46.5094 73.283 45.9265 73.283 45.2075H72.6321C72.6321 45.567 72.3406 45.8585 71.9811 45.8585C71.6216 45.8585 71.3302 45.567 71.3302 45.2075H72.6321M71.3302 45.2075H70.6792H71.3302Z" fill="black"/>
<path fill-rule="evenodd" clip-rule="evenodd" d="M111.689 71.8962C111.689 71.1772 111.106 70.5944 110.387 70.5944C109.668 70.5944 109.085 71.1772 109.085 71.8962L109.736 71.8962C109.736 71.5367 110.027 71.2453 110.387 71.2453C110.746 71.2453 111.038 71.5367 111.038 71.8962L109.736 71.8962M111.038 71.8962L111.689 71.8962L111.038 71.8962Z" fill="black"/>
<path fill-rule="evenodd" clip-rule="evenodd" d="M73.9341 45.2075C73.9341 45.9265 74.517 46.5094 75.236 46.5094C75.955 46.5094 76.5379 45.9265 76.5379 45.2075H75.8868C75.8868 45.567 75.5954 45.8585 75.2358 45.8585C74.8763 45.8585 74.5849 45.567 74.5849 45.2075H75.8868M74.5849 45.2075H73.9341H74.5849Z" fill="black"/>
<path fill-rule="evenodd" clip-rule="evenodd" d="M108.434 71.8962C108.434 71.1772 107.851 70.5944 107.132 70.5944C106.413 70.5944 105.83 71.1772 105.83 71.8962L106.481 71.8962C106.481 71.5367 106.772 71.2453 107.132 71.2453C107.491 71.2453 107.783 71.5367 107.783 71.8962L106.481 71.8962M107.783 71.8962L108.434 71.8962L107.783 71.8962Z" fill="black"/>
<path d="M25.4 113.12V115.18H30.14V113.12H25.4ZM25.4 116.88V118.94H30.14V116.88H25.4ZM21.92 111.76C19.12 111.76 17.02 113.54 17.02 116.06C17.02 118.54 19.12 120.32 21.92 120.32C24.72 120.32 26.8 118.54 26.8 116.06C26.8 113.54 24.72 111.76 21.92 111.76ZM21.92 113.92C23.3 113.92 24.28 114.7 24.28 116.06C24.28 117.4 23.3 118.18 21.92 118.18C20.54 118.18 19.56 117.4 19.56 116.06C19.56 114.7 20.54 113.92 21.92 113.92ZM29.64 111.26V120.52H32.3V111.26H29.64ZM20.06 121.3V123.34H29.66V124.42H20.08V128.6H22.72V126.34H32.3V121.3H20.06ZM20.08 127.52V129.58H32.82V127.52H20.08ZM39.2584 116.06V117.02C39.2584 119.8 37.8784 122.94 34.8584 124.32L36.2984 126.36C39.6584 124.86 41.3184 120.92 41.3184 117.02V116.06H39.2584ZM39.8384 116.06V117.02C39.8384 120.74 41.4184 124.54 44.6784 126.04L46.0984 124.02C43.1984 122.62 41.8984 119.66 41.8984 117.02V116.06H39.8384ZM35.4984 114.28V116.38H45.5784V114.28H35.4984ZM39.2384 111.68V115.36H41.8984V111.68H39.2384ZM47.0384 111.26V129.78H49.7184V111.26H47.0384ZM49.1184 118.44V120.64H52.3984V118.44H49.1184ZM65.5922 112.58V113.64C65.5922 117.08 63.9122 119.64 58.9122 121.26L59.9722 123.34C66.0122 121.32 68.3122 117.76 68.3122 112.58H65.5922ZM59.8722 112.58V114.7H67.2922V112.58H59.8722ZM65.9122 116.24L58.9322 116.46L59.2922 118.54L65.9122 118.04V116.24ZM70.6922 111.26V124.86H73.3722V111.26H70.6922ZM72.6122 116.58V118.76H75.8322V116.58H72.6122ZM61.3922 127.34V129.46H73.9922V127.34H61.3922ZM61.3922 123.66V128.78H64.0722V123.66H61.3922ZM92.4259 115.74V117.9H95.9459V115.74H92.4259ZM95.2259 111.26V122.26H97.8859V111.26H95.2259ZM91.6059 122.66C87.6859 122.66 85.2659 124 85.2659 126.24C85.2659 128.5 87.6859 129.8 91.6059 129.8C95.5259 129.8 97.9459 128.5 97.9459 126.24C97.9459 124 95.5259 122.66 91.6059 122.66ZM91.6059 124.68C94.0259 124.68 95.3059 125.18 95.3059 126.24C95.3059 127.28 94.0259 127.78 91.6059 127.78C89.2059 127.78 87.9259 127.28 87.9259 126.24C87.9259 125.18 89.2059 124.68 91.6059 124.68ZM86.6659 113.12V114.28C86.6659 116.66 85.3459 119.12 82.2859 120.16L83.6459 122.26C87.1859 121.06 88.8259 117.82 88.8259 114.28V113.12H86.6659ZM87.2259 113.12V114.28C87.2259 117.58 88.8059 120.66 92.2459 121.8L93.5459 119.7C90.6259 118.72 89.3659 116.46 89.3659 114.28V113.12H87.2259ZM83.0059 112.38V114.5H92.9659V112.38H83.0059ZM100.804 125.48V127.64H117.564V125.48H100.804ZM107.824 121.52V126H110.484V121.52H107.824ZM102.564 112.44V122.08H115.744V112.44H113.104V115.28H105.204V112.44H102.564ZM105.204 117.36H113.104V119.96H105.204V117.36ZM131.103 111.28V124.92H133.763V111.28H131.103ZM133.003 116.58V118.78H136.223V116.58H133.003ZM121.883 127.34V129.46H134.443V127.34H121.883ZM121.883 123.82V128.04H124.563V123.82H121.883ZM119.843 120.14V122.26H121.403C125.143 122.26 127.483 122.18 130.083 121.7L129.843 119.56C127.283 120.04 125.043 120.14 121.403 120.14H119.843ZM119.823 112.38V114.5H125.663V116.26H119.843V120.9H122.483V118.22H128.283V112.38H119.823ZM139.481 122.54C139.481 122.1 139.541 121.707 139.661 121.36C139.781 121.013 139.975 120.687 140.241 120.38C140.521 120.073 140.888 119.76 141.341 119.44C141.741 119.147 142.061 118.887 142.301 118.66C142.555 118.433 142.735 118.207 142.841 117.98C142.961 117.753 143.021 117.5 143.021 117.22C143.021 116.793 142.861 116.473 142.541 116.26C142.235 116.033 141.801 115.92 141.241 115.92C140.681 115.92 140.128 116.007 139.581 116.18C139.035 116.353 138.475 116.587 137.901 116.88L136.841 114.74C137.495 114.38 138.201 114.087 138.961 113.86C139.721 113.633 140.555 113.52 141.461 113.52C142.848 113.52 143.921 113.853 144.681 114.52C145.455 115.187 145.841 116.033 145.841 117.06C145.841 117.607 145.755 118.08 145.581 118.48C145.408 118.88 145.148 119.253 144.801 119.6C144.455 119.933 144.021 120.293 143.501 120.68C143.115 120.96 142.815 121.2 142.601 121.4C142.388 121.6 142.241 121.793 142.161 121.98C142.095 122.167 142.061 122.4 142.061 122.68V123.26H139.481V122.54ZM139.161 126.6C139.161 125.987 139.328 125.56 139.661 125.32C139.995 125.067 140.401 124.94 140.881 124.94C141.348 124.94 141.748 125.067 142.081 125.32C142.415 125.56 142.581 125.987 142.581 126.6C142.581 127.187 142.415 127.613 142.081 127.88C141.748 128.133 141.348 128.26 140.881 128.26C140.401 128.26 139.995 128.133 139.661 127.88C139.328 127.613 139.161 127.187 139.161 126.6Z" fill="black"/>
<path d="M23.958 158H18.33V148.004H23.958V149.292H19.842V152.148H23.706V153.422H19.842V156.698H23.958V158ZM33.291 158H31.569L29.021 153.828L26.445 158H24.835L28.153 152.806L25.045 148.004H26.725L29.077 151.826L31.443 148.004H33.053L29.945 152.82L33.291 158ZM34.2899 157.174C34.2899 156.81 34.3832 156.553 34.5699 156.404C34.7566 156.255 34.9806 156.18 35.2419 156.18C35.5126 156.18 35.7412 156.255 35.9279 156.404C36.1146 156.553 36.2079 156.81 36.2079 157.174C36.2079 157.538 36.1146 157.799 35.9279 157.958C35.7412 158.117 35.5126 158.196 35.2419 158.196C34.9806 158.196 34.7566 158.117 34.5699 157.958C34.3832 157.799 34.2899 157.538 34.2899 157.174ZM111.604 147.948V148.886H115.202V147.948H111.604ZM111.604 150.566V151.49H115.202V150.566H111.604ZM109.126 146.856C107.236 146.856 105.864 148.046 105.864 149.754C105.864 151.434 107.236 152.624 109.126 152.624C111.016 152.624 112.388 151.434 112.388 149.754C112.388 148.046 111.016 146.856 109.126 146.856ZM109.126 147.822C110.372 147.822 111.282 148.62 111.282 149.754C111.282 150.874 110.372 151.672 109.126 151.672C107.88 151.672 106.984 150.874 106.984 149.754C106.984 148.62 107.88 147.822 109.126 147.822ZM114.922 146.436V152.918H116.084V146.436H114.922ZM107.936 153.562V154.486H114.936V155.746H107.964V158.518H109.098V156.614H116.084V153.562H107.936ZM107.964 158V158.924H116.546V158H107.964ZM121.641 149.446V150.524C121.641 152.708 120.297 154.864 118.435 155.76L119.093 156.656C121.095 155.662 122.551 153.198 122.551 150.524V149.446H121.641ZM121.865 149.446V150.524C121.865 153.044 123.237 155.438 125.211 156.418L125.855 155.522C124.049 154.626 122.775 152.568 122.775 150.524V149.446H121.865ZM118.785 148.634V149.572H125.575V148.634H118.785ZM121.627 146.66V149.152H122.775V146.66H121.627ZM127.115 146.436V159.092H128.291V146.436H127.115ZM128.011 151.63V152.596H130.363V151.63H128.011Z" fill="black"/>
<path d="M39.386 158L44.746 146.26H37.706V143.72H47.946V145.62L42.546 158H39.386ZM59.7113 155.04H57.9913V158H55.0513V155.04H48.9513V152.94L55.2113 143.72H57.9913V152.7H59.7113V155.04ZM55.0513 150.28C55.0513 150.053 55.0513 149.787 55.0513 149.48C55.0647 149.16 55.078 148.847 55.0913 148.54C55.1047 148.22 55.118 147.94 55.1313 147.7C55.1447 147.447 55.158 147.273 55.1713 147.18H55.0913C54.9713 147.447 54.8447 147.707 54.7113 147.96C54.578 148.213 54.418 148.473 54.2313 148.74L51.6113 152.7H55.0513V150.28ZM68.3166 158H65.2966V149.74C65.2966 149.513 65.2966 149.233 65.2966 148.9C65.31 148.567 65.3233 148.22 65.3366 147.86C65.35 147.5 65.3633 147.18 65.3766 146.9C65.31 146.98 65.1633 147.127 64.9366 147.34C64.7233 147.54 64.5233 147.72 64.3366 147.88L62.6966 149.2L61.2366 147.38L65.8366 143.72H68.3166V158ZM81.722 146.92C81.722 147.573 81.582 148.14 81.302 148.62C81.0353 149.1 80.6686 149.493 80.202 149.8C79.7486 150.107 79.2286 150.333 78.642 150.48V150.54C79.7886 150.673 80.6553 151.02 81.242 151.58C81.842 152.14 82.142 152.893 82.142 153.84C82.142 154.667 81.9353 155.413 81.522 156.08C81.122 156.733 80.4953 157.253 79.642 157.64C78.802 158.013 77.7153 158.2 76.382 158.2C75.5953 158.2 74.862 158.133 74.182 158C73.502 157.867 72.862 157.673 72.262 157.42V154.86C72.8753 155.167 73.5153 155.4 74.182 155.56C74.862 155.72 75.4886 155.8 76.062 155.8C77.142 155.8 77.8953 155.613 78.322 155.24C78.762 154.867 78.982 154.34 78.982 153.66C78.982 153.26 78.882 152.927 78.682 152.66C78.482 152.38 78.1286 152.173 77.622 152.04C77.1286 151.893 76.4353 151.82 75.542 151.82H74.462V149.5H75.562C76.442 149.5 77.1086 149.42 77.562 149.26C78.0286 149.087 78.342 148.86 78.502 148.58C78.6753 148.287 78.762 147.953 78.762 147.58C78.762 147.073 78.602 146.68 78.282 146.4C77.9753 146.107 77.4553 145.96 76.722 145.96C76.2686 145.96 75.8553 146.02 75.482 146.14C75.1086 146.247 74.7686 146.38 74.462 146.54C74.1686 146.7 73.9086 146.853 73.682 147L72.282 144.92C72.6553 144.653 73.0686 144.413 73.522 144.2C73.9886 143.987 74.502 143.82 75.062 143.7C75.622 143.58 76.2486 143.52 76.942 143.52C78.4086 143.52 79.5686 143.82 80.422 144.42C81.2886 145.007 81.722 145.84 81.722 146.92ZM84.4673 143.56V145.68H99.7473V143.56H84.4673ZM83.7673 155.78V157.92H100.527V155.78H83.7673ZM90.7873 153.34V156.62H93.4273V153.34H90.7873ZM92.0873 146.48C88.2273 146.48 85.8073 147.82 85.8073 150.1C85.8073 152.38 88.2273 153.72 92.0873 153.72C95.9473 153.72 98.3673 152.38 98.3673 150.1C98.3673 147.82 95.9473 146.48 92.0873 146.48ZM92.0873 148.54C94.4073 148.54 95.6473 149.04 95.6473 150.1C95.6473 151.16 94.4073 151.64 92.0873 151.64C89.7673 151.64 88.5273 151.16 88.5273 150.1C88.5273 149.04 89.7673 148.54 92.0873 148.54ZM90.7873 141.46V144.88H93.4273V141.46H90.7873Z" fill="#2F98AF"/>
<path d="M19.22 330L24.58 318.26H17.54V315.72H27.78V317.62L22.38 330H19.22ZM39.5453 327.04H37.8253V330H34.8853V327.04H28.7853V324.94L35.0453 315.72H37.8253V324.7H39.5453V327.04ZM34.8853 322.28C34.8853 322.053 34.8853 321.787 34.8853 321.48C34.8986 321.16 34.912 320.847 34.9253 320.54C34.9386 320.22 34.952 319.94 34.9653 319.7C34.9786 319.447 34.992 319.273 35.0053 319.18H34.9253C34.8053 319.447 34.6786 319.707 34.5453 319.96C34.412 320.213 34.252 320.473 34.0653 320.74L31.4453 324.7H34.8853V322.28ZM48.1506 330H45.1306V321.74C45.1306 321.513 45.1306 321.233 45.1306 320.9C45.144 320.567 45.1573 320.22 45.1706 319.86C45.184 319.5 45.1973 319.18 45.2106 318.9C45.144 318.98 44.9973 319.127 44.7706 319.34C44.5573 319.54 44.3573 319.72 44.1706 319.88L42.5306 321.2L41.0706 319.38L45.6706 315.72H48.1506V330ZM61.5559 318.92C61.5559 319.573 61.4159 320.14 61.1359 320.62C60.8693 321.1 60.5026 321.493 60.0359 321.8C59.5826 322.107 59.0626 322.333 58.4759 322.48V322.54C59.6226 322.673 60.4893 323.02 61.0759 323.58C61.6759 324.14 61.9759 324.893 61.9759 325.84C61.9759 326.667 61.7693 327.413 61.3559 328.08C60.9559 328.733 60.3293 329.253 59.4759 329.64C58.6359 330.013 57.5493 330.2 56.2159 330.2C55.4293 330.2 54.6959 330.133 54.0159 330C53.3359 329.867 52.6959 329.673 52.0959 329.42V326.86C52.7093 327.167 53.3493 327.4 54.0159 327.56C54.6959 327.72 55.3226 327.8 55.8959 327.8C56.9759 327.8 57.7293 327.613 58.1559 327.24C58.5959 326.867 58.8159 326.34 58.8159 325.66C58.8159 325.26 58.7159 324.927 58.5159 324.66C58.3159 324.38 57.9626 324.173 57.4559 324.04C56.9626 323.893 56.2693 323.82 55.3759 323.82H54.2959V321.5H55.3959C56.2759 321.5 56.9426 321.42 57.3959 321.26C57.8626 321.087 58.1759 320.86 58.3359 320.58C58.5093 320.287 58.5959 319.953 58.5959 319.58C58.5959 319.073 58.4359 318.68 58.1159 318.4C57.8093 318.107 57.2893 317.96 56.5559 317.96C56.1026 317.96 55.6893 318.02 55.3159 318.14C54.9426 318.247 54.6026 318.38 54.2959 318.54C54.0026 318.7 53.7426 318.853 53.5159 319L52.1159 316.92C52.4893 316.653 52.9026 316.413 53.3559 316.2C53.8226 315.987 54.3359 315.82 54.8959 315.7C55.4559 315.58 56.0826 315.52 56.7759 315.52C58.2426 315.52 59.4026 315.82 60.2559 316.42C61.1226 317.007 61.5559 317.84 61.5559 318.92ZM64.3013 315.56V317.68H79.5813V315.56H64.3013ZM63.6013 327.78V329.92H80.3613V327.78H63.6013ZM70.6213 325.34V328.62H73.2613V325.34H70.6213ZM71.9213 318.48C68.0612 318.48 65.6413 319.82 65.6413 322.1C65.6413 324.38 68.0612 325.72 71.9213 325.72C75.7813 325.72 78.2013 324.38 78.2013 322.1C78.2013 319.82 75.7813 318.48 71.9213 318.48ZM71.9213 320.54C74.2413 320.54 75.4813 321.04 75.4813 322.1C75.4813 323.16 74.2413 323.64 71.9213 323.64C69.6013 323.64 68.3613 323.16 68.3613 322.1C68.3613 321.04 69.6013 320.54 71.9213 320.54ZM70.6213 313.46V316.88H73.2613V313.46H70.6213Z" fill="#2F98AF"/>
<path d="M91.4384 319.948V320.886H95.0364V319.948H91.4384ZM91.4384 322.566V323.49H95.0364V322.566H91.4384ZM88.9604 318.856C87.0704 318.856 85.6984 320.046 85.6984 321.754C85.6984 323.434 87.0704 324.624 88.9604 324.624C90.8504 324.624 92.2224 323.434 92.2224 321.754C92.2224 320.046 90.8504 318.856 88.9604 318.856ZM88.9604 319.822C90.2064 319.822 91.1164 320.62 91.1164 321.754C91.1164 322.874 90.2064 323.672 88.9604 323.672C87.7144 323.672 86.8184 322.874 86.8184 321.754C86.8184 320.62 87.7144 319.822 88.9604 319.822ZM94.7564 318.436V324.918H95.9184V318.436H94.7564ZM87.7704 325.562V326.486H94.7704V327.746H87.7984V330.518H88.9324V328.614H95.9184V325.562H87.7704ZM87.7984 330V330.924H96.3804V330H87.7984ZM101.475 321.446V322.524C101.475 324.708 100.131 326.864 98.2693 327.76L98.9273 328.656C100.929 327.662 102.385 325.198 102.385 322.524V321.446H101.475ZM101.699 321.446V322.524C101.699 325.044 103.071 327.438 105.045 328.418L105.689 327.522C103.883 326.626 102.609 324.568 102.609 322.524V321.446H101.699ZM98.6193 320.634V321.572H105.409V320.634H98.6193ZM101.461 318.66V321.152H102.609V318.66H101.461ZM106.949 318.436V331.092H108.125V318.436H106.949ZM107.845 323.63V324.596H110.197V323.63H107.845ZM119.842 318.422V331.106H121.004V318.422H119.842ZM120.724 323.462V324.442H123.076V323.462H120.724ZM111.778 327.088V328.054H112.786C115.208 328.054 116.888 327.956 118.862 327.606L118.736 326.64C116.818 327.004 115.166 327.088 112.786 327.088H111.778ZM111.75 319.612V320.564H116.328V323.196H111.778V327.48H112.926V324.148H117.476V319.612H111.75ZM125.357 319.696V320.662H133.505V319.696H125.357ZM124.153 328.362V329.328H135.591V328.362H124.153ZM128.591 323.84V328.838H129.753V323.84H128.591ZM133.071 319.696V320.956C133.071 322.468 133.071 324.246 132.595 326.668L133.757 326.822C134.219 324.26 134.219 322.524 134.219 320.956V319.696H133.071ZM149.321 318.45V327.942H150.483V318.45H149.321ZM150.119 322.594V323.574H152.359V322.594H150.119ZM140.697 319.976V320.914H148.173V319.976H140.697ZM144.435 321.614C142.629 321.614 141.397 322.552 141.397 323.98C141.397 325.394 142.629 326.332 144.435 326.332C146.227 326.332 147.459 325.394 147.459 323.98C147.459 322.552 146.227 321.614 144.435 321.614ZM144.435 322.524C145.569 322.524 146.353 323.098 146.353 323.98C146.353 324.848 145.569 325.422 144.435 325.422C143.287 325.422 142.503 324.848 142.503 323.98C142.503 323.098 143.287 322.524 144.435 322.524ZM143.847 318.436V320.466H145.009V318.436H143.847ZM142.601 329.86V330.812H151.057V329.86H142.601ZM142.601 327.186V330.266H143.763V327.186H142.601ZM162.102 318.422V331.106H163.278V318.422H162.102ZM162.998 323.42V324.4H165.35V323.42H162.998ZM154.08 326.976V327.956H155.074C157.454 327.956 159.12 327.886 161.066 327.522L160.94 326.542C159.05 326.892 157.412 326.976 155.074 326.976H154.08ZM154.08 319.654V327.41H155.228V320.606H159.96V319.654H154.08ZM172.489 320.662V321.614H176.031V320.662H172.489ZM172.489 323.364V324.33H176.059V323.364H172.489ZM167.001 319.528V325.464H172.783V319.528H167.001ZM171.635 320.466V324.526H168.135V320.466H171.635ZM175.667 318.45V327.69H176.829V318.45H175.667ZM168.695 329.86V330.812H177.137V329.86H168.695ZM168.695 326.85V330.294H169.857V326.85H168.695ZM180.551 326.626C180.551 326.281 180.584 325.982 180.649 325.73C180.724 325.478 180.85 325.24 181.027 325.016C181.214 324.783 181.457 324.545 181.755 324.302C182.101 324.022 182.367 323.789 182.553 323.602C182.749 323.406 182.885 323.219 182.959 323.042C183.043 322.855 183.085 322.631 183.085 322.37C183.085 321.969 182.95 321.661 182.679 321.446C182.418 321.231 182.035 321.124 181.531 321.124C181.093 321.124 180.691 321.185 180.327 321.306C179.963 321.418 179.609 321.558 179.263 321.726L178.731 320.606C179.133 320.391 179.571 320.214 180.047 320.074C180.523 319.934 181.051 319.864 181.629 319.864C182.544 319.864 183.249 320.088 183.743 320.536C184.247 320.984 184.499 321.581 184.499 322.328C184.499 322.729 184.434 323.079 184.303 323.378C184.173 323.667 183.981 323.933 183.729 324.176C183.487 324.419 183.197 324.68 182.861 324.96C182.563 325.203 182.334 325.413 182.175 325.59C182.017 325.767 181.909 325.945 181.853 326.122C181.797 326.29 181.769 326.5 181.769 326.752V327.032H180.551V326.626ZM180.257 329.174C180.257 328.81 180.346 328.553 180.523 328.404C180.71 328.255 180.943 328.18 181.223 328.18C181.485 328.18 181.709 328.255 181.895 328.404C182.082 328.553 182.175 328.81 182.175 329.174C182.175 329.538 182.082 329.799 181.895 329.958C181.709 330.117 181.485 330.196 181.223 330.196C180.943 330.196 180.71 330.117 180.523 329.958C180.346 329.799 180.257 329.538 180.257 329.174ZM18.806 349L22.796 340.32H17.546V339.004H24.392V340.068L20.416 349H18.806ZM26.2717 339.284V340.236H36.5477V339.284H26.2717ZM25.7117 347.656V348.622H37.1777V347.656H25.7117ZM30.8497 345.654V348.034H31.9977V345.654H30.8497ZM31.4097 341.09C28.8617 341.09 27.2797 341.972 27.2797 343.498C27.2797 345.024 28.8617 345.906 31.4097 345.906C33.9717 345.906 35.5537 345.024 35.5537 343.498C35.5537 341.972 33.9717 341.09 31.4097 341.09ZM31.4097 342C33.2577 342 34.3777 342.56 34.3777 343.498C34.3777 344.436 33.2577 344.982 31.4097 344.982C29.5757 344.982 28.4417 344.436 28.4417 343.498C28.4417 342.56 29.5757 342 31.4097 342ZM30.8497 337.646V339.872H31.9977V337.646H30.8497ZM45.0726 340.418V341.384H48.2646V340.418H45.0726ZM41.7546 338.206V339.76C41.7546 341.692 40.4806 343.484 38.6046 344.184L39.2066 345.108C41.3206 344.254 42.6926 342.21 42.6926 339.76V338.206H41.7546ZM41.9786 338.206V339.802C41.9786 342.056 43.3366 344.016 45.3526 344.8L45.9826 343.904C44.1486 343.232 42.9166 341.566 42.9166 339.802V338.206H41.9786ZM47.8306 337.45V346.914H48.9926V337.45H47.8306ZM40.8586 348.86V349.812H49.3006V348.86H40.8586ZM40.8586 345.864V349.308H42.0206V345.864H40.8586ZM59.6143 349H58.1443V342.364C58.1443 342.131 58.1443 341.916 58.1443 341.72C58.1536 341.515 58.1629 341.319 58.1723 341.132C58.1816 340.936 58.1909 340.749 58.2003 340.572C58.0789 340.693 57.9529 340.81 57.8223 340.922C57.6916 341.034 57.5423 341.165 57.3743 341.314L56.2823 342.196L55.5263 341.244L58.3823 339.004H59.6143V349ZM69.39 341.314C69.39 341.762 69.3013 342.154 69.124 342.49C68.956 342.817 68.7133 343.083 68.396 343.288C68.0786 343.493 67.7146 343.643 67.304 343.736V343.792C68.1066 343.885 68.704 344.137 69.096 344.548C69.4973 344.949 69.698 345.481 69.698 346.144C69.698 346.723 69.558 347.241 69.278 347.698C69.0073 348.146 68.5826 348.501 68.004 348.762C67.4346 349.014 66.702 349.14 65.806 349.14C65.274 349.14 64.7793 349.098 64.322 349.014C63.8646 348.93 63.4306 348.79 63.02 348.594V347.25C63.44 347.465 63.888 347.628 64.364 347.74C64.8493 347.852 65.3113 347.908 65.75 347.908C66.5993 347.908 67.2106 347.749 67.584 347.432C67.9573 347.105 68.144 346.653 68.144 346.074C68.144 345.701 68.046 345.397 67.85 345.164C67.654 344.921 67.3553 344.744 66.954 344.632C66.5526 344.511 66.0533 344.45 65.456 344.45H64.546V343.232H65.47C66.0393 343.232 66.5013 343.162 66.856 343.022C67.2106 342.873 67.472 342.667 67.64 342.406C67.808 342.145 67.892 341.846 67.892 341.51C67.892 341.062 67.7426 340.717 67.444 340.474C67.1546 340.222 66.7346 340.096 66.184 340.096C65.848 340.096 65.5353 340.133 65.246 340.208C64.966 340.283 64.7093 340.381 64.476 340.502C64.2426 340.623 64.014 340.759 63.79 340.908L63.062 339.886C63.314 339.699 63.594 339.527 63.902 339.368C64.2193 339.209 64.5693 339.088 64.952 339.004C65.344 338.911 65.7686 338.864 66.226 338.864C67.262 338.864 68.046 339.093 68.578 339.55C69.1193 339.998 69.39 340.586 69.39 341.314ZM77.0937 341.006V341.958H80.7337V341.006H77.0937ZM80.3697 337.45V346.816H81.5317V337.45H80.3697ZM73.3977 348.86V349.812H81.8397V348.86H73.3977ZM73.3977 345.906V349.35H74.5597V345.906H73.3977ZM71.7457 338.276V344.66H77.4577V338.276H76.3237V340.516H72.8937V338.276H71.7457ZM72.8937 341.426H76.3237V343.708H72.8937V341.426ZM96.8853 337.436V346.858H98.0473V337.436H96.8853ZM88.0093 338.458V339.41H94.6733V338.458H88.0093ZM87.7993 344.954C89.8573 344.954 92.6993 344.912 95.1353 344.52L95.0653 343.652C92.6993 343.932 89.7453 343.96 87.6733 343.96L87.7993 344.954ZM89.2693 339.27V344.128H90.3893V339.27H89.2693ZM92.2933 339.27V344.128H93.4133V339.27H92.2933ZM94.7853 339.83V340.782H97.5013V339.83H94.7853ZM94.7853 342.252V343.204H97.5013V342.252H94.7853ZM89.9553 348.86V349.812H98.3833V348.86H89.9553ZM89.9553 346.088V349.462H91.1173V346.088H89.9553ZM103.702 338.15V339.452C103.702 341.384 102.442 343.078 100.51 343.764L101.112 344.716C103.282 343.904 104.668 341.902 104.668 339.452V338.15H103.702ZM103.912 338.15V339.41C103.912 341.706 105.27 343.568 107.314 344.338L107.944 343.428C106.096 342.784 104.864 341.202 104.864 339.41V338.15H103.912ZM109.764 337.436V344.926H110.926V337.436H109.764ZM106.768 345.29C104.15 345.29 102.54 346.172 102.54 347.684C102.54 349.196 104.15 350.064 106.768 350.064C109.372 350.064 110.982 349.196 110.982 347.684C110.982 346.172 109.372 345.29 106.768 345.29ZM106.768 346.214C108.672 346.214 109.834 346.76 109.834 347.684C109.834 348.608 108.672 349.154 106.768 349.154C104.864 349.154 103.702 348.608 103.702 347.684C103.702 346.76 104.864 346.214 106.768 346.214ZM107.02 340.11V341.076H110.016V340.11H107.02ZM122.962 338.948V339.886H126.56V338.948H122.962ZM122.962 341.566V342.49H126.56V341.566H122.962ZM120.484 337.856C118.594 337.856 117.222 339.046 117.222 340.754C117.222 342.434 118.594 343.624 120.484 343.624C122.374 343.624 123.746 342.434 123.746 340.754C123.746 339.046 122.374 337.856 120.484 337.856ZM120.484 338.822C121.73 338.822 122.64 339.62 122.64 340.754C122.64 341.874 121.73 342.672 120.484 342.672C119.238 342.672 118.342 341.874 118.342 340.754C118.342 339.62 119.238 338.822 120.484 338.822ZM126.28 337.436V343.918H127.442V337.436H126.28ZM119.294 344.562V345.486H126.294V346.746H119.322V349.518H120.456V347.614H127.442V344.562H119.294ZM119.322 349V349.924H127.904V349H119.322ZM132.999 340.446V341.524C132.999 343.708 131.655 345.864 129.793 346.76L130.451 347.656C132.453 346.662 133.909 344.198 133.909 341.524V340.446H132.999ZM133.223 340.446V341.524C133.223 344.044 134.595 346.438 136.569 347.418L137.213 346.522C135.407 345.626 134.133 343.568 134.133 341.524V340.446H133.223ZM130.143 339.634V340.572H136.933V339.634H130.143ZM132.985 337.66V340.152H134.133V337.66H132.985ZM138.473 337.436V350.092H139.649V337.436H138.473ZM139.369 342.63V343.596H141.721V342.63H139.369ZM147.922 342.35V343.316H150.316V342.35H147.922ZM152.43 337.436V350.092H153.55V337.436H152.43ZM149.924 337.702V349.462H151.03V337.702H149.924ZM145.64 338.486C144.002 338.486 142.952 340.18 142.952 342.896C142.952 345.612 144.002 347.306 145.64 347.306C147.278 347.306 148.342 345.612 148.342 342.896C148.342 340.18 147.278 338.486 145.64 338.486ZM145.64 339.564C146.648 339.564 147.278 340.852 147.278 342.896C147.278 344.94 146.648 346.228 145.64 346.228C144.646 346.228 144.016 344.94 144.016 342.896C144.016 340.852 144.646 339.564 145.64 339.564ZM166.355 346.788H164.969V349H163.527V346.788H158.893V345.612L163.499 338.962H164.969V345.528H166.355V346.788ZM163.527 342.812C163.527 342.588 163.527 342.373 163.527 342.168C163.537 341.963 163.546 341.767 163.555 341.58C163.565 341.384 163.569 341.207 163.569 341.048C163.579 340.88 163.588 340.731 163.597 340.6H163.541C163.467 340.787 163.373 340.978 163.261 341.174C163.159 341.37 163.051 341.543 162.939 341.692L160.293 345.528H163.527V342.812ZM173.289 341.006V341.958H176.929V341.006H173.289ZM176.565 337.45V346.816H177.727V337.45H176.565ZM169.593 348.86V349.812H178.035V348.86H169.593ZM169.593 345.906V349.35H170.755V345.906H169.593ZM167.941 338.276V344.66H173.653V338.276H172.519V340.516H169.089V338.276H167.941ZM169.089 341.426H172.519V343.708H169.089V341.426ZM190.018 337.436V350.092H191.11V337.436H190.018ZM188.24 342.588V343.54H190.41V342.588H188.24ZM187.568 337.702V349.462H188.646V337.702H187.568ZM181.688 339.536V341.23C181.688 342.784 181.394 345.094 179.952 346.256L180.61 347.054C182.178 345.808 182.5 343.134 182.5 341.23V339.536H181.688ZM181.912 339.536V341.23C181.912 342.784 182.038 345.808 183.662 347.194L184.25 346.354C182.794 345.01 182.71 342.476 182.71 341.23V339.536H181.912ZM184.614 339.536V341.23C184.614 342.7 184.516 345.094 183.06 346.354L183.662 347.194C185.258 345.864 185.412 343.036 185.412 341.23V339.536H184.614ZM184.824 339.536V341.23C184.824 343.204 185.146 345.822 186.7 347.054L187.372 346.256C185.916 345.108 185.622 342.854 185.622 341.23V339.536H184.824ZM180.372 338.976V339.914H183.466V338.976H180.372ZM183.858 338.976V339.914H186.854V338.976H183.858ZM201.942 338.388V338.808C201.942 341.384 200.472 343.4 196.944 344.576L197.42 345.514C201.424 344.156 203.118 341.678 203.118 338.388H201.942ZM197.49 338.388V339.34H202.6V338.388H197.49ZM201.914 340.866L196.86 341.09L197.056 342.056L201.914 341.678V340.866ZM205.372 337.436V346.872H206.534V337.436H205.372ZM206.17 341.356V342.336H208.41V341.356H206.17ZM198.638 348.86V349.812H207.094V348.86H198.638ZM198.638 345.976V349.476H199.8V345.976H198.638ZM215.31 337.646C212.51 337.646 210.858 338.43 210.858 339.844C210.858 341.258 212.51 342.042 215.31 342.042C218.096 342.042 219.762 341.258 219.762 339.844C219.762 338.43 218.096 337.646 215.31 337.646ZM215.31 338.528C217.368 338.528 218.558 339.004 218.558 339.844C218.558 340.684 217.368 341.16 215.31 341.16C213.238 341.16 212.048 340.684 212.048 339.844C212.048 339.004 213.238 338.528 215.31 338.528ZM209.584 342.882V343.82H221.022V342.882H209.584ZM210.97 344.898V345.794H218.418V346.914H210.998V349.294H212.146V347.754H219.566V344.898H210.97ZM210.998 349.042V349.952H219.944V349.042H210.998ZM230.216 338.346C228.242 338.346 226.814 339.564 226.814 341.328C226.814 343.106 228.242 344.324 230.216 344.324C232.19 344.324 233.604 343.106 233.604 341.328C233.604 339.564 232.19 338.346 230.216 338.346ZM230.216 339.354C231.518 339.354 232.47 340.152 232.47 341.328C232.47 342.504 231.518 343.316 230.216 343.316C228.9 343.316 227.948 342.504 227.948 341.328C227.948 340.152 228.9 339.354 230.216 339.354ZM235.256 337.422V350.106H236.418V337.422H235.256ZM226.338 347.334C228.592 347.334 231.686 347.32 234.528 346.774L234.43 345.92C231.672 346.354 228.48 346.368 226.17 346.368L226.338 347.334ZM239.707 338.668V346.914H245.531V338.668H239.707ZM244.397 339.606V345.976H240.841V339.606H244.397ZM248.177 337.422V350.106H249.339V337.422H248.177ZM260.524 337.436V344.786H261.686V337.436H260.524ZM261.182 340.656V341.636H263.562V340.656H261.182ZM253.734 345.346V349.924H261.686V345.346H260.538V346.69H254.868V345.346H253.734ZM254.868 347.586H260.538V348.986H254.868V347.586ZM251.9 338.724V339.676H259.376V338.724H251.9ZM255.638 340.25C253.818 340.25 252.6 341.132 252.6 342.476C252.6 343.82 253.818 344.702 255.638 344.702C257.444 344.702 258.662 343.82 258.662 342.476C258.662 341.132 257.444 340.25 255.638 340.25ZM255.638 341.132C256.772 341.132 257.556 341.664 257.556 342.476C257.556 343.288 256.772 343.82 255.638 343.82C254.476 343.82 253.706 343.288 253.706 342.476C253.706 341.664 254.476 341.132 255.638 341.132ZM255.05 337.31V339.242H256.212V337.31H255.05ZM273.949 337.436V350.092H275.111V337.436H273.949ZM265.549 338.668V346.508H266.697V338.668H265.549ZM265.549 345.822V346.83H266.585C268.587 346.83 270.589 346.676 272.787 346.228L272.647 345.234C270.505 345.682 268.503 345.822 266.585 345.822H265.549ZM286.184 337.422V350.106H287.36V337.422H286.184ZM287.08 342.42V343.4H289.432V342.42H287.08ZM278.162 345.976V346.956H279.156C281.536 346.956 283.202 346.886 285.148 346.522L285.022 345.542C283.132 345.892 281.494 345.976 279.156 345.976H278.162ZM278.162 338.654V346.41H279.31V339.606H284.042V338.654H278.162ZM290.761 348.174C290.761 347.81 290.854 347.553 291.041 347.404C291.227 347.255 291.451 347.18 291.713 347.18C291.983 347.18 292.212 347.255 292.399 347.404C292.585 347.553 292.679 347.81 292.679 348.174C292.679 348.538 292.585 348.799 292.399 348.958C292.212 349.117 291.983 349.196 291.713 349.196C291.451 349.196 291.227 349.117 291.041 348.958C290.854 348.799 290.761 348.538 290.761 348.174Z" fill="black"/>
<path d="M42.904 186L47.006 177.124H41.616V176.004H48.322V176.956L44.262 186H42.904ZM50.2717 176.284V177.236H60.5477V176.284H50.2717ZM49.7117 184.656V185.622H61.1777V184.656H49.7117ZM54.8497 182.654V185.034H55.9977V182.654H54.8497ZM55.4097 178.09C52.8617 178.09 51.2797 178.972 51.2797 180.498C51.2797 182.024 52.8617 182.906 55.4097 182.906C57.9717 182.906 59.5537 182.024 59.5537 180.498C59.5537 178.972 57.9717 178.09 55.4097 178.09ZM55.4097 179C57.2577 179 58.3777 179.56 58.3777 180.498C58.3777 181.436 57.2577 181.982 55.4097 181.982C53.5757 181.982 52.4417 181.436 52.4417 180.498C52.4417 179.56 53.5757 179 55.4097 179ZM54.8497 174.646V176.872H55.9977V174.646H54.8497ZM69.0726 177.418V178.384H72.2646V177.418H69.0726ZM65.7546 175.206V176.76C65.7546 178.692 64.4806 180.484 62.6046 181.184L63.2066 182.108C65.3206 181.254 66.6926 179.21 66.6926 176.76V175.206H65.7546ZM65.9786 175.206V176.802C65.9786 179.056 67.3366 181.016 69.3526 181.8L69.9826 180.904C68.1486 180.232 66.9166 178.566 66.9166 176.802V175.206H65.9786ZM71.8306 174.45V183.914H72.9926V174.45H71.8306ZM64.8586 185.86V186.812H73.3006V185.86H64.8586ZM64.8586 182.864V186.308H66.0206V182.864H64.8586Z" fill="black"/>
<path d="M48.728 213.732H47.272V216H46.082V213.732H41.294V212.682L45.998 205.948H47.272V212.626H48.728V213.732ZM46.082 209.476C46.082 209.233 46.082 209.014 46.082 208.818C46.0913 208.613 46.1007 208.421 46.11 208.244C46.1193 208.067 46.124 207.899 46.124 207.74C46.1333 207.572 46.1427 207.413 46.152 207.264H46.096C46.0213 207.441 45.928 207.633 45.816 207.838C45.704 208.043 45.5967 208.216 45.494 208.356L42.498 212.626H46.082V209.476ZM54.9337 205.388V205.808C54.9337 208.384 53.4637 210.4 49.9357 211.576L50.4117 212.514C54.4157 211.156 56.1097 208.678 56.1097 205.388H54.9337ZM50.4817 205.388V206.34H55.5917V205.388H50.4817ZM54.9057 207.866L49.8517 208.09L50.0477 209.056L54.9057 208.678V207.866ZM58.3637 204.436V213.872H59.5257V204.436H58.3637ZM59.1617 208.356V209.336H61.4017V208.356H59.1617ZM51.6297 215.86V216.812H60.0857V215.86H51.6297ZM51.6297 212.976V216.476H52.7917V212.976H51.6297Z" fill="black"/>
<path d="M50.94 264.436V273.858H52.102V264.436H50.94ZM42.064 265.458V266.41H48.728V265.458H42.064ZM41.854 271.954C43.912 271.954 46.754 271.912 49.19 271.52L49.12 270.652C46.754 270.932 43.8 270.96 41.728 270.96L41.854 271.954ZM43.324 266.27V271.128H44.444V266.27H43.324ZM46.348 266.27V271.128H47.468V266.27H46.348ZM48.84 266.83V267.782H51.556V266.83H48.84ZM48.84 269.252V270.204H51.556V269.252H48.84ZM44.01 275.86V276.812H52.438V275.86H44.01ZM44.01 273.088V276.462H45.172V273.088H44.01ZM57.7569 265.15V266.452C57.7569 268.384 56.4969 270.078 54.5649 270.764L55.1669 271.716C57.3369 270.904 58.7229 268.902 58.7229 266.452V265.15H57.7569ZM57.9669 265.15V266.41C57.9669 268.706 59.3249 270.568 61.3689 271.338L61.9989 270.428C60.1509 269.784 58.9189 268.202 58.9189 266.41V265.15H57.9669ZM63.8189 264.436V271.926H64.9809V264.436H63.8189ZM60.8229 272.29C58.2049 272.29 56.5949 273.172 56.5949 274.684C56.5949 276.196 58.2049 277.064 60.8229 277.064C63.4269 277.064 65.0369 276.196 65.0369 274.684C65.0369 273.172 63.4269 272.29 60.8229 272.29ZM60.8229 273.214C62.7269 273.214 63.8889 273.76 63.8889 274.684C63.8889 275.608 62.7269 276.154 60.8229 276.154C58.9189 276.154 57.7569 275.608 57.7569 274.684C57.7569 273.76 58.9189 273.214 60.8229 273.214ZM61.0749 267.11V268.076H64.0709V267.11H61.0749ZM73.4218 268.006V268.958H77.0618V268.006H73.4218ZM76.6978 264.45V273.816H77.8598V264.45H76.6978ZM69.7258 275.86V276.812H78.1678V275.86H69.7258ZM69.7258 272.906V276.35H70.8878V272.906H69.7258ZM68.0738 265.276V271.66H73.7858V265.276H72.6518V267.516H69.2218V265.276H68.0738ZM69.2218 268.426H72.6518V270.708H69.2218V268.426ZM80.8967 266.284V267.236H91.1727V266.284H80.8967ZM80.3367 274.656V275.622H91.8027V274.656H80.3367ZM85.4747 272.654V275.034H86.6227V272.654H85.4747ZM86.0347 268.09C83.4867 268.09 81.9047 268.972 81.9047 270.498C81.9047 272.024 83.4867 272.906 86.0347 272.906C88.5967 272.906 90.1787 272.024 90.1787 270.498C90.1787 268.972 88.5967 268.09 86.0347 268.09ZM86.0347 269C87.8827 269 89.0027 269.56 89.0027 270.498C89.0027 271.436 87.8827 271.982 86.0347 271.982C84.2007 271.982 83.0667 271.436 83.0667 270.498C83.0667 269.56 84.2007 269 86.0347 269ZM85.4747 264.646V266.872H86.6227V264.646H85.4747Z" fill="black"/>
<path d="M50.94 234.436V243.858H52.102V234.436H50.94ZM42.064 235.458V236.41H48.728V235.458H42.064ZM41.854 241.954C43.912 241.954 46.754 241.912 49.19 241.52L49.12 240.652C46.754 240.932 43.8 240.96 41.728 240.96L41.854 241.954ZM43.324 236.27V241.128H44.444V236.27H43.324ZM46.348 236.27V241.128H47.468V236.27H46.348ZM48.84 236.83V237.782H51.556V236.83H48.84ZM48.84 239.252V240.204H51.556V239.252H48.84ZM44.01 245.86V246.812H52.438V245.86H44.01ZM44.01 243.088V246.462H45.172V243.088H44.01ZM57.7569 235.15V236.452C57.7569 238.384 56.4969 240.078 54.5649 240.764L55.1669 241.716C57.3369 240.904 58.7229 238.902 58.7229 236.452V235.15H57.7569ZM57.9669 235.15V236.41C57.9669 238.706 59.3249 240.568 61.3689 241.338L61.9989 240.428C60.1509 239.784 58.9189 238.202 58.9189 236.41V235.15H57.9669ZM63.8189 234.436V241.926H64.9809V234.436H63.8189ZM60.8229 242.29C58.2049 242.29 56.5949 243.172 56.5949 244.684C56.5949 246.196 58.2049 247.064 60.8229 247.064C63.4269 247.064 65.0369 246.196 65.0369 244.684C65.0369 243.172 63.4269 242.29 60.8229 242.29ZM60.8229 243.214C62.7269 243.214 63.8889 243.76 63.8889 244.684C63.8889 245.608 62.7269 246.154 60.8229 246.154C58.9189 246.154 57.7569 245.608 57.7569 244.684C57.7569 243.76 58.9189 243.214 60.8229 243.214ZM61.0749 237.11V238.076H64.0709V237.11H61.0749ZM73.4218 238.006V238.958H77.0618V238.006H73.4218ZM76.6978 234.45V243.816H77.8598V234.45H76.6978ZM69.7258 245.86V246.812H78.1678V245.86H69.7258ZM69.7258 242.906V246.35H70.8878V242.906H69.7258ZM68.0738 235.276V241.66H73.7858V235.276H72.6518V237.516H69.2218V235.276H68.0738ZM69.2218 238.426H72.6518V240.708H69.2218V238.426ZM80.8967 236.284V237.236H91.1727V236.284H80.8967ZM80.3367 244.656V245.622H91.8027V244.656H80.3367ZM85.4747 242.654V245.034H86.6227V242.654H85.4747ZM86.0347 238.09C83.4867 238.09 81.9047 238.972 81.9047 240.498C81.9047 242.024 83.4867 242.906 86.0347 242.906C88.5967 242.906 90.1787 242.024 90.1787 240.498C90.1787 238.972 88.5967 238.09 86.0347 238.09ZM86.0347 239C87.8827 239 89.0027 239.56 89.0027 240.498C89.0027 241.436 87.8827 241.982 86.0347 241.982C84.2007 241.982 83.0667 241.436 83.0667 240.498C83.0667 239.56 84.2007 239 86.0347 239ZM85.4747 234.646V236.872H86.6227V234.646H85.4747Z" fill="black"/>
<path d="M23.22 188L28.58 176.26H21.54V173.72H31.78V175.62L26.38 188H23.22Z" fill="#2F98AF"/>
<path d="M32.1 215.04H30.38V218H27.44V215.04H21.34V212.94L27.6 203.72H30.38V212.7H32.1V215.04ZM27.44 210.28C27.44 210.053 27.44 209.787 27.44 209.48C27.4533 209.16 27.4667 208.847 27.48 208.54C27.4933 208.22 27.5067 207.94 27.52 207.7C27.5333 207.447 27.5467 207.273 27.56 207.18H27.48C27.36 207.447 27.2333 207.707 27.1 207.96C26.9667 208.213 26.8067 208.473 26.62 208.74L24 212.7H27.44V210.28Z" fill="#2F98AF"/>
<path d="M29.26 248H26.24V239.74C26.24 239.513 26.24 239.233 26.24 238.9C26.2533 238.567 26.2667 238.22 26.28 237.86C26.2933 237.5 26.3067 237.18 26.32 236.9C26.2533 236.98 26.1067 237.127 25.88 237.34C25.6667 237.54 25.4667 237.72 25.28 237.88L23.64 239.2L22.18 237.38L26.78 233.72H29.26V248Z" fill="#2F98AF"/>
<path d="M31.22 266.92C31.22 267.573 31.08 268.14 30.8 268.62C30.5333 269.1 30.1667 269.493 29.7 269.8C29.2467 270.107 28.7267 270.333 28.14 270.48V270.54C29.2867 270.673 30.1533 271.02 30.74 271.58C31.34 272.14 31.64 272.893 31.64 273.84C31.64 274.667 31.4333 275.413 31.02 276.08C30.62 276.733 29.9933 277.253 29.14 277.64C28.3 278.013 27.2133 278.2 25.88 278.2C25.0933 278.2 24.36 278.133 23.68 278C23 277.867 22.36 277.673 21.76 277.42V274.86C22.3733 275.167 23.0133 275.4 23.68 275.56C24.36 275.72 24.9867 275.8 25.56 275.8C26.64 275.8 27.3933 275.613 27.82 275.24C28.26 274.867 28.48 274.34 28.48 273.66C28.48 273.26 28.38 272.927 28.18 272.66C27.98 272.38 27.6267 272.173 27.12 272.04C26.6267 271.893 25.9333 271.82 25.04 271.82H23.96V269.5H25.06C25.94 269.5 26.6067 269.42 27.06 269.26C27.5267 269.087 27.84 268.86 28 268.58C28.1733 268.287 28.26 267.953 28.26 267.58C28.26 267.073 28.1 266.68 27.78 266.4C27.4733 266.107 26.9533 265.96 26.22 265.96C25.7667 265.96 25.3533 266.02 24.98 266.14C24.6067 266.247 24.2667 266.38 23.96 266.54C23.6667 266.7 23.4067 266.853 23.18 267L21.78 264.92C22.1533 264.653 22.5667 264.413 23.02 264.2C23.4867 263.987 24 263.82 24.56 263.7C25.12 263.58 25.7467 263.52 26.44 263.52C27.9067 263.52 29.0667 263.82 29.92 264.42C30.7867 265.007 31.22 265.84 31.22 266.92Z" fill="#2F98AF"/>
<defs>
<filter id="filter0_d_0_1" x="0" y="0" width="321" height="392.468" filterUnits="userSpaceOnUse" color-interpolation-filters="sRGB">
<feFlood flood-opacity="0" result="BackgroundImageFix"/>
<feColorMatrix in="SourceAlpha" type="matrix" values="0 0 0 0 0 0 0 0 0 0 0 0 0 0 0 0 0 0 127 0" result="hardAlpha"/>
<feOffset dx="10" dy="10"/>
<feGaussianBlur stdDeviation="2"/>
<feComposite in2="hardAlpha" operator="out"/>
<feColorMatrix type="matrix" values="0 0 0 0 0 0 0 0 0 0 0 0 0 0 0 0 0 0 0.55 0"/>
<feBlend mode="normal" in2="BackgroundImageFix" result="effect1_dropShadow_0_1"/>
<feBlend mode="normal" in="SourceGraphic" in2="effect1_dropShadow_0_1" result="shape"/>
</filter>
</defs>
</svg>
