<svg width="327" height="403" viewBox="0 0 327 403" fill="none" xmlns="http://www.w3.org/2000/svg">
<g filter="url(#filter0_d_0_1)">
<path fill-rule="evenodd" clip-rule="evenodd" d="M61.7183 1.03255C60.9574 -0.344184 58.9783 -0.344182 58.2174 1.03255L43.9486 26.8497H20C8.95431 26.8497 0 35.804 0 46.8497V357.467C0 368.512 8.9543 377.467 20 377.467H287C298.046 377.467 307 368.512 307 357.467V46.8497C307 35.804 298.046 26.8497 287 26.8497H75.9872L61.7183 1.03255Z" fill="#DCF9FF"/>
</g>
<rect x="26" y="85.7075" width="36.4528" height="19.5283" rx="9.76415" fill="#F9ACCA" fill-opacity="0.7"/>
<rect x="49.4341" y="70.7358" width="34.5" height="34.5" rx="10" fill="#79DEE2" fill-opacity="0.7"/>
<path fill-rule="evenodd" clip-rule="evenodd" d="M119.736 105.236C119.736 95.8886 112.158 88.3113 102.811 88.3113C93.4641 88.3113 85.8867 95.8886 85.8867 105.236H119.736Z" fill="#B7ADF6" fill-opacity="0.7"/>
<ellipse cx="121.689" cy="88.9623" rx="13.0189" ry="16.2736" fill="#FDAA02" fill-opacity="0.7"/>
<path d="M137.451 77.7592C139.33 74.217 144.406 74.217 146.285 77.7592L157.139 98.218C158.906 101.548 156.492 105.561 152.722 105.561H131.014C127.244 105.561 124.83 101.548 126.597 98.218L137.451 77.7592Z" fill="#6BF200" fill-opacity="0.7"/>
<rect x="78.0754" y="46" width="14.3208" height="59.2358" rx="7.16038" fill="#FB5002" fill-opacity="0.7"/>
<circle cx="31.5331" cy="91.8915" r="0.976415" fill="black"/>
<circle cx="34.1368" cy="91.8915" r="0.976415" fill="black"/>
<circle cx="71.2406" cy="75.6179" r="0.976415" fill="black"/>
<circle cx="73.8443" cy="75.6179" r="0.976415" fill="black"/>
<circle cx="144.146" cy="87.3349" r="0.976415" fill="black"/>
<circle cx="146.75" cy="87.3349" r="0.976415" fill="black"/>
<ellipse cx="101.509" cy="92.8679" rx="0.650943" ry="1.30189" fill="black"/>
<ellipse cx="105.415" cy="92.8679" rx="0.650943" ry="1.30189" fill="black"/>
<path fill-rule="evenodd" clip-rule="evenodd" d="M80.6792 51.2075C80.6792 51.9265 81.2621 52.5094 81.9811 52.5094C82.7001 52.5094 83.283 51.9265 83.283 51.2075H82.6321C82.6321 51.567 82.3406 51.8585 81.9811 51.8585C81.6216 51.8585 81.3302 51.567 81.3302 51.2075H82.6321M81.3302 51.2075H80.6792Z" fill="black"/>
<path fill-rule="evenodd" clip-rule="evenodd" d="M121.689 77.8962C121.689 77.1772 121.106 76.5944 120.387 76.5944C119.668 76.5944 119.085 77.1772 119.085 77.8962L119.736 77.8962C119.736 77.5367 120.027 77.2453 120.387 77.2453C120.746 77.2453 121.038 77.5367 121.038 77.8962L119.736 77.8962M121.038 77.8962L121.689 77.8962Z" fill="black"/>
<path fill-rule="evenodd" clip-rule="evenodd" d="M83.9341 51.2075C83.9341 51.9265 84.517 52.5094 85.236 52.5094C85.955 52.5094 86.5379 51.9265 86.5379 51.2075H85.8868C85.8868 51.567 85.5954 51.8585 85.2358 51.8585C84.8763 51.8585 84.5849 51.567 84.5849 51.2075H85.8868M84.5849 51.2075H83.9341Z" fill="black"/>
<path fill-rule="evenodd" clip-rule="evenodd" d="M118.434 77.8962C118.434 77.1772 117.851 76.5944 117.132 76.5944C116.413 76.5944 115.83 77.1772 115.83 77.8962L116.481 77.8962C116.481 77.5367 116.772 77.2453 117.132 77.2453C117.491 77.2453 117.783 77.5367 117.783 77.8962L116.481 77.8962M117.783 77.8962L118.434 77.8962Z" fill="black"/>
<path d="M102.714 127.076V128.282H107.34V127.076H102.714ZM102.714 130.442V131.63H107.34V130.442H102.714ZM99.5282 125.672C97.0982 125.672 95.3342 127.202 95.3342 129.398C95.3342 131.558 97.0982 133.088 99.5282 133.088C101.958 133.088 103.722 131.558 103.722 129.398C103.722 127.202 101.958 125.672 99.5282 125.672ZM99.5282 126.914C101.13 126.914 102.3 127.94 102.3 129.398C102.3 130.838 101.13 131.864 99.5282 131.864C97.9262 131.864 96.7742 130.838 96.7742 129.398C96.7742 127.94 97.9262 126.914 99.5282 126.914ZM106.98 125.132V133.466H108.474V125.132H106.98ZM97.9982 134.294V135.482H106.998V137.102H98.0342V140.666H99.4922V138.218H108.474V134.294H97.9982ZM98.0342 140V141.188H109.068V140H98.0342ZM115.619 129.002V130.388C115.619 133.196 113.891 135.968 111.497 137.12L112.343 138.272C114.917 136.994 116.789 133.826 116.789 130.388V129.002H115.619ZM115.907 129.002V130.388C115.907 133.628 117.671 136.706 120.209 137.966L121.037 136.814C118.715 135.662 117.077 133.016 117.077 130.388V129.002H115.907ZM111.947 127.958V129.164H120.677V127.958H111.947ZM115.601 125.42V128.624H117.077V125.42H115.601ZM122.657 125.132V141.404H124.169V125.132H122.657ZM123.809 131.81V133.052H126.833V131.81H123.809ZM139.994 126.356V126.896C139.994 130.208 138.104 132.8 133.568 134.312L134.18 135.518C139.328 133.772 141.506 130.586 141.506 126.356H139.994ZM134.27 126.356V127.58H140.84V126.356H134.27ZM139.958 129.542L133.46 129.83L133.712 131.072L139.958 130.586V129.542ZM144.404 125.132V137.264H145.898V125.132H144.404ZM145.43 130.172V131.432H148.31V130.172H145.43ZM135.746 139.82V141.044H146.618V139.82H135.746ZM135.746 136.112V140.612H137.24V136.112H135.746ZM163.577 129.344V130.586H167.249V129.344H163.577ZM166.781 125.132V134.834H168.275V125.132H166.781ZM162.929 135.32C159.563 135.32 157.493 136.454 157.493 138.362C157.493 140.288 159.563 141.386 162.929 141.386C166.277 141.386 168.347 140.288 168.347 138.362C168.347 136.454 166.277 135.32 162.929 135.32ZM162.929 136.49C165.377 136.49 166.871 137.174 166.871 138.362C166.871 139.532 165.377 140.216 162.929 140.216C160.481 140.216 158.987 139.532 158.987 138.362C158.987 137.174 160.481 136.49 162.929 136.49ZM159.041 126.77V128.084C159.041 130.424 157.367 132.602 154.955 133.484L155.729 134.672C158.429 133.664 160.265 131.09 160.265 128.084V126.77H159.041ZM159.329 126.77V128.084C159.329 130.82 161.075 133.268 163.721 134.222L164.477 133.034C162.119 132.206 160.535 130.19 160.535 128.084V126.77H159.329ZM155.405 126.32V127.544H164.099V126.32H155.405ZM171.46 138.092V139.334H186.202V138.092H171.46ZM178.048 134.204V138.452H179.542V134.204H178.048ZM173.188 126.284V134.6H184.438V126.284H182.962V129.182H174.664V126.284H173.188ZM174.664 130.388H182.962V133.376H174.664V130.388ZM199.142 125.15V137.138H200.636V125.15H199.142ZM200.186 130.118V131.378H203.048V130.118H200.186ZM190.61 139.82V141.044H201.374V139.82H190.61ZM190.61 136.202V140.27H192.104V136.202H190.61ZM188.72 133.376V134.6H189.998C193.004 134.6 195.146 134.51 197.72 134.078L197.594 132.836C195.056 133.286 192.95 133.376 189.998 133.376H188.72ZM188.684 126.194V127.418H194.534V129.722H188.72V133.808H190.178V130.856H196.01V126.194H188.684ZM207.026 136.318V136.241C207.035 135.428 207.12 134.78 207.282 134.298C207.444 133.817 207.674 133.427 207.972 133.129C208.271 132.83 208.628 132.555 209.046 132.304C209.297 132.151 209.523 131.969 209.724 131.761C209.924 131.548 210.082 131.303 210.197 131.026C210.316 130.749 210.376 130.442 210.376 130.105C210.376 129.687 210.278 129.325 210.082 129.018C209.886 128.712 209.623 128.475 209.295 128.309C208.967 128.143 208.603 128.06 208.202 128.06C207.853 128.06 207.516 128.132 207.192 128.277C206.869 128.422 206.598 128.65 206.381 128.961C206.163 129.272 206.038 129.679 206.003 130.182H204.393C204.427 129.457 204.614 128.837 204.955 128.322C205.3 127.806 205.754 127.412 206.317 127.139C206.883 126.866 207.512 126.73 208.202 126.73C208.952 126.73 209.604 126.879 210.158 127.178C210.717 127.476 211.147 127.885 211.449 128.405C211.756 128.925 211.91 129.517 211.91 130.182C211.91 130.651 211.837 131.075 211.692 131.454C211.552 131.833 211.347 132.172 211.079 132.47C210.815 132.768 210.495 133.033 210.12 133.263C209.745 133.497 209.445 133.744 209.219 134.004C208.993 134.26 208.829 134.565 208.726 134.918C208.624 135.272 208.569 135.713 208.56 136.241V136.318H207.026ZM207.844 140.102C207.529 140.102 207.258 139.989 207.033 139.763C206.807 139.538 206.694 139.267 206.694 138.952C206.694 138.636 206.807 138.366 207.033 138.14C207.258 137.914 207.529 137.801 207.844 137.801C208.16 137.801 208.43 137.914 208.656 138.14C208.882 138.366 208.995 138.636 208.995 138.952C208.995 139.161 208.942 139.352 208.835 139.527C208.733 139.702 208.594 139.842 208.42 139.949C208.249 140.051 208.057 140.102 207.844 140.102ZM71.8336 148.59V156.132H79.3036V148.59H71.8336ZM77.8456 149.796V154.926H73.2916V149.796H77.8456ZM82.2916 147.114V159.048H83.7856V147.114H82.2916ZM83.3176 152.082V153.324H86.1976V152.082H83.3176ZM73.6516 161.82V163.044H84.5236V161.82H73.6516ZM73.6516 157.914V162.342H75.1456V157.914H73.6516ZM99.8942 149.598V150.858H102.72V149.598H99.8942ZM99.8942 153.09V154.332H102.72V153.09H99.8942ZM98.8502 147.132V156.798H100.344V147.132H98.8502ZM89.7782 157.572V158.778H98.8502V163.404H100.344V157.572H89.7782ZM92.2622 148.086C89.8142 148.086 88.0142 149.67 88.0142 151.956C88.0142 154.224 89.8142 155.79 92.2622 155.79C94.7102 155.79 96.5102 154.224 96.5102 151.956C96.5102 149.67 94.7102 148.086 92.2622 148.086ZM92.2622 149.364C93.8822 149.364 95.0522 150.408 95.0522 151.956C95.0522 153.486 93.8822 154.548 92.2622 154.548C90.6422 154.548 89.4722 153.486 89.4722 151.956C89.4722 150.408 90.6422 149.364 92.2622 149.364ZM110.211 162L116.067 150.418V150.315H109.317V148.909H117.703V150.392L111.873 162H110.211ZM118.724 159.315V158.011L124.477 148.909H125.423V150.929H124.784L120.437 157.807V157.909H128.184V159.315H118.724ZM124.886 162V158.919V158.312V148.909H126.395V162H124.886ZM135.006 148.909V162H133.421V150.571H133.344L130.148 152.693V151.082L133.421 148.909H135.006ZM143.194 162.179C142.351 162.179 141.599 162.034 140.938 161.744C140.282 161.455 139.76 161.052 139.372 160.536C138.988 160.016 138.78 159.413 138.746 158.727H140.356C140.39 159.149 140.535 159.513 140.791 159.82C141.047 160.123 141.381 160.357 141.795 160.523C142.208 160.69 142.666 160.773 143.169 160.773C143.731 160.773 144.23 160.675 144.665 160.479C145.099 160.283 145.44 160.01 145.687 159.661C145.934 159.311 146.058 158.906 146.058 158.446C146.058 157.964 145.939 157.54 145.7 157.174C145.461 156.803 145.112 156.513 144.652 156.305C144.192 156.096 143.629 155.991 142.964 155.991H141.916V154.585H142.964C143.484 154.585 143.94 154.491 144.332 154.304C144.729 154.116 145.037 153.852 145.259 153.511C145.485 153.17 145.598 152.77 145.598 152.31C145.598 151.866 145.5 151.481 145.304 151.153C145.108 150.825 144.831 150.569 144.473 150.386C144.119 150.202 143.702 150.111 143.22 150.111C142.768 150.111 142.342 150.194 141.942 150.36C141.545 150.522 141.221 150.759 140.97 151.07C140.719 151.376 140.582 151.747 140.561 152.182H139.027C139.052 151.496 139.259 150.895 139.647 150.379C140.035 149.859 140.542 149.455 141.168 149.165C141.799 148.875 142.491 148.73 143.246 148.73C144.055 148.73 144.75 148.894 145.329 149.222C145.909 149.546 146.354 149.974 146.665 150.507C146.976 151.04 147.132 151.615 147.132 152.233C147.132 152.97 146.938 153.599 146.55 154.119C146.167 154.638 145.645 154.999 144.984 155.199V155.301C145.811 155.437 146.456 155.789 146.921 156.356C147.385 156.918 147.618 157.615 147.618 158.446C147.618 159.158 147.424 159.797 147.036 160.364C146.653 160.926 146.128 161.369 145.464 161.693C144.799 162.017 144.042 162.179 143.194 162.179ZM150.497 149.508V150.732H163.709V149.508H150.497ZM149.777 160.272V161.514H164.519V160.272H149.777ZM156.383 157.698V160.758H157.859V157.698H156.383ZM157.103 151.83C153.827 151.83 151.793 152.964 151.793 154.926C151.793 156.888 153.827 158.022 157.103 158.022C160.397 158.022 162.431 156.888 162.431 154.926C162.431 152.964 160.397 151.83 157.103 151.83ZM157.103 153C159.479 153 160.919 153.72 160.919 154.926C160.919 156.132 159.479 156.834 157.103 156.834C154.745 156.834 153.287 156.132 153.287 154.926C153.287 153.72 154.745 153 157.103 153ZM156.383 147.402V150.264H157.859V147.402H156.383ZM179.012 149.076V150.282H183.638V149.076H179.012ZM179.012 152.442V153.63H183.638V152.442H179.012ZM175.826 147.672C173.396 147.672 171.632 149.202 171.632 151.398C171.632 153.558 173.396 155.088 175.826 155.088C178.256 155.088 180.02 153.558 180.02 151.398C180.02 149.202 178.256 147.672 175.826 147.672ZM175.826 148.914C177.428 148.914 178.598 149.94 178.598 151.398C178.598 152.838 177.428 153.864 175.826 153.864C174.224 153.864 173.072 152.838 173.072 151.398C173.072 149.94 174.224 148.914 175.826 148.914ZM183.278 147.132V155.466H184.772V147.132H183.278ZM174.296 156.294V157.482H183.296V159.102H174.332V162.666H175.79V160.218H184.772V156.294H174.296ZM174.332 162V163.188H185.366V162H174.332ZM191.917 151.002V152.388C191.917 155.196 190.189 157.968 187.795 159.12L188.641 160.272C191.215 158.994 193.087 155.826 193.087 152.388V151.002H191.917ZM192.205 151.002V152.388C192.205 155.628 193.969 158.706 196.507 159.966L197.335 158.814C195.013 157.662 193.375 155.016 193.375 152.388V151.002H192.205ZM188.245 149.958V151.164H196.975V149.958H188.245ZM191.899 147.42V150.624H193.375V147.42H191.899ZM198.955 147.132V163.404H200.467V147.132H198.955ZM200.107 153.81V155.052H203.131V153.81H200.107ZM215.531 147.114V163.422H217.025V147.114H215.531ZM216.665 153.594V154.854H219.689V153.594H216.665ZM205.163 158.256V159.498H206.459C209.573 159.498 211.733 159.372 214.271 158.922L214.109 157.68C211.643 158.148 209.519 158.256 206.459 158.256H205.163ZM205.127 148.644V149.868H211.013V153.252H205.163V158.76H206.639V154.476H212.489V148.644H205.127ZM228.868 149.994V151.218H233.422V149.994H228.868ZM228.868 153.468V154.71H233.458V153.468H228.868ZM221.812 148.536V156.168H229.246V148.536H221.812ZM227.77 149.742V154.962H223.27V149.742H227.77ZM232.954 147.15V159.03H234.448V147.15H232.954ZM223.99 161.82V163.044H234.844V161.82H223.99ZM223.99 157.95V162.378H225.484V157.95H223.99ZM93.4285 193.922V194.624C93.4285 196.82 91.8265 198.836 89.4145 199.646L90.1525 200.816C92.8525 199.88 94.6525 197.468 94.6525 194.624V193.922H93.4285ZM93.6985 193.922V194.624C93.6985 197.252 95.4625 199.52 98.1625 200.384L98.8645 199.232C96.5065 198.476 94.9225 196.604 94.9225 194.624V193.922H93.6985ZM89.8285 193.04V194.246H98.5045V193.04H89.8285ZM93.4285 191.06V193.544H94.9225V191.06H93.4285ZM98.0365 195.722V196.964H101.691V195.722H98.0365ZM101.277 191.132V202.4H102.771V191.132H101.277ZM96.7585 201.32V201.662C96.7585 203.876 94.1845 205.676 91.3045 206.162L91.8805 207.35C95.1925 206.756 98.0365 204.596 98.0365 201.662V201.32H96.7585ZM97.0105 201.32V201.662C97.0105 204.668 99.8725 206.738 103.167 207.35L103.761 206.162C100.845 205.676 98.2885 203.93 98.2885 201.662V201.32H97.0105ZM113.605 195.722V196.946H118.285V195.722H113.605ZM117.817 191.15V203.192H119.311V191.15H117.817ZM108.853 205.82V207.044H119.707V205.82H108.853ZM108.853 202.022V206.45H110.347V202.022H108.853ZM106.729 192.212V200.42H114.073V192.212H112.615V195.092H108.205V192.212H106.729ZM108.205 196.262H112.615V199.196H108.205V196.262ZM135.114 191.132V207.404H136.518V191.132H135.114ZM132.828 197.756V198.98H135.618V197.756H132.828ZM131.964 191.474V206.594H133.35V191.474H131.964ZM124.404 193.832V196.01C124.404 198.008 124.026 200.978 122.172 202.472L123.018 203.498C125.034 201.896 125.448 198.458 125.448 196.01V193.832H124.404ZM124.692 193.832V196.01C124.692 198.008 124.854 201.896 126.942 203.678L127.698 202.598C125.826 200.87 125.718 197.612 125.718 196.01V193.832H124.692ZM128.166 193.832V196.01C128.166 197.9 128.04 200.978 126.168 202.598L126.942 203.678C128.994 201.968 129.192 198.332 129.192 196.01V193.832H128.166ZM128.436 193.832V196.01C128.436 198.548 128.85 201.914 130.848 203.498L131.712 202.472C129.84 200.996 129.462 198.098 129.462 196.01V193.832H128.436ZM122.712 193.112V194.318H126.69V193.112H122.712ZM127.194 193.112V194.318H131.046V193.112H127.194ZM144.981 206L150.836 194.418V194.315H144.086V192.909H152.472V194.392L146.643 206H144.981ZM154.382 199.682V200.906H169.088V199.682H154.382ZM156.29 205.82V207.044H167.468V205.82H156.29ZM156.29 202.328V206.198H157.784V202.328H156.29ZM161.744 191.672C158.252 191.672 156.02 192.896 156.02 194.93C156.02 196.946 158.252 198.17 161.744 198.17C165.218 198.17 167.468 196.946 167.468 194.93C167.468 192.896 165.218 191.672 161.744 191.672ZM161.744 192.896C164.3 192.896 165.938 193.652 165.938 194.93C165.938 196.208 164.3 196.964 161.744 196.964C159.188 196.964 157.55 196.208 157.55 194.93C157.55 193.652 159.188 192.896 161.744 192.896ZM176.885 206L182.74 194.418V194.315H175.99V192.909H184.377V194.392L178.547 206H176.885ZM187.024 193.508V194.732H200.236V193.508H187.024ZM186.304 204.272V205.514H201.046V204.272H186.304ZM192.91 201.698V204.758H194.386V201.698H192.91ZM193.63 195.83C190.354 195.83 188.32 196.964 188.32 198.926C188.32 200.888 190.354 202.022 193.63 202.022C196.924 202.022 198.958 200.888 198.958 198.926C198.958 196.964 196.924 195.83 193.63 195.83ZM193.63 197C196.006 197 197.446 197.72 197.446 198.926C197.446 200.132 196.006 200.834 193.63 200.834C191.272 200.834 189.814 200.132 189.814 198.926C189.814 197.72 191.272 197 193.63 197ZM192.91 191.402V194.264H194.386V191.402H192.91ZM211.197 194.966V196.208H215.301V194.966H211.197ZM206.931 192.122V194.12C206.931 196.604 205.293 198.908 202.881 199.808L203.655 200.996C206.373 199.898 208.137 197.27 208.137 194.12V192.122H206.931ZM207.219 192.122V194.174C207.219 197.072 208.965 199.592 211.557 200.6L212.367 199.448C210.009 198.584 208.425 196.442 208.425 194.174V192.122H207.219ZM214.743 191.15V203.318H216.237V191.15H214.743ZM205.779 205.82V207.044H216.633V205.82H205.779ZM205.779 201.968V206.396H207.273V201.968H205.779ZM33.9316 219.18V220.404H44.8036V219.18H33.9316ZM31.8976 222.51V223.752H46.6576V222.51H31.8976ZM38.4856 223.194V229.35H39.9616V223.194H38.4856ZM33.9316 214.086V219.774H35.4436V215.31H44.5876V214.086H33.9316ZM56.1422 217.722V218.946H60.8222V217.722H56.1422ZM60.3542 213.15V225.192H61.8482V213.15H60.3542ZM51.3902 227.82V229.044H62.2442V227.82H51.3902ZM51.3902 224.022V228.45H52.8842V224.022H51.3902ZM49.2662 214.212V222.42H56.6102V214.212H55.1522V217.092H50.7422V214.212H49.2662ZM50.7422 218.262H55.1522V221.196H50.7422V218.262ZM77.6508 213.132V229.404H79.0548V213.132H77.6508ZM75.3648 219.756V220.98H78.1548V219.756H75.3648ZM74.5008 213.474V228.594H75.8868V213.474H74.5008ZM66.9408 215.832V218.01C66.9408 220.008 66.5628 222.978 64.7088 224.472L65.5548 225.498C67.5708 223.896 67.9848 220.458 67.9848 218.01V215.832H66.9408ZM67.2288 215.832V218.01C67.2288 220.008 67.3908 223.896 69.4788 225.678L70.2348 224.598C68.3628 222.87 68.2548 219.612 68.2548 218.01V215.832H67.2288ZM70.7028 215.832V218.01C70.7028 219.9 70.5768 222.978 68.7048 224.598L69.4788 225.678C71.5308 223.968 71.7288 220.332 71.7288 218.01V215.832H70.7028ZM70.9728 215.832V218.01C70.9728 220.548 71.3868 223.914 73.3848 225.498L74.2488 224.472C72.3768 222.996 71.9988 220.098 71.9988 218.01V215.832H70.9728ZM65.2488 215.112V216.318H69.2268V215.112H65.2488ZM69.7308 215.112V216.318H73.5828V215.112H69.7308ZM81.7397 225.315V224.011L87.4925 214.909H88.4386V216.929H87.7994L83.4528 223.807V223.909H91.1999V225.315H81.7397ZM87.9016 228V224.919V224.312V214.909H89.4102V228H87.9016ZM95.1202 218.01V219.234H106.172V218.01H95.1202ZM93.1222 221.412V222.636H107.882V221.412H93.1222ZM95.1202 213.726V218.622H96.5962V213.726H95.1202ZM95.0122 227.784V229.008H106.262V227.784H95.0122ZM95.0122 224.256V228.108H96.4882V224.256H95.0122ZM122.375 215.076V216.282H127.001V215.076H122.375ZM122.375 218.442V219.63H127.001V218.442H122.375ZM119.189 213.672C116.759 213.672 114.995 215.202 114.995 217.398C114.995 219.558 116.759 221.088 119.189 221.088C121.619 221.088 123.383 219.558 123.383 217.398C123.383 215.202 121.619 213.672 119.189 213.672ZM119.189 214.914C120.791 214.914 121.961 215.94 121.961 217.398C121.961 218.838 120.791 219.864 119.189 219.864C117.587 219.864 116.435 218.838 116.435 217.398C116.435 215.94 117.587 214.914 119.189 214.914ZM126.641 213.132V221.466H128.135V213.132H126.641ZM117.659 222.294V223.482H126.659V225.102H117.695V228.666H119.153V226.218H128.135V222.294H117.659ZM117.695 228V229.188H128.729V228H117.695ZM135.28 217.002V218.388C135.28 221.196 133.552 223.968 131.158 225.12L132.004 226.272C134.578 224.994 136.45 221.826 136.45 218.388V217.002H135.28ZM135.568 217.002V218.388C135.568 221.628 137.332 224.706 139.87 225.966L140.698 224.814C138.376 223.662 136.738 221.016 136.738 218.388V217.002H135.568ZM131.608 215.958V217.164H140.338V215.958H131.608ZM135.262 213.42V216.624H136.738V213.42H135.262ZM142.318 213.132V229.404H143.83V213.132H142.318ZM143.47 219.81V221.052H146.494V219.81H143.47ZM154.593 214.356V214.896C154.593 218.208 152.703 220.8 148.167 222.312L148.779 223.518C153.927 221.772 156.105 218.586 156.105 214.356H154.593ZM148.869 214.356V215.58H155.439V214.356H148.869ZM154.557 217.542L148.059 217.83L148.311 219.072L154.557 218.586V217.542ZM159.003 213.132V225.264H160.497V213.132H159.003ZM160.029 218.172V219.432H162.909V218.172H160.029ZM150.345 227.82V229.044H161.217V227.82H150.345ZM150.345 224.112V228.612H151.839V224.112H150.345ZM176.245 213.114V229.422H177.739V213.114H176.245ZM169.153 214.374C166.759 214.374 165.031 216.588 165.031 220.044C165.031 223.518 166.759 225.732 169.153 225.732C171.565 225.732 173.293 223.518 173.293 220.044C173.293 216.588 171.565 214.374 169.153 214.374ZM169.153 215.724C170.755 215.724 171.853 217.416 171.853 220.044C171.853 222.69 170.755 224.418 169.153 224.418C167.569 224.418 166.453 222.69 166.453 220.044C166.453 217.416 167.569 215.724 169.153 215.724ZM186.206 225.315V224.011L191.959 214.909H192.905V216.929H192.266L187.92 223.807V223.909H195.667V225.315H186.206ZM192.368 228V224.919V224.312V214.909H193.877V228H192.368ZM209.775 215.67V216.912H212.637V215.67H209.775ZM209.775 219.09V220.332H212.637V219.09H209.775ZM208.731 213.132V222.978H210.225V213.132H208.731ZM198.309 220.8V222.042H199.587C202.593 222.042 204.735 221.934 207.309 221.502L207.183 220.26C204.645 220.71 202.539 220.8 199.587 220.8H198.309ZM198.273 214.14V215.364H204.123V217.398H198.309V221.592H199.767V218.568H205.599V214.14H198.273ZM205.023 223.464C201.711 223.464 199.677 224.544 199.677 226.416C199.677 228.306 201.711 229.386 205.023 229.386C208.353 229.386 210.369 228.306 210.369 226.416C210.369 224.544 208.353 223.464 205.023 223.464ZM205.023 224.634C207.453 224.634 208.929 225.282 208.929 226.416C208.929 227.568 207.453 228.216 205.023 228.216C202.593 228.216 201.135 227.568 201.135 226.416C201.135 225.282 202.593 224.634 205.023 224.634ZM215.183 222.477C215.183 220.866 215.392 219.386 215.81 218.035C216.232 216.68 216.832 215.433 217.612 214.295H218.942C218.635 214.717 218.347 215.237 218.079 215.855C217.815 216.469 217.582 217.144 217.382 217.881C217.182 218.614 217.024 219.373 216.909 220.157C216.798 220.941 216.743 221.714 216.743 222.477C216.743 223.491 216.841 224.521 217.037 225.565C217.233 226.609 217.497 227.578 217.83 228.473C218.162 229.368 218.533 230.097 218.942 230.659H217.612C216.832 229.521 216.232 228.277 215.81 226.926C215.392 225.571 215.183 224.088 215.183 222.477ZM227.401 214.356V214.896C227.401 218.208 225.511 220.8 220.975 222.312L221.587 223.518C226.735 221.772 228.913 218.586 228.913 214.356H227.401ZM221.677 214.356V215.58H228.247V214.356H221.677ZM227.365 217.542L220.867 217.83L221.119 219.072L227.365 218.586V217.542ZM231.811 213.132V225.264H233.305V213.132H231.811ZM232.837 218.172V219.432H235.717V218.172H232.837ZM223.153 227.82V229.044H234.025V227.82H223.153ZM223.153 224.112V228.612H224.647V224.112H223.153ZM240.948 222.477C240.948 224.088 240.737 225.571 240.315 226.926C239.898 228.277 239.299 229.521 238.519 230.659H237.189C237.496 230.237 237.782 229.717 238.046 229.099C238.314 228.486 238.549 227.812 238.749 227.08C238.949 226.342 239.105 225.582 239.216 224.798C239.331 224.009 239.388 223.236 239.388 222.477C239.388 221.463 239.29 220.434 239.094 219.39C238.898 218.346 238.634 217.376 238.302 216.482C237.969 215.587 237.599 214.858 237.189 214.295H238.519C239.299 215.433 239.898 216.68 240.315 218.035C240.737 219.386 240.948 220.866 240.948 222.477ZM255.593 213.15V222.438H257.105V213.15H255.593ZM246.593 223.32V229.188H257.105V223.32H246.593ZM255.629 224.508V227.982H248.051V224.508H255.629ZM248.375 213.996C245.909 213.996 244.127 215.544 244.127 217.794C244.127 220.044 245.909 221.592 248.375 221.592C250.841 221.592 252.605 220.044 252.605 217.794C252.605 215.544 250.841 213.996 248.375 213.996ZM248.375 215.238C249.995 215.238 251.165 216.282 251.165 217.794C251.165 219.306 249.995 220.332 248.375 220.332C246.755 220.332 245.585 219.306 245.585 217.794C245.585 216.282 246.755 215.238 248.375 215.238ZM267.67 213.402C264.07 213.402 261.946 214.41 261.946 216.228C261.946 218.046 264.07 219.054 267.67 219.054C271.252 219.054 273.394 218.046 273.394 216.228C273.394 214.41 271.252 213.402 267.67 213.402ZM267.67 214.536C270.316 214.536 271.846 215.148 271.846 216.228C271.846 217.308 270.316 217.92 267.67 217.92C265.006 217.92 263.476 217.308 263.476 216.228C263.476 215.148 265.006 214.536 267.67 214.536ZM260.308 220.134V221.34H275.014V220.134H260.308ZM262.09 222.726V223.878H271.666V225.318H262.126V228.378H263.602V226.398H273.142V222.726H262.09ZM262.126 228.054V229.224H273.628V228.054H262.126ZM64.6732 240.946V242.188H67.7872V240.946H64.6732ZM61.6312 236.662V239.758C61.6312 242.548 60.2992 245.464 58.0672 246.778L59.0032 247.912C61.3792 246.454 62.8012 243.16 62.8012 239.758V236.662H61.6312ZM61.9192 236.662V239.704C61.9192 242.872 63.2332 246.112 65.5732 247.552L66.4372 246.382C64.2952 245.086 63.0712 242.314 63.0712 239.704V236.662H61.9192ZM70.6492 235.132V251.404H72.0892V235.132H70.6492ZM67.3552 235.474V250.594H68.7592V235.474H67.3552ZM82.4918 239.722V240.946H87.1718V239.722H82.4918ZM86.7038 235.15V247.192H88.1978V235.15H86.7038ZM77.7398 249.82V251.044H88.5938V249.82H77.7398ZM77.7398 246.022V250.45H79.2338V246.022H77.7398ZM75.6158 236.212V244.42H82.9598V236.212H81.5018V239.092H77.0918V236.212H75.6158ZM77.0918 240.262H81.5018V243.196H77.0918V240.262ZM104 235.132V251.404H105.404V235.132H104ZM101.714 241.756V242.98H104.504V241.756H101.714ZM100.85 235.474V250.594H102.236V235.474H100.85ZM93.2904 237.832V240.01C93.2904 242.008 92.9124 244.978 91.0584 246.472L91.9044 247.498C93.9204 245.896 94.3344 242.458 94.3344 240.01V237.832H93.2904ZM93.5784 237.832V240.01C93.5784 242.008 93.7404 245.896 95.8284 247.678L96.5844 246.598C94.7124 244.87 94.6044 241.612 94.6044 240.01V237.832H93.5784ZM97.0524 237.832V240.01C97.0524 241.9 96.9264 244.978 95.0544 246.598L95.8284 247.678C97.8804 245.968 98.0784 242.332 98.0784 240.01V237.832H97.0524ZM97.3224 237.832V240.01C97.3224 242.548 97.7364 245.914 99.7344 247.498L100.598 246.472C98.7264 244.996 98.3484 242.098 98.3484 240.01V237.832H97.3224ZM91.5984 237.112V238.318H95.5764V237.112H91.5984ZM96.0804 237.112V238.318H99.9324V237.112H96.0804ZM112.045 243.34V247.228H113.539V243.34H112.045ZM112.783 236.176C110.281 236.176 108.481 237.742 108.481 240.01C108.481 242.278 110.281 243.844 112.783 243.844C115.285 243.844 117.085 242.278 117.085 240.01C117.085 237.742 115.285 236.176 112.783 236.176ZM112.783 237.454C114.439 237.454 115.627 238.498 115.627 240.01C115.627 241.522 114.439 242.566 112.783 242.566C111.127 242.566 109.939 241.522 109.939 240.01C109.939 238.498 111.127 237.454 112.783 237.454ZM118.939 235.132V251.404H120.433V235.132H118.939ZM120.001 241.828V243.088H123.007V241.828H120.001ZM107.959 247.894C110.803 247.894 114.601 247.858 118.039 247.282L117.913 246.166C114.601 246.616 110.677 246.634 107.743 246.652L107.959 247.894ZM130.336 236.878V246.418H131.812V236.878H130.336ZM130.336 245.986V247.282H131.38C133.342 247.282 135.16 247.192 137.284 246.76L137.086 245.482C135.034 245.896 133.27 245.986 131.38 245.986H130.336ZM141.946 235.132V251.404H143.386V235.132H141.946ZM134.854 240.586V241.828H138.922V240.586H134.854ZM138.508 235.51V250.576H139.912V235.51H138.508ZM153.789 239.722V240.946H158.469V239.722H153.789ZM158.001 235.15V247.192H159.495V235.15H158.001ZM149.037 249.82V251.044H159.891V249.82H149.037ZM149.037 246.022V250.45H150.531V246.022H149.037ZM146.913 236.212V244.42H154.257V236.212H152.799V239.092H148.389V236.212H146.913ZM148.389 240.262H152.799V243.196H148.389V240.262ZM175.297 235.132V251.404H176.701V235.132H175.297ZM173.011 241.756V242.98H175.801V241.756H173.011ZM172.147 235.474V250.594H173.533V235.474H172.147ZM164.587 237.832V240.01C164.587 242.008 164.209 244.978 162.355 246.472L163.201 247.498C165.217 245.896 165.631 242.458 165.631 240.01V237.832H164.587ZM164.875 237.832V240.01C164.875 242.008 165.037 245.896 167.125 247.678L167.881 246.598C166.009 244.87 165.901 241.612 165.901 240.01V237.832H164.875ZM168.349 237.832V240.01C168.349 241.9 168.223 244.978 166.351 246.598L167.125 247.678C169.177 245.968 169.375 242.332 169.375 240.01V237.832H168.349ZM168.619 237.832V240.01C168.619 242.548 169.033 245.914 171.031 247.498L171.895 246.472C170.023 244.996 169.645 242.098 169.645 240.01V237.832H168.619ZM162.895 237.112V238.318H166.873V237.112H162.895ZM167.377 237.112V238.318H171.229V237.112H167.377ZM181.218 240.01V241.234H192.27V240.01H181.218ZM179.22 243.412V244.636H193.98V243.412H179.22ZM181.218 235.726V240.622H182.694V235.726H181.218ZM181.11 249.784V251.008H192.36V249.784H181.11ZM181.11 246.256V250.108H182.586V246.256H181.11ZM200.841 242.53V243.772H215.601V242.53H200.841ZM207.447 243.088V245.572H208.905V243.088H207.447ZM207.411 246.328V246.832C207.411 248.56 204.855 249.892 201.921 250.198L202.407 251.35C205.809 250.954 208.689 249.316 208.689 246.832V246.328H207.411ZM207.663 246.328V246.832C207.663 249.37 210.561 250.954 213.945 251.35L214.431 250.198C211.479 249.91 208.941 248.614 208.941 246.832V246.328H207.663ZM207.447 235.33V236.05C207.447 238.102 204.603 239.812 201.669 240.19L202.209 241.342C205.575 240.856 208.725 238.858 208.725 236.05V235.33H207.447ZM207.681 235.33V236.05C207.681 238.822 210.867 240.856 214.179 241.342L214.719 240.19C211.839 239.812 208.959 238.048 208.959 236.05V235.33H207.681ZM221.432 237.454V240.1C221.432 242.854 219.47 245.95 217.148 247.084L218.012 248.272C220.55 246.976 222.62 243.484 222.62 240.1V237.454H221.432ZM221.702 237.454V240.1C221.702 243.322 223.664 246.598 226.238 247.876L227.084 246.688C224.726 245.572 222.89 242.674 222.89 240.1V237.454H221.702ZM217.724 236.788V238.048H226.49V236.788H217.724ZM228.416 235.132V251.404H229.928V235.132H228.416ZM229.568 241.702V242.962H232.592V241.702H229.568ZM235.956 240.01V241.234H247.008V240.01H235.956ZM233.958 243.412V244.636H248.718V243.412H233.958ZM235.956 235.726V240.622H237.432V235.726H235.956ZM235.848 249.784V251.008H247.098V249.784H235.848ZM235.848 246.256V250.108H237.324V246.256H235.848ZM52.5638 259.076V260.282H57.1898V259.076H52.5638ZM52.5638 262.442V263.63H57.1898V262.442H52.5638ZM49.3778 257.672C46.9478 257.672 45.1838 259.202 45.1838 261.398C45.1838 263.558 46.9478 265.088 49.3778 265.088C51.8078 265.088 53.5718 263.558 53.5718 261.398C53.5718 259.202 51.8078 257.672 49.3778 257.672ZM49.3778 258.914C50.9798 258.914 52.1498 259.94 52.1498 261.398C52.1498 262.838 50.9798 263.864 49.3778 263.864C47.7758 263.864 46.6238 262.838 46.6238 261.398C46.6238 259.94 47.7758 258.914 49.3778 258.914ZM56.8298 257.132V265.466H58.3238V257.132H56.8298ZM47.8478 266.294V267.482H56.8478V269.102H47.8838V272.666H49.3418V270.218H58.3238V266.294H47.8478ZM47.8838 272V273.188H58.9178V272H47.8838ZM65.4684 261.002V262.388C65.4684 265.196 63.7404 267.968 61.3464 269.12L62.1924 270.272C64.7664 268.994 66.6384 265.826 66.6384 262.388V261.002H65.4684ZM65.7564 261.002V262.388C65.7564 265.628 67.5204 268.706 70.0584 269.966L70.8864 268.814C68.5644 267.662 66.9264 265.016 66.9264 262.388V261.002H65.7564ZM61.7964 259.958V261.164H70.5264V259.958H61.7964ZM65.4504 257.42V260.624H66.9264V257.42H65.4504ZM72.5064 257.132V273.404H74.0184V257.132H72.5064ZM73.6584 263.81V265.052H76.6824V263.81H73.6584ZM95.0095 257.132V269.246H96.5035V257.132H95.0095ZM83.5975 258.446V259.67H92.1655V258.446H83.5975ZM83.3275 266.798C85.9735 266.798 89.6275 266.744 92.7595 266.24L92.6695 265.124C89.6275 265.484 85.8295 265.52 83.1655 265.52L83.3275 266.798ZM85.2175 259.49V265.736H86.6575V259.49H85.2175ZM89.1055 259.49V265.736H90.5455V259.49H89.1055ZM92.3095 260.21V261.434H95.8015V260.21H92.3095ZM92.3095 263.324V264.548H95.8015V263.324H92.3095ZM86.0995 271.82V273.044H96.9355V271.82H86.0995ZM86.0995 268.256V272.594H87.5935V268.256H86.0995ZM103.774 258.05V259.724C103.774 262.208 102.154 264.386 99.6701 265.268L100.444 266.492C103.234 265.448 105.016 262.874 105.016 259.724V258.05H103.774ZM104.044 258.05V259.67C104.044 262.622 105.79 265.016 108.418 266.006L109.228 264.836C106.852 264.008 105.268 261.974 105.268 259.67V258.05H104.044ZM111.568 257.132V266.762H113.062V257.132H111.568ZM107.716 267.23C104.35 267.23 102.28 268.364 102.28 270.308C102.28 272.252 104.35 273.368 107.716 273.368C111.064 273.368 113.134 272.252 113.134 270.308C113.134 268.364 111.064 267.23 107.716 267.23ZM107.716 268.418C110.164 268.418 111.658 269.12 111.658 270.308C111.658 271.496 110.164 272.198 107.716 272.198C105.268 272.198 103.774 271.496 103.774 270.308C103.774 269.12 105.268 268.418 107.716 268.418ZM108.04 260.57V261.812H111.892V260.57H108.04ZM128.977 261.722V262.946H133.657V261.722H128.977ZM133.189 257.15V269.192H134.683V257.15H133.189ZM124.225 271.82V273.044H135.079V271.82H124.225ZM124.225 268.022V272.45H125.719V268.022H124.225ZM122.101 258.212V266.42H129.445V258.212H127.987V261.092H123.577V258.212H122.101ZM123.577 262.262H127.987V265.196H123.577V262.262ZM138.588 259.508V260.732H151.8V259.508H138.588ZM137.868 270.272V271.514H152.61V270.272H137.868ZM144.474 267.698V270.758H145.95V267.698H144.474ZM145.194 261.83C141.918 261.83 139.884 262.964 139.884 264.926C139.884 266.888 141.918 268.022 145.194 268.022C148.488 268.022 150.522 266.888 150.522 264.926C150.522 262.964 148.488 261.83 145.194 261.83ZM145.194 263C147.57 263 149.01 263.72 149.01 264.926C149.01 266.132 147.57 266.834 145.194 266.834C142.836 266.834 141.378 266.132 141.378 264.926C141.378 263.72 142.836 263 145.194 263ZM144.474 257.402V260.264H145.95V257.402H144.474ZM154.408 264.692V265.826H169.168V264.692H154.408ZM156.154 267.14V268.202H165.856V269.588H156.208V272.522H157.684V270.614H167.314V267.14H156.154ZM156.208 272.126V273.206H167.836V272.126H156.208ZM156.28 257.6V258.662H165.802V259.976H156.316V262.748H157.792V260.984H167.26V257.6H156.28ZM156.316 262.388V263.468H167.566V262.388H156.316ZM187.171 257.132V265.412H188.665V257.132H187.171ZM188.017 260.624V261.866H191.059V260.624H188.017ZM178.333 266.186V267.374H187.207V269.048H178.369V272.612H179.845V270.182H188.665V266.186H178.333ZM178.369 271.982V273.188H189.259V271.982H178.369ZM180.529 257.708C178.117 257.708 176.335 259.202 176.335 261.326C176.335 263.468 178.117 264.962 180.529 264.962C182.977 264.962 184.741 263.468 184.741 261.326C184.741 259.202 182.977 257.708 180.529 257.708ZM180.529 258.932C182.131 258.932 183.301 259.922 183.301 261.326C183.301 262.748 182.131 263.738 180.529 263.738C178.963 263.738 177.793 262.748 177.793 261.326C177.793 259.922 178.963 258.932 180.529 258.932ZM204.486 257.114V273.422H205.98V257.114H204.486ZM201.282 260.84V262.064H204.882V260.84H201.282ZM193.2 268.382V269.642H194.406C196.98 269.642 199.068 269.552 201.624 269.156L201.48 267.914C198.996 268.31 196.926 268.382 194.406 268.382H193.2ZM193.164 258.59V259.832H198.798V263.198H193.2V268.67H194.676V264.422H200.274V258.59H193.164ZM201.174 265.286V266.51H204.774V265.286H201.174ZM215.753 265.124V267.95H217.247V265.124H215.753ZM215.537 258.212V258.716C215.537 260.534 212.891 261.992 209.957 262.298L210.497 263.486C213.881 263.072 216.869 261.326 216.869 258.716V258.212H215.537ZM216.167 258.212V258.716C216.167 261.308 219.155 263.072 222.521 263.486L223.061 262.298C220.127 261.992 217.481 260.534 217.481 258.716V258.212H216.167ZM210.497 257.69V258.914H222.539V257.69H210.497ZM211.019 266.942V273.188H221.963V266.942H220.487V268.832H212.495V266.942H211.019ZM212.495 270.002H220.487V271.982H212.495V270.002ZM209.147 264.476V265.682H223.853V264.476H209.147ZM237.549 257.132V273.404H239.043V257.132H237.549ZM226.749 258.716V268.796H228.225V258.716H226.749ZM226.749 267.914V269.21H228.081C230.655 269.21 233.229 269.012 236.055 268.436L235.875 267.158C233.121 267.734 230.547 267.914 228.081 267.914H226.749ZM253.28 257.114V273.422H254.792V257.114H253.28ZM254.432 263.54V264.8H257.456V263.54H254.432ZM242.966 268.112V269.372H244.244C247.304 269.372 249.446 269.282 251.948 268.814L251.786 267.554C249.356 268.004 247.25 268.112 244.244 268.112H242.966ZM242.966 258.698V268.67H244.442V259.922H250.526V258.698H242.966ZM261.315 258.909L261.188 268.318H259.705L259.577 258.909H261.315ZM260.446 272.102C260.131 272.102 259.86 271.989 259.634 271.763C259.408 271.538 259.296 271.267 259.296 270.952C259.296 270.636 259.408 270.366 259.634 270.14C259.86 269.914 260.131 269.801 260.446 269.801C260.761 269.801 261.032 269.914 261.258 270.14C261.484 270.366 261.597 270.636 261.597 270.952C261.597 271.161 261.543 271.352 261.437 271.527C261.335 271.702 261.196 271.842 261.021 271.949C260.851 272.051 260.659 272.102 260.446 272.102ZM67.4703 316L73.3254 304.418V304.315H66.5754V302.909H74.9617V304.392L69.1322 316H67.4703ZM75.9829 313.315V312.011L81.7357 302.909H82.6817V304.929H82.0425L77.6959 311.807V311.909H85.4431V313.315H75.9829ZM82.1448 316V312.919V312.312V302.909H83.6533V316H82.1448ZM92.265 302.909V316H90.6798V304.571H90.6031L87.407 306.693V305.082L90.6798 302.909H92.265ZM100.453 316.179C99.6095 316.179 98.8573 316.034 98.1968 315.744C97.5406 315.455 97.0186 315.052 96.6308 314.536C96.2472 314.016 96.0384 313.413 96.0044 312.727H97.6151C97.6492 313.149 97.7941 313.513 98.0498 313.82C98.3055 314.123 98.64 314.357 99.0534 314.523C99.4667 314.69 99.9248 314.773 100.428 314.773C100.99 314.773 101.489 314.675 101.923 314.479C102.358 314.283 102.699 314.01 102.946 313.661C103.193 313.311 103.317 312.906 103.317 312.446C103.317 311.964 103.198 311.54 102.959 311.174C102.72 310.803 102.371 310.513 101.911 310.305C101.45 310.096 100.888 309.991 100.223 309.991H99.1748V308.585H100.223C100.743 308.585 101.199 308.491 101.591 308.304C101.987 308.116 102.296 307.852 102.518 307.511C102.744 307.17 102.857 306.77 102.857 306.31C102.857 305.866 102.759 305.481 102.563 305.153C102.367 304.825 102.09 304.569 101.732 304.386C101.378 304.202 100.96 304.111 100.479 304.111C100.027 304.111 99.6009 304.194 99.2004 304.36C98.8041 304.522 98.4802 304.759 98.2288 305.07C97.9774 305.376 97.841 305.747 97.8197 306.182H96.2856C96.3112 305.496 96.5178 304.895 96.9056 304.379C97.2934 303.859 97.8005 303.455 98.4269 303.165C99.0576 302.875 99.7501 302.73 100.504 302.73C101.314 302.73 102.009 302.894 102.588 303.222C103.168 303.546 103.613 303.974 103.924 304.507C104.235 305.04 104.391 305.615 104.391 306.233C104.391 306.97 104.197 307.599 103.809 308.119C103.426 308.638 102.903 308.999 102.243 309.199V309.301C103.07 309.437 103.715 309.789 104.18 310.356C104.644 310.918 104.877 311.615 104.877 312.446C104.877 313.158 104.683 313.797 104.295 314.364C103.911 314.926 103.387 315.369 102.722 315.693C102.058 316.017 101.301 316.179 100.453 316.179ZM119.712 303.076V304.282H124.338V303.076H119.712ZM119.712 306.442V307.63H124.338V306.442H119.712ZM116.526 301.672C114.096 301.672 112.332 303.202 112.332 305.398C112.332 307.558 114.096 309.088 116.526 309.088C118.956 309.088 120.72 307.558 120.72 305.398C120.72 303.202 118.956 301.672 116.526 301.672ZM116.526 302.914C118.128 302.914 119.298 303.94 119.298 305.398C119.298 306.838 118.128 307.864 116.526 307.864C114.924 307.864 113.772 306.838 113.772 305.398C113.772 303.94 114.924 302.914 116.526 302.914ZM123.978 301.132V309.466H125.472V301.132H123.978ZM114.996 310.294V311.482H123.996V313.102H115.032V316.666H116.49V314.218H125.472V310.294H114.996ZM115.032 316V317.188H126.066V316H115.032ZM132.617 305.002V306.388C132.617 309.196 130.889 311.968 128.495 313.12L129.341 314.272C131.915 312.994 133.787 309.826 133.787 306.388V305.002H132.617ZM132.905 305.002V306.388C132.905 309.628 134.669 312.706 137.207 313.966L138.035 312.814C135.713 311.662 134.075 309.016 134.075 306.388V305.002H132.905ZM128.945 303.958V305.164H137.675V303.958H128.945ZM132.599 301.42V304.624H134.075V301.42H132.599ZM139.655 301.132V317.404H141.167V301.132H139.655ZM140.807 307.81V309.052H143.831V307.81H140.807ZM156.231 301.114V317.422H157.725V301.114H156.231ZM157.365 307.594V308.854H160.389V307.594H157.365ZM145.863 312.256V313.498H147.159C150.273 313.498 152.433 313.372 154.971 312.922L154.809 311.68C152.343 312.148 150.219 312.256 147.159 312.256H145.863ZM145.827 302.644V303.868H151.713V307.252H145.863V312.76H147.339V308.476H153.189V302.644H145.827ZM163.322 302.752V303.994H173.798V302.752H163.322ZM161.774 313.894V315.136H176.48V313.894H161.774ZM167.48 308.08V314.506H168.974V308.08H167.48ZM173.24 302.752V304.372C173.24 306.316 173.24 308.602 172.628 311.716L174.122 311.914C174.716 308.62 174.716 306.388 174.716 304.372V302.752H173.24ZM194.519 301.15V313.354H196.013V301.15H194.519ZM195.545 306.478V307.738H198.425V306.478H195.545ZM183.431 303.112V304.318H193.043V303.112H183.431ZM188.237 305.218C185.915 305.218 184.331 306.424 184.331 308.26C184.331 310.078 185.915 311.284 188.237 311.284C190.541 311.284 192.125 310.078 192.125 308.26C192.125 306.424 190.541 305.218 188.237 305.218ZM188.237 306.388C189.695 306.388 190.703 307.126 190.703 308.26C190.703 309.376 189.695 310.114 188.237 310.114C186.761 310.114 185.753 309.376 185.753 308.26C185.753 307.126 186.761 306.388 188.237 306.388ZM187.481 301.132V303.742H188.975V301.132H187.481ZM185.879 315.82V317.044H196.751V315.82H185.879ZM185.879 312.382V316.342H187.373V312.382H185.879ZM210.952 301.114V317.422H212.464V301.114H210.952ZM212.104 307.54V308.8H215.128V307.54H212.104ZM200.638 312.112V313.372H201.916C204.976 313.372 207.118 313.282 209.62 312.814L209.458 311.554C207.028 312.004 204.922 312.112 201.916 312.112H200.638ZM200.638 302.698V312.67H202.114V303.922H208.198V302.698H200.638ZM224.306 303.994V305.218H228.86V303.994H224.306ZM224.306 307.468V308.71H228.896V307.468H224.306ZM217.25 302.536V310.168H224.684V302.536H217.25ZM223.208 303.742V308.962H218.708V303.742H223.208ZM228.392 301.15V313.03H229.886V301.15H228.392ZM219.428 315.82V317.044H230.282V315.82H219.428ZM219.428 311.95V316.378H220.922V311.95H219.428ZM235.52 312.318V312.241C235.529 311.428 235.614 310.78 235.776 310.298C235.938 309.817 236.168 309.427 236.466 309.129C236.765 308.83 237.123 308.555 237.54 308.304C237.792 308.151 238.017 307.969 238.218 307.761C238.418 307.548 238.576 307.303 238.691 307.026C238.81 306.749 238.87 306.442 238.87 306.105C238.87 305.687 238.772 305.325 238.576 305.018C238.38 304.712 238.118 304.475 237.79 304.309C237.461 304.143 237.097 304.06 236.696 304.06C236.347 304.06 236.01 304.132 235.687 304.277C235.363 304.422 235.092 304.65 234.875 304.961C234.657 305.272 234.532 305.679 234.498 306.182H232.887C232.921 305.457 233.108 304.837 233.449 304.322C233.794 303.806 234.248 303.412 234.811 303.139C235.378 302.866 236.006 302.73 236.696 302.73C237.446 302.73 238.098 302.879 238.652 303.178C239.211 303.476 239.641 303.885 239.944 304.405C240.25 304.925 240.404 305.517 240.404 306.182C240.404 306.651 240.331 307.075 240.187 307.454C240.046 307.833 239.841 308.172 239.573 308.47C239.309 308.768 238.989 309.033 238.614 309.263C238.239 309.497 237.939 309.744 237.713 310.004C237.487 310.26 237.323 310.565 237.221 310.918C237.118 311.272 237.063 311.713 237.054 312.241V312.318H235.52ZM236.339 316.102C236.023 316.102 235.753 315.989 235.527 315.763C235.301 315.538 235.188 315.267 235.188 314.952C235.188 314.636 235.301 314.366 235.527 314.14C235.753 313.914 236.023 313.801 236.339 313.801C236.654 313.801 236.924 313.914 237.15 314.14C237.376 314.366 237.489 314.636 237.489 314.952C237.489 315.161 237.436 315.352 237.329 315.527C237.227 315.702 237.089 315.842 236.914 315.949C236.743 316.051 236.552 316.102 236.339 316.102ZM3.33647 338L9.19158 326.418V326.315H2.44158V324.909H10.8279V326.392L4.9984 338H3.33647ZM13.4755 325.508V326.732H26.6875V325.508H13.4755ZM12.7555 336.272V337.514H27.4975V336.272H12.7555ZM19.3615 333.698V336.758H20.8375V333.698H19.3615ZM20.0815 327.83C16.8055 327.83 14.7715 328.964 14.7715 330.926C14.7715 332.888 16.8055 334.022 20.0815 334.022C23.3755 334.022 25.4095 332.888 25.4095 330.926C25.4095 328.964 23.3755 327.83 20.0815 327.83ZM20.0815 329C22.4575 329 23.8975 329.72 23.8975 330.926C23.8975 332.132 22.4575 332.834 20.0815 332.834C17.7235 332.834 16.2655 332.132 16.2655 330.926C16.2655 329.72 17.7235 329 20.0815 329ZM19.3615 323.402V326.264H20.8375V323.402H19.3615ZM37.6481 326.966V328.208H41.7521V326.966H37.6481ZM33.3821 324.122V326.12C33.3821 328.604 31.7441 330.908 29.3321 331.808L30.1061 332.996C32.8241 331.898 34.5881 329.27 34.5881 326.12V324.122H33.3821ZM33.6701 324.122V326.174C33.6701 329.072 35.4161 331.592 38.0081 332.6L38.8181 331.448C36.4601 330.584 34.8761 328.442 34.8761 326.174V324.122H33.6701ZM41.1941 323.15V335.318H42.6881V323.15H41.1941ZM32.2301 337.82V339.044H43.0841V337.82H32.2301ZM32.2301 333.968V338.396H33.7241V333.968H32.2301ZM55.9925 324.909V338H54.4073V326.571H54.3306L51.1346 328.693V327.082L54.4073 324.909H55.9925ZM64.1808 338.179C63.337 338.179 62.5849 338.034 61.9244 337.744C61.2681 337.455 60.7461 337.052 60.3583 336.536C59.9748 336.016 59.766 335.413 59.7319 334.727H61.3427C61.3768 335.149 61.5217 335.513 61.7773 335.82C62.033 336.123 62.3675 336.357 62.7809 336.523C63.1942 336.69 63.6523 336.773 64.1552 336.773C64.7177 336.773 65.2163 336.675 65.6509 336.479C66.0856 336.283 66.4265 336.01 66.6737 335.661C66.9208 335.311 67.0444 334.906 67.0444 334.446C67.0444 333.964 66.9251 333.54 66.6864 333.174C66.4478 332.803 66.0984 332.513 65.6381 332.305C65.1779 332.096 64.6154 331.991 63.9506 331.991H62.9023V330.585H63.9506C64.4705 330.585 64.9265 330.491 65.3185 330.304C65.7148 330.116 66.0238 329.852 66.2454 329.511C66.4712 329.17 66.5842 328.77 66.5842 328.31C66.5842 327.866 66.4862 327.481 66.2901 327.153C66.0941 326.825 65.8171 326.569 65.4592 326.386C65.1055 326.202 64.6879 326.111 64.2063 326.111C63.7546 326.111 63.3285 326.194 62.9279 326.36C62.5316 326.522 62.2077 326.759 61.9563 327.07C61.7049 327.376 61.5685 327.747 61.5472 328.182H60.0131C60.0387 327.496 60.2454 326.895 60.6332 326.379C61.021 325.859 61.5281 325.455 62.1545 325.165C62.7852 324.875 63.4776 324.73 64.2319 324.73C65.0415 324.73 65.7362 324.894 66.3157 325.222C66.8952 325.546 67.3406 325.974 67.6516 326.507C67.9627 327.04 68.1183 327.615 68.1183 328.233C68.1183 328.97 67.9244 329.599 67.5366 330.119C67.1531 330.638 66.631 330.999 65.9705 331.199V331.301C66.7972 331.437 67.4428 331.789 67.9073 332.356C68.3718 332.918 68.604 333.615 68.604 334.446C68.604 335.158 68.4102 335.797 68.0224 336.364C67.6388 336.926 67.1147 337.369 66.4499 337.693C65.7852 338.017 65.0288 338.179 64.1808 338.179ZM78.4313 327.722V328.946H83.1113V327.722H78.4313ZM82.6433 323.15V335.192H84.1373V323.15H82.6433ZM73.6793 337.82V339.044H84.5333V337.82H73.6793ZM73.6793 334.022V338.45H75.1733V334.022H73.6793ZM71.5553 324.212V332.42H78.8993V324.212H77.4413V327.092H73.0313V324.212H71.5553ZM73.0313 328.262H77.4413V331.196H73.0313V328.262ZM104.264 323.132V335.246H105.758V323.132H104.264ZM92.8524 324.446V325.67H101.42V324.446H92.8524ZM92.5824 332.798C95.2284 332.798 98.8824 332.744 102.014 332.24L101.924 331.124C98.8824 331.484 95.0844 331.52 92.4204 331.52L92.5824 332.798ZM94.4724 325.49V331.736H95.9124V325.49H94.4724ZM98.3604 325.49V331.736H99.8004V325.49H98.3604ZM101.564 326.21V327.434H105.056V326.21H101.564ZM101.564 329.324V330.548H105.056V329.324H101.564ZM95.3544 337.82V339.044H106.19V337.82H95.3544ZM95.3544 334.256V338.594H96.8484V334.256H95.3544ZM113.029 324.05V325.724C113.029 328.208 111.409 330.386 108.925 331.268L109.699 332.492C112.489 331.448 114.271 328.874 114.271 325.724V324.05H113.029ZM113.299 324.05V325.67C113.299 328.622 115.045 331.016 117.673 332.006L118.483 330.836C116.107 330.008 114.523 327.974 114.523 325.67V324.05H113.299ZM120.823 323.132V332.762H122.317V323.132H120.823ZM116.971 333.23C113.605 333.23 111.535 334.364 111.535 336.308C111.535 338.252 113.605 339.368 116.971 339.368C120.319 339.368 122.389 338.252 122.389 336.308C122.389 334.364 120.319 333.23 116.971 333.23ZM116.971 334.418C119.419 334.418 120.913 335.12 120.913 336.308C120.913 337.496 119.419 338.198 116.971 338.198C114.523 338.198 113.029 337.496 113.029 336.308C113.029 335.12 114.523 334.418 116.971 334.418ZM117.295 326.57V327.812H121.147V326.57H117.295ZM138.178 325.076V326.282H142.804V325.076H138.178ZM138.178 328.442V329.63H142.804V328.442H138.178ZM134.992 323.672C132.562 323.672 130.798 325.202 130.798 327.398C130.798 329.558 132.562 331.088 134.992 331.088C137.422 331.088 139.186 329.558 139.186 327.398C139.186 325.202 137.422 323.672 134.992 323.672ZM134.992 324.914C136.594 324.914 137.764 325.94 137.764 327.398C137.764 328.838 136.594 329.864 134.992 329.864C133.39 329.864 132.238 328.838 132.238 327.398C132.238 325.94 133.39 324.914 134.992 324.914ZM142.444 323.132V331.466H143.938V323.132H142.444ZM133.462 332.294V333.482H142.462V335.102H133.498V338.666H134.956V336.218H143.938V332.294H133.462ZM133.498 338V339.188H144.532V338H133.498ZM151.083 327.002V328.388C151.083 331.196 149.355 333.968 146.961 335.12L147.807 336.272C150.381 334.994 152.253 331.826 152.253 328.388V327.002H151.083ZM151.371 327.002V328.388C151.371 331.628 153.135 334.706 155.673 335.966L156.501 334.814C154.179 333.662 152.541 331.016 152.541 328.388V327.002H151.371ZM147.411 325.958V327.164H156.141V325.958H147.411ZM151.065 323.42V326.624H152.541V323.42H151.065ZM158.121 323.132V339.404H159.633V323.132H158.121ZM159.273 329.81V331.052H162.297V329.81H159.273ZM170.269 329.45V330.692H173.347V329.45H170.269ZM176.065 323.132V339.404H177.505V323.132H176.065ZM172.843 323.474V338.594H174.265V323.474H172.843ZM167.335 324.482C165.229 324.482 163.879 326.66 163.879 330.152C163.879 333.644 165.229 335.822 167.335 335.822C169.441 335.822 170.809 333.644 170.809 330.152C170.809 326.66 169.441 324.482 167.335 324.482ZM167.335 325.868C168.631 325.868 169.441 327.524 169.441 330.152C169.441 332.78 168.631 334.436 167.335 334.436C166.057 334.436 165.247 332.78 165.247 330.152C165.247 327.524 166.057 325.868 167.335 325.868ZM185.451 335.315V334.011L191.203 324.909H192.15V326.929H191.51L187.164 333.807V333.909H194.911V335.315H185.451ZM191.613 338V334.919V334.312V324.909H193.121V338H191.613ZM204.519 327.722V328.946H209.199V327.722H204.519ZM208.731 323.15V335.192H210.225V323.15H208.731ZM199.767 337.82V339.044H210.621V337.82H199.767ZM199.767 334.022V338.45H201.261V334.022H199.767ZM197.643 324.212V332.42H204.987V324.212H203.529V327.092H199.119V324.212H197.643ZM199.119 328.262H203.529V331.196H199.119V328.262ZM226.028 323.132V339.404H227.432V323.132H226.028ZM223.742 329.756V330.98H226.532V329.756H223.742ZM222.878 323.474V338.594H224.264V323.474H222.878ZM215.318 325.832V328.01C215.318 330.008 214.94 332.978 213.086 334.472L213.932 335.498C215.948 333.896 216.362 330.458 216.362 328.01V325.832H215.318ZM215.606 325.832V328.01C215.606 330.008 215.768 333.896 217.856 335.678L218.612 334.598C216.74 332.87 216.632 329.612 216.632 328.01V325.832H215.606ZM219.08 325.832V328.01C219.08 329.9 218.954 332.978 217.082 334.598L217.856 335.678C219.908 333.968 220.106 330.332 220.106 328.01V325.832H219.08ZM219.35 325.832V328.01C219.35 330.548 219.764 333.914 221.762 335.498L222.626 334.472C220.754 332.996 220.376 330.098 220.376 328.01V325.832H219.35ZM213.626 325.112V326.318H217.604V325.112H213.626ZM218.108 325.112V326.318H221.96V325.112H218.108ZM241.745 324.356V324.896C241.745 328.208 239.855 330.8 235.319 332.312L235.931 333.518C241.079 331.772 243.257 328.586 243.257 324.356H241.745ZM236.021 324.356V325.58H242.591V324.356H236.021ZM241.709 327.542L235.211 327.83L235.463 329.072L241.709 328.586V327.542ZM246.155 323.132V335.264H247.649V323.132H246.155ZM247.181 328.172V329.432H250.061V328.172H247.181ZM237.497 337.82V339.044H248.369V337.82H237.497ZM237.497 334.112V338.612H238.991V334.112H237.497ZM258.933 323.402C255.333 323.402 253.209 324.41 253.209 326.228C253.209 328.046 255.333 329.054 258.933 329.054C262.515 329.054 264.657 328.046 264.657 326.228C264.657 324.41 262.515 323.402 258.933 323.402ZM258.933 324.536C261.579 324.536 263.109 325.148 263.109 326.228C263.109 327.308 261.579 327.92 258.933 327.92C256.269 327.92 254.739 327.308 254.739 326.228C254.739 325.148 256.269 324.536 258.933 324.536ZM251.571 330.134V331.34H266.277V330.134H251.571ZM253.353 332.726V333.878H262.929V335.318H253.389V338.378H254.865V336.398H264.405V332.726H253.353ZM253.389 338.054V339.224H264.891V338.054H253.389ZM278.485 324.302C275.947 324.302 274.111 325.868 274.111 328.136C274.111 330.422 275.947 331.988 278.485 331.988C281.023 331.988 282.841 330.422 282.841 328.136C282.841 325.868 281.023 324.302 278.485 324.302ZM278.485 325.598C280.159 325.598 281.383 326.624 281.383 328.136C281.383 329.648 280.159 330.692 278.485 330.692C276.793 330.692 275.569 329.648 275.569 328.136C275.569 326.624 276.793 325.598 278.485 325.598ZM284.965 323.114V339.422H286.459V323.114H284.965ZM273.499 335.858C276.397 335.858 280.375 335.84 284.029 335.138L283.903 334.04C280.357 334.598 276.253 334.616 273.283 334.616L273.499 335.858ZM290.687 324.716V335.318H298.175V324.716H290.687ZM296.717 325.922V334.112H292.145V325.922H296.717ZM301.577 323.114V339.422H303.071V323.114H301.577ZM138.208 345.132V354.582H139.702V345.132H138.208ZM139.054 349.272V350.532H142.114V349.272H139.054ZM129.478 355.302V361.188H139.702V355.302H138.226V357.03H130.936V355.302H129.478ZM130.936 358.182H138.226V359.982H130.936V358.182ZM127.12 346.788V348.012H136.732V346.788H127.12ZM131.926 348.75C129.586 348.75 128.02 349.884 128.02 351.612C128.02 353.34 129.586 354.474 131.926 354.474C134.248 354.474 135.814 353.34 135.814 351.612C135.814 349.884 134.248 348.75 131.926 348.75ZM131.926 349.884C133.384 349.884 134.392 350.568 134.392 351.612C134.392 352.656 133.384 353.34 131.926 353.34C130.432 353.34 129.442 352.656 129.442 351.612C129.442 350.568 130.432 349.884 131.926 349.884ZM131.17 344.97V347.454H132.664V344.97H131.17ZM155.468 345.132V361.404H156.962V345.132H155.468ZM144.668 346.716V356.796H146.144V346.716H144.668ZM144.668 355.914V357.21H146C148.574 357.21 151.148 357.012 153.974 356.436L153.794 355.158C151.04 355.734 148.466 355.914 146 355.914H144.668ZM171.199 345.114V361.422H172.711V345.114H171.199ZM172.351 351.54V352.8H175.375V351.54H172.351ZM160.885 356.112V357.372H162.163C165.223 357.372 167.365 357.282 169.867 356.814L169.705 355.554C167.275 356.004 165.169 356.112 162.163 356.112H160.885ZM160.885 346.698V356.67H162.361V347.922H168.445V346.698H160.885ZM178.339 360.102C178.024 360.102 177.754 359.989 177.528 359.763C177.302 359.538 177.189 359.267 177.189 358.952C177.189 358.636 177.302 358.366 177.528 358.14C177.754 357.914 178.024 357.801 178.339 357.801C178.655 357.801 178.925 357.914 179.151 358.14C179.377 358.366 179.49 358.636 179.49 358.952C179.49 359.161 179.437 359.352 179.33 359.527C179.228 359.702 179.089 359.842 178.915 359.949C178.744 360.051 178.553 360.102 178.339 360.102Z" fill="black"/>
<defs>
<filter id="filter0_d_0_1" x="0" y="0" width="327" height="402.467" filterUnits="userSpaceOnUse" color-interpolation-filters="sRGB">
<feFlood flood-opacity="0" result="BackgroundImageFix"/>
<feColorMatrix in="SourceAlpha" type="matrix" values="0 0 0 0 0 0 0 0 0 0 0 0 0 0 0 0 0 0 127 0" result="hardAlpha"/>
<feOffset dx="10" dy="15"/>
<feGaussianBlur stdDeviation="5"/>
<feComposite in2="hardAlpha" operator="out"/>
<feColorMatrix type="matrix" values="0 0 0 0 0 0 0 0 0 0 0 0 0 0 0 0 0 0 0.25 0"/>
<feBlend mode="normal" in2="BackgroundImageFix" result="effect1_dropShadow_0_1"/>
<feBlend mode="normal" in="SourceGraphic" in2="effect1_dropShadow_0_1" result="shape"/>
</filter>
</defs>
</svg>
