<svg width="24" height="27" viewBox="0 0 24 27" fill="none" xmlns="http://www.w3.org/2000/svg">
<g filter="url(#filter0_d_1440_346)">
<circle cx="12" cy="11" r="8" fill="#A2EFFF"/>
</g>
<path d="M11.24 13.352C11.24 12.9467 11.2773 12.6 11.352 12.312C11.4373 12.0133 11.576 11.7307 11.768 11.464C11.9707 11.1973 12.2427 10.92 12.584 10.632C13 10.28 13.32 9.98667 13.544 9.752C13.7787 9.51733 13.944 9.288 14.04 9.064C14.136 8.84 14.184 8.568 14.184 8.248C14.184 7.736 14.0187 7.34133 13.688 7.064C13.3573 6.78667 12.8773 6.648 12.248 6.648C11.7253 6.648 11.2613 6.71733 10.856 6.856C10.4507 6.984 10.0613 7.13867 9.688 7.32L9.192 6.2C9.61867 5.976 10.088 5.78933 10.6 5.64C11.1227 5.49067 11.704 5.416 12.344 5.416C13.3573 5.416 14.1413 5.66667 14.696 6.168C15.2507 6.66933 15.528 7.352 15.528 8.216C15.528 8.696 15.448 9.10667 15.288 9.448C15.1387 9.77867 14.92 10.088 14.632 10.376C14.3547 10.6533 14.024 10.952 13.64 11.272C13.288 11.5707 13.016 11.832 12.824 12.056C12.6427 12.28 12.52 12.504 12.456 12.728C12.392 12.9413 12.36 13.2027 12.36 13.512V13.784H11.24V13.352ZM10.872 16.136C10.872 15.7413 10.9627 15.464 11.144 15.304C11.336 15.144 11.576 15.064 11.864 15.064C12.1307 15.064 12.36 15.144 12.552 15.304C12.744 15.464 12.84 15.7413 12.84 16.136C12.84 16.52 12.744 16.7973 12.552 16.968C12.36 17.1387 12.1307 17.224 11.864 17.224C11.576 17.224 11.336 17.1387 11.144 16.968C10.9627 16.7973 10.872 16.52 10.872 16.136Z" fill="#464646"/>
<defs>
<filter id="filter0_d_1440_346" x="0" y="3" width="24" height="24" filterUnits="userSpaceOnUse" color-interpolation-filters="sRGB">
<feFlood flood-opacity="0" result="BackgroundImageFix"/>
<feColorMatrix in="SourceAlpha" type="matrix" values="0 0 0 0 0 0 0 0 0 0 0 0 0 0 0 0 0 0 127 0" result="hardAlpha"/>
<feOffset dy="4"/>
<feGaussianBlur stdDeviation="2"/>
<feComposite in2="hardAlpha" operator="out"/>
<feColorMatrix type="matrix" values="0 0 0 0 0 0 0 0 0 0 0 0 0 0 0 0 0 0 0.25 0"/>
<feBlend mode="normal" in2="BackgroundImageFix" result="effect1_dropShadow_1440_346"/>
<feBlend mode="normal" in="SourceGraphic" in2="effect1_dropShadow_1440_346" result="shape"/>
</filter>
</defs>
</svg>
