<svg width="74" height="30" viewBox="0 0 74 30" fill="none" xmlns="http://www.w3.org/2000/svg">
<rect width="74" height="30" rx="15" fill="#C3F4FF"/>
<path d="M16.824 14.764V16.976H17.986V14.764H16.824ZM11.686 14.358V15.296H23.124V14.358H11.686ZM17.398 16.626C14.682 16.626 13.058 17.424 13.058 18.852C13.058 20.266 14.682 21.064 17.398 21.064C20.114 21.064 21.738 20.266 21.738 18.852C21.738 17.424 20.114 16.626 17.398 16.626ZM17.398 17.522C19.386 17.522 20.562 17.998 20.562 18.852C20.562 19.692 19.386 20.168 17.398 20.168C15.424 20.168 14.234 19.692 14.234 18.852C14.234 17.998 15.424 17.522 17.398 17.522ZM16.656 9.472V9.85C16.656 11.292 14.598 12.426 12.33 12.664L12.75 13.588C15.368 13.266 17.692 11.894 17.692 9.85V9.472H16.656ZM17.146 9.472V9.85C17.146 11.894 19.456 13.266 22.074 13.588L22.494 12.664C20.226 12.426 18.168 11.292 18.168 9.85V9.472H17.146ZM12.736 9.01V9.948H22.102V9.01H12.736ZM24.5649 14.96V15.912H36.0029V14.96H24.5649ZM29.7169 13.07V15.254H30.8649V13.07H29.7169ZM25.8389 17.144V18.096H33.4269V21.092H34.5889V17.144H25.8389ZM26.0909 8.73V13.462H34.5189V8.73H33.3569V10.158H27.2389V8.73H26.0909ZM27.2389 11.068H33.3569V12.538H27.2389V11.068ZM40.7618 14.372V15.996H41.9238V14.372H40.7618ZM46.0958 8.45V16.934H47.2578V8.45H46.0958ZM46.7678 12.272V13.238H49.1058V12.272H46.7678ZM37.5278 16.57C39.7398 16.556 42.7358 16.542 45.4378 16.066L45.3398 15.24C42.7218 15.618 39.6418 15.618 37.3738 15.618L37.5278 16.57ZM38.9418 17.564V18.488H46.0958V21.092H47.2578V17.564H38.9418ZM37.6958 9.584V10.452H44.9618V9.584H37.6958ZM41.3358 10.942C39.5438 10.942 38.3818 11.656 38.3818 12.818C38.3818 13.98 39.5438 14.694 41.3358 14.694C43.1138 14.694 44.2758 13.98 44.2758 12.818C44.2758 11.656 43.1138 10.942 41.3358 10.942ZM41.3358 11.74C42.4558 11.74 43.1838 12.146 43.1838 12.818C43.1838 13.462 42.4558 13.882 41.3358 13.882C40.2018 13.882 39.4738 13.462 39.4738 12.818C39.4738 12.146 40.2018 11.74 41.3358 11.74ZM40.7618 8.338V10.004H41.9238V8.338H40.7618ZM59.5347 8.45V17.69H60.7107V8.45H59.5347ZM52.5767 19.86V20.812H61.0887V19.86H52.5767ZM52.5767 16.738V20.182H53.7247V16.738H52.5767ZM53.9207 9.318C52.0307 9.318 50.6167 10.606 50.6167 12.44C50.6167 14.26 52.0307 15.562 53.9207 15.562C55.8107 15.562 57.2107 14.26 57.2107 12.44C57.2107 10.606 55.8107 9.318 53.9207 9.318ZM53.9207 10.326C55.1527 10.326 56.0907 11.194 56.0907 12.44C56.0907 13.672 55.1527 14.54 53.9207 14.54C52.6887 14.54 51.7507 13.672 51.7507 12.44C51.7507 11.194 52.6887 10.326 53.9207 10.326Z" fill="black"/>
</svg>
