<svg width="260" height="22" viewBox="0 0 260 22" fill="none" xmlns="http://www.w3.org/2000/svg">
<path d="M15.992 0.175999V21.872H17.984V0.175999H15.992ZM9.632 2.504V2.84C9.632 8.6 6.728 13.208 0.464 16.232L1.52 17.84C8.768 14.288 11.6 8.792 11.6 2.504H9.632ZM1.448 2.504V4.136H10.496V2.504H1.448ZM24.8701 1.04V9.704H39.3181V1.04H37.3261V3.752H26.8381V1.04H24.8701ZM26.8381 5.336H37.3261V8.096H26.8381V5.336ZM22.2541 12.008V13.64H41.8621V12.008H22.2541ZM31.0861 8.768V12.728H33.0541V8.768H31.0861ZM24.7981 19.76V21.392H39.7021V19.76H24.7981ZM24.7981 15.392V20.312H26.7901V15.392H24.7981ZM62.1586 5.792V7.448H67.0546V5.792H62.1586ZM66.4306 0.175999V13.112H68.4226V0.175999H66.4306ZM61.2946 13.76C56.8066 13.76 54.0466 15.272 54.0466 17.816C54.0466 20.384 56.8066 21.848 61.2946 21.848C65.7586 21.848 68.5186 20.384 68.5186 17.816C68.5186 15.272 65.7586 13.76 61.2946 13.76ZM61.2946 15.32C64.5586 15.32 66.5506 16.232 66.5506 17.816C66.5506 19.376 64.5586 20.288 61.2946 20.288C58.0306 20.288 56.0386 19.376 56.0386 17.816C56.0386 16.232 58.0306 15.32 61.2946 15.32ZM56.1106 2.36V4.112C56.1106 7.232 53.8786 10.136 50.6626 11.312L51.6946 12.896C55.2946 11.552 57.7426 8.12 57.7426 4.112V2.36H56.1106ZM56.4946 2.36V4.112C56.4946 7.76 58.8226 11.024 62.3506 12.296L63.3586 10.712C60.2146 9.608 58.1026 6.92 58.1026 4.112V2.36H56.4946ZM51.2626 1.76V3.392H62.8546V1.76H51.2626ZM72.6688 17.456V19.112H92.3248V17.456H72.6688ZM81.4528 12.272V17.936H83.4448V12.272H81.4528ZM74.9728 1.712V12.8H89.9728V1.712H88.0048V5.576H76.9408V1.712H74.9728ZM76.9408 7.184H88.0048V11.168H76.9408V7.184ZM94.7229 10.256V11.768H114.403V10.256H94.7229ZM97.0509 13.52V14.936H109.987V16.784H97.1229V20.696H99.0909V18.152H111.931V13.52H97.0509ZM97.1229 20.168V21.608H112.627V20.168H97.1229ZM97.2189 0.8V2.216H109.915V3.968H97.2669V7.664H99.2349V5.312H111.859V0.8H97.2189ZM97.2669 7.184V8.624H112.267V7.184H97.2669ZM138.827 0.175999V11.816H140.843V0.175999H138.827ZM126.851 12.896V21.584H140.843V12.896H138.875V15.536H128.819V12.896H126.851ZM128.819 17.12H138.875V19.976H128.819V17.12ZM129.203 1.208C125.915 1.208 123.539 3.248 123.539 6.2C123.539 9.176 125.915 11.216 129.203 11.216C132.491 11.216 134.843 9.176 134.843 6.2C134.843 3.248 132.491 1.208 129.203 1.208ZM129.203 2.864C131.363 2.864 132.923 4.232 132.923 6.2C132.923 8.168 131.363 9.536 129.203 9.536C127.043 9.536 125.483 8.168 125.483 6.2C125.483 4.232 127.043 2.864 129.203 2.864ZM146.026 10.928V12.56H147.586C151.93 12.56 154.09 12.488 156.778 12.008L156.562 10.4C153.97 10.856 151.858 10.928 147.586 10.928H146.026ZM145.978 1.472V3.104H153.37V6.08H146.026V11.912H147.994V7.64H155.338V1.472H145.978ZM160.978 0.199999V13.52H162.97V0.199999H160.978ZM156.778 3.392V5.024H161.434V3.392H156.778ZM156.778 7.88V9.512H161.434V7.88H156.778ZM148.45 14.696V16.328H160.978V21.92H162.97V14.696H148.45ZM167.168 3.872V5.504H177.92V3.872H167.168ZM172.544 6.944C169.856 6.944 167.888 8.984 167.888 11.912C167.888 14.816 169.856 16.856 172.544 16.856C175.256 16.856 177.224 14.816 177.224 11.912C177.224 8.984 175.256 6.944 172.544 6.944ZM172.544 8.648C174.224 8.648 175.448 9.992 175.448 11.912C175.448 13.832 174.224 15.176 172.544 15.176C170.888 15.176 169.688 13.832 169.688 11.912C169.688 9.992 170.888 8.648 172.544 8.648ZM183.656 0.175999V21.872H185.576V0.175999H183.656ZM180.2 9.296V10.952H184.304V9.296H180.2ZM179.024 0.655999V20.816H180.896V0.655999H179.024ZM171.584 0.8V4.88H173.552V0.8H171.584ZM197.982 2.312V3.224C197.982 6.08 194.262 8.576 190.446 9.128L191.214 10.712C195.582 9.968 199.71 7.112 199.71 3.224V2.312H197.982ZM198.486 2.312V3.224C198.486 7.112 202.59 9.968 206.982 10.712L207.726 9.128C203.934 8.576 200.19 6.08 200.19 3.224V2.312H198.486ZM198.054 13.592V21.872H200.022V13.592H198.054ZM189.294 12.536V14.168H208.902V12.536H189.294ZM191.118 1.52V3.128H207.006V1.52H191.118ZM219.916 7.928V9.584H224.068V7.928H219.916ZM215.86 2.216V6.344C215.86 10.064 214.084 13.952 211.108 15.704L212.356 17.216C215.524 15.272 217.42 10.88 217.42 6.344V2.216H215.86ZM216.244 2.216V6.272C216.244 10.496 217.996 14.816 221.116 16.736L222.268 15.176C219.412 13.448 217.78 9.752 217.78 6.272V2.216H216.244ZM227.884 0.175999V21.872H229.804V0.175999H227.884ZM223.492 0.631999V20.792H225.364V0.631999H223.492ZM238.25 11.336V17.84H240.218V11.336H238.25ZM246.266 11.336V17.84H248.258V11.336H246.266ZM233.45 17.456V19.112H253.106V17.456H233.45ZM243.242 1.544C238.634 1.544 235.346 3.728 235.346 7.136C235.346 10.52 238.634 12.704 243.242 12.704C247.826 12.704 251.114 10.52 251.114 7.136C251.114 3.728 247.826 1.544 243.242 1.544ZM243.242 3.128C246.722 3.128 249.194 4.712 249.194 7.136C249.194 9.536 246.722 11.12 243.242 11.12C239.762 11.12 237.266 9.536 237.266 7.136C237.266 4.712 239.762 3.128 243.242 3.128ZM258.24 15.176H256.872L256.272 2.864H258.84L258.24 15.176ZM256.056 18.704C256.056 18.112 256.2 17.696 256.488 17.456C256.776 17.216 257.128 17.096 257.544 17.096C257.944 17.096 258.288 17.216 258.576 17.456C258.88 17.696 259.032 18.112 259.032 18.704C259.032 19.28 258.88 19.696 258.576 19.952C258.288 20.208 257.944 20.336 257.544 20.336C257.128 20.336 256.776 20.208 256.488 19.952C256.2 19.696 256.056 19.28 256.056 18.704Z" fill="black"/>
</svg>
