<svg width="88" height="14" viewBox="0 0 88 14" fill="none" xmlns="http://www.w3.org/2000/svg">
<path d="M8.45 0.267999V13.274H10.326V0.267999H8.45ZM0.204 1.304V10.25H6.574V1.304H4.726V4.454H2.052V1.304H0.204ZM2.052 5.896H4.726V8.752H2.052V5.896ZM13.0969 0.926V6.414H19.3829V0.926H13.0969ZM17.5629 2.382V4.958H14.9169V2.382H17.5629ZM21.3429 0.282V6.82H23.2189V0.282H21.3429ZM14.5669 7.38V8.808H21.3709V9.578H14.5809V12.224H16.4149V10.908H23.2189V7.38H14.5669ZM14.5809 11.72V13.162H23.5409V11.72H14.5809ZM31.4498 3.726V5.21H34.7818V3.726H31.4498ZM34.3058 0.296V9.858H36.1678V0.296H34.3058ZM27.5858 11.538V13.022H36.4478V11.538H27.5858ZM27.5858 8.92V12.392H29.4618V8.92H27.5858ZM25.8638 1.136V7.828H31.9958V1.136H30.1758V3.11H27.7118V1.136H25.8638ZM27.7118 4.524H30.1758V6.358H27.7118V4.524ZM38.7007 1.892V3.376H49.3967V1.892H38.7007ZM38.2107 10.446V11.944H49.9427V10.446H38.2107ZM43.1247 8.738V11.034H44.9727V8.738H43.1247ZM44.0347 3.936C41.3327 3.936 39.6387 4.874 39.6387 6.47C39.6387 8.066 41.3327 9.004 44.0347 9.004C46.7367 9.004 48.4307 8.066 48.4307 6.47C48.4307 4.874 46.7367 3.936 44.0347 3.936ZM44.0347 5.378C45.6587 5.378 46.5267 5.728 46.5267 6.47C46.5267 7.212 45.6587 7.548 44.0347 7.548C42.4107 7.548 41.5427 7.212 41.5427 6.47C41.5427 5.728 42.4107 5.378 44.0347 5.378ZM43.1247 0.422V2.816H44.9727V0.422H43.1247ZM57.6523 6.204V8.066H59.5143V6.204H57.6523ZM63.1403 0.296V9.116H65.0023V0.296H63.1403ZM64.3443 3.992V5.518H66.6263V3.992H64.3443ZM54.7683 8.864C57.0363 8.85 60.0043 8.822 62.7063 8.36L62.5663 7.086C59.9483 7.408 56.8823 7.422 54.5583 7.422L54.7683 8.864ZM56.2103 9.634V11.062H63.1403V13.246H65.0023V9.634H56.2103ZM54.8943 1.234V2.564H62.2443V1.234H54.8943ZM58.5763 2.872C56.6583 2.872 55.4123 3.614 55.4123 4.804C55.4123 5.994 56.6583 6.736 58.5763 6.736C60.4803 6.736 61.7263 5.994 61.7263 4.804C61.7263 3.614 60.4803 2.872 58.5763 2.872ZM58.5763 4.09C59.4443 4.09 59.9623 4.314 59.9623 4.804C59.9623 5.266 59.4443 5.518 58.5763 5.518C57.6943 5.518 57.1763 5.266 57.1763 4.804C57.1763 4.314 57.6943 4.09 58.5763 4.09ZM57.6523 0.183999V1.836H59.5143V0.183999H57.6523ZM76.4953 0.296V9.606H78.3713V0.296H76.4953ZM69.7333 11.538V13.022H78.6933V11.538H69.7333ZM69.7333 8.668V12.14H71.5953V8.668H69.7333ZM71.3153 1.108C69.3273 1.108 67.7873 2.48 67.7873 4.398C67.7873 6.302 69.3273 7.688 71.3153 7.688C73.3033 7.688 74.8293 6.302 74.8293 4.398C74.8293 2.48 73.3033 1.108 71.3153 1.108ZM71.3153 2.718C72.2673 2.718 73.0093 3.334 73.0093 4.398C73.0093 5.448 72.2673 6.064 71.3153 6.064C70.3493 6.064 69.6073 5.448 69.6073 4.398C69.6073 3.334 70.3493 2.718 71.3153 2.718Z" fill="black"/>
<path d="M84.5442 1.36L84.2642 3.95L86.8542 3.208L87.0782 4.776L84.6562 4.958L86.2382 7.058L84.8102 7.814L83.7042 5.56L82.7102 7.814L81.2402 7.058L82.7942 4.958L80.4002 4.762L80.6382 3.208L83.1862 3.95L82.9062 1.36H84.5442Z" fill="#71C9DD"/>
</svg>
