<svg width="58" height="14" viewBox="0 0 58 14" fill="none" xmlns="http://www.w3.org/2000/svg">
<path d="M8.45 0.267999V13.274H10.326V0.267999H8.45ZM0.204 1.304V10.25H6.574V1.304H4.726V4.454H2.052V1.304H0.204ZM2.052 5.896H4.726V8.752H2.052V5.896ZM13.0969 0.926V6.414H19.3829V0.926H13.0969ZM17.5629 2.382V4.958H14.9169V2.382H17.5629ZM21.3429 0.282V6.82H23.2189V0.282H21.3429ZM14.5669 7.38V8.808H21.3709V9.578H14.5809V12.224H16.4149V10.908H23.2189V7.38H14.5669ZM14.5809 11.72V13.162H23.5409V11.72H14.5809ZM31.4498 3.726V5.21H34.7818V3.726H31.4498ZM34.3058 0.296V9.858H36.1678V0.296H34.3058ZM27.5858 11.538V13.022H36.4478V11.538H27.5858ZM27.5858 8.92V12.392H29.4618V8.92H27.5858ZM25.8638 1.136V7.828H31.9958V1.136H30.1758V3.11H27.7118V1.136H25.8638ZM27.7118 4.524H30.1758V6.358H27.7118V4.524ZM38.7007 1.892V3.376H49.3967V1.892H38.7007ZM38.2107 10.446V11.944H49.9427V10.446H38.2107ZM43.1247 8.738V11.034H44.9727V8.738H43.1247ZM44.0347 3.936C41.3327 3.936 39.6387 4.874 39.6387 6.47C39.6387 8.066 41.3327 9.004 44.0347 9.004C46.7367 9.004 48.4307 8.066 48.4307 6.47C48.4307 4.874 46.7367 3.936 44.0347 3.936ZM44.0347 5.378C45.6587 5.378 46.5267 5.728 46.5267 6.47C46.5267 7.212 45.6587 7.548 44.0347 7.548C42.4107 7.548 41.5427 7.212 41.5427 6.47C41.5427 5.728 42.4107 5.378 44.0347 5.378ZM43.1247 0.422V2.816H44.9727V0.422H43.1247Z" fill="black"/>
<path d="M55.1496 1.36L54.8696 3.95L57.4596 3.208L57.6836 4.776L55.2616 4.958L56.8436 7.058L55.4156 7.814L54.3096 5.56L53.3156 7.814L51.8456 7.058L53.3996 4.958L51.0056 4.762L51.2436 3.208L53.7916 3.95L53.5116 1.36H55.1496Z" fill="#71C9DD"/>
</svg>
