<svg width="46" height="14" viewBox="0 0 46 14" fill="none" xmlns="http://www.w3.org/2000/svg">
<path d="M4.032 1.178C2.058 1.178 0.63 2.97 0.63 5.798C0.63 8.654 2.058 10.446 4.032 10.446C6.006 10.446 7.434 8.654 7.434 5.798C7.434 2.97 6.006 1.178 4.032 1.178ZM4.032 2.872C4.998 2.872 5.656 3.894 5.656 5.798C5.656 7.73 4.998 8.766 4.032 8.766C3.066 8.766 2.422 7.73 2.422 5.798C2.422 3.894 3.066 2.872 4.032 2.872ZM8.848 0.282V13.246H10.724V0.282H8.848ZM10.304 5.168V6.708H12.6V5.168H10.304ZM22.3289 0.267999V13.274H24.2049V0.267999H22.3289ZM17.2189 1.178C15.2589 1.178 13.8169 2.97 13.8169 5.798C13.8169 8.654 15.2589 10.446 17.2189 10.446C19.1789 10.446 20.6209 8.654 20.6209 5.798C20.6209 2.97 19.1789 1.178 17.2189 1.178ZM17.2189 2.872C18.1849 2.872 18.8289 3.894 18.8289 5.798C18.8289 7.73 18.1849 8.766 17.2189 8.766C16.2529 8.766 15.5949 7.73 15.5949 5.798C15.5949 3.894 16.2529 2.872 17.2189 2.872ZM35.2078 0.282V13.288H37.0838V0.282H35.2078ZM27.1018 8.64V10.194H28.2218C31.0078 10.194 32.6458 10.138 34.3958 9.788L34.2278 8.262C32.4918 8.584 30.9518 8.64 28.2218 8.64H27.1018ZM27.1018 1.43V9.228H28.9498V2.928H33.3598V1.43H27.1018Z" fill="black"/>
<path d="M43.2707 1.36L42.9907 3.95L45.5807 3.208L45.8047 4.776L43.3827 4.958L44.9647 7.058L43.5367 7.814L42.4307 5.56L41.4367 7.814L39.9667 7.058L41.5207 4.958L39.1267 4.762L39.3647 3.208L41.9127 3.95L41.6327 1.36H43.2707Z" fill="#71C9DD"/>
</svg>
