<svg width="25" height="25" viewBox="0 0 25 25" fill="none" xmlns="http://www.w3.org/2000/svg">
<path d="M10.1527 2.31815C10.2205 1.57161 10.8465 1 11.596 1H13.07C13.8196 1 14.4455 1.57161 14.5134 2.31815C14.5691 2.93105 15.0102 3.43142 15.5865 3.64739C15.7346 3.70291 15.881 3.76213 16.0255 3.8249C16.5957 4.07271 17.2664 4.02521 17.744 3.6272C18.3342 3.13537 19.2021 3.17474 19.7453 3.71799L20.7856 4.75829C21.3035 5.27624 21.3411 6.10369 20.8721 6.66642C20.4816 7.13511 20.4452 7.79692 20.7078 8.34766C20.8214 8.58616 20.9252 8.83027 21.0186 9.07949C21.2346 9.65578 21.735 10.0969 22.3479 10.1527C23.0944 10.2205 23.666 10.8465 23.666 11.596V13.07C23.666 13.8196 23.0944 14.4455 22.3479 14.5134C21.735 14.5691 21.2346 15.0102 21.0186 15.5865C20.9348 15.8102 20.8425 16.0298 20.7423 16.2449C20.4988 16.7676 20.5382 17.3917 20.9073 17.8347C21.3564 18.3735 21.3204 19.1658 20.8245 19.6617L19.6617 20.8245C19.1658 21.3204 18.3735 21.3564 17.8347 20.9073C17.3917 20.5382 16.7676 20.4988 16.2449 20.7423C16.0298 20.8425 15.8102 20.9348 15.5865 21.0186C15.0102 21.2346 14.5691 21.735 14.5134 22.3479C14.4455 23.0944 13.8196 23.666 13.07 23.666H11.596C10.8465 23.666 10.2205 23.0944 10.1527 22.3479C10.0969 21.735 9.65578 21.2346 9.0795 21.0186C8.83028 20.9252 8.58617 20.8214 8.34768 20.7078C7.79693 20.4452 7.13513 20.4816 6.66642 20.8721C6.10369 21.3411 5.27623 21.3035 4.75828 20.7856L3.71799 19.7453C3.17473 19.2021 3.13537 18.3342 3.6272 17.744C4.02522 17.2664 4.07271 16.5957 3.8249 16.0255C3.76213 15.881 3.70292 15.7347 3.64739 15.5865C3.43143 15.0102 2.93105 14.5691 2.31815 14.5134C1.57161 14.4455 1 13.8196 1 13.07V11.596C1 10.8465 1.57161 10.2205 2.31815 10.1527C2.93107 10.0969 3.43143 9.65579 3.6474 9.0795C3.71267 8.90534 3.78303 8.73367 3.85829 8.56466C4.12462 7.96658 4.08036 7.25874 3.66123 6.75578C3.15012 6.14245 3.19103 5.24058 3.75557 4.67603L4.67602 3.75558C5.24056 3.19103 6.14243 3.15012 6.75577 3.66124C7.25872 4.08037 7.96657 4.12462 8.56465 3.85829C8.73366 3.78303 8.90533 3.71267 9.07949 3.6474C9.65578 3.43143 10.0969 2.93107 10.1527 2.31815Z" stroke="#B4B4B4" stroke-linecap="round" stroke-linejoin="round"/>
<path d="M15.7329 12.3329C15.7329 14.2107 14.2108 15.7328 12.333 15.7328C10.4552 15.7328 8.93311 14.2107 8.93311 12.3329C8.93311 10.4552 10.4552 8.93303 12.333 8.93303C14.2108 8.93303 15.7329 10.4552 15.7329 12.3329Z" stroke="#B4B4B4" stroke-linecap="round" stroke-linejoin="round"/>
</svg>
