<svg width="113" height="21" viewBox="0 0 113 21" fill="none" xmlns="http://www.w3.org/2000/svg">
<path d="M28.2502 5.23628C28.2502 4.82716 28.3706 4.53091 28.6112 4.34751C28.866 4.16412 29.3897 4.07242 30.1824 4.07242H37.7835C38.5762 4.07242 39.0928 4.16412 39.3334 4.34751C39.5882 4.53091 39.7156 4.82716 39.7156 5.23628C39.7156 5.56075 39.6095 5.81468 39.3971 5.99807C39.199 6.16736 38.7814 6.26611 38.1444 6.29433C38.4134 6.64701 38.5478 7.03497 38.5478 7.45819C38.5478 8.47392 38.3214 9.25688 37.8684 9.80706C37.4155 10.3431 36.7077 10.7029 35.7452 10.8863V12.0713H38.5903C38.9866 12.0713 39.3122 12.0995 39.567 12.1559C39.8218 12.2124 40.0199 12.29 40.1615 12.3887C40.303 12.4875 40.395 12.6144 40.4375 12.7696C40.4941 12.9248 40.5224 13.0941 40.5224 13.2775C40.5224 13.4327 40.4941 13.5808 40.4375 13.7219C40.395 13.8629 40.303 13.9899 40.1615 14.1028C40.0199 14.2015 39.8218 14.2862 39.567 14.3567C39.3122 14.4131 38.9866 14.4413 38.5903 14.4413H30.2248C29.8285 14.4413 29.5029 14.4131 29.2482 14.3567C28.9934 14.2862 28.7952 14.2015 28.6537 14.1028C28.5121 13.9899 28.413 13.8629 28.3564 13.7219C28.3139 13.5808 28.2927 13.4327 28.2927 13.2775C28.2927 13.0941 28.3139 12.9248 28.3564 12.7696C28.413 12.6144 28.5121 12.4875 28.6537 12.3887C28.7952 12.29 28.9934 12.2124 29.2482 12.1559C29.5029 12.0995 29.8285 12.0713 30.2248 12.0713H32.3056V10.8863C31.3148 10.6888 30.5858 10.3079 30.1187 9.74358C29.6516 9.17928 29.418 8.41749 29.418 7.45819C29.418 7.02086 29.5313 6.63291 29.7577 6.29433C29.4463 6.28022 29.1915 6.24495 28.9934 6.18852C28.8094 6.13209 28.6607 6.06156 28.5475 5.97691C28.4343 5.89227 28.3564 5.78646 28.3139 5.6595C28.2715 5.53253 28.2502 5.39146 28.2502 5.23628ZM41.5416 3.31062C41.5416 2.60525 41.7114 2.1256 42.0511 1.87167C42.405 1.60363 42.8084 1.46961 43.2614 1.46961C43.4879 1.46961 43.7002 1.49782 43.8983 1.55425C44.1107 1.61068 44.2947 1.70943 44.4504 1.85051C44.6061 1.99158 44.7335 2.18203 44.8326 2.42186C44.9316 2.66168 44.9812 2.95794 44.9812 3.31062V6.82335H46.064C46.4604 6.82335 46.7859 6.87273 47.0407 6.97148C47.2955 7.05613 47.4937 7.16898 47.6352 7.31006C47.7768 7.45113 47.8688 7.61337 47.9112 7.79676C47.9678 7.96605 47.9962 8.13534 47.9962 8.30463C47.9962 8.51624 47.9678 8.71374 47.9112 8.89714C47.8688 9.08053 47.7768 9.24277 47.6352 9.38384C47.4937 9.51081 47.2955 9.61661 47.0407 9.70126C46.7859 9.7859 46.4604 9.82822 46.064 9.82822H44.9812V13.1717C44.9812 13.5385 44.9316 13.8418 44.8326 14.0816C44.7335 14.3214 44.6061 14.5119 44.4504 14.6529C44.2947 14.794 44.1107 14.8928 43.8983 14.9492C43.7002 15.0056 43.4879 15.0338 43.2614 15.0338C43.0349 15.0338 42.8155 15.0056 42.6032 14.9492C42.405 14.8928 42.221 14.794 42.0511 14.6529C41.8954 14.5119 41.7681 14.3214 41.669 14.0816C41.584 13.8418 41.5416 13.5385 41.5416 13.1717V3.31062ZM33.3035 17.023H43.9408C44.3371 17.023 44.6627 17.0582 44.9175 17.1288C45.1723 17.2134 45.3704 17.3192 45.512 17.4462C45.6535 17.5873 45.7455 17.7425 45.788 17.9117C45.8446 18.081 45.8729 18.2503 45.8729 18.4196C45.8729 18.6312 45.8446 18.8217 45.788 18.991C45.7455 19.1744 45.6535 19.3295 45.512 19.4565C45.3704 19.5835 45.1723 19.6822 44.9175 19.7528C44.6627 19.8233 44.3371 19.8586 43.9408 19.8586H31.5837C31.1874 19.8586 30.876 19.8162 30.6495 19.7316C30.423 19.6611 30.2461 19.5553 30.1187 19.4142C30.0054 19.2872 29.9347 19.132 29.9064 18.9486C29.878 18.7793 29.8639 18.5889 29.8639 18.3773V16.6844C29.8639 16.3317 29.9064 16.0496 29.9913 15.838C30.0904 15.6122 30.2178 15.4359 30.3735 15.3089C30.5433 15.182 30.7273 15.0973 30.9255 15.055C31.1378 15.0127 31.3572 14.9915 31.5837 14.9915C31.8102 14.9915 32.0225 15.0127 32.2207 15.055C32.433 15.0973 32.617 15.182 32.7727 15.3089C32.9284 15.4359 33.0558 15.6122 33.1549 15.838C33.254 16.0496 33.3035 16.3317 33.3035 16.6844V17.023ZM29.9064 2.16792C29.9064 1.95631 29.9276 1.77997 29.97 1.6389C30.0267 1.49782 30.1258 1.38497 30.2673 1.30032C30.4088 1.21568 30.607 1.15219 30.8618 1.10987C31.1166 1.06755 31.4421 1.04639 31.8385 1.04639H36.1274C36.5237 1.04639 36.8493 1.06755 37.1041 1.10987C37.3588 1.15219 37.557 1.21568 37.6986 1.30032C37.8401 1.38497 37.9321 1.49782 37.9746 1.6389C38.0312 1.77997 38.0595 1.95631 38.0595 2.16792C38.0595 2.52061 37.9321 2.78865 37.6773 2.97204C37.4367 3.15544 36.92 3.24714 36.1274 3.24714H31.8385C31.0458 3.24714 30.5221 3.15544 30.2673 2.97204C30.0267 2.78865 29.9064 2.52061 29.9064 2.16792ZM32.7302 7.43702C32.7302 7.5781 32.7444 7.71917 32.7727 7.86025C32.8152 7.98721 32.8789 8.10712 32.9638 8.21998C33.0629 8.31874 33.1903 8.40338 33.346 8.47392C33.5158 8.53035 33.7281 8.55856 33.9829 8.55856C34.5067 8.55856 34.8464 8.4457 35.0021 8.21998C35.1578 7.98016 35.2356 7.71917 35.2356 7.43702C35.2356 7.29595 35.2215 7.16193 35.1932 7.03496C35.1649 6.89389 35.1012 6.77398 35.0021 6.67523C34.9171 6.56237 34.7897 6.47772 34.6199 6.42129C34.4642 6.35076 34.2519 6.31549 33.9829 6.31549C33.4592 6.31549 33.1195 6.4354 32.9638 6.67523C32.8081 6.90095 32.7302 7.15488 32.7302 7.43702Z" fill="#FA3A45"/>
<path d="M55.2617 19.8797C54.5964 19.8656 54.0302 19.7739 53.5631 19.6046C53.096 19.4353 52.7209 19.2026 52.4378 18.9063C52.1547 18.6242 51.9495 18.2856 51.8221 17.8906C51.6947 17.4956 51.631 17.0582 51.631 16.5786C51.631 16.0989 51.6876 15.6616 51.8009 15.2666C51.9141 14.8575 52.1052 14.5119 52.3741 14.2297C52.6572 13.9335 53.0323 13.7077 53.4994 13.5526C53.9807 13.3833 54.5823 13.2986 55.3042 13.2986H64.3915C65.1134 13.2986 65.7079 13.3833 66.175 13.5526C66.6563 13.7077 67.0314 13.9335 67.3003 14.2297C67.5834 14.5119 67.7816 14.8575 67.8948 15.2666C68.0081 15.6616 68.0647 16.0989 68.0647 16.5786C68.0647 17.5379 67.7887 18.3138 67.2366 18.9063C66.6988 19.5129 65.7645 19.8374 64.434 19.8797H55.2617ZM63.4785 17.3192C63.889 17.3192 64.1863 17.2699 64.3703 17.1711C64.5543 17.0724 64.6463 16.8749 64.6463 16.5786C64.6463 16.2823 64.5543 16.0919 64.3703 16.0072C64.1863 15.9085 63.889 15.8591 63.4785 15.8591H56.2171C55.8067 15.8591 55.5094 15.9085 55.3254 16.0072C55.1414 16.0919 55.0494 16.2823 55.0494 16.5786C55.0494 16.8749 55.1414 17.0724 55.3254 17.1711C55.5094 17.2699 55.8067 17.3192 56.2171 17.3192H63.4785ZM67.6188 9.36268C67.9727 9.36268 68.2558 9.405 68.4681 9.48965C68.6804 9.57429 68.8432 9.6801 68.9564 9.80706C69.0697 9.93403 69.1405 10.0822 69.1688 10.2514C69.2112 10.4066 69.2325 10.5618 69.2325 10.717C69.2325 10.9145 69.2112 11.0979 69.1688 11.2672C69.1405 11.4224 69.0697 11.5634 68.9564 11.6904C68.8432 11.8174 68.6804 11.9161 68.4681 11.9867C68.2558 12.0572 67.9727 12.0925 67.6188 12.0925H52.183C51.8292 12.0925 51.5461 12.0572 51.3337 11.9867C51.1214 11.9161 50.9586 11.8174 50.8454 11.6904C50.7322 11.5634 50.6543 11.4224 50.6119 11.2672C50.5835 11.0979 50.5694 10.9145 50.5694 10.717C50.5694 10.5618 50.5835 10.4066 50.6119 10.2514C50.6543 10.0822 50.7322 9.93403 50.8454 9.80706C50.9586 9.6801 51.1214 9.57429 51.3337 9.48965C51.5461 9.405 51.8292 9.36268 52.183 9.36268H67.6188ZM61.78 2.52766C61.78 3.06374 61.9215 3.51518 62.2046 3.88197C62.5019 4.23465 62.884 4.53091 63.3512 4.77073C63.8183 4.99645 64.342 5.17985 64.9223 5.32092C65.5027 5.44789 66.0901 5.53958 66.6846 5.59601C67.2366 5.66655 67.6471 5.82173 67.9161 6.06156C68.185 6.30138 68.2841 6.68933 68.2133 7.22541C68.1709 7.50756 68.0859 7.72623 67.9585 7.88141C67.8453 8.02248 67.7037 8.12829 67.5339 8.19882C67.364 8.26936 67.1729 8.31168 66.9606 8.32579C66.7483 8.32579 66.536 8.31874 66.3237 8.30463C65.1488 8.20588 63.9952 7.95194 62.8628 7.54283C61.7446 7.13372 60.7891 6.62585 59.9965 6.01923C59.2038 6.62585 58.2484 7.13372 57.1301 7.54283C56.0119 7.95194 54.8654 8.20588 53.6905 8.30463C53.4782 8.31874 53.2659 8.32579 53.0536 8.32579C52.8412 8.31168 52.6501 8.26936 52.4803 8.19882C52.3104 8.12829 52.1618 8.02248 52.0344 7.88141C51.9212 7.72623 51.8433 7.50756 51.8009 7.22541C51.7301 6.68933 51.8292 6.30138 52.0981 6.06156C52.367 5.82173 52.7775 5.66655 53.3296 5.59601C53.9382 5.52548 54.5327 5.42672 55.1131 5.29976C55.7076 5.17279 56.2313 4.99645 56.6843 4.77073C57.1372 4.53091 57.5052 4.2276 57.7883 3.86081C58.0856 3.49402 58.2413 3.04258 58.2554 2.5065V2.4007C58.2554 2.20319 58.305 2.04096 58.4041 1.91399C58.5031 1.78703 58.6305 1.68827 58.7862 1.61774C58.9561 1.53309 59.1472 1.47666 59.3595 1.44845C59.5718 1.42023 59.7912 1.40613 60.0177 1.40613C60.2442 1.40613 60.4636 1.42023 60.6759 1.44845C60.8882 1.47666 61.0722 1.53309 61.2279 1.61774C61.3978 1.68827 61.5323 1.78703 61.6313 1.91399C61.7304 2.04096 61.78 2.20319 61.78 2.4007V2.52766Z" fill="#FA3A45"/>
<path d="M86.5833 3.31062C86.5833 2.60525 86.7531 2.1256 87.0929 1.87167C87.4467 1.60363 87.8501 1.46961 88.3031 1.46961C88.5296 1.46961 88.7419 1.49782 88.9401 1.55425C89.1524 1.61068 89.3364 1.70943 89.4921 1.85051C89.6478 1.99158 89.7752 2.18203 89.8743 2.42186C89.9734 2.66168 90.0229 2.95794 90.0229 3.31062V17.7636C90.0229 18.1304 89.9734 18.4337 89.8743 18.6735C89.7752 18.9134 89.6478 19.1038 89.4921 19.2449C89.3364 19.386 89.1524 19.4847 88.9401 19.5411C88.7419 19.5976 88.5296 19.6258 88.3031 19.6258C88.0766 19.6258 87.8572 19.5976 87.6449 19.5411C87.4467 19.4847 87.2627 19.386 87.0929 19.2449C86.9372 19.1038 86.8098 18.9134 86.7107 18.6735C86.6258 18.4337 86.5833 18.1304 86.5833 17.7636V3.31062ZM80.0862 10.1245C80.0862 11.3236 80.3198 12.4028 80.7869 13.3621C81.2682 14.3214 82.0821 15.2031 83.2286 16.0072C83.6816 16.3317 83.9788 16.6985 84.1204 17.1076C84.2761 17.5167 84.2124 17.947 83.9293 18.3984C83.7736 18.6383 83.5825 18.8146 83.356 18.9275C83.1437 19.0544 82.9101 19.125 82.6553 19.1391C82.4996 19.1391 82.3369 19.1179 82.167 19.0756C81.9971 19.0474 81.8344 18.9768 81.6787 18.864C80.9992 18.3843 80.3906 17.8412 79.8527 17.2346C79.3148 16.6421 78.8406 16.0072 78.4301 15.3301C78.048 16.0496 77.6021 16.7126 77.0925 17.3192C76.5829 17.9258 76.0097 18.4337 75.3727 18.8428C74.9905 19.0827 74.5659 19.2167 74.0988 19.2449C73.8581 19.259 73.6104 19.2167 73.3557 19.1179C73.1009 19.0192 72.8885 18.8287 72.7187 18.5466C72.4356 18.0951 72.3648 17.6649 72.5064 17.2558C72.6621 16.8466 72.9664 16.4798 73.4193 16.1554C74.5659 15.3513 75.3727 14.4484 75.8398 13.4468C76.3211 12.431 76.5617 11.3236 76.5617 10.1245V3.31062C76.5617 2.95794 76.6112 2.66168 76.7103 2.42186C76.8094 2.18203 76.9368 1.99158 77.0925 1.85051C77.2624 1.70943 77.4535 1.61068 77.6658 1.55425C77.8781 1.49782 78.0975 1.46961 78.324 1.46961C78.5505 1.46961 78.7699 1.49782 78.9822 1.55425C79.1945 1.61068 79.3785 1.70943 79.5342 1.85051C79.7041 1.99158 79.8385 2.18203 79.9376 2.42186C80.0367 2.66168 80.0862 2.95794 80.0862 3.31062V10.1245Z" fill="#FA3A45"/>
<path d="M108.881 3.31062C108.881 2.60525 109.051 2.1256 109.391 1.87167C109.745 1.60363 110.148 1.46961 110.601 1.46961C110.827 1.46961 111.04 1.49782 111.238 1.55425C111.45 1.61068 111.634 1.70943 111.79 1.85051C111.946 1.99158 112.073 2.18203 112.172 2.42186C112.271 2.66168 112.321 2.95794 112.321 3.31062V11.775C112.321 12.1418 112.271 12.4451 112.172 12.685C112.073 12.9248 111.946 13.1152 111.79 13.2563C111.634 13.3974 111.45 13.4961 111.238 13.5526C111.04 13.609 110.827 13.6372 110.601 13.6372C110.375 13.6372 110.155 13.609 109.943 13.5526C109.745 13.4961 109.561 13.3974 109.391 13.2563C109.235 13.1152 109.108 12.9248 109.009 12.685C108.924 12.4451 108.881 12.1418 108.881 11.775V3.31062ZM99.6877 16.9383H111.068C111.464 16.9383 111.79 16.9807 112.045 17.0653C112.3 17.1499 112.498 17.2558 112.639 17.3827C112.781 17.5238 112.873 17.679 112.915 17.8483C112.972 18.0317 113 18.208 113 18.3773C113 18.5889 112.972 18.7793 112.915 18.9486C112.873 19.132 112.781 19.2872 112.639 19.4142C112.498 19.5553 112.3 19.6611 112.045 19.7316C111.79 19.8162 111.464 19.8586 111.068 19.8586H97.9679C97.5715 19.8586 97.2601 19.8162 97.0337 19.7316C96.8072 19.6611 96.6302 19.5553 96.5029 19.4142C96.3896 19.2872 96.3188 19.132 96.2905 18.9486C96.2622 18.7793 96.2481 18.5889 96.2481 18.3773V14.9069C96.2481 14.2015 96.4179 13.7219 96.7576 13.4679C97.1115 13.1999 97.5149 13.0659 97.9679 13.0659C98.1943 13.0659 98.4067 13.0941 98.6048 13.1505C98.8172 13.2069 99.0012 13.3057 99.1569 13.4468C99.3126 13.5878 99.44 13.7783 99.539 14.0181C99.6381 14.2579 99.6877 14.5542 99.6877 14.9069V16.9383ZM95.8234 3.33178C95.8234 2.68284 95.9933 2.25257 96.333 2.04096C96.6727 1.81524 97.1469 1.70238 97.7555 1.70238H103.233C103.63 1.70238 103.941 1.7447 104.168 1.82935C104.394 1.89988 104.564 2.00569 104.677 2.14676C104.805 2.27373 104.882 2.42891 104.911 2.61231C104.939 2.78159 104.953 2.97204 104.953 3.18365V9.91287C104.953 10.2656 104.904 10.5618 104.805 10.8016C104.72 11.0273 104.592 11.2107 104.422 11.3518C104.253 11.4929 104.054 11.5987 103.828 11.6692C103.601 11.7257 103.354 11.7539 103.085 11.7539H97.5432C97.1469 11.7539 96.8355 11.7186 96.609 11.6481C96.3825 11.5634 96.2056 11.4576 96.0782 11.3307C95.965 11.1896 95.8942 11.0344 95.8659 10.8651C95.8376 10.6817 95.8234 10.4842 95.8234 10.2726V3.33178ZM99.263 4.5168V8.93946H101.514V4.5168H99.263Z" fill="#FA3A45"/>
<path d="M11.6199 8.8412C10.9633 8.8412 10.4077 8.38152 10.4077 7.76861V4.14226C10.4077 3.58043 10.9633 3.06968 11.6199 3.06968C12.2765 3.06968 12.8321 3.52936 12.8321 4.14226V7.76861C12.8321 8.38152 12.2765 8.8412 11.6199 8.8412Z" fill="#FA3A45"/>
<path d="M17.4262 1.23094H5.81272C5.2573 1.23094 4.80286 1.69062 4.80286 2.25244C4.80286 2.81427 5.2573 3.27395 5.81272 3.27395H17.4767C18.0321 3.27395 18.4866 2.81427 18.4866 2.25244C18.4866 1.69062 17.9816 1.23094 17.4262 1.23094ZM11.6195 3.12073C11.165 3.12073 10.7611 2.7632 10.7611 2.25244C10.7611 1.79277 11.1145 1.38416 11.6195 1.38416C12.0739 1.38416 12.4778 1.74169 12.4778 2.25244C12.4778 2.71212 12.0739 3.12073 11.6195 3.12073Z" fill="#FA3A45"/>
<path d="M12.7311 4.19324H10.5087C10.4582 4.19324 10.4077 4.14217 10.4077 4.09109V3.37603C10.4077 3.32496 10.4582 3.27388 10.5087 3.27388H12.7311C12.7816 3.27388 12.8321 3.32496 12.8321 3.37603V4.09109C12.8321 4.14217 12.7816 4.19324 12.7311 4.19324Z" fill="#FA3A45"/>
<path d="M8.16829 19.695C7.46138 19.695 6.80497 19.5591 6.19905 19.2421C4.38129 18.4269 3.42191 16.4795 3.67438 14.351L3.72487 14.2151C4.98721 10.2297 11.0969 7.37657 11.3494 7.286L11.8543 7.05956L12.3087 7.286C12.5612 7.42186 18.6709 10.5468 19.8828 14.1698C20.2867 16.3889 19.5293 18.2458 17.9135 19.1062C16.9541 19.6497 14.8839 20.2384 11.8543 18.4269C10.592 19.2874 9.38013 19.695 8.16829 19.695ZM5.64362 14.6227C5.54263 15.9813 6.09806 17.1588 7.15842 17.657C8.21878 18.1552 9.68309 17.7929 11.1474 16.6607L11.7028 16.1625L12.3592 16.6154C14.177 17.8382 15.7928 18.1552 16.8532 17.6117C17.762 17.1136 18.1155 15.9813 17.9135 14.6227C17.1561 12.4942 13.5711 10.1392 11.7533 9.14282C10.39 9.82214 6.5525 11.996 5.64362 14.6227Z" fill="#FA3A45"/>
</svg>
