<svg width="100" height="100" viewBox="0 0 100 100" fill="none" xmlns="http://www.w3.org/2000/svg">
<g clip-path="url(#clip0_27_726)">
<rect width="100" height="100" rx="50" fill="white"/>
<rect x="30" y="16" width="40" height="40" rx="20" fill="#3AA0DF"/>
<rect x="-25" y="67" width="150" height="150" rx="75" fill="#3AA0DF"/>
</g>
<rect x="0.5" y="0.5" width="99" height="99" rx="49.5" stroke="#DBDBDB"/>
<circle cx="87" cy="84" r="12.5" fill="white" stroke="#DBDBDB"/>
<g clip-path="url(#clip1_27_726)">
<path d="M88.5313 78.2225L89.853 79.6669H92.778V88.3336H81.2225V79.6669H84.1475L85.4691 78.2225H88.5313ZM89.1669 76.778H84.8336L83.5119 78.2225H81.2225C80.428 78.2225 79.778 78.8725 79.778 79.6669V88.3336C79.778 89.128 80.428 89.778 81.2225 89.778H92.778C93.5725 89.778 94.2225 89.128 94.2225 88.3336V79.6669C94.2225 78.8725 93.5725 78.2225 92.778 78.2225H90.4886L89.1669 76.778ZM87.0002 81.8336C88.1919 81.8336 89.1669 82.8086 89.1669 84.0002C89.1669 85.1919 88.1919 86.1669 87.0002 86.1669C85.8086 86.1669 84.8336 85.1919 84.8336 84.0002C84.8336 82.8086 85.8086 81.8336 87.0002 81.8336ZM87.0002 80.3891C85.0069 80.3891 83.3891 82.0069 83.3891 84.0002C83.3891 85.9936 85.0069 87.6113 87.0002 87.6113C88.9936 87.6113 90.6113 85.9936 90.6113 84.0002C90.6113 82.0069 88.9936 80.3891 87.0002 80.3891Z" fill="#B5B5B5"/>
</g>
<defs>
<clipPath id="clip0_27_726">
<rect width="100" height="100" rx="50" fill="white"/>
</clipPath>
<clipPath id="clip1_27_726">
<rect width="17.3333" height="17.3333" fill="white" transform="translate(78.3336 75.3336)"/>
</clipPath>
</defs>
</svg>
