<svg width="114" height="120" viewBox="0 0 114 120" fill="none" xmlns="http://www.w3.org/2000/svg">
<rect width="114" height="120" fill="white"/>
<rect x="2" y="5" width="110" height="110" rx="4" fill="#DADADA"/>
<g clip-path="url(#clip0_219_1531)">
<path d="M57 66C60.3137 66 63 63.3137 63 60C63 56.6863 60.3137 54 57 54C53.6863 54 51 56.6863 51 60C51 63.3137 53.6863 66 57 66Z" fill="#6A6A6A"/>
<path d="M73 44H66.66L64.18 41.3C63.44 40.48 62.36 40 61.24 40H52.76C51.64 40 50.56 40.48 49.8 41.3L47.34 44H41C38.8 44 37 45.8 37 48V72C37 74.2 38.8 76 41 76H73C75.2 76 77 74.2 77 72V48C77 45.8 75.2 44 73 44ZM57 70C51.48 70 47 65.52 47 60C47 54.48 51.48 50 57 50C62.52 50 67 54.48 67 60C67 65.52 62.52 70 57 70Z" fill="#6A6A6A"/>
</g>
<path d="M53.8325 95.6045V97.1152C53.8325 97.8389 53.7606 98.4567 53.6167 98.9688C53.4771 99.4766 53.2739 99.8892 53.0073 100.207C52.7407 100.524 52.4212 100.757 52.0488 100.905C51.6807 101.053 51.2681 101.127 50.811 101.127C50.4471 101.127 50.1086 101.08 49.7954 100.987C49.4865 100.894 49.2072 100.748 48.9575 100.549C48.7078 100.35 48.4941 100.094 48.3164 99.7812C48.1429 99.4639 48.0075 99.0851 47.9102 98.645C47.8171 98.2049 47.7705 97.695 47.7705 97.1152V95.6045C47.7705 94.8766 47.8424 94.263 47.9863 93.7637C48.1302 93.2601 48.3354 92.8517 48.6021 92.5386C48.8687 92.2212 49.186 91.9906 49.5542 91.8467C49.9266 91.7028 50.3413 91.6309 50.7983 91.6309C51.1665 91.6309 51.505 91.6774 51.814 91.7705C52.1271 91.8594 52.4064 92.0011 52.6519 92.1958C52.9015 92.3905 53.1131 92.6444 53.2866 92.9575C53.4644 93.2664 53.5998 93.641 53.6929 94.0811C53.786 94.5169 53.8325 95.0247 53.8325 95.6045ZM52.3027 97.3311V95.376C52.3027 95.0078 52.2816 94.6841 52.2393 94.4048C52.1969 94.1213 52.1335 93.8822 52.0488 93.6875C51.9684 93.4886 51.8669 93.3278 51.7441 93.2051C51.6214 93.0781 51.4818 92.9871 51.3252 92.9321C51.1686 92.8729 50.993 92.8433 50.7983 92.8433C50.5614 92.8433 50.3498 92.8898 50.1636 92.9829C49.9774 93.0718 49.8208 93.2157 49.6938 93.4146C49.5669 93.6134 49.4696 93.8758 49.4019 94.2017C49.3384 94.5233 49.3066 94.9147 49.3066 95.376V97.3311C49.3066 97.7035 49.3278 98.0314 49.3701 98.3149C49.4124 98.5985 49.4759 98.8418 49.5605 99.0449C49.6452 99.2438 49.7467 99.4089 49.8652 99.54C49.988 99.667 50.1276 99.7601 50.2842 99.8193C50.445 99.8786 50.6206 99.9082 50.811 99.9082C51.0522 99.9082 51.266 99.8617 51.4521 99.7686C51.6383 99.6755 51.7949 99.5273 51.9219 99.3242C52.0488 99.1169 52.144 98.8481 52.2075 98.5181C52.271 98.188 52.3027 97.7923 52.3027 97.3311Z" fill="#383838"/>
<path d="M59.3042 91.7578L55.7051 101.793H54.5054L58.1108 91.7578H59.3042Z" fill="#2D2D2D"/>
<path d="M61.8306 96.6011L60.8911 96.3599L61.3545 91.7578H66.0962V92.8433H62.3511L62.0718 95.3569C62.241 95.2596 62.4548 95.1686 62.7129 95.084C62.9753 94.9993 63.2757 94.957 63.6143 94.957C64.0417 94.957 64.4246 95.0311 64.7632 95.1792C65.1017 95.3231 65.3895 95.5304 65.6265 95.8013C65.8677 96.0721 66.0518 96.3979 66.1787 96.7788C66.3057 97.1597 66.3691 97.585 66.3691 98.0547C66.3691 98.499 66.3078 98.9074 66.1851 99.2798C66.0666 99.6522 65.8867 99.978 65.6455 100.257C65.4043 100.532 65.0996 100.746 64.7314 100.898C64.3675 101.051 63.938 101.127 63.4429 101.127C63.0705 101.127 62.7171 101.076 62.3828 100.975C62.0527 100.869 61.7565 100.71 61.4941 100.499C61.236 100.283 61.0244 100.016 60.8594 99.6987C60.6986 99.3771 60.597 99.0005 60.5547 98.5688H61.6719C61.7227 98.9159 61.8242 99.2078 61.9766 99.4448C62.1289 99.6818 62.3278 99.8617 62.5732 99.9844C62.8229 100.103 63.1128 100.162 63.4429 100.162C63.7222 100.162 63.9697 100.113 64.1855 100.016C64.4014 99.9188 64.5833 99.7791 64.7314 99.5972C64.8796 99.4152 64.9917 99.1951 65.0679 98.937C65.1483 98.6789 65.1885 98.389 65.1885 98.0674C65.1885 97.7754 65.1483 97.5046 65.0679 97.2549C64.9875 97.0052 64.8669 96.7873 64.7061 96.6011C64.5495 96.4149 64.3569 96.271 64.1284 96.1694C63.8999 96.0636 63.6375 96.0107 63.3413 96.0107C62.9478 96.0107 62.6494 96.0636 62.4463 96.1694C62.2474 96.2752 62.0422 96.4191 61.8306 96.6011Z" fill="#9A9A9A"/>
<defs>
<clipPath id="clip0_219_1531">
<rect width="48" height="48" fill="white" transform="translate(33 36)"/>
</clipPath>
</defs>
</svg>
