<svg width="18" height="18" viewBox="0 0 18 18" fill="none" xmlns="http://www.w3.org/2000/svg">
<circle cx="9" cy="9" r="9" fill="#909090"/>
<path d="M13.3003 4.70648C13.0341 4.44027 12.6041 4.44027 12.3379 4.70648L9 8.03754L5.66212 4.69966C5.3959 4.43345 4.96587 4.43345 4.69966 4.69966C4.43345 4.96587 4.43345 5.3959 4.69966 5.66212L8.03754 9L4.69966 12.3379C4.43345 12.6041 4.43345 13.0341 4.69966 13.3003C4.96587 13.5666 5.3959 13.5666 5.66212 13.3003L9 9.96246L12.3379 13.3003C12.6041 13.5666 13.0341 13.5666 13.3003 13.3003C13.5666 13.0341 13.5666 12.6041 13.3003 12.3379L9.96246 9L13.3003 5.66212C13.5597 5.40273 13.5597 4.96587 13.3003 4.70648Z" fill="white"/>
</svg>
