<svg width="26" height="26" viewBox="0 0 26 26" fill="none" xmlns="http://www.w3.org/2000/svg">
<circle cx="13" cy="13" r="12.5" fill="white" stroke="#DBDBDB"/>
<g clip-path="url(#clip0_281_1281)">
<path d="M14.5313 7.22246L15.853 8.6669H18.778V17.3336H7.22246V8.6669H10.1475L11.4691 7.22246H14.5313ZM15.1669 5.77802H10.8336L9.5119 7.22246H7.22246C6.42802 7.22246 5.77802 7.87246 5.77802 8.6669V17.3336C5.77802 18.128 6.42802 18.778 7.22246 18.778H18.778C19.5725 18.778 20.2225 18.128 20.2225 17.3336V8.6669C20.2225 7.87246 19.5725 7.22246 18.778 7.22246H16.4886L15.1669 5.77802ZM13.0002 10.8336C14.1919 10.8336 15.1669 11.8086 15.1669 13.0002C15.1669 14.1919 14.1919 15.1669 13.0002 15.1669C11.8086 15.1669 10.8336 14.1919 10.8336 13.0002C10.8336 11.8086 11.8086 10.8336 13.0002 10.8336ZM13.0002 9.38913C11.0069 9.38913 9.38913 11.0069 9.38913 13.0002C9.38913 14.9936 11.0069 16.6113 13.0002 16.6113C14.9936 16.6113 16.6113 14.9936 16.6113 13.0002C16.6113 11.0069 14.9936 9.38913 13.0002 9.38913Z" fill="#B5B5B5"/>
</g>
<defs>
<clipPath id="clip0_281_1281">
<rect width="17.3333" height="17.3333" fill="white" transform="translate(4.33357 4.33356)"/>
</clipPath>
</defs>
</svg>
