<svg width="40" height="40" viewBox="0 0 40 40" fill="none" xmlns="http://www.w3.org/2000/svg">
<circle cx="20" cy="20" r="20" fill="#FA3A45" fill-opacity="0.7"/>
<path d="M21.5 10C21.5 10.8284 20.8284 11.5 20 11.5C19.1716 11.5 18.5 10.8284 18.5 10C18.5 9.17157 19.1716 8.5 20 8.5C20.8284 8.5 21.5 9.17157 21.5 10Z" fill="white" stroke="white"/>
<path d="M20 15L20 11" stroke="white" stroke-miterlimit="10"/>
<path d="M29.8977 32H10.1023C9.49443 32 9 31.5582 9 31.0105V23.2048C9 18.6728 13.0915 15 18.1402 15H22.5447C27.2146 15 31 18.398 31 22.5899V31.0105C31 31.5582 30.5078 32 29.8977 32Z" fill="white"/>
<path d="M13.5 30C14.3284 30 15 29.3284 15 28.5C15 27.6716 14.3284 27 13.5 27C12.6716 27 12 27.6716 12 28.5C12 29.3284 12.6716 30 13.5 30Z" fill="#FA3A45" fill-opacity="0.7"/>
<path d="M27.5 30C28.3284 30 29 29.3284 29 28.5C29 27.6716 28.3284 27 27.5 27C26.6716 27 26 27.6716 26 28.5C26 29.3284 26.6716 30 27.5 30Z" fill="#FA3A45" fill-opacity="0.7"/>
<path d="M24.9543 23L14.0409 22.9762C13.333 22.9746 12.8326 22.3462 13.0523 21.7337L14.1507 18.6553C14.2902 18.265 14.6913 18 15.1429 18H24.0633C24.5376 18 24.9525 18.2904 25.0729 18.7077L25.9656 21.8099C26.1382 22.4129 25.6395 23.0016 24.9543 23Z" fill="#FA3A45" fill-opacity="0.7"/>
</svg>
