<svg width="48" height="48" viewBox="0 0 48 48" fill="none" xmlns="http://www.w3.org/2000/svg">
<g clip-path="url(#clip0_628_2070)">
<path d="M25.3499 30.1543C25.1966 30.1543 25.0468 30.0936 24.9354 29.9795L20.9193 25.8641H19.742C18.0457 25.8641 16.6664 24.4519 16.6664 22.7151V14.149C16.6629 12.4122 18.0422 11 19.7385 11H36.9209C38.6207 11 40 12.4122 40 14.149V22.7151C40 24.4519 38.6207 25.8641 36.9244 25.8641H25.9385V29.5516C25.9385 29.7941 25.7957 30.0152 25.5763 30.1079C25.5031 30.14 25.4265 30.1543 25.3499 30.1543ZM19.7385 11.7132C18.4289 11.7132 17.3595 12.8081 17.3595 14.149V22.7151C17.3595 24.0596 18.4289 25.1508 19.7385 25.1508H21.2049L25.2419 29.2805V25.1508H36.9244C38.2375 25.1508 39.3034 24.056 39.3034 22.7151V14.149C39.3034 12.8081 38.234 11.7132 36.9244 11.7132H19.7385Z" fill="#626262"/>
<path d="M23.183 37C23.114 37 23.0451 36.9866 22.9793 36.9564C22.7818 36.8693 22.6533 36.6649 22.6533 36.4336V32.9683H12.7676C11.2412 32.9683 10 31.6412 10 30.0091V21.9592C10 20.3271 11.2412 19 12.7676 19H15.9552C16.1276 19 16.2687 19.1508 16.2687 19.3351C16.2687 19.5195 16.1276 19.6703 15.9552 19.6703H12.7676C11.5891 19.6703 10.6269 20.6991 10.6269 21.9592V30.0091C10.6269 31.2726 11.5891 32.2981 12.7676 32.2981H23.2801V36.1789L26.9128 32.2981H28.2324C29.414 32.2981 30.3731 31.2692 30.3731 30.0091V26.3461C30.3731 26.1618 30.5142 26.011 30.6866 26.011C30.859 26.011 31 26.1618 31 26.3461V30.0091C31 31.6412 29.7588 32.9683 28.2324 32.9683H27.173L23.556 36.8358C23.4525 36.943 23.3178 37 23.183 37Z" fill="#626262"/>
<path d="M22.6484 19.1641H23.4922L24.0391 19.8711C24.4102 19.5156 24.6367 18.9414 24.6406 18.1719C24.6367 16.7969 23.9141 16.0508 22.9453 16.0547C21.9688 16.0508 21.2461 16.7969 21.2422 18.1719C21.2461 19.5469 21.9688 20.293 22.9453 20.2891C23.125 20.2891 23.293 20.2656 23.4531 20.2148L22.6484 19.1641ZM20.3906 18.1719C20.3906 16.3633 21.4727 15.2656 22.9453 15.2656C24.4062 15.2656 25.4922 16.3633 25.4922 18.1719C25.4922 19.2148 25.1328 20.0195 24.5469 20.5156L25.3125 21.5078H24.4297L23.9531 20.8828C23.6484 21.0117 23.3086 21.0781 22.9453 21.0781C21.4727 21.0781 20.3906 19.9766 20.3906 18.1719ZM29.0859 19.2344V16.7578H29.9141V21H29.1016V20.2656H29.0547C28.8594 20.7188 28.4258 21.0547 27.7891 21.0547C26.9688 21.0547 26.3906 20.5039 26.3906 19.4531V16.7578H27.2266V19.3516C27.2266 19.9297 27.5781 20.2969 28.0859 20.2969C28.5508 20.2969 29.0859 19.957 29.0859 19.2344ZM30.9297 21V16.7578H31.7656V21H30.9297ZM30.8203 15.6094C30.8242 15.3359 31.0625 15.1172 31.3516 15.1172C31.6367 15.1172 31.875 15.3359 31.875 15.6094C31.875 15.8828 31.6367 16.1055 31.3516 16.1016C31.0625 16.1055 30.8242 15.8828 30.8203 15.6094ZM32.6875 21V20.4297L34.9844 17.5156V17.4766H32.7656V16.7578H36.0234V17.3594L33.8203 20.2422V20.2812H36.1016V21H32.6875Z" fill="#FA3A45"/>
</g>
<defs>
<clipPath id="clip0_628_2070">
<rect width="31" height="27" fill="white" transform="translate(9 11)"/>
</clipPath>
</defs>
</svg>
