<svg width="162" height="40" viewBox="0 0 162 40" fill="none" xmlns="http://www.w3.org/2000/svg">
<path d="M0.626977 8.44352C0.642148 7.66164 0.881655 7.09989 1.3455 6.75826C1.83623 6.41716 2.83437 6.26121 4.33992 6.29042L18.7771 6.57055C20.2826 6.59976 21.2605 6.79405 21.7108 7.15342C22.1879 7.5133 22.4189 8.08418 22.4037 8.86606C22.3917 9.48616 22.1806 9.96755 21.7705 10.3102C21.3879 10.6265 20.5911 10.7998 19.3802 10.8302C19.878 11.5142 20.119 12.2606 20.1033 13.0694C20.0656 15.0106 19.6064 16.4986 18.7257 17.5334C17.8455 18.5412 16.488 19.2027 14.653 19.5177L14.609 21.7824L20.0129 21.8873C20.7657 21.9019 21.383 21.9678 21.8648 22.0851C22.3466 22.2023 22.7201 22.3579 22.9853 22.5518C23.2505 22.7458 23.4206 22.9918 23.4955 23.29C23.5973 23.5886 23.6447 23.9132 23.6379 24.2637C23.6322 24.5603 23.5729 24.8423 23.4602 25.1098C23.3743 25.3779 23.1948 25.6171 22.9218 25.8276C22.6493 26.0111 22.2697 26.1656 21.7832 26.291C21.2972 26.3895 20.6778 26.4314 19.925 26.4168L4.03606 26.1085C3.28329 26.0939 2.66598 26.028 2.18415 25.9107C1.70284 25.7665 1.32959 25.5975 1.0644 25.4035C0.79974 25.1826 0.616255 24.9363 0.513947 24.6646C0.438524 24.3934 0.403689 24.1095 0.409444 23.813C0.416245 23.4625 0.462849 23.1397 0.549258 22.8447C0.662552 22.5502 0.855454 22.3112 1.12796 22.1277C1.40047 21.9442 1.77974 21.8032 2.26576 21.7048C2.75178 21.6063 3.37118 21.5644 4.12395 21.579L8.07602 21.6557L8.11997 19.3909C6.24535 18.977 4.87491 18.2221 4.00863 17.1265C3.14236 16.0308 2.72701 14.5663 2.76258 12.7329C2.7788 11.8971 3.00826 11.1599 3.45098 10.5212C2.86003 10.4827 2.37741 10.4059 2.00312 10.2908C1.65571 10.1762 1.37603 10.0359 1.16409 9.86993C0.952154 9.70399 0.808211 9.49892 0.732265 9.2547C0.656318 9.01048 0.621223 8.74009 0.626977 8.44352ZM25.9432 5.25314C25.9694 3.90508 26.3098 2.99466 26.9645 2.52188C27.6465 2.02266 28.4177 1.78139 29.278 1.79809C29.7082 1.80643 30.1104 1.86818 30.4847 1.98333C30.8859 2.099 31.2317 2.29451 31.5222 2.56986C31.8127 2.84521 32.0476 3.21388 32.2269 3.67587C32.4062 4.13786 32.4893 4.70588 32.4763 5.37991L32.346 12.0932L34.4027 12.1332C35.1555 12.1478 35.772 12.2541 36.2523 12.4522C36.733 12.6234 37.1052 12.8464 37.3689 13.1212C37.6325 13.396 37.8012 13.7095 37.8751 14.0616C37.9763 14.3872 38.0238 14.7118 38.0175 15.0353C38.0097 15.4397 37.9486 15.8161 37.8343 16.1645C37.7468 16.5135 37.566 16.8201 37.292 17.0845C37.0184 17.322 36.6381 17.5169 36.151 17.6692C35.664 17.8216 35.044 17.8905 34.2913 17.8759L32.2346 17.836L32.1106 24.2258C32.097 24.9268 31.9916 25.5046 31.7946 25.9593C31.5975 26.414 31.3484 26.7733 31.0475 27.0372C30.7465 27.301 30.3933 27.483 29.988 27.583C29.6095 27.6835 29.2052 27.7296 28.775 27.7213C28.3449 27.7129 27.9292 27.6509 27.528 27.5353C27.1537 27.4201 26.8079 27.2246 26.4905 26.9487C26.2 26.6734 25.9651 26.3047 25.7858 25.8427C25.6334 25.3813 25.564 24.8 25.5776 24.099L25.9432 5.25314ZM9.78778 31.1558L29.9917 31.5479C30.7445 31.5625 31.3616 31.6419 31.8429 31.7861C32.3237 31.9572 32.6961 32.1667 32.9603 32.4146C33.2239 32.6894 33.3929 32.9894 33.4672 33.3145C33.5685 33.6401 33.616 33.9647 33.6097 34.2882C33.6019 34.6927 33.541 35.0556 33.4272 35.377C33.3398 35.726 33.1593 36.0191 32.8857 36.2566C32.6122 36.494 32.2321 36.6754 31.7456 36.8009C31.259 36.9263 30.6394 36.9817 29.8866 36.9671L6.41612 36.5117C5.66335 36.4971 5.07345 36.4047 4.64643 36.2346C4.21889 36.0914 3.88676 35.8827 3.65002 35.6084C3.43965 35.3616 3.31098 35.0624 3.26401 34.7108C3.21652 34.3863 3.1967 34.0218 3.20455 33.6174L3.26732 30.382C3.2804 29.708 3.37152 29.1703 3.54067 28.769C3.73724 28.3413 3.98574 28.009 4.28618 27.7721C4.61351 27.5357 4.96615 27.3807 5.34411 27.3071C5.74895 27.2341 6.16645 27.2017 6.59661 27.21C7.02676 27.2184 7.42925 27.2667 7.80407 27.3548C8.20577 27.4436 8.55214 27.6121 8.84316 27.8605C9.13419 28.1089 9.36961 28.4506 9.54943 28.8856C9.72978 29.2937 9.81342 29.8347 9.80034 30.5088L9.78778 31.1558ZM3.88628 2.64048C3.89413 2.23607 3.941 1.89983 4.02688 1.63179C4.13965 1.36426 4.33203 1.15222 4.60402 0.995671C4.87601 0.839121 5.25475 0.725099 5.74025 0.653604C6.22574 0.582111 6.84488 0.553668 7.59765 0.568275L15.7438 0.726336C16.4965 0.740942 17.1141 0.793382 17.5965 0.883654C18.0788 0.973928 18.4529 1.10256 18.7186 1.26954C18.9843 1.43652 19.1548 1.65561 19.2303 1.92678C19.3326 2.19848 19.3798 2.53654 19.3719 2.94096C19.3589 3.61499 19.107 4.12256 18.6162 4.46366C18.1524 4.80529 17.1677 4.9615 15.6622 4.93228L7.51604 4.77422C6.01049 4.74501 5.01916 4.55046 4.54203 4.19058C4.09179 3.83121 3.87321 3.31452 3.88628 2.64048ZM9.05442 12.8146C9.04919 13.0842 9.07084 13.3543 9.11938 13.625C9.19532 13.8692 9.31186 14.1007 9.46898 14.3195C9.65352 14.5119 9.89234 14.6784 10.1855 14.8189C10.506 14.933 10.9082 14.9948 11.3921 15.0042C12.3869 15.0235 13.0363 14.8203 13.3404 14.3946C13.645 13.942 13.8026 13.4461 13.813 12.9069C13.8183 12.6373 13.7963 12.3806 13.7473 12.1369C13.6988 11.8663 13.5822 11.6348 13.3977 11.4424C13.2406 11.2236 13.0017 11.0571 12.6812 10.943C12.3881 10.8025 11.9861 10.7272 11.4753 10.7173C10.4806 10.698 9.83089 10.9147 9.52627 11.3673C9.22216 11.7929 9.06488 12.2753 9.05442 12.8146Z" fill="#FA3A45"/>
<path d="M51.3881 37.4247C50.125 37.3732 49.053 37.1771 48.1721 36.8364C47.2912 36.4956 46.5874 36.037 46.0607 35.4603C45.5334 34.9107 45.1562 34.256 44.9288 33.4964C44.7015 32.7368 44.5968 31.8987 44.6146 30.982C44.6323 30.0653 44.7561 29.2316 44.9858 28.4809C45.2161 27.7032 45.5918 27.0497 46.1131 26.5203C46.6618 25.9646 47.3826 25.547 48.2756 25.2677C49.1959 24.9619 50.3417 24.8223 51.7128 24.8489L68.9729 25.1838C70.344 25.2104 71.47 25.3941 72.3509 25.7348C73.2593 26.0491 73.9633 26.4943 74.4632 27.0704C74.9904 27.6201 75.354 28.2879 75.5539 29.074C75.7543 29.8331 75.8456 30.671 75.8279 31.5876C75.7923 33.421 75.2392 34.8937 74.1688 36.0057C73.1246 37.1452 71.3382 37.7309 68.8095 37.7628L51.3881 37.4247ZM67.0897 32.8341C67.8694 32.8492 68.4358 32.7658 68.7889 32.5839C69.1421 32.4019 69.3242 32.0278 69.3352 31.4617C69.3461 30.8955 69.1785 30.5281 68.8321 30.3596C68.4862 30.164 67.9235 30.0587 67.1438 30.0436L53.3519 29.776C52.5723 29.7609 52.0058 29.8443 51.6527 30.0262C51.3 30.1812 51.1182 30.5418 51.1072 31.108C51.0963 31.6742 51.2637 32.055 51.6095 32.2505C51.9554 32.446 52.5181 32.5513 53.2978 32.5665L67.0897 32.8341ZM75.2486 17.7805C75.9207 17.7936 76.4568 17.8849 76.8569 18.0545C77.2571 18.2241 77.5623 18.4323 77.7727 18.6791C77.9831 18.9259 78.112 19.2116 78.1595 19.5362C78.2344 19.8344 78.269 20.1317 78.2632 20.4283C78.2559 20.8057 78.2088 21.1555 78.1218 21.4774C78.0623 21.773 77.9226 22.04 77.7029 22.2784C77.4831 22.5169 77.1702 22.6997 76.7643 22.8266C76.3585 22.9536 75.8195 23.0106 75.1473 22.9975L45.8294 22.4287C45.1573 22.4156 44.6209 22.3378 44.2203 22.1952C43.8196 22.0525 43.5141 21.8578 43.3037 21.611C43.0933 21.3642 42.9507 21.0917 42.8758 20.7935C42.8283 20.469 42.8082 20.1179 42.8156 19.7405C42.8213 19.4439 42.854 19.1479 42.9135 18.8523C43.0004 18.5304 43.1538 18.2501 43.3735 18.0117C43.5933 17.7732 43.9064 17.577 44.3128 17.423C44.7193 17.2691 45.2585 17.1986 45.9306 17.2117L75.2486 17.7805ZM64.412 4.50265C64.3921 5.52718 64.6443 6.39516 65.1684 7.10658C65.7199 7.79157 66.4348 8.37183 67.3131 8.84739C68.1919 9.29598 69.1798 9.66578 70.2769 9.95678C71.3744 10.2208 72.4868 10.4177 73.6138 10.5475C74.6597 10.7026 75.4336 11.0143 75.9356 11.4826C76.4375 11.9508 76.6113 12.6959 76.457 13.7178C76.3659 14.2555 76.1964 14.6703 75.9487 14.9621C75.7284 15.2276 75.4556 15.4246 75.1304 15.5531C74.8052 15.6817 74.4407 15.7555 74.0369 15.7746C73.6336 15.7668 73.2306 15.7455 72.8278 15.7107C70.6001 15.4787 68.4184 14.9509 66.2827 14.1273C64.174 13.3042 62.3781 12.2984 60.8951 11.1098C59.367 12.2399 57.5335 13.1753 55.3944 13.916C53.2553 14.6567 51.0682 15.0997 48.8331 15.2451C48.4293 15.2643 48.0258 15.2699 47.6225 15.2621C47.2198 15.2273 46.8584 15.1394 46.5384 14.9983C46.2184 14.8573 45.94 14.6496 45.7033 14.3753C45.494 14.0745 45.3542 13.6538 45.284 13.113C45.1695 12.0858 45.372 11.3481 45.8918 10.8996C46.4115 10.4512 47.1969 10.1698 48.248 10.0553C49.4067 9.94291 50.5395 9.7761 51.6465 9.55483C52.7803 9.33409 53.7816 9.01638 54.6503 8.60169C55.5195 8.16004 56.2298 7.59394 56.7811 6.90338C57.3592 6.21335 57.6717 5.35632 57.7185 4.33232L57.7224 4.13011C57.7297 3.75265 57.8298 3.44443 58.0227 3.20543C58.2157 2.96643 58.4613 2.78239 58.7596 2.65333C59.0854 2.49782 59.4504 2.39701 59.8547 2.35092C60.2591 2.30482 60.6763 2.28594 61.1065 2.29429C61.5366 2.30264 61.9528 2.33768 62.355 2.39943C62.7573 2.46118 63.1047 2.5758 63.3973 2.74331C63.7173 2.88438 63.969 3.07806 64.1525 3.32436C64.336 3.57067 64.4241 3.88255 64.4167 4.26L64.412 4.50265Z" fill="#FA3A45"/>
<path d="M111.493 6.91309C111.519 5.56503 111.86 4.65461 112.514 4.18183C113.196 3.68261 113.968 3.44134 114.828 3.45803C115.258 3.46638 115.66 3.52813 116.035 3.64328C116.436 3.75895 116.782 3.95446 117.072 4.22981C117.363 4.50516 117.597 4.87383 117.777 5.33582C117.956 5.79781 118.039 6.36583 118.026 7.03985L117.49 34.6616C117.477 35.3626 117.371 35.9405 117.174 36.3951C116.977 36.8498 116.728 37.2091 116.427 37.473C116.126 37.7369 115.773 37.9188 115.368 38.0188C114.989 38.1194 114.585 38.1655 114.155 38.1571C113.724 38.1488 113.309 38.0868 112.908 37.9711C112.533 37.8559 112.187 37.6604 111.87 37.3846C111.58 37.1092 111.345 36.7405 111.165 36.2786C111.013 35.8171 110.944 35.2358 110.957 34.5349L111.493 6.91309ZM98.9003 19.6959C98.8558 21.9876 99.2594 24.0588 100.111 25.9093C100.99 27.7604 102.503 29.4755 104.651 31.0546C105.499 31.6914 106.05 32.4033 106.304 33.1904C106.584 33.978 106.447 34.798 105.893 35.6503C105.588 36.1029 105.219 36.4329 104.784 36.6402C104.376 36.875 103.93 37.0012 103.446 37.0188C103.15 37.0131 102.841 36.9666 102.52 36.8795C102.199 36.8193 101.892 36.6785 101.601 36.4571C100.328 35.5154 99.1922 34.4549 98.193 33.2758C97.1934 32.1236 96.3163 30.8928 95.5617 29.5836C94.8092 30.9445 93.9377 32.1953 92.9473 33.3358C91.957 34.4764 90.8493 35.4258 89.6243 36.1842C88.8896 36.6285 88.078 36.869 87.1898 36.9057C86.7322 36.9238 86.2633 36.8338 85.7831 36.6356C85.3028 36.4375 84.9066 36.0657 84.5944 35.5202C84.0735 34.6471 83.955 33.8221 84.239 33.0455C84.5499 32.2693 85.1415 31.5796 86.0139 30.9761C88.2214 29.4816 89.7873 27.7858 90.7116 25.8888C91.6634 23.9653 92.1615 21.8577 92.206 19.566L92.4586 6.54376C92.4717 5.86973 92.5768 5.30537 92.7739 4.85068C92.971 4.39599 93.22 4.03671 93.521 3.77284C93.8488 3.50949 94.2154 3.3278 94.6208 3.22778C95.0261 3.12776 95.4439 3.08192 95.8741 3.09027C96.3042 3.09861 96.7199 3.16062 97.1211 3.27629C97.5223 3.39196 97.8681 3.58747 98.1586 3.86282C98.476 4.13869 98.7243 4.50763 98.9036 4.96962C99.0829 5.43161 99.166 5.99962 99.153 6.67365L98.9003 19.6959Z" fill="#FA3A45"/>
<path d="M153.845 7.73485C153.871 6.38679 154.211 5.47637 154.866 5.00359C155.548 4.50436 156.319 4.2631 157.179 4.27979C157.61 4.28814 158.012 4.34989 158.386 4.46504C158.787 4.58071 159.133 4.77622 159.424 5.05157C159.714 5.32692 159.949 5.69559 160.128 6.15758C160.308 6.61957 160.391 7.18758 160.378 7.86161L160.064 24.0383C160.05 24.7393 159.945 25.3172 159.748 25.7719C159.551 26.2266 159.302 26.5858 159.001 26.8497C158.7 27.1136 158.346 27.2955 157.941 27.3955C157.563 27.4961 157.158 27.5422 156.728 27.5338C156.298 27.5255 155.882 27.4635 155.481 27.3478C155.107 27.2327 154.761 27.0372 154.444 26.7613C154.153 26.4859 153.918 26.1173 153.739 25.6553C153.587 25.1938 153.517 24.6126 153.531 23.9116L153.845 7.73485ZM135.878 33.4406L157.493 33.86C158.246 33.8746 158.863 33.9675 159.343 34.1386C159.824 34.3098 160.197 34.5193 160.461 34.7672C160.724 35.042 160.893 35.342 160.968 35.6671C161.068 36.0196 161.116 36.3577 161.109 36.6812C161.102 37.0856 161.041 37.4486 160.927 37.77C160.839 38.119 160.659 38.4121 160.385 38.6496C160.111 38.914 159.731 39.1089 159.244 39.2343C158.757 39.3867 158.137 39.4556 157.385 39.441L132.503 38.9582C131.75 38.9436 131.16 38.8512 130.733 38.6811C130.306 38.5379 129.973 38.3292 129.737 38.0549C129.526 37.8081 129.398 37.5089 129.351 37.1573C129.303 36.8328 129.283 36.4683 129.291 36.0639L129.42 29.4314C129.446 28.0833 129.786 27.1729 130.441 26.7001C131.123 26.2009 131.894 25.9596 132.755 25.9763C133.185 25.9847 133.587 26.0464 133.961 26.1616C134.362 26.2772 134.708 26.4728 134.999 26.7481C135.289 27.0235 135.524 27.3921 135.704 27.8541C135.883 28.3161 135.966 28.8841 135.953 29.5582L135.878 33.4406ZM129.043 7.29407C129.067 6.05385 129.405 5.23779 130.058 4.8459C130.712 4.42703 131.617 4.22882 132.773 4.25125L143.177 4.45313C143.93 4.46774 144.52 4.5601 144.947 4.73021C145.374 4.87337 145.693 5.08183 145.903 5.35562C146.14 5.60297 146.282 5.90241 146.329 6.25395C146.377 6.57852 146.397 6.94302 146.389 7.34744L146.139 20.2079C146.126 20.882 146.021 21.4463 145.824 21.901C145.654 22.3293 145.406 22.6751 145.078 22.9384C144.75 23.2018 144.37 23.3967 143.937 23.5231C143.505 23.6226 143.033 23.6674 142.522 23.6575L131.997 23.4533C131.244 23.4387 130.654 23.3598 130.226 23.2167C129.799 23.0465 129.467 22.8378 129.23 22.5905C129.02 22.3167 128.891 22.0175 128.844 21.6929C128.797 21.3414 128.777 20.9634 128.785 20.559L129.043 7.29407ZM135.532 9.68557L135.368 18.1379L139.642 18.2209L139.806 9.76851L135.532 9.68557Z" fill="#FA3A45"/>
</svg>
