<svg width="343" height="229" viewBox="0 0 343 229" fill="none" xmlns="http://www.w3.org/2000/svg">
<rect x="70.5" y="153.5" width="203" height="73" rx="32.5" fill="white" stroke="url(#paint0_linear_0_1)" stroke-width="5"/>
<rect y="176" width="70" height="28" fill="url(#paint1_linear_0_1)"/>
<rect x="274" y="176" width="69" height="28" fill="url(#paint2_linear_0_1)"/>
<path d="M112.64 189.08V190.36H123.6V193.88H98V190.36H108.96V189.08H106.96C104.827 189.08 103.293 188.773 102.36 188.16C101.427 187.52 100.96 186.36 100.96 184.68C100.96 183 101.427 181.853 102.36 181.24C103.293 180.6 104.827 180.28 106.96 180.28H120.96V183.4H107.12C106.133 183.4 105.467 183.493 105.12 183.68C104.8 183.84 104.64 184.173 104.64 184.68C104.64 185.187 104.8 185.533 105.12 185.72C105.467 185.88 106.133 185.96 107.12 185.96H113.6C114.293 185.96 114.853 185.947 115.28 185.92C115.707 185.867 116.04 185.8 116.28 185.72C116.52 185.613 116.68 185.48 116.76 185.32C116.84 185.16 116.88 184.947 116.88 184.68V184H120.56V184.68C120.56 185.48 120.453 186.16 120.24 186.72C120.027 187.28 119.653 187.733 119.12 188.08C118.613 188.427 117.92 188.68 117.04 188.84C116.187 189 115.093 189.08 113.76 189.08H112.64ZM130.16 205.48H108.68C107.32 205.48 106.227 205.36 105.4 205.12C104.6 204.88 103.987 204.507 103.56 204C103.16 203.493 102.893 202.84 102.76 202.04C102.627 201.24 102.56 200.28 102.56 199.16V194.64H106.24V198.96C106.24 199.573 106.267 200.08 106.32 200.48C106.373 200.853 106.48 201.16 106.64 201.4C106.8 201.64 107.04 201.813 107.36 201.92C107.68 202 108.107 202.04 108.64 202.04H130.16V205.48ZM129.76 175.84V183.04H134.4V186.56H129.76V197.48H126.08V175.84H129.76ZM100.16 176.24H108.92V174.24H112.6V176.24H121.4V179.36H100.16V176.24ZM135.216 189.56H168.816V193.08H135.216V189.56ZM145.416 205.44C144.162 205.44 143.069 205.373 142.136 205.24C141.229 205.133 140.469 204.893 139.856 204.52C139.242 204.147 138.776 203.627 138.456 202.96C138.162 202.267 138.016 201.36 138.016 200.24C138.016 199.12 138.162 198.227 138.456 197.56C138.776 196.867 139.242 196.333 139.856 195.96C140.469 195.587 141.229 195.347 142.136 195.24C143.069 195.107 144.162 195.04 145.416 195.04H166.056V198.48H145.576C144.856 198.48 144.242 198.493 143.736 198.52C143.256 198.52 142.856 198.573 142.536 198.68C142.242 198.787 142.029 198.96 141.896 199.2C141.762 199.44 141.696 199.787 141.696 200.24C141.696 200.693 141.762 201.04 141.896 201.28C142.029 201.52 142.242 201.693 142.536 201.8C142.856 201.907 143.256 201.973 143.736 202C144.242 202 144.856 202 145.576 202H158.496C159.189 202 159.762 201.987 160.216 201.96C160.669 201.907 161.016 201.813 161.256 201.68C161.522 201.52 161.709 201.307 161.816 201.04C161.922 200.747 161.976 200.347 161.976 199.84V199.2H165.656V199.84C165.656 201.04 165.522 202.013 165.256 202.76C164.989 203.48 164.562 204.04 163.976 204.44C163.416 204.84 162.696 205.107 161.816 205.24C160.936 205.373 159.882 205.44 158.656 205.44H145.416ZM149.096 180.12C148.376 180.12 147.762 180.133 147.256 180.16C146.776 180.187 146.362 180.267 146.016 180.4C145.669 180.533 145.362 180.747 145.096 181.04C144.856 181.307 144.616 181.68 144.376 182.16L141.496 188.28H137.616L141.016 181.36C141.522 180.32 142.002 179.493 142.456 178.88C142.936 178.24 143.469 177.76 144.056 177.44C144.642 177.12 145.336 176.907 146.136 176.8C146.936 176.693 147.936 176.64 149.136 176.64H154.856C156.056 176.64 157.056 176.693 157.856 176.8C158.656 176.907 159.349 177.12 159.936 177.44C160.522 177.76 161.042 178.24 161.496 178.88C161.976 179.493 162.469 180.32 162.976 181.36L166.376 188.28H162.496L159.616 182.16C159.376 181.68 159.122 181.307 158.856 181.04C158.616 180.747 158.322 180.533 157.976 180.4C157.629 180.267 157.202 180.187 156.696 180.16C156.216 180.133 155.616 180.12 154.896 180.12H149.096ZM202.991 175.84V205.48H199.311V175.84H202.991ZM181.111 180.16C180.791 180.16 180.498 180.2 180.231 180.28C179.965 180.333 179.725 180.48 179.511 180.72C179.325 180.933 179.165 181.253 179.031 181.68C178.898 182.08 178.791 182.64 178.711 183.36L176.111 205.08H172.431L175.311 182.56C175.578 180.48 176.178 178.973 177.111 178.04C178.045 177.107 179.351 176.64 181.031 176.64H184.951C186.631 176.64 187.938 177.107 188.871 178.04C189.805 178.973 190.405 180.48 190.671 182.56L193.551 205.08H189.871L187.271 183.36C187.191 182.64 187.071 182.08 186.911 181.68C186.778 181.253 186.605 180.933 186.391 180.72C186.205 180.48 185.978 180.333 185.711 180.28C185.471 180.2 185.191 180.16 184.871 180.16H181.111ZM239.007 175.84V197.48H235.327V175.84H239.007ZM239.407 205.48H216.727C215.367 205.48 214.274 205.36 213.447 205.12C212.647 204.88 212.034 204.507 211.607 204C211.207 203.493 210.94 202.84 210.807 202.04C210.674 201.24 210.607 200.28 210.607 199.16V194.64H214.287V198.96C214.287 199.573 214.314 200.08 214.367 200.48C214.42 200.853 214.527 201.16 214.687 201.4C214.847 201.64 215.087 201.813 215.407 201.92C215.727 202 216.154 202.04 216.687 202.04H239.407V205.48ZM221.807 189.16C222.607 189.16 223.247 189.107 223.727 189C224.207 188.893 224.567 188.707 224.807 188.44C225.047 188.147 225.207 187.773 225.287 187.32C225.367 186.867 225.407 186.28 225.407 185.56V180.16H212.687V185.56C212.687 186.28 212.727 186.867 212.807 187.32C212.887 187.773 213.047 188.147 213.287 188.44C213.527 188.707 213.887 188.893 214.367 189C214.847 189.107 215.487 189.16 216.287 189.16H221.807ZM216.327 192.68C214.78 192.68 213.527 192.587 212.567 192.4C211.634 192.187 210.9 191.827 210.367 191.32C209.834 190.787 209.474 190.067 209.287 189.16C209.1 188.227 209.007 187.027 209.007 185.56V176.64H229.087V185.56C229.087 187.027 228.994 188.227 228.807 189.16C228.62 190.067 228.26 190.787 227.727 191.32C227.194 191.827 226.447 192.187 225.487 192.4C224.554 192.587 223.314 192.68 221.767 192.68H216.327Z" fill="black"/>
<rect x="23.7239" y="90.6283" width="83.1997" height="44.5713" rx="20" fill="#F9ACCA" fill-opacity="0.7"/>
<rect x="77.2095" y="56.457" width="78.7426" height="78.7426" rx="25" fill="#79DEE2" fill-opacity="0.7"/>
<path fill-rule="evenodd" clip-rule="evenodd" d="M237.666 135.2C237.666 113.866 220.372 96.5711 199.038 96.5711C177.704 96.5711 160.409 113.866 160.409 135.2H237.666Z" fill="#B7ADF6" fill-opacity="0.7"/>
<ellipse cx="242.123" cy="98.0569" rx="29.7142" ry="37.1427" fill="#FDAA02" fill-opacity="0.7"/>
<path d="M279.346 70.1361C283.105 63.0516 293.255 63.0516 297.014 70.1361L324.135 121.256C327.668 127.916 322.841 135.942 315.301 135.942H261.059C253.52 135.942 248.692 127.916 252.225 121.256L279.346 70.1361Z" fill="#6BF200" fill-opacity="0.7"/>
<rect x="142.581" width="32.6856" height="135.2" rx="16.3428" fill="#FB5002" fill-opacity="0.7"/>
<circle cx="36.3526" cy="104.743" r="2.22856" fill="black"/>
<circle cx="42.2952" cy="104.743" r="2.22856" fill="black"/>
<circle cx="126.981" cy="67.5998" r="2.22856" fill="black"/>
<circle cx="132.924" cy="67.5998" r="2.22856" fill="black"/>
<circle cx="293.38" cy="94.3426" r="2.22856" fill="black"/>
<circle cx="299.323" cy="94.3426" r="2.22856" fill="black"/>
<ellipse cx="196.066" cy="106.971" rx="1.48571" ry="2.97142" fill="black"/>
<ellipse cx="204.981" cy="106.971" rx="1.48571" ry="2.97142" fill="black"/>
<path fill-rule="evenodd" clip-rule="evenodd" d="M150.009 11.8857C150.009 11.8857 150.009 11.8857 150.009 11.8857C150.009 12.7062 150.674 13.3714 151.495 13.3714C152.315 13.3714 152.98 12.7062 152.98 11.8857C152.98 11.8857 152.98 11.8857 152.98 11.8857H150.009Z" fill="black"/>
<path fill-rule="evenodd" clip-rule="evenodd" d="M243.609 72.7998C243.609 71.1587 242.278 69.8283 240.637 69.8283C238.996 69.8283 237.666 71.1587 237.666 72.7998L239.152 72.7998C239.152 71.9792 239.817 71.3141 240.637 71.3141C241.458 71.3141 242.123 71.9792 242.123 72.7998L243.609 72.7998Z" fill="black"/>
<path fill-rule="evenodd" clip-rule="evenodd" d="M157.438 11.8857C157.438 11.8857 157.438 11.8857 157.438 11.8857C157.438 12.7062 158.103 13.3714 158.923 13.3714C159.744 13.3714 160.409 12.7062 160.409 11.8857C160.409 11.8857 160.409 11.8857 160.409 11.8857H157.438Z" fill="black"/>
<path fill-rule="evenodd" clip-rule="evenodd" d="M236.18 72.7998C236.18 71.1587 234.85 69.8283 233.209 69.8283C231.568 69.8283 230.238 71.1587 230.238 72.7998L231.723 72.7998C231.723 71.9792 232.389 71.3141 233.209 71.3141C234.03 71.3141 234.695 71.9792 234.695 72.7998L236.18 72.7998Z" fill="black"/>
<defs>
<linearGradient id="paint0_linear_0_1" x1="110.342" y1="175.684" x2="245.95" y2="217.299" gradientUnits="userSpaceOnUse">
<stop stop-color="#FE619E" stop-opacity="0.49"/>
<stop offset="1" stop-color="#01CCD2" stop-opacity="0.5"/>
</linearGradient>
<linearGradient id="paint1_linear_0_1" x1="59.5614" y1="190" x2="16.151" y2="198.94" gradientUnits="userSpaceOnUse">
<stop stop-color="#F9ACCA"/>
<stop offset="1" stop-color="#FB5000" stop-opacity="0.5"/>
</linearGradient>
<linearGradient id="paint2_linear_0_1" x1="282.474" y1="193.889" x2="331.391" y2="200.075" gradientUnits="userSpaceOnUse">
<stop stop-color="#79DEE2"/>
<stop offset="1" stop-color="#8367F9" stop-opacity="0.5"/>
</linearGradient>
</defs>
</svg>

