<svg width="204" height="46" viewBox="0 0 204 46" fill="none" xmlns="http://www.w3.org/2000/svg">
<path d="M0 10.1517C0 9.1605 0.289609 8.4427 0.868828 7.99834C1.48212 7.55399 2.74277 7.33182 4.65078 7.33182H22.9473C24.8553 7.33182 26.0989 7.55399 26.6781 7.99834C27.2914 8.4427 27.5981 9.1605 27.5981 10.1517C27.5981 10.9379 27.3425 11.5532 26.8314 11.9975C26.3544 12.4077 25.3493 12.647 23.8161 12.7153C24.4635 13.5698 24.7871 14.5098 24.7871 15.5352C24.7871 17.9963 24.242 19.8933 23.1517 21.2264C22.0614 22.5252 20.3578 23.3969 18.0409 23.8412V26.7124H24.8894C25.8434 26.7124 26.627 26.7808 27.2403 26.9175C27.8536 27.0542 28.3306 27.2422 28.6713 27.4815C29.012 27.7208 29.2335 28.0284 29.3357 28.4044C29.472 28.7804 29.5401 29.1905 29.5401 29.6349C29.5401 30.0109 29.472 30.3698 29.3357 30.7116C29.2335 31.0534 29.012 31.361 28.6713 31.6345C28.3306 31.8737 27.8536 32.0788 27.2403 32.2497C26.627 32.3865 25.8434 32.4548 24.8894 32.4548H4.753C3.79899 32.4548 3.01534 32.3865 2.40205 32.2497C1.78876 32.0788 1.31176 31.8737 0.971043 31.6345C0.630326 31.361 0.391824 31.0534 0.255537 30.7116C0.153322 30.3698 0.102215 30.0109 0.102215 29.6349C0.102215 29.1905 0.153322 28.7804 0.255537 28.4044C0.391824 28.0284 0.630326 27.7208 0.971043 27.4815C1.31176 27.2422 1.78876 27.0542 2.40205 26.9175C3.01534 26.7808 3.79899 26.7124 4.753 26.7124H9.76153V23.8412C7.37652 23.3627 5.62183 22.4398 4.49746 21.0726C3.3731 19.7053 2.81091 17.8596 2.81091 15.5352C2.81091 14.4756 3.08349 13.5357 3.62863 12.7153C2.87906 12.6811 2.26577 12.5957 1.78876 12.459C1.34583 12.3222 0.988078 12.1513 0.715505 11.9462C0.442932 11.7412 0.255538 11.4848 0.153322 11.1772C0.0511075 10.8695 0 10.5277 0 10.1517ZM31.9933 5.48604C31.9933 3.77699 32.4022 2.61484 33.2199 1.99958C34.0717 1.35015 35.0427 1.02543 36.133 1.02543C36.6782 1.02543 37.1892 1.09379 37.6662 1.23051C38.1773 1.36724 38.6202 1.6065 38.995 1.94831C39.3698 2.29012 39.6765 2.75157 39.915 3.33264C40.1535 3.91372 40.2727 4.63152 40.2727 5.48604V13.9971H42.8792C43.8332 13.9971 44.6169 14.1167 45.2301 14.356C45.8434 14.5611 46.3204 14.8345 46.6612 15.1763C47.0019 15.5182 47.2233 15.9112 47.3256 16.3556C47.4618 16.7658 47.53 17.1759 47.53 17.5861C47.53 18.0988 47.4618 18.5774 47.3256 19.0217C47.2233 19.4661 47.0019 19.8591 46.6612 20.2009C46.3204 20.5086 45.8434 20.7649 45.2301 20.97C44.6169 21.1751 43.8332 21.2776 42.8792 21.2776H40.2727V29.3785C40.2727 30.2672 40.1535 31.0021 39.915 31.5832C39.6765 32.1643 39.3698 32.6257 38.995 32.9675C38.6202 33.3093 38.1773 33.5486 37.6662 33.6853C37.1892 33.8221 36.6782 33.8904 36.133 33.8904C35.5879 33.8904 35.0597 33.8221 34.5487 33.6853C34.0717 33.5486 33.6287 33.3093 33.2199 32.9675C32.8451 32.6257 32.5384 32.1643 32.2999 31.5832C32.0955 31.0021 31.9933 30.2672 31.9933 29.3785V5.48604ZM12.1636 38.7099H37.7684C38.7225 38.7099 39.5061 38.7954 40.1194 38.9663C40.7327 39.1714 41.2097 39.4277 41.5504 39.7354C41.8911 40.0772 42.1126 40.4532 42.2148 40.8633C42.3511 41.2735 42.4192 41.6837 42.4192 42.0938C42.4192 42.6066 42.3511 43.068 42.2148 43.4782C42.1126 43.9225 41.8911 44.2985 41.5504 44.6061C41.2097 44.9138 40.7327 45.153 40.1194 45.324C39.5061 45.4949 38.7225 45.5803 37.7684 45.5803H8.02388C7.06987 45.5803 6.32029 45.4778 5.77515 45.2727C5.23 45.1018 4.80411 44.8454 4.49746 44.5036C4.22489 44.196 4.05453 43.82 3.98639 43.3756C3.91824 42.9655 3.88417 42.504 3.88417 41.9913V37.8896C3.88417 37.0351 3.98639 36.3514 4.19082 35.8387C4.42932 35.2918 4.73596 34.8646 5.11075 34.5569C5.51961 34.2493 5.96254 34.0442 6.43955 33.9417C6.95062 33.8391 7.47873 33.7879 8.02388 33.7879C8.56903 33.7879 9.0801 33.8391 9.5571 33.9417C10.0682 34.0442 10.5111 34.2493 10.8859 34.5569C11.2607 34.8646 11.5673 35.2918 11.8058 35.8387C12.0443 36.3514 12.1636 37.0351 12.1636 37.8896V38.7099ZM3.98639 2.71738C3.98639 2.20467 4.03749 1.77741 4.13971 1.4356C4.27599 1.09379 4.5145 0.820343 4.85521 0.615255C5.19593 0.41017 5.67293 0.256356 6.28622 0.153812C6.89951 0.0512708 7.68316 0 8.63717 0H18.9609C19.9149 0 20.6985 0.0512708 21.3118 0.153812C21.9251 0.256356 22.4021 0.41017 22.7428 0.615255C23.0836 0.820343 23.305 1.09379 23.4072 1.4356C23.5435 1.77741 23.6117 2.20467 23.6117 2.71738C23.6117 3.57191 23.305 4.22135 22.6917 4.6657C22.1125 5.11005 20.8689 5.33223 18.9609 5.33223H8.63717C6.72915 5.33223 5.4685 5.11005 4.85521 4.6657C4.27599 4.22135 3.98639 3.57191 3.98639 2.71738ZM10.7837 15.484C10.7837 15.8258 10.8178 16.1676 10.8859 16.5094C10.9881 16.817 11.1414 17.1076 11.3459 17.381C11.5844 17.6203 11.891 17.8254 12.2658 17.9963C12.6747 18.133 13.1857 18.2014 13.799 18.2014C15.0597 18.2014 15.8774 17.9279 16.2522 17.381C16.627 16.7999 16.8144 16.1676 16.8144 15.484C16.8144 15.1422 16.7803 14.8174 16.7122 14.5098C16.644 14.168 16.4907 13.8775 16.2522 13.6382C16.0478 13.3648 15.7411 13.1597 15.3323 13.0229C14.9575 12.852 14.4464 12.7666 13.799 12.7666C12.5384 12.7666 11.7207 13.0571 11.3459 13.6382C10.9711 14.1851 10.7837 14.8004 10.7837 15.484Z" fill="white"/>
<path d="M65.0187 45.6316C63.4174 45.5974 62.0545 45.3752 60.9301 44.965C59.8058 44.5549 58.9029 43.9909 58.2214 43.2731C57.54 42.5895 57.046 41.7691 56.7393 40.8121C56.4327 39.855 56.2793 38.7954 56.2793 37.6332C56.2793 36.4711 56.4156 35.4115 56.6882 34.4544C56.9608 33.4632 57.4207 32.6257 58.0681 31.9421C58.7495 31.2243 59.6524 30.6774 60.7768 30.3014C61.9352 29.8912 63.3833 29.6862 65.1209 29.6862H86.9949C88.7326 29.6862 90.1636 29.8912 91.288 30.3014C92.4464 30.6774 93.3493 31.2243 93.9967 31.9421C94.6781 32.6257 95.1551 33.4632 95.4277 34.4544C95.7003 35.4115 95.8366 36.4711 95.8366 37.6332C95.8366 39.9575 95.1722 41.8375 93.8434 43.2731C92.5486 44.7429 90.2999 45.529 87.0972 45.6316H65.0187ZM84.7973 39.4277C85.7854 39.4277 86.5009 39.3081 86.9438 39.0688C87.3868 38.8296 87.6082 38.351 87.6082 37.6332C87.6082 36.9154 87.3868 36.454 86.9438 36.2489C86.5009 36.0096 85.7854 35.89 84.7973 35.89H67.3186C66.3305 35.89 65.615 36.0096 65.172 36.2489C64.7291 36.454 64.5077 36.9154 64.5077 37.6332C64.5077 38.351 64.7291 38.8296 65.172 39.0688C65.615 39.3081 66.3305 39.4277 67.3186 39.4277H84.7973ZM94.7633 20.1497C95.6151 20.1497 96.2965 20.2522 96.8076 20.4573C97.3187 20.6624 97.7105 20.9187 97.9831 21.2264C98.2556 21.534 98.426 21.8929 98.4941 22.3031C98.5964 22.6791 98.6475 23.0551 98.6475 23.431C98.6475 23.9096 98.5964 24.3539 98.4941 24.7641C98.426 25.1401 98.2556 25.4819 97.9831 25.7895C97.7105 26.0972 97.3187 26.3364 96.8076 26.5073C96.2965 26.6782 95.6151 26.7637 94.7633 26.7637H57.6081C56.7563 26.7637 56.0749 26.6782 55.5638 26.5073C55.0528 26.3364 54.6609 26.0972 54.3884 25.7895C54.1158 25.4819 53.9284 25.1401 53.8262 24.7641C53.758 24.3539 53.724 23.9096 53.724 23.431C53.724 23.0551 53.758 22.6791 53.8262 22.3031C53.9284 21.8929 54.1158 21.534 54.3884 21.2264C54.6609 20.9187 55.0528 20.6624 55.5638 20.4573C56.0749 20.2522 56.7563 20.1497 57.6081 20.1497H94.7633ZM80.7087 3.589C80.7087 4.88788 81.0494 5.98167 81.7309 6.87037C82.4464 7.7249 83.3663 8.4427 84.4907 9.02377C85.615 9.57067 86.8757 10.015 88.2726 10.3568C89.6696 10.6645 91.0836 10.8866 92.5146 11.0234C93.8434 11.1943 94.8314 11.5703 95.4788 12.1513C96.1262 12.7324 96.3647 13.6724 96.1943 14.9713C96.0921 15.6549 95.8877 16.1847 95.581 16.5607C95.3084 16.9025 94.9677 17.1588 94.5589 17.3297C94.15 17.5006 93.69 17.6032 93.179 17.6374C92.6679 17.6374 92.1568 17.6203 91.6457 17.5861C88.8178 17.3468 86.0409 16.7316 83.3152 15.7403C80.6236 14.7491 78.3237 13.5186 76.4157 12.0488C74.5077 13.5186 72.2078 14.7491 69.5162 15.7403C66.8245 16.7316 64.0647 17.3468 61.2368 17.5861C60.7257 17.6203 60.2146 17.6374 59.7035 17.6374C59.1925 17.6032 58.7325 17.5006 58.3236 17.3297C57.9148 17.1588 57.557 16.9025 57.2504 16.5607C56.9778 16.1847 56.7904 15.6549 56.6882 14.9713C56.5178 13.6724 56.7563 12.7324 57.4037 12.1513C58.0511 11.5703 59.0391 11.1943 60.3679 11.0234C61.833 10.8525 63.264 10.6132 64.661 10.3056C66.092 9.99793 67.3526 9.57067 68.4429 9.02377C69.5332 8.4427 70.4191 7.70781 71.1005 6.8191C71.816 5.9304 72.1908 4.83661 72.2249 3.53773V3.28137C72.2249 2.80284 72.3441 2.40976 72.5826 2.10213C72.8211 1.7945 73.1278 1.55523 73.5026 1.38433C73.9114 1.17924 74.3714 1.04252 74.8825 0.974157C75.3935 0.905794 75.9217 0.871612 76.4668 0.871612C77.0119 0.871612 77.5401 0.905794 78.0511 0.974157C78.5622 1.04252 79.0051 1.17924 79.3799 1.38433C79.7888 1.55523 80.1125 1.7945 80.351 2.10213C80.5895 2.40976 80.7087 2.80284 80.7087 3.28137V3.589Z" fill="white"/>
<path d="M140.412 5.48604C140.412 3.77699 140.821 2.61484 141.639 1.99958C142.491 1.35015 143.462 1.02543 144.552 1.02543C145.097 1.02543 145.608 1.09379 146.085 1.23051C146.596 1.36724 147.039 1.6065 147.414 1.94831C147.789 2.29012 148.095 2.75157 148.334 3.33264C148.572 3.91372 148.692 4.63152 148.692 5.48604V40.5044C148.692 41.3931 148.572 42.128 148.334 42.7091C148.095 43.2902 147.789 43.7516 147.414 44.0934C147.039 44.4352 146.596 44.6745 146.085 44.8112C145.608 44.948 145.097 45.0163 144.552 45.0163C144.007 45.0163 143.479 44.948 142.968 44.8112C142.491 44.6745 142.048 44.4352 141.639 44.0934C141.264 43.7516 140.957 43.2902 140.719 42.7091C140.514 42.128 140.412 41.3931 140.412 40.5044V5.48604ZM124.773 21.9954C124.773 24.9008 125.336 27.5157 126.46 29.84C127.618 32.1643 129.577 34.3006 132.337 36.2489C133.428 37.0351 134.143 37.9238 134.484 38.915C134.859 39.9063 134.705 40.9488 134.024 42.0426C133.649 42.6237 133.189 43.0509 132.644 43.3244C132.133 43.632 131.571 43.8029 130.957 43.8371C130.583 43.8371 130.191 43.7858 129.782 43.6833C129.373 43.6149 128.981 43.444 128.606 43.1705C126.971 42.0084 125.506 40.6924 124.211 39.2226C122.916 37.787 121.775 36.2489 120.787 34.6082C119.867 36.3514 118.794 37.958 117.567 39.4277C116.341 40.8975 114.961 42.128 113.428 43.1193C112.508 43.7004 111.485 44.0251 110.361 44.0934C109.782 44.1276 109.186 44.0251 108.572 43.7858C107.959 43.5465 107.448 43.0851 107.039 42.4015C106.358 41.3077 106.187 40.2652 106.528 39.2739C106.903 38.2827 107.635 37.394 108.726 36.6078C111.485 34.6595 113.428 32.4719 114.552 30.0451C115.71 27.584 116.29 24.9008 116.29 21.9954V5.48604C116.29 4.63152 116.409 3.91372 116.647 3.33264C116.886 2.75157 117.192 2.29012 117.567 1.94831C117.976 1.6065 118.436 1.36724 118.947 1.23051C119.458 1.09379 119.986 1.02543 120.531 1.02543C121.077 1.02543 121.605 1.09379 122.116 1.23051C122.627 1.36724 123.07 1.6065 123.445 1.94831C123.853 2.29012 124.177 2.75157 124.416 3.33264C124.654 3.91372 124.773 4.63152 124.773 5.48604V21.9954Z" fill="white"/>
<path d="M194.085 5.48604C194.085 3.77699 194.494 2.61484 195.312 1.99958C196.164 1.35015 197.135 1.02543 198.225 1.02543C198.77 1.02543 199.281 1.09379 199.758 1.23051C200.269 1.36724 200.712 1.6065 201.087 1.94831C201.462 2.29012 201.768 2.75157 202.007 3.33264C202.245 3.91372 202.365 4.63152 202.365 5.48604V25.9946C202.365 26.8833 202.245 27.6182 202.007 28.1993C201.768 28.7804 201.462 29.2418 201.087 29.5836C200.712 29.9254 200.269 30.1647 199.758 30.3014C199.281 30.4381 198.77 30.5065 198.225 30.5065C197.68 30.5065 197.152 30.4381 196.641 30.3014C196.163 30.1647 195.721 29.9254 195.312 29.5836C194.937 29.2418 194.63 28.7804 194.392 28.1993C194.187 27.6182 194.085 26.8833 194.085 25.9946V5.48604ZM171.956 38.5048H199.349C200.303 38.5048 201.087 38.6074 201.7 38.8125C202.313 39.0176 202.79 39.2739 203.131 39.5815C203.472 39.9234 203.693 40.2994 203.796 40.7095C203.932 41.1539 204 41.5811 204 41.9913C204 42.504 203.932 42.9655 203.796 43.3756C203.693 43.82 203.472 44.196 203.131 44.5036C202.79 44.8454 202.313 45.1018 201.7 45.2727C201.087 45.4778 200.303 45.5803 199.349 45.5803H167.816C166.862 45.5803 166.112 45.4778 165.567 45.2727C165.022 45.1018 164.596 44.8454 164.289 44.5036C164.017 44.196 163.847 43.82 163.778 43.3756C163.71 42.9655 163.676 42.504 163.676 41.9913V33.5828C163.676 31.8737 164.085 30.7116 164.903 30.0963C165.755 29.4469 166.726 29.1222 167.816 29.1222C168.361 29.1222 168.872 29.1905 169.349 29.3273C169.86 29.464 170.303 29.7033 170.678 30.0451C171.053 30.3869 171.359 30.8483 171.598 31.4294C171.836 32.0105 171.956 32.7283 171.956 33.5828V38.5048ZM162.654 5.53731C162.654 3.96499 163.063 2.92247 163.881 2.40976C164.698 1.86286 165.84 1.58941 167.305 1.58941H180.491C181.445 1.58941 182.194 1.69196 182.739 1.89704C183.284 2.06795 183.693 2.3243 183.966 2.66611C184.272 2.97374 184.46 3.34973 184.528 3.79409C184.596 4.20426 184.63 4.6657 184.63 5.17842V21.4827C184.63 22.3373 184.511 23.0551 184.272 23.6361C184.068 24.183 183.761 24.6274 183.353 24.9692C182.944 25.311 182.467 25.5674 181.922 25.7383C181.376 25.875 180.78 25.9433 180.133 25.9433H166.794C165.84 25.9433 165.09 25.8579 164.545 25.687C164 25.4819 163.574 25.2255 163.267 24.9179C162.995 24.5761 162.824 24.2001 162.756 23.7899C162.688 23.3456 162.654 22.8671 162.654 22.3543V5.53731ZM170.933 8.40851V19.1242H176.351V8.40851H170.933Z" fill="white"/>
</svg>
