<svg width="375" height="64" viewBox="0 0 375 64" fill="none" xmlns="http://www.w3.org/2000/svg">
<g filter="url(#filter0_d_0_1)">
<rect y="4" width="375" height="60" fill="#C3F4FF"/>
</g>
<path d="M185.64 24.24V42.82H188.32V24.24H185.64ZM187.72 31.1V33.28H191V31.1H187.72ZM174.52 36.16V38.36H176.08C179.3 38.36 181.84 38.28 184.64 37.78L184.38 35.58C181.66 36.06 179.2 36.16 176.08 36.16H174.52ZM174.52 25.96V37.22H177.16V28.1H183.16V25.96H174.52ZM200.578 24.6C196.498 24.6 193.878 25.98 193.878 28.22C193.878 30.46 196.498 31.82 200.578 31.82C204.658 31.82 207.278 30.46 207.278 28.22C207.278 25.98 204.658 24.6 200.578 24.6ZM200.578 26.66C203.098 26.66 204.538 27.16 204.538 28.22C204.538 29.26 203.098 29.78 200.578 29.78C198.038 29.78 196.618 29.26 196.618 28.22C196.618 27.16 198.038 26.66 200.578 26.66ZM194.138 36.26V42.58H206.938V36.26H194.138ZM204.338 38.36V40.48H196.758V38.36H204.338ZM192.198 32.88V34.98H208.938V32.88H192.198Z" fill="#5B5B5B"/>
<defs>
<filter id="filter0_d_0_1" x="0" y="0" width="383" height="68" filterUnits="userSpaceOnUse" color-interpolation-filters="sRGB">
<feFlood flood-opacity="0" result="BackgroundImageFix"/>
<feColorMatrix in="SourceAlpha" type="matrix" values="0 0 0 0 0 0 0 0 0 0 0 0 0 0 0 0 0 0 127 0" result="hardAlpha"/>
<feOffset dx="4"/>
<feGaussianBlur stdDeviation="2"/>
<feComposite in2="hardAlpha" operator="out"/>
<feColorMatrix type="matrix" values="0 0 0 0 0 0 0 0 0 0 0 0 0 0 0 0 0 0 0.25 0"/>
<feBlend mode="normal" in2="BackgroundImageFix" result="effect1_dropShadow_0_1"/>
<feBlend mode="normal" in="SourceGraphic" in2="effect1_dropShadow_0_1" result="shape"/>
</filter>
</defs>
</svg>
