<svg width="48" height="48" viewBox="0 0 48 48" fill="none" xmlns="http://www.w3.org/2000/svg">
<path d="M10.875 31.3001L4.27502 24.7001C4.17502 24.6001 4.10402 24.4917 4.06202 24.3751C4.02002 24.2584 3.99935 24.1334 4.00002 24.0001C4.00002 23.8667 4.02102 23.7417 4.06302 23.6251C4.10502 23.5084 4.17568 23.4001 4.27502 23.3001L10.875 16.7001C11.0583 16.5167 11.2877 16.4211 11.563 16.4131C11.8383 16.4051 12.0757 16.5007 12.275 16.7001C12.475 16.8834 12.5793 17.1127 12.588 17.3881C12.5967 17.6634 12.5007 17.9007 12.3 18.1001L7.40002 23.0001H18.575C18.8583 23.0001 19.096 23.0961 19.288 23.2881C19.48 23.4801 19.5757 23.7174 19.575 24.0001C19.575 24.2834 19.4793 24.5211 19.288 24.7131C19.0967 24.9051 18.859 25.0007 18.575 25.0001H7.40002L12.3 29.9001C12.4833 30.0834 12.5793 30.3167 12.588 30.6001C12.5967 30.8834 12.5007 31.1167 12.3 31.3001C12.1167 31.5001 11.8833 31.6001 11.6 31.6001C11.3167 31.6001 11.075 31.5001 10.875 31.3001Z" fill="#2D2D2D"/>
</svg>
