<svg width="50" height="50" viewBox="0 0 50 50" fill="none" xmlns="http://www.w3.org/2000/svg">
<circle cx="25" cy="25" r="25" fill="#FA3A45" fill-opacity="0.8"/>
<circle cx="25.1809" cy="16.2749" r="5.2749" stroke="white" stroke-width="2"/>
<path d="M37.8378 29.9325C37.8378 31.4574 36.7472 33.0333 34.5578 34.2843C32.3968 35.5192 29.3446 36.3148 25.9189 36.3148C22.4932 36.3148 19.441 35.5192 17.28 34.2843C15.0907 33.0333 14 31.4574 14 29.9325C14 28.4077 15.0907 26.8318 17.28 25.5807C19.441 24.3459 22.4932 23.5503 25.9189 23.5503C29.3446 23.5503 32.3968 24.3459 34.5578 25.5807C36.7472 26.8318 37.8378 28.4077 37.8378 29.9325Z" stroke="white" stroke-width="2"/>
<line x1="14.3429" y1="14" x2="38.0001" y2="37.6572" stroke="white" stroke-width="2" stroke-linecap="round"/>
<line x1="13.4142" y1="14.9287" x2="37.0714" y2="38.5859" stroke="#FB616A" stroke-width="2" stroke-linecap="round"/>
</svg>
