<svg width="234" height="143" viewBox="0 0 234 143" fill="none" xmlns="http://www.w3.org/2000/svg">
<rect x="57.5" y="97.5" width="119" height="43" rx="21.5" fill="white" stroke="url(#paint0_linear_1262_78)" stroke-width="5"/>
<rect y="110" width="57" height="18" fill="url(#paint1_linear_1262_78)"/>
<rect x="177" y="110" width="57" height="18" fill="url(#paint2_linear_1262_78)"/>
<path d="M82.58 115.84C82.58 115.12 82.7733 114.593 83.16 114.26C83.56 113.913 84.2667 113.74 85.28 113.74H92.38V115.06H85.36C84.8133 115.06 84.4533 115.127 84.28 115.26C84.1067 115.393 84.02 115.587 84.02 115.84C84.02 116.093 84.1067 116.287 84.28 116.42C84.4533 116.553 84.8133 116.62 85.36 116.62H88.8C89.1733 116.62 89.48 116.613 89.72 116.6C89.9733 116.587 90.1733 116.56 90.32 116.52C90.4667 116.467 90.5733 116.387 90.64 116.28C90.7067 116.173 90.74 116.027 90.74 115.84V115.32H92.18V115.84C92.18 116.267 92.1133 116.62 91.98 116.9C91.8467 117.167 91.6467 117.38 91.38 117.54C91.1133 117.687 90.7667 117.793 90.34 117.86C89.9267 117.913 89.44 117.94 88.88 117.94H88.12V118.88H93.7V120.24H81.1V118.88H86.68V117.94H85.28C84.2667 117.94 83.56 117.773 83.16 117.44C82.7733 117.093 82.58 116.56 82.58 115.84ZM96.98 126.14H86.34C85.6333 126.14 85.08 126.073 84.68 125.94C84.2933 125.807 84 125.607 83.8 125.34C83.6133 125.087 83.4933 124.773 83.44 124.4C83.4 124.013 83.38 123.573 83.38 123.08V120.92H84.82V123.08C84.82 123.4 84.8267 123.667 84.84 123.88C84.8667 124.093 84.9267 124.267 85.02 124.4C85.1133 124.533 85.26 124.633 85.46 124.7C85.66 124.753 85.9467 124.78 86.32 124.78H96.98V126.14ZM96.78 111.52V115.22H99.1V116.58H96.78V122.14H95.34V111.52H96.78ZM82.18 111.92H86.66V110.72H88.1V111.92H92.6V113.18H82.18V111.92ZM99.7078 118.48H116.308V119.84H99.7078V118.48ZM104.608 126.12C104.061 126.12 103.568 126.093 103.128 126.04C102.701 125.987 102.334 125.867 102.028 125.68C101.734 125.507 101.508 125.26 101.348 124.94C101.188 124.607 101.108 124.167 101.108 123.62C101.108 123.073 101.188 122.64 101.348 122.32C101.508 121.987 101.734 121.733 102.028 121.56C102.334 121.373 102.701 121.253 103.128 121.2C103.568 121.147 104.061 121.12 104.608 121.12H114.928V122.48H104.688C104.301 122.48 103.968 122.487 103.688 122.5C103.421 122.513 103.201 122.553 103.028 122.62C102.868 122.687 102.748 122.8 102.668 122.96C102.588 123.107 102.548 123.327 102.548 123.62C102.548 123.913 102.588 124.14 102.668 124.3C102.748 124.447 102.868 124.56 103.028 124.64C103.201 124.707 103.421 124.747 103.688 124.76C103.968 124.76 104.301 124.76 104.688 124.76H111.348C111.721 124.76 112.028 124.753 112.268 124.74C112.521 124.713 112.721 124.667 112.868 124.6C113.014 124.52 113.121 124.407 113.188 124.26C113.254 124.1 113.288 123.887 113.288 123.62V122.9H114.728V123.62C114.728 124.153 114.661 124.587 114.528 124.92C114.408 125.24 114.214 125.487 113.948 125.66C113.681 125.847 113.334 125.967 112.908 126.02C112.494 126.087 112.001 126.12 111.428 126.12H104.608ZM106.548 113.24C106.161 113.24 105.828 113.26 105.548 113.3C105.281 113.327 105.048 113.387 104.848 113.48C104.648 113.573 104.468 113.713 104.308 113.9C104.161 114.073 104.021 114.3 103.888 114.58L102.488 117.54H100.948L102.608 114.18C102.861 113.66 103.101 113.253 103.328 112.96C103.568 112.653 103.828 112.427 104.108 112.28C104.401 112.12 104.741 112.02 105.128 111.98C105.528 111.94 106.008 111.92 106.568 111.92H109.428C109.988 111.92 110.461 111.94 110.848 111.98C111.234 112.02 111.574 112.12 111.868 112.28C112.161 112.427 112.421 112.653 112.648 112.96C112.888 113.253 113.134 113.66 113.388 114.18L115.048 117.54H113.508L112.108 114.58C111.974 114.3 111.828 114.073 111.668 113.9C111.521 113.713 111.348 113.573 111.148 113.48C110.948 113.387 110.708 113.327 110.428 113.3C110.161 113.26 109.834 113.24 109.448 113.24H106.548ZM133.396 111.52V126.14H131.956V111.52H133.396ZM122.556 113.28C122.142 113.28 121.809 113.42 121.556 113.7C121.316 113.967 121.149 114.46 121.056 115.18L119.776 125.94H118.336L119.756 114.78C119.996 112.873 120.916 111.92 122.516 111.92H124.476C126.076 111.92 126.996 112.873 127.236 114.78L128.656 125.94H127.216L125.936 115.18C125.842 114.46 125.669 113.967 125.416 113.7C125.176 113.42 124.849 113.28 124.436 113.28H122.556ZM151.403 111.52V122.14H149.963V111.52H151.403ZM140.163 119.74C139.443 119.74 138.85 119.7 138.383 119.62C137.93 119.527 137.57 119.36 137.303 119.12C137.037 118.867 136.85 118.513 136.743 118.06C136.65 117.607 136.603 117.013 136.603 116.28V111.92H146.443V116.28C146.443 117.013 146.39 117.607 146.283 118.06C146.19 118.513 146.01 118.867 145.743 119.12C145.477 119.36 145.11 119.527 144.643 119.62C144.19 119.7 143.603 119.74 142.883 119.74H140.163ZM142.903 118.38C143.437 118.38 143.843 118.347 144.123 118.28C144.403 118.213 144.61 118.1 144.743 117.94C144.877 117.78 144.95 117.567 144.963 117.3C144.99 117.02 145.003 116.68 145.003 116.28V113.28H138.043V116.28C138.043 116.68 138.05 117.02 138.063 117.3C138.09 117.567 138.163 117.78 138.283 117.94C138.417 118.1 138.623 118.213 138.903 118.28C139.197 118.347 139.61 118.38 140.143 118.38H142.903ZM151.603 126.14H140.363C139.657 126.14 139.103 126.073 138.703 125.94C138.317 125.807 138.023 125.607 137.823 125.34C137.637 125.087 137.517 124.773 137.463 124.4C137.423 124.013 137.403 123.573 137.403 123.08V120.92H138.843V123.08C138.843 123.4 138.85 123.667 138.863 123.88C138.89 124.093 138.95 124.267 139.043 124.4C139.137 124.533 139.283 124.633 139.483 124.7C139.683 124.753 139.97 124.78 140.343 124.78H151.603V126.14Z" fill="black"/>
<rect x="16" y="61" width="56" height="30" rx="15" fill="#F9ACCA" fill-opacity="0.7"/>
<rect x="52" y="38" width="53" height="53" rx="20" fill="#79DEE2" fill-opacity="0.7"/>
<path fill-rule="evenodd" clip-rule="evenodd" d="M160 91C160 76.6406 148.359 65 134 65C119.641 65 108 76.6406 108 91H160Z" fill="#B7ADF6" fill-opacity="0.7"/>
<ellipse cx="163" cy="66" rx="20" ry="25" fill="#FDAA02" fill-opacity="0.7"/>
<path d="M185.166 52.6506C188.925 45.5661 199.075 45.5661 202.834 52.6506L215.653 76.8134C219.187 83.4737 214.359 91.5 206.819 91.5H181.181C173.641 91.5 168.813 83.4737 172.347 76.8134L185.166 52.6506Z" fill="#6BF200" fill-opacity="0.7"/>
<rect x="96" width="22" height="91" rx="11" fill="#FB5002" fill-opacity="0.7"/>
<circle cx="24.5" cy="70.5" r="1.5" fill="black"/>
<circle cx="28.5" cy="70.5" r="1.5" fill="black"/>
<circle cx="85.5" cy="45.5" r="1.5" fill="black"/>
<circle cx="89.5" cy="45.5" r="1.5" fill="black"/>
<circle cx="197.5" cy="63.5" r="1.5" fill="black"/>
<circle cx="201.5" cy="63.5" r="1.5" fill="black"/>
<ellipse cx="132" cy="72" rx="1" ry="2" fill="black"/>
<ellipse cx="138" cy="72" rx="1" ry="2" fill="black"/>
<path fill-rule="evenodd" clip-rule="evenodd" d="M100 8C100 9.10455 100.895 10 102 10C103.105 10 104 9.10455 104 8H103C103 8.55231 102.552 9 102 9C101.448 9 101 8.55231 101 8H100Z" fill="black"/>
<path fill-rule="evenodd" clip-rule="evenodd" d="M164 49C164 47.8954 163.105 47 162 47C160.895 47 160 47.8954 160 49L161 49C161 48.4477 161.448 48 162 48C162.552 48 163 48.4477 163 49L164 49Z" fill="black"/>
<path fill-rule="evenodd" clip-rule="evenodd" d="M105 8C105 9.10457 105.895 10 107 10C108.105 10 109 9.10457 109 8H108C108 8.55228 107.552 9 107 9C106.448 9 106 8.55228 106 8H105Z" fill="black"/>
<path fill-rule="evenodd" clip-rule="evenodd" d="M159 49C159 47.8954 158.105 47 157 47C155.895 47 155 47.8954 155 49L156 49C156 48.4477 156.448 48 157 48C157.552 48 158 48.4477 158 49L159 49Z" fill="black"/>
<defs>
<linearGradient id="paint0_linear_1262_78" x1="81.5" y1="111" x2="159.166" y2="135.556" gradientUnits="userSpaceOnUse">
<stop stop-color="#FE619E" stop-opacity="0.49"/>
<stop offset="1" stop-color="#01CCD2" stop-opacity="0.5"/>
</linearGradient>
<linearGradient id="paint1_linear_1262_78" x1="48.5" y1="119" x2="14" y2="128" gradientUnits="userSpaceOnUse">
<stop stop-color="#F9ACCA"/>
<stop offset="1" stop-color="#FB5000" stop-opacity="0.5"/>
</linearGradient>
<linearGradient id="paint2_linear_1262_78" x1="184" y1="121.5" x2="224" y2="128" gradientUnits="userSpaceOnUse">
<stop stop-color="#79DEE2"/>
<stop offset="1" stop-color="#8367F9" stop-opacity="0.5"/>
</linearGradient>
</defs>
</svg>
