<svg width="320" height="48" viewBox="0 0 320 48" fill="none" xmlns="http://www.w3.org/2000/svg">
<rect x="0.5" y="0.5" width="319" height="47" rx="9.5" stroke="black"/>
<path d="M148.58 20.78V21C148.58 22.6 147.32 24.12 144.46 24.64L145.52 26.7C149.08 25.98 150.72 23.74 150.72 21V20.78H148.58ZM149.12 20.78V21C149.12 23.62 150.76 25.76 154.26 26.42L155.3 24.38C152.5 23.88 151.26 22.5 151.26 21V20.78H149.12ZM144.96 19.1V21.14H154.86V19.1H144.96ZM148.58 17.3V20.56H151.26V17.3H148.58ZM148.56 27.78V35.22H151.22V27.78H148.56ZM156.66 17.26V35.78H159.3V17.26H156.66ZM144.18 29.64C147.48 29.64 151.78 29.58 155.78 28.86L155.6 26.94C151.72 27.46 147.22 27.48 143.86 27.48L144.18 29.64ZM162.218 31.44V33.62H178.978V31.44H162.218ZM169.178 27.32V32.02H171.818V27.32H169.178ZM169.078 18.28V19.62C169.078 22.18 166.818 25.02 162.598 25.7L163.698 27.92C168.538 27.04 171.398 23.56 171.398 19.62V18.28H169.078ZM169.598 18.28V19.62C169.598 23.62 172.458 27.02 177.318 27.92L178.418 25.7C174.178 25.02 171.918 22.24 171.918 19.62V18.28H169.598Z" fill="#5B5B5B"/>
</svg>
