<svg width="343" height="50" viewBox="0 0 343 50" fill="none" xmlns="http://www.w3.org/2000/svg">
<rect width="343" height="50" rx="4" fill="#FA3A45"/>
<path d="M126 19C126 17.9 125.1 17 124 17H108C106.9 17 106 17.9 106 19V31C106 32.1 106.9 33 108 33H124C125.1 33 126 32.1 126 31V19ZM124 19L116 24L108 19H124ZM124 31H108V21L116 26L124 21V31Z" fill="white"/>
<path d="M148.988 18.4121H147.689V30.6895H148.988V18.4121ZM139.268 23.6211C139.268 26.2666 140.587 27.9346 142.439 27.9277C144.258 27.9346 145.598 26.2666 145.598 23.6211C145.598 21.0029 144.258 19.335 142.439 19.3281C140.587 19.335 139.268 21.0029 139.268 23.6211ZM140.525 23.6211C140.519 21.7002 141.298 20.4971 142.439 20.4902C143.561 20.4971 144.34 21.7002 144.34 23.6211C144.34 25.5693 143.561 26.7656 142.439 26.7656C141.298 26.7656 140.519 25.5693 140.525 23.6211ZM156.111 19.793H151.354V27.4355H156.111V24.0449H157.752V30.0605H158.996V18.6445H157.752V22.9785H156.111V19.793ZM152.584 26.3965V20.8184H154.895V26.3965H152.584ZM160.24 30.6621H161.484V18.4121H160.24V30.6621ZM166.516 18.8223C164.649 18.8359 163.296 19.9639 163.289 21.5703C163.296 23.1836 164.649 24.3047 166.516 24.3047C168.361 24.3047 169.722 23.1836 169.729 21.5703C169.722 19.9639 168.361 18.8359 166.516 18.8223ZM164.561 21.5703C164.554 20.5723 165.388 19.9023 166.516 19.916C167.637 19.9023 168.471 20.5723 168.471 21.5703C168.471 22.582 167.637 23.252 166.516 23.252C165.388 23.252 164.554 22.582 164.561 21.5703ZM165.148 26.2461H171.916V27.3262H165.189V30.5117H173.611V29.4727H166.447V28.2969H173.201V25.207H165.148V26.2461ZM171.902 24.6465H173.201V18.4121H171.902V24.6465ZM186.354 28.1055H181.363V25.959H185.273V24.8926H177.795V23.1016H184.986V19.2734H176.482V20.3398H183.701V22.0625H176.51V25.959H180.078V28.1055H175.143V29.1992H186.354V28.1055ZM195.158 21.5293V19.4375H193.846V21.5293C193.846 23.8672 192.492 26.2119 190.564 27.0664L191.357 28.1602C192.827 27.4424 193.955 25.9658 194.522 24.168C195.097 25.8428 196.211 27.2168 197.619 27.8867L198.398 26.8613C196.498 26.0205 195.145 23.7646 195.158 21.5293ZM199.506 30.6895H200.805V18.4121H199.506V30.6895ZM207.039 20.6133V20.2715H209.678V19.2188H203.047V20.2715H205.74V20.5996C205.733 22.2881 204.578 23.874 202.664 24.5234L203.361 25.5352C204.797 25.0293 205.863 23.9834 206.396 22.6641C206.93 23.8672 207.948 24.8242 209.336 25.3027L209.992 24.291C208.119 23.6621 207.032 22.1787 207.039 20.6133ZM204.291 27.4492H211.086V30.6621H212.385V26.3965H204.291V27.4492ZM211.086 25.7949H212.385V22.6504H214.162V21.5566H212.385V18.4121H211.086V25.7949ZM224.402 18.4121H223.117V30.6621H224.402V24.4551H226.371V23.375H224.402V18.4121ZM214.791 21.3926H222.051V20.3262H219.111V18.5762H217.812V20.3262H214.791V21.3926ZM215.42 25.1387C215.42 26.8203 216.705 27.9893 218.469 27.9961C220.226 27.9893 221.511 26.8203 221.518 25.1387C221.511 23.4707 220.226 22.2949 218.469 22.2949C216.705 22.2949 215.42 23.4707 215.42 25.1387ZM216.664 25.1387C216.657 24.0928 217.423 23.3682 218.469 23.3613C219.508 23.3682 220.267 24.0928 220.273 25.1387C220.267 26.2051 219.508 26.916 218.469 26.9023C217.423 26.916 216.657 26.2051 216.664 25.1387ZM237.145 18.4121H235.832V30.6621H237.145V18.4121ZM227.082 27.3809L227.766 28.4336C231.97 26.417 233.494 23.3135 233.494 19.7246H227.67V20.7637H232.182C231.929 23.6211 230.336 25.8291 227.082 27.3809Z" fill="white"/>
</svg>
