<svg width="102" height="86" viewBox="0 0 102 86" fill="none" xmlns="http://www.w3.org/2000/svg">
<path d="M76.4229 27.6964L90.5539 23.0795" stroke="#9FE5E8" stroke-width="5" stroke-linecap="round"/>
<path d="M80.1071 39.3473L99.417 39.7023" stroke="#9FE5E8" stroke-width="5" stroke-linecap="round"/>
<path d="M70.1894 17.2754L83.1295 2.51954" stroke="#9FE5E8" stroke-width="5" stroke-linecap="round"/>
<rect x="9.19959" y="44.4225" width="16.3854" height="16.3854" rx="4" transform="rotate(-22.4183 9.19959 44.4225)" fill="white" stroke="#9FE5E8" stroke-width="2"/>
<rect x="20.4977" y="57.8847" width="6.71495" height="24.9948" rx="3.35748" transform="rotate(-22.4183 20.4977 57.8847)" fill="white" stroke="#9FE5E8" stroke-width="2"/>
<rect x="3.88465" y="50.1853" width="7.17438" height="10.2533" rx="3.58719" transform="rotate(-22.4183 3.88465 50.1853)" fill="white" stroke="#9FE5E8" stroke-width="2"/>
<path d="M24.8288 38.6575C24.176 37.1014 24.5701 35.3029 25.8138 34.1623L46.8712 14.8496C48.9153 12.9749 52.2006 13.6989 53.2672 16.2593L66.6524 48.3886C67.6932 50.8869 66.0043 53.6762 63.308 53.9117L35.2693 56.3605C33.537 56.5118 31.9053 55.5266 31.2327 53.9231L24.8288 38.6575Z" fill="white" stroke="#9FE5E8" stroke-width="2"/>
<rect x="49.2392" y="7.37625" width="6.5737" height="55.4961" rx="3.28685" transform="rotate(-23.2382 49.2392 7.37625)" fill="white" stroke="#9FE5E8" stroke-width="2"/>
</svg>