<svg width="364" height="560" viewBox="0 0 364 560" fill="none" xmlns="http://www.w3.org/2000/svg">
<g filter="url(#filter0_d_0_1)">
<rect x="5" width="343" height="530" rx="30" fill="#DCF9FF"/>
</g>
<path d="M42.254 33.422V46.092H43.43V33.422H42.254ZM43.108 38.56V39.526H45.446V38.56H43.108ZM39.02 34.794V34.976C39.02 38.322 37.27 41.024 33.77 42.802L34.414 43.698C38.502 41.64 40.154 38.392 40.154 34.794H39.02ZM34.358 34.794V35.746H39.622V34.794H34.358ZM55.7769 33.436V40.226H56.9529V33.436H55.7769ZM48.7909 40.856V45.924H56.9529V40.856H55.8049V42.396H49.9389V40.856H48.7909ZM49.9389 43.32H55.8049V44.986H49.9389V43.32ZM50.1629 34.038C48.2449 34.038 46.8589 35.228 46.8589 36.95C46.8589 38.686 48.2449 39.876 50.1629 39.876C52.0809 39.876 53.4529 38.686 53.4529 36.95C53.4529 35.228 52.0809 34.038 50.1629 34.038ZM50.1629 35.004C51.4229 35.004 52.3329 35.802 52.3329 36.95C52.3329 38.098 51.4229 38.896 50.1629 38.896C48.9029 38.896 47.9929 38.098 47.9929 36.95C47.9929 35.802 48.9029 35.004 50.1629 35.004ZM68.0258 33.436V46.092H69.1878V33.436H68.0258ZM68.9078 38.63V39.61H71.2598V38.63H68.9078ZM59.3878 35.452V36.404H66.8498V35.452H59.3878ZM63.1678 37.454C61.3898 37.454 60.0878 38.658 60.0878 40.366C60.0878 42.074 61.3898 43.278 63.1678 43.278C64.9598 43.278 66.2478 42.074 66.2478 40.366C66.2478 38.658 64.9598 37.454 63.1678 37.454ZM63.1678 38.42C64.3158 38.42 65.1418 39.218 65.1418 40.366C65.1418 41.5 64.3158 42.312 63.1678 42.312C62.0198 42.312 61.1938 41.5 61.1938 40.366C61.1938 39.218 62.0198 38.42 63.1678 38.42ZM62.5658 33.59V35.886H63.7278V33.59H62.5658ZM81.5347 33.45V42.718H82.7107V33.45H81.5347ZM74.5767 44.86V45.812H83.0887V44.86H74.5767ZM74.5767 41.864V45.308H75.7247V41.864H74.5767ZM75.6267 34.136V35.424C75.6267 37.384 74.3667 39.232 72.4627 39.974L73.0647 40.912C75.1927 40.044 76.5927 37.888 76.5927 35.424V34.136H75.6267ZM75.8367 34.136V35.424C75.8367 37.832 77.2367 39.862 79.3367 40.674L79.9527 39.736C78.0627 39.05 76.7887 37.328 76.7887 35.424V34.136H75.8367ZM95.6003 36.712V37.678H98.4563V36.712H95.6003ZM98.0923 33.436V40.982H99.2543V33.436H98.0923ZM95.0963 41.36C92.4783 41.36 90.8683 42.242 90.8683 43.726C90.8683 45.224 92.4783 46.078 95.0963 46.078C97.7003 46.078 99.3103 45.224 99.3103 43.726C99.3103 42.242 97.7003 41.36 95.0963 41.36ZM95.0963 42.27C97.0003 42.27 98.1623 42.802 98.1623 43.726C98.1623 44.636 97.0003 45.168 95.0963 45.168C93.1923 45.168 92.0303 44.636 92.0303 43.726C92.0303 42.802 93.1923 42.27 95.0963 42.27ZM92.0723 34.71V35.732C92.0723 37.552 90.7703 39.246 88.8943 39.932L89.4963 40.856C91.5963 40.072 93.0243 38.07 93.0243 35.732V34.71H92.0723ZM92.2963 34.71V35.732C92.2963 37.86 93.6543 39.764 95.7123 40.506L96.3003 39.582C94.4663 38.938 93.2343 37.37 93.2343 35.732V34.71H92.2963ZM89.2443 34.36V35.312H96.0063V34.36H89.2443ZM101.731 43.516V44.482H113.197V43.516H101.731ZM106.855 40.492V43.796H108.017V40.492H106.855ZM103.075 34.332V40.8H111.825V34.332H110.677V36.586H104.223V34.332H103.075ZM104.223 37.524H110.677V39.848H104.223V37.524ZM114.596 39.316V40.198H126.076V39.316H114.596ZM115.954 41.22V42.046H123.5V43.124H115.996V45.406H117.144V43.922H124.634V41.22H115.954ZM115.996 45.098V45.938H125.04V45.098H115.996ZM116.052 33.8V34.626H123.458V35.648H116.08V37.804H117.228V36.432H124.592V33.8H116.052ZM116.08 37.524V38.364H124.83V37.524H116.08ZM139.68 33.436V46.092H140.856V33.436H139.68ZM140.576 38.406V39.4H142.928V38.406H140.576ZM131.616 34.5V43.054H137.524V34.5H136.376V37.846H132.764V34.5H131.616ZM132.764 38.77H136.376V42.102H132.764V38.77ZM152.657 33.436V41.22H153.819V33.436H152.657ZM153.497 36.698V37.678H155.695V36.698H153.497ZM149.801 41.528C147.211 41.528 145.643 42.368 145.643 43.81C145.643 45.252 147.211 46.064 149.801 46.064C152.391 46.064 153.959 45.252 153.959 43.81C153.959 42.368 152.391 41.528 149.801 41.528ZM149.801 42.438C151.691 42.438 152.825 42.942 152.825 43.81C152.825 44.664 151.691 45.168 149.801 45.168C147.925 45.168 146.791 44.664 146.791 43.81C146.791 42.942 147.925 42.438 149.801 42.438ZM144.579 39.428V40.366H145.545C148.121 40.366 149.577 40.31 151.313 40.002L151.187 39.064C149.493 39.372 148.079 39.428 145.545 39.428H144.579ZM144.579 34.318V39.876H145.727V35.27H150.361V34.318H144.579ZM145.363 36.838V37.762H150.123V36.838H145.363ZM162.596 34.234C159.964 34.234 157.99 35.634 157.99 37.734C157.99 39.848 159.964 41.234 162.596 41.234C165.228 41.234 167.188 39.848 167.188 37.734C167.188 35.634 165.228 34.234 162.596 34.234ZM162.596 35.186C164.598 35.186 166.082 36.208 166.082 37.734C166.082 39.246 164.598 40.282 162.596 40.282C160.594 40.282 159.11 39.246 159.11 37.734C159.11 36.208 160.594 35.186 162.596 35.186ZM156.884 43.446V44.426H168.35V43.446H156.884ZM169.763 43.572V44.538H181.229V43.572H169.763ZM174.887 40.856V43.978H176.049V40.856H174.887ZM171.149 34.374V35.312H178.667V37.272H171.191V40.744H172.339V38.21H179.815V34.374H171.149ZM171.191 40.254V41.206H180.109V40.254H171.191ZM190.548 45H189.344V38.014C189.344 37.7433 189.344 37.5147 189.344 37.328C189.353 37.1413 189.363 36.9687 189.372 36.81C189.381 36.642 189.391 36.4693 189.4 36.292C189.251 36.4413 189.115 36.5673 188.994 36.67C188.873 36.7727 188.719 36.9033 188.532 37.062L187.468 37.93L186.824 37.104L189.526 35.004H190.548V45ZM194.598 44.244C194.598 43.8987 194.682 43.656 194.85 43.516C195.018 43.376 195.219 43.306 195.452 43.306C195.695 43.306 195.9 43.376 196.068 43.516C196.245 43.656 196.334 43.8987 196.334 44.244C196.334 44.58 196.245 44.8227 196.068 44.972C195.9 45.1213 195.695 45.196 195.452 45.196C195.219 45.196 195.018 45.1213 194.85 44.972C194.682 44.8227 194.598 44.58 194.598 44.244ZM194.598 38.252C194.598 37.8973 194.682 37.65 194.85 37.51C195.018 37.37 195.219 37.3 195.452 37.3C195.695 37.3 195.9 37.37 196.068 37.51C196.245 37.65 196.334 37.8973 196.334 38.252C196.334 38.588 196.245 38.8307 196.068 38.98C195.9 39.1293 195.695 39.204 195.452 39.204C195.219 39.204 195.018 39.1293 194.85 38.98C194.682 38.8307 194.598 38.588 194.598 38.252ZM202.306 45H201.102V38.014C201.102 37.7433 201.102 37.5147 201.102 37.328C201.111 37.1413 201.121 36.9687 201.13 36.81C201.139 36.642 201.149 36.4693 201.158 36.292C201.009 36.4413 200.873 36.5673 200.752 36.67C200.631 36.7727 200.477 36.9033 200.29 37.062L199.226 37.93L198.582 37.104L201.284 35.004H202.306V45ZM212.806 35.242V37.3C212.806 39.442 211.28 41.85 209.474 42.732L210.146 43.656C212.12 42.648 213.73 39.932 213.73 37.3V35.242H212.806ZM213.016 35.242V37.3C213.016 39.806 214.542 42.354 216.544 43.348L217.202 42.424C215.368 41.556 213.94 39.302 213.94 37.3V35.242H213.016ZM209.922 34.724V35.704H216.74V34.724H209.922ZM218.238 33.436V46.092H219.414V33.436H218.238ZM219.134 38.546V39.526H221.486V38.546H219.134ZM222.563 39.666V40.618H234.001V39.666H222.563ZM227.701 37.636V40.058H228.849V37.636H227.701ZM224.005 37.272V38.224H232.671V37.272H224.005ZM224.005 34.01V37.832H225.153V34.948H232.573V34.01H224.005ZM228.261 41.528C225.559 41.528 223.921 42.354 223.921 43.796C223.921 45.266 225.559 46.078 228.261 46.078C230.963 46.078 232.601 45.266 232.601 43.796C232.601 42.354 230.963 41.528 228.261 41.528ZM228.261 42.424C230.249 42.424 231.425 42.928 231.425 43.796C231.425 44.678 230.249 45.168 228.261 45.168C226.287 45.168 225.097 44.678 225.097 43.796C225.097 42.928 226.287 42.424 228.261 42.424ZM245.074 33.436V46.092H246.194V33.436H245.074ZM243.072 38.448V39.4H245.494V38.448H243.072ZM242.274 33.702V45.462H243.38V33.702H242.274ZM235.89 34.892V42.704H240.72V34.892H235.89ZM239.628 35.816V41.78H236.982V35.816H239.628ZM251.751 35.522V36.068C251.751 37.79 250.449 39.33 248.559 39.946L249.119 40.842C251.261 40.142 252.703 38.294 252.703 36.068V35.522H251.751ZM251.947 35.522V36.068C251.947 38.182 253.431 39.904 255.587 40.548L256.119 39.624C254.243 39.092 252.899 37.664 252.899 36.068V35.522H251.947ZM248.867 34.99V35.928H255.755V34.99H248.867ZM251.751 33.436V35.396H252.899V33.436H251.751ZM257.519 33.45V41.192H258.695V33.45H257.519ZM254.481 41.458C251.835 41.458 250.239 42.298 250.239 43.754C250.239 45.224 251.835 46.064 254.481 46.064C257.127 46.064 258.737 45.224 258.737 43.754C258.737 42.298 257.127 41.458 254.481 41.458ZM254.481 42.382C256.413 42.382 257.575 42.886 257.575 43.754C257.575 44.65 256.413 45.154 254.481 45.154C252.563 45.154 251.401 44.65 251.401 43.754C251.401 42.886 252.563 42.382 254.481 42.382ZM267.413 36.67V37.328C267.413 39.386 266.433 41.584 264.711 42.592L265.411 43.474C267.259 42.368 268.309 39.834 268.309 37.328V36.67H267.413ZM267.623 36.67V37.328C267.623 39.764 268.715 42.158 270.577 43.194L271.235 42.326C269.541 41.402 268.519 39.33 268.519 37.328V36.67H267.623ZM265.033 35.788V36.74H270.899V35.788H265.033ZM267.413 33.884V36.502H268.533V33.884H267.413ZM274.511 33.436V46.092H275.617V33.436H274.511ZM272.509 38.532V39.512H274.945V38.532H272.509ZM271.753 33.702V45.462H272.845V33.702H271.753ZM278.444 39.442V40.38H279.466C282.224 40.38 283.764 40.338 285.598 40.016L285.472 39.092C283.694 39.386 282.196 39.442 279.466 39.442H278.444ZM278.444 34.36V39.918H279.592V35.298H284.464V34.36H278.444ZM279.214 36.866V37.79H284.114V36.866H279.214ZM286.914 33.45V41.276H288.09V33.45H286.914ZM283.904 41.458C281.258 41.458 279.648 42.298 279.648 43.754C279.648 45.224 281.258 46.064 283.904 46.064C286.536 46.064 288.146 45.224 288.146 43.754C288.146 42.298 286.536 41.458 283.904 41.458ZM283.904 42.382C285.822 42.382 286.984 42.886 286.984 43.754C286.984 44.65 285.822 45.154 283.904 45.154C281.972 45.154 280.81 44.65 280.81 43.754C280.81 42.886 281.972 42.382 283.904 42.382Z" fill="black"/>
<path d="M37.046 85.242V87.3C37.046 89.484 35.52 91.864 33.686 92.732L34.358 93.656C36.374 92.662 37.984 89.974 37.984 87.3V85.242H37.046ZM37.27 85.242V87.3C37.27 89.932 38.894 92.396 40.938 93.348L41.596 92.424C39.734 91.626 38.208 89.442 38.208 87.3V85.242H37.27ZM34.106 84.724V85.704H41.176V84.724H34.106ZM42.884 83.436V96.092H44.046V83.436H42.884ZM55.1469 83.436V96.092H56.3089V83.436H55.1469ZM56.0289 88.63V89.61H58.3809V88.63H56.0289ZM46.5089 85.452V86.404H53.9709V85.452H46.5089ZM50.2889 87.454C48.5109 87.454 47.2089 88.658 47.2089 90.366C47.2089 92.074 48.5109 93.278 50.2889 93.278C52.0809 93.278 53.3689 92.074 53.3689 90.366C53.3689 88.658 52.0809 87.454 50.2889 87.454ZM50.2889 88.42C51.4369 88.42 52.2629 89.218 52.2629 90.366C52.2629 91.5 51.4369 92.312 50.2889 92.312C49.1409 92.312 48.3149 91.5 48.3149 90.366C48.3149 89.218 49.1409 88.42 50.2889 88.42ZM49.6869 83.59V85.886H50.8489V83.59H49.6869ZM62.6078 85.382V85.914C62.6078 87.412 61.2918 88.686 59.4158 89.176L59.9338 90.086C62.0758 89.498 63.5598 87.916 63.5598 85.914V85.382H62.6078ZM62.8178 85.382V85.914C62.8178 87.818 64.3438 89.302 66.4998 89.834L66.9898 88.938C65.1278 88.504 63.7698 87.314 63.7698 85.914V85.382H62.8178ZM59.8078 84.682V85.634H66.5558V84.682H59.8078ZM62.6078 83.38V85.214H63.7698V83.38H62.6078ZM66.1918 86.572V87.524H69.4398V86.572H66.1918ZM68.6978 83.436V90.058H69.8598V83.436H68.6978ZM61.7118 90.674V91.598H68.7118V92.816H61.7398V95.56H62.8738V93.684H69.8598V90.674H61.7118ZM61.7398 95.042V95.952H70.3218V95.042H61.7398ZM78.0487 83.646C75.2487 83.646 73.5967 84.43 73.5967 85.844C73.5967 87.258 75.2487 88.042 78.0487 88.042C80.8347 88.042 82.5007 87.258 82.5007 85.844C82.5007 84.43 80.8347 83.646 78.0487 83.646ZM78.0487 84.528C80.1067 84.528 81.2967 85.004 81.2967 85.844C81.2967 86.684 80.1067 87.16 78.0487 87.16C75.9767 87.16 74.7867 86.684 74.7867 85.844C74.7867 85.004 75.9767 84.528 78.0487 84.528ZM72.3227 88.882V89.82H83.7607V88.882H72.3227ZM73.7087 90.898V91.794H81.1567V92.914H73.7367V95.294H74.8847V93.754H82.3047V90.898H73.7087ZM73.7367 95.042V95.952H82.6827V95.042H73.7367ZM98.4563 83.436V96.092H99.5763V83.436H98.4563ZM96.3283 88.588V89.54H98.7643V88.588H96.3283ZM95.5863 83.716V95.448H96.6783V83.716H95.5863ZM89.4543 84.962V92.27H90.6163V84.962H89.4543ZM89.4543 91.808V92.816H90.2663C91.6243 92.816 93.0803 92.746 94.8023 92.41L94.6763 91.402C93.0243 91.724 91.5683 91.808 90.2663 91.808H89.4543ZM110.943 83.422V96.106H112.105V83.422H110.943ZM102.459 92.088V93.054H103.509C105.679 93.054 107.583 92.97 109.879 92.592L109.753 91.64C107.513 92.004 105.623 92.088 103.509 92.088H102.459ZM102.431 84.612V85.564H107.107V88.182H102.459V92.452H103.621V89.134H108.283V84.612H102.431ZM116.15 87.23V88.182H124.746V87.23H116.15ZM114.596 89.876V90.828H126.076V89.876H114.596ZM116.15 83.898V87.706H117.298V83.898H116.15ZM116.066 94.832V95.784H124.816V94.832H116.066ZM116.066 92.088V95.084H117.214V92.088H116.066ZM136.25 83.758V84.374C136.25 86.068 134.038 87.552 131.798 87.888L132.26 88.812C134.822 88.364 137.244 86.67 137.244 84.374V83.758H136.25ZM136.432 83.758V84.374C136.432 86.614 138.868 88.35 141.43 88.784L141.864 87.874C139.666 87.538 137.426 86.026 137.426 84.374V83.758H136.432ZM131.112 89.876V90.828H142.578V89.876H131.112ZM136.348 90.464V93.376H137.51V90.464H136.348ZM132.568 94.86V95.812H141.304V94.86H132.568ZM132.568 92.158V95.168H133.716V92.158H132.568ZM152.657 83.436V92.69H153.819V83.436H152.657ZM153.455 87.272V88.238H155.695V87.272H153.455ZM149.199 84.416V84.92C149.199 87.356 147.197 89.316 144.005 90.296L144.509 91.248C148.135 90.086 150.431 87.692 150.431 84.416H149.199ZM144.523 84.416V85.368H149.787V84.416H144.523ZM145.923 94.86V95.812H154.379V94.86H145.923ZM145.923 91.752V95.238H147.085V91.752H145.923ZM163.096 86.67V87.328C163.096 89.386 162.116 91.584 160.394 92.592L161.094 93.474C162.942 92.368 163.992 89.834 163.992 87.328V86.67H163.096ZM163.306 86.67V87.328C163.306 89.764 164.398 92.158 166.26 93.194L166.918 92.326C165.224 91.402 164.202 89.33 164.202 87.328V86.67H163.306ZM160.716 85.788V86.74H166.582V85.788H160.716ZM163.096 83.884V86.502H164.216V83.884H163.096ZM170.194 83.436V96.092H171.3V83.436H170.194ZM168.192 88.532V89.512H170.628V88.532H168.192ZM167.436 83.702V95.462H168.528V83.702H167.436ZM174.127 89.442V90.38H175.149C177.907 90.38 179.447 90.338 181.281 90.016L181.155 89.092C179.377 89.386 177.879 89.442 175.149 89.442H174.127ZM174.127 84.36V89.918H175.275V85.298H180.147V84.36H174.127ZM174.897 86.866V87.79H179.797V86.866H174.897ZM182.597 83.45V91.276H183.773V83.45H182.597ZM179.587 91.458C176.941 91.458 175.331 92.298 175.331 93.754C175.331 95.224 176.941 96.064 179.587 96.064C182.219 96.064 183.829 95.224 183.829 93.754C183.829 92.298 182.219 91.458 179.587 91.458ZM179.587 92.382C181.505 92.382 182.667 92.886 182.667 93.754C182.667 94.65 181.505 95.154 179.587 95.154C177.655 95.154 176.493 94.65 176.493 93.754C176.493 92.886 177.655 92.382 179.587 92.382ZM195.49 83.436V96.092H196.652V83.436H195.49ZM191.78 84.794V84.99C191.78 88.35 190.086 91.038 186.432 92.802L187.048 93.74C191.276 91.668 192.928 88.462 192.928 84.794H191.78ZM187.006 84.794V85.746H192.284V84.794H187.006ZM199.143 90.394V91.346H210.623V90.394H199.143ZM200.599 83.758V84.668H208.005V85.97H200.627V88.532H201.775V86.824H209.139V83.758H200.599ZM200.627 88.154V89.064H209.419V88.154H200.627ZM204.295 88.63V90.87H205.457V88.63H204.295ZM200.417 92.312V93.264H208.061V95.98H209.223V92.312H200.417ZM212.022 90.086V91.038H223.46V90.086H212.022ZM213.506 94.86V95.812H222.2V94.86H213.506ZM213.506 92.144V95.154H214.668V92.144H213.506ZM217.748 83.856C215.032 83.856 213.296 84.808 213.296 86.39C213.296 87.958 215.032 88.91 217.748 88.91C220.45 88.91 222.2 87.958 222.2 86.39C222.2 84.808 220.45 83.856 217.748 83.856ZM217.748 84.808C219.736 84.808 221.01 85.396 221.01 86.39C221.01 87.384 219.736 87.972 217.748 87.972C215.76 87.972 214.486 87.384 214.486 86.39C214.486 85.396 215.76 84.808 217.748 84.808ZM231.66 84.08V85.382C231.66 87.272 230.414 88.938 228.51 89.624L229.112 90.562C231.24 89.75 232.612 87.776 232.612 85.382V84.08H231.66ZM231.87 84.08V85.466C231.87 87.664 233.242 89.554 235.3 90.31L235.888 89.386C234.068 88.756 232.808 87.174 232.808 85.466V84.08H231.87ZM237.204 83.436V91.094H238.366V83.436H237.204ZM238.044 86.768V87.748H240.242V86.768H238.044ZM230.148 91.724V92.69H237.204V96.092H238.366V91.724H230.148ZM251.048 83.436V96.092H252.168V83.436H251.048ZM246.442 87.972V88.938H248.864V87.972H246.442ZM248.514 83.73V95.448H249.606V83.73H248.514ZM244.006 85.396V87.006C244.006 89.33 243.026 91.64 241.262 92.704L241.976 93.572C243.838 92.396 244.902 89.778 244.902 87.006V85.396H244.006ZM244.244 85.396V87.006C244.244 89.652 245.266 92.144 247.114 93.264L247.828 92.41C246.092 91.402 245.14 89.204 245.14 87.006V85.396H244.244ZM241.612 84.906V85.872H247.394V84.906H241.612Z" fill="black"/>
<path d="M36.276 111.67V112.328C36.276 114.386 35.296 116.584 33.574 117.592L34.274 118.474C36.122 117.368 37.172 114.834 37.172 112.328V111.67H36.276ZM36.486 111.67V112.328C36.486 114.764 37.578 117.158 39.44 118.194L40.098 117.326C38.404 116.402 37.382 114.33 37.382 112.328V111.67H36.486ZM33.896 110.788V111.74H39.762V110.788H33.896ZM36.276 108.884V111.502H37.396V108.884H36.276ZM43.374 108.436V121.092H44.48V108.436H43.374ZM41.372 113.532V114.512H43.808V113.532H41.372ZM40.616 108.702V120.462H41.708V108.702H40.616ZM47.3069 114.442V115.38H48.3289C51.0869 115.38 52.6269 115.338 54.4609 115.016L54.3349 114.092C52.5569 114.386 51.0589 114.442 48.3289 114.442H47.3069ZM47.3069 109.36V114.918H48.4549V110.298H53.3269V109.36H47.3069ZM48.0769 111.866V112.79H52.9769V111.866H48.0769ZM55.7769 108.45V116.276H56.9529V108.45H55.7769ZM52.7669 116.458C50.1209 116.458 48.5109 117.298 48.5109 118.754C48.5109 120.224 50.1209 121.064 52.7669 121.064C55.3989 121.064 57.0089 120.224 57.0089 118.754C57.0089 117.298 55.3989 116.458 52.7669 116.458ZM52.7669 117.382C54.6849 117.382 55.8469 117.886 55.8469 118.754C55.8469 119.65 54.6849 120.154 52.7669 120.154C50.8349 120.154 49.6729 119.65 49.6729 118.754C49.6729 117.886 50.8349 117.382 52.7669 117.382ZM69.0618 108.436V121.092H70.1818V108.436H69.0618ZM66.9338 113.588V114.54H69.3698V113.588H66.9338ZM66.1918 108.716V120.448H67.2838V108.716H66.1918ZM60.0598 109.962V117.27H61.2218V109.962H60.0598ZM60.0598 116.808V117.816H60.8718C62.2298 117.816 63.6858 117.746 65.4078 117.41L65.2818 116.402C63.6298 116.724 62.1738 116.808 60.8718 116.808H60.0598ZM75.1507 112.72V115.114H76.2987V112.72H75.1507ZM79.7987 112.72V115.114H80.9467V112.72H79.7987ZM72.3227 114.694V115.632H83.7607V114.694H72.3227ZM78.0347 116.584C75.3187 116.584 73.6947 117.382 73.6947 118.824C73.6947 120.266 75.3187 121.078 78.0347 121.078C80.7507 121.078 82.3747 120.266 82.3747 118.824C82.3747 117.382 80.7507 116.584 78.0347 116.584ZM78.0347 117.48C80.0227 117.48 81.1987 117.97 81.1987 118.824C81.1987 119.692 80.0227 120.168 78.0347 120.168C76.0607 120.168 74.8707 119.692 74.8707 118.824C74.8707 117.97 76.0607 117.48 78.0347 117.48ZM78.0487 108.66C75.2907 108.66 73.5967 109.542 73.5967 111.026C73.5967 112.496 75.2907 113.364 78.0487 113.364C80.7927 113.364 82.5007 112.496 82.5007 111.026C82.5007 109.542 80.7927 108.66 78.0487 108.66ZM78.0487 109.57C80.0647 109.57 81.3107 110.102 81.3107 111.026C81.3107 111.936 80.0647 112.468 78.0487 112.468C76.0327 112.468 74.7867 111.936 74.7867 111.026C74.7867 110.102 76.0327 109.57 78.0487 109.57ZM85.2016 115.086V116.038H96.6396V115.086H85.2016ZM86.6856 119.86V120.812H95.3796V119.86H86.6856ZM86.6856 117.144V120.154H87.8476V117.144H86.6856ZM90.9276 108.856C88.2116 108.856 86.4756 109.808 86.4756 111.39C86.4756 112.958 88.2116 113.91 90.9276 113.91C93.6296 113.91 95.3796 112.958 95.3796 111.39C95.3796 109.808 93.6296 108.856 90.9276 108.856ZM90.9276 109.808C92.9156 109.808 94.1896 110.396 94.1896 111.39C94.1896 112.384 92.9156 112.972 90.9276 112.972C88.9396 112.972 87.6656 112.384 87.6656 111.39C87.6656 110.396 88.9396 109.808 90.9276 109.808ZM101.717 114.96V115.912H113.155V114.96H101.717ZM106.869 113.07V115.254H108.017V113.07H106.869ZM102.991 117.144V118.096H110.579V121.092H111.741V117.144H102.991ZM103.243 108.73V113.462H111.671V108.73H110.509V110.158H104.391V108.73H103.243ZM104.391 111.068H110.509V112.538H104.391V111.068ZM116.038 109.262V110.2H123.948V109.262H116.038ZM114.61 114.694V115.646H126.048V114.694H114.61ZM119.72 115.324V121.106H120.882V115.324H119.72ZM123.402 109.262V110.354C123.402 111.628 123.402 113.098 122.912 115.142L124.06 115.296C124.536 113.154 124.536 111.67 124.536 110.354V109.262H123.402ZM132.613 114.512V116.444H133.761V114.512H132.613ZM129.001 108.632V112.804H137.429V108.632H136.267V109.808H130.149V108.632H129.001ZM130.149 110.704H136.267V111.908H130.149V110.704ZM127.475 113.84V114.778H138.913V113.84H127.475ZM128.861 116.01V116.892H136.309V117.984H128.889V120.392H130.037V118.824H137.457V116.01H128.861ZM128.889 120.056V120.952H137.835V120.056H128.889ZM148.922 108.422V121.092H150.098V108.422H148.922ZM149.776 113.56V114.526H152.114V113.56H149.776ZM145.688 109.794V109.976C145.688 113.322 143.938 116.024 140.438 117.802L141.082 118.698C145.17 116.64 146.822 113.392 146.822 109.794H145.688ZM141.026 109.794V110.746H146.29V109.794H141.026ZM154.801 111.95V112.902H163.383V111.95H154.801ZM154.801 108.688V112.37H155.949V108.688H154.801ZM153.247 114.372V115.31H164.685V114.372H153.247ZM158.945 116.444C156.243 116.444 154.605 117.27 154.605 118.754C154.605 120.21 156.243 121.05 158.945 121.05C161.647 121.05 163.285 120.21 163.285 118.754C163.285 117.27 161.647 116.444 158.945 116.444ZM158.945 117.354C160.933 117.354 162.109 117.858 162.109 118.754C162.109 119.622 160.933 120.126 158.945 120.126C156.971 120.126 155.781 119.622 155.781 118.754C155.781 117.858 156.971 117.354 158.945 117.354Z" fill="black"/>
<path d="M37.97 145H36.766V138.014C36.766 137.743 36.766 137.515 36.766 137.328C36.7753 137.141 36.7847 136.969 36.794 136.81C36.8033 136.642 36.8127 136.469 36.822 136.292C36.6727 136.441 36.5373 136.567 36.416 136.67C36.2947 136.773 36.1407 136.903 35.954 137.062L34.89 137.93L34.246 137.104L36.948 135.004H37.97V145ZM50.9517 133.436V142.816H52.1137V133.436H50.9517ZM47.3817 135.088V136.026H51.3857V135.088H47.3817ZM44.0217 144.86V145.812H52.4497V144.86H44.0217ZM44.0217 142.004V145.294H45.1837V142.004H44.0217ZM42.4397 134.36V140.324H43.6017V134.36H42.4397ZM42.4397 139.96V140.926H43.3917C45.2537 140.926 46.9477 140.842 48.9777 140.478L48.8657 139.512C46.8917 139.862 45.1977 139.96 43.3917 139.96H42.4397ZM47.3817 137.496V138.448H51.3857V137.496H47.3817ZM67.4113 133.422V146.106H68.5733V133.422H67.4113ZM61.8953 134.402C60.0333 134.402 58.6893 136.124 58.6893 138.812C58.6893 141.514 60.0333 143.236 61.8953 143.236C63.7713 143.236 65.1153 141.514 65.1153 138.812C65.1153 136.124 63.7713 134.402 61.8953 134.402ZM61.8953 135.452C63.1413 135.452 63.9953 136.768 63.9953 138.812C63.9953 140.87 63.1413 142.214 61.8953 142.214C60.6633 142.214 59.7953 140.87 59.7953 138.812C59.7953 136.768 60.6633 135.452 61.8953 135.452ZM74.1723 134.094V135.382C74.1723 137.314 72.9403 139.022 71.0363 139.722L71.6523 140.66C73.7663 139.834 75.1383 137.818 75.1383 135.382V134.094H74.1723ZM74.3823 134.094V135.466C74.3823 137.664 75.7683 139.54 77.7982 140.296L78.4143 139.386C76.5943 138.756 75.3343 137.174 75.3343 135.466V134.094H74.3823ZM79.7583 133.436V141.108H80.9203V133.436H79.7583ZM80.5983 136.698V137.678H82.7963V136.698H80.5983ZM76.8883 141.458C74.2983 141.458 72.7303 142.312 72.7303 143.768C72.7303 145.224 74.2983 146.064 76.8883 146.064C79.4783 146.064 81.0463 145.224 81.0463 143.768C81.0463 142.312 79.4783 141.458 76.8883 141.458ZM76.8883 142.382C78.7643 142.382 79.9123 142.886 79.9123 143.768C79.9123 144.65 78.7643 145.154 76.8883 145.154C75.0123 145.154 73.8643 144.65 73.8643 143.768C73.8643 142.886 75.0123 142.382 76.8883 142.382ZM90.7159 134.528V136.796C90.7159 139.106 89.2739 141.542 87.4399 142.466L88.1539 143.39C90.1559 142.326 91.6679 139.596 91.6679 136.796V134.528H90.7159ZM90.9259 134.528V136.796C90.9259 139.512 92.3959 142.102 94.3559 143.152L95.0699 142.228C93.2779 141.332 91.8639 139.022 91.8639 136.796V134.528H90.9259ZM96.1759 133.436V146.092H97.3519V133.436H96.1759ZM97.0719 138.56V139.54H99.4239V138.56H97.0719ZM103.315 137.72V140.114H104.463V137.72H103.315ZM107.963 137.72V140.114H109.111V137.72H107.963ZM100.487 139.694V140.632H111.925V139.694H100.487ZM106.199 141.584C103.483 141.584 101.859 142.382 101.859 143.824C101.859 145.266 103.483 146.078 106.199 146.078C108.915 146.078 110.539 145.266 110.539 143.824C110.539 142.382 108.915 141.584 106.199 141.584ZM106.199 142.48C108.187 142.48 109.363 142.97 109.363 143.824C109.363 144.692 108.187 145.168 106.199 145.168C104.225 145.168 103.035 144.692 103.035 143.824C103.035 142.97 104.225 142.48 106.199 142.48ZM106.213 133.66C103.455 133.66 101.761 134.542 101.761 136.026C101.761 137.496 103.455 138.364 106.213 138.364C108.957 138.364 110.665 137.496 110.665 136.026C110.665 134.542 108.957 133.66 106.213 133.66ZM106.213 134.57C108.229 134.57 109.475 135.102 109.475 136.026C109.475 136.936 108.229 137.468 106.213 137.468C104.197 137.468 102.951 136.936 102.951 136.026C102.951 135.102 104.197 134.57 106.213 134.57ZM121.948 133.436V146.092H123.11V133.436H121.948ZM122.83 138.63V139.61H125.182V138.63H122.83ZM113.31 135.452V136.404H120.772V135.452H113.31ZM117.09 137.454C115.312 137.454 114.01 138.658 114.01 140.366C114.01 142.074 115.312 143.278 117.09 143.278C118.882 143.278 120.17 142.074 120.17 140.366C120.17 138.658 118.882 137.454 117.09 137.454ZM117.09 138.42C118.238 138.42 119.064 139.218 119.064 140.366C119.064 141.5 118.238 142.312 117.09 142.312C115.942 142.312 115.116 141.5 115.116 140.366C115.116 139.218 115.942 138.42 117.09 138.42ZM116.488 133.59V135.886H117.65V133.59H116.488ZM129.605 135.242V137.3C129.605 139.484 128.079 141.864 126.245 142.732L126.917 143.656C128.933 142.662 130.543 139.974 130.543 137.3V135.242H129.605ZM129.829 135.242V137.3C129.829 139.932 131.453 142.396 133.497 143.348L134.155 142.424C132.293 141.626 130.767 139.442 130.767 137.3V135.242H129.829ZM126.665 134.724V135.704H133.735V134.724H126.665ZM135.443 133.436V146.092H136.605V133.436H135.443ZM146.26 134.15C144.384 134.15 142.998 135.354 142.998 137.076C142.998 138.798 144.384 140.002 146.26 140.002C148.15 140.002 149.536 138.798 149.536 137.076C149.536 135.354 148.15 134.15 146.26 134.15ZM146.26 135.102C147.492 135.102 148.416 135.928 148.416 137.076C148.416 138.224 147.492 139.05 146.26 139.05C145.056 139.05 144.132 138.224 144.132 137.076C144.132 135.928 145.056 135.102 146.26 135.102ZM151.426 133.436V139.736H152.588V133.436H151.426ZM152.084 136.278V137.23H154.464V136.278H152.084ZM144.09 144.804V145.756H144.692C145.56 145.756 146.722 145.7 147.94 145.308L147.744 144.37C146.666 144.734 145.448 144.804 144.692 144.804H144.09ZM144.09 141.108V145.14H145.224V141.108H144.09ZM147.478 141.192V142.06H153.834V141.192H147.478ZM150.67 142.508C149.284 142.508 148.318 143.194 148.318 144.286C148.318 145.392 149.284 146.078 150.67 146.078C152.042 146.078 153.008 145.392 153.008 144.286C153.008 143.194 152.042 142.508 150.67 142.508ZM150.67 143.334C151.426 143.334 151.972 143.712 151.972 144.286C151.972 144.874 151.426 145.252 150.67 145.252C149.886 145.252 149.354 144.874 149.354 144.286C149.354 143.712 149.886 143.334 150.67 143.334ZM150.096 140.058V141.864H151.23V140.058H150.096ZM161.365 133.646C158.565 133.646 156.913 134.43 156.913 135.844C156.913 137.258 158.565 138.042 161.365 138.042C164.151 138.042 165.817 137.258 165.817 135.844C165.817 134.43 164.151 133.646 161.365 133.646ZM161.365 134.528C163.423 134.528 164.613 135.004 164.613 135.844C164.613 136.684 163.423 137.16 161.365 137.16C159.293 137.16 158.103 136.684 158.103 135.844C158.103 135.004 159.293 134.528 161.365 134.528ZM155.639 138.882V139.82H167.077V138.882H155.639ZM157.025 140.898V141.794H164.473V142.914H157.053V145.294H158.201V143.754H165.621V140.898H157.025ZM157.053 145.042V145.952H165.999V145.042H157.053ZM175.501 134.528V136.796C175.501 139.19 173.975 141.612 172.099 142.508L172.813 143.46C174.885 142.41 176.453 139.708 176.453 136.796V134.528H175.501ZM175.697 134.528V136.796C175.697 139.61 177.279 142.214 179.337 143.222L180.037 142.298C178.161 141.43 176.649 139.106 176.649 136.796V134.528H175.697ZM181.353 133.422V146.106H182.515V133.422H181.353ZM187.036 143.53C186.952 143.857 186.844 144.211 186.714 144.594C186.583 144.977 186.438 145.355 186.28 145.728C186.13 146.111 185.981 146.47 185.832 146.806H184.922C185.015 146.451 185.104 146.069 185.188 145.658C185.281 145.257 185.365 144.86 185.44 144.468C185.514 144.067 185.575 143.703 185.622 143.376H186.938L187.036 143.53ZM195.384 142.13V146.12H196.56V142.13H195.384ZM199.738 142.13V146.12H200.9V142.13H199.738ZM193.018 134.836V135.774H203.196V134.836H193.018ZM192.43 141.528V142.48H203.896V141.528H192.43ZM198.142 136.488C195.552 136.488 194.026 137.244 194.026 138.574C194.026 139.918 195.552 140.674 198.142 140.674C200.718 140.674 202.244 139.918 202.244 138.574C202.244 137.244 200.718 136.488 198.142 136.488ZM198.142 137.37C199.99 137.37 201.054 137.804 201.054 138.574C201.054 139.358 199.99 139.792 198.142 139.792C196.294 139.792 195.23 139.358 195.23 138.574C195.23 137.804 196.294 137.37 198.142 137.37ZM197.554 133.366V135.508H198.716V133.366H197.554ZM205.883 134.528V140.422H211.665V134.528H205.883ZM210.517 135.466V139.484H207.017V135.466H210.517ZM214.549 133.45V142.69H215.711V133.45H214.549ZM211.329 136.95V137.902H214.885V136.95H211.329ZM207.633 144.86V145.812H216.061V144.86H207.633ZM207.633 141.836V145.28H208.795V141.836H207.633ZM223.088 136.95V137.888H225.902V136.95H223.088ZM222.99 140.128V141.066H225.874V140.128H222.99ZM227.82 133.436V146.092H228.94V133.436H227.82ZM225.286 133.758V145.448H226.378V133.758H225.286ZM222.458 135.032V135.242C222.458 138.224 221.128 140.744 218.174 142.536L218.846 143.362C222.248 141.332 223.578 138.35 223.578 135.032H222.458ZM218.734 135.032V135.984H222.92V135.032H218.734ZM237.815 136.712V137.678H240.671V136.712H237.815ZM240.307 133.436V140.982H241.469V133.436H240.307ZM237.311 141.36C234.693 141.36 233.083 142.242 233.083 143.726C233.083 145.224 234.693 146.078 237.311 146.078C239.915 146.078 241.525 145.224 241.525 143.726C241.525 142.242 239.915 141.36 237.311 141.36ZM237.311 142.27C239.215 142.27 240.377 142.802 240.377 143.726C240.377 144.636 239.215 145.168 237.311 145.168C235.407 145.168 234.245 144.636 234.245 143.726C234.245 142.802 235.407 142.27 237.311 142.27ZM234.287 134.71V135.732C234.287 137.552 232.985 139.246 231.109 139.932L231.711 140.856C233.811 140.072 235.239 138.07 235.239 135.732V134.71H234.287ZM234.511 134.71V135.732C234.511 137.86 235.869 139.764 237.927 140.506L238.515 139.582C236.681 138.938 235.449 137.37 235.449 135.732V134.71H234.511ZM231.459 134.36V135.312H238.221V134.36H231.459ZM249.658 134.234C247.026 134.234 245.052 135.634 245.052 137.734C245.052 139.848 247.026 141.234 249.658 141.234C252.29 141.234 254.25 139.848 254.25 137.734C254.25 135.634 252.29 134.234 249.658 134.234ZM249.658 135.186C251.66 135.186 253.144 136.208 253.144 137.734C253.144 139.246 251.66 140.282 249.658 140.282C247.656 140.282 246.172 139.246 246.172 137.734C246.172 136.208 247.656 135.186 249.658 135.186ZM243.946 143.446V144.426H255.412V143.446H243.946ZM256.825 143.572V144.538H268.291V143.572H256.825ZM261.949 140.856V143.978H263.111V140.856H261.949ZM258.211 134.374V135.312H265.729V137.272H258.253V140.744H259.401V138.21H266.877V134.374H258.211ZM258.253 140.254V141.206H267.171V140.254H258.253ZM280.047 136.922V137.874H283.239V136.922H280.047ZM282.581 133.45V142.718H283.743V133.45H282.581ZM275.665 144.86V145.812H284.093V144.86H275.665ZM275.665 141.906V145.35H276.827V141.906H275.665ZM276.561 135.018V136.04C276.561 137.832 275.259 139.512 273.369 140.184L273.971 141.108C276.085 140.324 277.513 138.336 277.513 136.04V135.018H276.561ZM276.785 135.018V136.026C276.785 138.168 278.143 140.072 280.201 140.814L280.789 139.904C278.955 139.26 277.723 137.664 277.723 136.026V135.018H276.785ZM273.733 134.472V135.41H280.495V134.472H273.733ZM294.858 133.436V143.348H296.02V133.436H294.858ZM295.53 137.846V138.812H297.868V137.846H295.53ZM288.012 144.86V145.812H296.468V144.86H288.012ZM288.012 142.69V145.154H289.174V142.69H288.012ZM289.524 139.624V141.346H290.686V139.624H289.524ZM286.29 141.892C288.488 141.878 291.526 141.822 294.2 141.332L294.102 140.506C291.498 140.912 288.376 140.954 286.136 140.954L286.29 141.892ZM286.458 134.668V135.55H293.724V134.668H286.458ZM290.098 136.068C288.32 136.068 287.144 136.81 287.144 138.014C287.144 139.232 288.32 139.974 290.098 139.974C291.876 139.974 293.038 139.232 293.038 138.014C293.038 136.81 291.876 136.068 290.098 136.068ZM290.098 136.894C291.218 136.894 291.946 137.328 291.946 138.014C291.946 138.714 291.218 139.134 290.098 139.134C288.964 139.134 288.236 138.714 288.236 138.014C288.236 137.328 288.964 136.894 290.098 136.894ZM289.524 133.38V135.06H290.686V133.38H289.524Z" fill="black"/>
<path d="M33.7 168.502V169.468H45.166V168.502H33.7ZM34.694 159.696V160.648H44.088V159.696H34.694ZM34.722 165.044V165.996H44.074V165.044H34.722ZM36.668 160.578V165.142H37.83V160.578H36.668ZM40.98 160.578V165.142H42.128V160.578H40.98ZM46.5789 168.572V169.538H58.0449V168.572H46.5789ZM51.7029 165.856V168.978H52.8649V165.856H51.7029ZM47.9649 159.374V160.312H55.4829V162.272H48.0069V165.744H49.1549V163.21H56.6309V159.374H47.9649ZM48.0069 165.254V166.206H56.9249V165.254H48.0069ZM68.6698 158.436V164.988H69.8458V158.436H68.6698ZM61.5858 165.604V166.528H68.6838V167.788H61.6278V170.56H62.7618V168.656H69.8458V165.604H61.5858ZM61.6278 170.028V170.952H70.3078V170.028H61.6278ZM60.0178 159.29V160.214H66.8078V159.29H60.0178ZM59.7938 164.568C62.0198 164.554 64.9598 164.47 67.4798 164.092L67.4098 163.238C64.9458 163.546 61.9218 163.602 59.6678 163.602L59.7938 164.568ZM61.2638 159.71V164.022H62.3838V159.71H61.2638ZM64.4278 159.71V164.022H65.5618V159.71H64.4278ZM75.9594 164.96V165.912H87.3974V164.96H75.9594ZM81.1114 163.07V165.254H82.2594V163.07H81.1114ZM77.2334 167.144V168.096H84.8214V171.092H85.9834V167.144H77.2334ZM77.4854 158.73V163.462H85.9134V158.73H84.7514V160.158H78.6334V158.73H77.4854ZM78.6334 161.068H84.7514V162.538H78.6334V161.068ZM90.2803 159.262V160.2H98.1903V159.262H90.2803ZM88.8523 164.694V165.646H100.29V164.694H88.8523ZM93.9623 165.324V171.106H95.1243V165.324H93.9623ZM97.6443 159.262V160.354C97.6443 161.628 97.6443 163.098 97.1543 165.142L98.3023 165.296C98.7783 163.154 98.7783 161.67 98.7783 160.354V159.262H97.6443ZM108.952 164.806V167.62H110.114V164.806H108.952ZM114.566 158.436V168.068H115.728V158.436H114.566ZM107.09 169.86V170.812H116.036V169.86H107.09ZM107.09 167.13V170.126H108.252V167.13H107.09ZM105.452 165.24C107.748 165.24 110.814 165.198 113.544 164.764L113.46 163.91C110.772 164.26 107.636 164.288 105.298 164.288L105.452 165.24ZM111.99 165.912V166.766H114.86V165.912H111.99ZM109.414 158.954C107.552 158.954 106.292 159.822 106.292 161.152C106.292 162.496 107.552 163.364 109.414 163.364C111.262 163.364 112.522 162.496 112.522 161.152C112.522 159.822 111.262 158.954 109.414 158.954ZM109.414 159.822C110.59 159.822 111.416 160.34 111.416 161.152C111.416 161.964 110.59 162.482 109.414 162.482C108.224 162.482 107.398 161.964 107.398 161.152C107.398 160.34 108.224 159.822 109.414 159.822ZM126.899 158.394V165.38H128.061V158.394H126.899ZM127.571 161.432V162.412H129.937V161.432H127.571ZM120.025 166.024V166.906H126.927V168.012H120.053V170.392H121.201V168.852H128.061V166.024H120.025ZM120.053 170.056V170.952H128.523V170.056H120.053ZM118.275 159.57V160.48H125.751V159.57H118.275ZM122.013 161.04C120.165 161.04 118.975 161.838 118.975 163.126C118.975 164.4 120.165 165.184 122.013 165.184C123.833 165.184 125.037 164.4 125.037 163.126C125.037 161.838 123.833 161.04 122.013 161.04ZM122.013 161.894C123.175 161.894 123.931 162.37 123.931 163.126C123.931 163.868 123.175 164.344 122.013 164.344C120.837 164.344 120.081 163.868 120.081 163.126C120.081 162.37 120.837 161.894 122.013 161.894ZM121.425 158.296V160.2H122.587V158.296H121.425ZM134.458 159.528V161.796C134.458 164.19 132.932 166.612 131.056 167.508L131.77 168.46C133.842 167.41 135.41 164.708 135.41 161.796V159.528H134.458ZM134.654 159.528V161.796C134.654 164.61 136.236 167.214 138.294 168.222L138.994 167.298C137.118 166.43 135.606 164.106 135.606 161.796V159.528H134.654ZM140.31 158.422V171.106H141.472V158.422H140.31ZM145.993 168.53C145.909 168.857 145.801 169.211 145.671 169.594C145.54 169.977 145.395 170.355 145.237 170.728C145.087 171.111 144.938 171.47 144.789 171.806H143.879C143.972 171.451 144.061 171.069 144.145 170.658C144.238 170.257 144.322 169.86 144.397 169.468C144.471 169.067 144.532 168.703 144.579 168.376H145.895L145.993 168.53ZM161.062 158.436V171.092H162.168V158.436H161.062ZM159.06 163.532V164.512H161.496V163.532H159.06ZM158.304 158.702V170.462H159.396V158.702H158.304ZM153.992 160.396V161.852C153.992 164.428 153.068 166.584 151.248 167.592L151.962 168.488C153.908 167.326 154.902 164.89 154.902 161.852V160.396H153.992ZM154.202 160.396V161.852C154.202 164.638 155.21 166.976 157.142 168.04L157.828 167.144C156.05 166.234 155.112 164.176 155.112 161.852V160.396H154.202ZM151.542 159.92V160.886H157.422V159.92H151.542ZM173.464 158.45V167.69H174.64V158.45H173.464ZM166.506 169.86V170.812H175.018V169.86H166.506ZM166.506 166.738V170.182H167.654V166.738H166.506ZM167.85 159.318C165.96 159.318 164.546 160.606 164.546 162.44C164.546 164.26 165.96 165.562 167.85 165.562C169.74 165.562 171.14 164.26 171.14 162.44C171.14 160.606 169.74 159.318 167.85 159.318ZM167.85 160.326C169.082 160.326 170.02 161.194 170.02 162.44C170.02 163.672 169.082 164.54 167.85 164.54C166.618 164.54 165.68 163.672 165.68 162.44C165.68 161.194 166.618 160.326 167.85 160.326ZM177.131 164.456V165.394H188.569V164.456H177.131ZM182.843 166.486C180.141 166.486 178.503 167.326 178.503 168.782C178.503 170.238 180.141 171.064 182.843 171.064C185.545 171.064 187.183 170.238 187.183 168.782C187.183 167.326 185.545 166.486 182.843 166.486ZM182.843 167.41C184.831 167.41 186.007 167.9 186.007 168.782C186.007 169.65 184.831 170.154 182.843 170.154C180.869 170.154 179.679 169.65 179.679 168.782C179.679 167.9 180.869 167.41 182.843 167.41ZM182.101 159.584V159.962C182.101 161.39 180.043 162.524 177.775 162.776L178.195 163.686C180.813 163.378 183.137 161.992 183.137 159.962V159.584H182.101ZM182.591 159.584V159.962C182.591 161.992 184.901 163.378 187.519 163.686L187.939 162.776C185.671 162.524 183.613 161.39 183.613 159.962V159.584H182.591ZM178.181 159.08V160.018H187.547V159.08H178.181ZM192.824 164.946V168.74H193.972V164.946H192.824ZM197.5 164.946V168.74H198.662V164.946H197.5ZM190.024 168.516V169.482H201.49V168.516H190.024ZM195.736 159.234C193.048 159.234 191.13 160.508 191.13 162.496C191.13 164.47 193.048 165.744 195.736 165.744C198.41 165.744 200.328 164.47 200.328 162.496C200.328 160.508 198.41 159.234 195.736 159.234ZM195.736 160.158C197.766 160.158 199.208 161.082 199.208 162.496C199.208 163.896 197.766 164.82 195.736 164.82C193.706 164.82 192.25 163.896 192.25 162.496C192.25 161.082 193.706 160.158 195.736 160.158ZM206.053 160.592V161.138C206.053 162.846 204.793 164.386 202.931 164.988L203.491 165.898C205.605 165.184 207.005 163.336 207.005 161.138V160.592H206.053ZM206.263 160.592V161.138C206.263 163.21 207.719 164.918 209.847 165.576L210.379 164.666C208.517 164.12 207.215 162.706 207.215 161.138V160.592H206.263ZM203.253 159.962V160.9H210.001V159.962H203.253ZM206.053 158.38V160.298H207.215V158.38H206.053ZM209.623 162.034V163H212.479V162.034H209.623ZM212.143 158.436V166.094H213.305V158.436H212.143ZM209.147 166.43C206.515 166.43 204.919 167.284 204.919 168.754C204.919 170.21 206.515 171.064 209.147 171.064C211.765 171.064 213.361 170.21 213.361 168.754C213.361 167.284 211.765 166.43 209.147 166.43ZM209.147 167.34C211.051 167.34 212.213 167.858 212.213 168.754C212.213 169.636 211.051 170.154 209.147 170.154C207.229 170.154 206.081 169.636 206.081 168.754C206.081 167.858 207.229 167.34 209.147 167.34Z" fill="black"/>
<path d="M33.686 190.926V191.878H45.166V190.926H33.686ZM38.81 191.374V196.092H39.958V191.374H38.81ZM35.128 183.94V189.414H43.696V183.94H42.548V185.676H36.29V183.94H35.128ZM36.29 186.614H42.548V188.476H36.29V186.614ZM49.7989 184.724V185.746C49.7989 187.538 48.4969 189.218 46.6069 189.89L47.2089 190.814C49.3229 190.03 50.7509 188.056 50.7509 185.746V184.724H49.7989ZM50.0229 184.724V185.746C50.0229 187.86 51.3809 189.764 53.4389 190.52L54.0269 189.596C52.1929 188.952 50.9609 187.37 50.9609 185.746V184.724H50.0229ZM53.3409 186.726V187.692H56.1549V186.726H53.3409ZM46.9709 184.304V185.242H53.7329V184.304H46.9709ZM48.5389 191.696V192.648H55.8189V196.092H56.9809V191.696H48.5389ZM55.8189 183.436V191.01H56.9809V183.436H55.8189ZM66.2058 186.25V187.202H69.4678V186.25H66.2058ZM62.6498 184.514V185.354C62.6498 186.978 61.3478 188.574 59.4998 189.204L60.0598 190.114C62.1738 189.4 63.6018 187.482 63.6018 185.354V184.514H62.6498ZM62.8738 184.514V185.368C62.8738 187.384 64.2458 189.148 66.3178 189.82L66.8778 188.91C65.0578 188.336 63.8258 186.88 63.8258 185.368V184.514H62.8738ZM59.8498 184.08V185.032H66.6118V184.08H59.8498ZM68.6978 183.436V189.96H69.8598V183.436H68.6978ZM61.7118 190.604V191.528H68.7118V192.774H61.7398V195.602H62.8738V193.642H69.8598V190.604H61.7118ZM61.7398 195.028V195.952H70.3218V195.028H61.7398ZM80.9887 183.45V192.942H82.1507V183.45H80.9887ZM81.7867 187.594V188.574H84.0267V187.594H81.7867ZM72.3647 184.976V185.914H79.8407V184.976H72.3647ZM76.1027 186.614C74.2967 186.614 73.0647 187.552 73.0647 188.98C73.0647 190.394 74.2967 191.332 76.1027 191.332C77.8947 191.332 79.1267 190.394 79.1267 188.98C79.1267 187.552 77.8947 186.614 76.1027 186.614ZM76.1027 187.524C77.2367 187.524 78.0207 188.098 78.0207 188.98C78.0207 189.848 77.2367 190.422 76.1027 190.422C74.9547 190.422 74.1707 189.848 74.1707 188.98C74.1707 188.098 74.9547 187.524 76.1027 187.524ZM75.5147 183.436V185.466H76.6767V183.436H75.5147ZM74.2687 194.86V195.812H82.7247V194.86H74.2687ZM74.2687 192.186V195.266H75.4307V192.186H74.2687ZM98.4843 183.436V196.092H99.6043V183.436H98.4843ZM92.9963 188.602V189.54H96.1883V188.602H92.9963ZM95.8523 183.758V195.448H96.9443V183.758H95.8523ZM93.1503 185.032V185.242C93.1503 188.224 91.8203 190.744 88.8383 192.536L89.5243 193.362C92.9403 191.332 94.2703 188.35 94.2703 185.032H93.1503ZM89.3983 185.032V185.984H93.5843V185.032H89.3983ZM105.063 184.528V186.796C105.063 189.19 103.537 191.612 101.661 192.508L102.375 193.46C104.447 192.41 106.015 189.708 106.015 186.796V184.528H105.063ZM105.259 184.528V186.796C105.259 189.61 106.841 192.214 108.899 193.222L109.599 192.298C107.723 191.43 106.211 189.106 106.211 186.796V184.528H105.259ZM110.915 183.422V196.106H112.077V183.422H110.915ZM116.066 183.968V184.906H124.214V183.968H116.066ZM114.61 188.14V189.092H126.076V188.14H114.61ZM123.458 183.968V184.78C123.458 185.676 123.458 186.768 123.122 188.308L124.256 188.434C124.592 186.866 124.592 185.69 124.592 184.78V183.968H123.458ZM115.954 190.338V191.276H123.486V192.662H115.982V195.322H117.144V193.558H124.634V190.338H115.954ZM115.982 195.014V195.952H124.956V195.014H115.982ZM127.475 190.086V191.038H138.913V190.086H127.475ZM128.959 194.86V195.812H137.653V194.86H128.959ZM128.959 192.144V195.154H130.121V192.144H128.959ZM133.201 183.856C130.485 183.856 128.749 184.808 128.749 186.39C128.749 187.958 130.485 188.91 133.201 188.91C135.903 188.91 137.653 187.958 137.653 186.39C137.653 184.808 135.903 183.856 133.201 183.856ZM133.201 184.808C135.189 184.808 136.463 185.396 136.463 186.39C136.463 187.384 135.189 187.972 133.201 187.972C131.213 187.972 129.939 187.384 129.939 186.39C129.939 185.396 131.213 184.808 133.201 184.808ZM144.677 184.416V185.368H150.277V184.416H144.677ZM146.581 187.244V190.408H147.729V187.244H146.581ZM149.815 184.416V185.088C149.815 185.9 149.815 187.048 149.493 188.714L150.627 188.84C150.963 187.174 150.963 185.914 150.963 185.088V184.416H149.815ZM152.685 183.436V192.97H153.847V183.436H152.685ZM153.315 187.552V188.518H155.653V187.552H153.315ZM145.853 194.86V195.812H154.253V194.86H145.853ZM145.853 192.088V195.154H147.001V192.088H145.853ZM144.033 190.954C146.259 190.954 149.283 190.898 151.915 190.436L151.831 189.596C149.269 189.946 146.161 190.002 143.907 190.002L144.033 190.954ZM166.096 183.422V196.106H167.258V183.422H166.096ZM157.612 192.088V193.054H158.662C160.832 193.054 162.736 192.97 165.032 192.592L164.906 191.64C162.666 192.004 160.776 192.088 158.662 192.088H157.612ZM157.584 184.612V185.564H162.26V188.182H157.612V192.452H158.774V189.134H163.436V184.612H157.584ZM172.885 185.242V187.3C172.885 189.442 171.359 191.85 169.553 192.732L170.225 193.656C172.199 192.648 173.809 189.932 173.809 187.3V185.242H172.885ZM173.095 185.242V187.3C173.095 189.806 174.621 192.354 176.623 193.348L177.281 192.424C175.447 191.556 174.019 189.302 174.019 187.3V185.242H173.095ZM170.001 184.724V185.704H176.819V184.724H170.001ZM178.317 183.436V196.092H179.493V183.436H178.317ZM179.213 188.546V189.526H181.565V188.546H179.213ZM191.195 183.422V196.092H192.371V183.422H191.195ZM192.049 188.56V189.526H194.387V188.56H192.049ZM187.961 184.794V184.976C187.961 188.322 186.211 191.024 182.711 192.802L183.355 193.698C187.443 191.64 189.095 188.392 189.095 184.794H187.961ZM183.299 184.794V185.746H188.563V184.794H183.299ZM199.143 190.142V191.08H210.581V190.142H199.143ZM204.281 188.504V190.534H205.429V188.504H204.281ZM200.655 187.986V188.896H209.237V187.986H200.655ZM200.655 183.8V188.476H201.803V184.71H209.181V183.8H200.655ZM201.467 185.872V186.768H208.845V185.872H201.467ZM204.855 192.018C202.097 192.018 200.515 192.718 200.515 194.048C200.515 195.364 202.097 196.064 204.855 196.064C207.613 196.064 209.195 195.364 209.195 194.048C209.195 192.718 207.613 192.018 204.855 192.018ZM204.855 192.9C206.885 192.9 208.019 193.306 208.019 194.048C208.019 194.804 206.885 195.196 204.855 195.196C202.825 195.196 201.691 194.804 201.691 194.048C201.691 193.306 202.825 192.9 204.855 192.9ZM212.036 193.516V194.482H223.502V193.516H212.036ZM217.16 190.492V193.796H218.322V190.492H217.16ZM213.38 184.332V190.8H222.13V184.332H220.982V186.586H214.528V184.332H213.38ZM214.528 187.524H220.982V189.848H214.528V187.524ZM229.994 190.856V195.924H234.376V190.856H233.298V192.438H231.086V190.856H229.994ZM231.086 193.306H233.298V195.014H231.086V193.306ZM236.826 190.786V191.836C236.826 193.124 236.042 194.51 234.516 195.154L235.104 196.036C236.854 195.294 237.722 193.558 237.722 191.836V190.786H236.826ZM237.064 190.786V191.836C237.064 193.628 237.918 195.308 239.682 196.036L240.27 195.154C238.744 194.566 237.96 193.194 237.96 191.836V190.786H237.064ZM234.908 186.404V187.37H238.31V186.404H234.908ZM231.996 183.996C230.106 183.996 228.734 185.172 228.734 186.908C228.734 188.63 230.106 189.82 231.996 189.82C233.886 189.82 235.258 188.63 235.258 186.908C235.258 185.172 233.886 183.996 231.996 183.996ZM231.996 184.962C233.242 184.962 234.138 185.76 234.138 186.908C234.138 188.042 233.242 188.854 231.996 188.854C230.75 188.854 229.854 188.042 229.854 186.908C229.854 185.76 230.75 184.962 231.996 184.962ZM237.792 183.436V190.142H238.954V183.436H237.792ZM250.614 183.422V196.106H251.776V183.422H250.614ZM245.098 184.402C243.236 184.402 241.892 186.124 241.892 188.812C241.892 191.514 243.236 193.236 245.098 193.236C246.974 193.236 248.318 191.514 248.318 188.812C248.318 186.124 246.974 184.402 245.098 184.402ZM245.098 185.452C246.344 185.452 247.198 186.768 247.198 188.812C247.198 190.87 246.344 192.214 245.098 192.214C243.866 192.214 242.998 190.87 242.998 188.812C242.998 186.768 243.866 185.452 245.098 185.452ZM261.054 184.08V185.382C261.054 187.272 259.808 188.938 257.904 189.624L258.506 190.562C260.634 189.75 262.006 187.776 262.006 185.382V184.08H261.054ZM261.264 184.08V185.466C261.264 187.664 262.636 189.554 264.694 190.31L265.282 189.386C263.462 188.756 262.202 187.174 262.202 185.466V184.08H261.264ZM266.598 183.436V191.094H267.76V183.436H266.598ZM267.438 186.768V187.748H269.636V186.768H267.438ZM259.542 191.724V192.69H266.598V196.092H267.76V191.724H259.542ZM280.443 183.436V196.092H281.563V183.436H280.443ZM275.837 187.972V188.938H278.259V187.972H275.837ZM277.909 183.73V195.448H279.001V183.73H277.909ZM273.401 185.396V187.006C273.401 189.33 272.421 191.64 270.657 192.704L271.371 193.572C273.233 192.396 274.297 189.778 274.297 187.006V185.396H273.401ZM273.639 185.396V187.006C273.639 189.652 274.661 192.144 276.509 193.264L277.223 192.41C275.487 191.402 274.535 189.204 274.535 187.006V185.396H273.639ZM271.007 184.906V185.872H276.789V184.906H271.007ZM287.302 187.72V189.82H288.478V187.72H287.302ZM292.916 183.436V190.73H294.078V183.436H292.916ZM283.914 190.422C286.168 190.422 289.206 190.38 291.964 189.89L291.88 189.064C289.206 189.456 286.056 189.484 283.746 189.484L283.914 190.422ZM284.88 187.132V188.07H290.956V187.132H284.88ZM284.88 184.066V187.496H286.042V185.018H290.844V184.066H284.88ZM285.776 191.29V195.924H294.078V191.29H292.93V192.62H286.938V191.29H285.776ZM286.938 193.53H292.93V194.986H286.938V193.53ZM305.781 183.436V196.092H306.943V183.436H305.781ZM297.381 184.668V192.508H298.529V184.668H297.381ZM297.381 191.822V192.83H298.417C300.419 192.83 302.421 192.676 304.619 192.228L304.479 191.234C302.337 191.682 300.335 191.822 298.417 191.822H297.381ZM318.016 183.422V196.106H319.192V183.422H318.016ZM318.912 188.42V189.4H321.264V188.42H318.912ZM309.994 191.976V192.956H310.988C313.368 192.956 315.034 192.886 316.98 192.522L316.854 191.542C314.964 191.892 313.326 191.976 310.988 191.976H309.994ZM309.994 184.654V192.41H311.142V185.606H315.874V184.654H309.994Z" fill="black"/>
<circle cx="25" cy="41" r="5" fill="#D9D9D9"/>
<circle cx="25" cy="66" r="5" fill="#D9D9D9"/>
<circle cx="25" cy="91" r="5" fill="#D9D9D9"/>
<circle cx="25" cy="116" r="5" fill="#D9D9D9"/>
<circle cx="25" cy="141" r="5" fill="#D9D9D9"/>
<circle cx="25" cy="166" r="5" fill="#D9D9D9"/>
<circle cx="25" cy="191" r="5" fill="#D9D9D9"/>
<circle cx="25" cy="216" r="5" fill="#D9D9D9"/>
<circle cx="25" cy="241" r="5" fill="#D9D9D9"/>
<circle cx="25" cy="266" r="5" fill="#D9D9D9"/>
<path d="M36.766 59.094V60.382C36.766 62.314 35.534 64.022 33.63 64.722L34.246 65.66C36.36 64.834 37.732 62.818 37.732 60.382V59.094H36.766ZM36.976 59.094V60.466C36.976 62.664 38.362 64.54 40.392 65.296L41.008 64.386C39.188 63.756 37.928 62.174 37.928 60.466V59.094H36.976ZM42.352 58.436V66.108H43.514V58.436H42.352ZM43.192 61.698V62.678H45.39V61.698H43.192ZM39.482 66.458C36.892 66.458 35.324 67.312 35.324 68.768C35.324 70.224 36.892 71.064 39.482 71.064C42.072 71.064 43.64 70.224 43.64 68.768C43.64 67.312 42.072 66.458 39.482 66.458ZM39.482 67.382C41.358 67.382 42.506 67.886 42.506 68.768C42.506 69.65 41.358 70.154 39.482 70.154C37.606 70.154 36.458 69.65 36.458 68.768C36.458 67.886 37.606 67.382 39.482 67.382ZM56.1969 58.436V71.092H57.3169V58.436H56.1969ZM54.0549 63.504V64.47H56.4909V63.504H54.0549ZM53.3269 58.716V70.448H54.4189V58.716H53.3269ZM47.0269 67.004V67.97H47.8529C49.7569 67.97 51.0309 67.914 52.5429 67.592L52.4309 66.626C50.9609 66.934 49.7009 67.004 47.8529 67.004H47.0269ZM47.0269 59.976V67.438H48.1749V60.928H51.7309V59.976H47.0269ZM65.2398 66.374C62.6638 66.374 61.0818 67.242 61.0818 68.726C61.0818 70.21 62.6638 71.078 65.2398 71.078C67.8158 71.078 69.3978 70.21 69.3978 68.726C69.3978 67.242 67.8158 66.374 65.2398 66.374ZM65.2398 67.312C67.1158 67.312 68.2638 67.83 68.2638 68.726C68.2638 69.636 67.1158 70.154 65.2398 70.154C63.3638 70.154 62.2158 69.636 62.2158 68.726C62.2158 67.83 63.3638 67.312 65.2398 67.312ZM68.1098 58.436V66.038H69.2718V58.436H68.1098ZM68.9498 61.614V62.594H71.1478V61.614H68.9498ZM59.9758 59.234V65.072H65.8278V59.234H64.6938V61.124H61.1238V59.234H59.9758ZM61.1238 62.048H64.6938V64.134H61.1238V62.048ZM76.5614 59.514V60.424H86.7394V59.514H76.5614ZM81.6854 60.942C79.0814 60.942 77.5974 61.572 77.5974 62.776C77.5974 63.98 79.0814 64.61 81.6854 64.61C84.2894 64.61 85.7734 63.98 85.7734 62.776C85.7734 61.572 84.2894 60.942 81.6854 60.942ZM81.6854 61.754C83.5474 61.754 84.5834 62.118 84.5834 62.776C84.5834 63.42 83.5474 63.77 81.6854 63.77C79.8234 63.77 78.7874 63.42 78.7874 62.776C78.7874 62.118 79.8234 61.754 81.6854 61.754ZM81.1114 58.24V60.06H82.2594V58.24H81.1114ZM75.9594 65.618V66.556H87.3974V65.618H75.9594ZM81.1114 64.288V66.052H82.2594V64.288H81.1114ZM77.2054 67.564V68.474H84.7374V71.092H85.8854V67.564H77.2054ZM88.8383 65.086V66.038H100.276V65.086H88.8383ZM90.3223 69.86V70.812H99.0163V69.86H90.3223ZM90.3223 67.144V70.154H91.4843V67.144H90.3223ZM94.5643 58.856C91.8483 58.856 90.1123 59.808 90.1123 61.39C90.1123 62.958 91.8483 63.91 94.5643 63.91C97.2663 63.91 99.0163 62.958 99.0163 61.39C99.0163 59.808 97.2663 58.856 94.5643 58.856ZM94.5643 59.808C96.5523 59.808 97.8263 60.396 97.8263 61.39C97.8263 62.384 96.5523 62.972 94.5643 62.972C92.5763 62.972 91.3023 62.384 91.3023 61.39C91.3023 60.396 92.5763 59.808 94.5643 59.808ZM106.88 58.94V63.994H115.308V58.94H114.146V60.522H108.028V58.94H106.88ZM108.028 61.446H114.146V63.056H108.028V61.446ZM105.354 65.338V66.29H116.792V65.338H105.354ZM110.506 63.448V65.758H111.654V63.448H110.506ZM106.838 69.86V70.812H115.532V69.86H106.838ZM106.838 67.312V70.182H108V67.312H106.838ZM127.445 58.45V67.69H128.621V58.45H127.445ZM120.487 69.86V70.812H128.999V69.86H120.487ZM120.487 66.738V70.182H121.635V66.738H120.487ZM121.831 59.318C119.941 59.318 118.527 60.606 118.527 62.44C118.527 64.26 119.941 65.562 121.831 65.562C123.721 65.562 125.121 64.26 125.121 62.44C125.121 60.606 123.721 59.318 121.831 59.318ZM121.831 60.326C123.063 60.326 124.001 61.194 124.001 62.44C124.001 63.672 123.063 64.54 121.831 64.54C120.599 64.54 119.661 63.672 119.661 62.44C119.661 61.194 120.599 60.326 121.831 60.326ZM140.31 58.422V71.106H141.472V58.422H140.31ZM134.794 59.402C132.932 59.402 131.588 61.124 131.588 63.812C131.588 66.514 132.932 68.236 134.794 68.236C136.67 68.236 138.014 66.514 138.014 63.812C138.014 61.124 136.67 59.402 134.794 59.402ZM134.794 60.452C136.04 60.452 136.894 61.768 136.894 63.812C136.894 65.87 136.04 67.214 134.794 67.214C133.562 67.214 132.694 65.87 132.694 63.812C132.694 61.768 133.562 60.452 134.794 60.452ZM150.987 60.242V62.3C150.987 64.484 149.461 66.864 147.627 67.732L148.299 68.656C150.315 67.662 151.925 64.974 151.925 62.3V60.242H150.987ZM151.211 60.242V62.3C151.211 64.932 152.835 67.396 154.879 68.348L155.537 67.424C153.675 66.626 152.149 64.442 152.149 62.3V60.242H151.211ZM148.047 59.724V60.704H155.117V59.724H148.047ZM156.825 58.436V71.092H157.987V58.436H156.825ZM169.088 58.436V71.092H170.25V58.436H169.088ZM169.97 63.63V64.61H172.322V63.63H169.97ZM160.45 60.452V61.404H167.912V60.452H160.45ZM164.23 62.454C162.452 62.454 161.15 63.658 161.15 65.366C161.15 67.074 162.452 68.278 164.23 68.278C166.022 68.278 167.31 67.074 167.31 65.366C167.31 63.658 166.022 62.454 164.23 62.454ZM164.23 63.42C165.378 63.42 166.204 64.218 166.204 65.366C166.204 66.5 165.378 67.312 164.23 67.312C163.082 67.312 162.256 66.5 162.256 65.366C162.256 64.218 163.082 63.42 164.23 63.42ZM163.628 58.59V60.886H164.79V58.59H163.628ZM176.549 60.382V60.914C176.549 62.412 175.233 63.686 173.357 64.176L173.875 65.086C176.017 64.498 177.501 62.916 177.501 60.914V60.382H176.549ZM176.759 60.382V60.914C176.759 62.818 178.285 64.302 180.441 64.834L180.931 63.938C179.069 63.504 177.711 62.314 177.711 60.914V60.382H176.759ZM173.749 59.682V60.634H180.497V59.682H173.749ZM176.549 58.38V60.214H177.711V58.38H176.549ZM180.133 61.572V62.524H183.381V61.572H180.133ZM182.639 58.436V65.058H183.801V58.436H182.639ZM175.653 65.674V66.598H182.653V67.816H175.681V70.56H176.815V68.684H183.801V65.674H175.653ZM175.681 70.042V70.952H184.263V70.042H175.681ZM191.99 58.646C189.19 58.646 187.538 59.43 187.538 60.844C187.538 62.258 189.19 63.042 191.99 63.042C194.776 63.042 196.442 62.258 196.442 60.844C196.442 59.43 194.776 58.646 191.99 58.646ZM191.99 59.528C194.048 59.528 195.238 60.004 195.238 60.844C195.238 61.684 194.048 62.16 191.99 62.16C189.918 62.16 188.728 61.684 188.728 60.844C188.728 60.004 189.918 59.528 191.99 59.528ZM186.264 63.882V64.82H197.702V63.882H186.264ZM187.65 65.898V66.794H195.098V67.914H187.678V70.294H188.826V68.754H196.246V65.898H187.65ZM187.678 70.042V70.952H196.624V70.042H187.678ZM212.398 58.436V71.092H213.518V58.436H212.398ZM210.27 63.588V64.54H212.706V63.588H210.27ZM209.528 58.716V70.448H210.62V58.716H209.528ZM203.396 59.962V67.27H204.558V59.962H203.396ZM203.396 66.808V67.816H204.208C205.566 67.816 207.022 67.746 208.744 67.41L208.618 66.402C206.966 66.724 205.51 66.808 204.208 66.808H203.396ZM224.885 58.422V71.106H226.047V58.422H224.885ZM216.401 67.088V68.054H217.451C219.621 68.054 221.525 67.97 223.821 67.592L223.695 66.64C221.455 67.004 219.565 67.088 217.451 67.088H216.401ZM216.373 59.612V60.564H221.049V63.182H216.401V67.452H217.563V64.134H222.225V59.612H216.373ZM237.764 58.436V71.092H238.926V58.436H237.764ZM234.054 59.794V59.99C234.054 63.35 232.36 66.038 228.706 67.802L229.322 68.74C233.55 66.668 235.202 63.462 235.202 59.794H234.054ZM229.28 59.794V60.746H234.558V59.794H229.28ZM248.427 59.738V60.746C248.427 62.538 247.139 64.19 245.235 64.862L245.837 65.772C247.965 65.016 249.393 63.07 249.393 60.746V59.738H248.427ZM248.651 59.738V60.746C248.651 62.958 250.107 64.82 252.207 65.534L252.809 64.624C250.933 63.994 249.617 62.454 249.617 60.746V59.738H248.651ZM254.265 58.436V66.094H255.441V58.436H254.265ZM246.985 66.766V67.718H254.265V71.092H255.441V66.766H246.985ZM245.543 59.318V60.256H252.473V59.318H245.543ZM264.652 61.922V62.874H267.844V61.922H264.652ZM267.186 58.45V67.718H268.348V58.45H267.186ZM260.27 69.86V70.812H268.698V69.86H260.27ZM260.27 66.906V70.35H261.432V66.906H260.27ZM261.166 60.018V61.04C261.166 62.832 259.864 64.512 257.974 65.184L258.576 66.108C260.69 65.324 262.118 63.336 262.118 61.04V60.018H261.166ZM261.39 60.018V61.026C261.39 63.168 262.748 65.072 264.806 65.814L265.394 64.904C263.56 64.26 262.328 62.664 262.328 61.026V60.018H261.39ZM258.338 59.472V60.41H265.1V59.472H258.338ZM279.603 58.436V71.092H280.751V58.436H279.603ZM280.387 63.644V64.624H282.641V63.644H280.387ZM273.541 59.794V59.92C273.541 62.79 272.841 65.422 270.755 67.592L271.693 68.25C273.961 65.8 274.605 62.846 274.605 59.794H273.541ZM271.161 59.794V60.76H273.975V59.794H271.161ZM276.985 59.794V59.906C276.985 62.832 276.509 65.968 274.367 68.446L275.305 69.09C277.629 66.332 278.063 62.86 278.063 59.794H276.985ZM275.011 59.794V60.76H277.461V59.794H275.011ZM287.05 60.242V62.3C287.05 64.484 285.524 66.864 283.69 67.732L284.362 68.656C286.378 67.662 287.988 64.974 287.988 62.3V60.242H287.05ZM287.274 60.242V62.3C287.274 64.932 288.898 67.396 290.942 68.348L291.6 67.424C289.738 66.626 288.212 64.442 288.212 62.3V60.242H287.274ZM284.11 59.724V60.704H291.18V59.724H284.11ZM292.888 58.436V71.092H294.05V58.436H292.888ZM297.101 59.57V65.436H302.911V59.57H297.101ZM301.777 60.508V64.498H298.235V60.508H301.777ZM305.235 58.422V67.704H306.397V58.422H305.235ZM306.033 62.286V63.252H308.273V62.286H306.033ZM298.515 69.86V70.812H306.971V69.86H298.515ZM298.515 66.822V70.266H299.677V66.822H298.515ZM315.674 61.67V62.328C315.674 64.386 314.694 66.584 312.972 67.592L313.672 68.474C315.52 67.368 316.57 64.834 316.57 62.328V61.67H315.674ZM315.884 61.67V62.328C315.884 64.764 316.976 67.158 318.838 68.194L319.496 67.326C317.802 66.402 316.78 64.33 316.78 62.328V61.67H315.884ZM313.294 60.788V61.74H319.16V60.788H313.294ZM315.674 58.884V61.502H316.794V58.884H315.674ZM322.772 58.436V71.092H323.878V58.436H322.772ZM320.77 63.532V64.512H323.206V63.532H320.77ZM320.014 58.702V70.462H321.106V58.702H320.014ZM326.705 64.442V65.38H327.727C330.485 65.38 332.025 65.338 333.859 65.016L333.733 64.092C331.955 64.386 330.457 64.442 327.727 64.442H326.705ZM326.705 59.36V64.918H327.853V60.298H332.725V59.36H326.705ZM327.475 61.866V62.79H332.375V61.866H327.475ZM335.175 58.45V66.276H336.351V58.45H335.175ZM332.165 66.458C329.519 66.458 327.909 67.298 327.909 68.754C327.909 70.224 329.519 71.064 332.165 71.064C334.797 71.064 336.407 70.224 336.407 68.754C336.407 67.298 334.797 66.458 332.165 66.458ZM332.165 67.382C334.083 67.382 335.245 67.886 335.245 68.754C335.245 69.65 334.083 70.154 332.165 70.154C330.233 70.154 329.071 69.65 329.071 68.754C329.071 67.886 330.233 67.382 332.165 67.382Z" fill="black"/>
<path d="M33.686 215.926V216.878H45.166V215.926H33.686ZM38.81 216.374V221.092H39.958V216.374H38.81ZM35.128 208.94V214.414H43.696V208.94H42.548V210.676H36.29V208.94H35.128ZM36.29 211.614H42.548V213.476H36.29V211.614ZM49.7989 209.724V210.746C49.7989 212.538 48.4969 214.218 46.6069 214.89L47.2089 215.814C49.3229 215.03 50.7509 213.056 50.7509 210.746V209.724H49.7989ZM50.0229 209.724V210.746C50.0229 212.86 51.3809 214.764 53.4389 215.52L54.0269 214.596C52.1929 213.952 50.9609 212.37 50.9609 210.746V209.724H50.0229ZM53.3409 211.726V212.692H56.1549V211.726H53.3409ZM46.9709 209.304V210.242H53.7329V209.304H46.9709ZM48.5389 216.696V217.648H55.8189V221.092H56.9809V216.696H48.5389ZM55.8189 208.436V216.01H56.9809V208.436H55.8189ZM66.2058 211.25V212.202H69.4678V211.25H66.2058ZM62.6498 209.514V210.354C62.6498 211.978 61.3478 213.574 59.4998 214.204L60.0598 215.114C62.1738 214.4 63.6018 212.482 63.6018 210.354V209.514H62.6498ZM62.8738 209.514V210.368C62.8738 212.384 64.2458 214.148 66.3178 214.82L66.8778 213.91C65.0578 213.336 63.8258 211.88 63.8258 210.368V209.514H62.8738ZM59.8498 209.08V210.032H66.6118V209.08H59.8498ZM68.6978 208.436V214.96H69.8598V208.436H68.6978ZM61.7118 215.604V216.528H68.7118V217.774H61.7398V220.602H62.8738V218.642H69.8598V215.604H61.7118ZM61.7398 220.028V220.952H70.3218V220.028H61.7398ZM80.9887 208.45V217.942H82.1507V208.45H80.9887ZM81.7867 212.594V213.574H84.0267V212.594H81.7867ZM72.3647 209.976V210.914H79.8407V209.976H72.3647ZM76.1027 211.614C74.2967 211.614 73.0647 212.552 73.0647 213.98C73.0647 215.394 74.2967 216.332 76.1027 216.332C77.8947 216.332 79.1267 215.394 79.1267 213.98C79.1267 212.552 77.8947 211.614 76.1027 211.614ZM76.1027 212.524C77.2367 212.524 78.0207 213.098 78.0207 213.98C78.0207 214.848 77.2367 215.422 76.1027 215.422C74.9547 215.422 74.1707 214.848 74.1707 213.98C74.1707 213.098 74.9547 212.524 76.1027 212.524ZM75.5147 208.436V210.466H76.6767V208.436H75.5147ZM74.2687 219.86V220.812H82.7247V219.86H74.2687ZM74.2687 217.186V220.266H75.4307V217.186H74.2687ZM95.1663 212.72V213.672H98.6943V212.72H95.1663ZM92.1143 209.528V211.782C92.1143 214.134 90.6863 216.57 88.8243 217.494L89.5663 218.418C91.5683 217.34 93.0663 214.624 93.0663 211.782V209.528H92.1143ZM92.3383 209.528V211.782C92.3383 214.554 93.8083 217.158 95.8523 218.194L96.5383 217.256C94.7043 216.388 93.2763 214.092 93.2763 211.782V209.528H92.3383ZM98.1203 208.422V221.106H99.2683V208.422H98.1203ZM110.915 208.422V221.106H112.077V208.422H110.915ZM102.445 209.5V218.054H108.409V209.5H107.247V212.846H103.593V209.5H102.445ZM103.593 213.77H107.247V217.102H103.593V213.77ZM119.678 209.304V210.27C119.678 212.426 117.298 214.358 115.072 214.778L115.59 215.744C118.124 215.17 120.686 213.028 120.686 210.27V209.304H119.678ZM119.888 209.304V210.27C119.888 213.042 122.464 215.17 124.984 215.744L125.502 214.778C123.29 214.358 120.896 212.44 120.896 210.27V209.304H119.888ZM114.61 218.432V219.384H126.076V218.432H114.61ZM140.31 208.422V221.106H141.472V208.422H140.31ZM134.794 209.402C132.932 209.402 131.588 211.124 131.588 213.812C131.588 216.514 132.932 218.236 134.794 218.236C136.67 218.236 138.014 216.514 138.014 213.812C138.014 211.124 136.67 209.402 134.794 209.402ZM134.794 210.452C136.04 210.452 136.894 211.768 136.894 213.812C136.894 215.87 136.04 217.214 134.794 217.214C133.562 217.214 132.694 215.87 132.694 213.812C132.694 211.768 133.562 210.452 134.794 210.452ZM146.819 212.72V215.114H147.967V212.72H146.819ZM151.467 212.72V215.114H152.615V212.72H151.467ZM143.991 214.694V215.632H155.429V214.694H143.991ZM149.703 216.584C146.987 216.584 145.363 217.382 145.363 218.824C145.363 220.266 146.987 221.078 149.703 221.078C152.419 221.078 154.043 220.266 154.043 218.824C154.043 217.382 152.419 216.584 149.703 216.584ZM149.703 217.48C151.691 217.48 152.867 217.97 152.867 218.824C152.867 219.692 151.691 220.168 149.703 220.168C147.729 220.168 146.539 219.692 146.539 218.824C146.539 217.97 147.729 217.48 149.703 217.48ZM149.717 208.66C146.959 208.66 145.265 209.542 145.265 211.026C145.265 212.496 146.959 213.364 149.717 213.364C152.461 213.364 154.169 212.496 154.169 211.026C154.169 209.542 152.461 208.66 149.717 208.66ZM149.717 209.57C151.733 209.57 152.979 210.102 152.979 211.026C152.979 211.936 151.733 212.468 149.717 212.468C147.701 212.468 146.455 211.936 146.455 211.026C146.455 210.102 147.701 209.57 149.717 209.57ZM161.192 209.416V210.368H166.792V209.416H161.192ZM163.096 212.244V215.408H164.244V212.244H163.096ZM166.33 209.416V210.088C166.33 210.9 166.33 212.048 166.008 213.714L167.142 213.84C167.478 212.174 167.478 210.914 167.478 210.088V209.416H166.33ZM169.2 208.436V217.97H170.362V208.436H169.2ZM169.83 212.552V213.518H172.168V212.552H169.83ZM162.368 219.86V220.812H170.768V219.86H162.368ZM162.368 217.088V220.154H163.516V217.088H162.368ZM160.548 215.954C162.774 215.954 165.798 215.898 168.43 215.436L168.346 214.596C165.784 214.946 162.676 215.002 160.422 215.002L160.548 215.954ZM173.917 215.1V216.066H174.827C177.263 216.066 178.593 216.01 180.203 215.73L180.091 214.778C178.509 215.058 177.221 215.1 174.827 215.1H173.917ZM173.889 209.332V210.27H178.187V212.118H173.917V215.674H175.065V213.042H179.335V209.332H173.889ZM182.639 208.45V217.76H183.801V208.45H182.639ZM180.189 210.564V211.502H182.919V210.564H180.189ZM175.625 219.804V220.756H184.193V219.804H175.625ZM175.625 217.074V220.224H176.773V217.074H175.625ZM180.189 213.406V214.358H182.919V213.406H180.189ZM33.56 235.164C33.56 234.399 33.63 233.652 33.77 232.924C33.9193 232.196 34.148 231.501 34.456 230.838C34.764 230.175 35.1513 229.564 35.618 229.004H36.78C36.3507 229.583 35.9867 230.208 35.688 230.88C35.3987 231.552 35.1793 232.247 35.03 232.966C34.8807 233.685 34.806 234.413 34.806 235.15C34.806 235.869 34.8807 236.583 35.03 237.292C35.1793 238.001 35.3987 238.683 35.688 239.336C35.9773 239.999 36.3367 240.624 36.766 241.212H35.618C35.1513 240.661 34.764 240.059 34.456 239.406C34.148 238.762 33.9193 238.081 33.77 237.362C33.63 236.643 33.56 235.911 33.56 235.164ZM44.3793 230.418V231.384H47.5713V230.418H44.3793ZM41.0613 228.206V229.76C41.0613 231.692 39.7873 233.484 37.9113 234.184L38.5133 235.108C40.6273 234.254 41.9993 232.21 41.9993 229.76V228.206H41.0613ZM41.2853 228.206V229.802C41.2853 232.056 42.6433 234.016 44.6593 234.8L45.2893 233.904C43.4553 233.232 42.2233 231.566 42.2233 229.802V228.206H41.2853ZM47.1373 227.45V236.914H48.2993V227.45H47.1373ZM40.1653 238.86V239.812H48.6073V238.86H40.1653ZM40.1653 235.864V239.308H41.3273V235.864H40.1653ZM57.5242 230.712V231.678H60.3802V230.712H57.5242ZM60.0162 227.436V234.982H61.1782V227.436H60.0162ZM57.0202 235.36C54.4022 235.36 52.7922 236.242 52.7922 237.726C52.7922 239.224 54.4022 240.078 57.0202 240.078C59.6242 240.078 61.2342 239.224 61.2342 237.726C61.2342 236.242 59.6242 235.36 57.0202 235.36ZM57.0202 236.27C58.9242 236.27 60.0862 236.802 60.0862 237.726C60.0862 238.636 58.9242 239.168 57.0202 239.168C55.1162 239.168 53.9542 238.636 53.9542 237.726C53.9542 236.802 55.1162 236.27 57.0202 236.27ZM53.9962 228.71V229.732C53.9962 231.552 52.6942 233.246 50.8182 233.932L51.4202 234.856C53.5202 234.072 54.9482 232.07 54.9482 229.732V228.71H53.9962ZM54.2202 228.71V229.732C54.2202 231.86 55.5782 233.764 57.6362 234.506L58.2242 233.582C56.3902 232.938 55.1582 231.37 55.1582 229.732V228.71H54.2202ZM51.1682 228.36V229.312H57.9302V228.36H51.1682ZM66.8751 228.724V229.746C66.8751 231.538 65.5731 233.218 63.6831 233.89L64.2851 234.814C66.3991 234.03 67.8271 232.056 67.8271 229.746V228.724H66.8751ZM67.0991 228.724V229.746C67.0991 231.86 68.4571 233.764 70.5151 234.52L71.1031 233.596C69.2691 232.952 68.0371 231.37 68.0371 229.746V228.724H67.0991ZM70.4171 230.726V231.692H73.2311V230.726H70.4171ZM64.0471 228.304V229.242H70.8091V228.304H64.0471ZM65.6151 235.696V236.648H72.8951V240.092H74.0571V235.696H65.6151ZM72.8951 227.436V235.01H74.0571V227.436H72.8951ZM83.2647 228.528V230.796C83.2647 233.106 81.8227 235.542 79.9887 236.466L80.7027 237.39C82.7047 236.326 84.2167 233.596 84.2167 230.796V228.528H83.2647ZM83.4747 228.528V230.796C83.4747 233.512 84.9447 236.102 86.9047 237.152L87.6187 236.228C85.8267 235.332 84.4127 233.022 84.4127 230.796V228.528H83.4747ZM88.7247 227.436V240.092H89.9007V227.436H88.7247ZM89.6207 232.56V233.54H91.9727V232.56H89.6207ZM96.4096 228.822V230.11C96.4096 231.916 95.1216 233.554 93.2176 234.226L93.8196 235.15C95.9476 234.38 97.3756 232.434 97.3756 230.11V228.822H96.4096ZM96.6336 228.822V230.11C96.6336 232.336 98.0896 234.184 100.19 234.898L100.792 233.988C98.9156 233.358 97.5996 231.818 97.5996 230.11V228.822H96.6336ZM93.5256 228.486V229.424H100.456V228.486H93.5256ZM102.248 227.45V236.704H103.424V227.45H102.248ZM95.2896 238.86V239.812H103.802V238.86H95.2896ZM95.2896 235.836V239.28H96.4376V235.836H95.2896ZM107.917 237.53C107.833 237.857 107.725 238.211 107.595 238.594C107.464 238.977 107.319 239.355 107.161 239.728C107.011 240.111 106.862 240.47 106.713 240.806H105.803C105.896 240.451 105.985 240.069 106.069 239.658C106.162 239.257 106.246 238.86 106.321 238.468C106.395 238.067 106.456 237.703 106.503 237.376H107.819L107.917 237.53ZM112.251 230.67V231.328C112.251 233.386 111.271 235.584 109.549 236.592L110.249 237.474C112.097 236.368 113.147 233.834 113.147 231.328V230.67H112.251ZM112.461 230.67V231.328C112.461 233.764 113.553 236.158 115.415 237.194L116.073 236.326C114.379 235.402 113.357 233.33 113.357 231.328V230.67H112.461ZM109.871 229.788V230.74H115.737V229.788H109.871ZM112.251 227.884V230.502H113.371V227.884H112.251ZM119.349 227.436V240.092H120.455V227.436H119.349ZM117.347 232.532V233.512H119.783V232.532H117.347ZM116.591 227.702V239.462H117.683V227.702H116.591ZM123.282 233.442V234.38H124.304C127.062 234.38 128.602 234.338 130.436 234.016L130.31 233.092C128.532 233.386 127.034 233.442 124.304 233.442H123.282ZM123.282 228.36V233.918H124.43V229.298H129.302V228.36H123.282ZM124.052 230.866V231.79H128.952V230.866H124.052ZM131.752 227.45V235.276H132.928V227.45H131.752ZM128.742 235.458C126.096 235.458 124.486 236.298 124.486 237.754C124.486 239.224 126.096 240.064 128.742 240.064C131.374 240.064 132.984 239.224 132.984 237.754C132.984 236.298 131.374 235.458 128.742 235.458ZM128.742 236.382C130.66 236.382 131.822 236.886 131.822 237.754C131.822 238.65 130.66 239.154 128.742 239.154C126.81 239.154 125.648 238.65 125.648 237.754C125.648 236.886 126.81 236.382 128.742 236.382ZM145.775 230.922V231.874H148.967V230.922H145.775ZM148.309 227.45V236.718H149.471V227.45H148.309ZM141.393 238.86V239.812H149.821V238.86H141.393ZM141.393 235.906V239.35H142.555V235.906H141.393ZM142.289 229.018V230.04C142.289 231.832 140.987 233.512 139.097 234.184L139.699 235.108C141.813 234.324 143.241 232.336 143.241 230.04V229.018H142.289ZM142.513 229.018V230.026C142.513 232.168 143.871 234.072 145.929 234.814L146.517 233.904C144.683 233.26 143.451 231.664 143.451 230.026V229.018H142.513ZM139.461 228.472V229.41H146.223V228.472H139.461ZM157.072 231.86V234.226H158.22V231.86H157.072ZM157.058 227.632V228.192C157.058 229.886 154.888 231.286 152.62 231.594L153.068 232.518C155.644 232.098 158.066 230.474 158.066 228.192V227.632H157.058ZM157.24 227.632V228.192C157.24 230.474 159.676 232.084 162.238 232.518L162.672 231.594C160.418 231.286 158.234 229.886 158.234 228.192V227.632H157.24ZM151.934 233.722V234.646H163.372V233.722H151.934ZM157.646 235.696C154.93 235.696 153.306 236.48 153.306 237.88C153.306 239.294 154.93 240.064 157.646 240.064C160.362 240.064 161.986 239.294 161.986 237.88C161.986 236.48 160.362 235.696 157.646 235.696ZM157.646 236.592C159.648 236.592 160.81 237.054 160.81 237.88C160.81 238.706 159.648 239.168 157.646 239.168C155.658 239.168 154.482 238.706 154.482 237.88C154.482 237.054 155.658 236.592 157.646 236.592ZM169.122 228.248V233.428H175.016V228.248H169.122ZM173.896 229.186V232.504H170.242V229.186H173.896ZM177.662 227.436V234.702H178.824V227.436H177.662ZM174.232 236.2V236.438C174.232 237.698 172.216 238.902 170.018 239.154L170.41 240.05C172.972 239.714 175.226 238.258 175.226 236.438V236.2H174.232ZM174.4 236.2V236.438C174.4 238.216 176.598 239.7 179.174 240.05L179.566 239.154C177.368 238.888 175.408 237.656 175.408 236.438V236.2H174.4ZM170.522 235.556V236.466H179.118V235.556H170.522ZM174.232 234.338V235.962H175.408V234.338H174.232ZM188.073 228.528V230.796C188.073 233.106 186.631 235.542 184.797 236.466L185.511 237.39C187.513 236.326 189.025 233.596 189.025 230.796V228.528H188.073ZM188.283 228.528V230.796C188.283 233.512 189.753 236.102 191.713 237.152L192.427 236.228C190.635 235.332 189.221 233.022 189.221 230.796V228.528H188.283ZM193.533 227.436V240.092H194.709V227.436H193.533ZM194.429 232.56V233.54H196.781V232.56H194.429ZM207.07 227.436V240.092H208.232V227.436H207.07ZM203.36 228.794V228.99C203.36 232.35 201.666 235.038 198.012 236.802L198.628 237.74C202.856 235.668 204.508 232.462 204.508 228.794H203.36ZM198.586 228.794V229.746H203.864V228.794H198.586ZM219.949 227.436V240.092H221.111V227.436H219.949ZM211.045 228.794V229.746H218.213V228.794H211.045ZM210.849 236.97C213.159 236.956 216.197 236.914 218.927 236.48L218.857 235.626C216.169 235.948 213.061 235.976 210.709 235.976L210.849 236.97ZM212.445 229.508V236.242H213.565V229.508H212.445ZM215.679 229.508V236.242H216.813V229.508H215.679ZM223.588 229.592V230.544H229.86V229.592H223.588ZM226.724 231.384C225.156 231.384 224.008 232.574 224.008 234.282C224.008 235.976 225.156 237.166 226.724 237.166C228.306 237.166 229.454 235.976 229.454 234.282C229.454 232.574 228.306 231.384 226.724 231.384ZM226.724 232.378C227.704 232.378 228.418 233.162 228.418 234.282C228.418 235.402 227.704 236.186 226.724 236.186C225.758 236.186 225.058 235.402 225.058 234.282C225.058 233.162 225.758 232.378 226.724 232.378ZM233.206 227.436V240.092H234.326V227.436H233.206ZM231.19 232.756V233.722H233.584V232.756H231.19ZM230.504 227.716V239.476H231.596V227.716H230.504ZM226.164 227.8V230.18H227.312V227.8H226.164ZM240.132 233.456V234.422H251.57V233.456H240.132ZM241.574 231.314V232.252H250.24V231.314H241.574ZM241.574 227.94V231.762H242.722V228.892H250.142V227.94H241.574ZM245.83 235.514C243.128 235.514 241.49 236.34 241.49 237.796C241.49 239.252 243.128 240.064 245.83 240.064C248.532 240.064 250.17 239.252 250.17 237.796C250.17 236.34 248.532 235.514 245.83 235.514ZM245.83 236.41C247.818 236.41 248.994 236.914 248.994 237.796C248.994 238.664 247.818 239.154 245.83 239.154C243.856 239.154 242.666 238.664 242.666 237.796C242.666 236.914 243.856 236.41 245.83 236.41ZM255.951 235.164C255.951 235.911 255.876 236.643 255.727 237.362C255.587 238.081 255.363 238.762 255.055 239.406C254.756 240.059 254.369 240.661 253.893 241.212H252.745C253.174 240.624 253.533 239.999 253.823 239.336C254.112 238.683 254.331 238.001 254.481 237.292C254.63 236.583 254.705 235.869 254.705 235.15C254.705 234.413 254.63 233.685 254.481 232.966C254.331 232.247 254.112 231.552 253.823 230.88C253.533 230.208 253.169 229.583 252.731 229.004H253.893C254.369 229.564 254.756 230.175 255.055 230.838C255.363 231.501 255.587 232.196 255.727 232.924C255.876 233.652 255.951 234.399 255.951 235.164ZM270.029 227.422V240.106H271.191V227.422H270.029ZM264.513 228.402C262.651 228.402 261.307 230.124 261.307 232.812C261.307 235.514 262.651 237.236 264.513 237.236C266.389 237.236 267.733 235.514 267.733 232.812C267.733 230.124 266.389 228.402 264.513 228.402ZM264.513 229.452C265.759 229.452 266.613 230.768 266.613 232.812C266.613 234.87 265.759 236.214 264.513 236.214C263.281 236.214 262.413 234.87 262.413 232.812C262.413 230.768 263.281 229.452 264.513 229.452ZM42.352 246.436V253.604H43.514V246.436H42.352ZM43.192 249.516V250.482H45.39V249.516H43.192ZM38.852 247.248V247.766C38.852 250.09 36.962 251.924 33.686 252.82L34.134 253.744C37.858 252.736 40.084 250.44 40.084 247.248H38.852ZM34.232 247.248V248.186H39.496V247.248H34.232ZM35.548 254.206V258.924H43.514V254.206H35.548ZM42.366 255.144V257.972H36.696V255.144H42.366ZM49.9249 248.242V250.3C49.9249 252.484 48.3989 254.864 46.5649 255.732L47.2369 256.656C49.2529 255.662 50.8629 252.974 50.8629 250.3V248.242H49.9249ZM50.1489 248.242V250.3C50.1489 252.932 51.7729 255.396 53.8169 256.348L54.4749 255.424C52.6129 254.626 51.0869 252.442 51.0869 250.3V248.242H50.1489ZM46.9849 247.724V248.704H54.0549V247.724H46.9849ZM55.7629 246.436V259.092H56.9249V246.436H55.7629ZM64.2985 249.754V250.65H70.3745V249.754H64.2985ZM64.2985 246.968V250.16H65.4885V247.878H70.2345V246.968H64.2985ZM66.7205 250.258V252.372H67.8825V250.258H66.7205ZM72.3065 246.436V253.24H73.4685V246.436H72.3065ZM63.3185 252.946C65.6985 252.946 68.7085 252.862 71.3965 252.47L71.3265 251.658C68.7085 251.952 65.6145 252.008 63.1645 252.022L63.3185 252.946ZM65.1245 253.814V254.738H72.3345V255.886H65.1385V258.392H66.2865V256.768H73.4685V253.814H65.1245ZM65.1385 258.028V258.952H73.9025V258.028H65.1385ZM82.9422 247.528V249.796C82.9422 252.19 81.4162 254.612 79.5402 255.508L80.2542 256.46C82.3262 255.41 83.8942 252.708 83.8942 249.796V247.528H82.9422ZM83.1382 247.528V249.796C83.1382 252.61 84.7202 255.214 86.7782 256.222L87.4782 255.298C85.6022 254.43 84.0902 252.106 84.0902 249.796V247.528H83.1382ZM88.7942 246.422V259.106H89.9562V246.422H88.7942ZM97.6131 251.35V252.316H100.007V251.35H97.6131ZM102.121 246.436V259.092H103.241V246.436H102.121ZM99.6151 246.702V258.462H100.721V246.702H99.6151ZM95.3311 247.486C93.6931 247.486 92.6431 249.18 92.6431 251.896C92.6431 254.612 93.6931 256.306 95.3311 256.306C96.9691 256.306 98.0331 254.612 98.0331 251.896C98.0331 249.18 96.9691 247.486 95.3311 247.486ZM95.3311 248.564C96.3391 248.564 96.9691 249.852 96.9691 251.896C96.9691 253.94 96.3391 255.228 95.3311 255.228C94.3371 255.228 93.7071 253.94 93.7071 251.896C93.7071 249.852 94.3371 248.564 95.3311 248.564ZM106.908 250.23V251.182H115.504V250.23H106.908ZM105.354 252.876V253.828H116.834V252.876H105.354ZM106.908 246.898V250.706H108.056V246.898H106.908ZM106.824 257.832V258.784H115.574V257.832H106.824ZM106.824 255.088V258.084H107.972V255.088H106.824ZM126.84 247.514V247.92C126.84 249.376 124.782 250.524 122.514 250.776L122.934 251.7C125.552 251.364 127.876 249.964 127.876 247.92V247.514H126.84ZM127.33 247.514V247.92C127.33 249.964 129.64 251.364 132.258 251.7L132.678 250.776C130.41 250.524 128.352 249.362 128.352 247.92V247.514H127.33ZM122.92 247.01V247.948H132.286V247.01H122.92ZM121.87 252.526V253.478H133.35V252.526H121.87ZM123.144 254.78V255.718H130.732V259.092H131.894V254.78H123.144ZM138.095 247.528V249.796C138.095 252.19 136.569 254.612 134.693 255.508L135.407 256.46C137.479 255.41 139.047 252.708 139.047 249.796V247.528H138.095ZM138.291 247.528V249.796C138.291 252.61 139.873 255.214 141.931 256.222L142.631 255.298C140.755 254.43 139.243 252.106 139.243 249.796V247.528H138.291ZM143.947 246.422V259.106H145.109V246.422H143.947ZM157.032 248.256V249.208H160.896V248.256H157.032ZM157.032 251.168V252.134H160.896V251.168H157.032ZM154.722 247.178C152.846 247.178 151.46 248.438 151.46 250.188C151.46 251.952 152.846 253.198 154.722 253.198C156.584 253.198 157.984 251.952 157.984 250.188C157.984 248.438 156.584 247.178 154.722 247.178ZM154.722 248.172C155.954 248.172 156.878 248.998 156.878 250.188C156.878 251.378 155.954 252.204 154.722 252.204C153.49 252.204 152.58 251.378 152.58 250.188C152.58 248.998 153.49 248.172 154.722 248.172ZM160.518 246.436V253.926H161.68V246.436H160.518ZM157.522 254.22C154.904 254.22 153.294 255.116 153.294 256.642C153.294 258.182 154.904 259.064 157.522 259.064C160.126 259.064 161.736 258.182 161.736 256.642C161.736 255.116 160.126 254.22 157.522 254.22ZM157.522 255.144C159.426 255.144 160.588 255.704 160.588 256.642C160.588 257.594 159.426 258.154 157.522 258.154C155.604 258.154 154.442 257.594 154.442 256.642C154.442 255.704 155.604 255.144 157.522 255.144ZM165.585 247.262V248.2H173.495V247.262H165.585ZM164.157 252.694V253.646H175.595V252.694H164.157ZM169.267 253.324V259.106H170.429V253.324H169.267ZM172.949 247.262V248.354C172.949 249.628 172.949 251.098 172.459 253.142L173.607 253.296C174.083 251.154 174.083 249.67 174.083 248.354V247.262H172.949ZM177.61 251.672V252.596H178.576C181.18 252.596 182.622 252.554 184.358 252.274L184.26 251.336C182.552 251.63 181.152 251.672 178.576 251.672H177.61ZM177.61 247.066V252.232H178.758V247.99H183.392V247.066H177.61ZM178.394 249.334V250.244H183.154V249.334H178.394ZM185.688 246.436V253.03H186.85V246.436H185.688ZM186.346 249.194V250.146H188.712V249.194H186.346ZM178.814 253.66V254.57H185.716V255.788H178.842V258.49H179.99V256.642H186.85V253.66H178.814ZM178.842 258.042V258.952H187.312V258.042H178.842ZM193.541 253.128V255.816H194.703V253.128H193.541ZM190.923 252.512V253.464H197.503V252.512H190.923ZM190.923 247.584V252.876H192.085V248.522H197.461V247.584H190.923ZM191.749 250.02V250.944H197.195V250.02H191.749ZM199.057 246.422V259.106H200.219V246.422H199.057ZM190.139 256.558C192.393 256.558 195.487 256.544 198.329 256.012L198.231 255.144C195.473 255.564 192.281 255.578 189.971 255.578L190.139 256.558ZM211.348 246.422V259.092H212.524V246.422H211.348ZM212.202 251.56V252.526H214.54V251.56H212.202ZM208.114 247.794V247.976C208.114 251.322 206.364 254.024 202.864 255.802L203.508 256.698C207.596 254.64 209.248 251.392 209.248 247.794H208.114ZM203.452 247.794V248.746H208.716V247.794H203.452ZM222.893 252.806V255.62H224.055V252.806H222.893ZM228.507 246.436V256.068H229.669V246.436H228.507ZM221.031 257.86V258.812H229.977V257.86H221.031ZM221.031 255.13V258.126H222.193V255.13H221.031ZM219.393 253.24C221.689 253.24 224.755 253.198 227.485 252.764L227.401 251.91C224.713 252.26 221.577 252.288 219.239 252.288L219.393 253.24ZM225.931 253.912V254.766H228.801V253.912H225.931ZM223.355 246.954C221.493 246.954 220.233 247.822 220.233 249.152C220.233 250.496 221.493 251.364 223.355 251.364C225.203 251.364 226.463 250.496 226.463 249.152C226.463 247.822 225.203 246.954 223.355 246.954ZM223.355 247.822C224.531 247.822 225.357 248.34 225.357 249.152C225.357 249.964 224.531 250.482 223.355 250.482C222.165 250.482 221.339 249.964 221.339 249.152C221.339 248.34 222.165 247.822 223.355 247.822ZM235.618 248.676V249.208C235.618 250.944 234.316 252.484 232.426 253.1L233 254.01C235.128 253.296 236.57 251.448 236.57 249.208V248.676H235.618ZM235.814 248.676V249.208C235.814 251.35 237.284 253.1 239.426 253.772L239.972 252.862C238.096 252.288 236.766 250.832 236.766 249.208V248.676H235.814ZM232.734 247.962V248.9H239.622V247.962H232.734ZM235.618 246.38V248.452H236.766V246.38H235.618ZM241.386 246.436V254.234H242.562V246.436H241.386ZM234.106 254.878V255.816H241.386V259.092H242.562V254.878H234.106ZM254.265 246.436V253.226H255.441V246.436H254.265ZM247.279 253.856V258.924H255.441V253.856H254.293V255.396H248.427V253.856H247.279ZM248.427 256.32H254.293V257.986H248.427V256.32ZM248.651 247.038C246.733 247.038 245.347 248.228 245.347 249.95C245.347 251.686 246.733 252.876 248.651 252.876C250.569 252.876 251.941 251.686 251.941 249.95C251.941 248.228 250.569 247.038 248.651 247.038ZM248.651 248.004C249.911 248.004 250.821 248.802 250.821 249.95C250.821 251.098 249.911 251.896 248.651 251.896C247.391 251.896 246.481 251.098 246.481 249.95C246.481 248.802 247.391 248.004 248.651 248.004ZM267.144 246.436V259.092H268.306V246.436H267.144ZM258.744 247.668V255.508H259.892V247.668H258.744ZM258.744 254.822V255.83H259.78C261.782 255.83 263.784 255.676 265.982 255.228L265.842 254.234C263.7 254.682 261.698 254.822 259.78 254.822H258.744ZM279.379 246.422V259.106H280.555V246.422H279.379ZM280.275 251.42V252.4H282.627V251.42H280.275ZM271.357 254.976V255.956H272.351C274.731 255.956 276.397 255.886 278.343 255.522L278.217 254.542C276.327 254.892 274.689 254.976 272.351 254.976H271.357ZM271.357 247.654V255.41H272.505V248.606H277.237V247.654H271.357ZM33.56 273.164C33.56 272.399 33.63 271.652 33.77 270.924C33.9193 270.196 34.148 269.501 34.456 268.838C34.764 268.175 35.1513 267.564 35.618 267.004H36.78C36.3507 267.583 35.9867 268.208 35.688 268.88C35.3987 269.552 35.1793 270.247 35.03 270.966C34.8807 271.685 34.806 272.413 34.806 273.15C34.806 273.869 34.8807 274.583 35.03 275.292C35.1793 276.001 35.3987 276.683 35.688 277.336C35.9773 277.999 36.3367 278.624 36.766 279.212H35.618C35.1513 278.661 34.764 278.059 34.456 277.406C34.148 276.762 33.9193 276.081 33.77 275.362C33.63 274.643 33.56 273.911 33.56 273.164ZM44.2113 269.72V270.672H47.7393V269.72H44.2113ZM41.1593 266.528V268.782C41.1593 271.134 39.7313 273.57 37.8693 274.494L38.6113 275.418C40.6133 274.34 42.1113 271.624 42.1113 268.782V266.528H41.1593ZM41.3833 266.528V268.782C41.3833 271.554 42.8533 274.158 44.8973 275.194L45.5833 274.256C43.7493 273.388 42.3213 271.092 42.3213 268.782V266.528H41.3833ZM47.1653 265.422V278.106H48.3133V265.422H47.1653ZM59.9602 265.422V278.106H61.1222V265.422H59.9602ZM51.4902 266.5V275.054H57.4542V266.5H56.2922V269.846H52.6382V266.5H51.4902ZM52.6382 270.77H56.2922V274.102H52.6382V270.77ZM68.7231 266.304V267.27C68.7231 269.426 66.3431 271.358 64.1171 271.778L64.6351 272.744C67.1691 272.17 69.7311 270.028 69.7311 267.27V266.304H68.7231ZM68.9331 266.304V267.27C68.9331 270.042 71.5091 272.17 74.0291 272.744L74.5471 271.778C72.3351 271.358 69.9411 269.44 69.9411 267.27V266.304H68.9331ZM63.6551 275.432V276.384H75.1211V275.432H63.6551ZM89.8447 265.436V278.092H90.9507V265.436H89.8447ZM87.8427 270.532V271.512H90.2787V270.532H87.8427ZM87.0867 265.702V277.462H88.1787V265.702H87.0867ZM82.7747 267.396V268.852C82.7747 271.428 81.8507 273.584 80.0307 274.592L80.7447 275.488C82.6907 274.326 83.6847 271.89 83.6847 268.852V267.396H82.7747ZM82.9847 267.396V268.852C82.9847 271.638 83.9927 273.976 85.9247 275.04L86.6107 274.144C84.8327 273.234 83.8947 271.176 83.8947 268.852V267.396H82.9847ZM80.3247 266.92V267.886H86.2047V266.92H80.3247ZM101.604 265.422V278.092H102.78V265.422H101.604ZM102.458 270.56V271.526H104.796V270.56H102.458ZM98.3696 266.794V266.976C98.3696 270.322 96.6196 273.024 93.1196 274.802L93.7636 275.698C97.8516 273.64 99.5036 270.392 99.5036 266.794H98.3696ZM93.7076 266.794V267.746H98.9716V266.794H93.7076ZM115.127 265.436V272.226H116.303V265.436H115.127ZM108.141 272.856V277.924H116.303V272.856H115.155V274.396H109.289V272.856H108.141ZM109.289 275.32H115.155V276.986H109.289V275.32ZM109.513 266.038C107.595 266.038 106.209 267.228 106.209 268.95C106.209 270.686 107.595 271.876 109.513 271.876C111.431 271.876 112.803 270.686 112.803 268.95C112.803 267.228 111.431 266.038 109.513 266.038ZM109.513 267.004C110.773 267.004 111.683 267.802 111.683 268.95C111.683 270.098 110.773 270.896 109.513 270.896C108.253 270.896 107.343 270.098 107.343 268.95C107.343 267.802 108.253 267.004 109.513 267.004ZM127.568 271.512V273.444H128.716V271.512H127.568ZM123.956 265.632V269.804H132.384V265.632H131.222V266.808H125.104V265.632H123.956ZM125.104 267.704H131.222V268.908H125.104V267.704ZM122.43 270.84V271.778H133.868V270.84H122.43ZM123.816 273.01V273.892H131.264V274.984H123.844V277.392H124.992V275.824H132.412V273.01H123.816ZM123.844 277.056V277.952H132.79V277.056H123.844ZM143.877 265.422V278.092H145.053V265.422H143.877ZM144.731 270.56V271.526H147.069V270.56H144.731ZM140.643 266.794V266.976C140.643 270.322 138.893 273.024 135.393 274.802L136.037 275.698C140.125 273.64 141.777 270.392 141.777 266.794H140.643ZM135.981 266.794V267.746H141.245V266.794H135.981ZM151.142 273.164C151.142 273.911 151.067 274.643 150.918 275.362C150.778 276.081 150.554 276.762 150.246 277.406C149.947 278.059 149.56 278.661 149.084 279.212H147.936C148.365 278.624 148.725 277.999 149.014 277.336C149.303 276.683 149.523 276.001 149.672 275.292C149.821 274.583 149.896 273.869 149.896 273.15C149.896 272.413 149.821 271.685 149.672 270.966C149.523 270.247 149.303 269.552 149.014 268.88C148.725 268.208 148.361 267.583 147.922 267.004H149.084C149.56 267.564 149.947 268.175 150.246 268.838C150.554 269.501 150.778 270.196 150.918 270.924C151.067 271.652 151.142 272.399 151.142 273.164Z" fill="black"/>
<defs>
<filter id="filter0_d_0_1" x="0" y="0" width="373" height="560" filterUnits="userSpaceOnUse" color-interpolation-filters="sRGB">
<feFlood flood-opacity="0" result="BackgroundImageFix"/>
<feColorMatrix in="SourceAlpha" type="matrix" values="0 0 0 0 0 0 0 0 0 0 0 0 0 0 0 0 0 0 127 0" result="hardAlpha"/>
<feOffset dx="10" dy="15"/>
<feGaussianBlur stdDeviation="7.5"/>
<feComposite in2="hardAlpha" operator="out"/>
<feColorMatrix type="matrix" values="0 0 0 0 0 0 0 0 0 0 0 0 0 0 0 0 0 0 0.25 0"/>
<feBlend mode="normal" in2="BackgroundImageFix" result="effect1_dropShadow_0_1"/>
<feBlend mode="normal" in="SourceGraphic" in2="effect1_dropShadow_0_1" result="shape"/>
</filter>
</defs>
</svg>

