<svg width="363" height="560" viewBox="0 0 363 560" fill="none" xmlns="http://www.w3.org/2000/svg">
<g filter="url(#filter0_d_0_1)">
<rect x="5" width="343" height="530" rx="30" fill="#DCF9FF"/>
</g>
<mask id="mask0_0_1" style="mask-type:alpha" maskUnits="userSpaceOnUse" x="5" y="0" width="343" height="530">
<rect x="5" width="343" height="530" rx="30" fill="#DCF9FF"/>
</mask>
<g mask="url(#mask0_0_1)">
<path d="M249.365 22.2805L229.328 15.1246" stroke="#9FE5E8" stroke-opacity="0.35" stroke-width="5" stroke-linecap="round"/>
<path d="M243.639 38.8053L216 38.5606" stroke="#9FE5E8" stroke-opacity="0.35" stroke-width="5" stroke-linecap="round"/>
<path d="M258.688 7.61463L240.751 -14" stroke="#9FE5E8" stroke-opacity="0.35" stroke-width="5" stroke-linecap="round"/>
<rect width="26.3128" height="26.3128" rx="5" transform="matrix(-0.913698 -0.406395 -0.406395 0.913698 346.774 48.1031)" fill="white" fill-opacity="0.2"/>
<rect x="-1.32009" y="0.507303" width="24.3128" height="24.3128" rx="4" transform="matrix(-0.913698 -0.406395 -0.406395 0.913698 344.454 47.6104)" stroke="#9FE5E8" stroke-opacity="0.35" stroke-width="2"/>
<rect width="12.4726" height="38.6343" rx="6.23631" transform="matrix(-0.913698 -0.406395 -0.406395 0.913698 330.087 66.9222)" fill="white" fill-opacity="0.2"/>
<rect x="-1.32009" y="0.507303" width="10.4726" height="36.6343" rx="5.23631" transform="matrix(-0.913698 -0.406395 -0.406395 0.913698 327.767 66.4295)" stroke="#9FE5E8" stroke-opacity="0.35" stroke-width="2"/>
<rect width="13.1301" height="17.5366" rx="5" transform="matrix(-0.913698 -0.406395 -0.406395 0.913698 354.153 56.5544)" fill="white" fill-opacity="0.2"/>
<rect x="-1.32009" y="0.507303" width="11.1301" height="15.5366" rx="4" transform="matrix(-0.913698 -0.406395 -0.406395 0.913698 351.833 56.0617)" stroke="#9FE5E8" stroke-opacity="0.35" stroke-width="2"/>
<path d="M324.678 39.1802C325.547 37.2579 325.116 34.9973 323.6 33.5297L290.93 1.8863C288.44 -0.525847 284.31 0.267071 282.89 3.43002L260.023 54.3665C258.638 57.4529 260.653 60.9956 264.014 61.3817L308.523 66.4935C310.682 66.7415 312.754 65.566 313.649 63.5852L324.678 39.1802Z" fill="white" fill-opacity="0.2"/>
<path d="M322.905 34.248L290.235 2.6046C288.242 0.674883 284.939 1.30922 283.803 3.83958L260.935 54.7761C259.827 57.2452 261.439 60.0794 264.128 60.3882L308.637 65.5C310.364 65.6984 312.022 64.758 312.738 63.1734L323.767 38.7684C324.462 37.2306 324.117 35.422 322.905 34.248Z" stroke="#9FE5E8" stroke-opacity="0.35" stroke-width="2"/>
<rect width="12.2705" height="82.287" rx="6.13523" transform="matrix(-0.907788 -0.419428 -0.419428 0.907788 290.946 -6.43036)" fill="white" fill-opacity="0.2"/>
<rect x="-1.32722" y="0.48836" width="10.2705" height="80.287" rx="5.13523" transform="matrix(-0.907788 -0.419428 -0.419428 0.907788 288.619 -6.942)" stroke="#9FE5E8" stroke-opacity="0.35" stroke-width="2"/>
</g>
<path d="M28.76 37.52V39.64H41.78V37.52H28.76ZM26.82 43.52V45.7H43.58V43.52H26.82ZM33.84 38.48V44.22H36.5V38.48H33.84ZM28.76 30.52V38.44H31.42V32.66H41.64V30.52H28.76ZM49.3584 38.64V43.02H52.0184V38.64H49.3584ZM50.6584 30.34C47.7784 30.34 45.6184 32.24 45.6184 34.9C45.6184 37.56 47.7784 39.46 50.6584 39.46C53.5184 39.46 55.6984 37.56 55.6984 34.9C55.6984 32.24 53.5184 30.34 50.6584 30.34ZM50.6584 32.6C52.0584 32.6 53.0984 33.44 53.0984 34.9C53.0984 36.34 52.0584 37.2 50.6584 37.2C49.2584 37.2 48.2184 36.34 48.2184 34.9C48.2184 33.44 49.2584 32.6 50.6584 32.6ZM57.1584 29.26V47.78H59.8184V29.26H57.1584ZM58.9984 36.5V38.72H62.2584V36.5H58.9984ZM45.3184 44.1C48.4384 44.12 52.5584 44.12 56.3984 43.4L56.1984 41.46C52.5184 41.96 48.1984 41.94 44.9984 41.96L45.3184 44.1ZM65.5569 37.8V39.92H78.5769V37.8H65.5569ZM63.6169 43.38V45.56H80.3769V43.38H63.6169ZM65.5569 30.78V38.68H68.1969V32.94H78.4369V30.78H65.5569ZM82.9153 36.48V38.52H84.5153C88.6553 38.52 90.8953 38.46 93.4353 38.04L93.1953 36.04C90.6953 36.44 88.5753 36.48 84.5153 36.48H82.9153ZM82.8753 30.12V32.12H88.9153V33.32H82.9153V37.44H85.5353V35.18H91.5353V30.12H82.8753ZM85.0353 39.58V41.58H94.6753V42.62H85.0753V46.48H87.7553V44.5H97.3953V39.58H85.0353ZM85.0753 45.64V47.66H97.8553V45.64H85.0753ZM94.7153 29.26V38.9H97.3953V29.26H94.7153ZM113.814 29.26V47.78H116.354V29.26H113.814ZM106.474 36.36V38.46H110.434V36.36H106.474ZM109.914 29.66V46.96H112.394V29.66H109.914ZM105.874 31.44V31.98C105.874 36.46 104.374 39.54 100.154 42.08L101.654 43.94C106.854 40.92 108.434 36.72 108.434 31.44H105.874ZM101.194 31.44V33.56H106.714V31.44H101.194ZM122.492 38.66V43.86H125.132V38.66H122.492ZM129.212 38.66V43.86H131.872V38.66H129.212ZM118.812 43.48V45.64H135.572V43.48H118.812ZM127.172 30.16C123.172 30.16 120.252 32.12 120.252 35.14C120.252 38.16 123.172 40.1 127.172 40.1C131.152 40.1 134.092 38.16 134.092 35.14C134.092 32.12 131.152 30.16 127.172 30.16ZM127.172 32.24C129.752 32.24 131.472 33.3 131.472 35.14C131.472 36.96 129.752 38.04 127.172 38.04C124.592 38.04 122.872 36.96 122.872 35.14C122.872 33.3 124.592 32.24 127.172 32.24ZM140.451 41.26H138.071L137.571 31.72H140.951L140.451 41.26ZM137.531 44.6C137.531 43.9867 137.697 43.56 138.031 43.32C138.364 43.0667 138.771 42.94 139.251 42.94C139.717 42.94 140.117 43.0667 140.451 43.32C140.784 43.56 140.951 43.9867 140.951 44.6C140.951 45.1867 140.784 45.6133 140.451 45.88C140.117 46.1333 139.717 46.26 139.251 46.26C138.771 46.26 138.364 46.1333 138.031 45.88C137.697 45.6133 137.531 45.1867 137.531 44.6ZM28.88 62.02V64.14H41.84V62.02H28.88ZM26.82 66.24V68.38H43.58V66.24H26.82ZM33.78 67.52V74.78H36.44V67.52H33.78ZM28.88 57.08V63.02H31.54V57.08H28.88ZM47.1184 57.34V59.44H58.7384V57.34H47.1184ZM45.2184 65.22V67.36H61.9584V65.22H45.2184ZM52.1584 66.72V74.8H54.8384V66.72H52.1584ZM57.3784 57.34V58.98C57.3784 60.9 57.3784 63.1 56.6584 66.2L59.2784 66.5C59.9984 63.22 59.9984 60.98 59.9984 58.98V57.34H57.3784ZM70.9969 63.08V65.22H74.0369V63.08H70.9969ZM76.9769 56.26V74.78H79.5169V56.26H76.9769ZM73.1969 56.54V73.94H75.6969V56.54H73.1969ZM67.7569 57.56C65.3169 57.56 63.7569 60.1 63.7569 64.28C63.7569 68.48 65.3169 71.02 67.7569 71.02C70.2169 71.02 71.7969 68.48 71.7969 64.28C71.7969 60.1 70.2169 57.56 67.7569 57.56ZM67.7569 60.06C68.7969 60.06 69.3769 61.46 69.3769 64.28C69.3769 67.12 68.7969 68.5 67.7569 68.5C66.7569 68.5 66.1769 67.12 66.1769 64.28C66.1769 61.46 66.7569 60.06 67.7569 60.06ZM95.4153 56.26V74.78H97.9553V56.26H95.4153ZM88.0753 63.36V65.46H92.0353V63.36H88.0753ZM91.5153 56.66V73.96H93.9953V56.66H91.5153ZM87.4753 58.44V58.98C87.4753 63.46 85.9753 66.54 81.7553 69.08L83.2553 70.94C88.4553 67.92 90.0353 63.72 90.0353 58.44H87.4753ZM82.7953 58.44V60.56H88.3153V58.44H82.7953ZM114.214 63.26V65.44H117.474V63.26H114.214ZM112.234 56.24V74.76H114.914V56.24H112.234ZM100.954 58.02V69.52H103.614V58.02H100.954ZM100.954 68.04V70.24H102.554C105.274 70.24 108.254 70.08 111.314 69.44L111.034 67.26C108.054 67.86 105.194 68.04 102.554 68.04H100.954ZM136.868 56.24V74.82H139.528V56.24H136.868ZM133.608 63.36V65.5H137.468V63.36H133.608ZM128.268 61.06V62.02C128.268 64.8 126.888 67.94 123.888 69.32L125.308 71.36C128.668 69.86 130.348 65.92 130.348 62.02V61.06H128.268ZM128.848 61.06V62.02C128.848 65.8 130.528 69.6 133.928 71.04L135.328 69.02C132.328 67.68 130.908 64.68 130.908 62.02V61.06H128.848ZM124.507 59.28V61.38H134.608V59.28H124.507ZM128.268 56.68V60.36H130.928V56.68H128.268ZM150.766 56.6C146.686 56.6 144.066 57.98 144.066 60.22C144.066 62.46 146.686 63.82 150.766 63.82C154.846 63.82 157.466 62.46 157.466 60.22C157.466 57.98 154.846 56.6 150.766 56.6ZM150.766 58.66C153.286 58.66 154.726 59.16 154.726 60.22C154.726 61.26 153.286 61.78 150.766 61.78C148.226 61.78 146.806 61.26 146.806 60.22C146.806 59.16 148.226 58.66 150.766 58.66ZM144.326 68.26V74.58H157.126V68.26H144.326ZM154.526 70.36V72.48H146.946V70.36H154.526ZM142.386 64.88V66.98H159.126V64.88H142.386ZM160.784 65.7V67.82H177.524V65.7H160.784ZM162.804 72.34V74.46H175.644V72.34H162.804ZM162.804 69.06V73.02H165.464V69.06H162.804ZM169.164 56.8C165.124 56.8 162.464 58.26 162.464 60.62C162.464 62.98 165.124 64.44 169.164 64.44C173.184 64.44 175.864 62.98 175.864 60.62C175.864 58.26 173.184 56.8 169.164 56.8ZM169.164 58.92C171.664 58.92 173.124 59.5 173.124 60.62C173.124 61.76 171.664 62.32 169.164 62.32C166.664 62.32 165.204 61.76 165.204 60.62C165.204 59.5 166.664 58.92 169.164 58.92ZM189.458 57.54C186.678 57.54 184.678 60.1 184.678 64.14C184.678 68.22 186.678 70.78 189.458 70.78C192.218 70.78 194.238 68.22 194.238 64.14C194.238 60.1 192.218 57.54 189.458 57.54ZM189.458 59.96C190.818 59.96 191.698 61.42 191.698 64.14C191.698 66.9 190.818 68.38 189.458 68.38C188.118 68.38 187.218 66.9 187.218 64.14C187.218 61.42 188.118 59.96 189.458 59.96ZM197.278 56.24V74.82H199.918V56.24H197.278ZM193.458 62.92V65.06H198.398V62.92H193.458ZM215.617 56.24V74.82H218.277V56.24H215.617ZM212.577 60.18V62.32H216.057V60.18H212.577ZM203.417 68.52V70.7H204.877C207.697 70.7 210.057 70.64 212.777 70.22L212.557 68.06C209.897 68.46 207.617 68.52 204.877 68.52H203.417ZM203.377 57.8V59.92H209.037V62.88H203.417V69H206.057V64.98H211.657V57.8H203.377ZM212.537 65.22V67.36H216.017V65.22H212.537ZM221.175 65.26V67.36H237.955V65.26H221.175ZM228.355 66.64V70.54H231.055V66.64H228.355ZM223.135 72.32V74.46H236.115V72.32H223.135ZM223.135 68.92V72.86H225.815V68.92H223.135ZM229.555 56.6C225.555 56.6 222.895 58.1 222.895 60.44C222.895 62.8 225.555 64.28 229.555 64.28C233.535 64.28 236.215 62.8 236.215 60.44C236.215 58.1 233.535 56.6 229.555 56.6ZM229.555 58.7C231.895 58.7 233.355 59.3 233.355 60.44C233.355 61.58 231.895 62.16 229.555 62.16C227.215 62.16 225.755 61.58 225.755 60.44C225.755 59.3 227.215 58.7 229.555 58.7ZM245.549 57.2V65.86H254.309V57.2H251.709V59.54H248.189V57.2H245.549ZM248.189 61.56H251.709V63.74H248.189V61.56ZM253.709 60.48V62.62H258.209V60.48H253.709ZM257.609 56.26V66.4H260.269V56.26H257.609ZM247.969 67.18V74.56H260.269V67.18H257.629V68.84H250.609V67.18H247.969ZM250.609 70.88H257.629V72.44H250.609V70.88ZM275.867 56.24V74.82H278.547V56.24H275.867ZM268.567 57.54C265.767 57.54 263.707 60.1 263.707 64.14C263.707 68.22 265.767 70.78 268.567 70.78C271.367 70.78 273.427 68.22 273.427 64.14C273.427 60.1 271.367 57.54 268.567 57.54ZM268.567 59.96C269.947 59.96 270.867 61.42 270.867 64.14C270.867 66.9 269.947 68.38 268.567 68.38C267.187 68.38 266.247 66.9 266.247 64.14C266.247 61.42 267.187 59.96 268.567 59.96ZM294.386 56.26V74.78H297.046V56.26H294.386ZM282.546 58.02V69.52H285.186V58.02H282.546ZM282.546 67.96V70.22H284.186C287.006 70.22 290.066 70.02 293.246 69.36L292.946 67.16C289.886 67.76 286.886 67.96 284.186 67.96H282.546ZM312.024 56.26V74.78H314.684V56.26H312.024ZM313.864 63.5V65.7H317.084V63.5H313.864ZM302.944 58.14V58.46C302.944 63.16 302.444 66.24 299.584 69.4L301.664 70.9C304.944 67.22 305.424 63.28 305.424 58.14H302.944ZM300.404 58.14V60.3H303.984V58.14H300.404ZM308.044 58.14V58.44C308.044 63.5 307.584 67.06 304.784 70.6L306.864 72.08C310.084 68.06 310.524 63.52 310.524 58.14H308.044ZM306.044 58.14V60.3H309.144V58.14H306.044ZM322.063 65.66V70.86H324.703V65.66H322.063ZM328.783 65.66V70.86H331.443V65.66H328.783ZM318.383 70.48V72.64H335.143V70.48H318.383ZM326.743 57.16C322.743 57.16 319.823 59.12 319.823 62.14C319.823 65.16 322.743 67.1 326.743 67.1C330.723 67.1 333.663 65.16 333.663 62.14C333.663 59.12 330.723 57.16 326.743 57.16ZM326.743 59.24C329.322 59.24 331.043 60.3 331.043 62.14C331.043 63.96 329.322 65.04 326.743 65.04C324.163 65.04 322.443 63.96 322.443 62.14C322.443 60.3 324.163 59.24 326.743 59.24Z" fill="black"/>
<path d="M35.254 108.422V121.092H36.43V108.422H35.254ZM36.108 113.56V114.526H38.446V113.56H36.108ZM32.02 109.794V109.976C32.02 113.322 30.27 116.024 26.77 117.802L27.414 118.698C31.502 116.64 33.154 113.392 33.154 109.794H32.02ZM27.358 109.794V110.746H32.622V109.794H27.358ZM48.7769 108.436V115.226H49.9529V108.436H48.7769ZM41.7909 115.856V120.924H49.9529V115.856H48.8049V117.396H42.9389V115.856H41.7909ZM42.9389 118.32H48.8049V119.986H42.9389V118.32ZM43.1629 109.038C41.2449 109.038 39.8589 110.228 39.8589 111.95C39.8589 113.686 41.2449 114.876 43.1629 114.876C45.0809 114.876 46.4529 113.686 46.4529 111.95C46.4529 110.228 45.0809 109.038 43.1629 109.038ZM43.1629 110.004C44.4229 110.004 45.3329 110.802 45.3329 111.95C45.3329 113.098 44.4229 113.896 43.1629 113.896C41.9029 113.896 40.9929 113.098 40.9929 111.95C40.9929 110.802 41.9029 110.004 43.1629 110.004ZM61.0258 108.436V121.092H62.1878V108.436H61.0258ZM61.9078 113.63V114.61H64.2598V113.63H61.9078ZM52.3878 110.452V111.404H59.8498V110.452H52.3878ZM56.1678 112.454C54.3898 112.454 53.0878 113.658 53.0878 115.366C53.0878 117.074 54.3898 118.278 56.1678 118.278C57.9598 118.278 59.2478 117.074 59.2478 115.366C59.2478 113.658 57.9598 112.454 56.1678 112.454ZM56.1678 113.42C57.3158 113.42 58.1418 114.218 58.1418 115.366C58.1418 116.5 57.3158 117.312 56.1678 117.312C55.0198 117.312 54.1938 116.5 54.1938 115.366C54.1938 114.218 55.0198 113.42 56.1678 113.42ZM55.5658 108.59V110.886H56.7278V108.59H55.5658ZM74.5347 108.45V117.718H75.7107V108.45H74.5347ZM67.5767 119.86V120.812H76.0887V119.86H67.5767ZM67.5767 116.864V120.308H68.7247V116.864H67.5767ZM68.6267 109.136V110.424C68.6267 112.384 67.3667 114.232 65.4627 114.974L66.0647 115.912C68.1927 115.044 69.5927 112.888 69.5927 110.424V109.136H68.6267ZM68.8367 109.136V110.424C68.8367 112.832 70.2367 114.862 72.3367 115.674L72.9527 114.736C71.0627 114.05 69.7887 112.328 69.7887 110.424V109.136H68.8367ZM88.9011 111.712V112.678H91.7571V111.712H88.9011ZM91.3931 108.436V115.982H92.5551V108.436H91.3931ZM88.3971 116.36C85.7791 116.36 84.1691 117.242 84.1691 118.726C84.1691 120.224 85.7791 121.078 88.3971 121.078C91.0011 121.078 92.6111 120.224 92.6111 118.726C92.6111 117.242 91.0011 116.36 88.3971 116.36ZM88.3971 117.27C90.3011 117.27 91.4631 117.802 91.4631 118.726C91.4631 119.636 90.3011 120.168 88.3971 120.168C86.4931 120.168 85.3311 119.636 85.3311 118.726C85.3311 117.802 86.4931 117.27 88.3971 117.27ZM85.3731 109.71V110.732C85.3731 112.552 84.0711 114.246 82.1951 114.932L82.7971 115.856C84.8971 115.072 86.3251 113.07 86.3251 110.732V109.71H85.3731ZM85.5971 109.71V110.732C85.5971 112.86 86.9551 114.764 89.0131 115.506L89.6011 114.582C87.7671 113.938 86.5351 112.37 86.5351 110.732V109.71H85.5971ZM82.5451 109.36V110.312H89.3071V109.36H82.5451ZM95.032 118.516V119.482H106.498V118.516H95.032ZM100.156 115.492V118.796H101.318V115.492H100.156ZM96.376 109.332V115.8H105.126V109.332H103.978V111.586H97.524V109.332H96.376ZM97.524 112.524H103.978V114.848H97.524V112.524ZM107.897 114.316V115.198H119.377V114.316H107.897ZM109.255 116.22V117.046H116.801V118.124H109.297V120.406H110.445V118.922H117.935V116.22H109.255ZM109.297 120.098V120.938H118.341V120.098H109.297ZM109.353 108.8V109.626H116.759V110.648H109.381V112.804H110.529V111.432H117.893V108.8H109.353ZM109.381 112.524V113.364H118.131V112.524H109.381ZM133.281 108.436V121.092H134.457V108.436H133.281ZM134.177 113.406V114.4H136.529V113.406H134.177ZM125.217 109.5V118.054H131.125V109.5H129.977V112.846H126.365V109.5H125.217ZM126.365 113.77H129.977V117.102H126.365V113.77ZM146.258 108.436V116.22H147.42V108.436H146.258ZM147.098 111.698V112.678H149.296V111.698H147.098ZM143.402 116.528C140.812 116.528 139.244 117.368 139.244 118.81C139.244 120.252 140.812 121.064 143.402 121.064C145.992 121.064 147.56 120.252 147.56 118.81C147.56 117.368 145.992 116.528 143.402 116.528ZM143.402 117.438C145.292 117.438 146.426 117.942 146.426 118.81C146.426 119.664 145.292 120.168 143.402 120.168C141.526 120.168 140.392 119.664 140.392 118.81C140.392 117.942 141.526 117.438 143.402 117.438ZM138.18 114.428V115.366H139.146C141.722 115.366 143.178 115.31 144.914 115.002L144.788 114.064C143.094 114.372 141.68 114.428 139.146 114.428H138.18ZM138.18 109.318V114.876H139.328V110.27H143.962V109.318H138.18ZM138.964 111.838V112.762H143.724V111.838H138.964ZM156.197 109.234C153.565 109.234 151.591 110.634 151.591 112.734C151.591 114.848 153.565 116.234 156.197 116.234C158.829 116.234 160.789 114.848 160.789 112.734C160.789 110.634 158.829 109.234 156.197 109.234ZM156.197 110.186C158.199 110.186 159.683 111.208 159.683 112.734C159.683 114.246 158.199 115.282 156.197 115.282C154.195 115.282 152.711 114.246 152.711 112.734C152.711 111.208 154.195 110.186 156.197 110.186ZM150.485 118.446V119.426H161.951V118.446H150.485ZM163.364 118.572V119.538H174.83V118.572H163.364ZM168.488 115.856V118.978H169.65V115.856H168.488ZM164.75 109.374V110.312H172.268V112.272H164.792V115.744H165.94V113.21H173.416V109.374H164.75ZM164.792 115.254V116.206H173.71V115.254H164.792ZM184.114 109.818V120H182.881V111.111H182.821L180.336 112.761V111.509L182.881 109.818H184.114ZM187.917 118.697C187.672 118.697 187.462 118.61 187.286 118.434C187.11 118.258 187.022 118.048 187.022 117.803C187.022 117.557 187.11 117.347 187.286 117.171C187.462 116.996 187.672 116.908 187.917 116.908C188.163 116.908 188.373 116.996 188.549 117.171C188.724 117.347 188.812 117.557 188.812 117.803C188.812 117.965 188.771 118.114 188.688 118.25C188.608 118.386 188.501 118.495 188.365 118.578C188.232 118.658 188.083 118.697 187.917 118.697ZM187.917 113.547C187.672 113.547 187.462 113.459 187.286 113.283C187.11 113.108 187.022 112.897 187.022 112.652C187.022 112.407 187.11 112.196 187.286 112.021C187.462 111.845 187.672 111.757 187.917 111.757C188.163 111.757 188.373 111.845 188.549 112.021C188.724 112.196 188.812 112.407 188.812 112.652C188.812 112.814 188.771 112.964 188.688 113.099C188.608 113.235 188.501 113.345 188.365 113.428C188.232 113.507 188.083 113.547 187.917 113.547ZM194.477 109.818V120H193.244V111.111H193.185L190.699 112.761V111.509L193.244 109.818H194.477ZM204.111 110.242V112.3C204.111 114.442 202.585 116.85 200.779 117.732L201.451 118.656C203.425 117.648 205.035 114.932 205.035 112.3V110.242H204.111ZM204.321 110.242V112.3C204.321 114.806 205.847 117.354 207.849 118.348L208.507 117.424C206.673 116.556 205.245 114.302 205.245 112.3V110.242H204.321ZM201.227 109.724V110.704H208.045V109.724H201.227ZM209.543 108.436V121.092H210.719V108.436H209.543ZM210.439 113.546V114.526H212.791V113.546H210.439ZM213.868 114.666V115.618H225.306V114.666H213.868ZM219.006 112.636V115.058H220.154V112.636H219.006ZM215.31 112.272V113.224H223.976V112.272H215.31ZM215.31 109.01V112.832H216.458V109.948H223.878V109.01H215.31ZM219.566 116.528C216.864 116.528 215.226 117.354 215.226 118.796C215.226 120.266 216.864 121.078 219.566 121.078C222.268 121.078 223.906 120.266 223.906 118.796C223.906 117.354 222.268 116.528 219.566 116.528ZM219.566 117.424C221.554 117.424 222.73 117.928 222.73 118.796C222.73 119.678 221.554 120.168 219.566 120.168C217.592 120.168 216.402 119.678 216.402 118.796C216.402 117.928 217.592 117.424 219.566 117.424ZM240.316 108.436V121.092H241.436V108.436H240.316ZM238.314 113.448V114.4H240.736V113.448H238.314ZM237.516 108.702V120.462H238.622V108.702H237.516ZM231.132 109.892V117.704H235.962V109.892H231.132ZM234.87 110.816V116.78H232.224V110.816H234.87ZM246.993 110.522V111.068C246.993 112.79 245.691 114.33 243.801 114.946L244.361 115.842C246.503 115.142 247.945 113.294 247.945 111.068V110.522H246.993ZM247.189 110.522V111.068C247.189 113.182 248.673 114.904 250.829 115.548L251.361 114.624C249.485 114.092 248.141 112.664 248.141 111.068V110.522H247.189ZM244.109 109.99V110.928H250.997V109.99H244.109ZM246.993 108.436V110.396H248.141V108.436H246.993ZM252.761 108.45V116.192H253.937V108.45H252.761ZM249.723 116.458C247.077 116.458 245.481 117.298 245.481 118.754C245.481 120.224 247.077 121.064 249.723 121.064C252.369 121.064 253.979 120.224 253.979 118.754C253.979 117.298 252.369 116.458 249.723 116.458ZM249.723 117.382C251.655 117.382 252.817 117.886 252.817 118.754C252.817 119.65 251.655 120.154 249.723 120.154C247.805 120.154 246.643 119.65 246.643 118.754C246.643 117.886 247.805 117.382 249.723 117.382ZM265.626 108.422V121.106H266.788V108.422H265.626ZM260.11 109.402C258.248 109.402 256.904 111.124 256.904 113.812C256.904 116.514 258.248 118.236 260.11 118.236C261.986 118.236 263.33 116.514 263.33 113.812C263.33 111.124 261.986 109.402 260.11 109.402ZM260.11 110.452C261.356 110.452 262.21 111.768 262.21 113.812C262.21 115.87 261.356 117.214 260.11 117.214C258.878 117.214 258.01 115.87 258.01 113.812C258.01 111.768 258.878 110.452 260.11 110.452ZM276.857 112.72V114.82H278.033V112.72H276.857ZM282.471 108.436V115.73H283.633V108.436H282.471ZM273.469 115.422C275.723 115.422 278.761 115.38 281.519 114.89L281.435 114.064C278.761 114.456 275.611 114.484 273.301 114.484L273.469 115.422ZM274.435 112.132V113.07H280.511V112.132H274.435ZM274.435 109.066V112.496H275.597V110.018H280.399V109.066H274.435ZM275.331 116.29V120.924H283.633V116.29H282.485V117.62H276.493V116.29H275.331ZM276.493 118.53H282.485V119.986H276.493V118.53ZM295.336 108.436V121.092H296.498V108.436H295.336ZM286.936 109.668V117.508H288.084V109.668H286.936ZM286.936 116.822V117.83H287.972C289.974 117.83 291.976 117.676 294.174 117.228L294.034 116.234C291.892 116.682 289.89 116.822 287.972 116.822H286.936ZM307.57 108.422V121.106H308.746V108.422H307.57ZM308.466 113.42V114.4H310.818V113.42H308.466ZM299.548 116.976V117.956H300.542C302.922 117.956 304.588 117.886 306.534 117.522L306.408 116.542C304.518 116.892 302.88 116.976 300.542 116.976H299.548ZM299.548 109.654V117.41H300.696V110.606H305.428V109.654H299.548ZM29.766 126.094V127.382C29.766 129.314 28.534 131.022 26.63 131.722L27.246 132.66C29.36 131.834 30.732 129.818 30.732 127.382V126.094H29.766ZM29.976 126.094V127.466C29.976 129.664 31.362 131.54 33.392 132.296L34.008 131.386C32.188 130.756 30.928 129.174 30.928 127.466V126.094H29.976ZM35.352 125.436V133.108H36.514V125.436H35.352ZM36.192 128.698V129.678H38.39V128.698H36.192ZM32.482 133.458C29.892 133.458 28.324 134.312 28.324 135.768C28.324 137.224 29.892 138.064 32.482 138.064C35.072 138.064 36.64 137.224 36.64 135.768C36.64 134.312 35.072 133.458 32.482 133.458ZM32.482 134.382C34.358 134.382 35.506 134.886 35.506 135.768C35.506 136.65 34.358 137.154 32.482 137.154C30.606 137.154 29.458 136.65 29.458 135.768C29.458 134.886 30.606 134.382 32.482 134.382ZM49.1969 125.436V138.092H50.3169V125.436H49.1969ZM47.0549 130.504V131.47H49.4909V130.504H47.0549ZM46.3269 125.716V137.448H47.4189V125.716H46.3269ZM40.0269 134.004V134.97H40.8529C42.7569 134.97 44.0309 134.914 45.5429 134.592L45.4309 133.626C43.9609 133.934 42.7009 134.004 40.8529 134.004H40.0269ZM40.0269 126.976V134.438H41.1749V127.928H44.7309V126.976H40.0269ZM58.2398 133.374C55.6638 133.374 54.0818 134.242 54.0818 135.726C54.0818 137.21 55.6638 138.078 58.2398 138.078C60.8158 138.078 62.3978 137.21 62.3978 135.726C62.3978 134.242 60.8158 133.374 58.2398 133.374ZM58.2398 134.312C60.1158 134.312 61.2638 134.83 61.2638 135.726C61.2638 136.636 60.1158 137.154 58.2398 137.154C56.3638 137.154 55.2158 136.636 55.2158 135.726C55.2158 134.83 56.3638 134.312 58.2398 134.312ZM61.1098 125.436V133.038H62.2718V125.436H61.1098ZM61.9498 128.614V129.594H64.1478V128.614H61.9498ZM52.9758 126.234V132.072H58.8278V126.234H57.6938V128.124H54.1238V126.234H52.9758ZM54.1238 129.048H57.6938V131.134H54.1238V129.048ZM69.8622 126.514V127.424H80.0402V126.514H69.8622ZM74.9862 127.942C72.3822 127.942 70.8982 128.572 70.8982 129.776C70.8982 130.98 72.3822 131.61 74.9862 131.61C77.5902 131.61 79.0742 130.98 79.0742 129.776C79.0742 128.572 77.5902 127.942 74.9862 127.942ZM74.9862 128.754C76.8482 128.754 77.8842 129.118 77.8842 129.776C77.8842 130.42 76.8482 130.77 74.9862 130.77C73.1242 130.77 72.0882 130.42 72.0882 129.776C72.0882 129.118 73.1242 128.754 74.9862 128.754ZM74.4122 125.24V127.06H75.5602V125.24H74.4122ZM69.2602 132.618V133.556H80.6982V132.618H69.2602ZM74.4122 131.288V133.052H75.5602V131.288H74.4122ZM70.5062 134.564V135.474H78.0382V138.092H79.1862V134.564H70.5062ZM82.1391 132.086V133.038H93.5771V132.086H82.1391ZM83.6231 136.86V137.812H92.3171V136.86H83.6231ZM83.6231 134.144V137.154H84.7851V134.144H83.6231ZM87.8651 125.856C85.1491 125.856 83.4131 126.808 83.4131 128.39C83.4131 129.958 85.1491 130.91 87.8651 130.91C90.5671 130.91 92.3171 129.958 92.3171 128.39C92.3171 126.808 90.5671 125.856 87.8651 125.856ZM87.8651 126.808C89.8531 126.808 91.1271 127.396 91.1271 128.39C91.1271 129.384 89.8531 129.972 87.8651 129.972C85.8771 129.972 84.6031 129.384 84.6031 128.39C84.6031 127.396 85.8771 126.808 87.8651 126.808ZM108.574 125.436V138.092H109.694V125.436H108.574ZM106.446 130.588V131.54H108.882V130.588H106.446ZM105.704 125.716V137.448H106.796V125.716H105.704ZM99.5715 126.962V134.27H100.734V126.962H99.5715ZM99.5715 133.808V134.816H100.384C101.742 134.816 103.198 134.746 104.92 134.41L104.794 133.402C103.142 133.724 101.686 133.808 100.384 133.808H99.5715ZM120.402 125.422V138.092H121.578V125.422H120.402ZM121.256 130.56V131.526H123.594V130.56H121.256ZM117.168 126.794V126.976C117.168 130.322 115.418 133.024 111.918 134.802L112.562 135.698C116.65 133.64 118.302 130.392 118.302 126.794H117.168ZM112.506 126.794V127.746H117.77V126.794H112.506ZM132.011 127.242V129.3C132.011 131.484 130.485 133.864 128.651 134.732L129.323 135.656C131.339 134.662 132.949 131.974 132.949 129.3V127.242H132.011ZM132.235 127.242V129.3C132.235 131.932 133.859 134.396 135.903 135.348L136.561 134.424C134.699 133.626 133.173 131.442 133.173 129.3V127.242H132.235ZM129.071 126.724V127.704H136.141V126.724H129.071ZM137.849 125.436V138.092H139.011V125.436H137.849ZM150.112 125.436V138.092H151.274V125.436H150.112ZM150.994 130.63V131.61H153.346V130.63H150.994ZM141.474 127.452V128.404H148.936V127.452H141.474ZM145.254 129.454C143.476 129.454 142.174 130.658 142.174 132.366C142.174 134.074 143.476 135.278 145.254 135.278C147.046 135.278 148.334 134.074 148.334 132.366C148.334 130.658 147.046 129.454 145.254 129.454ZM145.254 130.42C146.402 130.42 147.228 131.218 147.228 132.366C147.228 133.5 146.402 134.312 145.254 134.312C144.106 134.312 143.28 133.5 143.28 132.366C143.28 131.218 144.106 130.42 145.254 130.42ZM144.652 125.59V127.886H145.814V125.59H144.652ZM157.573 127.382V127.914C157.573 129.412 156.257 130.686 154.381 131.176L154.899 132.086C157.041 131.498 158.525 129.916 158.525 127.914V127.382H157.573ZM157.783 127.382V127.914C157.783 129.818 159.309 131.302 161.465 131.834L161.955 130.938C160.093 130.504 158.735 129.314 158.735 127.914V127.382H157.783ZM154.773 126.682V127.634H161.521V126.682H154.773ZM157.573 125.38V127.214H158.735V125.38H157.573ZM161.157 128.572V129.524H164.405V128.572H161.157ZM163.663 125.436V132.058H164.825V125.436H163.663ZM156.677 132.674V133.598H163.677V134.816H156.705V137.56H157.839V135.684H164.825V132.674H156.677ZM156.705 137.042V137.952H165.287V137.042H156.705ZM173.014 125.646C170.214 125.646 168.562 126.43 168.562 127.844C168.562 129.258 170.214 130.042 173.014 130.042C175.8 130.042 177.466 129.258 177.466 127.844C177.466 126.43 175.8 125.646 173.014 125.646ZM173.014 126.528C175.072 126.528 176.262 127.004 176.262 127.844C176.262 128.684 175.072 129.16 173.014 129.16C170.942 129.16 169.752 128.684 169.752 127.844C169.752 127.004 170.942 126.528 173.014 126.528ZM167.288 130.882V131.82H178.726V130.882H167.288ZM168.674 132.898V133.794H176.122V134.914H168.702V137.294H169.85V135.754H177.27V132.898H168.674ZM168.702 137.042V137.952H177.648V137.042H168.702ZM193.722 125.436V138.092H194.842V125.436H193.722ZM191.594 130.588V131.54H194.03V130.588H191.594ZM190.852 125.716V137.448H191.944V125.716H190.852ZM184.72 126.962V134.27H185.882V126.962H184.72ZM184.72 133.808V134.816H185.532C186.89 134.816 188.346 134.746 190.068 134.41L189.942 133.402C188.29 133.724 186.834 133.808 185.532 133.808H184.72ZM206.209 125.422V138.106H207.371V125.422H206.209ZM197.725 134.088V135.054H198.775C200.945 135.054 202.849 134.97 205.145 134.592L205.019 133.64C202.779 134.004 200.889 134.088 198.775 134.088H197.725ZM197.697 126.612V127.564H202.373V130.182H197.725V134.452H198.887V131.134H203.549V126.612H197.697ZM219.088 125.436V138.092H220.25V125.436H219.088ZM215.378 126.794V126.99C215.378 130.35 213.684 133.038 210.03 134.802L210.646 135.74C214.874 133.668 216.526 130.462 216.526 126.794H215.378ZM210.604 126.794V127.746H215.882V126.794H210.604ZM230.052 126.738V127.746C230.052 129.538 228.764 131.19 226.86 131.862L227.462 132.772C229.59 132.016 231.018 130.07 231.018 127.746V126.738H230.052ZM230.276 126.738V127.746C230.276 129.958 231.732 131.82 233.832 132.534L234.434 131.624C232.558 130.994 231.242 129.454 231.242 127.746V126.738H230.276ZM235.89 125.436V133.094H237.066V125.436H235.89ZM228.61 133.766V134.718H235.89V138.092H237.066V133.766H228.61ZM227.168 126.318V127.256H234.098V126.318H227.168ZM246.277 128.922V129.874H249.469V128.922H246.277ZM248.811 125.45V134.718H249.973V125.45H248.811ZM241.895 136.86V137.812H250.323V136.86H241.895ZM241.895 133.906V137.35H243.057V133.906H241.895ZM242.791 127.018V128.04C242.791 129.832 241.489 131.512 239.599 132.184L240.201 133.108C242.315 132.324 243.743 130.336 243.743 128.04V127.018H242.791ZM243.015 127.018V128.026C243.015 130.168 244.373 132.072 246.431 132.814L247.019 131.904C245.185 131.26 243.953 129.664 243.953 128.026V127.018H243.015ZM239.963 126.472V127.41H246.725V126.472H239.963ZM261.228 125.436V138.092H262.376V125.436H261.228ZM262.012 130.644V131.624H264.266V130.644H262.012ZM255.166 126.794V126.92C255.166 129.79 254.466 132.422 252.38 134.592L253.318 135.25C255.586 132.8 256.23 129.846 256.23 126.794H255.166ZM252.786 126.794V127.76H255.6V126.794H252.786ZM258.61 126.794V126.906C258.61 129.832 258.134 132.968 255.992 135.446L256.93 136.09C259.254 133.332 259.688 129.86 259.688 126.794H258.61ZM256.636 126.794V127.76H259.086V126.794H256.636ZM268.675 127.242V129.3C268.675 131.484 267.149 133.864 265.315 134.732L265.987 135.656C268.003 134.662 269.613 131.974 269.613 129.3V127.242H268.675ZM268.899 127.242V129.3C268.899 131.932 270.523 134.396 272.567 135.348L273.225 134.424C271.363 133.626 269.837 131.442 269.837 129.3V127.242H268.899ZM265.735 126.724V127.704H272.805V126.724H265.735ZM274.513 125.436V138.092H275.675V125.436H274.513ZM278.726 126.57V132.436H284.536V126.57H278.726ZM283.402 127.508V131.498H279.86V127.508H283.402ZM286.86 125.422V134.704H288.022V125.422H286.86ZM287.658 129.286V130.252H289.898V129.286H287.658ZM280.14 136.86V137.812H288.596V136.86H280.14ZM280.14 133.822V137.266H281.302V133.822H280.14ZM29.276 145.67V146.328C29.276 148.386 28.296 150.584 26.574 151.592L27.274 152.474C29.122 151.368 30.172 148.834 30.172 146.328V145.67H29.276ZM29.486 145.67V146.328C29.486 148.764 30.578 151.158 32.44 152.194L33.098 151.326C31.404 150.402 30.382 148.33 30.382 146.328V145.67H29.486ZM26.896 144.788V145.74H32.762V144.788H26.896ZM29.276 142.884V145.502H30.396V142.884H29.276ZM36.374 142.436V155.092H37.48V142.436H36.374ZM34.372 147.532V148.512H36.808V147.532H34.372ZM33.616 142.702V154.462H34.708V142.702H33.616ZM40.3069 148.442V149.38H41.3289C44.0869 149.38 45.6269 149.338 47.4609 149.016L47.3349 148.092C45.5569 148.386 44.0589 148.442 41.3289 148.442H40.3069ZM40.3069 143.36V148.918H41.4549V144.298H46.3269V143.36H40.3069ZM41.0769 145.866V146.79H45.9769V145.866H41.0769ZM48.7769 142.45V150.276H49.9529V142.45H48.7769ZM45.7669 150.458C43.1209 150.458 41.5109 151.298 41.5109 152.754C41.5109 154.224 43.1209 155.064 45.7669 155.064C48.3989 155.064 50.0089 154.224 50.0089 152.754C50.0089 151.298 48.3989 150.458 45.7669 150.458ZM45.7669 151.382C47.6849 151.382 48.8469 151.886 48.8469 152.754C48.8469 153.65 47.6849 154.154 45.7669 154.154C43.8349 154.154 42.6729 153.65 42.6729 152.754C42.6729 151.886 43.8349 151.382 45.7669 151.382ZM61.6418 142.422V155.106H62.8038V142.422H61.6418ZM56.1258 143.402C54.2638 143.402 52.9198 145.124 52.9198 147.812C52.9198 150.514 54.2638 152.236 56.1258 152.236C58.0018 152.236 59.3458 150.514 59.3458 147.812C59.3458 145.124 58.0018 143.402 56.1258 143.402ZM56.1258 144.452C57.3718 144.452 58.2258 145.768 58.2258 147.812C58.2258 149.87 57.3718 151.214 56.1258 151.214C54.8938 151.214 54.0258 149.87 54.0258 147.812C54.0258 145.768 54.8938 144.452 56.1258 144.452ZM77.8282 142.422V155.092H79.0042V142.422H77.8282ZM78.6822 147.56V148.526H81.0202V147.56H78.6822ZM74.5942 143.794V143.976C74.5942 147.322 72.8442 150.024 69.3442 151.802L69.9882 152.698C74.0762 150.64 75.7282 147.392 75.7282 143.794H74.5942ZM69.9322 143.794V144.746H75.1962V143.794H69.9322ZM83.7071 145.95V146.902H92.2891V145.95H83.7071ZM83.7071 142.688V146.37H84.8551V142.688H83.7071ZM82.1531 148.372V149.31H93.5911V148.372H82.1531ZM87.8511 150.444C85.1491 150.444 83.5111 151.27 83.5111 152.754C83.5111 154.21 85.1491 155.05 87.8511 155.05C90.5531 155.05 92.1911 154.21 92.1911 152.754C92.1911 151.27 90.5531 150.444 87.8511 150.444ZM87.8511 151.354C89.8391 151.354 91.0151 151.858 91.0151 152.754C91.0151 153.622 89.8391 154.126 87.8511 154.126C85.8771 154.126 84.6871 153.622 84.6871 152.754C84.6871 151.858 85.8771 151.354 87.8511 151.354ZM103.6 142.436V155.092H104.762V142.436H103.6ZM104.482 147.63V148.61H106.834V147.63H104.482ZM94.962 144.452V145.404H102.424V144.452H94.962ZM98.742 146.454C96.964 146.454 95.662 147.658 95.662 149.366C95.662 151.074 96.964 152.278 98.742 152.278C100.534 152.278 101.822 151.074 101.822 149.366C101.822 147.658 100.534 146.454 98.742 146.454ZM98.742 147.42C99.89 147.42 100.716 148.218 100.716 149.366C100.716 150.5 99.89 151.312 98.742 151.312C97.594 151.312 96.768 150.5 96.768 149.366C96.768 148.218 97.594 147.42 98.742 147.42ZM98.14 142.59V144.886H99.302V142.59H98.14ZM113.035 149.59V152.74H114.197V149.59H113.035ZM113.623 143.262C110.949 143.262 109.017 144.564 109.017 146.58C109.017 148.596 110.949 149.898 113.623 149.898C116.297 149.898 118.215 148.596 118.215 146.58C118.215 144.564 116.297 143.262 113.623 143.262ZM113.623 144.186C115.625 144.186 117.095 145.138 117.095 146.58C117.095 148.022 115.625 148.974 113.623 148.974C111.607 148.974 110.137 148.022 110.137 146.58C110.137 145.138 111.607 144.186 113.623 144.186ZM107.911 152.516V153.482H119.377V152.516H107.911ZM129.988 142.436V155.092H131.15V142.436H129.988ZM121.588 143.668V151.508H122.736V143.668H121.588ZM121.588 150.822V151.83H122.624C124.626 151.83 126.628 151.676 128.826 151.228L128.686 150.234C126.544 150.682 124.542 150.822 122.624 150.822H121.588ZM146.79 142.422V155.106H147.952V142.422H146.79ZM141.274 143.402C139.412 143.402 138.068 145.124 138.068 147.812C138.068 150.514 139.412 152.236 141.274 152.236C143.15 152.236 144.494 150.514 144.494 147.812C144.494 145.124 143.15 143.402 141.274 143.402ZM141.274 144.452C142.52 144.452 143.374 145.768 143.374 147.812C143.374 149.87 142.52 151.214 141.274 151.214C140.042 151.214 139.174 149.87 139.174 147.812C139.174 145.768 140.042 144.452 141.274 144.452ZM150.485 148.666V149.618H161.923V148.666H150.485ZM155.623 146.636V149.058H156.771V146.636H155.623ZM151.927 146.272V147.224H160.593V146.272H151.927ZM151.927 143.01V146.832H153.075V143.948H160.495V143.01H151.927ZM156.183 150.528C153.481 150.528 151.843 151.354 151.843 152.796C151.843 154.266 153.481 155.078 156.183 155.078C158.885 155.078 160.523 154.266 160.523 152.796C160.523 151.354 158.885 150.528 156.183 150.528ZM156.183 151.424C158.171 151.424 159.347 151.928 159.347 152.796C159.347 153.678 158.171 154.168 156.183 154.168C154.209 154.168 153.019 153.678 153.019 152.796C153.019 151.928 154.209 151.424 156.183 151.424ZM171.932 142.436V155.092H173.094V142.436H171.932ZM172.814 147.63V148.61H175.166V147.63H172.814ZM163.294 144.452V145.404H170.756V144.452H163.294ZM167.074 146.454C165.296 146.454 163.994 147.658 163.994 149.366C163.994 151.074 165.296 152.278 167.074 152.278C168.866 152.278 170.154 151.074 170.154 149.366C170.154 147.658 168.866 146.454 167.074 146.454ZM167.074 147.42C168.222 147.42 169.048 148.218 169.048 149.366C169.048 150.5 168.222 151.312 167.074 151.312C165.926 151.312 165.1 150.5 165.1 149.366C165.1 148.218 165.926 147.42 167.074 147.42ZM166.472 142.59V144.886H167.634V142.59H166.472ZM177.783 146.23V147.182H186.379V146.23H177.783ZM176.229 148.876V149.828H187.709V148.876H176.229ZM177.783 142.898V146.706H178.931V142.898H177.783ZM177.699 153.832V154.784H186.449V153.832H177.699ZM177.699 151.088V154.084H178.847V151.088H177.699ZM196.391 143.528V145.796C196.391 148.19 194.865 150.612 192.989 151.508L193.703 152.46C195.775 151.41 197.343 148.708 197.343 145.796V143.528H196.391ZM196.587 143.528V145.796C196.587 148.61 198.169 151.214 200.227 152.222L200.927 151.298C199.051 150.43 197.539 148.106 197.539 145.796V143.528H196.587ZM202.243 142.422V155.106H203.405V142.422H202.243ZM214.59 142.436V151.69H215.752V142.436H214.59ZM215.388 146.272V147.238H217.628V146.272H215.388ZM211.132 143.416V143.92C211.132 146.356 209.13 148.316 205.938 149.296L206.442 150.248C210.068 149.086 212.364 146.692 212.364 143.416H211.132ZM206.456 143.416V144.368H211.72V143.416H206.456ZM207.856 153.86V154.812H216.312V153.86H207.856ZM207.856 150.752V154.238H209.018V150.752H207.856ZM218.817 148.666V149.618H230.255V148.666H218.817ZM223.955 146.636V149.058H225.103V146.636H223.955ZM220.259 146.272V147.224H228.925V146.272H220.259ZM220.259 143.01V146.832H221.407V143.948H228.827V143.01H220.259ZM224.515 150.528C221.813 150.528 220.175 151.354 220.175 152.796C220.175 154.266 221.813 155.078 224.515 155.078C227.217 155.078 228.855 154.266 228.855 152.796C228.855 151.354 227.217 150.528 224.515 150.528ZM224.515 151.424C226.503 151.424 227.679 151.928 227.679 152.796C227.679 153.678 226.503 154.168 224.515 154.168C222.541 154.168 221.351 153.678 221.351 152.796C221.351 151.928 222.541 151.424 224.515 151.424ZM240.348 142.422V151.746H241.51V142.422H240.348ZM241.146 146.272V147.238H243.386V146.272H241.146ZM233.628 153.86V154.812H242.084V153.86H233.628ZM233.628 150.794V154.238H234.79V150.794H233.628ZM235.224 143.318C233.334 143.318 231.92 144.62 231.92 146.44C231.92 148.274 233.334 149.562 235.224 149.562C237.114 149.562 238.528 148.274 238.528 146.44C238.528 144.62 237.114 143.318 235.224 143.318ZM235.224 144.34C236.456 144.34 237.394 145.208 237.394 146.44C237.394 147.686 236.456 148.54 235.224 148.54C233.992 148.54 233.054 147.686 233.054 146.44C233.054 145.208 233.992 144.34 235.224 144.34ZM251.439 150.262V155.092H252.629V150.262H251.439ZM255.793 150.262V155.092H256.983V150.262H255.793ZM248.499 149.632V150.598H259.979V149.632H248.499ZM254.211 142.94C251.579 142.94 249.787 144.004 249.787 145.698C249.787 147.378 251.579 148.456 254.211 148.456C256.857 148.456 258.635 147.378 258.635 145.698C258.635 144.004 256.857 142.94 254.211 142.94ZM254.211 143.878C256.143 143.878 257.445 144.592 257.445 145.698C257.445 146.804 256.143 147.518 254.211 147.518C252.279 147.518 250.963 146.804 250.963 145.698C250.963 144.592 252.279 143.878 254.211 143.878ZM263.309 150.654V151.592H270.589V155.092H271.765V150.654H263.309ZM270.589 142.436V149.954H271.765V142.436H270.589ZM264.975 143.178C263.057 143.178 261.671 144.41 261.671 146.188C261.671 147.952 263.057 149.17 264.975 149.17C266.879 149.17 268.265 147.952 268.265 146.188C268.265 144.41 266.879 143.178 264.975 143.178ZM264.975 144.172C266.235 144.172 267.145 144.984 267.145 146.188C267.145 147.378 266.235 148.204 264.975 148.204C263.715 148.204 262.805 147.378 262.805 146.188C262.805 144.984 263.715 144.172 264.975 144.172ZM282.838 142.436V155.092H284V142.436H282.838ZM283.72 147.63V148.61H286.072V147.63H283.72ZM274.2 144.452V145.404H281.662V144.452H274.2ZM277.98 146.454C276.202 146.454 274.9 147.658 274.9 149.366C274.9 151.074 276.202 152.278 277.98 152.278C279.772 152.278 281.06 151.074 281.06 149.366C281.06 147.658 279.772 146.454 277.98 146.454ZM277.98 147.42C279.128 147.42 279.954 148.218 279.954 149.366C279.954 150.5 279.128 151.312 277.98 151.312C276.832 151.312 276.006 150.5 276.006 149.366C276.006 148.218 276.832 147.42 277.98 147.42ZM277.378 142.59V144.886H278.54V142.59H277.378ZM288.353 143.696V144.662H296.501V143.696H288.353ZM287.149 152.362V153.328H298.587V152.362H287.149ZM291.587 147.84V152.838H292.749V147.84H291.587ZM296.067 143.696V144.956C296.067 146.468 296.067 148.246 295.591 150.668L296.753 150.822C297.215 148.26 297.215 146.524 297.215 144.956V143.696H296.067ZM36.374 159.436V172.092H37.48V159.436H36.374ZM34.372 164.532V165.512H36.808V164.532H34.372ZM33.616 159.702V171.462H34.708V159.702H33.616ZM29.304 161.396V162.852C29.304 165.428 28.38 167.584 26.56 168.592L27.274 169.488C29.22 168.326 30.214 165.89 30.214 162.852V161.396H29.304ZM29.514 161.396V162.852C29.514 165.638 30.522 167.976 32.454 169.04L33.14 168.144C31.362 167.234 30.424 165.176 30.424 162.852V161.396H29.514ZM26.854 160.92V161.886H32.734V160.92H26.854ZM40.2929 160.668V168.914H46.1169V160.668H40.2929ZM44.9829 161.606V167.976H41.4269V161.606H44.9829ZM48.7629 159.422V172.106H49.9249V159.422H48.7629ZM55.6078 167.22V167.906C55.6078 169.124 54.6558 170.482 53.0598 171.056L53.6478 171.924C55.4678 171.224 56.5038 169.558 56.5038 167.906V167.22H55.6078ZM55.8598 167.22V167.906C55.8598 169.586 56.6858 171.322 58.5058 172.036L58.9958 171.154C57.4838 170.538 56.7278 169.18 56.7278 167.906V167.22H55.8598ZM60.2838 167.22V167.906C60.2838 168.998 59.5138 170.468 58.0158 171.154L58.5058 172.036C60.3118 171.266 61.1518 169.39 61.1518 167.906V167.22H60.2838ZM60.5218 167.22V167.906C60.5218 169.656 61.5298 171.252 63.3778 171.924L63.9658 171.056C62.3558 170.51 61.4178 169.208 61.4178 167.906V167.22H60.5218ZM61.6558 159.45V166.674H62.8318V159.45H61.6558ZM56.0418 160.178C54.1238 160.178 52.7378 161.382 52.7378 163.132C52.7378 164.882 54.1238 166.072 56.0418 166.072C57.9598 166.072 59.3318 164.882 59.3318 163.132C59.3318 161.382 57.9598 160.178 56.0418 160.178ZM56.0418 161.144C57.3018 161.144 58.2118 161.956 58.2118 163.132C58.2118 164.308 57.3018 165.106 56.0418 165.106C54.7818 165.106 53.8718 164.308 53.8718 163.132C53.8718 161.956 54.7818 161.144 56.0418 161.144ZM74.9687 159.436V172.092H76.0887V159.436H74.9687ZM69.4807 164.602V165.54H72.6727V164.602H69.4807ZM72.3367 159.758V171.448H73.4287V159.758H72.3367ZM69.6347 161.032V161.242C69.6347 164.224 68.3047 166.744 65.3227 168.536L66.0087 169.362C69.4247 167.332 70.7547 164.35 70.7547 161.032H69.6347ZM65.8827 161.032V161.984H70.0687V161.032H65.8827ZM82.1531 169.516V170.482H93.6191V169.516H82.1531ZM87.2771 166.492V169.796H88.4391V166.492H87.2771ZM83.4971 160.332V166.8H92.2471V160.332H91.0991V162.586H84.6451V160.332H83.4971ZM84.6451 163.524H91.0991V165.848H84.6451V163.524ZM104.636 159.436V172.092H105.756V159.436H104.636ZM102.508 164.588V165.54H104.944V164.588H102.508ZM101.766 159.716V171.448H102.858V159.716H101.766ZM95.634 160.962V168.27H96.796V160.962H95.634ZM95.634 167.808V168.816H96.446C97.804 168.816 99.26 168.746 100.982 168.41L100.856 167.402C99.204 167.724 97.748 167.808 96.446 167.808H95.634ZM111.243 160.528V162.796C111.243 165.19 109.717 167.612 107.841 168.508L108.555 169.46C110.627 168.41 112.195 165.708 112.195 162.796V160.528H111.243ZM111.439 160.528V162.796C111.439 165.61 113.021 168.214 115.079 169.222L115.779 168.298C113.903 167.43 112.391 165.106 112.391 162.796V160.528H111.439ZM117.095 159.422V172.106H118.257V159.422H117.095ZM129.988 159.436V165.89H131.164V159.436H129.988ZM126.124 160.052V160.64C126.124 162.838 124.332 164.476 121 165.204L121.42 166.156C125.144 165.288 127.398 163.286 127.398 160.052H126.124ZM121.63 160.052V161.004H126.908V160.052H121.63ZM122.974 166.506V167.43H130.002V168.718H123.002V171.504H124.15V169.586H131.164V166.506H122.974ZM123.002 171.042V171.966H131.584V171.042H123.002ZM146.16 159.436V172.092H147.336V159.436H146.16ZM147.056 164.406V165.4H149.408V164.406H147.056ZM138.096 160.5V169.054H144.004V160.5H142.856V163.846H139.244V160.5H138.096ZM139.244 164.77H142.856V168.102H139.244V164.77ZM159.053 159.422V172.106H160.215V159.422H159.053ZM159.935 164.462V165.442H162.287V164.462H159.935ZM150.989 168.088V169.054H151.997C154.419 169.054 156.099 168.956 158.073 168.606L157.947 167.64C156.029 168.004 154.377 168.088 151.997 168.088H150.989ZM150.961 160.612V161.564H155.539V164.196H150.989V168.48H152.137V165.148H156.687V160.612H150.961ZM167.746 160.36V160.738C167.746 163.132 166.262 164.994 163.476 166.142L164.064 166.996C167.228 165.652 168.908 163.384 168.908 160.36H167.746ZM164.022 160.36V161.326H168.194V160.36H164.022ZM172.912 159.436V166.744H174.018V159.436H172.912ZM167.606 163.034V163.972H170.658V163.034H167.606ZM170.406 159.702V166.548H171.498V159.702H170.406ZM166.64 167.178V168.004C166.64 169.236 165.674 170.608 164.092 171.182L164.666 172.05C166.486 171.35 167.536 169.67 167.536 168.004V167.178H166.64ZM166.892 167.178V168.004C166.892 169.698 167.704 171.434 169.538 172.162L170.028 171.294C168.502 170.65 167.76 169.292 167.76 168.004V167.178H166.892ZM171.288 167.178V168.004C171.288 169.096 170.546 170.594 169.02 171.294L169.538 172.162C171.33 171.392 172.156 169.502 172.156 168.004V167.178H171.288ZM171.526 167.178V168.004C171.526 169.768 172.562 171.378 174.396 172.05L174.97 171.182C173.374 170.65 172.422 169.334 172.422 168.004V167.178H171.526ZM177.685 167.024V171.924H186.183V167.024H185.021V168.494H178.833V167.024H177.685ZM178.833 169.39H185.021V170.986H178.833V169.39ZM176.229 165.204V166.142H187.667V165.204H176.229ZM181.367 159.576V160.136C181.367 161.732 179.169 163.09 176.887 163.398L177.307 164.308C179.911 163.916 182.361 162.334 182.361 160.136V159.576H181.367ZM181.549 159.576V160.136C181.549 162.306 184.013 163.916 186.589 164.308L187.023 163.398C184.769 163.09 182.543 161.704 182.543 160.136V159.576H181.549ZM198.32 159.436V172.092H199.482V159.436H198.32ZM189.92 160.668V168.508H191.068V160.668H189.92ZM189.92 167.822V168.83H190.956C192.958 168.83 194.96 168.676 197.158 168.228L197.018 167.234C194.876 167.682 192.874 167.822 190.956 167.822H189.92ZM210.555 159.422V172.106H211.731V159.422H210.555ZM211.451 164.42V165.4H213.803V164.42H211.451ZM202.533 167.976V168.956H203.527C205.907 168.956 207.573 168.886 209.519 168.522L209.393 167.542C207.503 167.892 205.865 167.976 203.527 167.976H202.533ZM202.533 160.654V168.41H203.681V161.606H208.413V160.654H202.533ZM30.046 195.242V197.3C30.046 199.484 28.52 201.864 26.686 202.732L27.358 203.656C29.374 202.662 30.984 199.974 30.984 197.3V195.242H30.046ZM30.27 195.242V197.3C30.27 199.932 31.894 202.396 33.938 203.348L34.596 202.424C32.734 201.626 31.208 199.442 31.208 197.3V195.242H30.27ZM27.106 194.724V195.704H34.176V194.724H27.106ZM35.884 193.436V206.092H37.046V193.436H35.884ZM48.1469 193.436V206.092H49.3089V193.436H48.1469ZM49.0289 198.63V199.61H51.3809V198.63H49.0289ZM39.5089 195.452V196.404H46.9709V195.452H39.5089ZM43.2889 197.454C41.5109 197.454 40.2089 198.658 40.2089 200.366C40.2089 202.074 41.5109 203.278 43.2889 203.278C45.0809 203.278 46.3689 202.074 46.3689 200.366C46.3689 198.658 45.0809 197.454 43.2889 197.454ZM43.2889 198.42C44.4369 198.42 45.2629 199.218 45.2629 200.366C45.2629 201.5 44.4369 202.312 43.2889 202.312C42.1409 202.312 41.3149 201.5 41.3149 200.366C41.3149 199.218 42.1409 198.42 43.2889 198.42ZM42.6869 193.59V195.886H43.8489V193.59H42.6869ZM55.6078 195.382V195.914C55.6078 197.412 54.2918 198.686 52.4158 199.176L52.9338 200.086C55.0758 199.498 56.5598 197.916 56.5598 195.914V195.382H55.6078ZM55.8178 195.382V195.914C55.8178 197.818 57.3438 199.302 59.4998 199.834L59.9898 198.938C58.1278 198.504 56.7698 197.314 56.7698 195.914V195.382H55.8178ZM52.8078 194.682V195.634H59.5558V194.682H52.8078ZM55.6078 193.38V195.214H56.7698V193.38H55.6078ZM59.1918 196.572V197.524H62.4398V196.572H59.1918ZM61.6978 193.436V200.058H62.8598V193.436H61.6978ZM54.7118 200.674V201.598H61.7118V202.816H54.7398V205.56H55.8738V203.684H62.8598V200.674H54.7118ZM54.7398 205.042V205.952H63.3218V205.042H54.7398ZM71.0487 193.646C68.2487 193.646 66.5967 194.43 66.5967 195.844C66.5967 197.258 68.2487 198.042 71.0487 198.042C73.8347 198.042 75.5007 197.258 75.5007 195.844C75.5007 194.43 73.8347 193.646 71.0487 193.646ZM71.0487 194.528C73.1067 194.528 74.2967 195.004 74.2967 195.844C74.2967 196.684 73.1067 197.16 71.0487 197.16C68.9767 197.16 67.7867 196.684 67.7867 195.844C67.7867 195.004 68.9767 194.528 71.0487 194.528ZM65.3227 198.882V199.82H76.7607V198.882H65.3227ZM66.7087 200.898V201.794H74.1567V202.914H66.7367V205.294H67.8847V203.754H75.3047V200.898H66.7087ZM66.7367 205.042V205.952H75.6827V205.042H66.7367ZM91.7571 193.436V206.092H92.8771V193.436H91.7571ZM89.6291 198.588V199.54H92.0651V198.588H89.6291ZM88.8871 193.716V205.448H89.9791V193.716H88.8871ZM82.7551 194.962V202.27H83.9171V194.962H82.7551ZM82.7551 201.808V202.816H83.5671C84.9251 202.816 86.3811 202.746 88.1031 202.41L87.9771 201.402C86.3251 201.724 84.8691 201.808 83.5671 201.808H82.7551ZM104.244 193.422V206.106H105.406V193.422H104.244ZM95.76 202.088V203.054H96.81C98.98 203.054 100.884 202.97 103.18 202.592L103.054 201.64C100.814 202.004 98.924 202.088 96.81 202.088H95.76ZM95.732 194.612V195.564H100.408V198.182H95.76V202.452H96.922V199.134H101.584V194.612H95.732ZM109.451 197.23V198.182H118.047V197.23H109.451ZM107.897 199.876V200.828H119.377V199.876H107.897ZM109.451 193.898V197.706H110.599V193.898H109.451ZM109.367 204.832V205.784H118.117V204.832H109.367ZM109.367 202.088V205.084H110.515V202.088H109.367ZM129.851 193.758V194.374C129.851 196.068 127.639 197.552 125.399 197.888L125.861 198.812C128.423 198.364 130.845 196.67 130.845 194.374V193.758H129.851ZM130.033 193.758V194.374C130.033 196.614 132.469 198.35 135.031 198.784L135.465 197.874C133.267 197.538 131.027 196.026 131.027 194.374V193.758H130.033ZM124.713 199.876V200.828H136.179V199.876H124.713ZM129.949 200.464V203.376H131.111V200.464H129.949ZM126.169 204.86V205.812H134.905V204.86H126.169ZM126.169 202.158V205.168H127.317V202.158H126.169ZM146.258 193.436V202.69H147.42V193.436H146.258ZM147.056 197.272V198.238H149.296V197.272H147.056ZM142.8 194.416V194.92C142.8 197.356 140.798 199.316 137.606 200.296L138.11 201.248C141.736 200.086 144.032 197.692 144.032 194.416H142.8ZM138.124 194.416V195.368H143.388V194.416H138.124ZM139.524 204.86V205.812H147.98V204.86H139.524ZM139.524 201.752V205.238H140.686V201.752H139.524ZM156.999 196.67V197.328C156.999 199.386 156.019 201.584 154.297 202.592L154.997 203.474C156.845 202.368 157.895 199.834 157.895 197.328V196.67H156.999ZM157.209 196.67V197.328C157.209 199.764 158.301 202.158 160.163 203.194L160.821 202.326C159.127 201.402 158.105 199.33 158.105 197.328V196.67H157.209ZM154.619 195.788V196.74H160.485V195.788H154.619ZM156.999 193.884V196.502H158.119V193.884H156.999ZM164.097 193.436V206.092H165.203V193.436H164.097ZM162.095 198.532V199.512H164.531V198.532H162.095ZM161.339 193.702V205.462H162.431V193.702H161.339ZM168.03 199.442V200.38H169.052C171.81 200.38 173.35 200.338 175.184 200.016L175.058 199.092C173.28 199.386 171.782 199.442 169.052 199.442H168.03ZM168.03 194.36V199.918H169.178V195.298H174.05V194.36H168.03ZM168.8 196.866V197.79H173.7V196.866H168.8ZM176.5 193.45V201.276H177.676V193.45H176.5ZM173.49 201.458C170.844 201.458 169.234 202.298 169.234 203.754C169.234 205.224 170.844 206.064 173.49 206.064C176.122 206.064 177.732 205.224 177.732 203.754C177.732 202.298 176.122 201.458 173.49 201.458ZM173.49 202.382C175.408 202.382 176.57 202.886 176.57 203.754C176.57 204.65 175.408 205.154 173.49 205.154C171.558 205.154 170.396 204.65 170.396 203.754C170.396 202.886 171.558 202.382 173.49 202.382ZM189.392 193.436V206.092H190.554V193.436H189.392ZM185.682 194.794V194.99C185.682 198.35 183.988 201.038 180.334 202.802L180.95 203.74C185.178 201.668 186.83 198.462 186.83 194.794H185.682ZM180.908 194.794V195.746H186.186V194.794H180.908ZM193.045 200.394V201.346H204.525V200.394H193.045ZM194.501 193.758V194.668H201.907V195.97H194.529V198.532H195.677V196.824H203.041V193.758H194.501ZM194.529 198.154V199.064H203.321V198.154H194.529ZM198.197 198.63V200.87H199.359V198.63H198.197ZM194.319 202.312V203.264H201.963V205.98H203.125V202.312H194.319ZM205.924 200.086V201.038H217.362V200.086H205.924ZM207.408 204.86V205.812H216.102V204.86H207.408ZM207.408 202.144V205.154H208.57V202.144H207.408ZM211.65 193.856C208.934 193.856 207.198 194.808 207.198 196.39C207.198 197.958 208.934 198.91 211.65 198.91C214.352 198.91 216.102 197.958 216.102 196.39C216.102 194.808 214.352 193.856 211.65 193.856ZM211.65 194.808C213.638 194.808 214.912 195.396 214.912 196.39C214.912 197.384 213.638 197.972 211.65 197.972C209.662 197.972 208.388 197.384 208.388 196.39C208.388 195.396 209.662 194.808 211.65 194.808ZM225.877 195.242V197.3C225.877 199.442 224.351 201.85 222.545 202.732L223.217 203.656C225.191 202.648 226.801 199.932 226.801 197.3V195.242H225.877ZM226.087 195.242V197.3C226.087 199.806 227.613 202.354 229.615 203.348L230.273 202.424C228.439 201.556 227.011 199.302 227.011 197.3V195.242H226.087ZM222.993 194.724V195.704H229.811V194.724H222.993ZM231.309 193.436V206.092H232.485V193.436H231.309ZM232.205 198.546V199.526H234.557V198.546H232.205ZM235.634 199.666V200.618H247.072V199.666H235.634ZM240.772 197.636V200.058H241.92V197.636H240.772ZM237.076 197.272V198.224H245.742V197.272H237.076ZM237.076 194.01V197.832H238.224V194.948H245.644V194.01H237.076ZM241.332 201.528C238.63 201.528 236.992 202.354 236.992 203.796C236.992 205.266 238.63 206.078 241.332 206.078C244.034 206.078 245.672 205.266 245.672 203.796C245.672 202.354 244.034 201.528 241.332 201.528ZM241.332 202.424C243.32 202.424 244.496 202.928 244.496 203.796C244.496 204.678 243.32 205.168 241.332 205.168C239.358 205.168 238.168 204.678 238.168 203.796C238.168 202.928 239.358 202.424 241.332 202.424ZM255.558 194.08V195.382C255.558 197.272 254.312 198.938 252.408 199.624L253.01 200.562C255.138 199.75 256.51 197.776 256.51 195.382V194.08H255.558ZM255.768 194.08V195.466C255.768 197.664 257.14 199.554 259.198 200.31L259.786 199.386C257.966 198.756 256.706 197.174 256.706 195.466V194.08H255.768ZM261.102 193.436V201.094H262.264V193.436H261.102ZM261.942 196.768V197.748H264.14V196.768H261.942ZM254.046 201.724V202.69H261.102V206.092H262.264V201.724H254.046ZM274.947 193.436V206.092H276.067V193.436H274.947ZM270.341 197.972V198.938H272.763V197.972H270.341ZM272.413 193.73V205.448H273.505V193.73H272.413ZM267.905 195.396V197.006C267.905 199.33 266.925 201.64 265.161 202.704L265.875 203.572C267.737 202.396 268.801 199.778 268.801 197.006V195.396H267.905ZM268.143 195.396V197.006C268.143 199.652 269.165 202.144 271.013 203.264L271.727 202.41C269.991 201.402 269.039 199.204 269.039 197.006V195.396H268.143ZM265.511 194.906V195.872H271.293V194.906H265.511ZM281.834 197.79V200.002H282.996V197.79H281.834ZM287.434 193.436V201.122H288.582V193.436H287.434ZM278.432 200.604C280.7 200.59 283.738 200.562 286.496 200.1L286.426 199.274C283.738 199.652 280.602 199.666 278.278 199.666L278.432 200.604ZM280.308 201.752V205.924H288.582V201.752H280.308ZM287.462 202.69V204.986H281.442V202.69H287.462ZM279.398 197.188V198.126H285.586V197.188H279.398ZM279.398 194.136V197.622H280.56V195.088H285.488V194.136H279.398ZM296.799 193.646C293.999 193.646 292.347 194.43 292.347 195.844C292.347 197.258 293.999 198.042 296.799 198.042C299.585 198.042 301.251 197.258 301.251 195.844C301.251 194.43 299.585 193.646 296.799 193.646ZM296.799 194.528C298.857 194.528 300.047 195.004 300.047 195.844C300.047 196.684 298.857 197.16 296.799 197.16C294.727 197.16 293.537 196.684 293.537 195.844C293.537 195.004 294.727 194.528 296.799 194.528ZM291.073 198.882V199.82H302.511V198.882H291.073ZM292.459 200.898V201.794H299.907V202.914H292.487V205.294H293.635V203.754H301.055V200.898H292.459ZM292.487 205.042V205.952H301.433V205.042H292.487ZM35.352 210.436V216.876H36.514V210.436H35.352ZM36.01 213.152V214.118H38.376V213.152H36.01ZM28.478 217.478V218.402H35.38V219.704H28.506V222.476H29.654V220.586H36.514V217.478H28.478ZM28.506 221.986V222.924H36.976V221.986H28.506ZM30.186 210.884C28.31 210.884 26.924 212.046 26.924 213.698C26.924 215.364 28.31 216.526 30.186 216.526C32.09 216.526 33.462 215.364 33.462 213.698C33.462 212.046 32.09 210.884 30.186 210.884ZM30.186 211.836C31.432 211.836 32.342 212.606 32.342 213.698C32.342 214.804 31.432 215.574 30.186 215.574C28.968 215.574 28.058 214.804 28.058 213.698C28.058 212.606 28.968 211.836 30.186 211.836ZM48.8189 210.422V223.106H49.9809V210.422H48.8189ZM46.3269 213.32V214.272H49.1269V213.32H46.3269ZM40.0409 219.186V220.166H40.9789C42.9809 220.166 44.6049 220.096 46.5929 219.788L46.4809 218.822C44.5489 219.13 42.9389 219.186 40.9789 219.186H40.0409ZM40.0129 211.57V212.536H44.3949V215.154H40.0409V219.41H41.1889V216.106H45.5429V211.57H40.0129ZM46.2429 216.778V217.73H49.0429V216.778H46.2429ZM53.8998 216.498V217.45H62.5938V216.498H53.8998ZM52.4578 220.418V221.384H63.9238V220.418H52.4578ZM53.8998 211.598V216.918H55.0618V212.564H62.4678V211.598H53.8998ZM74.5347 210.436V217.394H75.7107V210.436H74.5347ZM65.9807 216.176V217.128H67.0027C69.3547 217.128 71.0627 217.058 73.1487 216.736L73.0227 215.77C70.9927 216.106 69.2987 216.176 67.0027 216.176H65.9807ZM65.9527 211.052V211.99H70.5587V213.572H65.9807V216.806H67.1147V214.482H71.6927V211.052H65.9527ZM67.5207 218.024V222.924H75.7107V218.024H74.5627V219.508H68.6687V218.024H67.5207ZM68.6687 220.432H74.5627V221.972H68.6687V220.432ZM87.4136 210.436V223.092H88.5756V210.436H87.4136ZM79.0136 211.668V219.508H80.1616V211.668H79.0136ZM79.0136 218.822V219.83H80.0496C82.0516 219.83 84.0536 219.676 86.2516 219.228L86.1116 218.234C83.9696 218.682 81.9676 218.822 80.0496 218.822H79.0136ZM99.6485 210.422V223.106H100.825V210.422H99.6485ZM100.545 215.42V216.4H102.897V215.42H100.545ZM91.6265 218.976V219.956H92.6205C95.0005 219.956 96.6665 219.886 98.6125 219.522L98.4865 218.542C96.5965 218.892 94.9585 218.976 92.6205 218.976H91.6265ZM91.6265 211.654V219.41H92.7745V212.606H97.5065V211.654H91.6265ZM105.202 222.08C104.957 222.08 104.747 221.992 104.571 221.816C104.395 221.64 104.308 221.43 104.308 221.185C104.308 220.939 104.395 220.729 104.571 220.553C104.747 220.378 104.957 220.29 105.202 220.29C105.448 220.29 105.658 220.378 105.834 220.553C106.009 220.729 106.097 220.939 106.097 221.185C106.097 221.347 106.056 221.496 105.973 221.632C105.893 221.768 105.786 221.877 105.65 221.96C105.517 222.04 105.368 222.08 105.202 222.08Z" fill="black"/>
<defs>
<filter id="filter0_d_0_1" x="0" y="0" width="373" height="560" filterUnits="userSpaceOnUse" color-interpolation-filters="sRGB">
<feFlood flood-opacity="0" result="BackgroundImageFix"/>
<feColorMatrix in="SourceAlpha" type="matrix" values="0 0 0 0 0 0 0 0 0 0 0 0 0 0 0 0 0 0 127 0" result="hardAlpha"/>
<feOffset dx="10" dy="15"/>
<feGaussianBlur stdDeviation="7.5"/>
<feComposite in2="hardAlpha" operator="out"/>
<feColorMatrix type="matrix" values="0 0 0 0 0 0 0 0 0 0 0 0 0 0 0 0 0 0 0.25 0"/>
<feBlend mode="normal" in2="BackgroundImageFix" result="effect1_dropShadow_0_1"/>
<feBlend mode="normal" in="SourceGraphic" in2="effect1_dropShadow_0_1" result="shape"/>
</filter>
</defs>
</svg>
