<svg width="74" height="30" viewBox="0 0 74 30" fill="none" xmlns="http://www.w3.org/2000/svg">
<rect width="74" height="30" rx="15" fill="#C3F4FF"/>
<path d="M20.898 8.45V17.69H22.074V8.45H20.898ZM13.94 19.86V20.812H22.452V19.86H13.94ZM13.94 16.738V20.182H15.088V16.738H13.94ZM15.284 9.318C13.394 9.318 11.98 10.606 11.98 12.44C11.98 14.26 13.394 15.562 15.284 15.562C17.174 15.562 18.574 14.26 18.574 12.44C18.574 10.606 17.174 9.318 15.284 9.318ZM15.284 10.326C16.516 10.326 17.454 11.194 17.454 12.44C17.454 13.672 16.516 14.54 15.284 14.54C14.052 14.54 13.114 13.672 13.114 12.44C13.114 11.194 14.052 10.326 15.284 10.326ZM24.5649 14.456V15.394H36.0029V14.456H24.5649ZM30.2769 16.486C27.5749 16.486 25.9369 17.326 25.9369 18.782C25.9369 20.238 27.5749 21.064 30.2769 21.064C32.9789 21.064 34.6169 20.238 34.6169 18.782C34.6169 17.326 32.9789 16.486 30.2769 16.486ZM30.2769 17.41C32.2649 17.41 33.4409 17.9 33.4409 18.782C33.4409 19.65 32.2649 20.154 30.2769 20.154C28.3029 20.154 27.1129 19.65 27.1129 18.782C27.1129 17.9 28.3029 17.41 30.2769 17.41ZM29.5349 9.584V9.962C29.5349 11.39 27.4769 12.524 25.2089 12.776L25.6289 13.686C28.2469 13.378 30.5709 11.992 30.5709 9.962V9.584H29.5349ZM30.0249 9.584V9.962C30.0249 11.992 32.3349 13.378 34.9529 13.686L35.3729 12.776C33.1049 12.524 31.0469 11.39 31.0469 9.962V9.584H30.0249ZM25.6149 9.08V10.018H34.9809V9.08H25.6149ZM40.2578 14.946V18.74H41.4058V14.946H40.2578ZM44.9338 14.946V18.74H46.0958V14.946H44.9338ZM37.4578 18.516V19.482H48.9238V18.516H37.4578ZM43.1698 9.234C40.4818 9.234 38.5638 10.508 38.5638 12.496C38.5638 14.47 40.4818 15.744 43.1698 15.744C45.8438 15.744 47.7618 14.47 47.7618 12.496C47.7618 10.508 45.8438 9.234 43.1698 9.234ZM43.1698 10.158C45.1998 10.158 46.6418 11.082 46.6418 12.496C46.6418 13.896 45.1998 14.82 43.1698 14.82C41.1398 14.82 39.6838 13.896 39.6838 12.496C39.6838 11.082 41.1398 10.158 43.1698 10.158ZM53.4867 10.592V11.138C53.4867 12.846 52.2267 14.386 50.3647 14.988L50.9247 15.898C53.0387 15.184 54.4387 13.336 54.4387 11.138V10.592H53.4867ZM53.6967 10.592V11.138C53.6967 13.21 55.1527 14.918 57.2807 15.576L57.8127 14.666C55.9507 14.12 54.6487 12.706 54.6487 11.138V10.592H53.6967ZM50.6867 9.962V10.9H57.4347V9.962H50.6867ZM53.4867 8.38V10.298H54.6487V8.38H53.4867ZM57.0567 12.034V13H59.9127V12.034H57.0567ZM59.5767 8.436V16.094H60.7387V8.436H59.5767ZM56.5807 16.43C53.9487 16.43 52.3527 17.284 52.3527 18.754C52.3527 20.21 53.9487 21.064 56.5807 21.064C59.1987 21.064 60.7947 20.21 60.7947 18.754C60.7947 17.284 59.1987 16.43 56.5807 16.43ZM56.5807 17.34C58.4847 17.34 59.6467 17.858 59.6467 18.754C59.6467 19.636 58.4847 20.154 56.5807 20.154C54.6627 20.154 53.5147 19.636 53.5147 18.754C53.5147 17.858 54.6627 17.34 56.5807 17.34Z" fill="black"/>
</svg>
