<svg width="343" height="50" viewBox="0 0 343 50" fill="none" xmlns="http://www.w3.org/2000/svg">
<rect width="343" height="50" rx="4" fill="#FAE100"/>
<g clip-path="url(#clip0_50_929)">
<path d="M116.001 12.5C108.543 12.5 102.5 17.3142 102.5 23.256C102.5 27.1217 105.061 30.5131 108.905 32.4074C108.623 33.4689 107.881 36.2565 107.734 36.852C107.55 37.591 108.002 37.5827 108.297 37.3842C108.53 37.227 111.996 34.8503 113.493 33.8273C114.305 33.9487 115.142 34.0121 115.999 34.0121C123.454 34.0121 129.5 29.1979 129.5 23.256C129.5 17.3142 123.457 12.5 116.001 12.5Z" fill="#371D1E"/>
<path d="M106.582 21.2763H107.972C107.972 21.2763 107.98 25.1227 107.972 26.0188C107.974 26.6723 109.416 26.6805 109.416 26.0271L109.422 21.326C109.422 21.326 109.887 21.3287 110.803 21.3287C111.668 21.3287 111.668 19.9611 110.803 19.9584C109.829 19.9584 106.576 19.9308 106.576 19.9308C105.764 19.9335 105.767 21.2763 106.582 21.2763Z" fill="#FAE100"/>
<mask id="mask0_50_929" style="mask-type:luminance" maskUnits="userSpaceOnUse" x="105" y="19" width="7" height="8">
<path d="M106.582 21.2763H107.972C107.972 21.2763 107.98 25.1227 107.972 26.0188C107.974 26.6723 109.416 26.6805 109.416 26.0271L109.422 21.326C109.422 21.326 109.887 21.3287 110.803 21.3287C111.668 21.3287 111.668 19.9611 110.803 19.9584C109.829 19.9584 106.576 19.9308 106.576 19.9308C105.764 19.9335 105.767 21.2763 106.582 21.2763Z" fill="white"/>
</mask>
<g mask="url(#mask0_50_929)">
<path d="M111.671 19.9336H105.764V26.6833H111.671V19.9336Z" fill="#FAE100"/>
</g>
<path d="M113.233 21.5244L114.007 23.9673H112.396L113.233 21.5244ZM112.365 20.3802C112.023 21.1384 110.79 24.7228 110.379 25.6741C110.084 26.3606 111.361 26.9204 111.657 26.2338L111.936 25.255H114.478C114.478 25.255 114.39 25.2963 114.726 26.1924C115 26.9204 116.321 26.4158 116.045 25.6879C115.654 24.6484 114.305 20.9096 114.059 20.3802C113.947 20.1348 113.539 19.9611 113.145 19.9611C112.82 19.9611 112.502 20.0796 112.365 20.3802Z" fill="#FAE100"/>
<mask id="mask1_50_929" style="mask-type:luminance" maskUnits="userSpaceOnUse" x="110" y="19" width="7" height="8">
<path d="M113.233 21.5244L114.007 23.9673H112.396L113.233 21.5244ZM112.365 20.3802C112.023 21.1384 110.79 24.7228 110.379 25.6741C110.084 26.3606 111.361 26.9204 111.657 26.2338L111.936 25.255H114.478C114.478 25.255 114.39 25.2963 114.726 26.1924C115 26.9204 116.321 26.4158 116.045 25.6879C115.654 24.6484 114.305 20.9096 114.059 20.3802C113.947 20.1348 113.539 19.9611 113.145 19.9611C112.82 19.9611 112.502 20.0796 112.365 20.3802Z" fill="white"/>
</mask>
<g mask="url(#mask1_50_929)">
<path d="M116.324 19.9611H110.084V26.9231H116.324V19.9611Z" fill="#FAE100"/>
</g>
<path d="M116.535 20.6063C116.538 21.825 116.543 25.7513 116.543 25.7513C116.543 25.7513 116.431 26.5316 117.096 26.5316C117.761 26.5316 119.232 26.5233 119.886 26.5233C120.54 26.5233 120.535 25.1226 119.884 25.1226C119.23 25.1226 118.04 25.1144 118.04 25.1144C118.04 25.1144 118.045 21.4831 118.042 20.6007C118.042 20.1734 117.665 19.9611 117.29 19.9611C116.912 19.9611 116.535 20.1761 116.535 20.6063Z" fill="#FAE100"/>
<mask id="mask2_50_929" style="mask-type:luminance" maskUnits="userSpaceOnUse" x="116" y="19" width="5" height="8">
<path d="M116.535 20.6063C116.538 21.825 116.543 25.7513 116.543 25.7513C116.543 25.7513 116.431 26.5316 117.096 26.5316C117.761 26.5316 119.232 26.5233 119.886 26.5233C120.54 26.5233 120.535 25.1226 119.884 25.1226C119.23 25.1226 118.04 25.1144 118.04 25.1144C118.04 25.1144 118.045 21.4831 118.042 20.6007C118.042 20.1734 117.665 19.9611 117.29 19.9611C116.912 19.9611 116.535 20.1761 116.535 20.6063Z" fill="white"/>
</mask>
<g mask="url(#mask2_50_929)">
<path d="M120.537 19.9611H116.431V26.5288H120.537V19.9611Z" fill="#FAE100"/>
</g>
<path d="M120.713 20.4105C120.726 20.9454 120.696 25.7734 120.696 26.1318C120.696 26.6971 122.124 26.6943 122.122 26.1318C122.122 25.4756 122.122 24.2321 122.122 24.2321L122.54 23.893L124.373 26.4131C124.742 26.9066 125.908 26.016 125.539 25.5225L123.593 22.9389C123.593 22.9389 124.915 21.4997 125.435 20.9785C125.738 20.6752 124.797 19.7185 124.494 20.0245C124.198 20.3196 122.13 22.4068 122.13 22.4068C122.13 22.4068 122.149 21.0971 122.13 20.3719C122.122 20.0962 121.788 19.9639 121.446 19.9639C121.079 19.9639 120.704 20.1183 120.713 20.4105Z" fill="#FAE100"/>
<mask id="mask3_50_929" style="mask-type:luminance" maskUnits="userSpaceOnUse" x="120" y="19" width="6" height="8">
<path d="M120.713 20.4105C120.726 20.9454 120.696 25.7734 120.696 26.1318C120.696 26.6971 122.124 26.6943 122.122 26.1318C122.122 25.4756 122.122 24.2321 122.122 24.2321L122.54 23.893L124.373 26.4131C124.742 26.9066 125.908 26.016 125.539 25.5225L123.593 22.9389C123.593 22.9389 124.915 21.4997 125.435 20.9785C125.738 20.6752 124.797 19.7185 124.494 20.0245C124.198 20.3196 122.13 22.4068 122.13 22.4068C122.13 22.4068 122.149 21.0971 122.13 20.3719C122.122 20.0962 121.788 19.9639 121.446 19.9639C121.079 19.9639 120.704 20.1183 120.713 20.4105Z" fill="white"/>
</mask>
<g mask="url(#mask3_50_929)">
<path d="M125.911 19.7212H120.696V26.9038H125.911V19.7212Z" fill="#FAE100"/>
</g>
</g>
<path d="M146.715 19.6562H141.123V20.709H145.409C145.361 21.4062 145.259 22.0693 145.074 22.6982L140.48 23.0059L140.672 24.127L144.671 23.751C143.946 25.3027 142.627 26.6221 140.412 27.709L141.123 28.6797C145.594 26.4785 146.701 23.2725 146.715 19.6562ZM148.588 30.6484H149.887V24.373H151.787V23.3066H149.887V18.4121H148.588V30.6484ZM158.814 19.6562H153.223V20.709H157.509C157.461 21.4062 157.358 22.0693 157.174 22.6982L152.58 23.0059L152.771 24.127L156.771 23.751C156.046 25.3027 154.727 26.6221 152.512 27.709L153.223 28.6797C157.693 26.4785 158.801 23.2725 158.814 19.6562ZM160.688 30.6484H161.986V24.373H163.887V23.3066H161.986V18.4121H160.688V30.6484ZM170.121 19.1504C167.517 19.1572 165.603 20.4492 165.609 22.4043C165.603 24.2363 167.209 25.46 169.479 25.6445V28.0508H164.543V29.1309H175.754V28.0508H170.764V25.6445C173.047 25.46 174.646 24.2363 174.646 22.4043C174.646 20.4492 172.739 19.1572 170.121 19.1504ZM166.867 22.4043C166.867 21.0781 168.234 20.2031 170.121 20.2168C172.021 20.2031 173.382 21.0781 173.389 22.4043C173.382 23.7783 172.021 24.6328 170.121 24.6465C168.234 24.6328 166.867 23.7783 166.867 22.4043ZM187.854 28.1055H182.863V25.959H186.773V24.8926H179.295V23.1016H186.486V19.2734H177.982V20.3398H185.201V22.0625H178.01V25.959H181.578V28.1055H176.643V29.1992H187.854V28.1055ZM196.658 21.5293V19.4375H195.346V21.5293C195.346 23.8672 193.992 26.2119 192.064 27.0664L192.857 28.1602C194.327 27.4424 195.455 25.9658 196.022 24.168C196.597 25.8428 197.711 27.2168 199.119 27.8867L199.898 26.8613C197.998 26.0205 196.645 23.7646 196.658 21.5293ZM201.006 30.6895H202.305V18.4121H201.006V30.6895ZM208.539 20.6133V20.2715H211.178V19.2188H204.547V20.2715H207.24V20.5996C207.233 22.2881 206.078 23.874 204.164 24.5234L204.861 25.5352C206.297 25.0293 207.363 23.9834 207.896 22.6641C208.43 23.8672 209.448 24.8242 210.836 25.3027L211.492 24.291C209.619 23.6621 208.532 22.1787 208.539 20.6133ZM205.791 27.4492H212.586V30.6621H213.885V26.3965H205.791V27.4492ZM212.586 25.7949H213.885V22.6504H215.662V21.5566H213.885V18.4121H212.586V25.7949ZM225.902 18.4121H224.617V30.6621H225.902V24.4551H227.871V23.375H225.902V18.4121ZM216.291 21.3926H223.551V20.3262H220.611V18.5762H219.312V20.3262H216.291V21.3926ZM216.92 25.1387C216.92 26.8203 218.205 27.9893 219.969 27.9961C221.726 27.9893 223.011 26.8203 223.018 25.1387C223.011 23.4707 221.726 22.2949 219.969 22.2949C218.205 22.2949 216.92 23.4707 216.92 25.1387ZM218.164 25.1387C218.157 24.0928 218.923 23.3682 219.969 23.3613C221.008 23.3682 221.767 24.0928 221.773 25.1387C221.767 26.2051 221.008 26.916 219.969 26.9023C218.923 26.916 218.157 26.2051 218.164 25.1387ZM238.645 18.4121H237.332V30.6621H238.645V18.4121ZM228.582 27.3809L229.266 28.4336C233.47 26.417 234.994 23.3135 234.994 19.7246H229.17V20.7637H233.682C233.429 23.6211 231.836 25.8291 228.582 27.3809Z" fill="black"/>
<defs>
<clipPath id="clip0_50_929">
<rect width="27" height="25" fill="white" transform="translate(102.5 12.5)"/>
</clipPath>
</defs>
</svg>
