<svg width="204" height="136" viewBox="0 0 204 136" fill="none" xmlns="http://www.w3.org/2000/svg">
<path d="M101.36 28.0273C98.9382 28.0273 96.8887 26.3343 96.8887 24.0771V10.7219C96.8887 8.65275 98.9382 6.77173 101.36 6.77173C103.783 6.77173 105.832 8.46465 105.832 10.7219V24.0771C105.832 26.3343 103.783 28.0273 101.36 28.0273Z" fill="white"/>
<path d="M122.787 0H79.933C77.8835 0 76.2065 1.69292 76.2065 3.76204C76.2065 5.83116 77.8835 7.52408 79.933 7.52408H122.974C125.023 7.52408 126.7 5.83116 126.7 3.76204C126.7 1.69292 124.837 0 122.787 0ZM101.36 6.95978C99.6833 6.95978 98.1928 5.64306 98.1928 3.76204C98.1928 2.06912 99.497 0.564306 101.36 0.564306C103.037 0.564306 104.528 1.88102 104.528 3.76204C104.528 5.45496 103.037 6.95978 101.36 6.95978Z" fill="white"/>
<path d="M105.46 10.91H97.2613C97.075 10.91 96.8887 10.7219 96.8887 10.5338V7.90037C96.8887 7.71227 97.075 7.52417 97.2613 7.52417H105.46C105.646 7.52417 105.832 7.71227 105.832 7.90037V10.5338C105.832 10.7219 105.646 10.91 105.46 10.91Z" fill="white"/>
<path d="M88.6244 68C86.0159 68 83.5937 67.4996 81.3578 66.3321C74.6501 63.3299 71.11 56.158 72.0416 48.3189L72.2279 47.8185C76.886 33.1411 99.4312 22.6333 100.363 22.2998L102.226 21.4658L103.903 22.2998C104.835 22.8001 127.38 34.3086 131.852 47.6517C133.342 55.8244 130.547 62.6627 124.585 65.8317C121.045 67.8332 113.406 70.0015 102.226 63.3299C97.568 66.4989 93.0962 68 88.6244 68ZM79.3082 49.3196C78.9356 54.3233 80.9852 58.6598 84.898 60.4945C88.8108 62.3292 94.2141 60.9949 99.6175 56.8251L101.667 54.9904L104.089 56.6583C110.797 61.1616 116.759 62.3292 120.672 60.3277C124.026 58.493 125.33 54.3233 124.585 49.3196C121.79 41.4805 108.561 32.8075 101.853 29.1381C96.8227 31.64 82.6621 39.6458 79.3082 49.3196Z" fill="white"/>
<path d="M0 100.152C0 99.1605 0.289609 98.4427 0.868828 97.9983C1.48212 97.554 2.74277 97.3318 4.65078 97.3318H22.9473C24.8553 97.3318 26.0989 97.554 26.6781 97.9983C27.2914 98.4427 27.5981 99.1605 27.5981 100.152C27.5981 100.938 27.3425 101.553 26.8314 101.998C26.3544 102.408 25.3493 102.647 23.8161 102.715C24.4635 103.57 24.7871 104.51 24.7871 105.535C24.7871 107.996 24.242 109.893 23.1517 111.226C22.0614 112.525 20.3578 113.397 18.0409 113.841V116.712H24.8894C25.8434 116.712 26.627 116.781 27.2403 116.918C27.8536 117.054 28.3306 117.242 28.6713 117.481C29.012 117.721 29.2335 118.028 29.3357 118.404C29.472 118.78 29.5401 119.191 29.5401 119.635C29.5401 120.011 29.472 120.37 29.3357 120.712C29.2335 121.053 29.012 121.361 28.6713 121.634C28.3306 121.874 27.8536 122.079 27.2403 122.25C26.627 122.386 25.8434 122.455 24.8894 122.455H4.753C3.79899 122.455 3.01534 122.386 2.40205 122.25C1.78876 122.079 1.31176 121.874 0.971043 121.634C0.630326 121.361 0.391824 121.053 0.255537 120.712C0.153322 120.37 0.102215 120.011 0.102215 119.635C0.102215 119.191 0.153322 118.78 0.255537 118.404C0.391824 118.028 0.630326 117.721 0.971043 117.481C1.31176 117.242 1.78876 117.054 2.40205 116.918C3.01534 116.781 3.79899 116.712 4.753 116.712H9.76153V113.841C7.37652 113.363 5.62183 112.44 4.49746 111.073C3.3731 109.705 2.81091 107.86 2.81091 105.535C2.81091 104.476 3.08349 103.536 3.62863 102.715C2.87906 102.681 2.26577 102.596 1.78876 102.459C1.34583 102.322 0.988078 102.151 0.715505 101.946C0.442932 101.741 0.255538 101.485 0.153322 101.177C0.0511075 100.87 0 100.528 0 100.152ZM31.9933 95.486C31.9933 93.777 32.4022 92.6148 33.2199 91.9996C34.0717 91.3501 35.0427 91.0254 36.133 91.0254C36.6782 91.0254 37.1892 91.0938 37.6662 91.2305C38.1773 91.3672 38.6202 91.6065 38.995 91.9483C39.3698 92.2901 39.6765 92.7516 39.915 93.3326C40.1535 93.9137 40.2727 94.6315 40.2727 95.486V103.997H42.8792C43.8332 103.997 44.6169 104.117 45.2301 104.356C45.8434 104.561 46.3204 104.835 46.6612 105.176C47.0019 105.518 47.2233 105.911 47.3256 106.356C47.4618 106.766 47.53 107.176 47.53 107.586C47.53 108.099 47.4618 108.577 47.3256 109.022C47.2233 109.466 47.0019 109.859 46.6612 110.201C46.3204 110.509 45.8434 110.765 45.2301 110.97C44.6169 111.175 43.8332 111.278 42.8792 111.278H40.2727V119.379C40.2727 120.267 40.1535 121.002 39.915 121.583C39.6765 122.164 39.3698 122.626 38.995 122.968C38.6202 123.309 38.1773 123.549 37.6662 123.685C37.1892 123.822 36.6782 123.89 36.133 123.89C35.5879 123.89 35.0597 123.822 34.5487 123.685C34.0717 123.549 33.6287 123.309 33.2199 122.968C32.8451 122.626 32.5384 122.164 32.2999 121.583C32.0955 121.002 31.9933 120.267 31.9933 119.379V95.486ZM12.1636 128.71H37.7684C38.7225 128.71 39.5061 128.795 40.1194 128.966C40.7327 129.171 41.2097 129.428 41.5504 129.735C41.8911 130.077 42.1126 130.453 42.2148 130.863C42.3511 131.274 42.4192 131.684 42.4192 132.094C42.4192 132.607 42.3511 133.068 42.2148 133.478C42.1126 133.923 41.8911 134.299 41.5504 134.606C41.2097 134.914 40.7327 135.153 40.1194 135.324C39.5061 135.495 38.7225 135.58 37.7684 135.58H8.02388C7.06987 135.58 6.32029 135.478 5.77515 135.273C5.23 135.102 4.80411 134.845 4.49746 134.504C4.22489 134.196 4.05453 133.82 3.98639 133.376C3.91824 132.965 3.88417 132.504 3.88417 131.991V127.89C3.88417 127.035 3.98639 126.351 4.19082 125.839C4.42932 125.292 4.73596 124.865 5.11075 124.557C5.51961 124.249 5.96254 124.044 6.43955 123.942C6.95062 123.839 7.47873 123.788 8.02388 123.788C8.56903 123.788 9.0801 123.839 9.5571 123.942C10.0682 124.044 10.5111 124.249 10.8859 124.557C11.2607 124.865 11.5673 125.292 11.8058 125.839C12.0443 126.351 12.1636 127.035 12.1636 127.89V128.71ZM3.98639 92.7174C3.98639 92.2047 4.03749 91.7774 4.13971 91.4356C4.27599 91.0938 4.5145 90.8203 4.85521 90.6153C5.19593 90.4102 5.67293 90.2564 6.28622 90.1538C6.89951 90.0513 7.68316 90 8.63717 90H18.9609C19.9149 90 20.6985 90.0513 21.3118 90.1538C21.9251 90.2564 22.4021 90.4102 22.7428 90.6153C23.0836 90.8203 23.305 91.0938 23.4072 91.4356C23.5435 91.7774 23.6117 92.2047 23.6117 92.7174C23.6117 93.5719 23.305 94.2213 22.6917 94.6657C22.1125 95.1101 20.8689 95.3322 18.9609 95.3322H8.63717C6.72915 95.3322 5.4685 95.1101 4.85521 94.6657C4.27599 94.2213 3.98639 93.5719 3.98639 92.7174ZM10.7837 105.484C10.7837 105.826 10.8178 106.168 10.8859 106.509C10.9881 106.817 11.1414 107.108 11.3459 107.381C11.5844 107.62 11.891 107.825 12.2658 107.996C12.6747 108.133 13.1857 108.201 13.799 108.201C15.0597 108.201 15.8774 107.928 16.2522 107.381C16.627 106.8 16.8144 106.168 16.8144 105.484C16.8144 105.142 16.7803 104.817 16.7122 104.51C16.644 104.168 16.4907 103.877 16.2522 103.638C16.0478 103.365 15.7411 103.16 15.3323 103.023C14.9575 102.852 14.4464 102.767 13.799 102.767C12.5384 102.767 11.7207 103.057 11.3459 103.638C10.9711 104.185 10.7837 104.8 10.7837 105.484Z" fill="white"/>
<path d="M65.0187 135.632C63.4174 135.597 62.0545 135.375 60.9301 134.965C59.8058 134.555 58.9029 133.991 58.2214 133.273C57.54 132.589 57.046 131.769 56.7393 130.812C56.4327 129.855 56.2793 128.795 56.2793 127.633C56.2793 126.471 56.4156 125.411 56.6882 124.454C56.9608 123.463 57.4207 122.626 58.0681 121.942C58.7495 121.224 59.6524 120.677 60.7768 120.301C61.9352 119.891 63.3833 119.686 65.1209 119.686H86.9949C88.7326 119.686 90.1636 119.891 91.288 120.301C92.4464 120.677 93.3493 121.224 93.9967 121.942C94.6781 122.626 95.1551 123.463 95.4277 124.454C95.7003 125.411 95.8366 126.471 95.8366 127.633C95.8366 129.958 95.1721 131.837 93.8434 133.273C92.5486 134.743 90.2999 135.529 87.0972 135.632H65.0187ZM84.7973 129.428C85.7854 129.428 86.5009 129.308 86.9438 129.069C87.3868 128.83 87.6082 128.351 87.6082 127.633C87.6082 126.915 87.3868 126.454 86.9438 126.249C86.5009 126.01 85.7854 125.89 84.7973 125.89H67.3186C66.3305 125.89 65.615 126.01 65.172 126.249C64.7291 126.454 64.5077 126.915 64.5077 127.633C64.5077 128.351 64.7291 128.83 65.172 129.069C65.615 129.308 66.3305 129.428 67.3186 129.428H84.7973ZM94.7633 110.15C95.6151 110.15 96.2965 110.252 96.8076 110.457C97.3187 110.662 97.7105 110.919 97.9831 111.226C98.2556 111.534 98.426 111.893 98.4941 112.303C98.5964 112.679 98.6475 113.055 98.6475 113.431C98.6475 113.91 98.5964 114.354 98.4941 114.764C98.426 115.14 98.2556 115.482 97.9831 115.79C97.7105 116.097 97.3187 116.336 96.8076 116.507C96.2965 116.678 95.6151 116.764 94.7633 116.764H57.6081C56.7563 116.764 56.0749 116.678 55.5638 116.507C55.0528 116.336 54.6609 116.097 54.3884 115.79C54.1158 115.482 53.9284 115.14 53.8262 114.764C53.758 114.354 53.724 113.91 53.724 113.431C53.724 113.055 53.758 112.679 53.8262 112.303C53.9284 111.893 54.1158 111.534 54.3884 111.226C54.6609 110.919 55.0528 110.662 55.5638 110.457C56.0749 110.252 56.7563 110.15 57.6081 110.15H94.7633ZM80.7087 93.589C80.7087 94.8879 81.0494 95.9817 81.7309 96.8704C82.4464 97.7249 83.3663 98.4427 84.4907 99.0238C85.615 99.5707 86.8757 100.015 88.2726 100.357C89.6696 100.664 91.0835 100.887 92.5146 101.023C93.8434 101.194 94.8314 101.57 95.4788 102.151C96.1262 102.732 96.3647 103.672 96.1943 104.971C96.0921 105.655 95.8877 106.185 95.581 106.561C95.3084 106.902 94.9677 107.159 94.5589 107.33C94.15 107.501 93.69 107.603 93.179 107.637C92.6679 107.637 92.1568 107.62 91.6457 107.586C88.8178 107.347 86.0409 106.732 83.3152 105.74C80.6235 104.749 78.3237 103.519 76.4157 102.049C74.5077 103.519 72.2078 104.749 69.5162 105.74C66.8245 106.732 64.0647 107.347 61.2368 107.586C60.7257 107.62 60.2146 107.637 59.7035 107.637C59.1925 107.603 58.7325 107.501 58.3236 107.33C57.9148 107.159 57.557 106.902 57.2504 106.561C56.9778 106.185 56.7904 105.655 56.6882 104.971C56.5178 103.672 56.7563 102.732 57.4037 102.151C58.0511 101.57 59.0391 101.194 60.3679 101.023C61.833 100.852 63.264 100.613 64.661 100.306C66.092 99.9979 67.3526 99.5707 68.4429 99.0238C69.5332 98.4427 70.4191 97.7078 71.1005 96.8191C71.816 95.9304 72.1908 94.8366 72.2249 93.5377V93.2814C72.2249 92.8028 72.3441 92.4098 72.5826 92.1021C72.8211 91.7945 73.1278 91.5552 73.5026 91.3843C73.9114 91.1792 74.3714 91.0425 74.8825 90.9742C75.3935 90.9058 75.9217 90.8716 76.4668 90.8716C77.012 90.8716 77.5401 90.9058 78.0511 90.9742C78.5622 91.0425 79.0051 91.1792 79.3799 91.3843C79.7888 91.5552 80.1125 91.7945 80.351 92.1021C80.5895 92.4098 80.7087 92.8028 80.7087 93.2814V93.589Z" fill="white"/>
<path d="M140.412 95.486C140.412 93.777 140.821 92.6148 141.639 91.9996C142.491 91.3501 143.462 91.0254 144.552 91.0254C145.097 91.0254 145.608 91.0938 146.085 91.2305C146.596 91.3672 147.039 91.6065 147.414 91.9483C147.789 92.2901 148.095 92.7516 148.334 93.3326C148.572 93.9137 148.692 94.6315 148.692 95.486V130.504C148.692 131.393 148.572 132.128 148.334 132.709C148.095 133.29 147.789 133.752 147.414 134.093C147.039 134.435 146.596 134.675 146.085 134.811C145.608 134.948 145.097 135.016 144.552 135.016C144.007 135.016 143.479 134.948 142.968 134.811C142.491 134.675 142.048 134.435 141.639 134.093C141.264 133.752 140.957 133.29 140.719 132.709C140.514 132.128 140.412 131.393 140.412 130.504V95.486ZM124.773 111.995C124.773 114.901 125.336 117.516 126.46 119.84C127.618 122.164 129.577 124.301 132.337 126.249C133.428 127.035 134.143 127.924 134.484 128.915C134.859 129.906 134.705 130.949 134.024 132.043C133.649 132.624 133.189 133.051 132.644 133.324C132.133 133.632 131.571 133.803 130.957 133.837C130.583 133.837 130.191 133.786 129.782 133.683C129.373 133.615 128.981 133.444 128.606 133.171C126.971 132.008 125.506 130.692 124.211 129.223C122.916 127.787 121.775 126.249 120.787 124.608C119.867 126.351 118.794 127.958 117.567 129.428C116.341 130.898 114.961 132.128 113.428 133.119C112.508 133.7 111.485 134.025 110.361 134.093C109.782 134.128 109.186 134.025 108.572 133.786C107.959 133.547 107.448 133.085 107.039 132.401C106.358 131.308 106.187 130.265 106.528 129.274C106.903 128.283 107.635 127.394 108.726 126.608C111.485 124.659 113.428 122.472 114.552 120.045C115.71 117.584 116.29 114.901 116.29 111.995V95.486C116.29 94.6315 116.409 93.9137 116.647 93.3326C116.886 92.7516 117.192 92.2901 117.567 91.9483C117.976 91.6065 118.436 91.3672 118.947 91.2305C119.458 91.0938 119.986 91.0254 120.531 91.0254C121.077 91.0254 121.605 91.0938 122.116 91.2305C122.627 91.3672 123.07 91.6065 123.445 91.9483C123.853 92.2901 124.177 92.7516 124.416 93.3326C124.654 93.9137 124.773 94.6315 124.773 95.486V111.995Z" fill="white"/>
<path d="M194.085 95.486C194.085 93.777 194.494 92.6148 195.312 91.9996C196.164 91.3501 197.135 91.0254 198.225 91.0254C198.77 91.0254 199.281 91.0938 199.758 91.2305C200.269 91.3672 200.712 91.6065 201.087 91.9483C201.462 92.2901 201.768 92.7516 202.007 93.3326C202.245 93.9137 202.365 94.6315 202.365 95.486V115.995C202.365 116.883 202.245 117.618 202.007 118.199C201.768 118.78 201.462 119.242 201.087 119.584C200.712 119.925 200.269 120.165 199.758 120.301C199.281 120.438 198.77 120.507 198.225 120.507C197.68 120.507 197.152 120.438 196.641 120.301C196.163 120.165 195.721 119.925 195.312 119.584C194.937 119.242 194.63 118.78 194.392 118.199C194.187 117.618 194.085 116.883 194.085 115.995V95.486ZM171.956 128.505H199.349C200.303 128.505 201.087 128.607 201.7 128.812C202.313 129.018 202.79 129.274 203.131 129.582C203.472 129.923 203.693 130.299 203.796 130.71C203.932 131.154 204 131.581 204 131.991C204 132.504 203.932 132.965 203.796 133.376C203.693 133.82 203.472 134.196 203.131 134.504C202.79 134.845 202.313 135.102 201.7 135.273C201.087 135.478 200.303 135.58 199.349 135.58H167.816C166.862 135.58 166.112 135.478 165.567 135.273C165.022 135.102 164.596 134.845 164.289 134.504C164.017 134.196 163.847 133.82 163.778 133.376C163.71 132.965 163.676 132.504 163.676 131.991V123.583C163.676 121.874 164.085 120.712 164.903 120.096C165.755 119.447 166.726 119.122 167.816 119.122C168.361 119.122 168.872 119.191 169.349 119.327C169.86 119.464 170.303 119.703 170.678 120.045C171.053 120.387 171.359 120.848 171.598 121.429C171.836 122.01 171.956 122.728 171.956 123.583V128.505ZM162.654 95.5373C162.654 93.965 163.063 92.9225 163.881 92.4098C164.698 91.8629 165.84 91.5894 167.305 91.5894H180.491C181.445 91.5894 182.194 91.692 182.739 91.897C183.284 92.0679 183.693 92.3243 183.966 92.6661C184.272 92.9737 184.46 93.3497 184.528 93.7941C184.596 94.2043 184.63 94.6657 184.63 95.1784V111.483C184.63 112.337 184.511 113.055 184.272 113.636C184.068 114.183 183.761 114.627 183.353 114.969C182.944 115.311 182.467 115.567 181.922 115.738C181.376 115.875 180.78 115.943 180.133 115.943H166.794C165.84 115.943 165.09 115.858 164.545 115.687C164 115.482 163.574 115.226 163.267 114.918C162.995 114.576 162.824 114.2 162.756 113.79C162.688 113.346 162.654 112.867 162.654 112.354V95.5373ZM170.933 98.4085V109.124H176.351V98.4085H170.933Z" fill="white"/>
</svg>
