<svg width="161" height="96" viewBox="0 0 161 96" fill="none" xmlns="http://www.w3.org/2000/svg">
<path d="M0 68.009C0 67.227 0.228564 66.6607 0.685692 66.3101C1.16971 65.9596 2.16464 65.7843 3.67047 65.7843H18.1103C19.6162 65.7843 20.5977 65.9596 21.0548 66.3101C21.5388 66.6607 21.7808 67.227 21.7808 68.009C21.7808 68.6292 21.5791 69.1146 21.1758 69.4652C20.7993 69.7888 20.0061 69.9775 18.796 70.0315C19.3069 70.7056 19.5624 71.4472 19.5624 72.2562C19.5624 74.1978 19.1322 75.6944 18.2717 76.7461C17.4112 77.7708 16.0667 78.4584 14.2382 78.809V81.0742H19.6431C20.396 81.0742 21.0145 81.1281 21.4985 81.236C21.9825 81.3438 22.3589 81.4921 22.6278 81.6809C22.8967 81.8697 23.0715 82.1124 23.1522 82.409C23.2598 82.7056 23.3135 83.0292 23.3135 83.3798C23.3135 83.6764 23.2598 83.9595 23.1522 84.2292C23.0715 84.4989 22.8967 84.7416 22.6278 84.9573C22.3589 85.1461 21.9825 85.3079 21.4985 85.4427C21.0145 85.5506 20.396 85.6045 19.6431 85.6045H3.75114C2.99822 85.6045 2.37976 85.5506 1.89574 85.4427C1.41172 85.3079 1.03526 85.1461 0.766362 84.9573C0.497463 84.7416 0.309234 84.4989 0.201674 84.2292C0.121005 83.9595 0.0806697 83.6764 0.0806697 83.3798C0.0806697 83.0292 0.121005 82.7056 0.201674 82.409C0.309234 82.1124 0.497463 81.8697 0.766362 81.6809C1.03526 81.4921 1.41172 81.3438 1.89574 81.236C2.37976 81.1281 2.99822 81.0742 3.75114 81.0742H7.70396V78.809C5.82166 78.4315 4.43683 77.7034 3.54947 76.6247C2.6621 75.5461 2.21842 74.0899 2.21842 72.2562C2.21842 71.4202 2.43354 70.6787 2.86377 70.0315C2.2722 70.0045 1.78818 69.9371 1.41172 69.8292C1.06215 69.7213 0.779807 69.5865 0.564688 69.4247C0.349569 69.2629 0.201674 69.0607 0.121004 68.818C0.0403348 68.5753 0 68.3056 0 68.009ZM25.2496 64.3281C25.2496 62.9798 25.5723 62.0629 26.2176 61.5775C26.8899 61.0652 27.6563 60.809 28.5167 60.809C28.947 60.809 29.3503 60.8629 29.7268 60.9708C30.1301 61.0787 30.4797 61.2674 30.7755 61.5371C31.0713 61.8067 31.3133 62.1708 31.5015 62.6292C31.6897 63.0876 31.7839 63.6539 31.7839 64.3281V71.0427H33.8409C34.5939 71.0427 35.2123 71.1371 35.6963 71.3258C36.1804 71.4876 36.5568 71.7034 36.8257 71.973C37.0946 72.2427 37.2694 72.5528 37.3501 72.9034C37.4576 73.227 37.5114 73.5506 37.5114 73.8742C37.5114 74.2787 37.4576 74.6562 37.3501 75.0067C37.2694 75.3573 37.0946 75.6674 36.8257 75.9371C36.5568 76.1798 36.1804 76.382 35.6963 76.5438C35.2123 76.7056 34.5939 76.7865 33.8409 76.7865H31.7839V83.1775C31.7839 83.8787 31.6897 84.4584 31.5015 84.9169C31.3133 85.3753 31.0713 85.7393 30.7755 86.009C30.4797 86.2787 30.1301 86.4674 29.7268 86.5753C29.3503 86.6831 28.947 86.7371 28.5167 86.7371C28.0865 86.7371 27.6697 86.6831 27.2664 86.5753C26.8899 86.4674 26.5403 86.2787 26.2176 86.009C25.9219 85.7393 25.6799 85.3753 25.4916 84.9169C25.3303 84.4584 25.2496 83.8787 25.2496 83.1775V64.3281ZM9.59969 90.5393H29.8075C30.5604 90.5393 31.1788 90.6067 31.6629 90.7416C32.1469 90.9034 32.5233 91.1056 32.7922 91.3483C33.0611 91.618 33.2359 91.9146 33.3166 92.2382C33.4241 92.5618 33.4779 92.8854 33.4779 93.209C33.4779 93.6135 33.4241 93.9775 33.3166 94.3011C33.2359 94.6517 33.0611 94.9483 32.7922 95.191C32.5233 95.4337 32.1469 95.6225 31.6629 95.7573C31.1788 95.8921 30.5604 95.9596 29.8075 95.9596H6.33257C5.57965 95.9596 4.98808 95.8787 4.55784 95.7169C4.1276 95.582 3.79148 95.3798 3.54947 95.1101C3.33435 94.8674 3.1999 94.5708 3.14612 94.2202C3.09234 93.8966 3.06545 93.5326 3.06545 93.1281V89.8921C3.06545 89.218 3.14612 88.6786 3.30746 88.2742C3.49569 87.8427 3.7377 87.5056 4.03348 87.2629C4.35616 87.0202 4.70573 86.8584 5.08219 86.7775C5.48554 86.6966 5.90233 86.6562 6.33257 86.6562C6.76281 86.6562 7.16616 86.6966 7.54262 86.7775C7.94596 86.8584 8.29553 87.0202 8.59132 87.2629C8.88711 87.5056 9.12912 87.8427 9.31735 88.2742C9.50558 88.6786 9.59969 89.218 9.59969 89.8921V90.5393ZM3.14612 62.1438C3.14612 61.7393 3.18645 61.4022 3.26712 61.1326C3.37468 60.8629 3.56291 60.6472 3.83181 60.4854C4.10071 60.3236 4.47717 60.2022 4.96119 60.1213C5.4452 60.0404 6.06367 60 6.81659 60H14.9642C15.7171 60 16.3356 60.0404 16.8196 60.1213C17.3036 60.2022 17.6801 60.3236 17.949 60.4854C18.2179 60.6472 18.3927 60.8629 18.4734 61.1326C18.5809 61.4022 18.6347 61.7393 18.6347 62.1438C18.6347 62.818 18.3927 63.3303 17.9087 63.6809C17.4515 64.0315 16.4701 64.2067 14.9642 64.2067H6.81659C5.31075 64.2067 4.31583 64.0315 3.83181 63.6809C3.37468 63.3303 3.14612 62.818 3.14612 62.1438ZM8.51065 72.2157C8.51065 72.4854 8.53754 72.7551 8.59132 73.0247C8.67199 73.2674 8.793 73.4966 8.95434 73.7124C9.14256 73.9011 9.38457 74.0629 9.68036 74.1978C10.003 74.3056 10.4064 74.3595 10.8904 74.3595C11.8853 74.3595 12.5307 74.1438 12.8265 73.7124C13.1223 73.2539 13.2702 72.7551 13.2702 72.2157C13.2702 71.9461 13.2433 71.6899 13.1895 71.4472C13.1357 71.1775 13.0147 70.9483 12.8265 70.7596C12.6651 70.5438 12.4231 70.382 12.1005 70.2742C11.8047 70.1393 11.4013 70.0719 10.8904 70.0719C9.89548 70.0719 9.25012 70.3011 8.95434 70.7596C8.65855 71.191 8.51065 71.6764 8.51065 72.2157Z" fill="#FA3A45"/>
<path d="M51.3138 96C50.05 95.973 48.9744 95.7978 48.087 95.4742C47.1996 95.1506 46.4871 94.7056 45.9493 94.1393C45.4115 93.6 45.0216 92.9528 44.7796 92.1978C44.5375 91.4427 44.4165 90.6067 44.4165 89.6899C44.4165 88.773 44.5241 87.9371 44.7392 87.182C44.9543 86.4 45.3174 85.7393 45.8283 85.2C46.3661 84.6337 47.0786 84.2022 47.966 83.9056C48.8803 83.582 50.0231 83.4202 51.3945 83.4202H68.6578C70.0292 83.4202 71.1585 83.582 72.0459 83.9056C72.9602 84.2022 73.6727 84.6337 74.1837 85.2C74.7215 85.7393 75.0979 86.4 75.313 87.182C75.5281 87.9371 75.6357 88.773 75.6357 89.6899C75.6357 91.5236 75.1114 93.0067 74.0627 94.1393C73.0408 95.2989 71.2661 95.9191 68.7384 96H51.3138ZM66.9234 91.1056C67.7032 91.1056 68.2679 91.0112 68.6174 90.8225C68.967 90.6337 69.1418 90.2562 69.1418 89.6899C69.1418 89.1236 68.967 88.7596 68.6174 88.5978C68.2679 88.409 67.7032 88.3146 66.9234 88.3146H53.1289C52.3491 88.3146 51.7844 88.409 51.4348 88.5978C51.0852 88.7596 50.9104 89.1236 50.9104 89.6899C50.9104 90.2562 51.0852 90.6337 51.4348 90.8225C51.7844 91.0112 52.3491 91.1056 53.1289 91.1056H66.9234ZM74.7887 75.8966C75.4609 75.8966 75.9987 75.9775 76.4021 76.1393C76.8054 76.3011 77.1147 76.5034 77.3298 76.7461C77.5449 76.9888 77.6793 77.2719 77.7331 77.5955C77.8138 77.8921 77.8541 78.1888 77.8541 78.4854C77.8541 78.8629 77.8138 79.2135 77.7331 79.5371C77.6793 79.8337 77.5449 80.1034 77.3298 80.3461C77.1147 80.5888 76.8054 80.7775 76.4021 80.9124C75.9987 81.0472 75.4609 81.1146 74.7887 81.1146H45.4652C44.793 81.1146 44.2552 81.0472 43.8518 80.9124C43.4485 80.7775 43.1393 80.5888 42.9241 80.3461C42.709 80.1034 42.5611 79.8337 42.4805 79.5371C42.4267 79.2135 42.3998 78.8629 42.3998 78.4854C42.3998 78.1888 42.4267 77.8921 42.4805 77.5955C42.5611 77.2719 42.709 76.9888 42.9241 76.7461C43.1393 76.5034 43.4485 76.3011 43.8518 76.1393C44.2552 75.9775 44.793 75.8966 45.4652 75.8966H74.7887ZM63.6966 62.8315C63.6966 63.8562 63.9655 64.7191 64.5033 65.4202C65.068 66.0944 65.794 66.6607 66.6814 67.1191C67.5687 67.5506 68.5637 67.9011 69.6662 68.1708C70.7686 68.4135 71.8846 68.5888 73.0139 68.6966C74.0627 68.8315 74.8425 69.1281 75.3534 69.5865C75.8643 70.0449 76.0525 70.7865 75.9181 71.8112C75.8374 72.3506 75.676 72.7685 75.434 73.0652C75.2189 73.3348 74.95 73.5371 74.6273 73.6719C74.3047 73.8067 73.9416 73.8876 73.5383 73.9146C73.1349 73.9146 72.7316 73.9011 72.3283 73.8742C70.0964 73.6854 67.9049 73.2 65.7537 72.418C63.6294 71.636 61.8143 70.6652 60.3085 69.5056C58.8026 70.6652 56.9876 71.636 54.8633 72.418C52.739 73.2 50.5609 73.6854 48.329 73.8742C47.9257 73.9011 47.5223 73.9146 47.119 73.9146C46.7156 73.8876 46.3526 73.8067 46.0299 73.6719C45.7073 73.5371 45.4249 73.3348 45.1829 73.0652C44.9678 72.7685 44.8199 72.3506 44.7392 71.8112C44.6048 70.7865 44.793 70.0449 45.3039 69.5865C45.8148 69.1281 46.5946 68.8315 47.6433 68.6966C48.7996 68.5618 49.929 68.373 51.0315 68.1303C52.1608 67.8876 53.1558 67.5506 54.0162 67.1191C54.8767 66.6607 55.5758 66.0809 56.1136 65.3798C56.6783 64.6787 56.9741 63.8157 57.001 62.791V62.5888C57.001 62.2112 57.0951 61.9011 57.2834 61.6584C57.4716 61.4157 57.7136 61.227 58.0094 61.0921C58.3321 60.9303 58.6951 60.8225 59.0984 60.7685C59.5018 60.7146 59.9186 60.6876 60.3488 60.6876C60.779 60.6876 61.1958 60.7146 61.5992 60.7685C62.0025 60.8225 62.3521 60.9303 62.6479 61.0921C62.9706 61.227 63.226 61.4157 63.4143 61.6584C63.6025 61.9011 63.6966 62.2112 63.6966 62.5888V62.8315Z" fill="#FA3A45"/>
<path d="M110.816 64.3281C110.816 62.9798 111.138 62.0629 111.784 61.5775C112.456 61.0652 113.222 60.809 114.083 60.809C114.513 60.809 114.916 60.8629 115.293 60.9708C115.696 61.0787 116.046 61.2674 116.341 61.5371C116.637 61.8067 116.879 62.1708 117.067 62.6292C117.256 63.0876 117.35 63.6539 117.35 64.3281V91.9551C117.35 92.6562 117.256 93.236 117.067 93.6944C116.879 94.1528 116.637 94.5169 116.341 94.7865C116.046 95.0562 115.696 95.2449 115.293 95.3528C114.916 95.4607 114.513 95.5146 114.083 95.5146C113.652 95.5146 113.236 95.4607 112.832 95.3528C112.456 95.2449 112.106 95.0562 111.784 94.7865C111.488 94.5169 111.246 94.1528 111.058 93.6944C110.896 93.236 110.816 92.6562 110.816 91.9551V64.3281ZM98.4731 77.3528C98.4731 79.6449 98.9168 81.7079 99.8042 83.5416C100.718 85.3753 102.265 87.0607 104.443 88.5978C105.303 89.218 105.868 89.9191 106.137 90.7011C106.433 91.4831 106.312 92.3056 105.774 93.1685C105.478 93.627 105.115 93.964 104.685 94.1798C104.281 94.4225 103.838 94.5573 103.354 94.5843C103.058 94.5843 102.749 94.5438 102.426 94.4629C102.103 94.409 101.794 94.2742 101.498 94.0584C100.208 93.1416 99.0512 92.1034 98.0294 90.9438C97.0076 89.8112 96.1068 88.5978 95.327 87.3034C94.601 88.6786 93.7539 89.9461 92.7859 91.1056C91.8179 92.2652 90.7288 93.236 89.5188 94.018C88.7928 94.4764 87.9861 94.7326 87.0987 94.7865C86.6416 94.8135 86.171 94.7326 85.687 94.5438C85.2029 94.3551 84.7996 93.991 84.4769 93.4517C83.9391 92.5888 83.8047 91.7663 84.0736 90.9843C84.3694 90.2022 84.9475 89.5011 85.808 88.8809C87.9861 87.3438 89.5188 85.618 90.4061 83.7034C91.3204 81.7618 91.7775 79.6449 91.7775 77.3528V64.3281C91.7775 63.6539 91.8716 63.0876 92.0599 62.6292C92.2481 62.1708 92.4901 61.8067 92.7859 61.5371C93.1086 61.2674 93.4716 61.0787 93.8749 60.9708C94.2783 60.8629 94.6951 60.809 95.1253 60.809C95.5556 60.809 95.9724 60.8629 96.3757 60.9708C96.779 61.0787 97.1286 61.2674 97.4244 61.5371C97.7471 61.8067 98.0025 62.1708 98.1908 62.6292C98.379 63.0876 98.4731 63.6539 98.4731 64.3281V77.3528Z" fill="#FA3A45"/>
<path d="M153.175 64.3281C153.175 62.9798 153.498 62.0629 154.143 61.5775C154.815 61.0652 155.582 60.809 156.442 60.809C156.872 60.809 157.276 60.8629 157.652 60.9708C158.056 61.0787 158.405 61.2674 158.701 61.5371C158.997 61.8067 159.239 62.1708 159.427 62.6292C159.615 63.0876 159.709 63.6539 159.709 64.3281V80.5079C159.709 81.209 159.615 81.7888 159.427 82.2472C159.239 82.7056 158.997 83.0697 158.701 83.3393C158.405 83.609 158.056 83.7978 157.652 83.9056C157.276 84.0135 156.872 84.0674 156.442 84.0674C156.012 84.0674 155.595 84.0135 155.192 83.9056C154.815 83.7978 154.466 83.609 154.143 83.3393C153.847 83.0697 153.605 82.7056 153.417 82.2472C153.256 81.7888 153.175 81.209 153.175 80.5079V64.3281ZM135.71 90.3775H157.33C158.082 90.3775 158.701 90.4584 159.185 90.6202C159.669 90.782 160.045 90.9843 160.314 91.227C160.583 91.4966 160.758 91.7933 160.839 92.1169C160.946 92.4674 161 92.8045 161 93.1281C161 93.5326 160.946 93.8966 160.839 94.2202C160.758 94.5708 160.583 94.8674 160.314 95.1101C160.045 95.3798 159.669 95.582 159.185 95.7169C158.701 95.8787 158.082 95.9596 157.33 95.9596H132.443C131.69 95.9596 131.098 95.8787 130.668 95.7169C130.238 95.582 129.902 95.3798 129.66 95.1101C129.445 94.8674 129.31 94.5708 129.256 94.2202C129.203 93.8966 129.176 93.5326 129.176 93.1281V86.4944C129.176 85.1461 129.498 84.2292 130.144 83.7438C130.816 83.2315 131.582 82.9753 132.443 82.9753C132.873 82.9753 133.277 83.0292 133.653 83.1371C134.056 83.2449 134.406 83.4337 134.702 83.7034C134.997 83.973 135.239 84.3371 135.428 84.7955C135.616 85.2539 135.71 85.8202 135.71 86.4944V90.3775ZM128.369 64.3685C128.369 63.1281 128.692 62.3056 129.337 61.9011C129.982 61.4697 130.883 61.2539 132.04 61.2539H142.446C143.199 61.2539 143.79 61.3348 144.221 61.4966C144.651 61.6315 144.974 61.8337 145.189 62.1034C145.431 62.3461 145.579 62.6427 145.632 62.9933C145.686 63.3169 145.713 63.6809 145.713 64.0854V76.9483C145.713 77.6225 145.619 78.1888 145.431 78.6472C145.269 79.0786 145.027 79.4292 144.705 79.6989C144.382 79.9685 144.006 80.1708 143.575 80.3056C143.145 80.4135 142.675 80.4674 142.164 80.4674H131.636C130.883 80.4674 130.292 80.4 129.861 80.2652C129.431 80.1034 129.095 79.9011 128.853 79.6584C128.638 79.3888 128.504 79.0921 128.45 78.7685C128.396 78.418 128.369 78.0404 128.369 77.636V64.3685ZM134.903 66.6337V75.0876H139.179V66.6337H134.903Z" fill="#FA3A45"/>
<path d="M81 21C79.375 21 78 19.8053 78 18.2124V8.78761C78 7.32743 79.375 6 81 6C82.625 6 84 7.19469 84 8.78761V18.2124C84 19.8053 82.625 21 81 21Z" fill="#FA3A45"/>
<path d="M96.2103 1H65.6568C64.1956 1 63 2.125 63 3.5C63 4.875 64.1956 6 65.6568 6H96.3432C97.8044 6 99 4.875 99 3.5C99 2.125 97.6716 1 96.2103 1ZM80.9336 5.625C79.738 5.625 78.6753 4.75 78.6753 3.5C78.6753 2.375 79.6052 1.375 80.9336 1.375C82.1292 1.375 83.1919 2.25 83.1919 3.5C83.1919 4.625 82.1292 5.625 80.9336 5.625Z" fill="#FA3A45"/>
<path d="M83.75 8H78.25C78.125 8 78 7.88889 78 7.77778V6.22222C78 6.11111 78.125 6 78.25 6H83.75C83.875 6 84 6.11111 84 6.22222V7.77778C84 7.88889 83.875 8 83.75 8Z" fill="#FA3A45"/>
<path d="M71.9198 50C70.0613 50 68.3355 49.6344 66.7425 48.7814C61.9633 46.5878 59.441 41.3477 60.1048 35.6201L60.2375 35.2545C63.5564 24.5305 79.6195 16.853 80.2833 16.6093L81.6108 16L82.8056 16.6093C83.4694 16.9749 99.5325 25.3835 102.719 35.1326C103.781 41.1039 101.789 46.1004 97.5412 48.4158C95.0189 49.8781 89.576 51.4624 81.6108 46.5878C78.292 48.9032 75.1059 50 71.9198 50ZM65.2822 36.3513C65.0167 40.0072 66.4769 43.1756 69.2648 44.5161C72.0526 45.8566 75.9024 44.8817 79.7523 41.8351L81.2126 40.4946L82.9384 41.7133C87.7175 45.0036 91.9656 45.8566 94.7534 44.3943C97.143 43.0538 98.0722 40.0072 97.5412 36.3513C95.5499 30.6237 86.1244 24.2867 81.3453 21.6057C77.761 23.4337 67.6717 29.2832 65.2822 36.3513Z" fill="#FA3A45"/>
</svg>
