<svg width="160" height="60" viewBox="0 0 160 60" fill="none" xmlns="http://www.w3.org/2000/svg">
<rect width="160" height="60" rx="20" fill="#C3F4FF"/>
<path d="M77.64 22.24V40.82H80.32V22.24H77.64ZM79.72 29.1V31.28H83V29.1H79.72ZM66.52 34.16V36.36H68.08C71.3 36.36 73.84 36.28 76.64 35.78L76.38 33.58C73.66 34.06 71.2 34.16 68.08 34.16H66.52ZM66.52 23.96V35.22H69.16V26.1H75.16V23.96H66.52ZM92.5784 22.6C88.4984 22.6 85.8784 23.98 85.8784 26.22C85.8784 28.46 88.4984 29.82 92.5784 29.82C96.6584 29.82 99.2784 28.46 99.2784 26.22C99.2784 23.98 96.6584 22.6 92.5784 22.6ZM92.5784 24.66C95.0984 24.66 96.5384 25.16 96.5384 26.22C96.5384 27.26 95.0984 27.78 92.5784 27.78C90.0384 27.78 88.6184 27.26 88.6184 26.22C88.6184 25.16 90.0384 24.66 92.5784 24.66ZM86.1384 34.26V40.58H98.9384V34.26H86.1384ZM96.3384 36.36V38.48H88.7584V36.36H96.3384ZM84.1984 30.88V32.98H100.938V30.88H84.1984Z" fill="#5B5B5B"/>
</svg>
