<svg width="320" height="48" viewBox="0 0 320 48" fill="none" xmlns="http://www.w3.org/2000/svg">
<rect width="320" height="48" rx="10" fill="#C3F4FF"/>
<path d="M148 25.72V28.38H150.66V25.72H148ZM155.84 17.28V29.88H158.5V17.28H155.84ZM157.56 22.56V24.74H160.82V22.56H157.56ZM143.88 29.52C147.12 29.5 151.36 29.46 155.22 28.8L155.02 26.98C151.28 27.44 146.9 27.46 143.58 27.46L143.88 29.52ZM145.94 30.62V32.66H155.84V35.78H158.5V30.62H145.94ZM144.06 18.62V20.52H154.56V18.62H144.06ZM149.32 20.96C146.58 20.96 144.8 22.02 144.8 23.72C144.8 25.42 146.58 26.48 149.32 26.48C152.04 26.48 153.82 25.42 153.82 23.72C153.82 22.02 152.04 20.96 149.32 20.96ZM149.32 22.7C150.56 22.7 151.3 23.02 151.3 23.72C151.3 24.38 150.56 24.74 149.32 24.74C148.06 24.74 147.32 24.38 147.32 23.72C147.32 23.02 148.06 22.7 149.32 22.7ZM148 17.12V19.48H150.66V17.12H148ZM174.918 17.28V30.58H177.598V17.28H174.918ZM165.258 33.34V35.46H178.058V33.34H165.258ZM165.258 29.24V34.2H167.918V29.24H165.258ZM167.518 18.44C164.678 18.44 162.478 20.4 162.478 23.14C162.478 25.86 164.678 27.84 167.518 27.84C170.358 27.84 172.538 25.86 172.538 23.14C172.538 20.4 170.358 18.44 167.518 18.44ZM167.518 20.74C168.878 20.74 169.938 21.62 169.938 23.14C169.938 24.64 168.878 25.52 167.518 25.52C166.138 25.52 165.078 24.64 165.078 23.14C165.078 21.62 166.138 20.74 167.518 20.74Z" fill="#5B5B5B"/>
</svg>
