<svg width="328" height="56" viewBox="0 0 328 56" fill="none" xmlns="http://www.w3.org/2000/svg">
<g filter="url(#filter0_d_0_1)">
<rect x="4" width="320" height="48" rx="10" fill="#C3F4FF"/>
</g>
<path d="M152 25.72V28.38H154.66V25.72H152ZM159.84 17.28V29.88H162.5V17.28H159.84ZM161.56 22.56V24.74H164.82V22.56H161.56ZM147.88 29.52C151.12 29.5 155.36 29.46 159.22 28.8L159.02 26.98C155.28 27.44 150.9 27.46 147.58 27.46L147.88 29.52ZM149.94 30.62V32.66H159.84V35.78H162.5V30.62H149.94ZM148.06 18.62V20.52H158.56V18.62H148.06ZM153.32 20.96C150.58 20.96 148.8 22.02 148.8 23.72C148.8 25.42 150.58 26.48 153.32 26.48C156.04 26.48 157.82 25.42 157.82 23.72C157.82 22.02 156.04 20.96 153.32 20.96ZM153.32 22.7C154.56 22.7 155.3 23.02 155.3 23.72C155.3 24.38 154.56 24.74 153.32 24.74C152.06 24.74 151.32 24.38 151.32 23.72C151.32 23.02 152.06 22.7 153.32 22.7ZM152 17.12V19.48H154.66V17.12H152ZM178.918 17.28V30.58H181.598V17.28H178.918ZM169.258 33.34V35.46H182.058V33.34H169.258ZM169.258 29.24V34.2H171.918V29.24H169.258ZM171.518 18.44C168.678 18.44 166.478 20.4 166.478 23.14C166.478 25.86 168.678 27.84 171.518 27.84C174.358 27.84 176.538 25.86 176.538 23.14C176.538 20.4 174.358 18.44 171.518 18.44ZM171.518 20.74C172.878 20.74 173.938 21.62 173.938 23.14C173.938 24.64 172.878 25.52 171.518 25.52C170.138 25.52 169.078 24.64 169.078 23.14C169.078 21.62 170.138 20.74 171.518 20.74Z" fill="#5B5B5B"/>
<defs>
<filter id="filter0_d_0_1" x="0" y="0" width="328" height="56" filterUnits="userSpaceOnUse" color-interpolation-filters="sRGB">
<feFlood flood-opacity="0" result="BackgroundImageFix"/>
<feColorMatrix in="SourceAlpha" type="matrix" values="0 0 0 0 0 0 0 0 0 0 0 0 0 0 0 0 0 0 127 0" result="hardAlpha"/>
<feOffset dy="4"/>
<feGaussianBlur stdDeviation="2"/>
<feComposite in2="hardAlpha" operator="out"/>
<feColorMatrix type="matrix" values="0 0 0 0 0 0 0 0 0 0 0 0 0 0 0 0 0 0 0.25 0"/>
<feBlend mode="normal" in2="BackgroundImageFix" result="effect1_dropShadow_0_1"/>
<feBlend mode="normal" in="SourceGraphic" in2="effect1_dropShadow_0_1" result="shape"/>
</filter>
</defs>
</svg>
