<svg width="160" height="60" viewBox="0 0 160 60" fill="none" xmlns="http://www.w3.org/2000/svg">
<rect x="0.5" y="0.5" width="159" height="59" rx="19.5" stroke="black"/>
<path d="M72.58 25.78V26C72.58 27.6 71.32 29.12 68.46 29.64L69.52 31.7C73.08 30.98 74.72 28.74 74.72 26V25.78H72.58ZM73.12 25.78V26C73.12 28.62 74.76 30.76 78.26 31.42L79.3 29.38C76.5 28.88 75.26 27.5 75.26 26V25.78H73.12ZM68.96 24.1V26.14H78.86V24.1H68.96ZM72.58 22.3V25.56H75.26V22.3H72.58ZM72.56 32.78V40.22H75.22V32.78H72.56ZM80.66 22.26V40.78H83.3V22.26H80.66ZM68.18 34.64C71.48 34.64 75.78 34.58 79.78 33.86L79.6 31.94C75.72 32.46 71.22 32.48 67.86 32.48L68.18 34.64ZM86.2184 36.44V38.62H102.978V36.44H86.2184ZM93.1784 32.32V37.02H95.8184V32.32H93.1784ZM93.0784 23.28V24.62C93.0784 27.18 90.8184 30.02 86.5984 30.7L87.6984 32.92C92.5384 32.04 95.3984 28.56 95.3984 24.62V23.28H93.0784ZM93.5984 23.28V24.62C93.5984 28.62 96.4584 32.02 101.318 32.92L102.418 30.7C98.1784 30.02 95.9184 27.24 95.9184 24.62V23.28H93.5984Z" fill="#5B5B5B"/>
</svg>
