<svg width="355" height="161" viewBox="0 0 355 161" fill="none" xmlns="http://www.w3.org/2000/svg">
<rect x="112.5" y="115.5" width="119" height="43" rx="21.5" fill="white" stroke="url(#paint0_linear_0_1)" stroke-width="5"/>
<rect y="128" width="112" height="18" fill="url(#paint1_linear_0_1)"/>
<rect x="232" y="128" width="111" height="18" fill="url(#paint2_linear_0_1)"/>
<path d="M143.32 136.04V136.68H148.8V138.44H136V136.68H141.48V136.04H140.48C139.413 136.04 138.647 135.887 138.18 135.58C137.713 135.26 137.48 134.68 137.48 133.84C137.48 133 137.713 132.427 138.18 132.12C138.647 131.8 139.413 131.64 140.48 131.64H147.48V133.2H140.56C140.067 133.2 139.733 133.247 139.56 133.34C139.4 133.42 139.32 133.587 139.32 133.84C139.32 134.093 139.4 134.267 139.56 134.36C139.733 134.44 140.067 134.48 140.56 134.48H143.8C144.147 134.48 144.427 134.473 144.64 134.46C144.853 134.433 145.02 134.4 145.14 134.36C145.26 134.307 145.34 134.24 145.38 134.16C145.42 134.08 145.44 133.973 145.44 133.84V133.5H147.28V133.84C147.28 134.24 147.227 134.58 147.12 134.86C147.013 135.14 146.827 135.367 146.56 135.54C146.307 135.713 145.96 135.84 145.52 135.92C145.093 136 144.547 136.04 143.88 136.04H143.32ZM152.08 144.24H141.34C140.66 144.24 140.113 144.18 139.7 144.06C139.3 143.94 138.993 143.753 138.78 143.5C138.58 143.247 138.447 142.92 138.38 142.52C138.313 142.12 138.28 141.64 138.28 141.08V138.82H140.12V140.98C140.12 141.287 140.133 141.54 140.16 141.74C140.187 141.927 140.24 142.08 140.32 142.2C140.4 142.32 140.52 142.407 140.68 142.46C140.84 142.5 141.053 142.52 141.32 142.52H152.08V144.24ZM151.88 129.42V133.02H154.2V134.78H151.88V140.24H150.04V129.42H151.88ZM137.08 129.62H141.46V128.62H143.3V129.62H147.7V131.18H137.08V129.62ZM154.608 136.28H171.408V138.04H154.608V136.28ZM159.708 144.22C159.081 144.22 158.534 144.187 158.068 144.12C157.614 144.067 157.234 143.947 156.928 143.76C156.621 143.573 156.388 143.313 156.228 142.98C156.081 142.633 156.008 142.18 156.008 141.62C156.008 141.06 156.081 140.613 156.228 140.28C156.388 139.933 156.621 139.667 156.928 139.48C157.234 139.293 157.614 139.173 158.068 139.12C158.534 139.053 159.081 139.02 159.708 139.02H170.028V140.74H159.788C159.428 140.74 159.121 140.747 158.868 140.76C158.628 140.76 158.428 140.787 158.268 140.84C158.121 140.893 158.014 140.98 157.948 141.1C157.881 141.22 157.848 141.393 157.848 141.62C157.848 141.847 157.881 142.02 157.948 142.14C158.014 142.26 158.121 142.347 158.268 142.4C158.428 142.453 158.628 142.487 158.868 142.5C159.121 142.5 159.428 142.5 159.788 142.5H166.248C166.594 142.5 166.881 142.493 167.108 142.48C167.334 142.453 167.508 142.407 167.628 142.34C167.761 142.26 167.854 142.153 167.908 142.02C167.961 141.873 167.988 141.673 167.988 141.42V141.1H169.828V141.42C169.828 142.02 169.761 142.507 169.628 142.88C169.494 143.24 169.281 143.52 168.988 143.72C168.708 143.92 168.348 144.053 167.908 144.12C167.468 144.187 166.941 144.22 166.328 144.22H159.708ZM161.548 131.56C161.188 131.56 160.881 131.567 160.628 131.58C160.388 131.593 160.181 131.633 160.008 131.7C159.834 131.767 159.681 131.873 159.548 132.02C159.428 132.153 159.308 132.34 159.188 132.58L157.748 135.64H155.808L157.508 132.18C157.761 131.66 158.001 131.247 158.228 130.94C158.468 130.62 158.734 130.38 159.028 130.22C159.321 130.06 159.668 129.953 160.068 129.9C160.468 129.847 160.968 129.82 161.568 129.82H164.428C165.028 129.82 165.528 129.847 165.928 129.9C166.328 129.953 166.674 130.06 166.968 130.22C167.261 130.38 167.521 130.62 167.748 130.94C167.988 131.247 168.234 131.66 168.488 132.18L170.188 135.64H168.248L166.808 132.58C166.688 132.34 166.561 132.153 166.428 132.02C166.308 131.873 166.161 131.767 165.988 131.7C165.814 131.633 165.601 131.593 165.348 131.58C165.108 131.567 164.808 131.56 164.448 131.56H161.548ZM188.496 129.42V144.24H186.656V129.42H188.496ZM177.556 131.58C177.396 131.58 177.249 131.6 177.116 131.64C176.982 131.667 176.862 131.74 176.756 131.86C176.662 131.967 176.582 132.127 176.516 132.34C176.449 132.54 176.396 132.82 176.356 133.18L175.056 144.04H173.216L174.656 132.78C174.789 131.74 175.089 130.987 175.556 130.52C176.022 130.053 176.676 129.82 177.516 129.82H179.476C180.316 129.82 180.969 130.053 181.436 130.52C181.902 130.987 182.202 131.74 182.336 132.78L183.776 144.04H181.936L180.636 133.18C180.596 132.82 180.536 132.54 180.456 132.34C180.389 132.127 180.302 131.967 180.196 131.86C180.102 131.74 179.989 131.667 179.856 131.64C179.736 131.6 179.596 131.58 179.436 131.58H177.556ZM206.503 129.42V140.24H204.663V129.42H206.503ZM206.703 144.24H195.363C194.683 144.24 194.137 144.18 193.723 144.06C193.323 143.94 193.017 143.753 192.803 143.5C192.603 143.247 192.47 142.92 192.403 142.52C192.337 142.12 192.303 141.64 192.303 141.08V138.82H194.143V140.98C194.143 141.287 194.157 141.54 194.183 141.74C194.21 141.927 194.263 142.08 194.343 142.2C194.423 142.32 194.543 142.407 194.703 142.46C194.863 142.5 195.077 142.52 195.343 142.52H206.703V144.24ZM197.903 136.08C198.303 136.08 198.623 136.053 198.863 136C199.103 135.947 199.283 135.853 199.403 135.72C199.523 135.573 199.603 135.387 199.643 135.16C199.683 134.933 199.703 134.64 199.703 134.28V131.58H193.343V134.28C193.343 134.64 193.363 134.933 193.403 135.16C193.443 135.387 193.523 135.573 193.643 135.72C193.763 135.853 193.943 135.947 194.183 136C194.423 136.053 194.743 136.08 195.143 136.08H197.903ZM195.163 137.84C194.39 137.84 193.763 137.793 193.283 137.7C192.817 137.593 192.45 137.413 192.183 137.16C191.917 136.893 191.737 136.533 191.643 136.08C191.55 135.613 191.503 135.013 191.503 134.28V129.82H201.543V134.28C201.543 135.013 201.497 135.613 201.403 136.08C201.31 136.533 201.13 136.893 200.863 137.16C200.597 137.413 200.223 137.593 199.743 137.7C199.277 137.793 198.657 137.84 197.883 137.84H195.163Z" fill="black"/>
<rect x="61" y="75" width="59" height="32" rx="16" fill="#F9ACCA" fill-opacity="0.7"/>
<rect x="99" y="51" width="55" height="56" rx="20" fill="#79DEE2" fill-opacity="0.7"/>
<path fill-rule="evenodd" clip-rule="evenodd" d="M211.792 106.698C211.792 91.6614 199.603 79.4717 184.566 79.4717C169.529 79.4717 157.34 91.6614 157.34 106.698H211.792Z" fill="#B7ADF6" fill-opacity="0.7"/>
<ellipse cx="215" cy="80.5" rx="21" ry="26.5" fill="#FDAA02" fill-opacity="0.7"/>
<path d="M238.648 65.8438C242.395 58.7132 252.605 58.7132 256.352 65.8438L270.544 92.8479C274.043 99.5068 269.214 107.5 261.692 107.5H233.308C225.786 107.5 220.957 99.5068 224.456 92.8479L238.648 65.8438Z" fill="#6BF200" fill-opacity="0.7"/>
<rect x="145" y="11" width="23" height="96" rx="11.5" fill="#FB5002" fill-opacity="0.7"/>
<circle cx="69.9008" cy="85.2311" r="1.57075" fill="black"/>
<circle cx="74.0896" cy="85.2311" r="1.57075" fill="black"/>
<circle cx="133.778" cy="59.0519" r="1.57075" fill="black"/>
<circle cx="137.967" cy="59.0519" r="1.57075" fill="black"/>
<circle cx="251.061" cy="77.9009" r="1.57075" fill="black"/>
<circle cx="255.25" cy="77.9009" r="1.57075" fill="black"/>
<ellipse cx="182.5" cy="87" rx="1.5" ry="2" fill="black"/>
<ellipse cx="189" cy="87" rx="1" ry="2" fill="black"/>
<path fill-rule="evenodd" clip-rule="evenodd" d="M148.962 19.783H150.009C150.009 20.3614 150.478 20.8302 151.057 20.8302C151.635 20.8302 152.104 20.3614 152.104 19.783L153.151 19.783C153.151 20.9397 152.213 21.8774 151.056 21.8774C149.9 21.8774 148.962 20.9397 148.962 19.783Z" fill="black"/>
<path fill-rule="evenodd" clip-rule="evenodd" d="M215.981 62.717C215.981 61.5603 215.044 60.6226 213.887 60.6226C212.73 60.6226 211.793 61.5603 211.793 62.717L212.84 62.717C212.84 62.717 212.84 62.717 212.84 62.717C212.84 62.1386 213.308 61.6698 213.887 61.6698C214.465 61.6698 214.934 62.1386 214.934 62.717C214.934 62.717 214.934 62.717 214.934 62.717L215.981 62.717Z" fill="black"/>
<path fill-rule="evenodd" clip-rule="evenodd" d="M154.198 19.783H155.246C155.246 20.3614 155.714 20.8302 156.293 20.8302C156.871 20.8302 157.34 20.3614 157.34 19.783L158.387 19.783C158.387 20.9397 157.449 21.8774 156.293 21.8774C155.136 21.8774 154.198 20.9397 154.198 19.783Z" fill="black"/>
<path fill-rule="evenodd" clip-rule="evenodd" d="M210.745 62.717C210.745 61.5603 209.808 60.6226 208.651 60.6226C207.494 60.6226 206.557 61.5603 206.557 62.717L207.604 62.717C207.604 62.717 207.604 62.717 207.604 62.717C207.604 62.1386 208.073 61.6698 208.651 61.6698C209.229 61.6698 209.698 62.1386 209.698 62.717C209.698 62.717 209.698 62.717 209.698 62.717L210.745 62.717Z" fill="black"/>
<g filter="url(#filter0_d_0_1)">
<path fill-rule="evenodd" clip-rule="evenodd" d="M189.796 0C180.52 0 173 7.51973 173 16.7958C173 26.0719 180.52 33.5916 189.796 33.5916H196.161C196.203 33.6693 196.252 33.7458 196.306 33.8205L201.817 41.3666C202.616 42.4606 204.249 42.4606 205.047 41.3666L210.558 33.8205C210.613 33.7458 210.661 33.6693 210.704 33.5916H334.204C343.48 33.5916 351 26.0719 351 16.7958C351 7.51973 343.48 0 334.204 0H189.796Z" fill="#71C9DD"/>
</g>
<path d="M181.848 11.592V12.396H188.832V11.592H181.848ZM188.184 11.592V12.432C188.184 13.32 188.184 14.316 187.86 15.72L188.844 15.828C189.156 14.4 189.156 13.332 189.156 12.432V11.592H188.184ZM188.46 13.428L181.572 13.644L181.704 14.436L188.46 14.136V13.428ZM180.6 15.528V16.32H190.392V15.528H180.6ZM181.74 17.352V18.12H188.256V19.14H181.764V21.348H182.748V19.884H189.24V17.352H181.74ZM181.764 21.012V21.792H189.612V21.012H181.764ZM199.523 11.088V17.724H200.531V11.088H199.523ZM193.283 18.312V19.128H199.523V21.936H200.531V18.312H193.283ZM192.191 16.296V17.112H193.067C195.083 17.112 196.547 17.064 198.335 16.764L198.227 15.96C196.487 16.236 195.035 16.296 193.067 16.296H192.191ZM192.167 11.724V12.54H196.115V13.968H192.191V16.692H193.163V14.736H197.087V11.724H192.167ZM210.022 11.088V21.936H211.018V11.088H210.022ZM210.778 15.54V16.38H212.794V15.54H210.778ZM202.618 12.816V13.632H209.014V12.816H202.618ZM205.858 14.532C204.334 14.532 203.218 15.564 203.218 17.028C203.218 18.492 204.334 19.524 205.858 19.524C207.394 19.524 208.498 18.492 208.498 17.028C208.498 15.564 207.394 14.532 205.858 14.532ZM205.858 15.36C206.842 15.36 207.55 16.044 207.55 17.028C207.55 18 206.842 18.696 205.858 18.696C204.874 18.696 204.166 18 204.166 17.028C204.166 16.044 204.874 15.36 205.858 15.36ZM205.342 11.22V13.188H206.338V11.22H205.342ZM216.573 12.024V13.968C216.573 16.02 215.265 18.096 213.657 18.864L214.269 19.68C216.045 18.78 217.389 16.464 217.389 13.968V12.024H216.573ZM216.741 12.024V13.968C216.741 16.38 218.097 18.612 219.861 19.476L220.461 18.684C218.853 17.94 217.557 15.948 217.557 13.968V12.024H216.741ZM221.589 11.076V21.948H222.585V11.076H221.589ZM229.952 12.996V13.812H232.988V12.996H229.952ZM229.952 15.312V16.14H233.012V15.312H229.952ZM225.248 12.024V17.112H230.204V12.024H225.248ZM229.22 12.828V16.308H226.22V12.828H229.22ZM232.676 11.1V19.02H233.672V11.1H232.676ZM226.7 20.88V21.696H233.936V20.88H226.7ZM226.7 18.3V21.252H227.696V18.3H226.7ZM241.121 13.86V14.424C241.121 16.188 240.281 18.072 238.805 18.936L239.405 19.692C240.989 18.744 241.889 16.572 241.889 14.424V13.86H241.121ZM241.301 13.86V14.424C241.301 16.512 242.237 18.564 243.833 19.452L244.397 18.708C242.945 17.916 242.069 16.14 242.069 14.424V13.86H241.301ZM239.081 13.104V13.92H244.109V13.104H239.081ZM241.121 11.472V13.716H242.081V11.472H241.121ZM247.205 11.088V21.936H248.153V11.088H247.205ZM245.489 15.456V16.296H247.577V15.456H245.489ZM244.841 11.316V21.396H245.777V11.316H244.841ZM250.576 16.236V17.04H251.452C253.816 17.04 255.136 17.004 256.708 16.728L256.6 15.936C255.076 16.188 253.792 16.236 251.452 16.236H250.576ZM250.576 11.88V16.644H251.56V12.684H255.736V11.88H250.576ZM251.236 14.028V14.82H255.436V14.028H251.236ZM257.836 11.1V17.808H258.844V11.1H257.836ZM255.256 17.964C252.988 17.964 251.608 18.684 251.608 19.932C251.608 21.192 252.988 21.912 255.256 21.912C257.512 21.912 258.892 21.192 258.892 19.932C258.892 18.684 257.512 17.964 255.256 17.964ZM255.256 18.756C256.9 18.756 257.896 19.188 257.896 19.932C257.896 20.7 256.9 21.132 255.256 21.132C253.6 21.132 252.604 20.7 252.604 19.932C252.604 19.188 253.6 18.756 255.256 18.756ZM265.947 17.892C263.739 17.892 262.383 18.636 262.383 19.908C262.383 21.18 263.739 21.924 265.947 21.924C268.155 21.924 269.511 21.18 269.511 19.908C269.511 18.636 268.155 17.892 265.947 17.892ZM265.947 18.696C267.555 18.696 268.539 19.14 268.539 19.908C268.539 20.688 267.555 21.132 265.947 21.132C264.339 21.132 263.355 20.688 263.355 19.908C263.355 19.14 264.339 18.696 265.947 18.696ZM268.407 11.088V17.604H269.403V11.088H268.407ZM269.127 13.812V14.652H271.011V13.812H269.127ZM261.435 11.772V16.776H266.451V11.772H265.479V13.392H262.419V11.772H261.435ZM262.419 14.184H265.479V15.972H262.419V14.184ZM276.926 11.772C274.67 11.772 272.978 12.972 272.978 14.772C272.978 16.584 274.67 17.772 276.926 17.772C279.182 17.772 280.862 16.584 280.862 14.772C280.862 12.972 279.182 11.772 276.926 11.772ZM276.926 12.588C278.642 12.588 279.914 13.464 279.914 14.772C279.914 16.068 278.642 16.956 276.926 16.956C275.21 16.956 273.938 16.068 273.938 14.772C273.938 13.464 275.21 12.588 276.926 12.588ZM272.03 19.668V20.508H281.858V19.668H272.03ZM283.069 19.776V20.604H292.897V19.776H283.069ZM287.461 17.448V20.124H288.457V17.448H287.461ZM284.257 11.892V12.696H290.701V14.376H284.293V17.352H285.277V15.18H291.685V11.892H284.257ZM284.293 16.932V17.748H291.937V16.932H284.293ZM299.157 17.868V21.792H306.141V17.868H299.157ZM305.169 18.66V20.988H300.129V18.66H305.169ZM297.849 11.736V16.236H298.845V11.736H297.849ZM297.849 15.804V16.656H298.677C300.453 16.656 301.953 16.548 303.609 16.212L303.489 15.372C301.881 15.708 300.417 15.804 298.677 15.804H297.849ZM305.145 11.088V17.328H306.141V11.088H305.145ZM302.085 13.116V13.932H305.397V13.116H302.085ZM311.156 11.916C309.572 11.916 308.456 13.392 308.456 15.696C308.456 18.012 309.572 19.488 311.156 19.488C312.728 19.488 313.856 18.012 313.856 15.696C313.856 13.392 312.728 11.916 311.156 11.916ZM311.156 12.816C312.2 12.816 312.908 13.944 312.908 15.696C312.908 17.46 312.2 18.612 311.156 18.612C310.112 18.612 309.404 17.46 309.404 15.696C309.404 13.944 310.112 12.816 311.156 12.816ZM316.208 11.076V21.948H317.192V11.076H316.208ZM313.532 15.216V16.032H316.64V15.216H313.532ZM326.635 11.076V21.936H327.643V11.076H326.635ZM327.367 15.48V16.308H329.371V15.48H327.367ZM323.863 12.252V12.408C323.863 15.276 322.363 17.592 319.363 19.116L319.915 19.884C323.419 18.12 324.835 15.336 324.835 12.252H323.863ZM319.867 12.252V13.068H324.379V12.252H319.867ZM332.742 16.668V19.92H333.726V16.668H332.742ZM336.75 16.668V19.92H337.746V16.668H336.75ZM330.342 19.728V20.556H340.17V19.728H330.342ZM335.238 11.772C332.934 11.772 331.29 12.864 331.29 14.568C331.29 16.26 332.934 17.352 335.238 17.352C337.53 17.352 339.174 16.26 339.174 14.568C339.174 12.864 337.53 11.772 335.238 11.772ZM335.238 12.564C336.978 12.564 338.214 13.356 338.214 14.568C338.214 15.768 336.978 16.56 335.238 16.56C333.498 16.56 332.25 15.768 332.25 14.568C332.25 13.356 333.498 12.564 335.238 12.564ZM342.509 18.756H342.017L341.861 12.432H342.665L342.509 18.756ZM341.729 20.544C341.729 20.344 341.773 20.196 341.861 20.1C341.949 20.004 342.077 19.956 342.245 19.956C342.413 19.956 342.541 20.004 342.629 20.1C342.725 20.196 342.773 20.344 342.773 20.544C342.773 20.736 342.725 20.884 342.629 20.988C342.541 21.084 342.413 21.132 342.245 21.132C342.077 21.132 341.949 21.084 341.861 20.988C341.773 20.884 341.729 20.736 341.729 20.544Z" fill="white"/>
<defs>
<filter id="filter0_d_0_1" x="169" y="0" width="186" height="50.1871" filterUnits="userSpaceOnUse" color-interpolation-filters="sRGB">
<feFlood flood-opacity="0" result="BackgroundImageFix"/>
<feColorMatrix in="SourceAlpha" type="matrix" values="0 0 0 0 0 0 0 0 0 0 0 0 0 0 0 0 0 0 127 0" result="hardAlpha"/>
<feOffset dy="4"/>
<feGaussianBlur stdDeviation="2"/>
<feComposite in2="hardAlpha" operator="out"/>
<feColorMatrix type="matrix" values="0 0 0 0 0 0 0 0 0 0 0 0 0 0 0 0 0 0 0.25 0"/>
<feBlend mode="normal" in2="BackgroundImageFix" result="effect1_dropShadow_0_1"/>
<feBlend mode="normal" in="SourceGraphic" in2="effect1_dropShadow_0_1" result="shape"/>
</filter>
<linearGradient id="paint0_linear_0_1" x1="136.5" y1="129" x2="214.166" y2="153.556" gradientUnits="userSpaceOnUse">
<stop stop-color="#FE619E" stop-opacity="0.49"/>
<stop offset="1" stop-color="#01CCD2" stop-opacity="0.5"/>
</linearGradient>
<linearGradient id="paint1_linear_0_1" x1="95.2982" y1="137" x2="37.9606" y2="166.39" gradientUnits="userSpaceOnUse">
<stop stop-color="#F9ACCA"/>
<stop offset="1" stop-color="#FB5000" stop-opacity="0.5"/>
</linearGradient>
<linearGradient id="paint2_linear_0_1" x1="245.632" y1="139.5" x2="318.306" y2="162.498" gradientUnits="userSpaceOnUse">
<stop stop-color="#79DEE2"/>
<stop offset="1" stop-color="#8367F9" stop-opacity="0.5"/>
</linearGradient>
</defs>
</svg>
