<svg width="234" height="134" viewBox="0 0 234 134" fill="none" xmlns="http://www.w3.org/2000/svg">
<rect x="57.5" y="88.5" width="119" height="43" rx="21.5" fill="white" stroke="url(#paint0_linear_0_1)" stroke-width="5"/>
<rect y="101" width="57" height="18" fill="url(#paint1_linear_0_1)"/>
<rect x="177" y="101" width="57" height="18" fill="url(#paint2_linear_0_1)"/>
<path d="M93.34 100.48V114.64H95V100.48H93.34ZM94.3 106.78V108.16H97.64V106.78H94.3ZM83.56 116.8V118.16H95.64V116.8H83.56ZM83.56 113.7V117.22H85.22V113.7H83.56ZM85.72 109.32V111.78H87.38V109.32H85.72ZM81.1 112.56C84.24 112.54 88.58 112.46 92.4 111.76L92.26 110.58C88.54 111.16 84.08 111.22 80.88 111.22L81.1 112.56ZM81.34 102.24V103.5H91.72V102.24H81.34ZM86.54 104.24C84 104.24 82.32 105.3 82.32 107.02C82.32 108.76 84 109.82 86.54 109.82C89.08 109.82 90.74 108.76 90.74 107.02C90.74 105.3 89.08 104.24 86.54 104.24ZM86.54 105.42C88.14 105.42 89.18 106.04 89.18 107.02C89.18 108.02 88.14 108.62 86.54 108.62C84.92 108.62 83.88 108.02 83.88 107.02C83.88 106.04 84.92 105.42 86.54 105.42ZM85.72 100.4V102.8H87.38V100.4H85.72ZM106.718 100.78V101.58C106.718 103.92 103.578 105.92 100.338 106.36L100.958 107.68C104.658 107.08 108.138 104.78 108.138 101.58V100.78H106.718ZM106.978 100.78V101.58C106.978 104.72 110.478 107.08 114.158 107.68L114.778 106.36C111.578 105.92 108.398 103.88 108.398 101.58V100.78H106.978ZM99.3784 109.1V110.46H115.718V109.1H99.3784ZM107.538 112.12C103.658 112.12 101.338 113.28 101.338 115.32C101.338 117.4 103.658 118.54 107.538 118.54C111.418 118.54 113.738 117.4 113.738 115.32C113.738 113.28 111.418 112.12 107.538 112.12ZM107.538 113.4C110.378 113.4 112.058 114.12 112.058 115.32C112.058 116.56 110.378 117.26 107.538 117.26C104.718 117.26 103.018 116.56 103.018 115.32C103.018 114.12 104.718 113.4 107.538 113.4ZM122.557 102.04V105.28C122.557 108.7 120.377 112.16 117.697 113.44L118.717 114.8C121.677 113.3 123.917 109.44 123.917 105.28V102.04H122.557ZM122.837 102.04V105.28C122.837 109.3 125.097 113.02 128.037 114.46L129.037 113.14C126.357 111.9 124.197 108.58 124.197 105.28V102.04H122.837ZM130.917 100.46V118.58H132.577V100.46H130.917ZM137.135 102.04V110.46H145.555V102.04H137.135ZM143.955 103.38V109.12H138.735V103.38H143.955ZM149.335 100.5V113.48H151.015V100.5H149.335ZM139.395 116.6V117.98H151.555V116.6H139.395ZM139.395 112.24V117.16H141.035V112.24H139.395Z" fill="black"/>
<rect y="31" width="56" height="30" rx="15" fill="#F9ACCA" fill-opacity="0.7"/>
<rect x="46" y="19" width="53" height="53" rx="20" fill="#79DEE2" fill-opacity="0.7"/>
<path fill-rule="evenodd" clip-rule="evenodd" d="M153 59C153 44.6406 141.359 33 127 33C112.641 33 101 44.6406 101 59H153Z" fill="#B7ADF6" fill-opacity="0.7"/>
<ellipse cx="163" cy="46" rx="20" ry="25" fill="#FDAA02" fill-opacity="0.7"/>
<path d="M198.166 25.6506C201.925 18.5661 212.075 18.5661 215.834 25.6506L228.653 49.8134C232.187 56.4737 227.359 64.5 219.819 64.5H194.181C186.641 64.5 181.813 56.4737 185.347 49.8134L198.166 25.6506Z" fill="#6BF200" fill-opacity="0.7"/>
<rect x="89" width="22" height="91" rx="11" fill="#FB5002" fill-opacity="0.7"/>
<circle cx="8.5" cy="41.5" r="1.5" fill="black"/>
<circle cx="12.5" cy="41.5" r="1.5" fill="black"/>
<circle cx="78.5" cy="33.5" r="1.5" fill="black"/>
<circle cx="82.5" cy="33.5" r="1.5" fill="black"/>
<circle cx="212.5" cy="39.5" r="1.5" fill="black"/>
<circle cx="216.5" cy="39.5" r="1.5" fill="black"/>
<ellipse cx="128" cy="43" rx="1" ry="2" fill="black"/>
<ellipse cx="134" cy="43" rx="1" ry="2" fill="black"/>
<path fill-rule="evenodd" clip-rule="evenodd" d="M96 9C96 10.1046 96.8954 11 98 11C99.1046 11 100 10.1046 100 9H99C99 9.55228 98.5523 10 98 10C97.4477 10 97 9.55228 97 9H96Z" fill="black"/>
<path fill-rule="evenodd" clip-rule="evenodd" d="M164 40C164 38.8954 163.105 38 162 38C160.895 38 160 38.8954 160 40L161 40C161 39.4477 161.448 39 162 39C162.552 39 163 39.4477 163 40L164 40Z" fill="black"/>
<path fill-rule="evenodd" clip-rule="evenodd" d="M101 9C101 10.1046 101.895 11 103 11C104.105 11 105 10.1046 105 9H104C104 9.55228 103.552 10 103 10C102.448 10 102 9.55228 102 9H101Z" fill="black"/>
<path fill-rule="evenodd" clip-rule="evenodd" d="M159 40C159 38.8954 158.105 38 157 38C155.895 38 155 38.8954 155 40L156 40C156 39.4477 156.448 39 157 39C157.552 39 158 39.4477 158 40L159 40Z" fill="black"/>
<defs>
<linearGradient id="paint0_linear_0_1" x1="81.5" y1="102" x2="159.166" y2="126.556" gradientUnits="userSpaceOnUse">
<stop stop-color="#FE619E" stop-opacity="0.49"/>
<stop offset="1" stop-color="#01CCD2" stop-opacity="0.5"/>
</linearGradient>
<linearGradient id="paint1_linear_0_1" x1="48.5" y1="110" x2="14" y2="119" gradientUnits="userSpaceOnUse">
<stop stop-color="#F9ACCA"/>
<stop offset="1" stop-color="#FB5000" stop-opacity="0.5"/>
</linearGradient>
<linearGradient id="paint2_linear_0_1" x1="184" y1="112.5" x2="224" y2="119" gradientUnits="userSpaceOnUse">
<stop stop-color="#79DEE2"/>
<stop offset="1" stop-color="#8367F9" stop-opacity="0.5"/>
</linearGradient>
</defs>
</svg>
