<svg width="50" height="50" viewBox="0 0 50 50" fill="none" xmlns="http://www.w3.org/2000/svg">
<circle cx="25" cy="25" r="25" fill="#FA3A45" fill-opacity="0.8"/>
<g clip-path="url(#clip0_821_2265)">
<path d="M32.8384 11.4888L39.173 16.7756L37.413 18.8863L31.0742 13.6021L32.8384 11.4888ZM18.1616 11.4888L19.9244 13.6008L13.5884 18.8863L11.8284 16.7743L18.1616 11.4888ZM25.5 14.5C18.6662 14.5 13.125 20.0413 13.125 26.875C13.125 33.7088 18.6662 39.25 25.5 39.25C32.3337 39.25 37.875 33.7088 37.875 26.875C37.875 20.0413 32.3337 14.5 25.5 14.5ZM25.5 36.5C20.1925 36.5 15.875 32.1825 15.875 26.875C15.875 21.5675 20.1925 17.25 25.5 17.25C30.8075 17.25 35.125 21.5675 35.125 26.875C35.125 32.1825 30.8075 36.5 25.5 36.5ZM26.875 21.375H24.125V25.5H20V28.25H24.125V32.375H26.875V28.25H31V25.5H26.875V21.375Z" fill="white"/>
</g>
<defs>
<clipPath id="clip0_821_2265">
<rect width="33" height="33" fill="white" transform="translate(9 9)"/>
</clipPath>
</defs>
</svg>
