<svg width="50" height="50" viewBox="0 0 50 50" fill="none" xmlns="http://www.w3.org/2000/svg">
<circle cx="25" cy="25" r="25" fill="#FA3A45" fill-opacity="0.8"/>
<g clip-path="url(#clip0_821_2811)">
<path d="M22.8738 30.4363L24.8125 32.375L31.6875 25.5L24.8125 18.625L22.8738 20.5637L26.4213 24.125H13.125V26.875H26.4213L22.8738 30.4363ZM35.125 13.125H15.875C14.3487 13.125 13.125 14.3625 13.125 15.875V21.375H15.875V15.875H35.125V35.125H15.875V29.625H13.125V35.125C13.125 36.6375 14.3487 37.875 15.875 37.875H35.125C36.6375 37.875 37.875 36.6375 37.875 35.125V15.875C37.875 14.3625 36.6375 13.125 35.125 13.125Z" fill="white"/>
</g>
<defs>
<clipPath id="clip0_821_2811">
<rect width="33" height="33" fill="white" transform="translate(9 9)"/>
</clipPath>
</defs>
</svg>
