<svg width="50" height="50" viewBox="0 0 50 50" fill="none" xmlns="http://www.w3.org/2000/svg">
<circle cx="25" cy="25" r="25" fill="#FA3A45" fill-opacity="0.8"/>
<g clip-path="url(#clip0_921_2342)">
<path d="M29.625 14.5V24.125H16.1088L15.2975 24.9363L14.5 25.7338V14.5H29.625ZM31 11.75H13.125C12.3687 11.75 11.75 12.3687 11.75 13.125V32.375L17.25 26.875H31C31.7563 26.875 32.375 26.2563 32.375 25.5V13.125C32.375 12.3687 31.7563 11.75 31 11.75ZM37.875 17.25H35.125V29.625H17.25V32.375C17.25 33.1313 17.8688 33.75 18.625 33.75H33.75L39.25 39.25V18.625C39.25 17.8688 38.6313 17.25 37.875 17.25Z" fill="white"/>
</g>
<defs>
<clipPath id="clip0_921_2342">
<rect width="33" height="33" fill="white" transform="translate(9 9)"/>
</clipPath>
</defs>
</svg>
