<svg width="20" height="20" viewBox="0 0 20 20" fill="none" xmlns="http://www.w3.org/2000/svg">
<g clip-path="url(#clip0_1395_2205)">
<path fill-rule="evenodd" clip-rule="evenodd" d="M10.7778 4.26711C11.2309 4.10696 11.5556 3.67481 11.5556 3.16683C11.5556 2.5225 11.0332 2.00016 10.3889 2.00016C9.74456 2.00016 9.22222 2.5225 9.22222 3.16683C9.22222 3.58709 9.44443 3.95545 9.77777 4.16083V5.11122H6.55556C5.45099 5.11122 4.55556 6.00665 4.55556 7.11122V9.00011H3V12.1112H4.55556V14.0001C4.55556 15.1047 5.45099 16.0001 6.55556 16.0001H9.22222V18.3334L10.9722 16.0001H13.4444C14.549 16.0001 15.4444 15.1047 15.4444 14.0001V12.1112H17V9.00011H15.4444V7.11122C15.4444 6.00665 14.549 5.11122 13.4444 5.11122H10.7778V4.26711ZM7.66667 8.22222C7.23711 8.22222 6.88889 8.57045 6.88889 9C6.88889 9.42955 7.23711 9.77778 7.66667 9.77778C8.09622 9.77778 8.44444 9.42955 8.44444 9C8.44444 8.57045 8.09622 8.22222 7.66667 8.22222ZM11.5556 9C11.5556 8.57045 11.9038 8.22222 12.3333 8.22222C12.7629 8.22222 13.1111 8.57045 13.1111 9C13.1111 9.42955 12.7629 9.77778 12.3333 9.77778C11.9038 9.77778 11.5556 9.42955 11.5556 9ZM12.5947 11.7596C12.8301 11.6152 12.9039 11.3074 12.7596 11.072C12.6152 10.8366 12.3074 10.7627 12.072 10.9071C9.98019 12.1896 8.45989 11.4111 8.01681 10.9764C7.81969 10.783 7.50312 10.7861 7.30974 10.9832C7.11636 11.1803 7.11939 11.4969 7.31652 11.6903C8.07003 12.4295 10.0916 13.2943 12.5947 11.7596Z" fill="white"/>
</g>
<defs>
<clipPath id="clip0_1395_2205">
<rect width="20" height="20" fill="white"/>
</clipPath>
</defs>
</svg>
