<svg width="250" height="160" viewBox="0 0 250 160" fill="none" xmlns="http://www.w3.org/2000/svg">
<rect width="250" height="160" fill="#FA3A45"/>
<path d="M209.78 57.292H167.331H165.257V54.9672C165.257 53.4459 164.095 52.2104 162.657 52.2104H136.021C134.586 52.2104 133.421 53.4427 133.421 54.9672V57.292H83.6404C82.9633 57.292 82.3072 57.3682 81.675 57.5047C64.696 59.3722 60.0131 73.1716 51.5042 90.3217C48.6099 96.1527 51.5042 102.568 56.7414 107.789H83.6404H85.549H130.652H167.331H178.59C181.982 107.789 184.732 104.874 184.732 101.279C184.732 98.9222 183.546 96.8642 181.778 95.7208H186.539C190.245 95.7208 193.25 92.8053 193.25 89.2101C193.25 86.6154 191.68 84.3795 189.415 83.3347H197.013C200.719 83.3347 203.724 80.4191 203.724 76.824C203.724 73.2288 200.719 70.3133 197.013 70.3133H209.78C213.486 70.3133 216.491 67.3978 216.491 63.8026C216.491 60.2075 213.486 57.292 209.78 57.292ZM109.035 79.6506C109.035 81.3338 107.621 82.6995 105.878 82.6995H80.7043H73.2439C71.5002 82.6995 70.086 81.3338 70.086 79.6506V73.648C70.086 68.6491 75.53 64.5966 80.7043 64.5966H90.1779V64.6411C90.1779 64.6443 90.1779 64.6474 90.1809 64.6506C90.1809 64.657 90.1779 64.6633 90.1779 64.6697V66.6483C89.2342 67.1818 87.2178 68.4998 86.7114 70.1958L86.6845 70.2688C86.5527 71.4376 87.05 72.5047 87.9938 72.9525C88.3084 73.1272 88.6499 73.2002 89.0155 73.2002C89.6446 73.2002 90.2738 72.9779 90.927 72.5047C92.4969 73.4988 93.5725 73.1748 94.0699 72.8763C94.9088 72.4031 95.3013 71.3868 95.0916 70.1672C94.5642 68.4967 92.2393 67.0167 91.4333 66.5435V64.6633C91.4333 64.657 91.4303 64.6506 91.4303 64.6443C91.4303 64.6411 91.4333 64.6379 91.4333 64.6347V64.5966H105.875C107.618 64.5966 109.032 65.9623 109.032 67.6455V79.6506H109.035ZM90.876 67.4105C91.8198 67.9568 93.6774 69.2494 94.0699 70.4181C94.1747 71.1645 93.992 71.7838 93.5186 72.0569C92.9673 72.3554 92.1314 72.1808 91.1876 71.5106L90.8461 71.2629L90.5584 71.536C89.8004 72.1585 89.0394 72.3554 88.4881 72.0823C87.9369 71.8092 87.6492 71.1613 87.7032 70.4181C88.1795 68.9762 90.169 67.7853 90.876 67.4105ZM139.79 78.5676C139.79 80.8511 138.044 82.6995 135.893 82.6995H117.026C114.872 82.6995 113.128 80.8479 113.128 78.5676V68.4109C113.128 66.1274 114.875 64.279 117.026 64.279H125.235V64.3235C125.235 64.3267 125.235 64.3298 125.238 64.333C125.238 64.3394 125.235 64.3457 125.235 64.3521V66.3307C124.292 66.8642 122.275 68.1823 121.769 69.8782L121.742 69.9512C121.61 71.12 122.107 72.1871 123.051 72.6349C123.366 72.8096 123.707 72.8826 124.073 72.8826C124.702 72.8826 125.331 72.6603 125.984 72.1871C127.554 73.1812 128.63 72.8572 129.127 72.5587C129.966 72.0855 130.359 71.0692 130.149 69.8496C129.622 68.1791 127.297 66.6991 126.491 66.2259V64.3457C126.491 64.3394 126.488 64.333 126.488 64.3267C126.488 64.3235 126.491 64.3203 126.491 64.3171V64.279H135.893C138.047 64.279 139.79 66.1306 139.79 68.4109V78.5676ZM125.93 67.0929C126.874 67.6392 128.732 68.9318 129.124 70.1005C129.229 70.8469 129.046 71.4662 128.573 71.7393C128.022 72.0378 127.186 71.8632 126.242 71.193L125.901 70.9453L125.613 71.2184C124.855 71.8409 124.094 72.0378 123.543 71.7647C122.991 71.4916 122.704 70.8437 122.758 70.1005C123.234 68.6586 125.223 67.4677 125.93 67.0929ZM154.771 89.515C154.771 91.4524 153.291 93.0213 151.463 93.0213H147.443C145.615 93.0213 144.135 91.4524 144.135 89.515V68.2616C144.135 66.3243 145.615 64.7554 147.443 64.7554H151.463C153.291 64.7554 154.771 66.3243 154.771 68.2616V89.515ZM167.954 89.6929C167.954 91.5318 166.549 93.0213 164.814 93.0213H160.458C158.723 93.0213 157.318 91.5318 157.318 89.6929V68.0838C157.318 66.2449 158.723 64.7554 160.458 64.7554H164.814C166.549 64.7554 167.954 66.2449 167.954 68.0838V89.6929Z" fill="white"/>
</svg>
