<svg width="20" height="20" viewBox="0 0 20 20" fill="none" xmlns="http://www.w3.org/2000/svg">
<path d="M18.4863 9.86327L10.4414 1.8242C10.3835 1.76616 10.3147 1.72012 10.2389 1.6887C10.1632 1.65728 10.082 1.64111 10 1.64111C9.918 1.64111 9.83681 1.65728 9.76106 1.6887C9.68532 1.72012 9.61652 1.76616 9.55859 1.8242L1.51367 9.86327C1.2793 10.0976 1.14648 10.416 1.14648 10.748C1.14648 11.4375 1.70703 11.998 2.39648 11.998H3.24414V17.7344C3.24414 18.0801 3.52344 18.3594 3.86914 18.3594H8.75V13.9844H10.9375V18.3594H16.1309C16.4766 18.3594 16.7559 18.0801 16.7559 17.7344V11.998H17.6035C17.9355 11.998 18.2539 11.8672 18.4883 11.6308C18.9746 11.1426 18.9746 10.3515 18.4863 9.86327Z" fill="white"/>
</svg>
