<svg width="20" height="20" viewBox="0 0 20 20" fill="none" xmlns="http://www.w3.org/2000/svg">
<path d="M16.5625 7.08341H12.8125C12.5915 7.08341 12.3795 6.99562 12.2232 6.83934C12.067 6.68306 11.9792 6.4711 11.9792 6.25008C11.9792 6.02907 12.067 5.81711 12.2232 5.66083C12.3795 5.50455 12.5915 5.41675 12.8125 5.41675H15.7292V2.50008C15.7292 2.27907 15.817 2.06711 15.9732 1.91083C16.1295 1.75455 16.3415 1.66675 16.5625 1.66675C16.7835 1.66675 16.9955 1.75455 17.1517 1.91083C17.308 2.06711 17.3958 2.27907 17.3958 2.50008V6.25008C17.3958 6.4711 17.308 6.68306 17.1517 6.83934C16.9955 6.99562 16.7835 7.08341 16.5625 7.08341Z" fill="white"/>
<path d="M10 18.3334C8.53693 18.3347 7.09931 17.9507 5.83169 17.2202C4.56407 16.4896 3.51112 15.4382 2.77873 14.1717C2.04633 12.9051 1.6603 11.468 1.65944 10.005C1.65858 8.54189 2.04293 7.10438 2.77385 5.83696C3.50476 4.56955 4.55647 3.5169 5.82324 2.78486C7.09 2.05282 8.52717 1.66719 9.99024 1.66675C11.4533 1.6663 12.8907 2.05106 14.1579 2.78233C15.4251 3.5136 16.4775 4.56561 17.2092 5.83258C17.3127 6.02331 17.3377 6.24689 17.2789 6.45577C17.2201 6.66465 17.0822 6.84237 16.8944 6.95113C16.7066 7.05989 16.4838 7.09111 16.2734 7.03816C16.0629 6.98521 15.8814 6.85226 15.7675 6.66758C14.9569 5.27055 13.6662 4.21578 12.1357 3.69973C10.6053 3.18368 8.93938 3.24153 7.44838 3.86251C5.95739 4.48349 4.74294 5.62526 4.03125 7.07515C3.31956 8.52504 3.15915 10.1842 3.5799 11.7436C4.00064 13.3029 4.97386 14.6562 6.31827 15.5513C7.66269 16.4464 9.28663 16.8224 10.8876 16.6091C12.4886 16.3958 13.9575 15.6078 15.0207 14.392C16.0839 13.1761 16.6688 11.6152 16.6667 10.0001C16.6667 9.77906 16.7545 9.5671 16.9107 9.41082C17.067 9.25454 17.279 9.16674 17.5 9.16674C17.721 9.16674 17.933 9.25454 18.0893 9.41082C18.2455 9.5671 18.3333 9.77906 18.3333 10.0001C18.3309 12.2095 17.4522 14.3277 15.8899 15.89C14.3276 17.4522 12.2094 18.331 10 18.3334Z" fill="white"/>
</svg>

