<svg width="50" height="14" viewBox="0 0 50 14" fill="none" xmlns="http://www.w3.org/2000/svg">
<path d="M5.46 1.528V1.752C5.46 5.392 4.536 7.87 0.504 9.9L1.498 11.314C6.328 8.864 7.28 5.532 7.28 1.528H5.46ZM1.302 1.528V2.998H6.566V1.528H1.302ZM5.502 4.706L0.63 4.986L0.854 6.582L5.502 6.134V4.706ZM8.848 0.267999V13.232H10.724V0.267999H8.848ZM10.234 5.224V6.75H12.516V5.224H10.234ZM18.7169 5V6.498H21.0129V5H18.7169ZM13.8169 8.906V10.404H14.6989C16.5609 10.404 17.8069 10.376 19.2629 10.124L19.1089 8.64C17.6949 8.878 16.5189 8.906 14.6989 8.906H13.8169ZM13.8169 1.71V9.452H15.5809V3.18H18.6329V1.71H13.8169ZM15.0769 5.196V6.624H18.1429V5.196H15.0769ZM22.8049 0.282V13.246H24.5829V0.282H22.8049ZM20.1309 0.505999V12.672H21.8669V0.505999H20.1309ZM27.5218 1.374V2.872H35.7398V1.374H27.5218ZM26.3318 10.18V11.692H38.0498V10.18H26.3318ZM30.4758 5.728V10.922H32.3378V5.728H30.4758ZM35.0678 1.374V2.62C35.0678 4.174 35.0678 6.05 34.5498 8.626L36.4118 8.836C36.9298 6.064 36.9298 4.244 36.9298 2.62V1.374H35.0678ZM48.1287 0.267999V13.274H49.9907V0.267999H48.1287ZM39.8967 8.738V10.25H41.0447C43.4107 10.25 45.3147 10.18 47.4147 9.802L47.2327 8.304C45.1747 8.654 43.3407 8.738 41.0447 8.738H39.8967ZM39.8827 1.374V2.858H44.0967V4.916H39.8967V9.298H41.7867V6.386H46.0007V1.374H39.8827Z" fill="black"/>
</svg>
