<svg width="37" height="14" viewBox="0 0 37 14" fill="none" xmlns="http://www.w3.org/2000/svg">
<path d="M1.492 8.206V9.704H8.464V13.274H10.34V8.206H1.492ZM8.464 0.309999V7.674H10.34V0.309999H8.464ZM0.302 0.967999V6.316H2.15V0.967999H0.302ZM0.302 5.476V7.002H1.422C3.34 7.002 5.44 6.876 7.638 6.442L7.414 4.93C5.3 5.35 3.27 5.476 1.422 5.476H0.302ZM12.9289 1.514V9.046H14.7769V1.514H12.9289ZM12.9289 8.57V10.152H13.8389C15.4909 10.152 16.8909 10.096 18.4449 9.76L18.2069 8.206C16.7089 8.514 15.4069 8.57 13.8389 8.57H12.9289ZM21.8329 0.282V13.246H23.6109V0.282H21.8329ZM16.5409 4.37V5.868H19.4949V4.37H16.5409ZM19.0889 0.505999V12.672H20.8249V0.505999H19.0889ZM34.2218 0.296V7.618H36.0978V0.296H34.2218ZM27.4738 8.206V13.106H36.0978V8.206H27.4738ZM34.2638 9.662V11.636H29.2938V9.662H34.2638ZM29.0418 0.884C27.0258 0.884 25.5138 2.172 25.5138 3.992C25.5138 5.798 27.0258 7.1 29.0418 7.1C31.0578 7.1 32.5558 5.798 32.5558 3.992C32.5558 2.172 31.0578 0.884 29.0418 0.884ZM29.0418 2.424C30.0218 2.424 30.7358 2.998 30.7358 3.992C30.7358 4.972 30.0218 5.546 29.0418 5.546C28.0618 5.546 27.3338 4.972 27.3338 3.992C27.3338 2.998 28.0618 2.424 29.0418 2.424Z" fill="black"/>
</svg>
