<svg width="25" height="14" viewBox="0 0 25 14" fill="none" xmlns="http://www.w3.org/2000/svg">
<path d="M3.57 0.954V2.116C3.57 3.894 2.66 5.644 0.448 6.358L1.414 7.856C3.962 7.002 5.124 4.72 5.124 2.116V0.954H3.57ZM3.962 0.954V2.032C3.962 4.552 4.998 6.638 7.392 7.464L8.358 6.008C6.3 5.35 5.46 3.754 5.46 2.032V0.954H3.962ZM9.548 0.282V7.87H11.41V0.282H9.548ZM7.014 8.206C4.27 8.206 2.576 9.144 2.576 10.726C2.576 12.322 4.27 13.246 7.014 13.246C9.758 13.246 11.452 12.322 11.452 10.726C11.452 9.144 9.758 8.206 7.014 8.206ZM7.014 9.648C8.708 9.648 9.604 9.998 9.604 10.726C9.604 11.454 8.708 11.818 7.014 11.818C5.334 11.818 4.438 11.454 4.438 10.726C4.438 9.998 5.334 9.648 7.014 9.648ZM7.182 2.634V4.146H9.814V2.634H7.182ZM19.6969 1.906V3.306H22.8329V1.906H19.6969ZM19.6969 4.272V5.672H22.8329V4.272H19.6969ZM22.4269 0.282V6.932H24.2889V0.282H22.4269ZM15.7209 7.436V8.864H22.4409V9.564H15.7349V12.546H17.5829V10.908H24.2889V7.436H15.7209ZM15.7349 11.664V13.106H24.6529V11.664H15.7349ZM13.9849 0.814V6.582H20.1169V0.814H18.2969V2.326H15.8329V0.814H13.9849ZM15.8329 3.726H18.2969V5.126H15.8329V3.726Z" fill="black"/>
</svg>
