<svg width="36" height="30" viewBox="0 0 36 30" fill="none" xmlns="http://www.w3.org/2000/svg">
<mask id="path-1-inside-1_2161_186" fill="white">
<path fill-rule="evenodd" clip-rule="evenodd" d="M17.5535 26.4111C27.248 26.4111 35.107 20.5626 35.107 13.348C35.107 6.13351 27.248 0.284973 17.5535 0.284973C7.85897 0.284973 0 6.13351 0 13.348C0 17.0097 2.02443 20.3195 5.28579 22.6913L4.34469 28.2424C4.20432 29.0704 5.0853 29.6921 5.8184 29.2825L12.1052 25.7697C13.8203 26.186 15.6516 26.4111 17.5535 26.4111Z"/>
</mask>
<path d="M5.28579 22.6913L7.25765 23.0256L7.46491 21.8031L6.46212 21.0739L5.28579 22.6913ZM4.34469 28.2424L2.37283 27.9081L4.34469 28.2424ZM5.8184 29.2825L6.79397 31.0284H6.79397L5.8184 29.2825ZM12.1052 25.7697L12.577 23.8261L11.8145 23.641L11.1296 24.0237L12.1052 25.7697ZM33.107 13.348C33.107 16.1779 31.5702 18.898 28.7717 20.9806C25.9731 23.0632 22.0135 24.4111 17.5535 24.4111V28.4111C22.788 28.4111 27.6052 26.8348 31.1597 24.1895C34.7143 21.5442 37.107 17.7327 37.107 13.348H33.107ZM17.5535 2.28497C22.0135 2.28497 25.9731 3.63289 28.7717 5.71553C31.5702 7.79813 33.107 10.5182 33.107 13.348H37.107C37.107 8.96339 34.7143 5.15189 31.1597 2.50659C27.6052 -0.138673 22.788 -1.71503 17.5535 -1.71503V2.28497ZM2 13.348C2 10.5182 3.53682 7.79813 6.33532 5.71553C9.13387 3.63289 13.0935 2.28497 17.5535 2.28497V-1.71503C12.319 -1.71503 7.50186 -0.138673 3.94728 2.50659C0.392667 5.15189 -2 8.96339 -2 13.348H2ZM6.46212 21.0739C3.58367 18.9805 2 16.2198 2 13.348H-2C-2 17.7996 0.465189 21.6585 4.10946 24.3088L6.46212 21.0739ZM6.31655 28.5767L7.25765 23.0256L3.31393 22.357L2.37283 27.9081L6.31655 28.5767ZM4.84284 27.5366C5.57595 27.1269 6.45692 27.7487 6.31655 28.5767L2.37283 27.9081C1.95172 30.392 4.59465 32.2573 6.79397 31.0284L4.84284 27.5366ZM11.1296 24.0237L4.84284 27.5366L6.79397 31.0284L13.0808 27.5156L11.1296 24.0237ZM17.5535 24.4111C15.8089 24.4111 14.1361 24.2046 12.577 23.8261L11.6334 27.7132C13.5045 28.1674 15.4942 28.4111 17.5535 28.4111V24.4111Z" fill="#71C9DD" mask="url(#path-1-inside-1_2161_186)"/>
</svg>
