<svg width="33" height="38" viewBox="0 0 33 38" fill="none" xmlns="http://www.w3.org/2000/svg">
<mask id="path-1-inside-1_2161_192" fill="white">
<path fill-rule="evenodd" clip-rule="evenodd" d="M14.9212 0.966084C15.7063 0.160312 17.0012 0.160313 17.7863 0.966086L22.0688 5.3617V3.94506C22.0688 2.84049 22.9643 1.94505 24.0688 1.94505H24.9675C26.0721 1.94505 26.9675 2.84048 26.9675 3.94505V10.3897L32.136 15.6947C33.3707 16.962 32.4728 19.0904 30.7035 19.0904H29.4169V32.0521C29.4169 34.8135 27.1783 37.0521 24.4169 37.0521H21.2524V28.0712C21.2524 25.3658 19.0592 23.1726 16.3538 23.1726C13.6483 23.1726 11.4551 25.3658 11.4551 28.0712V37.0521H8.29072C5.52929 37.0521 3.29072 34.8135 3.29072 32.0521V19.0904H2.00399C0.234714 19.0904 -0.663181 16.9619 0.57148 15.6947L14.9212 0.966084Z"/>
</mask>
<path d="M17.7863 0.966086L19.2188 -0.429585V-0.429585L17.7863 0.966086ZM14.9212 0.966084L13.4887 -0.429586V-0.429586L14.9212 0.966084ZM22.0688 5.3617L20.6363 6.75738L24.0688 10.2805V5.3617H22.0688ZM26.9675 10.3897H24.9675V11.2029L25.535 11.7854L26.9675 10.3897ZM32.136 15.6947L30.7035 17.0904L30.7035 17.0904L32.136 15.6947ZM29.4169 19.0904V17.0904H27.4169V19.0904H29.4169ZM21.2524 37.0521H19.2524V39.0521H21.2524V37.0521ZM11.4551 37.0521V39.0521H13.4551V37.0521H11.4551ZM3.29072 19.0904H5.29072V17.0904H3.29072V19.0904ZM0.57148 15.6947L2.004 17.0904H2.004L0.57148 15.6947ZM19.2188 -0.429585C17.6487 -2.04113 15.0588 -2.04113 13.4887 -0.429586L16.3538 2.36176V2.36176L19.2188 -0.429585ZM23.5014 3.96603L19.2188 -0.429585L16.3538 2.36176L20.6363 6.75738L23.5014 3.96603ZM20.0688 3.94506V5.3617H24.0688V3.94506H20.0688ZM24.0688 -0.0549456C21.8597 -0.0549456 20.0688 1.73592 20.0688 3.94506H24.0688V3.94505V-0.0549456ZM24.9675 -0.0549456H24.0688V3.94505H24.9675V-0.0549456ZM28.9675 3.94505C28.9675 1.73591 27.1766 -0.0549456 24.9675 -0.0549456V3.94505L24.9675 3.94505H28.9675ZM28.9675 10.3897V3.94505H24.9675V10.3897H28.9675ZM33.5686 14.299L28.4 8.99402L25.535 11.7854L30.7035 17.0904L33.5686 14.299ZM30.7035 21.0904C34.2421 21.0904 36.0379 16.8335 33.5686 14.299L30.7035 17.0904L30.7035 17.0904V21.0904ZM29.4169 21.0904H30.7035V17.0904H29.4169V21.0904ZM31.4169 32.0521V19.0904H27.4169V32.0521H31.4169ZM24.4169 39.0521C28.2829 39.0521 31.4169 35.9181 31.4169 32.0521H27.4169C27.4169 33.7089 26.0737 35.0521 24.4169 35.0521V39.0521ZM21.2524 39.0521H24.4169V35.0521H21.2524V39.0521ZM19.2524 28.0712V37.0521H23.2524V28.0712H19.2524ZM16.3538 25.1726C17.9546 25.1726 19.2524 26.4703 19.2524 28.0712H23.2524C23.2524 24.2612 20.1638 21.1726 16.3538 21.1726V25.1726ZM13.4551 28.0712C13.4551 26.4703 14.7529 25.1726 16.3538 25.1726V21.1726C12.5437 21.1726 9.4551 24.2612 9.4551 28.0712H13.4551ZM13.4551 37.0521V28.0712H9.4551V37.0521H13.4551ZM8.29072 39.0521H11.4551V35.0521H8.29072V39.0521ZM1.29072 32.0521C1.29072 35.9181 4.42472 39.0521 8.29072 39.0521V35.0521C6.63386 35.0521 5.29072 33.7089 5.29072 32.0521H1.29072ZM1.29072 19.0904V32.0521H5.29072V19.0904H1.29072ZM2.00399 21.0904H3.29072V17.0904H2.00399V21.0904ZM-0.861036 14.299C-3.33035 16.8335 -1.53458 21.0904 2.00399 21.0904V17.0904H2.004L-0.861036 14.299ZM13.4887 -0.429586L-0.861036 14.299L2.004 17.0904L16.3538 2.36175L13.4887 -0.429586Z" fill="#71C9DD" mask="url(#path-1-inside-1_2161_192)"/>
</svg>
