<svg width="260" height="55" viewBox="0 0 260 55" fill="none" xmlns="http://www.w3.org/2000/svg">
<path d="M78.6235 3.27202V6.80002C78.6235 10.544 76.0075 14.624 72.8635 16.112L74.0155 17.696C77.4715 15.992 80.2315 11.384 80.2315 6.80002V3.27202H78.6235ZM79.0075 3.27202V6.80002C79.0075 11.312 81.7915 15.536 85.2955 17.168L86.4235 15.584C83.2315 14.216 80.6155 10.472 80.6155 6.80002V3.27202H79.0075ZM73.5835 2.38402V4.06402H85.7035V2.38402H73.5835ZM88.6315 0.176017V21.872H90.6235V0.176017H88.6315Z" fill="black"/>
<path d="M109.654 0.176017V21.872H111.646V0.176017H109.654ZM111.166 9.08002V10.76H115.198V9.08002H111.166ZM94.8457 3.63202V5.26402H107.638V3.63202H94.8457ZM101.326 7.06402C98.2777 7.06402 96.0457 9.12802 96.0457 12.056C96.0457 14.984 98.2777 17.048 101.326 17.048C104.398 17.048 106.606 14.984 106.606 12.056C106.606 9.12802 104.398 7.06402 101.326 7.06402ZM101.326 8.72002C103.294 8.72002 104.71 10.088 104.71 12.056C104.71 14 103.294 15.392 101.326 15.392C99.3577 15.392 97.9417 14 97.9417 12.056C97.9417 10.088 99.3577 8.72002 101.326 8.72002ZM100.294 0.440017V4.37602H102.286V0.440017H100.294Z" fill="black"/>
<path d="M122.444 3.51202V4.42402C122.444 6.99202 120.188 9.17602 116.972 10.016L117.86 11.576C121.532 10.568 124.076 7.85602 124.076 4.42402V3.51202H122.444ZM122.804 3.51202V4.42402C122.804 7.68802 125.42 10.232 129.116 11.144L129.956 9.60802C126.764 8.86402 124.436 6.82402 124.436 4.42402V3.51202H122.804ZM117.644 2.31202V3.94402H129.212V2.31202H117.644ZM122.444 0.0800171V3.22402H124.436V0.0800171H122.444ZM128.588 5.55202V7.18402H134.156V5.55202H128.588ZM132.884 0.176017V11.528H134.876V0.176017H132.884ZM120.908 12.584V14.168H132.908V16.256H120.956V20.96H122.9V17.744H134.876V12.584H120.908ZM120.956 20.072V21.632H135.668V20.072H120.956Z" fill="black"/>
<path d="M147.906 8.60002V10.256H152.01V8.60002H147.906ZM155.634 0.176017V21.872H157.554V0.176017H155.634ZM151.338 0.632017V20.792H153.234V0.632017H151.338ZM143.994 1.97602C141.186 1.97602 139.386 4.88002 139.386 9.53602C139.386 14.192 141.186 17.096 143.994 17.096C146.802 17.096 148.626 14.192 148.626 9.53602C148.626 4.88002 146.802 1.97602 143.994 1.97602ZM143.994 3.82402C145.722 3.82402 146.802 6.03202 146.802 9.53602C146.802 13.04 145.722 15.248 143.994 15.248C142.29 15.248 141.21 13.04 141.21 9.53602C141.21 6.03202 142.29 3.82402 143.994 3.82402Z" fill="black"/>
<path d="M172.024 7.52002V9.15202H178.072V7.52002H172.024ZM166.792 2.04802V5.91202C166.792 9.94402 164.344 14.12 161.152 15.704L162.424 17.288C165.856 15.44 168.424 10.784 168.424 5.91202V2.04802H166.792ZM167.176 2.04802V5.91202C167.176 10.664 169.696 15.128 173.2 16.904L174.376 15.296C171.232 13.808 168.784 9.87202 168.784 5.91202V2.04802H167.176ZM177.088 0.152018V21.896H179.056V0.152018H177.088Z" fill="black"/>
<path d="M4.86104 35.216V39.344C4.86104 43.064 3.06104 46.952 0.0610352 48.704L1.33304 50.192C4.50104 48.272 6.42104 43.88 6.42104 39.344V35.216H4.86104ZM5.22104 35.216V39.224C5.22104 43.592 6.97304 47.816 10.141 49.64L11.341 48.08C8.46104 46.472 6.78104 42.8 6.78104 39.224V35.216H5.22104ZM16.837 33.176V54.872H18.757V33.176H16.837ZM13.405 41.888V43.544H17.557V41.888H13.405ZM12.061 33.632V53.792H13.957V33.632H12.061Z" fill="black"/>
<path d="M22.4032 50.552V52.208H42.0592V50.552H22.4032ZM31.1872 45.896V51.248H33.1792V45.896H31.1872ZM24.7792 34.784V36.392H37.6672V39.752H24.8512V45.704H26.8192V41.36H39.6352V34.784H24.7792ZM24.8512 44.864V46.496H40.1392V44.864H24.8512Z" fill="black"/>
<path d="M44.4573 44.168V45.8H64.1373V44.168H44.4573ZM53.4333 45.2V50.192H55.4493V45.2H53.4333ZM46.9533 52.736V54.392H61.9533V52.736H46.9533ZM46.9533 48.056V53.192H48.9453V48.056H46.9533ZM54.2733 33.704C49.6653 33.704 46.6653 35.384 46.6653 38.072C46.6653 40.76 49.6653 42.44 54.2733 42.44C58.8573 42.44 61.8813 40.76 61.8813 38.072C61.8813 35.384 58.8573 33.704 54.2733 33.704ZM54.2733 35.336C57.5853 35.336 59.7693 36.392 59.7693 38.072C59.7693 39.776 57.5853 40.808 54.2733 40.808C50.9613 40.808 48.7773 39.776 48.7773 38.072C48.7773 36.392 50.9613 35.336 54.2733 35.336Z" fill="black"/>
<path d="M88.5618 33.2V49.04H90.5778V33.2H88.5618ZM76.6338 52.76V54.392H91.2258V52.76H76.6338ZM76.6338 47.408V53.312H78.6018V47.408H76.6338ZM78.9378 34.688C75.6978 34.688 73.2738 36.896 73.2738 40.04C73.2738 43.16 75.6978 45.392 78.9378 45.392C82.1778 45.392 84.5778 43.16 84.5778 40.04C84.5778 36.896 82.1778 34.688 78.9378 34.688ZM78.9378 36.416C81.0498 36.416 82.6578 37.904 82.6578 40.04C82.6578 42.152 81.0498 43.64 78.9378 43.64C76.8258 43.64 75.2178 42.152 75.2178 40.04C75.2178 37.904 76.8258 36.416 78.9378 36.416Z" fill="black"/>
<path d="M104.904 36.56V38.192H111.432V36.56H104.904ZM104.904 41.768V43.4H111.432V41.768H104.904ZM110.712 33.2V49.232H112.704V33.2H110.712ZM98.8559 52.76V54.392H113.304V52.76H98.8559ZM98.8559 47.576V53.48H100.848V47.576H98.8559ZM100.776 34.568C97.5839 34.568 95.1839 36.8 95.1839 39.992C95.1839 43.184 97.5839 45.416 100.776 45.416C103.968 45.416 106.368 43.184 106.368 39.992C106.368 36.8 103.968 34.568 100.776 34.568ZM100.776 36.32C102.888 36.32 104.472 37.856 104.472 39.992C104.472 42.152 102.888 43.688 100.776 43.688C98.6639 43.688 97.1039 42.152 97.1039 39.992C97.1039 37.856 98.6639 36.32 100.776 36.32Z" fill="black"/>
<path d="M126.742 33.536C121.942 33.536 119.11 34.88 119.11 37.304C119.11 39.728 121.942 41.072 126.742 41.072C131.518 41.072 134.374 39.728 134.374 37.304C134.374 34.88 131.518 33.536 126.742 33.536ZM126.742 35.048C130.27 35.048 132.31 35.864 132.31 37.304C132.31 38.744 130.27 39.56 126.742 39.56C123.19 39.56 121.15 38.744 121.15 37.304C121.15 35.864 123.19 35.048 126.742 35.048ZM116.926 42.512V44.12H136.534V42.512H116.926ZM119.302 45.968V47.504H132.07V49.424H119.35V53.504H121.318V50.864H134.038V45.968H119.302ZM119.35 53.072V54.632H134.686V53.072H119.35Z" fill="black"/>
<path d="M146.151 35.12V45.176H156.111V35.12H146.151ZM154.167 36.728V43.568H148.095V36.728H154.167ZM160.095 33.152V49.064H162.087V33.152H160.095ZM161.463 39.776V41.432H165.303V39.776H161.463ZM148.575 52.76V54.392H163.071V52.76H148.575ZM148.575 47.552V53.456H150.567V47.552H148.575Z" fill="black"/>
<path d="M183.469 41.816V43.496H187.477V41.816H183.469ZM182.005 33.152V54.872H184.021V33.152H182.005ZM168.181 35.288V48.728H170.173V35.288H168.181ZM168.181 47.696V49.376H169.909C173.197 49.376 176.533 49.16 180.229 48.392L179.989 46.736C176.413 47.48 173.125 47.696 169.909 47.696H168.181Z" fill="black"/>
<path d="M189.419 50.456V52.112H209.075V50.456H189.419ZM198.203 45.272V50.936H200.195V45.272H198.203ZM191.723 34.712V45.8H206.723V34.712H204.755V38.576H193.691V34.712H191.723ZM193.691 40.184H204.755V44.168H193.691V40.184Z" fill="black"/>
<path d="M217.257 34.832C214.065 34.832 211.809 37.784 211.809 42.392C211.809 47.024 214.065 49.976 217.257 49.976C220.449 49.976 222.705 47.024 222.705 42.392C222.705 37.784 220.449 34.832 217.257 34.832ZM217.257 36.632C219.345 36.632 220.809 38.888 220.809 42.392C220.809 45.92 219.345 48.224 217.257 48.224C215.145 48.224 213.705 45.92 213.705 42.392C213.705 38.888 215.145 36.632 217.257 36.632ZM226.161 33.176V54.872H228.177V33.176H226.161ZM227.697 41.84V43.52H231.729V41.84H227.697Z" fill="black"/>
<path d="M238.375 44.336V50.84H240.343V44.336H238.375ZM246.391 44.336V50.84H248.383V44.336H246.391ZM233.575 50.456V52.112H253.231V50.456H233.575ZM243.367 34.544C238.759 34.544 235.471 36.728 235.471 40.136C235.471 43.52 238.759 45.704 243.367 45.704C247.951 45.704 251.239 43.52 251.239 40.136C251.239 36.728 247.951 34.544 243.367 34.544ZM243.367 36.128C246.847 36.128 249.319 37.712 249.319 40.136C249.319 42.536 246.847 44.12 243.367 44.12C239.887 44.12 237.391 42.536 237.391 40.136C237.391 37.712 239.887 36.128 243.367 36.128Z" fill="black"/>
<path d="M256.181 51.704C256.181 51.112 256.325 50.696 256.613 50.456C256.901 50.216 257.245 50.096 257.645 50.096C258.061 50.096 258.413 50.216 258.701 50.456C259.005 50.696 259.157 51.112 259.157 51.704C259.157 52.28 259.005 52.696 258.701 52.952C258.413 53.208 258.061 53.336 257.645 53.336C257.245 53.336 256.901 53.208 256.613 52.952C256.325 52.696 256.181 52.28 256.181 51.704Z" fill="black"/>
</svg>
