<svg width="275" height="11" viewBox="0 0 275 11" fill="none" xmlns="http://www.w3.org/2000/svg">
<path d="M8.49606 0.0880039V10.936H9.49206V0.0880039H8.49606ZM5.31606 1.252V1.42C5.31606 4.3 3.86406 6.604 0.732056 8.116L1.26006 8.92C4.88406 7.144 6.30006 4.396 6.30006 1.252H5.31606ZM1.22406 1.252V2.068H5.74806V1.252H1.22406Z" fill="#828282"/>
<path d="M19.5231 0.0880039V5.908H20.5311V0.0880039H19.5231ZM13.5351 6.448V10.792H20.5311V6.448H19.5471V7.768H14.5191V6.448H13.5351ZM14.5191 8.56H19.5471V9.988H14.5191V8.56ZM14.7111 0.604004C13.0671 0.604004 11.8791 1.624 11.8791 3.1C11.8791 4.588 13.0671 5.608 14.7111 5.608C16.3551 5.608 17.5311 4.588 17.5311 3.1C17.5311 1.624 16.3551 0.604004 14.7111 0.604004ZM14.7111 1.432C15.7911 1.432 16.5711 2.116 16.5711 3.1C16.5711 4.084 15.7911 4.768 14.7111 4.768C13.6311 4.768 12.8511 4.084 12.8511 3.1C12.8511 2.116 13.6311 1.432 14.7111 1.432Z" fill="#828282"/>
<path d="M30.0222 0.0880039V10.936H31.0182V0.0880039H30.0222ZM30.7782 4.54V5.38H32.7942V4.54H30.7782ZM22.6182 1.816V2.632H29.0142V1.816H22.6182ZM25.8582 3.532C24.3342 3.532 23.2182 4.564 23.2182 6.028C23.2182 7.492 24.3342 8.524 25.8582 8.524C27.3942 8.524 28.4982 7.492 28.4982 6.028C28.4982 4.564 27.3942 3.532 25.8582 3.532ZM25.8582 4.36C26.8422 4.36 27.5502 5.044 27.5502 6.028C27.5502 7 26.8422 7.696 25.8582 7.696C24.8742 7.696 24.1662 7 24.1662 6.028C24.1662 5.044 24.8742 4.36 25.8582 4.36ZM25.3422 0.220004V2.188H26.3382V0.220004H25.3422Z" fill="#828282"/>
<path d="M41.6012 0.100004V8.044H42.6092V0.100004H41.6012ZM35.6372 9.88V10.696H42.9332V9.88H35.6372ZM35.6372 7.312V10.264H36.6212V7.312H35.6372ZM36.5372 0.688004V1.792C36.5372 3.472 35.4572 5.056 33.8252 5.692L34.3412 6.496C36.1652 5.752 37.3652 3.904 37.3652 1.792V0.688004H36.5372ZM36.7172 0.688004V1.792C36.7172 3.856 37.9172 5.596 39.7172 6.292L40.2452 5.488C38.6252 4.9 37.5332 3.424 37.5332 1.792V0.688004H36.7172Z" fill="#828282"/>
<path d="M53.6575 2.896V3.724H56.1055V2.896H53.6575ZM55.7935 0.0880039V6.556H56.7895V0.0880039H55.7935ZM53.2255 6.88C50.9815 6.88 49.6015 7.636 49.6015 8.908C49.6015 10.192 50.9815 10.924 53.2255 10.924C55.4575 10.924 56.8375 10.192 56.8375 8.908C56.8375 7.636 55.4575 6.88 53.2255 6.88ZM53.2255 7.66C54.8575 7.66 55.8535 8.116 55.8535 8.908C55.8535 9.688 54.8575 10.144 53.2255 10.144C51.5935 10.144 50.5975 9.688 50.5975 8.908C50.5975 8.116 51.5935 7.66 53.2255 7.66ZM50.6335 1.18V2.056C50.6335 3.616 49.5175 5.068 47.9095 5.656L48.4255 6.448C50.2255 5.776 51.4495 4.06 51.4495 2.056V1.18H50.6335ZM50.8255 1.18V2.056C50.8255 3.88 51.9895 5.512 53.7535 6.148L54.2575 5.356C52.6855 4.804 51.6295 3.46 51.6295 2.056V1.18H50.8255ZM48.2095 0.880004V1.696H54.0055V0.880004H48.2095Z" fill="#828282"/>
<path d="M58.9126 8.728V9.556H68.7406V8.728H58.9126ZM63.3046 6.136V8.968H64.3006V6.136H63.3046ZM60.0646 0.856004V6.4H67.5646V0.856004H66.5806V2.788H61.0486V0.856004H60.0646ZM61.0486 3.592H66.5806V5.584H61.0486V3.592Z" fill="#828282"/>
<path d="M69.9396 5.128V5.884H79.7796V5.128H69.9396ZM71.1036 6.76V7.468H77.5716V8.392H71.1396V10.348H72.1236V9.076H78.5436V6.76H71.1036ZM71.1396 10.084V10.804H78.8916V10.084H71.1396ZM71.1876 0.400004V1.108H77.5356V1.984H71.2116V3.832H72.1956V2.656H78.5076V0.400004H71.1876ZM71.2116 3.592V4.312H78.7116V3.592H71.2116Z" fill="#828282"/>
<path d="M91.4399 0.0880039V10.936H92.4479V0.0880039H91.4399ZM92.2079 4.348V5.2H94.2239V4.348H92.2079ZM84.5279 1V8.332H89.5919V1H88.6079V3.868H85.5119V1H84.5279ZM85.5119 4.66H88.6079V7.516H85.5119V4.66Z" fill="#828282"/>
<path d="M102.563 0.0880039V6.76H103.559V0.0880039H102.563ZM103.283 2.884V3.724H105.167V2.884H103.283ZM100.115 7.024C97.8949 7.024 96.5509 7.744 96.5509 8.98C96.5509 10.216 97.8949 10.912 100.115 10.912C102.335 10.912 103.679 10.216 103.679 8.98C103.679 7.744 102.335 7.024 100.115 7.024ZM100.115 7.804C101.735 7.804 102.707 8.236 102.707 8.98C102.707 9.712 101.735 10.144 100.115 10.144C98.5069 10.144 97.5349 9.712 97.5349 8.98C97.5349 8.236 98.5069 7.804 100.115 7.804ZM95.6389 5.224V6.028H96.4669C98.6749 6.028 99.9229 5.98 101.411 5.716L101.303 4.912C99.8509 5.176 98.6389 5.224 96.4669 5.224H95.6389ZM95.6389 0.844004V5.608H96.6229V1.66H100.595V0.844004H95.6389ZM96.3109 3.004V3.796H100.391V3.004H96.3109Z" fill="#828282"/>
<path d="M111.082 0.772004C108.826 0.772004 107.134 1.972 107.134 3.772C107.134 5.584 108.826 6.772 111.082 6.772C113.338 6.772 115.018 5.584 115.018 3.772C115.018 1.972 113.338 0.772004 111.082 0.772004ZM111.082 1.588C112.798 1.588 114.07 2.464 114.07 3.772C114.07 5.068 112.798 5.956 111.082 5.956C109.366 5.956 108.094 5.068 108.094 3.772C108.094 2.464 109.366 1.588 111.082 1.588ZM106.186 8.668V9.50801H116.014V8.668H106.186Z" fill="#828282"/>
<path d="M117.225 8.776V9.604H127.053V8.776H117.225ZM121.617 6.448V9.124H122.613V6.448H121.617ZM118.413 0.892004V1.696H124.857V3.376H118.449V6.352H119.433V4.18H125.841V0.892004H118.413ZM118.449 5.932V6.748H126.093V5.932H118.449Z" fill="#828282"/>
<path d="M134.057 1.636V3.4C134.057 5.236 132.749 7.3 131.201 8.056L131.777 8.848C133.469 7.984 134.849 5.656 134.849 3.4V1.636H134.057ZM134.237 1.636V3.4C134.237 5.548 135.545 7.732 137.261 8.584L137.825 7.792C136.253 7.048 135.029 5.116 135.029 3.4V1.636H134.237ZM131.585 1.192V2.032H137.429V1.192H131.585ZM138.713 0.0880039V10.936H139.721V0.0880039H138.713ZM139.481 4.468V5.308H141.497V4.468H139.481Z" fill="#828282"/>
<path d="M142.42 5.428V6.244H152.224V5.428H142.42ZM146.824 3.688V5.764H147.808V3.688H146.824ZM143.656 3.376V4.192H151.084V3.376H143.656ZM143.656 0.580004V3.856H144.64V1.384H151V0.580004H143.656ZM147.304 7.024C144.988 7.024 143.584 7.732 143.584 8.968C143.584 10.228 144.988 10.924 147.304 10.924C149.62 10.924 151.024 10.228 151.024 8.968C151.024 7.732 149.62 7.024 147.304 7.024ZM147.304 7.792C149.008 7.792 150.016 8.224 150.016 8.968C150.016 9.724 149.008 10.144 147.304 10.144C145.612 10.144 144.592 9.724 144.592 8.968C144.592 8.224 145.612 7.792 147.304 7.792Z" fill="#828282"/>
<path d="M160.021 10H159.361V3.628C159.361 3.396 159.361 3.196 159.361 3.028C159.361 2.86 159.365 2.704 159.373 2.56C159.381 2.416 159.385 2.28 159.385 2.152C159.273 2.256 159.169 2.352 159.073 2.44C158.977 2.52 158.849 2.62 158.689 2.74L157.489 3.664L157.129 3.184L159.457 1.432H160.021V10Z" fill="#828282"/>
<path d="M163.78 9.544C163.78 9.344 163.824 9.196 163.912 9.1C164 9.004 164.124 8.95601 164.284 8.95601C164.46 8.95601 164.592 9.004 164.68 9.1C164.776 9.196 164.824 9.344 164.824 9.544C164.824 9.736 164.776 9.884 164.68 9.988C164.592 10.084 164.46 10.132 164.284 10.132C164.124 10.132 164 10.084 163.912 9.988C163.824 9.884 163.78 9.736 163.78 9.544ZM163.78 4.096C163.78 3.904 163.824 3.76 163.912 3.664C164 3.56 164.124 3.508 164.284 3.508C164.46 3.508 164.592 3.56 164.68 3.664C164.776 3.76 164.824 3.904 164.824 4.096C164.824 4.296 164.776 4.448 164.68 4.552C164.592 4.648 164.46 4.696 164.284 4.696C164.124 4.696 164 4.648 163.912 4.552C163.824 4.448 163.78 4.296 163.78 4.096Z" fill="#828282"/>
<path d="M169.806 10H169.146V3.628C169.146 3.396 169.146 3.196 169.146 3.028C169.146 2.86 169.15 2.704 169.158 2.56C169.166 2.416 169.17 2.28 169.17 2.152C169.058 2.256 168.954 2.352 168.858 2.44C168.762 2.52 168.634 2.62 168.474 2.74L167.274 3.664L166.914 3.184L169.242 1.432H169.806V10Z" fill="#828282"/>
<path d="M181.473 0.0880039V10.936H182.433V0.0880039H181.473ZM179.757 4.384V5.2H181.833V4.384H179.757ZM179.073 0.316004V10.396H180.021V0.316004H179.073ZM173.601 1.336V8.032H177.741V1.336H173.601ZM176.805 2.128V7.24H174.537V2.128H176.805Z" fill="#828282"/>
<path d="M187.196 1.876V2.344C187.196 3.82 186.08 5.14 184.46 5.668L184.94 6.436C186.776 5.836 188.012 4.252 188.012 2.344V1.876H187.196ZM187.364 1.876V2.344C187.364 4.156 188.636 5.632 190.484 6.184L190.94 5.392C189.332 4.936 188.18 3.712 188.18 2.344V1.876H187.364ZM184.724 1.42V2.224H190.628V1.42H184.724ZM187.196 0.0880039V1.768H188.18V0.0880039H187.196ZM192.14 0.100004V6.736H193.148V0.100004H192.14ZM189.536 6.964C187.268 6.964 185.9 7.684 185.9 8.932C185.9 10.192 187.268 10.912 189.536 10.912C191.804 10.912 193.184 10.192 193.184 8.932C193.184 7.684 191.804 6.964 189.536 6.964ZM189.536 7.756C191.192 7.756 192.188 8.188 192.188 8.932C192.188 9.7 191.192 10.132 189.536 10.132C187.892 10.132 186.896 9.7 186.896 8.932C186.896 8.188 187.892 7.756 189.536 7.756Z" fill="#828282"/>
<path d="M203.167 0.076004V10.948H204.163V0.076004H203.167ZM198.439 0.916004C196.843 0.916004 195.691 2.392 195.691 4.696C195.691 7.012 196.843 8.488 198.439 8.488C200.047 8.488 201.199 7.012 201.199 4.696C201.199 2.392 200.047 0.916004 198.439 0.916004ZM198.439 1.816C199.507 1.816 200.239 2.944 200.239 4.696C200.239 6.46 199.507 7.612 198.439 7.612C197.383 7.612 196.639 6.46 196.639 4.696C196.639 2.944 197.383 1.816 198.439 1.816Z" fill="#828282"/>
<path d="M217.324 0.076004V10.948H218.32V0.076004H217.324ZM212.596 0.916004C211 0.916004 209.848 2.392 209.848 4.696C209.848 7.012 211 8.488 212.596 8.488C214.204 8.488 215.356 7.012 215.356 4.696C215.356 2.392 214.204 0.916004 212.596 0.916004ZM212.596 1.816C213.664 1.816 214.396 2.944 214.396 4.696C214.396 6.46 213.664 7.612 212.596 7.612C211.54 7.612 210.796 6.46 210.796 4.696C210.796 2.944 211.54 1.816 212.596 1.816Z" fill="#828282"/>
<path d="M221.655 0.520004V1.324H228.123V2.584H221.679V5.224H222.687V3.352H229.119V0.520004H221.655ZM221.679 4.732V5.548H229.371V4.732H221.679ZM220.479 6.664V7.492H230.319V6.664H220.479ZM224.883 6.976V10.948H225.867V6.976H224.883Z" fill="#828282"/>
<path d="M234.422 0.916004C232.838 0.916004 231.722 2.392 231.722 4.696C231.722 7.012 232.838 8.488 234.422 8.488C235.994 8.488 237.122 7.012 237.122 4.696C237.122 2.392 235.994 0.916004 234.422 0.916004ZM234.422 1.816C235.466 1.816 236.174 2.944 236.174 4.696C236.174 6.46 235.466 7.612 234.422 7.612C233.378 7.612 232.67 6.46 232.67 4.696C232.67 2.944 233.378 1.816 234.422 1.816ZM239.474 0.076004V10.948H240.458V0.076004H239.474ZM236.798 4.216V5.032H239.906V4.216H236.798Z" fill="#828282"/>
<path d="M245.449 1.024V1.852C245.449 3.328 244.333 4.672 242.701 5.2L243.205 5.992C245.029 5.368 246.277 3.76 246.277 1.852V1.024H245.449ZM245.641 1.024V1.852C245.641 3.688 246.913 5.212 248.713 5.8L249.205 5.02C247.609 4.516 246.469 3.256 246.469 1.852V1.024H245.641ZM242.977 0.796004V1.6H248.917V0.796004H242.977ZM250.453 0.0880039V5.956H251.461V0.0880039H250.453ZM244.465 6.496V10.792H251.461V6.496H250.477V7.78H245.449V6.496H244.465ZM245.449 8.584H250.477V9.976H245.449V8.584Z" fill="#828282"/>
<path d="M261.492 0.0880039V10.936H262.488V0.0880039H261.492ZM254.292 1.144V7.864H255.276V1.144H254.292ZM254.292 7.276V8.14001H255.18C256.896 8.14001 258.612 8.008 260.496 7.624L260.376 6.772C258.54 7.156 256.824 7.276 255.18 7.276H254.292Z" fill="#828282"/>
<path d="M271.979 0.076004V10.948H272.987V0.076004H271.979ZM272.747 4.36V5.2H274.763V4.36H272.747ZM265.103 7.408V8.248H265.955C267.995 8.248 269.423 8.188 271.091 7.876L270.983 7.036C269.363 7.336 267.959 7.408 265.955 7.408H265.103ZM265.103 1.132V7.78H266.087V1.948H270.143V1.132H265.103Z" fill="#828282"/>
</svg>
